<svg width="769" height="229" viewBox="0 0 769 229" fill="none" xmlns="http://www.w3.org/2000/svg">
<g clip-path="url(#clip0_214_4126)">
<g opacity="0.2">
<g opacity="0.2">
<path d="M658.333 155.671L663.011 130.239L620.979 142.006L658.333 155.671Z" fill="#008062"/>
</g>
<g opacity="0.2">
<path d="M383.303 108.234L355.392 157.194L308.801 105.005L383.303 108.234Z" fill="#008062"/>
</g>
<g opacity="0.75">
<path d="M693.887 185.887L764.131 68.0674L763.291 67.4644L693.047 185.284L693.887 185.887Z" fill="#008062"/>
</g>
<g opacity="0.3">
<path d="M595.186 231.673L693.681 186.078L693.253 185.094L594.766 230.697L595.186 231.673Z" fill="#008062"/>
</g>
<g opacity="0.2">
<path d="M39.9799 81.5727L-15.3495 138.253L-38.2012 70.2891L39.9799 81.5727Z" fill="#008062"/>
</g>
<path d="M4.02181 226.325C3.11789 232.093 6.78114 237.735 12.1888 238.925C17.5965 240.116 22.7266 236.41 23.6226 230.649C24.5186 224.888 20.8633 219.239 15.4556 218.048C10.0479 216.858 4.9178 220.595 4.02181 226.325Z" fill="#008062"/>
<path d="M465.18 115.701C464.862 117.636 465.279 119.62 466.349 121.263C467.418 122.906 469.063 124.09 470.96 124.581C474.79 125.43 478.406 122.803 479.04 118.725C479.364 116.786 478.951 114.796 477.88 113.148C476.81 111.5 475.162 110.313 473.26 109.822C469.438 108.996 465.814 111.623 465.18 115.701Z" fill="#008062"/>
<path d="M89.1572 175.246C89.527 175.39 89.9231 175.454 90.3195 175.435C90.7159 175.415 91.1037 175.312 91.4576 175.132C91.8115 174.953 92.1236 174.7 92.3734 174.392C92.6233 174.083 92.8053 173.725 92.9076 173.342C93.1513 172.54 93.0892 171.677 92.7332 170.919C92.3772 170.161 91.7528 169.563 90.9809 169.239C90.6109 169.097 90.2151 169.033 89.8191 169.053C89.4231 169.074 89.0358 169.177 88.6822 169.356C88.3287 169.536 88.0167 169.788 87.7666 170.096C87.5165 170.404 87.3338 170.761 87.2304 171.144C86.9867 171.945 87.0488 172.808 87.4048 173.566C87.7608 174.324 88.3853 174.923 89.1572 175.246V175.246Z" fill="#008062"/>
<path d="M353.871 162.201C354.488 162.433 355.147 162.535 355.806 162.499C356.464 162.463 357.108 162.29 357.697 161.991C358.285 161.693 358.805 161.275 359.223 160.765C359.641 160.255 359.949 159.663 360.127 159.027C360.532 157.691 360.428 156.253 359.835 154.99C359.242 153.726 358.202 152.728 356.916 152.187C356.299 151.948 355.64 151.842 354.98 151.876C354.319 151.909 353.674 152.081 353.085 152.38C352.495 152.679 351.975 153.1 351.559 153.613C351.143 154.127 350.839 154.722 350.667 155.361C350.26 156.696 350.362 158.134 350.954 159.398C351.546 160.662 352.585 161.661 353.871 162.201Z" fill="#008062"/>
<path d="M619.456 147.013C620.072 147.252 620.732 147.358 621.392 147.325C622.052 147.291 622.698 147.119 623.287 146.82C623.876 146.521 624.396 146.101 624.813 145.587C625.229 145.073 625.533 144.478 625.704 143.839C626.112 142.508 626.013 141.074 625.428 139.811C624.842 138.548 623.811 137.547 622.532 136.999C621.916 136.76 621.256 136.654 620.596 136.688C619.936 136.721 619.291 136.893 618.701 137.192C618.112 137.491 617.592 137.912 617.176 138.425C616.759 138.939 616.456 139.534 616.284 140.173C615.873 141.504 615.97 142.94 616.556 144.204C617.141 145.467 618.175 146.468 619.456 147.013V147.013Z" fill="#008062"/>
<path d="M538.055 183.657C537.825 185.03 538.117 186.438 538.875 187.605C539.633 188.772 540.8 189.611 542.147 189.958C542.797 190.095 543.468 190.094 544.118 189.955C544.768 189.817 545.381 189.544 545.919 189.153C546.457 188.763 546.907 188.265 547.24 187.69C547.574 187.115 547.784 186.477 547.856 185.816C548.087 184.445 547.795 183.037 547.039 181.87C546.283 180.704 545.117 179.863 543.772 179.515C543.122 179.377 542.449 179.377 541.799 179.515C541.148 179.653 540.534 179.926 539.995 180.316C539.456 180.707 539.005 181.206 538.671 181.781C538.337 182.357 538.127 182.996 538.055 183.657Z" fill="#008062"/>
<path d="M758.81 66.655C758.579 68.026 758.87 69.4339 759.626 70.6004C760.382 71.7669 761.548 72.6073 762.893 72.9554C763.544 73.0935 764.216 73.0936 764.867 72.9557C765.517 72.8177 766.132 72.5448 766.67 72.1545C767.209 71.7641 767.66 71.2651 767.994 70.6896C768.328 70.1141 768.538 69.4749 768.61 68.8133C768.841 67.4422 768.549 66.0344 767.793 64.8678C767.037 63.7013 765.872 62.861 764.526 62.5128C763.876 62.3747 763.204 62.3746 762.553 62.5126C761.902 62.6505 761.288 62.9235 760.749 63.3138C760.21 63.7041 759.76 64.2031 759.425 64.7786C759.091 65.3541 758.882 65.9933 758.81 66.655Z" fill="#008062"/>
<path d="M258.292 205.518C258.154 206.342 258.329 207.187 258.783 207.887C259.236 208.588 259.935 209.093 260.742 209.303C261.132 209.384 261.534 209.383 261.924 209.299C262.313 209.216 262.68 209.052 263.003 208.818C263.325 208.584 263.595 208.286 263.796 207.942C263.996 207.598 264.123 207.216 264.168 206.82C264.305 205.997 264.13 205.152 263.677 204.451C263.224 203.751 262.524 203.245 261.717 203.035C261.328 202.954 260.925 202.955 260.536 203.039C260.147 203.122 259.779 203.286 259.457 203.52C259.135 203.754 258.865 204.052 258.664 204.396C258.463 204.74 258.337 205.123 258.292 205.518V205.518Z" fill="#008062"/>
<path d="M521.675 68.5592C521.537 69.3824 521.712 70.2274 522.165 70.9279C522.619 71.6284 523.318 72.1337 524.125 72.3443C524.517 72.4251 524.922 72.4228 525.313 72.3373C525.704 72.2518 526.073 72.0852 526.396 71.8481C526.719 71.6111 526.988 71.3088 527.187 70.961C527.386 70.6132 527.51 70.2275 527.55 69.8288C527.69 69.0055 527.516 68.1596 527.062 67.4586C526.608 66.7577 525.908 66.2527 525.1 66.0438C524.708 65.9629 524.303 65.9653 523.912 66.0508C523.521 66.1362 523.152 66.3029 522.829 66.5399C522.506 66.777 522.237 67.0792 522.038 67.427C521.839 67.7749 521.715 68.1606 521.675 68.5592Z" fill="#008062"/>
<path d="M655.407 155.02C655.269 155.844 655.445 156.69 655.901 157.39C656.356 158.091 657.056 158.596 657.865 158.805C658.254 158.882 658.654 158.878 659.041 158.792C659.428 158.707 659.793 158.543 660.113 158.309C660.433 158.076 660.702 157.779 660.902 157.437C661.101 157.095 661.228 156.715 661.275 156.321C661.412 155.498 661.237 154.653 660.784 153.952C660.331 153.252 659.631 152.746 658.824 152.536C658.435 152.459 658.035 152.463 657.647 152.548C657.26 152.633 656.894 152.798 656.574 153.031C656.253 153.264 655.983 153.561 655.783 153.903C655.582 154.245 655.454 154.626 655.407 155.02V155.02Z" fill="#008062"/>
<path d="M194.773 169.136C194.449 171.056 194.856 173.028 195.915 174.662C196.973 176.296 198.606 177.473 200.489 177.96C204.28 178.754 207.864 176.199 208.49 172.16C208.814 170.241 208.406 168.27 207.347 166.637C206.289 165.005 204.656 163.83 202.773 163.344C198.983 162.503 195.399 165.097 194.773 169.136Z" fill="#008062"/>
<path d="M135.662 229.554C135.433 230.924 135.726 232.33 136.481 233.494C137.237 234.659 138.402 235.498 139.745 235.846C140.395 235.985 141.067 235.985 141.717 235.847C142.367 235.71 142.981 235.438 143.52 235.048C144.059 234.659 144.51 234.161 144.844 233.586C145.179 233.011 145.389 232.373 145.462 231.712C145.693 230.341 145.402 228.933 144.646 227.767C143.89 226.6 142.724 225.76 141.379 225.412C140.728 225.274 140.056 225.274 139.405 225.412C138.755 225.549 138.14 225.822 137.601 226.213C137.063 226.603 136.612 227.102 136.278 227.678C135.944 228.253 135.734 228.892 135.662 229.554V229.554Z" fill="#008062"/>
<path d="M130.34 86.7303C130.2 87.5527 130.375 88.3975 130.829 89.0972C131.282 89.7968 131.983 90.3002 132.79 90.5074C133.18 90.5883 133.582 90.5869 133.971 90.5033C134.361 90.4198 134.728 90.2559 135.05 90.0222C135.373 89.7884 135.643 89.49 135.843 89.1459C136.044 88.8018 136.171 88.4196 136.215 88.0237C136.355 87.2014 136.18 86.3565 135.727 85.6569C135.273 84.9572 134.573 84.4539 133.765 84.2466C133.375 84.1658 132.973 84.1672 132.584 84.2507C132.195 84.3343 131.827 84.4981 131.505 84.7319C131.182 84.9656 130.912 85.2641 130.712 85.6082C130.511 85.9523 130.384 86.3345 130.34 86.7303Z" fill="#008062"/>
<path d="M381.257 200.083C381.119 200.906 381.294 201.751 381.747 202.452C382.201 203.152 382.9 203.658 383.707 203.868C384.097 203.948 384.5 203.946 384.889 203.862C385.278 203.778 385.646 203.614 385.968 203.38C386.291 203.147 386.562 202.849 386.763 202.505C386.965 202.162 387.093 201.78 387.14 201.385C387.278 200.56 387.102 199.714 386.647 199.014C386.192 198.313 385.491 197.808 384.682 197.6C384.293 197.52 383.891 197.522 383.502 197.606C383.113 197.69 382.746 197.854 382.424 198.088C382.102 198.321 381.832 198.619 381.631 198.963C381.43 199.306 381.303 199.688 381.257 200.083V200.083Z" fill="#008062"/>
<path d="M195.105 6.74498C194.966 7.56736 195.14 8.41218 195.594 9.11183C196.048 9.81149 196.748 10.3149 197.556 10.5221C197.946 10.6029 198.349 10.6016 198.738 10.5181C199.128 10.4346 199.496 10.2708 199.819 10.0372C200.142 9.80355 200.413 9.50517 200.614 9.16104C200.816 8.81691 200.943 8.43458 200.989 8.0384C201.126 7.21623 200.951 6.3723 200.498 5.67309C200.044 4.97388 199.345 4.47016 198.539 4.2613C198.149 4.18046 197.746 4.18182 197.356 4.2653C196.966 4.34878 196.598 4.51255 196.275 4.74619C195.952 4.97983 195.682 5.27821 195.48 5.62234C195.279 5.96646 195.151 6.34879 195.105 6.74498Z" fill="#008062"/>
<path d="M410.159 224.745C410.021 225.569 410.196 226.414 410.65 227.114C411.103 227.815 411.802 228.32 412.609 228.53C413 228.611 413.402 228.61 413.792 228.526C414.182 228.443 414.55 228.279 414.873 228.045C415.196 227.812 415.467 227.513 415.668 227.169C415.869 226.825 415.997 226.443 416.043 226.047C416.18 225.222 416.004 224.377 415.549 223.676C415.094 222.975 414.393 222.471 413.585 222.262C413.195 222.182 412.793 222.184 412.404 222.268C412.016 222.352 411.648 222.516 411.326 222.75C411.004 222.984 410.734 223.281 410.533 223.625C410.332 223.968 410.205 224.35 410.159 224.745V224.745Z" fill="#008062"/>
<path d="M583.664 77.4386C583.525 78.261 583.699 79.1058 584.153 79.8055C584.607 80.5051 585.307 81.0085 586.114 81.2157C586.504 81.2966 586.906 81.2952 587.296 81.2117C587.685 81.1281 588.052 80.9642 588.375 80.7305C588.697 80.4968 588.967 80.1983 589.168 79.8542C589.368 79.5101 589.495 79.1279 589.54 78.7321C589.677 77.9089 589.502 77.0639 589.049 76.3634C588.596 75.6629 587.897 75.1576 587.089 74.947C586.699 74.8674 586.297 74.87 585.907 74.9545C585.518 75.0391 585.151 75.2037 584.829 75.4381C584.506 75.6725 584.236 75.9713 584.036 76.3158C583.836 76.6602 583.709 77.0426 583.664 77.4386Z" fill="#008062"/>
<path d="M321.361 59.5133C321.222 60.3356 321.396 61.1805 321.85 61.8801C322.304 62.5798 323.004 63.0831 323.811 63.2904C324.202 63.37 324.604 63.3677 324.993 63.2837C325.382 63.1997 325.75 63.0358 326.073 62.8024C326.395 62.5689 326.666 62.2711 326.868 61.9275C327.07 61.584 327.198 61.2024 327.245 60.8067C327.38 59.9826 327.204 59.1376 326.749 58.4374C326.294 57.7371 325.594 57.2322 324.787 57.0216C324.397 56.9433 323.994 56.9467 323.606 57.0318C323.217 57.1168 322.85 57.2816 322.528 57.5158C322.206 57.7499 321.936 58.0483 321.736 58.3921C321.535 58.7359 321.407 59.1177 321.361 59.5133V59.5133Z" fill="#008062"/>
<path d="M669.988 86.3021C669.895 86.85 670.012 87.4129 670.314 87.8789C670.617 88.3449 671.084 88.6799 671.622 88.8175C671.881 88.871 672.149 88.8699 672.408 88.8144C672.667 88.7588 672.911 88.65 673.126 88.4948C673.341 88.3396 673.521 88.1414 673.655 87.9128C673.789 87.6843 673.874 87.4303 673.905 87.167C674 86.6179 673.885 86.0531 673.582 85.5853C673.279 85.1176 672.811 84.7813 672.272 84.6437C672.012 84.5902 671.743 84.5915 671.484 84.6475C671.225 84.7035 670.98 84.8131 670.765 84.9691C670.55 85.1251 670.37 85.3242 670.236 85.5537C670.102 85.7833 670.018 86.0381 669.988 86.3021V86.3021Z" fill="#008062"/>
<path d="M661.179 130.222C661.088 130.77 661.205 131.332 661.507 131.798C661.809 132.263 662.275 132.599 662.812 132.738C663.072 132.793 663.341 132.792 663.601 132.737C663.861 132.681 664.106 132.572 664.321 132.416C664.536 132.259 664.716 132.06 664.85 131.83C664.983 131.599 665.067 131.344 665.095 131.079C665.188 130.532 665.072 129.969 664.769 129.503C664.467 129.037 664 128.702 663.462 128.564C663.202 128.511 662.934 128.512 662.674 128.568C662.415 128.624 662.17 128.733 661.955 128.89C661.74 129.046 661.56 129.245 661.426 129.474C661.293 129.704 661.208 129.959 661.179 130.222V130.222Z" fill="#008062"/>
<path d="M379.3 107.512C379.115 108.619 379.351 109.755 379.962 110.697C380.572 111.638 381.513 112.317 382.598 112.599C383.123 112.707 383.664 112.705 384.188 112.592C384.711 112.479 385.206 112.259 385.64 111.945C386.074 111.631 386.438 111.23 386.709 110.767C386.98 110.304 387.151 109.791 387.213 109.258C387.397 108.151 387.161 107.015 386.551 106.074C385.94 105.132 385 104.454 383.914 104.172C383.39 104.064 382.848 104.066 382.324 104.178C381.801 104.291 381.306 104.511 380.872 104.826C380.438 105.14 380.074 105.541 379.803 106.003C379.533 106.466 379.361 106.98 379.3 107.512V107.512Z" fill="#008062"/>
<path d="M469.971 156.053C471.026 155.776 471.638 154.624 471.339 153.48C471.039 152.335 469.941 151.631 468.887 151.907C467.832 152.184 467.219 153.336 467.519 154.48C467.818 155.625 468.916 156.329 469.971 156.053Z" fill="#008062"/>
<path d="M592.766 178.69C592.628 179.494 592.795 180.32 593.236 181.006C593.676 181.692 594.357 182.188 595.145 182.396C595.527 182.474 595.921 182.472 596.302 182.39C596.683 182.308 597.043 182.147 597.358 181.918C597.674 181.689 597.938 181.396 598.135 181.059C598.331 180.722 598.455 180.348 598.499 179.96C598.635 179.157 598.466 178.331 598.026 177.646C597.586 176.96 596.906 176.464 596.12 176.254C595.738 176.177 595.344 176.18 594.964 176.263C594.583 176.345 594.224 176.506 593.909 176.735C593.593 176.964 593.329 177.256 593.132 177.593C592.936 177.929 592.811 178.303 592.766 178.69V178.69Z" fill="#008062"/>
<path d="M216.435 117.868C216.343 118.415 216.459 118.978 216.762 119.444C217.064 119.91 217.531 120.245 218.069 120.383C218.329 120.436 218.597 120.435 218.857 120.379C219.116 120.323 219.361 120.214 219.576 120.058C219.791 119.901 219.971 119.702 220.105 119.473C220.238 119.243 220.323 118.988 220.352 118.725C220.445 118.177 220.329 117.614 220.026 117.148C219.724 116.682 219.257 116.347 218.719 116.209C218.459 116.156 218.191 116.157 217.931 116.213C217.672 116.269 217.427 116.378 217.212 116.535C216.997 116.691 216.817 116.89 216.683 117.119C216.55 117.349 216.465 117.604 216.435 117.868V117.868Z" fill="#008062"/>
<path d="M6.33706 20.1951C6.28944 20.4664 6.3442 20.7456 6.49071 20.9788C6.63722 21.2119 6.86504 21.3823 7.12997 21.4568C7.25739 21.4842 7.38909 21.4852 7.51689 21.4596C7.6447 21.434 7.76589 21.3824 7.87295 21.308C7.98001 21.2336 8.07065 21.138 8.13925 21.0271C8.20786 20.9162 8.25296 20.7923 8.27176 20.6633C8.31756 20.3922 8.26204 20.1138 8.11579 19.8811C7.96955 19.6484 7.74281 19.4777 7.47885 19.4016C7.35152 19.3753 7.22019 19.3752 7.09282 19.4013C6.96546 19.4274 6.84472 19.4791 6.73794 19.5533C6.63116 19.6276 6.54056 19.7227 6.47165 19.833C6.40274 19.9433 6.35695 20.0665 6.33706 20.1951V20.1951Z" fill="#008062"/>
<path d="M282.619 114.321C282.57 114.592 282.624 114.872 282.771 115.106C282.918 115.339 283.146 115.509 283.412 115.582C283.54 115.609 283.671 115.609 283.798 115.583C283.926 115.556 284.046 115.505 284.153 115.431C284.26 115.356 284.351 115.261 284.42 115.151C284.488 115.041 284.534 114.917 284.554 114.789C284.6 114.518 284.544 114.239 284.398 114.007C284.252 113.774 284.025 113.603 283.761 113.527C283.634 113.501 283.503 113.501 283.375 113.527C283.248 113.553 283.127 113.605 283.02 113.679C282.914 113.753 282.823 113.848 282.754 113.959C282.685 114.069 282.639 114.192 282.619 114.321V114.321Z" fill="#008062"/>
<path d="M388.623 37.0409C388.574 37.3123 388.628 37.5925 388.775 37.8261C388.921 38.0596 389.15 38.2296 389.416 38.3026C389.548 38.3312 389.684 38.3318 389.815 38.3045C389.947 38.2772 390.071 38.2224 390.18 38.1439C390.29 38.0653 390.381 37.9647 390.449 37.8485C390.517 37.7323 390.559 37.6031 390.574 37.4694C390.619 37.1994 390.564 36.922 390.417 36.6906C390.271 36.4592 390.044 36.2901 389.781 36.2157C389.65 36.1844 389.514 36.1816 389.382 36.2074C389.25 36.2332 389.125 36.2869 389.015 36.3651C388.905 36.4433 388.814 36.544 388.746 36.6606C388.679 36.7772 388.637 36.9068 388.623 37.0409V37.0409Z" fill="#008062"/>
<path d="M491.33 33.7796C491.229 34.04 491.228 34.3287 491.328 34.5897C491.428 34.8507 491.621 35.0654 491.869 35.192C491.988 35.2501 492.118 35.2825 492.25 35.2873C492.382 35.2921 492.513 35.269 492.636 35.2196C492.759 35.1703 492.87 35.0957 492.961 35.0007C493.053 34.9057 493.124 34.7925 493.17 34.6683C493.269 34.4068 493.267 34.118 493.166 33.8573C493.065 33.5967 492.872 33.3825 492.623 33.2558C492.505 33.1978 492.376 33.1654 492.244 33.1608C492.113 33.1561 491.982 33.1792 491.86 33.2286C491.738 33.278 491.627 33.3526 491.536 33.4476C491.445 33.5425 491.375 33.6556 491.33 33.7796V33.7796Z" fill="#008062"/>
<path d="M625.625 45.3889C625.524 45.6494 625.523 45.9381 625.623 46.1991C625.723 46.4601 625.916 46.6747 626.164 46.8014C626.283 46.8594 626.412 46.8918 626.543 46.8965C626.675 46.9012 626.806 46.878 626.928 46.8286C627.05 46.7792 627.16 46.7046 627.251 46.6096C627.342 46.5147 627.412 46.4016 627.457 46.2777C627.56 46.0174 627.562 45.728 627.462 45.4665C627.362 45.205 627.168 44.9905 626.918 44.8652C626.8 44.8072 626.671 44.7748 626.539 44.7701C626.407 44.7654 626.276 44.7886 626.154 44.838C626.033 44.8874 625.922 44.962 625.831 45.057C625.74 45.1519 625.67 45.265 625.625 45.3889V45.3889Z" fill="#008062"/>
<path d="M717.039 47.4201C716.993 47.6912 717.049 47.9696 717.195 48.2023C717.341 48.4351 717.568 48.6057 717.832 48.6818C717.963 48.7079 718.097 48.7067 718.228 48.6783C718.358 48.6499 718.481 48.5948 718.589 48.5166C718.697 48.4383 718.787 48.3386 718.855 48.2237C718.923 48.1087 718.966 47.9811 718.982 47.8486C719.027 47.5786 718.971 47.3013 718.825 47.0699C718.679 46.8385 718.452 46.6693 718.189 46.5949C718.058 46.5663 717.924 46.5654 717.793 46.5923C717.662 46.6192 717.539 46.6734 717.43 46.7512C717.322 46.829 717.231 46.9288 717.164 47.044C717.096 47.1593 717.054 47.2874 717.039 47.4201Z" fill="#008062"/>
<path d="M622.897 113.115C622.851 113.386 622.906 113.664 623.052 113.897C623.199 114.13 623.425 114.3 623.689 114.376C623.817 114.403 623.948 114.403 624.075 114.377C624.203 114.35 624.324 114.299 624.43 114.225C624.537 114.15 624.628 114.055 624.697 113.945C624.766 113.835 624.811 113.711 624.831 113.583C624.877 113.312 624.821 113.033 624.675 112.801C624.529 112.568 624.302 112.397 624.038 112.321C623.911 112.294 623.779 112.293 623.651 112.318C623.524 112.344 623.402 112.395 623.295 112.47C623.188 112.544 623.098 112.64 623.029 112.751C622.96 112.862 622.915 112.986 622.897 113.115V113.115Z" fill="#008062"/>
<path d="M744.864 149.862C744.814 150.134 744.868 150.414 745.015 150.647C745.162 150.881 745.391 151.051 745.657 151.124C745.784 151.15 745.915 151.15 746.043 151.124C746.17 151.098 746.291 151.046 746.397 150.972C746.504 150.898 746.595 150.803 746.664 150.692C746.733 150.582 746.778 150.459 746.798 150.33C746.844 150.059 746.789 149.781 746.642 149.548C746.496 149.315 746.269 149.145 746.005 149.069C745.878 149.041 745.746 149.04 745.618 149.066C745.491 149.091 745.37 149.143 745.262 149.217C745.155 149.292 745.065 149.387 744.996 149.498C744.928 149.609 744.882 149.733 744.864 149.862V149.862Z" fill="#008062"/>
<path d="M662.932 223.618C662.886 223.89 662.941 224.168 663.088 224.401C663.234 224.633 663.461 224.804 663.725 224.88C663.852 224.906 663.983 224.906 664.111 224.88C664.238 224.854 664.359 224.803 664.466 224.728C664.572 224.654 664.663 224.559 664.732 224.449C664.801 224.338 664.846 224.215 664.866 224.087C664.914 223.815 664.859 223.536 664.713 223.303C664.566 223.07 664.338 222.899 664.073 222.825C663.946 222.799 663.815 222.799 663.687 222.825C663.56 222.851 663.439 222.902 663.333 222.977C663.226 223.051 663.135 223.146 663.066 223.256C662.997 223.367 662.952 223.49 662.932 223.618Z" fill="#008062"/>
<path d="M240.119 82.1756C240.073 82.4466 240.129 82.7251 240.275 82.9578C240.421 83.1905 240.648 83.3612 240.912 83.4373C241.039 83.4635 241.171 83.4636 241.298 83.4375C241.425 83.4114 241.546 83.3597 241.653 83.2855C241.76 83.2113 241.85 83.1161 241.919 83.0058C241.988 82.8955 242.034 82.7723 242.054 82.6437C242.101 82.3725 242.047 82.0932 241.9 81.8601C241.754 81.627 241.526 81.4566 241.261 81.3821C241.134 81.3558 241.002 81.3557 240.875 81.3818C240.748 81.4079 240.627 81.4596 240.52 81.5338C240.413 81.608 240.323 81.7032 240.254 81.8135C240.185 81.9238 240.139 82.047 240.119 82.1756Z" fill="#008062"/>
<path d="M141.473 68.9241C141.427 69.1952 141.482 69.4736 141.629 69.7063C141.775 69.939 142.002 70.1097 142.266 70.1858C142.393 70.212 142.524 70.2121 142.652 70.1861C142.779 70.16 142.9 70.1083 143.007 70.034C143.113 69.9598 143.204 69.8647 143.273 69.7544C143.342 69.644 143.387 69.5208 143.407 69.3923C143.457 69.1208 143.403 68.8407 143.256 68.6071C143.109 68.3736 142.88 68.2035 142.614 68.1306C142.487 68.1043 142.356 68.1043 142.228 68.1303C142.101 68.1564 141.98 68.2081 141.874 68.2824C141.767 68.3566 141.676 68.4517 141.607 68.562C141.538 68.6724 141.493 68.7955 141.473 68.9241V68.9241Z" fill="#008062"/>
<path d="M484.581 192.656C484.534 192.927 484.588 193.207 484.735 193.44C484.881 193.673 485.109 193.843 485.374 193.918C485.502 193.945 485.633 193.946 485.761 193.921C485.889 193.895 486.01 193.843 486.117 193.769C486.224 193.695 486.315 193.599 486.383 193.488C486.452 193.377 486.497 193.253 486.516 193.124C486.562 192.853 486.506 192.575 486.36 192.342C486.214 192.109 485.987 191.939 485.723 191.863C485.596 191.837 485.465 191.838 485.338 191.865C485.211 191.891 485.091 191.943 484.984 192.017C484.878 192.091 484.787 192.186 484.718 192.296C484.649 192.405 484.602 192.528 484.581 192.656V192.656Z" fill="#008062"/>
<path d="M315.913 212.208C315.651 212.261 315.421 212.417 315.272 212.64C315.124 212.863 315.069 213.135 315.12 213.398C315.154 213.67 315.292 213.919 315.505 214.092C315.718 214.265 315.989 214.349 316.262 214.327C316.525 214.273 316.755 214.118 316.904 213.895C317.052 213.672 317.107 213.399 317.055 213.136C317.023 212.863 316.886 212.613 316.673 212.44C316.46 212.267 316.187 212.183 315.913 212.208Z" fill="#008062"/>
<path d="M592.163 229.982C592.025 230.805 592.2 231.65 592.654 232.351C593.107 233.051 593.806 233.557 594.613 233.767C595.004 233.848 595.406 233.847 595.796 233.763C596.186 233.68 596.554 233.516 596.877 233.282C597.2 233.049 597.47 232.75 597.672 232.406C597.873 232.062 598.001 231.68 598.047 231.284C598.184 230.46 598.01 229.615 597.556 228.915C597.103 228.214 596.404 227.709 595.596 227.499C595.206 227.418 594.803 227.419 594.414 227.503C594.024 227.586 593.656 227.75 593.333 227.983C593.01 228.217 592.739 228.516 592.538 228.86C592.336 229.204 592.209 229.586 592.163 229.982V229.982Z" fill="#008062"/>
<path d="M434.692 51.2055C434.555 52.0287 434.731 52.8735 435.186 53.5729C435.641 54.2723 436.342 54.7753 437.15 54.9826C437.54 55.0622 437.942 55.0599 438.33 54.9758C438.719 54.8917 439.086 54.7277 439.408 54.4942C439.73 54.2607 440 53.9627 440.201 53.6193C440.402 53.2758 440.53 52.8942 440.575 52.4989C440.716 51.6797 440.545 50.8376 440.096 50.1385C439.646 49.4394 438.952 48.9339 438.149 48.7218C437.757 48.6372 437.352 48.6357 436.959 48.7174C436.567 48.7992 436.196 48.9623 435.87 49.1963C435.544 49.4302 435.271 49.7299 435.068 50.076C434.865 50.422 434.737 50.8068 434.692 51.2055V51.2055Z" fill="#008062"/>
<path d="M690.358 185.681C690.221 186.504 690.396 187.349 690.849 188.05C691.302 188.75 692.001 189.255 692.809 189.466C693.199 189.547 693.602 189.546 693.991 189.462C694.381 189.379 694.749 189.215 695.072 188.981C695.395 188.748 695.666 188.449 695.867 188.105C696.069 187.761 696.196 187.379 696.242 186.982C696.38 186.159 696.205 185.314 695.751 184.614C695.298 183.913 694.599 183.408 693.792 183.197C693.401 183.116 692.999 183.118 692.609 183.201C692.219 183.285 691.851 183.449 691.528 183.682C691.205 183.916 690.935 184.214 690.733 184.558C690.532 184.903 690.404 185.285 690.358 185.681V185.681Z" fill="#008062"/>
<path d="M698.271 126.39C698.133 127.213 698.308 128.058 698.761 128.759C699.215 129.459 699.914 129.964 700.721 130.175C701.11 130.256 701.513 130.254 701.902 130.171C702.291 130.087 702.659 129.924 702.981 129.69C703.304 129.456 703.574 129.158 703.774 128.813C703.975 128.469 704.101 128.087 704.146 127.691C704.286 126.868 704.112 126.022 703.658 125.321C703.204 124.62 702.504 124.115 701.696 123.906C701.306 123.825 700.904 123.827 700.515 123.91C700.125 123.994 699.758 124.158 699.436 124.392C699.113 124.625 698.843 124.924 698.642 125.268C698.442 125.612 698.315 125.994 698.271 126.39Z" fill="#008062"/>
<path d="M37.0396 80.9378C36.9023 81.7611 37.0786 82.6059 37.5338 83.3053C37.9889 84.0047 38.6897 84.5077 39.4976 84.7149C39.8873 84.7946 40.2893 84.7923 40.678 84.7082C41.0667 84.6241 41.4338 84.4601 41.7558 84.2266C42.0779 83.9931 42.348 83.6951 42.5489 83.3516C42.7498 83.0082 42.8772 82.6266 42.923 82.2313C43.0625 81.4089 42.888 80.5641 42.4342 79.8644C41.9804 79.1648 41.2803 78.6614 40.4729 78.4542C40.0827 78.3733 39.6799 78.3747 39.2902 78.4582C38.9005 78.5417 38.5325 78.7054 38.2095 78.9391C37.8865 79.1727 37.6157 79.4711 37.4143 79.8152C37.2129 80.1593 37.0853 80.5417 37.0396 80.9378V80.9378Z" fill="#008062"/>
<path d="M305.86 104.354C305.723 105.177 305.898 106.022 306.351 106.723C306.804 107.423 307.503 107.929 308.311 108.139C308.701 108.22 309.104 108.219 309.493 108.135C309.883 108.052 310.251 107.888 310.574 107.654C310.897 107.421 311.168 107.122 311.369 106.778C311.571 106.434 311.698 106.052 311.744 105.656C311.881 104.831 311.705 103.985 311.25 103.285C310.795 102.584 310.094 102.079 309.286 101.871C308.896 101.791 308.494 101.793 308.105 101.877C307.717 101.961 307.35 102.125 307.028 102.359C306.706 102.592 306.435 102.89 306.235 103.234C306.034 103.577 305.906 103.959 305.86 104.354Z" fill="#008062"/>
<g opacity="0.3">
<path d="M227.552 266.277L125.892 197.242L78.0244 213.676L44.397 324.299L15.5271 235.093L-43.5131 255.343L-44.2029 255.573L-40.9599 146.505L-116.168 169.105L-198.448 235.672L-181.654 86.7067L-209.041 80.6761L-249.392 162.51L-206.789 155.956L-297.673 258.168L-251.169 163.875L-431.048 191.585L-431.27 191.624L-509.555 120.256L-510.149 119.717L-391.165 59.2038L-399.308 14.6007L-492.079 39.4296L-484.943 -116.098L-542.08 -82.6039L-566.755 42.7702L-522.733 250.304L-730.23 -61.7267L-730.547 -62.2028L-571.172 -160.733L-479.194 -237.814L-478.322 -238.544L-483.872 -117.931L-428.368 -150.465L-398.587 13.3073L-338.325 -2.82468L-382.792 -58.3702L-313.063 -148.037L-251.684 -24.9159L-336.525 -2.20574L-284.304 63.0523L-209.62 79.5017L-171.053 1.30157L-180.568 85.9053L-136.014 95.721L-38.3353 69.7733L-37.6772 69.5987L-39.9211 145.077L-15.0396 137.602L16.106 233.752L77.2236 212.771L89.7912 171.437L126.003 196.036L201.671 170.073L261.227 205.59L355.163 156.718L356.423 156.059L317.983 247.709L317.928 247.86L177.075 333.559L227.552 266.277ZM354.362 158.36L261.456 206.677L261.235 206.796L201.6 171.231L127.106 196.79L228.543 265.714L229.034 266.039L181.19 329.798L317.143 247.09L354.362 158.36ZM16.4311 234.767L44.3574 320.958L76.8667 214.041L16.4311 234.767ZM-15.6581 138.904L-39.9767 146.204L-43.1483 254.121L15.1703 234.085L-15.6581 138.904ZM90.3542 173.024L78.405 212.367L124.79 196.449L90.3542 173.024ZM-38.7159 70.9794L-135.832 96.8081H-135.935L-180.671 86.9448L-197.171 233.291L-116.715 168.224L-116.643 168.168L-40.9282 145.379L-38.7159 70.9794ZM-249.963 163.685L-293.399 251.764L-209.533 157.472L-249.963 163.685ZM-479.408 -236.243L-570.593 -159.852L-729.175 -61.8537L-524.834 245.416L-567.738 42.8496V42.7306L-542.968 -83.0721V-83.3022L-484.887 -117.344L-479.408 -236.243ZM-284.614 64.0601H-284.788L-337.548 -1.92801L-398.373 14.3468L-390.277 58.7197L-355.484 41.0245L-376.33 140.951L-390.998 60.3068L-508.349 120.002L-431.009 190.505L-250.598 162.733L-210.048 80.5095L-284.614 64.0601ZM-390.071 59.8307L-376.266 135.746L-356.903 42.9607L-390.071 59.8307ZM-208.55 79.7318L-181.527 85.6831L-172.655 6.95134L-208.55 79.7318ZM-429.027 -148.798L-483.904 -116.645L-491.04 38.0886L-399.53 13.593L-429.027 -148.798ZM-313.166 -146.18L-381.436 -58.3543L-337.215 -3.08655L-253.119 -25.6301L-313.166 -146.18Z" fill="#008062"/>
</g>
<path d="M260.797 205.907L261.059 205.431L318.783 247.757L227.289 266.912L260.797 205.907ZM261.4 206.955L229.295 265.404L316.277 247.154L261.4 206.955Z" fill="#008062"/>
<g opacity="0.3">
<path d="M261.678 206.447L309.681 104.338L218.425 117.749L133.036 86.7305L132.838 87.1034L89.9492 170.636L90.8214 171.176L133.528 88.0239L218.361 118.844L218.48 118.828L307.921 105.679L260.782 205.939L261.678 206.447Z" fill="#008062"/>
</g>
<g opacity="0.6">
<path d="M44.3646 323.164H44.214L-43.9419 255.264L-82.1047 210.034L-197.672 235.029H-197.838L-376.513 138.864L-377.242 138.467L-284.947 63.2269L-252.303 -26.979L-207.773 156.242L-117.088 168.017L-136.427 96.4828L-172.782 3.08699L-38.3439 69.6384L-38.0268 69.2417L-37.8365 69.8051L40.0274 81.0411H40.2732L90.3932 171.795L92.1058 172.35L-81.0184 209.796L-43.3631 254.438L44.5311 322.109L178.383 331.091L140.101 230.816L139.974 230.474L201.861 169.676L228.748 266.024L227.797 266.293L201.393 171.62L141.132 230.784L179.865 332.258L44.3646 323.164ZM-116.596 169.12L-208.162 157.218L-208.511 157.17L-252.478 -23.5431L-284.067 63.7427L-284.115 63.8776L-375.379 138.269L-197.767 233.95L-82.9056 209.105L-116.596 169.12ZM-15.4764 138.761L-15.7301 138.682L-38.3915 71.3365L-115.748 168.621L-81.7955 208.867L88.0303 172.136L-15.4764 138.761ZM-37.4638 70.9319L-14.9768 137.825L89.0135 171.35L39.6865 82.0648L-37.4638 70.9319ZM-170.903 5.16598L-135.491 96.1336L-116.192 167.51L-39.01 70.4716L-170.903 5.16598Z" fill="#008062"/>
</g>
<path d="M201.83 171.684L218.862 118.487L217.926 118.106L201.434 169.613L133.505 86.8577L133.291 86.8418L39.7827 81.0254L39.6321 81.1762L-15.6973 137.864L-14.9995 138.642L40.1792 82.1125L133.061 87.8972L201.83 171.684Z" fill="#008062"/>
<path d="M178.898 332.13L179.366 331.218L14.0597 228.03L13.584 228.943L178.898 332.13Z" fill="#008062"/>
<g opacity="0.3">
<path d="M39.7338 82.0172L40.2334 81.1206L-87.7584 -3.34033L-88.25 -2.44367L39.7338 82.0172Z" fill="#008062"/>
</g>
<g opacity="0.8">
<path d="M44.715 323.037L141.268 230.681L91.1796 172.763L201.783 171.183L201.894 171.112L308.723 105.679L355.497 158.059L383.581 108.798L472.982 118.249L620.083 142.403L594.726 179.801L693.459 186.117L693.475 185.054L596.621 178.857L621.867 141.617L621.035 141.482L473.069 117.193L383.034 107.671L382.884 107.941L355.298 156.329L308.873 104.338L201.481 170.12L88.9594 171.723L139.856 230.577L44.041 322.228L44.715 323.037Z" fill="#008062"/>
</g>
<g opacity="0.3">
<path d="M658.825 155.789L663.503 130.357L662.52 130.111L657.85 155.551L658.825 155.789Z" fill="#008062"/>
</g>
<g opacity="0.75">
<path d="M595.043 231.918L595.352 231.553L658.666 156.091L701.912 127.628L764.052 68.1702L763.37 67.3608L701.301 126.771L658.008 155.25L657.96 155.305L594.916 230.45L543.417 184.467L525.1 69.1383L524.125 69.2811L542.505 185.006L542.647 185.141L595.043 231.918Z" fill="#008062"/>
</g>
<g opacity="0.3">
<path d="M384.531 201.146L473.647 117.852L473.441 117.471L438.061 51.6021L437.204 52.102L472.378 117.59L383.857 200.329L384.531 201.146Z" fill="#008062"/>
</g>
<path d="M595.471 231.213L596.176 178.738L543.115 184.181L473.117 117.122L472.847 117.209L354.6 156.901L383.494 200.575L317.246 247.027L317.817 247.924L384.897 200.893L356.186 157.496L472.91 118.32L542.806 185.284L543.028 185.268L595.162 179.912L594.48 231.157L595.471 231.213Z" fill="#008062"/>
<g opacity="0.3">
<path d="M693.839 186.57L702.228 126.588L662.956 129.699L663.066 130.762L701.055 127.755L693.102 184.602L658.563 155.194L658.476 155.163L621.121 141.506L620.828 142.514L658.103 156.139L693.839 186.57Z" fill="#008062"/>
</g>
<g opacity="0.3">
<path d="M469.929 154.068L472.529 117.781L524.949 69.6226L524.283 68.7974L471.562 117.233L471.554 117.439L468.938 153.941L469.929 154.068Z" fill="#008062"/>
</g>
<path d="M620.7 142.443L621.247 141.578L524.885 68.7734L524.338 69.6384L620.7 142.443Z" fill="#008062"/>
<g opacity="0.3">
<path d="M306.359 105.434L437.356 51.3879L437.467 51.2769L524.688 68.6864L524.577 69.7338L437.808 52.4274L383.518 108.766L306.359 105.434ZM311.236 104.577L383.097 107.695L435.501 53.3082L311.236 104.577Z" fill="#008062"/>
</g>
<g opacity="0.75">
<path d="M621.114 142.522L663.273 130.699L763.972 68.2258L763.449 67.2974L662.805 129.738L620.828 141.49L621.114 142.522Z" fill="#008062"/>
</g>
<g opacity="0.1">
<path d="M524.615 69.21L472.045 117.503L533.9 127.715L524.615 69.21Z" fill="#008062"/>
</g>
<path d="M542.797 185.229L543.122 184.237L469.389 153.425L469.191 153.528L383.953 200.258L384.437 201.21L469.477 154.591L542.797 185.229Z" fill="#008062"/>
</g>
</g>
<defs>
<clipPath id="clip0_214_4126">
<rect width="851" height="351" fill="white" transform="translate(-82)"/>
</clipPath>
</defs>
</svg>
