<svg width="116" height="116" viewBox="0 0 116 116" fill="none" xmlns="http://www.w3.org/2000/svg">
<circle cx="58" cy="58" r="58" fill="#292A35"/>
<path d="M61.3343 37.873C61.3343 37.873 61.4043 37.6165 61.6142 37.6165C61.824 37.6165 62.3838 37.4999 62.547 37.6165C62.7103 37.7331 62.6403 38.0829 62.4537 38.0829C62.2672 38.0829 61.241 38.0363 61.3343 37.873ZM67.0715 37.15C67.6765 37.4511 68.3091 37.6932 68.9606 37.873C69.0275 37.8845 69.0963 37.8799 69.1612 37.8597C69.2261 37.8394 69.2852 37.804 69.3337 37.7564C69.5203 37.5465 69.7768 37.15 69.5203 37.0334C69.1471 36.8468 68.5408 36.4271 67.5846 36.6836C66.6284 36.9401 66.9316 37.1034 67.0715 37.15ZM37.0795 51.8895C37.0795 51.8895 36.5197 51.9128 36.613 51.2598C36.7063 50.6068 37.4526 49.8139 37.8957 49.5107C38.3389 49.2075 38.5721 48.9743 38.5721 48.5078C38.5721 48.0414 39.2484 47.6682 39.4117 47.435C39.5749 47.2018 40.1813 46.8986 40.088 47.2951C39.9947 47.6916 39.7615 47.8548 39.7615 48.3679C39.7615 48.881 39.8548 49.2308 40.1113 48.6944C40.3679 48.158 41.9538 45.6625 43.563 44.3565C45.1722 43.0505 47.3178 41.6045 47.5977 41.5579C47.8775 41.5112 48.0408 41.6978 48.0408 42.001C48.0408 42.3042 47.2712 42.6074 46.898 42.9339C46.5249 43.2604 41.9538 46.8753 40.6477 49.6506C40.3802 50.0227 40.0754 50.3665 39.7382 50.6768C39.295 51.0499 39.2251 51.5863 38.6187 52.1927C38.0123 52.7991 38.0357 53.4288 37.7325 53.522C37.4293 53.6153 37.0328 53.2422 37.266 52.4492C37.4993 51.6563 38.2222 51.1665 38.7353 50.5835C39.2484 50.0004 39.435 49.4873 39.2951 49.4873C39.1551 49.4873 38.4088 49.6506 38.1989 50.2336C37.989 50.8167 37.989 51.0732 37.7325 51.3065C37.4293 51.5863 37.2427 51.9128 37.0795 51.8895ZM48.3673 41.2081C48.312 41.2338 48.2639 41.2729 48.2273 41.3217C48.1906 41.3705 48.1666 41.4276 48.1574 41.4879C48.1504 41.5611 48.1667 41.6345 48.204 41.6978C48.344 41.8844 48.6705 41.7445 48.9037 41.5346C49.4149 41.1663 49.9442 40.8238 50.4896 40.5084C50.4896 40.5084 48.9737 40.8815 48.3673 41.2081Z" fill="#04CA73"/>
<path d="M38.5267 54.5716C38.5267 54.5716 38.3168 54.8982 38.0137 54.5716C37.7105 54.2451 38.1069 53.5688 38.62 53.1024C39.1331 52.6359 40.6024 50.3037 40.9989 49.6507C42.0128 48.2019 43.2124 46.8925 44.5671 45.7559C46.1064 44.5199 48.8584 42.3043 50.2577 41.5114C51.657 40.7184 53.5694 39.6689 55.5984 39.2724C57.6274 38.876 61.802 39.2025 66.9095 42.3743C66.9741 42.5197 66.9784 42.6847 66.9216 42.8333C66.8648 42.9819 66.7515 43.102 66.6064 43.1672C66.6064 43.1672 61.3822 39.9021 56.8578 40.0654C52.3333 40.2286 48.6485 43.2372 45.3601 46.1291C42.0717 49.021 42.4448 49.3475 42.025 49.8606C41.6052 50.3737 40.2759 52.2161 40.0427 52.5426C39.8094 52.8691 39.0631 54.1752 38.5267 54.5716ZM68.2156 39.7156C62.6183 37.5466 59.0267 38.083 57.9772 38.3162C57.9449 38.3247 57.916 38.3431 57.8946 38.3688C57.8732 38.3945 57.8603 38.4262 57.8577 38.4595C57.8551 38.4929 57.863 38.5262 57.8803 38.5549C57.8975 38.5835 57.9233 38.6061 57.9539 38.6194C58.2498 38.7087 58.555 38.7635 58.8635 38.7827C60.0762 38.8993 61.1723 39.1558 61.9653 39.1325C62.7582 39.1092 64.7873 39.3424 66 39.8089C67.2127 40.2753 67.7258 40.4619 67.7258 40.4619C67.8182 40.4601 67.9083 40.4331 67.9864 40.3838C68.0645 40.3344 68.1277 40.2647 68.1689 40.182C68.4022 39.8788 68.2156 39.7156 68.2156 39.7156Z" fill="#04CA73"/>
<path d="M67.6326 40.9517C67.6326 40.9517 67.8425 41.698 67.1428 41.7446C66.4432 41.7912 63.5979 40.0654 62.5018 39.9488C61.4056 39.8322 62.1519 39.1326 63.5746 39.529C64.9972 39.9255 67.6326 40.9517 67.6326 40.9517ZM63.8078 37.4067C63.7765 37.4179 63.7494 37.4384 63.7303 37.4656C63.7111 37.4927 63.7009 37.5251 63.7009 37.5583C63.7009 37.5915 63.7111 37.6239 63.7303 37.6511C63.7494 37.6782 63.7765 37.6988 63.8078 37.7099C64.2023 37.8862 64.6177 38.0116 65.0439 38.0831C65.6969 38.1297 67.4693 38.6894 68.3089 39.1325C68.8453 39.4124 69.1252 38.4329 68.7754 38.3163C68.1457 38.0831 66.5598 37.4767 66.07 37.3601C65.6269 37.2435 64.4608 37.1735 63.8078 37.4067ZM54.1292 41.7679C61.6622 40.7418 65.5803 44.4266 66.07 44.3333C66.5598 44.2401 66.4199 43.7036 66.4199 43.7036C64.5308 42.1178 59.913 40.252 55.6218 40.7884C51.3306 41.3248 49.0217 44.1468 48.1588 44.6598C47.2959 45.1729 46.5962 46.2691 45.9199 46.9221C45.2435 47.5751 44.264 47.785 43.9841 48.0182C43.7043 48.2514 39.7629 54.0819 39.2498 54.7116C38.7367 55.3413 38.5968 55.9243 39.0399 56.1576C39.483 56.3908 39.7629 55.6445 39.7629 55.6445C39.7629 55.6445 41.8385 52.2395 42.305 51.7031C42.7714 51.1667 44.2873 48.8111 44.5905 48.438C44.8937 48.0648 45.2435 48.1348 45.1269 48.438C45.0103 48.7412 42.6081 52.2161 42.165 52.7526C41.7219 53.289 39.7862 55.9477 39.6696 56.9039C39.553 57.8601 40.2526 58.0233 40.789 56.7639C41.3254 55.5045 42.1417 53.7321 42.4682 53.3822C42.7947 53.0324 43.9841 51.7031 44.2873 51.0967C44.5905 50.4903 45.9199 48.0648 46.9693 46.8988C48.0276 45.7789 49.1913 44.7636 50.4443 43.8669C51.0639 43.4313 51.7192 43.049 52.4034 42.7241C52.7532 42.5609 53.3596 41.8612 54.1292 41.7679Z" fill="#04CA73"/>
<path d="M45.8486 49.3478C45.8486 49.3478 47.6677 46.5958 49.6035 45.2665C51.5392 43.9371 52.6586 43.0042 53.265 42.771C53.8714 42.5378 55.947 41.465 60.6581 42.5378C65.3691 43.6106 65.9288 45.1499 65.7189 45.453C65.509 45.7562 64.7627 45.2898 63.6899 44.7067C62.6171 44.1237 60.5881 43.2141 58.9556 43.2608C57.323 43.3074 54.1046 44.4269 53.8947 44.6135C53.6848 44.8 53.6615 44.2403 54.2212 44.1237C54.7809 44.0071 55.1308 43.564 55.4806 43.5173C55.8304 43.4707 56.3435 43.3541 56.3435 43.0742C56.3435 42.7944 55.1774 42.841 54.5944 43.0742C54.0113 43.3074 51.7491 44.5901 51.3293 44.8234C50.9095 45.0566 50.3498 45.2198 50.2565 45.5697C50.1632 45.9195 49.4635 46.7358 49.1137 46.9223C48.7639 47.1089 47.0147 48.4849 46.8282 48.8114C46.7478 48.997 46.6078 49.1505 46.4304 49.2476C46.253 49.3448 46.0483 49.38 45.8486 49.3478Z" fill="#04CA73"/>
<path d="M49.4639 47.1788C49.4639 47.1788 49.6971 47.5286 50.6766 46.7823C51.6561 46.036 51.7727 45.8727 51.866 45.8727C51.9593 45.8727 51.7028 45.4996 51.5162 45.6628C51.3296 45.8261 49.4872 46.8523 49.4639 47.1788ZM52.1692 46.5724C52.1692 46.5724 51.8893 46.5024 52.4258 46.106C52.9622 45.7095 56.4838 43.6105 59.0259 43.7505C61.568 43.8904 64.5065 45.383 65.0196 45.8261C65.5327 46.2692 65.1595 47.1554 65.0196 47.1088C64.8797 47.0622 61.7079 44.66 59.5156 44.59C57.3234 44.5201 55.1078 45.3597 54.1982 45.9427C53.2887 46.5258 52.9622 46.7357 52.1692 46.5724Z" fill="#04CA73"/>
<path d="M55.0146 46.4323C54.9883 46.4251 54.9646 46.4106 54.9462 46.3905C54.9278 46.3704 54.9154 46.3456 54.9105 46.3187C54.9057 46.2919 54.9085 46.2643 54.9186 46.239C54.9288 46.2137 54.9459 46.1918 54.968 46.1758C55.716 45.6717 56.5577 45.3231 57.4432 45.1508C58.3286 44.9786 59.2396 44.9861 60.1221 45.1729C63.2706 45.8493 64.5766 47.3419 64.6465 47.6917C64.7165 48.0415 64.5999 48.8578 64.1335 48.6945C63.667 48.5313 62.1511 46.2224 59.7023 46.0125C57.3468 45.8026 56.8104 46.8521 55.0146 46.4323Z" fill="#04CA73"/>
<path d="M58.2566 46.9924L57.9768 46.8991C57.9301 46.8758 57.9535 46.8291 57.9768 46.8291C58.3733 46.7358 59.7026 46.4793 60.9153 46.9224C61.7776 47.2785 62.5561 47.8107 63.2009 48.485C63.2121 48.496 63.2192 48.5105 63.2212 48.526C63.2232 48.5416 63.2198 48.5574 63.2118 48.5708C63.2037 48.5843 63.1913 48.5946 63.1767 48.6002C63.162 48.6058 63.1459 48.6063 63.1309 48.6016L58.2566 46.9924ZM41.2783 58.8866C41.2783 58.8866 41.1383 59.3297 40.7419 59.0032C40.3454 58.6767 40.6019 58.1636 40.7419 57.7904C40.8818 57.4173 41.9546 55.225 42.2112 54.9685C42.4677 54.7119 43.4239 53.5692 43.4239 53.3126C43.4239 53.0561 43.6804 54.0356 42.7009 55.5282C41.768 57.0208 42.1412 57.4173 41.2783 58.8866ZM42.1179 60.3559C42.1179 60.3559 41.9779 60.659 41.7214 60.3559C41.4648 60.0527 41.6981 59.3297 42.0013 58.6067C42.3044 57.8837 42.7242 56.2512 42.9341 55.9247C43.144 55.5982 43.1673 56.3212 43.1673 56.5311C43.1673 56.741 43.2373 57.8837 42.8408 58.8633C42.6533 59.3849 42.4109 59.8853 42.1179 60.3559ZM43.3306 61.7785C43.3306 61.7785 43.0507 62.2449 42.7009 61.6852C42.582 61.4967 42.5189 61.2784 42.5189 61.0555C42.5189 60.8326 42.582 60.6143 42.7009 60.4258C42.8175 60.2159 42.9808 59.5396 43.0741 59.423C43.1673 59.3064 43.284 59.5862 43.3306 59.9361C43.3772 60.2859 43.5871 60.6824 43.5871 60.8456C43.5871 61.0089 43.5405 61.5453 43.3306 61.7785ZM44.0069 62.3382C43.9641 62.2051 43.9012 62.0792 43.8204 61.9651C43.7504 61.9184 43.5172 62.2216 43.4939 62.4548C43.4705 62.6881 43.7271 62.7813 43.7504 62.9912C43.7737 63.2011 43.9603 62.9446 44.0069 62.7114C44.0353 62.5886 44.0353 62.461 44.0069 62.3382ZM44.7299 55.3416C44.9621 54.0328 45.5239 52.8048 46.3625 51.7734C47.7151 50.1875 48.3448 49.9309 48.3448 49.9309C48.3448 49.9309 48.5314 49.8843 48.4381 50.2575C48.3448 50.6306 47.6452 51.4935 47.5286 51.7501C47.4119 52.0066 46.5724 52.8462 46.5724 52.9861C46.5724 53.1261 46.9455 53.0094 46.9921 53.0794C47.0388 53.1494 47.202 53.2427 46.9921 53.7324C46.7823 54.2222 45.966 55.948 45.9427 56.3212C45.9193 56.6943 44.7066 59.4929 44.59 59.4929C44.4734 59.4929 44.2168 59.4696 44.2402 58.6067C44.2635 57.7438 45.5462 54.5021 45.896 53.9656C46.2458 53.4292 46.2692 53.4292 46.1292 53.4526C45.9893 53.4759 45.1264 54.4088 45.0098 55.0618C44.8932 55.7148 44.7299 55.3416 44.7299 55.3416ZM47.995 55.1317C47.995 55.1317 47.6685 55.9014 46.9921 55.8547C46.3158 55.8081 47.342 54.1056 47.5052 53.3826C47.6685 52.6596 48.9279 49.8843 49.1844 49.6511C49.441 49.4179 50.1406 49.138 50.2572 49.3712C50.3738 49.6044 49.8841 49.9309 49.6275 50.444C49.371 50.9571 48.578 52.4031 48.5081 52.9162C48.4381 53.4292 47.995 55.1317 47.995 55.1317Z" fill="#04CA73"/>
<path d="M47.342 56.7643C47.364 56.7078 47.3741 56.6473 47.3717 56.5868C47.3694 56.5262 47.3547 56.4667 47.3284 56.4121C47.3022 56.3574 47.265 56.3087 47.2192 56.269C47.1734 56.2293 47.12 56.1994 47.0621 56.1812C46.619 55.9946 46.5957 56.1346 46.3858 56.4844C46.1759 56.8342 44.8232 60.0993 44.8232 60.5891C44.8232 61.0788 44.9632 61.9884 45.1264 62.1283C45.2897 62.2682 45.4529 62.0117 45.4529 61.6619C45.5083 61.2319 45.6865 60.8271 45.966 60.4958C46.1051 60.3026 46.2019 60.0823 46.2502 59.8493C46.2984 59.6162 46.2969 59.3756 46.2459 59.1431C46.1526 58.5834 47.0388 57.6738 47.0388 57.6738C47.0426 58.328 47.0115 58.982 46.9455 59.6329C46.8523 60.2159 46.2459 60.6823 46.1059 60.9389C45.966 61.1954 45.8961 62.1983 45.7794 62.5015C45.6635 62.871 45.6395 63.2633 45.7095 63.6442C45.7794 63.9474 45.966 64.6937 46.0826 64.1573C46.1992 63.6209 46.619 62.035 46.7356 62.0583C46.8523 62.0817 46.8289 63.8075 46.759 64.1573C46.689 64.5071 46.5957 66.2097 46.5957 66.4195C46.5957 66.6294 45.966 67.5856 45.8494 67.9355C45.7328 68.2853 45.0331 69.568 45.0331 69.638C45.0331 69.7079 45.7328 69.638 46.1759 69.2881C46.3437 69.1422 46.4799 68.9634 46.5762 68.7629C46.6724 68.5624 46.7267 68.3443 46.7356 68.122C46.7356 67.8422 46.689 67.1658 46.8523 66.7694C47.0155 66.3729 47.4353 65.44 47.5053 65.0669C47.5637 64.1116 47.5637 63.1536 47.5053 62.1983C47.4586 61.6619 47.5752 59.3996 47.7385 58.9332C47.9017 58.4668 47.9251 58.2335 48.0417 58.2335C48.1583 58.2335 48.0883 59.6562 48.0417 60.0993C47.995 60.5424 47.8784 61.9884 47.8784 62.1983C47.679 63.9813 47.9608 65.7852 48.6947 67.4224C48.6947 67.4224 48.8113 67.9355 49.371 67.5856C49.9307 67.2358 49.1145 65.6732 48.9746 65.2301C48.8346 64.787 48.3682 62.4781 48.5314 62.1516C48.6947 61.8251 49.6276 65.3701 49.6509 65.7199C49.6742 66.0697 49.7908 67.1658 49.9774 67.1892C50.164 67.2125 50.9336 66.7461 50.9336 66.6528C50.9326 66.4042 50.8597 66.1612 50.7237 65.9531C50.5138 65.6033 49.3943 62.7347 49.1844 60.3558C48.9745 57.977 49.3477 53.919 49.5343 53.4992C49.7209 53.0794 50.5838 51.167 50.7937 50.8638C51.0036 50.5606 51.6099 49.3012 51.7265 49.2546C51.8431 49.2079 51.9598 49.2079 51.9598 49.3479C51.8172 49.8319 51.6458 50.3069 51.4467 50.7705C51.3067 51.167 50.5604 52.3564 50.4205 52.7529C49.9942 54.0128 49.7278 55.3213 49.6276 56.6476C49.4177 58.7466 49.9074 62.2916 50.0474 62.9912C50.1873 63.6909 51.0735 66.0697 51.5633 66.2796C52.053 66.4895 52.4728 65.8598 52.4029 65.7432C52.3329 65.6266 51.3067 63.7608 51.0735 62.9912C50.8403 62.2216 50.4205 60.3792 50.4905 59.9594C50.5604 59.5396 51.0968 63.4577 52.9393 65.51C52.9393 65.51 53.1725 65.6499 53.5923 65.3701C54.0121 65.0902 53.9888 64.857 53.5923 64.4139C53.1958 63.9707 51.8432 61.3587 51.6566 60.6823C51.47 60.006 50.6537 57.7671 50.6071 57.6971C50.5178 56.904 50.5492 56.102 50.7004 55.3183C50.9103 54.3388 51.2135 52.9628 51.2368 52.5896C51.2601 52.2165 51.8665 51.3769 52.0064 51.1903C52.1463 51.0037 52.4728 50.1175 52.6361 49.4878C52.7993 48.8581 53.1259 48.4383 52.846 48.3917C52.5661 48.345 51.54 48.5083 51.3534 48.7182C51.1668 48.9281 50.4205 49.3712 48.8346 52.9861C48.8346 52.9861 48.3915 53.8257 48.3915 54.3155C48.3912 54.9497 48.1958 55.5685 47.8318 56.0879C47.6989 56.3339 47.5342 56.5613 47.342 56.7643Z" fill="#04CA73"/>
<path d="M47.7144 66.3491C47.6593 66.3398 47.6028 66.3414 47.5483 66.354C47.4938 66.3665 47.4423 66.3897 47.3968 66.4222C47.3513 66.4547 47.3127 66.4959 47.2831 66.5434C47.2536 66.5909 47.2337 66.6438 47.2247 66.6989C47.1771 67.1326 47.1615 67.5691 47.178 68.005C47.1547 68.2382 46.8748 68.8212 46.9448 68.8679C47.0148 68.9145 47.5512 68.7746 47.8077 68.4714C48.0957 68.157 48.2684 67.754 48.2975 67.3286C48.2975 66.9322 48.1575 66.3491 47.7144 66.3491ZM54.4311 48.951C54.4311 48.951 54.781 48.5312 54.6877 48.4379C54.5944 48.3446 54.0813 48.0414 53.8947 48.2746C53.4182 48.9478 53.0412 49.6862 52.7753 50.4669C52.5887 51.1666 51.5625 53.1489 51.4692 53.5687C51.238 54.8397 51.2222 56.1406 51.4226 57.4168C51.7025 59.4225 53.4516 63.5038 54.2212 64.3668C54.9909 65.2297 55.7372 64.3668 55.7372 64.3668L55.1541 63.6904C55.1541 63.6904 53.7082 61.0784 53.5216 60.7752C53.335 60.472 52.3322 58.1865 52.4021 57.4402C52.4721 56.6939 52.6353 55.6677 52.3788 54.6882C52.1223 53.7087 53.2884 51.3065 53.4749 50.9567C53.6615 50.6535 54.4311 48.951 54.4311 48.951Z" fill="#04CA73"/>
<path d="M53.8019 54.082C53.8189 53.7085 53.8896 53.3393 54.0118 52.9859C54.1751 52.5195 54.3617 51.7498 54.0118 51.5633C53.662 51.3767 53.0556 51.5166 53.0556 52.8226C53.0556 54.1287 52.7525 55.6213 53.0556 57.5803C53.3588 59.5394 54.8281 62.991 56.7872 64.7635C58.7462 66.536 58.3964 65.9296 59.3526 66.7925C60.3088 67.6554 65.1597 68.565 66.5124 68.4017C67.8651 68.2385 68.2149 67.5855 68.2849 67.3522C68.3548 67.119 68.1682 66.7225 67.9817 66.9091C67.7951 67.0957 66.7923 68.0052 63.5039 67.2823C60.2155 66.5593 59.3526 65.743 59.166 65.5798C58.9794 65.4165 57.137 63.5274 56.9271 63.3409C56.7172 63.1543 54.5949 60.2624 54.5949 59.8426C54.5949 59.4228 57.3469 64.6702 61.0084 66.0695C64.67 67.4688 66.0226 67.2356 66.7223 67.0024C67.4219 66.7692 68.1449 66.5593 68.1449 66.3027C68.1449 66.0462 68.1216 65.5564 67.8884 65.5564C67.6552 65.5564 66.2792 66.3727 65.6262 66.3027C64.9731 66.2328 64.0169 65.813 63.1307 65.813C62.2445 65.813 60.3787 64.7168 59.9123 64.2737C59.4458 63.8306 56.9737 62.5712 54.5949 57.4637C54.5716 57.487 53.6853 54.8517 53.8019 54.082Z" fill="#04CA73"/>
<path d="M60.2386 67.7253C60.2386 67.7253 59.259 67.0723 59.0725 67.0956C58.8859 67.1189 58.9092 67.4454 58.9325 67.7952C58.9559 68.1451 59.0958 68.5182 59.329 68.5649C59.5622 68.6115 60.1919 68.4716 60.3319 68.5649C61.457 69.1321 62.6883 69.4578 63.9468 69.5211C65.8358 69.591 66.209 69.661 66.7454 69.6144C67.2818 69.5677 68.1913 69.2412 68.2613 69.0313C68.3313 68.8214 68.2846 68.1684 68.0981 68.1684C67.9115 68.1684 67.7016 69.1013 64.1333 68.6815C60.6117 68.215 60.2386 67.7253 60.2386 67.7253Z" fill="#04CA73"/>
<path d="M60.7059 69.1711C60.7059 69.1711 59.9829 68.658 59.773 68.8679C59.5631 69.0778 59.5164 69.7075 60.2394 69.8708C60.9624 70.034 62.5949 70.5005 62.9681 70.5704C63.6992 70.7069 64.4401 70.7849 65.1837 70.8036C65.9766 70.8036 66.7695 70.4305 67.096 70.4305C67.4225 70.4305 68.4021 70.4305 68.4487 70.2206C68.4539 69.9745 68.4144 69.7296 68.3321 69.4976C68.3088 69.4043 68.0289 69.4277 67.8423 69.5209C67.2408 69.7589 66.6152 69.931 65.9766 70.034C64.9059 70.097 63.8317 70.0186 62.7815 69.8008C62.0767 69.6363 61.3833 69.4259 60.7059 69.1711Z" fill="#04CA73"/>
<path d="M67.7246 71.2002C67.7246 71.2002 66.232 72.2264 62.0807 71.5734C57.9294 70.9203 59.0022 69.2878 59.0955 69.3578C59.1888 69.4277 59.5386 69.9175 59.7951 70.0108C60.0517 70.1041 63.1535 71.1302 64.0164 71.1536C64.8793 71.1769 65.9988 71.1302 66.4885 70.967C66.9783 70.8037 67.6313 70.3839 67.8878 70.7338C68.1444 71.037 67.7246 71.2002 67.7246 71.2002Z" fill="#04CA73"/>
<path d="M59.6319 71.247C59.6319 71.247 59.2588 70.9904 59.2588 71.247C59.277 71.4309 59.3424 71.6069 59.4486 71.7581C59.5549 71.9093 59.6983 72.0305 59.8652 72.1099C60.191 72.274 60.5499 72.3617 60.9146 72.3664C61.3559 72.4017 61.7848 72.5288 62.174 72.7396C62.5239 72.9028 63.7599 73.3926 65.9055 72.9961C68.0512 72.5997 68.5876 72.0866 68.6809 71.9466C68.7509 71.7346 68.7509 71.5057 68.6809 71.2936C68.6342 71.0604 68.471 70.9671 68.2844 71.1537C68.0978 71.3403 66.8384 72.4597 63.7599 72.2498C60.6814 72.0399 59.6319 71.247 59.6319 71.247Z" fill="#04CA73"/>
<path d="M61.7301 72.9262C61.7301 72.9262 61.4735 72.5531 60.7739 72.7397C60.0742 72.9262 62.5697 74.2556 62.7096 74.3723C62.8495 74.4889 63.0128 74.5588 63.6192 74.4889C64.2255 74.4189 65.9514 74.3256 66.5577 74.1857C67.1641 74.0457 68.3768 73.6959 68.75 73.2294C69.1232 72.763 68.9832 72.4598 68.6334 72.5064C68.2836 72.5531 66.1379 73.8825 63.9923 73.6959C61.8467 73.5093 61.7301 72.9262 61.7301 72.9262Z" fill="#04CA73"/>
<path d="M64.7157 74.8154C64.7157 74.8154 63.6663 74.8387 63.7129 75.0486C63.8034 75.2328 63.9478 75.3849 64.127 75.4849C64.3062 75.5849 64.5115 75.628 64.7157 75.6084C65.1822 75.5151 67.7942 75.0953 68.3306 74.8154C68.867 74.5355 69.3102 74.4656 69.3102 74.1391C69.3102 73.8126 69.2169 73.4394 68.9837 73.5094C68.7504 73.5793 66.4882 75.0253 64.7157 74.8154ZM66.7914 75.7483C66.7914 75.7483 65.6486 76.1214 65.6486 76.238C65.6486 76.3547 66.1151 76.8911 66.4882 76.8677C66.8614 76.8444 67.6776 76.308 68.0974 76.1681C68.5172 76.0281 69.5201 75.8882 69.5667 75.6084C69.6029 75.3183 69.5457 75.0242 69.4034 74.7688C69.3265 74.7338 69.243 74.7158 69.1586 74.7158C69.0741 74.7158 68.9906 74.7338 68.9137 74.7688C68.7504 74.862 67.1645 75.725 66.7914 75.7483ZM67.8875 77.5208C67.7604 77.5826 67.6208 77.6148 67.4794 77.6148C67.338 77.6148 67.1984 77.5826 67.0713 77.5208C66.6281 77.3109 66.7914 77.0543 67.1645 76.8677C67.5377 76.6812 68.2374 76.4246 68.4939 76.308C68.7504 76.1914 69.4501 75.9349 69.5667 76.0281C69.6896 76.1566 69.7709 76.3192 69.7999 76.4946C69.7999 76.6112 67.8875 77.5208 67.8875 77.5208ZM68.5172 78.5702C68.5172 78.5702 67.8176 78.1971 67.8176 78.1038C67.864 78.0096 67.933 77.9284 68.0185 77.8674C68.1039 77.8063 68.2032 77.7674 68.3073 77.754C68.5172 77.754 69.9399 77.1709 69.9399 77.1709C69.9399 77.1709 70.313 77.5208 70.313 77.8706C70.313 78.2204 68.7971 78.6169 68.5172 78.5702ZM70.313 79.3399C70.1127 79.3777 69.907 79.3777 69.7066 79.3399C69.4967 79.2699 69.2169 78.9667 69.1236 78.9667C69.0303 78.9667 69.3335 78.7801 69.5667 78.7568C69.7999 78.7335 70.1964 78.5936 70.3363 78.5702C70.4763 78.5469 70.6628 78.7335 70.6628 78.9667C70.6628 79.1999 70.313 79.3399 70.313 79.3399ZM56.2265 49.1846C56.3756 49.0443 56.5086 48.8879 56.623 48.7182C56.623 48.6482 55.9 48.2051 55.5502 48.275C55.2004 48.345 54.011 50.6772 54.3841 53.919C54.7573 57.1607 55.5969 60.4957 60.168 64.0873C61.0479 64.7931 62.0723 65.2968 63.1685 65.5628C64.2647 65.8288 65.406 65.8506 66.5115 65.6266C66.5115 65.6266 66.838 65.3234 66.3716 65.3001C65.9052 65.2767 63.4564 64.8336 62.6401 64.4605C61.8238 64.0873 60.0514 62.3848 59.7715 62.2682C59.4916 62.1516 57.3926 59.9827 57.346 59.7261C57.2994 59.4696 56.4831 58.0003 56.2965 57.3006C56.1099 56.601 55.6435 53.6624 55.5036 53.1027C55.3636 52.543 55.2237 51.6334 55.2704 51.3069C55.317 50.9804 55.8301 49.651 56.2265 49.1846Z" fill="#04CA73"/>
<path d="M57.8361 49.5343C57.8361 49.5343 58.2559 49.4177 58.2792 49.2778C58.3026 49.1379 58.2326 48.8113 57.6729 48.7181C57.1131 48.6248 56.5767 49.0212 56.2036 50.0241C55.8304 51.0269 55.9937 53.1492 56.4835 54.4553C56.9732 55.7613 56.6934 56.8108 57.6029 58.5599C58.5125 60.3091 58.4891 60.3091 58.839 60.5889C59.1888 60.8688 60.868 62.5013 61.1245 62.7579C61.381 63.0144 62.8737 63.9939 63.1535 63.9939C63.4334 63.9939 63.5733 63.5275 63.55 63.2943C63.5267 63.0611 63.5033 62.9445 63.1069 62.9211C62.7104 62.8978 62.1507 62.2448 62.1507 62.2448C62.1507 62.2448 60.0284 60.2391 59.8651 60.1458C59.7019 60.0525 57.9761 58.0935 57.9761 57.8603C57.9761 57.627 57.9994 57.3005 58.1393 57.4871C58.2792 57.6737 59.2821 59.1196 59.9351 59.726C60.5881 60.3324 62.6638 62.0815 63.1535 62.2914C63.6433 62.5013 63.8765 62.5247 63.9231 62.1282C63.9698 61.7317 64.203 61.5451 64.4129 61.6617C64.6228 61.7784 66.1854 62.6879 66.6751 62.6179C67.1649 62.548 67.8879 61.825 68.1211 61.8716C68.3543 61.9183 67.7013 62.6413 67.4914 62.7579C67.2815 62.8745 67.6546 63.131 67.7246 63.1777C67.8538 63.2478 68.0014 63.2764 68.1474 63.2598C68.2935 63.2431 68.4308 63.1818 68.5409 63.0844C68.914 62.7579 68.9607 62.3148 68.7041 61.7317C68.4476 61.1487 68.3776 60.1691 68.3077 59.9826C68.2377 59.796 68.1444 59.5161 67.9578 59.9826C67.7712 60.449 67.4214 61.4052 66.2087 61.4518C64.7697 61.5692 63.3348 61.1817 62.1507 60.3557C60.6581 59.3762 58.8623 58.0235 57.463 54.0355C56.0637 50.0474 57.8361 49.5343 57.8361 49.5343Z" fill="#04CA73"/>
<path d="M67.772 58.0237C67.7104 57.9943 67.6411 57.9853 67.574 57.9978C67.5069 58.0104 67.4456 58.044 67.3989 58.0937C67.3289 58.2103 67.2356 57.6739 67.3755 57.1608C67.5155 56.6477 67.3989 55.8781 67.2356 55.9248C67.0723 55.9714 65.813 57.9771 64.4136 57.2075C63.0143 56.4378 61.2652 54.2456 60.7754 53.2661C60.2856 52.2865 59.6793 51.1671 59.7726 50.5141C59.7726 50.5141 59.8425 50.001 59.8659 49.8611C59.8892 49.7211 59.586 49.1614 59.2128 49.3013C58.8397 49.4413 57.9301 49.9543 57.8135 50.3275C57.6969 50.7006 57.3238 51.0505 57.5103 52.1233C57.6969 53.1961 58.2566 54.5721 58.4665 55.2018C58.6764 55.8315 59.3294 57.2541 60.0291 57.8838C60.7288 58.5135 62.1048 59.7496 62.7111 60.0294C63.3175 60.3093 64.6002 61.2655 66.2561 60.8923C67.9119 60.5192 67.9353 58.8633 67.9353 58.7001C67.9196 58.467 67.8644 58.2383 67.772 58.0237ZM60.4955 57.534C60.4256 57.4407 59.6093 56.1813 59.516 56.1113C59.959 56.4403 60.3725 56.807 60.7521 57.2075C61.2185 57.7439 61.6383 58.3736 61.6383 58.5601C61.6383 58.5601 60.5655 57.6273 60.4955 57.534ZM65.3932 59.493C64.0871 59.4464 63.5974 58.8633 63.2475 58.6534C62.8977 58.4435 61.9882 57.2774 61.2185 56.4845C60.4489 55.6915 59.8425 55.0152 59.586 54.5254C59.3295 54.0357 58.6531 51.6335 58.5831 51.3537C58.5132 51.0738 58.9563 50.8406 58.9563 50.9805C58.9669 51.2314 58.9981 51.481 59.0496 51.7268C59.0029 52.8929 60.4023 54.9452 60.5888 55.3417C60.7754 55.7382 62.3846 57.4873 63.8073 58.4435C65.2299 59.3997 66.1628 58.8866 66.396 58.7934C66.6292 58.7001 66.8858 58.7001 66.9557 58.7934C67.0257 58.8866 66.6992 59.5397 65.3932 59.493Z" fill="#04CA73"/>
<path d="M67.0716 54.8052C66.8617 54.8052 66.3953 55.3649 66.3253 55.0384C66.2554 54.7119 66.6518 54.0122 66.6518 53.3592C66.6518 52.7062 66.5119 51.4701 66.2087 50.8638C65.9055 50.2574 65.6023 49.721 65.0659 50.0475C64.5295 50.374 64.8094 50.6305 65.0426 50.9337C65.2758 51.2369 65.8589 51.9132 65.8589 52.7062C65.8589 53.4991 65.7423 54.5253 65.4391 54.5953C65.1359 54.6652 64.4129 54.432 63.7599 53.9189C63.0624 53.3965 62.4144 52.811 61.8242 52.1698C61.6143 51.8666 61.1945 51.1669 61.3111 51.0503C61.4277 50.9337 61.6143 50.8871 61.8009 51.2136C61.9874 51.5401 62.897 52.4963 63.1302 52.7295C63.52 53.1192 63.9328 53.4852 64.3663 53.8256C64.6461 54.0122 64.996 54.3387 65.2525 53.9189C65.5091 53.4991 65.5557 52.4963 65.3458 52.1231C65.1359 51.75 64.7861 51.097 64.6695 50.9337C64.5529 50.7705 64.3663 50.4906 63.9698 50.6539C63.5733 50.8171 63.5967 51.1436 63.7366 51.2602C63.8765 51.3768 64.5062 51.82 64.5529 52.1231C64.5995 52.4263 64.7394 52.9627 64.5062 52.7062C64.273 52.4496 63.6666 51.6101 63.5034 51.5168C63.3401 51.4235 62.2207 50.7238 62.2207 50.7238C62.2207 50.7238 60.868 50.1641 60.7747 50.0242C60.6814 49.8842 60.4015 49.8609 60.6114 50.6539C60.8213 51.4468 60.9613 52.403 61.5443 53.126C61.8712 53.5042 62.1102 53.9503 62.244 54.432C62.3606 54.7818 63.5267 56.5077 65.0193 56.8808C66.5119 57.254 67.0483 55.5281 67.1183 55.3882C67.1882 55.2483 67.2815 54.8052 67.0716 54.8052ZM65.649 55.8546C65.6023 56.2045 64.9493 55.8313 64.6695 55.8546C64.3896 55.878 63.8765 55.4115 63.55 55.0384C63.2235 54.6652 62.967 54.2688 63.0602 54.2221C63.1535 54.1755 63.5733 54.6885 63.9931 54.9218C64.4129 55.155 64.9726 55.4815 65.3458 55.4349C65.719 55.3882 65.649 55.8546 65.649 55.8546ZM68.8441 63.2244C68.8441 63.2244 68.5409 63.5742 68.5409 63.7141C68.5409 63.8541 68.7042 63.924 68.7042 64.064C68.7042 64.2039 68.8208 64.2739 68.984 64.1573C69.1473 64.0406 69.1473 63.9007 69.124 63.7141C69.1006 63.5276 69.1473 63.1544 68.8441 63.2244ZM69.1473 64.4604C69.1473 64.4604 68.8441 64.647 68.8441 64.8802C68.8323 65.0744 68.8323 65.2691 68.8441 65.4633C68.8579 65.5017 68.8832 65.5349 68.9166 65.5584C68.95 65.5819 68.9898 65.5945 69.0307 65.5945C69.0715 65.5945 69.1113 65.5819 69.1447 65.5584C69.1781 65.5349 69.2034 65.5017 69.2172 65.4633C69.3105 65.2767 69.4271 65.1601 69.3339 64.9269C69.2406 64.7403 69.3339 64.2972 69.1473 64.4604ZM69.3805 66.7227C69.3805 66.7227 68.9607 67.0259 68.984 66.8626C69.0073 66.6993 69.0307 65.9997 69.1706 65.9764C69.3105 65.953 69.3105 65.6732 69.5438 66.093C69.777 66.5128 69.6137 66.5827 69.3805 66.7227ZM69.7303 67.2591C69.7303 67.2591 69.8469 66.816 69.5204 67.0958C69.1939 67.3757 69.1006 67.2824 69.124 67.469C69.1473 67.6555 69.2172 67.9821 69.4038 67.9354C69.5437 67.8888 69.8703 67.9587 69.7303 67.2591ZM69.9169 68.1919C69.9169 68.1919 69.3805 68.4485 69.4271 68.7517C69.4738 69.0549 69.7303 69.358 69.8469 69.358C69.9635 69.358 70.1501 69.0315 70.0802 68.775C70.0102 68.5185 70.1035 68.0753 69.9169 68.1919Z" fill="#04CA73"/>
<path d="M57.9992 28.661C52.1965 28.661 46.5241 30.3817 41.6993 33.6055C36.8745 36.8293 33.1141 41.4115 30.8935 46.7724C28.6729 52.1334 28.0919 58.0325 29.2239 63.7237C30.356 69.4149 33.1502 74.6427 37.2534 78.7458C41.3565 82.8489 46.5842 85.6432 52.2754 86.7752C57.9666 87.9073 63.8657 87.3263 69.2267 85.1057C74.5877 82.8851 79.1698 79.1246 82.3936 74.2999C85.6174 69.4751 87.3381 63.8027 87.3381 58C87.3391 54.1469 86.5808 50.3313 85.1067 46.7714C83.6326 43.2114 81.4716 39.9767 78.747 37.2522C76.0224 34.5276 72.7878 32.3665 69.2278 30.8924C65.6678 29.4183 61.8523 28.6601 57.9992 28.661ZM57.9992 85.3799C52.5816 85.3822 47.285 83.778 42.7792 80.7701C38.2734 77.7622 34.7608 73.4857 32.6854 68.4814C30.6101 63.4771 30.0653 57.9698 31.1199 52.6559C32.1746 47.342 34.7813 42.4602 38.6105 38.6278C42.4396 34.7954 47.3192 32.1845 52.6322 31.1253C57.9452 30.0662 63.453 30.6063 68.459 32.6773C73.4651 34.7484 77.7446 38.2574 80.7563 42.7607C83.768 47.2639 85.3768 52.5591 85.3791 57.9767C85.3819 61.5741 84.6757 65.1369 83.301 68.4613C81.9263 71.7858 79.91 74.8067 77.3673 77.3516C74.8246 79.8965 71.8053 81.9154 68.482 83.2929C65.1588 84.6704 61.5966 85.3796 57.9992 85.3799Z" fill="#04CA73"/>
<path d="M57.9997 23.8334C51.2421 23.8334 44.6364 25.8372 39.0177 29.5915C33.399 33.3458 29.0198 38.6819 26.4338 44.925C23.8478 51.1681 23.1712 58.0379 24.4895 64.6656C25.8079 71.2933 29.0619 77.3812 33.8402 82.1595C38.6185 86.9378 44.7064 90.1918 51.3341 91.5102C57.9618 92.8285 64.8315 92.1519 71.0747 89.5659C77.3178 86.9799 82.6539 82.6007 86.4082 76.982C90.1625 71.3633 92.1663 64.7575 92.1663 58C92.1657 48.9387 88.5658 40.2486 82.1585 33.8412C75.7511 27.4339 67.061 23.834 57.9997 23.8334V23.8334ZM57.9997 88.9716C51.8741 88.9716 45.886 87.1551 40.7928 83.7519C35.6996 80.3487 31.7299 75.5116 29.3857 69.8523C27.0415 64.193 26.4282 57.9657 27.6232 51.9578C28.8183 45.9499 31.768 40.4313 36.0995 36.0998C40.4309 31.7684 45.9495 28.8186 51.9574 27.6236C57.9653 26.4285 64.1927 27.0419 69.852 29.386C75.5113 31.7302 80.3484 35.6999 83.7516 40.7932C87.1548 45.8864 88.9712 51.8744 88.9712 58C88.9675 66.2131 85.7032 74.0886 79.8958 79.8961C74.0883 85.7036 66.2127 88.9679 57.9997 88.9716Z" fill="#04CA73"/>
</svg>
