<svg width="43" height="43" viewBox="0 0 43 43" fill="none" xmlns="http://www.w3.org/2000/svg">
<circle cx="21.5" cy="21.5" r="21.5" fill="#F1F1F1"/>
<path d="M21 11V33" stroke="#D0D0D0" stroke-width="1.5" stroke-linecap="round" stroke-linejoin="round"/>
<path d="M26 15H18.5C17.5717 15 16.6815 15.3687 16.0251 16.0251C15.3687 16.6815 15 17.5717 15 18.5C15 19.4283 15.3687 20.3185 16.0251 20.9749C16.6815 21.6313 17.5717 22 18.5 22H23.5C24.4283 22 25.3185 22.3687 25.9749 23.0251C26.6313 23.6815 27 24.5717 27 25.5C27 26.4283 26.6313 27.3185 25.9749 27.9749C25.3185 28.6313 24.4283 29 23.5 29H15" stroke="#D0D0D0" stroke-width="1.5" stroke-linecap="round" stroke-linejoin="round"/>
</svg>
