<svg width="430" height="126" viewBox="0 0 430 126" fill="none" xmlns="http://www.w3.org/2000/svg">
<circle cx="2.17241" cy="2.17241" r="2.17241" fill="#385673"/>
<circle cx="62.9996" cy="2.17241" r="2.17241" fill="#385673"/>
<circle cx="123.828" cy="2.17241" r="2.17241" fill="#385673"/>
<circle cx="184.655" cy="2.17241" r="2.17241" fill="#385673"/>
<circle cx="245.483" cy="2.17241" r="2.17241" fill="#385673"/>
<circle cx="306.31" cy="2.17241" r="2.17241" fill="#385673"/>
<circle cx="367.138" cy="2.17241" r="2.17241" fill="#385673"/>
<circle cx="427.965" cy="2.17241" r="2.17241" fill="#385673"/>
<circle cx="2.17241" cy="32.5862" r="2.17241" fill="#385673"/>
<circle cx="62.9996" cy="32.5862" r="2.17241" fill="#385673"/>
<circle cx="123.828" cy="32.5862" r="2.17241" fill="#385673"/>
<circle cx="184.655" cy="32.5862" r="2.17241" fill="#385673"/>
<circle cx="245.483" cy="32.5862" r="2.17241" fill="#385673"/>
<circle cx="306.31" cy="32.5862" r="2.17241" fill="#385673"/>
<circle cx="367.138" cy="32.5862" r="2.17241" fill="#385673"/>
<circle cx="427.965" cy="32.5862" r="2.17241" fill="#385673"/>
<circle cx="2.17241" cy="63" r="2.17241" fill="#385673"/>
<circle cx="62.9996" cy="63" r="2.17241" fill="#385673"/>
<circle cx="123.828" cy="63" r="2.17241" fill="#385673"/>
<circle cx="184.655" cy="63" r="2.17241" fill="#385673"/>
<circle cx="245.483" cy="63" r="2.17241" fill="#385673"/>
<circle cx="306.31" cy="63" r="2.17241" fill="#385673"/>
<circle cx="367.138" cy="63" r="2.17241" fill="#385673"/>
<circle cx="427.965" cy="63" r="2.17241" fill="#385673"/>
<circle cx="2.17241" cy="93.4138" r="2.17241" fill="#385673"/>
<circle cx="62.9996" cy="93.4138" r="2.17241" fill="#385673"/>
<circle cx="123.828" cy="93.4138" r="2.17241" fill="#385673"/>
<circle cx="184.655" cy="93.4138" r="2.17241" fill="#385673"/>
<circle cx="245.483" cy="93.4138" r="2.17241" fill="#385673"/>
<circle cx="306.31" cy="93.4138" r="2.17241" fill="#385673"/>
<circle cx="367.138" cy="93.4138" r="2.17241" fill="#385673"/>
<circle cx="427.965" cy="93.4138" r="2.17241" fill="#385673"/>
<circle cx="2.17241" cy="123.828" r="2.17241" fill="#385673"/>
<circle cx="62.9996" cy="123.828" r="2.17241" fill="#385673"/>
<circle cx="123.828" cy="123.828" r="2.17241" fill="#385673"/>
<circle cx="184.655" cy="123.828" r="2.17241" fill="#385673"/>
<circle cx="245.483" cy="123.828" r="2.17241" fill="#385673"/>
<circle cx="306.31" cy="123.828" r="2.17241" fill="#385673"/>
<circle cx="367.138" cy="123.828" r="2.17241" fill="#385673"/>
<circle cx="427.965" cy="123.828" r="2.17241" fill="#385673"/>
</svg>
