<svg width="44" height="55" viewBox="0 0 44 55" fill="none" xmlns="http://www.w3.org/2000/svg">
<g filter="url(#filter0_b_118_3185)">
<path d="M39.3363 0.727363C39.3363 0.727363 40.7055 1.42218 41.777 1.65596C41.8624 1.67383 41.951 1.66806 42.0333 1.63927C42.1157 1.61049 42.1885 1.5598 42.2439 1.4927C42.4826 1.2106 42.8157 0.727363 42.476 0.55366C42.428 0.528863 42.3773 0.501415 42.3236 0.47239C41.8289 0.204844 41.0867 -0.196574 39.9711 0.110914C38.7343 0.451789 39.1448 0.667286 39.3363 0.727363Z" fill="#07C37F"/>
<path d="M31.9169 1.66643C31.9169 1.66643 32.0232 1.33601 32.2868 1.33601C32.3633 1.33601 32.4783 1.32392 32.6084 1.31026C32.9266 1.27684 33.3343 1.23402 33.4842 1.33601C33.6953 1.47967 33.6022 1.92372 33.353 1.92503C33.1038 1.92633 31.8107 1.85712 31.9169 1.66643Z" fill="#07C37F"/>
<path d="M0.0153643 18.8564C-0.114473 19.7184 0.621272 19.6766 0.621272 19.6766C0.760811 19.6958 0.904076 19.5299 1.0782 19.3283C1.17738 19.2134 1.28658 19.087 1.41079 18.9766C1.67563 18.7411 1.74577 18.5065 1.88058 18.0554C1.92 17.9235 1.96496 17.7731 2.02194 17.5987C2.27375 16.8282 3.26392 16.6309 3.42524 16.6309C3.58655 16.6309 3.35179 17.2866 2.68687 18.0454C2.49975 18.2589 2.29186 18.4616 2.08287 18.6654C1.54921 19.1856 1.00836 19.7129 0.787832 20.4459C0.480943 21.4659 1.00292 21.9491 1.39899 21.8237C1.58243 21.7657 1.67218 21.5591 1.79478 21.277C1.93688 20.95 2.1231 20.5215 2.55047 20.105C2.97071 19.6955 3.19397 19.3092 3.39309 18.9647C3.57118 18.6566 3.72997 18.3819 3.99311 18.1538C4.42579 17.7482 4.82084 17.3045 5.17345 16.8282C6.67217 13.6521 11.4745 9.66211 12.8776 8.4964C13.0571 8.34722 13.181 8.24429 13.2352 8.19525C13.4128 8.03439 13.6624 7.87986 13.9057 7.72917C14.3163 7.47489 14.7093 7.23154 14.7093 6.98716C14.7093 6.59796 14.4942 6.38247 14.1454 6.42557C13.7965 6.46867 11.024 8.32454 8.94399 10.008C6.86396 11.6915 4.82591 14.89 4.4941 15.5796C4.16229 16.2692 4.04557 15.8003 4.04557 15.1473C4.04557 14.7446 4.16125 14.5088 4.28038 14.266C4.35447 14.1149 4.42989 13.9612 4.47967 13.7629C4.60951 13.2457 3.82918 13.6349 3.61278 13.9366C3.54668 14.0287 3.41988 14.137 3.27564 14.2601C2.94767 14.5401 2.52949 14.8971 2.52949 15.3171C2.52949 15.9218 2.22654 16.2248 1.6626 16.6127C1.09865 17.0006 0.145202 17.9944 0.0153643 18.8564Z" fill="#07C37F"/>
<path d="M15.1891 5.941C15.1214 5.97474 15.0624 6.02367 15.0169 6.08396C14.9714 6.14425 14.9406 6.21423 14.9268 6.28841C14.9177 6.33481 14.9181 6.38257 14.928 6.42881C14.9379 6.47505 14.9572 6.51881 14.9845 6.55745C15.1524 6.78862 15.5918 6.60839 15.875 6.3511C16.1583 6.09381 17.9157 5.02678 17.9157 5.02678C17.9157 5.02678 15.9786 5.53744 15.1891 5.941Z" fill="#07C37F"/>
<path d="M1.82422 23.1142C2.22947 23.5347 2.49177 23.1142 2.49177 23.1142C3.01877 22.7277 3.6757 21.6689 4.09313 20.9961C4.22731 20.7798 4.33675 20.6035 4.40916 20.5021C4.70687 20.0855 6.4223 17.715 6.96657 17.0489C7.08998 16.8979 7.16147 16.7609 7.24759 16.5957C7.5413 16.0326 8.00518 15.1433 11.2787 12.261C15.5122 8.53358 20.2729 4.66249 26.1209 4.46527C31.9688 4.26806 38.7112 8.46436 38.7112 8.46436C38.8065 8.42532 38.893 8.36752 38.9653 8.29442C39.0377 8.22132 39.0945 8.13442 39.1323 8.03893C39.1702 7.94345 39.1883 7.84133 39.1855 7.73872C39.1828 7.6361 39.1593 7.53509 39.1164 7.44173C32.5314 3.34731 27.1478 2.93329 24.5248 3.44395C21.9018 3.95461 19.4218 5.30636 17.6211 6.32638C15.8835 7.31065 12.5254 9.98776 10.4928 11.6082L10.2768 11.7804C8.27412 13.3764 6.1823 15.9519 5.66951 16.7904C5.15671 17.6288 3.25112 20.6314 2.60324 21.2296C1.95537 21.8277 1.41897 22.6936 1.82422 23.1142Z" fill="#07C37F"/>
<path d="M40.7963 4.02768C33.5804 1.25105 28.9417 1.91713 27.5948 2.21751C27.5535 2.22699 27.5164 2.2495 27.4889 2.28169C27.4615 2.31388 27.4453 2.35403 27.4426 2.39616C27.44 2.4383 27.451 2.48015 27.4742 2.51551C27.4974 2.55086 27.5314 2.57781 27.5712 2.59235C27.952 2.70977 28.3448 2.78382 28.7424 2.81307C29.3571 2.87495 29.9487 2.9623 30.5041 3.04429C31.3552 3.16995 32.1214 3.28307 32.7555 3.27279C33.8034 3.25581 36.4028 3.5549 37.9726 4.14C39.5425 4.72511 40.2022 4.97717 40.2022 4.97717C40.2022 4.97717 40.5353 5.00852 40.7897 4.62977C41.0441 4.25102 40.7963 4.02768 40.7963 4.02768Z" fill="#07C37F"/>
<path d="M39.4165 6.64889C40.3201 6.58621 40.0499 5.62235 40.0499 5.62235C40.0499 5.62235 36.6256 4.26799 34.8014 3.77561C32.9771 3.28324 32.0053 4.15306 33.4204 4.32807C34.1286 4.41565 35.4034 5.01254 36.6136 5.57918C37.8215 6.14477 38.9651 6.68021 39.4165 6.64889Z" fill="#07C37F"/>
<path d="M35.1068 1.0735C35.0678 1.0879 35.0339 1.1136 35.0097 1.1473C34.9854 1.18101 34.9719 1.22116 34.9708 1.26261C34.9696 1.30405 34.981 1.34488 35.0034 1.37984C35.0257 1.41481 35.0581 1.4423 35.0963 1.45878C35.5081 1.63509 36.1704 1.88324 36.7042 1.92504C37.5449 1.99034 39.8229 2.70866 40.9088 3.27156C41.6039 3.6268 41.958 2.37039 41.5095 2.21106C41.2684 2.1264 40.9199 1.99643 40.5319 1.8517C39.6088 1.50745 38.4618 1.07968 38.0039 0.979464C37.4557 0.859308 35.9671 0.77311 35.1068 1.0735Z" fill="#07C37F"/>
<path d="M37.0523 9.49894C35.1003 8.36626 30.3307 5.5986 22.6154 6.65021C21.9395 6.7461 21.3618 7.20731 20.9267 7.55467C20.7337 7.70879 20.5687 7.84049 20.4357 7.90792C19.5616 8.33816 18.7193 8.82959 17.915 9.37852C16.2905 10.5286 14.7849 11.8367 13.4205 13.2836C12.0513 14.7646 10.3582 17.9004 9.95297 18.6723C9.54772 19.4442 8.03557 21.1694 7.59228 21.6109C7.149 22.0523 6.11948 24.3274 5.41521 25.9469C4.71094 27.5664 3.82438 27.3418 3.97257 26.1298C4.12077 24.9178 6.59162 21.4972 7.18179 20.8037C7.77196 20.1102 10.8763 15.6227 11.0231 15.2479C11.17 14.873 10.7267 14.7777 10.3215 15.2479C10.1391 15.4594 9.64281 16.1892 9.09719 16.9914C8.43039 17.9718 7.6899 19.0606 7.35884 19.4442C6.75687 20.1416 4.0893 24.5024 4.0893 24.5024C4.0893 24.5024 3.72208 25.4794 3.15814 25.162C2.5942 24.8446 2.76731 24.1145 3.42831 23.2957C3.7115 22.9448 4.80455 21.3687 5.99049 19.6585C7.57252 17.3773 9.32004 14.8574 9.53067 14.6902C9.65996 14.5875 9.89838 14.4872 10.1913 14.3638C10.7334 14.1356 11.4621 13.8287 12.0317 13.2836C12.3425 12.9861 12.6564 12.6166 12.9813 12.234C13.5738 11.5365 14.203 10.7957 14.917 10.3698C15.1507 10.2304 15.4666 9.95774 15.8718 9.60805C17.383 8.30381 20.1365 5.92749 24.5039 5.38988C30.0424 4.70813 35.9991 7.123 38.4503 9.14866C38.4503 9.14866 38.6208 9.83172 38.0084 9.95449C37.8813 9.97996 37.5634 9.79548 37.0523 9.49894Z" fill="#07C37F"/>
<path d="M11.9574 16.4103C11.9574 16.4103 14.2906 12.884 16.8099 11.1652C17.775 10.5069 18.578 9.92785 19.2457 9.44636C20.3212 8.67084 21.0458 8.14836 21.5313 7.95497C21.5767 7.93689 21.6284 7.91533 21.6866 7.89103L21.6876 7.89062C22.6399 7.49323 25.3441 6.36487 31.0711 7.66764C37.1511 9.05074 37.8843 11.0346 37.5971 11.4264C37.3471 11.7674 36.6026 11.3567 35.494 10.7452C35.3286 10.6539 35.1552 10.5583 34.9741 10.46C33.5787 9.70245 30.9622 8.55444 28.8652 8.60668C26.7681 8.65892 22.6015 10.0943 22.3405 10.3555C22.0795 10.6167 22.052 9.8866 22.7589 9.72988C23.134 9.64671 23.4434 9.44585 23.7176 9.26782C23.9601 9.11037 24.1751 8.97077 24.3838 8.94625C24.8284 8.89401 25.5117 8.73729 25.5117 8.3729C25.5117 8.00852 24.0179 8.05945 23.2572 8.3729C22.6623 8.61807 20.737 9.66063 19.6635 10.242C19.3646 10.4039 19.1316 10.53 19.0119 10.5932C18.8937 10.6555 18.7681 10.7153 18.6426 10.775C18.1845 10.9928 17.726 11.2109 17.6231 11.5583C17.4919 12.0011 16.6001 13.0564 16.1555 13.2862C15.7109 13.5161 13.4552 15.291 13.2204 15.7089C12.9856 16.1268 12.6656 16.4534 11.9574 16.4103Z" fill="#07C37F"/>
<path d="M18.1531 13.0942C16.8941 14.0398 16.5977 13.6022 16.5977 13.6022C16.6232 13.3122 17.8525 12.543 18.63 12.0565C18.9308 11.8683 19.1642 11.7222 19.2338 11.6628C19.4829 11.4499 19.7924 11.9357 19.6849 11.9357C19.6287 11.9357 19.5566 11.994 19.3206 12.1848C19.1053 12.3589 18.7536 12.6432 18.1531 13.0942Z" fill="#07C37F"/>
<path d="M20.0953 12.8239C20.0953 12.8239 19.7439 12.7207 20.4311 12.2375C21.1183 11.7543 25.6639 9.02334 28.9426 9.19574C32.2214 9.36814 36.0247 11.3037 36.6804 11.8744C37.3362 12.4452 36.8719 13.584 36.6804 13.5148C36.6511 13.5042 36.5302 13.4228 36.3365 13.2923C35.2675 12.5725 31.979 10.3579 29.5853 10.285C26.7577 10.1988 23.9118 11.2697 22.7144 12.0129L22.552 12.1138C21.4781 12.7821 21.0669 13.0381 20.0953 12.8239Z" fill="#07C37F"/>
<path d="M23.6853 12.597C23.7095 12.6221 23.7406 12.6397 23.7747 12.6475C24.9465 12.928 25.7065 12.7127 26.5691 12.4683C27.4017 12.2324 28.33 11.9694 29.8167 12.099C32.1527 12.3016 33.8297 13.9609 34.787 14.9082C35.1319 15.2496 35.3834 15.4984 35.5387 15.5534C36.125 15.7611 36.281 14.7228 36.1945 14.2748C36.1079 13.8269 34.4423 11.8913 30.3662 11.028C27.0704 10.3293 24.5563 11.7529 23.7143 12.3249C23.6853 12.3444 23.6627 12.372 23.6492 12.4041C23.6357 12.4363 23.6319 12.4716 23.6383 12.5059C23.6447 12.5402 23.6611 12.5718 23.6853 12.597Z" fill="#07C37F"/>
<path d="M27.9538 13.3776L27.5984 13.2614C27.5885 13.2581 27.5799 13.2517 27.5738 13.2433C27.5677 13.2349 27.5645 13.2248 27.5645 13.2144C27.5645 13.204 27.5677 13.1939 27.5738 13.1854C27.5799 13.177 27.5885 13.1707 27.5984 13.1674C28.123 13.0368 29.8358 12.705 31.3859 13.298C32.7551 13.8204 33.8607 14.8156 34.346 15.3027C34.3609 15.3185 34.3701 15.3387 34.3723 15.3603C34.3744 15.3819 34.3693 15.4035 34.3577 15.4219C34.3462 15.4402 34.3289 15.4543 34.3085 15.4618C34.2881 15.4693 34.2657 15.4698 34.245 15.4634L27.9538 13.3776Z" fill="#07C37F"/>
<path d="M5.37527 28.7823C5.8697 29.212 6.05724 28.6517 6.05724 28.6517C6.58661 27.7544 6.75235 27.1729 6.91583 26.5992C7.095 25.9706 7.27145 25.3514 7.92087 24.3366C9.16285 22.3958 8.85596 21.1551 8.83891 21.4816C8.82187 21.8081 7.61005 23.2604 7.26906 23.6C6.92807 23.9396 5.56281 26.7776 5.37527 27.236L5.34666 27.3055C5.15932 27.759 4.9053 28.3739 5.37527 28.7823Z" fill="#07C37F"/>
<path d="M7.13253 30.5376C7.13253 30.5376 6.94498 30.9294 6.62105 30.5376C6.29711 30.1458 6.60269 29.2316 6.99613 28.2952C7.17982 27.858 7.39638 27.1697 7.60124 26.5186C7.83518 25.7751 8.05386 25.0801 8.1909 24.8629C8.44795 24.4554 8.48074 25.3722 8.48074 25.6465C8.48074 25.6724 8.4815 25.7089 8.48245 25.755C8.49166 26.1976 8.51905 27.5141 8.07024 28.6373C7.81877 29.2989 7.50479 29.9352 7.13253 30.5376Z" fill="#07C37F"/>
<path d="M7.88306 32.2538C8.32765 32.9839 8.70274 32.3727 8.70274 32.3727C8.95848 32.0671 9.04373 31.3944 9.04373 31.1868C9.04373 31.082 8.97856 30.8963 8.90305 30.6811C8.82898 30.47 8.74495 30.2306 8.70274 30.0114C8.61749 29.5686 8.46405 29.229 8.36175 29.3649C8.3072 29.4373 8.21199 29.7207 8.11511 30.0091C8.03033 30.2615 7.94427 30.5177 7.88306 30.6396C7.73404 30.8826 7.6552 31.1619 7.6552 31.4467C7.6552 31.7315 7.73404 32.0108 7.88306 32.2538Z" fill="#07C37F"/>
<path d="M9.55499 33.1028C9.55499 33.1028 9.42384 32.6822 9.3163 32.6117C9.20875 32.5412 8.91236 32.95 8.88482 33.2556C8.86955 33.4249 8.96021 33.5321 9.05167 33.6403C9.12526 33.7273 9.19937 33.8149 9.21925 33.936C9.26384 34.2077 9.48154 33.8681 9.55499 33.5795C9.59789 33.4235 9.59789 33.2588 9.55499 33.1028Z" fill="#07C37F"/>
<path d="M12.6331 19.5108C10.8744 21.5456 10.5124 24.0949 10.5124 24.0949C10.5124 24.0949 10.8127 24.5599 10.9622 23.7358C11.1117 22.9117 12.2239 21.7023 12.4049 21.6762L12.4092 21.6755C12.4602 21.6682 12.4939 21.6633 12.505 21.6768C12.5266 21.7033 12.461 21.8005 12.2668 22.088C12.2177 22.1608 12.1603 22.2458 12.094 22.3449C11.6285 23.041 10.0009 27.2125 9.94844 28.32C9.89598 29.4275 10.233 29.4536 10.3878 29.4536C10.5425 29.4536 12.1216 25.8738 12.1465 25.384C12.1646 25.0274 12.7301 23.7697 13.1374 22.8638C13.2894 22.5257 13.4195 22.2364 13.4908 22.0614C13.7246 21.4874 13.603 21.3452 13.519 21.2471C13.5088 21.2351 13.4992 21.2238 13.4908 21.2125C13.4571 21.1671 13.3498 21.1706 13.2383 21.1742C13.0934 21.1789 12.9414 21.1838 12.9347 21.0819C12.9287 20.9906 13.2103 20.6679 13.5068 20.3281C13.7958 19.997 14.0988 19.6497 14.1636 19.4846C14.2164 19.3498 14.3991 19.0849 14.605 18.7864C14.9098 18.3445 15.2653 17.8289 15.3255 17.553C15.4265 17.0907 15.1944 17.1416 15.1944 17.1416C15.1944 17.1416 14.3918 17.476 12.6331 19.5108Z" fill="#07C37F"/>
<path d="M14.7092 23.8376C14.7092 23.8376 14.2882 24.8328 13.4095 24.7597C12.8066 24.7095 13.2411 23.6754 13.6409 22.7237C13.8238 22.2884 13.9994 21.8704 14.0653 21.5717C14.2751 20.6196 15.9014 17.0907 16.2345 16.7811C16.5676 16.4716 17.4765 16.1281 17.6063 16.4154C17.6804 16.5793 17.5099 16.7925 17.2921 17.0649C17.1281 17.2701 16.9372 17.5089 16.8037 17.7855C16.7351 17.9275 16.6316 18.1296 16.5109 18.3653C16.0843 19.1983 15.4428 20.4507 15.3702 20.9526C15.2771 21.5965 14.7092 23.8376 14.7092 23.8376Z" fill="#07C37F"/>
<path d="M13.909 25.7145C13.911 25.7932 13.8965 25.8715 13.8664 25.9443C14.1371 25.6617 14.3881 25.361 14.6179 25.0444C15.1726 24.3261 15.3379 23.4067 15.347 22.7798C15.3562 22.1529 15.9307 21.0663 15.9307 21.0663C17.7582 16.8671 18.7249 15.9871 19.0745 15.6688C19.1127 15.634 19.1436 15.6059 19.1674 15.5809C19.4087 15.3275 20.7242 15.1355 21.0914 15.1721C21.3389 15.1968 21.2343 15.4635 21.0719 15.8775C20.9934 16.0777 20.9013 16.3124 20.8291 16.5709C20.6074 17.3636 20.2009 18.5208 20.016 18.7441C19.831 18.9675 19.0664 20.0449 19.0166 20.5347C18.9743 20.9501 18.698 22.2742 18.4567 23.4309L18.4563 23.4329C18.4132 23.6392 18.3713 23.8402 18.332 24.0297C18.0723 25.2821 18.1471 27.0126 18.2205 27.0988C18.294 27.185 19.3523 30.0466 19.5884 30.936C19.8245 31.8254 21.5622 35.1728 22.0802 35.7435C22.5983 36.3142 22.5983 36.6277 22.0802 36.9777C21.5622 37.3277 21.2488 37.1436 21.2488 37.1436C19.525 35.2254 18.683 32.0378 18.3172 30.6528C18.1806 30.1358 18.1104 29.87 18.0854 30.0152C17.9936 30.5494 18.5261 32.9447 18.8251 33.9203C19.1057 34.8358 20.2825 37.0004 20.5001 37.4006L20.5301 37.4557C20.6192 37.6216 20.0946 38.4313 19.4389 38.1558C18.7832 37.8802 17.6749 34.841 17.4717 33.9386C17.2684 33.0361 16.6546 28.4872 16.9169 25.7797C17.0672 24.082 17.4149 22.4073 17.953 20.7894C18.0389 20.5189 18.3444 19.9695 18.6423 19.4339C18.9125 18.9478 19.1765 18.473 19.2645 18.2282C19.3207 18.0718 19.4025 17.8574 19.4891 17.6304C19.6874 17.1106 19.911 16.5245 19.911 16.4155C19.911 16.2587 19.751 16.2404 19.5976 16.3071C19.5082 16.3459 19.2089 16.9042 18.9197 17.4437C18.7128 17.8299 18.5109 18.2064 18.395 18.3758C18.1708 18.7033 17.4182 20.3463 16.9995 21.2604L16.9985 21.2628C16.8983 21.4815 16.8173 21.6583 16.7674 21.765C16.509 22.3174 16.0264 27.5285 16.3044 30.586C16.5825 33.6434 18.0395 37.3094 18.3018 37.7692C18.4715 38.04 18.5624 38.3524 18.5641 38.6716C18.5641 38.8009 17.5648 39.4083 17.3248 39.3717C17.0848 39.3351 16.9549 37.9337 16.9182 37.474C16.8815 37.0143 15.6789 32.4836 15.4756 32.8885C15.2723 33.2934 15.8821 36.2594 16.0487 36.8301C16.0837 36.9502 16.158 37.1338 16.2469 37.3533C16.5803 38.1773 17.118 39.5063 16.5484 39.8693C15.8271 40.329 15.6631 39.6577 15.6631 39.6577C14.7266 37.5536 14.3647 35.2406 14.6139 32.9525C14.6139 32.6782 14.7792 30.8093 14.8343 30.2595C14.8893 29.7096 14.9995 27.8681 14.8343 27.8681C14.7161 27.8681 14.6683 28.0231 14.573 28.3326C14.535 28.4558 14.4895 28.6037 14.429 28.7758C14.2165 29.3805 14.0618 32.293 14.1169 32.9799C14.172 33.6669 14.227 36.1693 14.1169 36.663C14.0379 37.0169 13.7324 37.7388 13.4942 38.3015C13.4003 38.5235 13.3167 38.721 13.2618 38.861C13.1062 39.2578 13.1116 39.9012 13.1151 40.3252C13.116 40.4302 13.1167 40.5218 13.1149 40.5928C13.0988 40.8778 13.0243 41.1564 12.896 41.4116C12.7677 41.6668 12.5882 41.893 12.3687 42.0765C11.8244 42.5166 10.9063 42.6263 10.9063 42.5166C10.9063 42.4651 11.1015 42.0793 11.3256 41.6364C11.5784 41.1368 11.8679 40.5644 11.9555 40.3173C12.0285 40.1114 12.2252 39.7604 12.4221 39.409C12.6713 38.9645 12.9208 38.5192 12.9208 38.366C12.9208 38.0918 13.0598 35.8937 13.1424 35.4536C13.2251 35.0134 13.2539 32.7879 13.1057 32.7605C12.9575 32.7331 12.3975 34.7666 12.2519 35.4536C12.1064 36.1405 11.8454 35.178 11.7614 34.794C11.6791 34.3024 11.7077 33.7987 11.8454 33.3195C11.909 33.1422 11.9593 32.7933 12.0117 32.4304C12.0781 31.97 12.1478 31.487 12.2519 31.303C12.3091 31.202 12.4227 31.0751 12.556 30.9263C12.8573 30.5899 13.2589 30.1416 13.3352 29.6273C13.4454 28.8855 13.4454 27.0988 13.4454 27.0988C13.4454 27.0988 12.3123 28.2534 12.4237 28.9782C12.5352 29.7031 12.391 30.2869 12.0657 30.7113C11.7405 31.1358 11.41 31.7431 11.41 32.2107C11.41 32.6782 11.1883 33.0087 10.9955 32.8154C10.8027 32.6221 10.61 31.4414 10.61 30.8367C10.61 30.232 12.3739 26.0005 12.6441 25.5669C12.6749 25.5174 12.7024 25.4712 12.7278 25.4286C12.9246 25.0981 12.9936 24.9822 13.507 25.1881C13.5827 25.2111 13.6527 25.2496 13.7125 25.3011C13.7724 25.3525 13.8207 25.4159 13.8546 25.4871C13.8884 25.5583 13.9069 25.6357 13.909 25.7145Z" fill="#07C37F"/>
<path d="M14.345 38.2641C14.2751 38.2525 14.2036 38.2548 14.1345 38.2708C14.0655 38.2868 14.0003 38.3162 13.9426 38.3573C13.885 38.3985 13.8361 38.4505 13.7987 38.5105C13.7613 38.5705 13.7362 38.6372 13.7247 38.7069C13.6535 39.0614 13.6572 39.5783 13.66 39.9649C13.6613 40.148 13.6624 40.302 13.6552 40.3956C13.6451 40.5278 13.5631 40.7582 13.486 40.9749C13.3932 41.2355 13.3076 41.4761 13.3627 41.5018C13.4637 41.5488 14.1496 41.3856 14.4854 40.9898C14.8211 40.5941 15.1162 40.0573 15.1044 39.5336C15.0926 39.0099 14.9182 38.2641 14.345 38.2641Z" fill="#07C37F"/>
<path d="M23.3503 15.2375C23.4815 15.3537 23.0303 15.9036 23.0303 15.9036C23.0303 15.9036 22.0126 18.0755 21.766 18.5104C21.5195 18.9453 20.0218 22.0289 20.3562 23.2958C20.6478 24.4003 20.5306 25.5445 20.4376 26.4533C20.4239 26.5868 20.4107 26.7152 20.3995 26.8377C20.3116 27.7937 21.5903 30.7036 21.8342 31.1098C22.0782 31.516 23.9484 34.8607 23.9484 34.8607L24.7038 35.7305C24.7038 35.7305 23.7202 36.8459 22.7365 35.7305C21.7529 34.6152 19.4932 29.3584 19.1299 26.7946C18.7667 24.2309 19.088 22.392 19.2034 21.8434C19.2574 21.5869 19.5751 20.8921 19.9222 20.1332C20.3174 19.2691 20.7506 18.322 20.8755 17.8444C21.1103 16.9471 22.0572 15.3394 22.3182 15.0351C22.5792 14.7308 23.2192 15.1213 23.3503 15.2375Z" fill="#07C37F"/>
<path d="M22.2028 22.499C22.229 22.0182 22.3172 21.5429 22.4651 21.0845C22.6868 20.4864 22.9241 19.4899 22.4651 19.2704C22.0061 19.051 21.2258 19.2104 21.2258 20.8847C21.2258 21.4077 21.1874 21.9561 21.1466 22.5389C21.0568 23.8217 20.9552 25.2714 21.2258 26.9839C21.6192 29.4745 23.5274 33.9255 26.0298 36.2254C27.5168 37.5922 27.9715 37.8649 28.356 38.0956C28.6185 38.2531 28.8484 38.3909 29.3518 38.844C30.5924 39.9607 36.8522 41.1374 38.5951 40.9167C40.3381 40.696 40.7971 39.881 40.8771 39.5819C40.9571 39.2828 40.7171 38.7839 40.4771 39.0034L40.4761 39.0043C40.2334 39.2262 38.9301 40.4178 34.7131 39.4814C30.4901 38.5436 29.3478 37.5093 29.1078 37.2898C28.9883 37.1805 28.3369 36.527 27.6787 35.8667L27.6781 35.8661L27.676 35.864L27.6754 35.8634C27.0134 35.1993 26.3455 34.5291 26.2055 34.3996C25.9261 34.141 23.1891 30.4331 23.1891 29.9146C23.1891 29.7884 23.3992 30.0909 23.7856 30.647C24.9863 32.375 27.8884 36.5518 31.4751 37.9272C36.2161 39.7452 37.9407 39.4226 38.8614 39.1235L39.001 39.0782C39.8724 38.796 40.6975 38.5288 40.6975 38.2263C40.6975 37.9076 40.6778 37.2689 40.3565 37.2689C40.2416 37.2689 39.9455 37.4014 39.573 37.568C38.9035 37.8676 37.9873 38.2775 37.4345 38.2263C37.0723 38.1927 36.6462 38.078 36.1892 37.9548C35.5604 37.7855 34.8728 37.6003 34.2121 37.5889C33.0711 37.5693 30.6488 36.1745 30.0691 35.6155C29.9833 35.5327 29.8399 35.4264 29.6479 35.284C28.5433 34.4647 25.8291 32.4517 23.2035 26.865C23.2035 26.865 22.0691 23.4798 22.2028 22.499Z" fill="#07C37F"/>
<path d="M29.0028 39.2084C29.2494 39.164 30.5058 40.013 30.5058 40.013C30.5058 40.013 30.9792 40.6712 35.5786 41.2028C39.3862 41.6428 40.2404 40.9067 40.5496 40.6403C40.6139 40.5849 40.6546 40.5497 40.6934 40.5497C40.919 40.5497 41.0056 41.3778 40.8902 41.6677C40.7748 41.9576 39.618 42.3612 38.9229 42.4278C38.4962 42.4687 38.1535 42.4505 37.3866 42.4099C36.9042 42.3843 36.2541 42.3498 35.3098 42.3155C33.6847 42.233 32.0947 41.8145 30.6409 41.0865C30.5324 41.0262 30.2554 41.0506 29.9736 41.0754C29.7305 41.0969 29.4837 41.1186 29.3386 41.0865C29.0251 41.0173 28.8454 40.551 28.8232 40.1031L28.8198 40.0389L28.8173 39.9919C28.7954 39.5904 28.7769 39.2491 29.0028 39.2084Z" fill="#07C37F"/>
<path d="M31.1122 41.8689C31.1122 41.8689 30.1941 41.1976 29.9004 41.4666C29.6066 41.7356 29.5646 42.5389 30.5063 42.7622C30.9359 42.8641 31.609 43.0405 32.2588 43.2107C33.0331 43.4136 33.7742 43.6078 34.0303 43.6568C34.5011 43.7469 35.8493 43.9703 36.8814 43.9703C37.5094 43.9703 38.1291 43.7962 38.6145 43.6599C38.9268 43.5722 39.1836 43.5001 39.351 43.5001C39.7785 43.5001 41.0336 43.5001 41.1018 43.2389C41.1539 43.0392 41.0497 42.6745 40.9866 42.4538C40.9672 42.3859 40.9516 42.3315 40.9457 42.2999C40.9208 42.1653 40.5628 42.2097 40.3149 42.3443C40.067 42.4788 38.5877 42.9477 37.9136 42.9973C37.2395 43.0469 35.3994 43.0913 33.7837 42.6982C32.876 42.4799 31.9836 42.2029 31.1122 41.8689Z" fill="#07C37F"/>
<path d="M32.9092 44.9759C38.2509 45.8026 40.1814 44.4835 40.1814 44.4835C40.1814 44.4835 40.7204 44.2824 40.4056 43.8579C40.159 43.5252 39.582 43.7694 39.0416 43.998C38.8924 44.0611 38.7461 44.123 38.6102 44.1713C37.982 44.3947 36.5223 44.4561 35.4154 44.4169C34.3085 44.3777 30.2836 43.0521 29.9688 42.9411C29.7603 42.8675 29.493 42.5675 29.2971 42.3475C29.1973 42.2355 29.116 42.1443 29.0704 42.1143C28.9354 42.0255 27.5675 44.1491 32.9092 44.9759Z" fill="#07C37F"/>
<path d="M29.7154 44.5514C29.7154 44.5514 29.2275 44.2158 29.2275 44.5514C29.2275 44.8871 29.4898 45.4225 30.0144 45.6681C30.4295 45.8868 30.8917 46.002 31.3613 46.0037C31.9325 46.0539 32.4886 46.2131 32.9993 46.4726C33.4479 46.6972 35.0426 47.3228 37.8256 46.8082C40.6086 46.2937 41.2814 45.6459 41.4165 45.4447C41.5515 45.2436 41.4833 44.8858 41.4165 44.5958C41.3496 44.3059 41.1542 44.1635 40.8919 44.4012C40.6296 44.6389 39.0125 46.0703 35.0623 45.8248C31.1121 45.5793 29.7154 44.5514 29.7154 44.5514Z" fill="#07C37F"/>
<path d="M31.2021 46.4505C32.0992 46.2271 32.4362 46.6973 32.4362 46.6973C32.4362 46.6973 32.5936 47.46 35.3595 47.7056C37.4896 47.8946 39.6243 46.932 40.6981 46.4477C41.0187 46.3032 41.2447 46.2012 41.3478 46.1853C41.7963 46.1161 41.997 46.4962 41.4921 47.0996C40.9871 47.7029 39.4173 48.1496 38.654 48.3285C38.139 48.4492 36.9596 48.5397 36.0031 48.613C35.5419 48.6483 35.1324 48.6797 34.8743 48.7086C34.0808 48.7974 33.8736 48.7086 33.694 48.5519C33.6574 48.52 33.4954 48.4233 33.2682 48.2877C32.3784 47.7567 30.4876 46.6283 31.2021 46.4505Z" fill="#07C37F"/>
<path d="M36.2765 49.137C36.2765 49.137 34.9335 49.1539 34.9847 49.4374C35.0358 49.7208 35.6719 50.2745 36.2765 50.157C36.3797 50.1369 36.5638 50.1042 36.8015 50.062L36.8041 50.0615L36.8077 50.0609L36.8125 50.06L36.8151 50.0596C37.9748 49.8536 40.3768 49.4271 40.9454 49.137C41.1244 49.0457 41.2952 48.9713 41.4502 48.9039L41.4508 48.9036C41.8916 48.7118 42.2031 48.5763 42.2031 48.2671C42.2031 47.8492 42.0812 47.3529 41.79 47.46C41.7456 47.4763 41.6401 47.5325 41.485 47.615C40.622 48.0743 38.2258 49.3495 36.2765 49.137Z" fill="#07C37F"/>
<path d="M37.5083 50.9758C37.5083 50.8086 38.9798 50.3411 38.9798 50.3411C39.3344 50.3146 40.673 49.6246 41.3478 49.2768L41.3486 49.2764C41.5369 49.1794 41.6735 49.1089 41.7221 49.0873C41.8222 49.0412 41.9312 49.0173 42.0415 49.0173C42.1518 49.0173 42.2607 49.0412 42.3608 49.0873C42.4776 49.1709 42.6284 49.8213 42.5785 50.1726C42.5407 50.4391 41.7884 50.6192 41.1851 50.7635C40.9931 50.8095 40.8161 50.8519 40.6821 50.8922C40.4434 50.9642 40.1149 51.1292 39.7792 51.2978C39.3346 51.5211 38.8774 51.7508 38.5995 51.779C38.1116 51.8287 37.5083 51.143 37.5083 50.9758Z" fill="#07C37F"/>
<path d="M40.3938 52.6149C40.233 52.6982 40.0544 52.7416 39.8731 52.7416C39.6919 52.7416 39.5133 52.6982 39.3525 52.6149C38.782 52.3302 38.9826 52.0181 39.4836 51.7817C39.8213 51.6224 40.3288 51.4179 40.7318 51.2556C40.9266 51.1771 41.0972 51.1084 41.2122 51.0594C41.565 50.9092 42.4581 50.5749 42.5827 50.7081C42.7073 50.8413 42.9079 51.194 42.8751 51.3102C42.8424 51.4264 40.3938 52.6149 40.3938 52.6149Z" fill="#07C37F"/>
<path d="M40.3067 53.3502C40.3067 53.4847 41.1959 53.9522 41.1959 53.9522C41.5486 54.0189 43.5093 53.5173 43.5093 53.0576C43.5093 52.5979 43.0398 52.163 43.0398 52.163C43.0398 52.163 41.2129 52.8983 40.9414 52.8983C40.6699 52.8983 40.3067 53.2156 40.3067 53.3502Z" fill="#07C37F"/>
<path d="M43.5134 54.9553C43.5134 54.9553 43.0269 55.0559 42.741 54.9553C42.5863 54.9009 42.4171 54.7636 42.2759 54.649C42.156 54.5517 42.0562 54.4708 42.0026 54.4708C41.8859 54.4708 42.2741 54.22 42.5836 54.2096C42.7956 54.2024 43.0982 54.1088 43.3271 54.038C43.4324 54.0054 43.5221 53.9777 43.5803 53.9653C43.7652 53.9261 44 54.1769 44 54.4877C44 54.7986 43.5134 54.9553 43.5134 54.9553Z" fill="#07C37F"/>
<path d="M25.8626 15.5874C25.8626 15.688 25.3459 16.1921 25.3459 16.1921C24.8292 16.7903 24.1511 18.4803 24.1065 18.9021C24.0619 19.324 24.239 20.4981 24.4174 21.2073C24.495 21.516 24.6527 22.4091 24.8262 23.3921L24.8263 23.3928C25.0514 24.6677 25.3032 26.0936 25.4416 26.5921C25.5844 27.1062 25.9986 27.9614 26.3328 28.6516C26.5725 29.1466 26.7711 29.5567 26.799 29.6952C26.8659 30.0269 29.5597 32.8193 29.9374 32.9747C30.0852 33.0355 30.5259 33.405 31.0703 33.8615C31.9174 34.5717 33.0158 35.4926 33.6529 35.7892C34.6994 36.2763 37.8824 36.8301 38.4726 36.8745C39.0628 36.9189 38.6378 37.299 38.6378 37.299C36.3178 37.7273 33.3197 37.568 30.4489 35.3242C24.5511 30.7139 23.4823 26.4144 22.9931 22.2482C22.5039 18.0819 24.0436 15.1055 24.4842 15.0101C24.9249 14.9148 25.8626 15.4868 25.8626 15.5874Z" fill="#07C37F"/>
<path d="M27.3992 16.6348C27.3992 16.6348 27.9552 16.4873 27.9775 16.307C27.9998 16.1268 27.9106 15.701 27.1906 15.5809C26.4706 15.4607 25.7768 15.9727 25.2877 17.2565C24.7985 18.5404 25.0254 21.2674 25.6444 22.9508C25.8904 23.6198 25.9823 24.2366 26.0778 24.8775C26.2226 25.8495 26.3757 26.8769 27.087 28.2259C27.2525 28.5398 27.3939 28.8097 27.516 29.0427C28.2646 30.4714 28.2869 30.5141 28.6884 30.8184C29.032 31.0789 30.2808 32.289 31.0579 33.0419L31.0587 33.0427C31.3368 33.3121 31.5547 33.5233 31.6484 33.6107C32.0038 33.9425 33.8963 35.1845 34.2714 35.1845C34.6465 35.1845 34.8065 34.5863 34.7842 34.2977C34.7619 34.0091 34.7173 33.855 34.2045 33.8328C33.6917 33.8105 32.9586 32.9682 32.9586 32.9682C32.9586 32.9682 30.2215 30.3979 29.9985 30.2647C29.7756 30.1314 27.5736 27.6278 27.5736 27.3391C27.5736 27.0505 27.6182 26.6077 27.7965 26.852C27.8161 26.8787 27.849 26.9249 27.8931 26.9869C28.2521 27.4911 29.3568 29.0423 30.11 29.7331C30.9559 30.5089 33.6261 32.7683 34.2714 33.0348C34.9166 33.3012 35.2065 33.3234 35.251 32.8127C35.2956 32.3021 35.6065 32.0591 35.874 32.2146C36.1416 32.37 38.1508 33.5206 38.7816 33.4553C39.1229 33.42 39.5532 33.1247 39.922 32.8717C40.2349 32.657 40.5036 32.4726 40.636 32.5032C40.9246 32.5698 40.1022 33.4997 39.8347 33.6551C39.5672 33.8105 40.0577 34.1423 40.1468 34.1867C40.313 34.2788 40.5042 34.3158 40.6929 34.2923C40.8816 34.2688 41.0578 34.1861 41.196 34.0561C41.6865 33.6355 41.7311 33.0818 41.419 32.306C41.2317 31.8406 41.1228 31.2102 41.0402 30.7318C40.9851 30.4128 40.9416 30.1612 40.8944 30.0714C40.8783 30.0406 40.8626 30.0072 40.8471 29.9739C40.7488 29.7634 40.6525 29.5573 40.4419 30.0714L40.4184 30.129C40.169 30.7421 39.7026 31.8882 38.1717 31.973C36.5914 32.0605 34.8563 31.8423 32.9415 30.5768C31.0267 29.3112 28.7133 27.586 26.889 22.4441C25.0647 17.3022 27.3992 16.6348 27.3992 16.6348Z" fill="#07C37F"/>
<path fill-rule="evenodd" clip-rule="evenodd" d="M39.9655 27.5082C40.0506 27.4891 40.1397 27.5 40.2177 27.539C40.3292 27.6278 40.4472 28.2651 40.4472 28.4871C40.4472 28.7092 40.3803 30.8419 38.2662 31.3017C36.5108 31.6834 35.0619 30.9089 34.1748 30.4348C33.9935 30.3379 33.8357 30.2535 33.7035 30.1941C32.9245 29.8441 31.1225 28.2717 30.232 27.4515C29.3415 26.6313 28.4969 24.7924 28.2294 23.9944C28.1707 23.8195 28.0911 23.5978 27.9999 23.3438C27.6749 22.4387 27.2024 21.123 27.0057 20.0501C26.8164 19.017 27.0586 18.5097 27.2473 18.1144C27.3096 17.984 27.366 17.8658 27.3992 17.745C27.533 17.2578 28.7133 16.5931 29.2025 16.4167C29.6917 16.2404 30.0694 16.9692 30.0471 17.1416C30.0248 17.314 29.9264 17.967 29.9264 17.967C29.8088 18.7657 30.5281 20.1487 31.1583 21.3604L31.2274 21.4933C31.8727 22.7354 34.1429 25.5708 35.9226 26.5464C37.3527 27.3303 38.6837 25.828 39.2664 25.1703C39.4089 25.0095 39.5066 24.8992 39.5501 24.8851C39.7718 24.8133 39.9292 25.8098 39.7285 26.4523C39.5278 27.0949 39.6616 27.7819 39.7508 27.6434C39.8045 27.575 39.8804 27.5272 39.9655 27.5082ZM30.5662 26.5074L30.5666 26.508C30.71 26.7239 30.8178 26.8862 30.8418 26.9186C30.9245 27.0322 32.3173 28.2481 32.3173 28.2481C32.3396 28.0039 31.7835 27.1837 31.1828 26.4967C30.6916 25.9779 30.1553 25.5033 29.5802 25.0784C29.6591 25.1413 30.2177 25.9824 30.5662 26.5074ZM34.6462 28.5533C35.0928 28.8941 35.7612 29.4042 37.1462 29.4523C38.838 29.5137 39.255 28.6439 39.175 28.5133C39.095 28.3827 38.7868 28.3801 38.4629 28.5133C38.4422 28.5218 38.4179 28.5325 38.3901 28.5447C37.9827 28.7243 36.8197 29.2369 35.1121 28.0705C33.2878 26.8246 31.2169 24.5925 30.9612 24.0819C30.9132 23.986 30.8106 23.8159 30.6762 23.593C30.0946 22.6284 28.916 20.6735 28.9703 19.4494C28.9703 19.4494 28.8169 18.6736 28.8392 18.4973C28.8615 18.3209 28.2831 18.6083 28.3723 18.974C28.4615 19.3397 29.3454 22.4415 29.6628 23.0619C29.9802 23.6822 30.7815 24.5612 31.7612 25.5734C32.1479 25.9729 32.566 26.4462 32.9585 26.8906C33.5605 27.572 34.1021 28.1852 34.3776 28.3592C34.4599 28.4111 34.5476 28.4781 34.6462 28.5533Z" fill="#07C37F"/>
<path fill-rule="evenodd" clip-rule="evenodd" d="M39.3271 23.4171C39.2267 23.4171 39.076 23.5242 38.9232 23.6328C38.6767 23.808 38.4247 23.9871 38.3697 23.7266C38.3264 23.5221 38.421 23.2034 38.5308 22.8333C38.6475 22.44 38.7814 21.9887 38.7854 21.5547C38.7933 20.7123 38.6149 19.1398 38.2149 18.3418C37.8149 17.5439 37.4359 16.8791 36.7461 17.297C36.1144 17.6797 36.3591 17.9967 36.6274 18.3442C36.6521 18.3762 36.677 18.4085 36.7015 18.4411C36.7279 18.4763 36.7582 18.5157 36.7915 18.559L36.7919 18.5595C37.124 18.9908 37.7507 19.8047 37.7507 20.711C37.7507 21.7088 37.5959 23.0619 37.2169 23.1481C36.8379 23.2343 35.9054 22.926 35.0359 22.2835C34.1664 21.6409 32.8063 20.4002 32.544 20.024C32.2817 19.6479 31.7204 18.7376 31.8765 18.5874C32.0326 18.4372 32.2765 18.3654 32.4994 18.7859C32.7224 19.2064 33.9014 20.4485 34.2123 20.7371C34.2494 20.7716 34.2955 20.8147 34.3485 20.8642L34.3498 20.8654C34.7404 21.2302 35.5023 21.9418 35.8149 22.1555C35.8543 22.1824 35.8949 22.2116 35.9363 22.2414C36.2682 22.48 36.6557 22.7586 36.9716 22.2652C37.327 21.7101 37.3507 20.4485 37.0831 19.9613C36.8156 19.4742 36.3579 18.6553 36.2201 18.445C36.0824 18.2348 35.8149 17.8782 35.3021 18.0989C34.7893 18.3196 34.8352 18.7193 34.99 18.8747C35.027 18.9119 35.1036 18.9718 35.1997 19.047C35.5054 19.2862 36.0079 19.6795 36.0588 19.9835C36.0695 20.0472 36.083 20.1182 36.0968 20.1911C36.1698 20.5759 36.2532 21.016 35.9919 20.7371C35.8594 20.5957 35.6415 20.32 35.4196 20.0394C35.1212 19.662 34.8158 19.2756 34.7014 19.1947C34.5021 19.0536 33.0319 18.1655 33.0319 18.1655C33.0319 18.1655 31.2745 17.4342 31.163 17.2578C31.0516 17.0815 30.6883 17.0358 30.948 18.0767C30.9854 18.2268 31.0216 18.3805 31.0583 18.5365C31.2762 19.4628 31.5128 20.4685 32.1414 21.2465C32.744 21.9923 32.8522 22.3495 32.9578 22.6983C32.9809 22.7745 33.0039 22.8506 33.0319 22.93C33.188 23.3727 34.6791 25.6126 36.6149 26.0775C38.3084 26.4843 39.0313 24.8388 39.2603 24.3174C39.2931 24.2429 39.3157 24.1913 39.3297 24.172C39.4412 24.0179 39.5946 23.4171 39.3271 23.4171ZM37.4805 24.7636C37.4369 25.0638 37.061 24.9565 36.7084 24.8559C36.5194 24.802 36.337 24.75 36.2162 24.7636C35.87 24.8028 35.188 24.1929 34.7657 23.7005C34.3434 23.2081 34.009 22.7079 34.1427 22.6413C34.2094 22.6081 34.3754 22.7566 34.5913 22.9496C34.8085 23.1439 35.0763 23.3833 35.3441 23.5281C35.4 23.5584 35.4582 23.5903 35.5181 23.6232C36.0292 23.904 36.6636 24.2525 37.1015 24.1929C37.5907 24.1263 37.4805 24.7636 37.4805 24.7636Z" fill="#07C37F"/>
<path d="M41.2236 34.8659C41.2236 34.6753 41.617 34.2325 41.617 34.2325C41.9469 34.1581 41.9665 34.524 41.9804 34.7835C41.9824 34.8202 41.9843 34.8547 41.9869 34.8855L41.9886 34.9057C42.0089 35.1448 42.0238 35.3204 41.7954 35.4602C41.5606 35.6038 41.415 35.519 41.4229 35.3296C41.4269 35.2338 41.3758 35.165 41.3244 35.0958C41.2741 35.0282 41.2236 34.9601 41.2236 34.8659Z" fill="#07C37F"/>
<path d="M41.9951 35.8362C41.9951 35.8362 41.5911 36.0896 41.6173 36.3848C41.6296 36.5225 41.6201 36.6513 41.6114 36.771C41.6013 36.9079 41.5922 37.0327 41.6173 37.1449C41.6646 37.3552 42.0029 37.3774 42.1092 37.1449C42.1332 37.0924 42.1604 37.0441 42.1867 36.9976C42.2767 36.8382 42.3558 36.6981 42.2574 36.4697C42.2091 36.3577 42.1963 36.2069 42.1852 36.0751C42.1669 35.8596 42.153 35.6952 41.9951 35.8362Z" fill="#07C37F"/>
<path d="M41.7905 38.8976C41.7472 39.13 42.3033 38.7291 42.3033 38.7291L42.3082 38.7261C42.5979 38.5463 42.7857 38.4297 42.5118 37.905C42.3184 37.5344 42.2602 37.591 42.1768 37.6719C42.1414 37.7062 42.1015 37.745 42.0449 37.7574C41.9025 37.7887 41.855 38.2824 41.8219 38.6259C41.8108 38.7409 41.8013 38.8392 41.7905 38.8976Z" fill="#07C37F"/>
<path d="M42.7453 39.4253C42.7453 39.4253 42.8961 38.8611 42.4712 39.2072C42.303 39.3442 42.1818 39.4102 42.0984 39.4556C41.9711 39.525 41.9316 39.5465 41.9466 39.6996C41.9715 39.9529 42.0673 40.3526 42.2981 40.2912C42.3296 40.2828 42.3643 40.277 42.4003 40.271C42.6286 40.2327 42.9096 40.1856 42.7453 39.4253Z" fill="#07C37F"/>
<path d="M42.3712 41.3256C42.3148 40.9246 42.9994 40.6073 42.9994 40.6073C43.1494 40.5215 43.1587 40.7243 43.1699 40.9675C43.1759 41.0985 43.1825 41.2412 43.2119 41.3569C43.2958 41.6873 43.0637 42.1014 42.9142 42.1092C42.7646 42.117 42.4276 41.7265 42.3712 41.3256Z" fill="#07C37F"/>
</g>
<defs>
<filter id="filter0_b_118_3185" x="-19" y="-19" width="82" height="93" filterUnits="userSpaceOnUse" color-interpolation-filters="sRGB">
<feFlood flood-opacity="0" result="BackgroundImageFix"/>
<feGaussianBlur in="BackgroundImage" stdDeviation="9.5"/>
<feComposite in2="SourceAlpha" operator="in" result="effect1_backgroundBlur_118_3185"/>
<feBlend mode="normal" in="SourceGraphic" in2="effect1_backgroundBlur_118_3185" result="shape"/>
</filter>
</defs>
</svg>
