<svg width="1114" height="520" viewBox="0 0 1114 520" fill="none" xmlns="http://www.w3.org/2000/svg">
<path d="M-8 272.818C59.0602 272.768 128.487 274.637 195.147 271.02C277.465 266.557 357.233 254.233 439.259 248.67C505.984 244.147 563.903 248.984 626.349 261.088C677.871 271.075 728.474 281.898 784.545 282.239C843.803 282.602 897.226 268.371 952.033 258.79C1015.32 247.725 1069.36 250.078 1130.52 263.561C1188.76 276.402 1243.07 292.886 1308.82 291.963C1390.11 290.82 1466.38 273.345 1548 272.818" stroke="url(#paint0_linear_615_3134)" stroke-miterlimit="10"/>
<path d="M-8 264.875C57.3407 264.809 125.685 266.8 190.54 262.583C276.379 257.002 359.03 242.739 444.469 235.931C512.543 230.504 567.176 236.718 628.302 252.014C676.646 264.111 725.206 278.083 780.497 278.82C842.651 279.639 900.363 261.147 956.432 249.782C985.802 243.86 1016.76 238.312 1048.78 239.588C1080.11 240.842 1109.78 247.555 1137.19 254.984C1192.42 269.923 1246.24 290.487 1311.97 288.915C1392.9 286.974 1466.62 266.239 1548 264.892" stroke="url(#paint1_linear_615_3134)" stroke-miterlimit="10"/>
<path d="M-8 257.934C55.7541 257.851 122.988 259.907 186.072 255.163C275.187 248.48 360.423 232.248 449.031 224.202C518.663 217.873 570.142 225.404 629.617 243.996C674.709 258.094 721.239 275.323 776.035 276.493C840.87 277.872 903.543 254.853 960.684 241.824C990.616 234.997 1023.63 227.798 1057.06 229.383C1088.4 230.868 1117.76 238.981 1143.96 247.393C1196.21 264.174 1249.47 289.083 1315.36 286.861C1395.95 284.134 1466.84 260.062 1548 257.934" stroke="url(#paint2_linear_615_3134)" stroke-miterlimit="10"/>
<path d="M-8 250.856C54.2292 250.757 120.467 252.799 181.94 247.74C273.96 240.16 361.485 222.336 452.835 213.275C487.618 209.829 520.586 207.836 554.656 213.88C582.416 218.807 606.836 227.455 630.392 236.197C672.534 251.825 717.02 271.868 771.686 273.436C838.896 275.369 906.604 248.357 964.673 234.094C995.123 226.613 1030.17 217.948 1064.87 219.781C1096.35 221.433 1125.32 230.719 1150.4 239.89C1199.87 257.968 1252.49 286.582 1318.74 283.813C1399.03 280.45 1466.98 253.575 1548 250.828" stroke="url(#paint3_linear_615_3134)" stroke-miterlimit="10"/>
<path d="M-8 244.342C52.9217 244.238 118.263 246.263 178.32 240.989C272.674 232.703 361.863 213.409 455.515 203.526C490.417 199.844 523.288 197.561 557.185 204.399C584.685 209.979 608.122 219.555 630.533 229.125C670.2 246.043 712.828 268.531 767.763 270.424C802.87 271.637 838.172 262.335 868.493 254.461C902.13 245.725 934.471 235.77 968.098 227.023C999.002 218.99 1035.74 209.134 1071.62 211.192C1103.32 213.008 1131.83 223.21 1156.02 233.032C1203.22 252.238 1254.85 283.989 1321.73 280.773C1401.89 276.932 1466.99 247.475 1548 244.32" stroke="url(#paint4_linear_615_3134)" stroke-miterlimit="10"/>
<path d="M-8 237.337C51.8304 237.232 116.48 239.277 175.381 233.866C271.399 225.05 361.626 204.289 456.844 193.715C491.584 189.846 524.703 187.375 558.254 194.754C585.722 200.796 608.457 211.27 630.057 221.573C668.071 239.697 709.089 264.227 764.694 266.344C800.763 267.704 837.092 257.556 867.887 249.165C902.649 239.686 935.963 228.897 970.724 219.406C1002.06 210.844 1039.88 200.138 1076.72 202.321C1108.75 204.223 1136.78 215.139 1160.31 225.602C1206.05 245.937 1256.1 280.212 1324.05 276.758C1404.21 272.684 1466.83 240.631 1548 237.359" stroke="url(#paint5_linear_615_3134)" stroke-miterlimit="10"/>
<path d="M-8 230.274C50.9859 230.187 115.234 232.249 173.269 226.937C270.095 218.074 360.567 196.447 456.518 185.697C490.781 181.867 524.515 179.373 557.59 186.725C585.284 192.88 607.705 203.806 628.905 214.436C666.313 233.223 706.119 258.477 762.89 260.512C799.758 261.836 836.182 251.687 867.409 243.005C902.905 233.157 936.833 221.931 972.318 212.072C1004.05 203.253 1042.03 192.486 1079.62 194.631C1112.04 196.48 1139.59 207.482 1162.83 218.282C1208.21 239.372 1255.87 274.156 1325.41 270.77C1405.77 266.858 1466.5 233.179 1548 230.285" stroke="url(#paint6_linear_615_3134)" stroke-miterlimit="10"/>
<path d="M-8 223.703C50.7714 223.515 114.816 225.853 172.604 220.396C268.774 211.295 358.092 188.855 453.289 177.77C487.456 173.795 521.17 171.414 554.224 178.734C582.318 184.969 605.183 196.109 626.697 206.951C664.797 226.156 705.026 251.925 762.544 254.329C799.672 255.878 835.881 245.779 867.25 236.894C902.8 226.817 936.665 215.286 972.204 205.204C1004.09 196.153 1041.88 185.454 1079.75 187.769C1112.38 189.764 1139.78 200.871 1163.05 211.874C1208.62 233.421 1255.37 268.005 1325.47 264.791C1406.06 261.109 1466.16 226.25 1548 223.703" stroke="url(#paint7_linear_615_3134)" stroke-miterlimit="10"/>
<path d="M-8 217.75C51.0212 217.41 114.873 220.348 172.867 214.532C267.331 205.059 354.642 182.335 448.101 170.901C482.68 166.667 515.508 164.465 549.038 171.808C577.641 178.063 601.316 189.046 623.62 199.754C662.985 218.678 704.911 244.61 762.431 247.877C799.332 249.975 835.672 239.887 866.771 231.04C901.89 221.051 935.247 209.551 970.355 199.551C1002.18 190.484 1039.97 179.908 1077.79 182.648C1110.32 185.004 1138.12 196.229 1161.71 207.069C1207.52 228.102 1255.63 261.908 1324.88 258.8C1405.67 255.17 1465.96 220.243 1548 217.75" stroke="url(#paint8_linear_615_3134)" stroke-miterlimit="10"/>
<path d="M-8 211.423C51.3557 211.015 115.034 214.78 173.385 208.61C265.925 198.823 350.955 175.748 442.447 164.023C477.317 159.542 509.377 157.544 543.285 164.81C572.331 171.036 596.957 181.759 620.092 192.41C660.776 211.125 704.636 237.024 762.101 241.092C798.668 243.685 834.726 233.782 865.544 224.953C900.068 215.045 932.723 203.59 967.226 193.687C998.951 184.582 1036.38 174.283 1074.03 177.421C1106.6 180.14 1134.89 191.441 1159.02 202.191C1205.43 222.833 1255.11 255.872 1323.84 252.8C1404.98 249.178 1465.61 213.944 1548 211.456" stroke="url(#paint9_linear_615_3134)" stroke-miterlimit="10"/>
<path d="M-8 205.273C51.7643 204.883 115.408 209.631 174.167 203.165C264.586 193.224 347.139 169.978 436.477 158.084C471.487 153.423 502.941 151.672 537.129 158.709C566.692 164.791 592.236 175.176 616.267 185.605C658.646 203.933 704.039 229.386 761.664 234.189C797.797 237.197 833.217 227.75 863.731 219.006C897.498 209.324 929.319 198 963.064 188.306C994.67 179.222 1031.38 169.462 1068.79 172.937C1101.51 175.983 1130.38 187.208 1155.24 197.78C1202.58 217.908 1254.03 249.843 1322.38 246.797C1404.02 243.158 1465.11 207.787 1548 205.289" stroke="url(#paint10_linear_615_3134)" stroke-miterlimit="10"/>
<path d="M-8 198.847C52.2518 198.539 115.875 204.441 175.165 197.681C263.317 187.632 343.245 164.128 430.284 152.143C465.273 147.314 496.295 145.812 530.657 152.556C560.75 158.463 587.192 168.507 612.207 178.638C656.509 196.586 703.287 221.481 761.129 226.987C830.933 233.637 901.471 199.028 958.038 182.714C989.526 173.628 1025.24 164.524 1062.33 168.336C1095.31 171.73 1124.79 182.868 1150.5 193.303C1199.03 212.999 1252.41 243.857 1320.6 240.787C1402.84 237.091 1464.52 201.388 1548 198.847" stroke="url(#paint11_linear_615_3134)" stroke-miterlimit="10"/>
<path d="M-8 192.642C52.7813 192.472 116.415 199.608 176.321 192.642C262.106 182.63 339.28 159.118 423.898 147.145C458.768 142.216 489.488 140.989 523.947 147.315C554.591 152.951 581.951 162.508 607.949 172.279C654.175 189.64 702.346 213.602 760.48 219.763C829.225 227.037 896.728 193.573 952.246 177.591C982.945 168.768 1018.73 159.873 1054.81 164.419C1088.31 168.636 1117.82 178.862 1144.99 189.268C1194.92 208.382 1250.35 237.864 1318.53 234.775C1401.48 231.024 1463.81 195.205 1548 192.603" stroke="url(#paint12_linear_615_3134)" stroke-miterlimit="10"/>
<path d="M-8 186.946C53.3535 186.946 117.052 195.494 177.627 188.234C260.97 178.244 335.312 154.515 417.433 142.549C560.066 121.749 634.472 198.538 759.762 213.234C827.296 221.165 891.383 188.746 945.897 173.009C976.455 164.203 1010.86 156.183 1046.49 161.01C1080.4 165.606 1110.6 175.657 1138.86 185.917C1190.35 204.631 1247.93 232.911 1316.25 229.757C1399.96 225.904 1463.04 189.626 1548 186.946" stroke="url(#paint13_linear_615_3134)" stroke-miterlimit="10"/>
<path d="M-8 181.475C53.9474 181.706 117.753 191.653 179.052 184.181C259.909 174.328 331.409 150.555 410.969 138.698C550.65 117.891 635.721 190.965 758.989 206.706C825.356 215.189 885.596 184.22 939.115 168.793C969.543 160.023 1002.45 153.064 1037.56 158.109C1071.94 163.06 1102.9 172.853 1132.29 182.894C1185.44 201.05 1245.21 227.959 1313.83 224.735C1398.36 220.768 1462.22 184.242 1548 181.475" stroke="url(#paint14_linear_615_3134)" stroke-miterlimit="10"/>
<path d="M-8 175.897C54.5659 176.365 118.504 187.787 180.573 180.114C258.959 170.423 327.533 146.577 404.632 134.857C541.359 114.07 636.958 183.284 758.232 200.107C823.413 209.148 879.561 179.645 932.142 164.492C962.463 155.755 993.735 149.901 1028.31 155.121C1063.16 160.407 1094.93 170.004 1125.49 179.816C1180.34 197.456 1242.32 223.011 1311.29 219.709C1396.65 215.614 1461.36 178.741 1548 175.875" stroke="url(#paint15_linear_615_3134)" stroke-miterlimit="10"/>
<path d="M-8 170.221C55.1693 170.934 119.289 183.854 182.178 175.998C258.141 166.501 323.882 142.575 398.494 131.021C532.31 110.296 638.129 175.539 757.412 193.423C821.413 203.02 873.344 175.009 925.027 160.105C955.218 151.398 984.966 146.683 1018.97 152.106C1054.3 157.744 1086.91 167.126 1118.61 176.722C1175.18 193.86 1239.34 218.073 1308.73 214.678C1394.99 210.455 1460.5 173.218 1548 170.221" stroke="url(#paint16_linear_615_3134)" stroke-miterlimit="10"/>
<path d="M-8 165.043C55.751 165.987 120.086 180.227 183.696 172.3C257.323 163.123 320.285 139.388 392.518 128.149C523.683 107.743 639.311 168.269 756.656 187.007C819.488 197.045 867.193 170.814 918.032 156.289C948.092 147.704 976.38 144.171 1009.74 149.706C1045.56 155.641 1078.98 164.736 1111.81 173.995C1170.04 190.419 1236.34 213.09 1306.21 209.65C1393.33 205.344 1459.65 168.093 1548 165.054" stroke="url(#paint17_linear_615_3134)" stroke-miterlimit="10"/>
<path d="M-8 159.364C56.3912 160.537 120.88 176.205 185.271 168.137C256.686 159.187 316.992 135.374 386.981 124.332C515.634 104.032 640.515 160.581 755.899 180.39C817.686 190.998 861.125 166.121 911.263 151.83C941.227 143.293 968.036 140.815 1000.83 146.532C1037.12 152.832 1071.35 161.781 1105.26 170.808C1165.09 186.729 1233.44 208.153 1303.79 204.612C1391.74 200.178 1458.83 162.508 1548 159.364" stroke="url(#paint18_linear_615_3134)" stroke-miterlimit="10"/>
<path d="M-8 154.58C56.9954 155.925 121.667 172.631 186.781 164.601C256.153 156.05 313.962 132.59 381.854 121.967C447.714 111.658 517.777 123.296 579.293 135.731C638.615 147.727 695.009 163.461 755.218 174.34C816.226 185.365 855.137 162.013 904.897 148.297C970.972 130.094 1038.65 153.18 1099.13 168.149C1160.4 183.297 1230.67 203.144 1301.49 199.58C1390.22 195.12 1458.04 157.748 1548 154.574" stroke="url(#paint19_linear_615_3134)" stroke-miterlimit="10"/>
<path d="M-8 149.438C57.6023 150.964 122.286 169.098 188.234 160.885C255.76 152.468 311.27 128.666 377.337 118.118C442.593 107.685 514.506 119.016 576.316 130.578C636.839 141.903 694.445 156.858 754.645 168.624C814.844 180.39 850.007 157.844 899.13 144.117C963.706 126.077 1034.2 151.278 1093.64 165.407C1156.2 180.28 1228.25 199.206 1299.47 195.538C1388.88 190.927 1457.38 152.732 1548 149.438" stroke="url(#paint20_linear_615_3134)" stroke-miterlimit="10"/>
<path d="M-8 144.58C58.2178 146.215 122.847 165.151 189.562 156.98C255.477 148.911 308.944 125.382 373.26 115.151C438.019 104.882 511.574 115.631 573.664 126.118C635.257 136.528 694.019 150.431 754.121 162.781C782.475 168.605 803.255 168.845 830.669 161.332C852.951 155.225 871.796 146.356 894.045 140.206C923.728 131.99 947.372 132.219 978.46 138.326C1015.82 145.675 1052.21 154.125 1088.86 162.335C1152.48 176.543 1226.1 194.172 1297.63 190.511C1387.66 185.902 1456.73 147.876 1548 144.58" stroke="url(#paint21_linear_615_3134)" stroke-miterlimit="10"/>
<path d="M-8 139.721C58.8342 141.373 123.27 161.428 190.763 153.141C255.371 145.206 307.012 121.335 370.032 111.257C434.457 100.954 509.363 111.368 571.702 121.169C634.041 130.971 693.894 144.297 753.802 157.513C781.487 163.62 801.726 164.485 828.903 156.93C850.45 150.938 868.431 142.095 889.923 136.059C919.445 127.766 942.721 128.647 973.269 135.024C1010.81 142.86 1047.76 151.384 1085.11 159.452C1149.52 173.361 1224.58 190.19 1296.22 186.478C1386.76 181.792 1456.29 143.124 1548 139.771" stroke="url(#paint22_linear_615_3134)" stroke-miterlimit="10"/>
<path d="M-8 135.707C59.4572 137.31 123.522 157.991 191.768 149.708C255.411 141.975 305.439 118.001 367.58 108.254C431.914 98.1494 507.627 108.056 570.351 117.129C633.584 126.267 693.953 138.995 753.609 152.892C780.73 159.203 800.741 160.532 827.711 153.001C848.673 147.156 865.929 138.397 886.827 132.496C916.206 124.203 939.459 125.548 969.541 132.145C1007.13 140.378 1044.52 148.896 1082.43 156.767C1147.27 170.23 1223.57 186.136 1295.16 182.464C1386.04 177.799 1455.91 139.039 1548 135.707" stroke="url(#paint23_linear_615_3134)" stroke-miterlimit="10"/>
<path d="M-8 130.982C60.075 132.424 123.59 153.428 192.594 145.193C255.58 137.677 304.529 113.799 365.926 104.247C430.057 94.2765 506.766 103.888 569.654 112.324C633.537 120.897 694.177 133.175 753.554 147.702C780.233 154.233 800.353 155.812 827.183 148.295C847.714 142.542 864.43 133.85 884.928 128.043C914.2 119.748 937.778 121.316 967.504 128.157C1005.02 136.789 1042.69 145.296 1081.03 152.971C1146.05 165.984 1223.25 181.049 1294.54 177.463C1385.65 172.885 1455.69 134.242 1548 130.982" stroke="url(#paint24_linear_615_3134)" stroke-miterlimit="10"/>
<path d="M-8 126.287C60.4208 127.602 123.493 149.145 192.918 140.712C255.688 133.091 304.345 108.886 365.548 99.2495C429.614 89.1655 506.669 99.1169 569.579 107.495C633.688 116.032 694.134 128.397 753.586 143.203C780.168 149.83 800.569 151.21 827.215 143.633C847.605 137.835 864.214 129.093 884.604 123.278C913.779 114.961 937.789 116.507 967.234 123.648C1004.59 132.705 1042.3 141.402 1080.8 149.112C1145.51 162.073 1223.71 177.188 1294.46 173.411C1385.43 168.562 1455.93 130.015 1548 126.304" stroke="url(#paint25_linear_615_3134)" stroke-miterlimit="10"/>
<path d="M-8 121.765C60.6147 123.004 123.542 144.545 193.173 136.07C255.884 128.435 304.821 104.596 366.105 95.0849C430.211 85.1348 507.14 95.4524 569.992 103.828C633.936 112.352 694.16 124.612 754.06 138.621C810.759 151.878 838.861 131.49 885.559 118.775C914.752 110.827 938.928 112.275 968.121 119.395C1005.34 128.473 1043.01 137.09 1081.52 144.66C1145.9 157.309 1225.16 172.393 1295.44 168.323C1386.08 163.068 1457.48 126.339 1549 121.847" stroke="url(#paint26_linear_615_3134)" stroke-miterlimit="10"/>
<path d="M-8 118.187C60.8216 119.378 123.599 141 193.448 132.484C256.16 124.833 305.292 101.331 366.61 91.9412C430.717 82.1033 507.421 92.7775 570.177 101.151C633.873 109.649 693.872 121.81 754.119 135.064C810.344 147.438 839.451 127.483 886.183 115.388C915.377 107.813 939.77 109.212 968.704 116.317C1005.75 125.412 1043.31 133.933 1081.81 141.344C1145.93 153.691 1225.99 168.562 1295.68 164.234C1385.87 158.637 1458.15 123.63 1549 118.443" stroke="url(#paint27_linear_615_3134)" stroke-miterlimit="10"/>
<path d="M-7 113.578C62.0136 114.738 124.652 136.555 194.714 127.993C257.309 120.345 306.7 97.0897 368.021 87.7898C432.085 78.1068 508.49 89.0589 571.085 97.4453C634.437 105.925 694.266 118.004 754.689 130.537C810.477 142.096 840.559 122.566 887.379 111.023C916.629 103.819 941.189 105.219 969.888 112.325C1006.7 121.445 1044.16 129.875 1082.58 137.118C1146.49 149.181 1226.98 163.7 1296.16 159.143C1385.84 153.24 1458.91 119.847 1549 114.016" stroke="url(#paint28_linear_615_3134)" stroke-miterlimit="10"/>
<path d="M-7 109.895C62.3068 111.049 124.828 133.121 195.248 124.52C257.79 116.887 307.485 93.8037 368.86 84.6541C432.905 75.1035 508.922 86.3456 571.497 94.7374C634.504 103.195 694.151 115.195 754.824 127.019C810.192 137.811 841.333 118.721 888.37 107.759C917.718 100.916 942.473 102.371 970.989 109.483C1007.52 118.685 1045 126.873 1083.27 134.011C1147.13 145.785 1227.85 159.823 1296.63 155.039C1385.73 148.872 1459.69 117.04 1549 110.631" stroke="url(#paint29_linear_615_3134)" stroke-miterlimit="10"/>
<path d="M-7 105.809C62.6187 106.955 125.117 129.086 195.881 120.548C258.368 113.02 308.397 90.3815 369.847 81.4723C433.868 72.1919 509.56 83.5413 572.014 91.8445C634.685 100.164 694.169 111.928 754.981 122.917C809.937 132.853 842.202 114.44 889.518 104.204C919.006 97.8222 943.945 99.3507 972.298 106.387C1008.6 115.473 1045.95 123.459 1084.13 130.304C1148.02 141.642 1228.73 154.837 1297.14 149.956C1385.67 143.64 1460.47 113.73 1549 106.862" stroke="url(#paint30_linear_615_3134)" stroke-miterlimit="10"/>
<path d="M-7 101.654C62.9773 102.802 125.466 125.041 196.632 116.6C259.078 109.192 309.465 86.9646 370.938 78.3008C434.929 69.2834 510.222 80.7264 572.625 88.9279C634.833 97.0859 694.296 108.621 755.175 118.792C809.744 127.912 843.198 110.193 890.84 100.686C920.49 94.7691 945.624 96.4061 973.859 103.406C1009.92 112.371 1047.1 120.148 1085.16 126.689C1149.16 137.566 1229.62 149.836 1297.74 144.859C1385.65 138.442 1461.27 110.4 1549 103.139" stroke="url(#paint31_linear_615_3134)" stroke-miterlimit="10"/>
<path d="M-7 97.8433C63.3658 99.0344 125.908 121.798 197.484 113.284C259.886 105.905 310.64 83.7263 372.178 75.179C436.125 66.3007 511.008 77.9858 573.269 86.2078C635.045 94.3692 694.443 105.801 755.343 115.319C809.533 123.783 844.24 106.495 892.238 97.5951C922.072 92.0807 947.401 93.8674 975.549 100.904C1011.37 109.886 1048.39 117.561 1086.34 123.871C1150.55 134.476 1230.55 145.863 1298.42 140.729C1385.7 134.112 1462.09 107.527 1549 99.7844" stroke="url(#paint32_linear_615_3134)" stroke-miterlimit="10"/>
<path d="M-7 94.2651C63.7882 95.4751 126.321 118.192 198.427 109.891C260.787 102.708 311.941 81.1569 373.545 72.9705C437.439 64.4843 511.858 76.0717 574.034 84.0947C635.378 92.0141 694.723 103.029 755.569 111.641C809.393 119.271 845.43 102.882 893.807 94.8428C923.847 89.8557 949.37 91.8124 977.454 98.6581C1013.02 107.402 1049.87 114.756 1087.67 120.656C1152.13 130.657 1231.49 140.751 1299.16 135.617C1385.79 129.077 1462.91 104.604 1549 96.636" stroke="url(#paint33_linear_615_3134)" stroke-miterlimit="10"/>
<path d="M-7 89.9831C64.2302 91.2417 126.827 114.268 199.386 106.049C261.777 99.0066 313.331 77.742 375.009 69.8075C438.837 61.5994 512.736 73.2276 574.912 81.1621C635.801 88.9434 695.102 99.6851 755.883 107.527C809.338 114.427 846.779 98.7385 895.556 91.4661C925.811 86.9571 951.518 89.1131 979.58 95.9532C1014.89 104.577 1051.55 111.703 1089.19 117.256C1153.89 126.783 1232.45 135.67 1299.98 130.455C1385.92 123.85 1463.73 101.195 1549 92.9216" stroke="url(#paint34_linear_615_3134)" stroke-miterlimit="10"/>
<path d="M-7 86.6956C64.6733 88.0019 127.345 111.416 200.542 103.275C262.836 96.3413 314.822 75.3413 376.565 67.6524C440.318 59.7099 513.709 71.3949 575.744 79.2272C636.19 86.8775 695.448 97.3389 756.099 104.433C809.219 110.65 848.141 95.6137 897.295 89.1318C927.767 85.1027 953.679 87.4783 981.752 94.3184C1016.8 102.832 1053.26 109.729 1090.71 114.927C1155.84 123.966 1233.42 131.517 1300.84 126.276C1386.12 119.662 1464.54 98.7609 1549 90.1901" stroke="url(#paint35_linear_615_3134)" stroke-miterlimit="10"/>
<path d="M-7 82.9553C65.1919 84.3272 127.983 107.769 201.698 99.8494C263.982 93.165 316.421 72.7566 378.207 65.4492C441.906 57.9232 514.746 69.4445 576.694 77.0799C636.687 84.4748 695.901 94.4549 756.391 100.691C809.198 106.157 849.654 92.05 899.175 86.4806C929.874 83.01 955.98 85.6171 984.096 92.3069C1018.87 100.559 1055.14 107.102 1092.39 111.846C1157.91 120.219 1234.42 126.27 1301.75 121.067C1386.35 114.535 1465.34 95.7884 1549 87.0928" stroke="url(#paint36_linear_615_3134)" stroke-miterlimit="10"/>
<path d="M-7 79.5383C65.7106 80.9964 128.61 104.911 202.941 97.0849C265.17 90.5291 318.031 70.3425 379.925 63.2952C443.538 56.049 515.816 67.6086 577.667 75.1531C637.227 82.4158 696.366 92.0755 756.661 97.5709C809.198 102.359 851.22 88.9661 901.12 84.1776C932.035 81.2118 958.325 84.1058 986.538 90.8052C1021.04 98.937 1057.1 105.23 1094.13 109.583C1160.04 117.404 1235.38 121.999 1302.68 116.763C1386.62 110.241 1466.11 93.2961 1549 84.3323" stroke="url(#paint37_linear_615_3134)" stroke-miterlimit="10"/>
<path d="M-7 76.7423C66.2184 78.2672 129.28 102.243 204.184 94.6567C266.424 88.3543 319.728 68.7505 381.697 62.097C445.223 55.279 516.929 66.6442 578.737 73.9614C637.876 80.9659 696.928 90.0986 757.028 94.761C809.338 98.8145 852.96 86.3797 903.217 82.5017C934.358 80.0937 960.832 83.2422 989.153 89.7969C1023.39 97.664 1059.23 103.591 1096.03 107.47C1162.39 114.562 1236.44 117.568 1303.71 112.407C1386.92 106.011 1466.88 91.2121 1549 82.1616" stroke="url(#paint38_linear_615_3134)" stroke-miterlimit="10"/>
<path d="M-7 73.1772C66.7515 74.8012 129.978 99.227 205.502 91.7945C267.745 85.6479 321.494 66.2879 383.543 59.9306C446.985 53.4459 518.111 64.7858 579.846 71.9911C638.588 78.8472 697.535 87.5822 757.379 91.4952C809.507 94.9039 854.72 83.2313 905.303 80.1996C936.641 78.3207 963.321 81.7903 991.752 88.3304C1025.73 96.0537 1061.35 101.7 1097.9 105.152C1164.68 111.598 1237.43 113.033 1304.71 107.857C1387.31 101.505 1467.59 88.6187 1549 79.3405" stroke="url(#paint39_linear_615_3134)" stroke-miterlimit="10"/>
<path d="M-7 70.3287C67.2856 72.0277 130.69 96.5855 206.813 89.3815C269.04 83.4847 323.26 64.6802 385.379 58.7448C448.709 52.677 519.234 63.8362 580.953 70.8086C639.301 77.428 698.114 85.5864 757.704 88.6919C809.731 91.4059 856.485 80.6935 907.453 78.5643C939.015 77.2459 965.801 81.0024 994.5 87.4232C1028.21 94.8808 1063.62 100.151 1099.89 103.111C1252.25 115.958 1401.54 94.2853 1549 77.1853" stroke="url(#paint40_linear_615_3134)" stroke-miterlimit="10"/>
<path d="M-7 67.4948C67.8393 69.2761 131.43 93.8901 208.182 86.957C270.411 81.3337 325.098 63.1157 387.295 57.5637C450.518 51.9186 520.452 62.8691 582.043 69.594C640.058 75.9461 698.7 83.526 758.023 85.8115C810.041 87.8339 858.266 78.1384 909.614 76.8779C941.36 76.1106 968.374 80.1663 997.236 86.4527C1030.56 93.7586 1065.95 98.4172 1101.88 100.993C1250.36 111.642 1405.22 91.8732 1549 74.998" stroke="url(#paint41_linear_615_3134)" stroke-miterlimit="10"/>
<path d="M-7 64.7275C68.3904 66.6049 132.176 91.4724 209.554 84.7587C271.794 79.3406 326.935 61.582 389.207 56.3944C452.323 51.1409 521.651 61.9608 583.178 68.4713C640.879 74.5921 699.316 81.6462 758.368 83.1887C810.483 84.5501 860.07 75.7559 911.807 75.3881C943.738 75.1631 970.924 79.5437 1000.01 85.7633C1033.12 92.8393 1068.27 97.1046 1103.9 99.2236C1171.77 103.258 1240.59 99.822 1307.9 94.8869C1388.66 88.9637 1469.54 82.4641 1549 72.9288" stroke="url(#paint42_linear_615_3134)" stroke-miterlimit="10"/>
<path d="M-7 61.8363C68.2915 63.7588 131.989 88.4738 209.29 82.3849C271.28 77.4833 326.528 60.551 388.313 55.4152C450.768 50.225 518.701 60.5238 579.686 66.7434C638.64 72.7342 698.361 79.4276 758.709 80.2663C812.282 81.0125 864.482 72.7669 917.936 73.7309C950.201 74.3136 977.095 79.6291 1006.67 85.5328C1037.39 91.6653 1069.83 95.1781 1102.63 96.8392C1172.46 100.374 1241.71 95.1618 1310.7 90.2438C1390.33 84.5689 1470.68 80.201 1549 70.7137" stroke="url(#paint43_linear_615_3134)" stroke-miterlimit="10"/>
<path d="M-7 59.1083C68.8118 61.1386 132.77 86.2495 210.645 80.3504C272.648 75.6531 328.34 59.0424 390.223 54.2463C452.549 49.4393 519.944 59.668 580.844 65.7317C639.518 71.5814 699.013 77.8042 759.049 77.8042C812.936 77.8042 866.294 70.5991 920.192 72.4374C952.501 73.5349 979.623 79.198 1009.42 85.0203C1039.94 90.9797 1072.16 94.146 1104.69 95.3971C1174.74 98.0915 1242.79 91.1608 1311.77 86.3427C1390.89 80.8168 1471.23 78.4627 1549 68.7827" stroke="url(#paint44_linear_615_3134)" stroke-miterlimit="10"/>
<path d="M-7 56.3834C69.3871 58.5126 133.477 83.8918 212.015 78.2086C274.041 73.7192 330.167 57.5333 392.139 53.0989C454.338 48.6371 521.205 58.8207 582.074 64.702C640.426 70.3522 699.697 76.0299 759.421 75.2267C813.7 74.4949 868.107 68.3551 922.461 71.0564C954.814 72.6684 982.153 78.6487 1012.15 84.3594C1042.41 90.1197 1074.48 92.92 1106.7 93.7508C1176.94 95.5718 1243.87 86.9727 1312.84 82.2743C1391.46 76.9157 1471.68 76.6186 1549 66.7926" stroke="url(#paint45_linear_615_3134)" stroke-miterlimit="10"/>
<path d="M-7 54.6397C69.9155 56.8375 134.275 82.397 213.362 76.9576C275.398 72.6886 331.956 56.9638 394.024 52.931C456.093 48.8982 522.418 58.9308 583.125 64.6009C641.336 70.0403 700.325 75.1775 759.724 73.5677C814.477 72.0842 869.814 67.0514 924.62 70.5952C957.038 72.6886 984.571 78.985 1014.85 84.5563C1045.13 90.1275 1076.79 92.523 1108.71 92.9406C1178.95 93.8691 1244.99 83.6717 1313.88 79.1114C1392.05 73.9358 1472.2 75.694 1549 65.7383" stroke="url(#paint46_linear_615_3134)" stroke-miterlimit="10"/>
<path d="M-7 51.9537C70.4456 54.2479 135.032 79.8126 214.682 74.656C276.751 70.6192 333.719 55.4606 395.875 51.7898C457.771 48.1354 523.686 58.0444 584.286 63.4906C642.324 68.7018 700.989 73.274 760.097 70.8868C815.39 68.6527 871.549 64.736 926.842 69.0842C959.162 71.6297 987.02 78.2175 1017.51 83.6309C1047.45 88.9405 1079.11 90.9835 1110.68 90.9999C1180.92 91.0436 1246.12 79.3538 1314.91 74.94C1392.71 69.9473 1472.68 73.7328 1549 63.6763" stroke="url(#paint47_linear_615_3134)" stroke-miterlimit="10"/>
<path d="M-7 50C70.9632 52.3687 135.743 78.1236 215.965 73.168C278.065 69.3476 335.444 54.6118 397.674 51.3371C459.504 48.0625 524.76 57.8864 585.369 63.1367C643.287 68.136 701.66 72.1911 760.421 69.0311C816.308 66.0293 873.19 63.2022 928.99 68.3543C961.299 71.3288 989.394 78.2437 1020.11 83.5268C1049.91 88.6461 1081.3 90.3216 1112.58 89.9505C1182.71 89.1264 1247.23 75.9515 1315.92 71.6453C1393.28 66.7989 1473.04 72.6168 1549 62.3672" stroke="url(#paint48_linear_615_3134)" stroke-miterlimit="10"/>
<path d="M-7 48C71.4462 50.4466 136.451 76.3353 217.198 71.6055C279.328 67.96 337.137 53.7216 399.396 50.7627C461.094 47.8311 525.818 57.6231 586.392 62.669C644.2 67.4696 702.279 71.0115 760.703 67.0991C817.214 63.3174 874.795 61.5628 930.983 67.4969C963.258 70.9025 991.589 78.1335 1022.58 83.2992C1052.19 88.2034 1083.41 89.5548 1114.42 88.8083C1184.37 87.1354 1248.33 72.5536 1316.9 68.3469C1393.89 63.6226 1473.41 71.4475 1549 61.0124" stroke="url(#paint49_linear_615_3134)" stroke-miterlimit="10"/>
<path d="M-7 46C71.88 48.517 137.124 74.5292 218.392 70.0009C280.555 66.5326 338.689 52.7572 401.091 50.1315C462.682 47.5439 526.931 57.2964 587.41 62.1564C645.143 66.8044 702.931 69.8052 761.01 65.1626C818.182 60.5962 876.283 59.8895 932.958 66.576C965.169 70.3814 993.771 77.9214 1024.97 82.9553C1054.42 87.7066 1085.48 88.6905 1116.16 87.5924C1185.86 85.0972 1249.39 69.2072 1317.83 65.0648C1394.55 60.4386 1473.74 70.2455 1549 59.5851" stroke="url(#paint50_linear_615_3134)" stroke-miterlimit="10"/>
<path d="M-7 44C72.3776 46.6297 137.794 73.3537 219.517 68.9154C281.735 65.5423 340.226 51.9001 402.693 49.5479C464.187 47.2344 527.94 57.1872 588.364 61.9917C646.045 66.5798 703.552 69.1318 761.307 63.656C819.063 58.1803 877.737 58.5021 934.855 66.0804C966.991 70.3467 995.874 78.2857 1027.24 83.4008C1056.42 88.1664 1087.52 88.7656 1117.83 87.2843C1187.24 83.9556 1250.41 66.43 1318.71 62.258C1395.1 57.5922 1474.06 69.6255 1549 58.4521" stroke="url(#paint51_linear_615_3134)" stroke-miterlimit="10"/>
<path d="M-7 43C72.8126 45.6751 138.372 72.4763 220.584 68.2259C282.783 65.0257 341.621 51.8435 404.166 49.8039C465.522 47.8031 528.866 57.752 589.228 62.4003C646.878 66.822 704.117 68.8837 761.539 62.7098C820.043 56.4255 879.065 57.7354 936.595 66.0261C968.667 70.6358 997.8 78.8436 1029.35 83.8678C1058.41 88.494 1089.35 88.7593 1119.35 86.9851C1152.08 85.0451 1183.99 80.6012 1215.41 75.671C1249.32 70.3594 1284.21 62.2566 1319.54 60.1121C1395.66 55.4858 1474.36 69.464 1549 58.0007" stroke="url(#paint52_linear_615_3134)" stroke-miterlimit="10"/>
<path d="M-7 41C73.2011 43.7147 138.879 70.6415 221.565 66.5418C283.818 63.4519 342.969 50.6561 405.589 48.9235C466.848 47.2075 529.738 57.2002 590.045 61.7248C647.694 66.0397 704.706 67.6123 761.793 60.7537C820.934 53.6468 880.344 55.9035 938.296 64.8975C970.228 69.8635 999.609 78.3057 1031.32 83.2497C1060.26 87.7577 1091.06 87.7246 1120.76 85.6499C1153.43 83.3766 1185.16 78.554 1216.4 73.3176C1250.06 67.6785 1285 59.1701 1320.32 57.0126C1396.21 52.3832 1474.66 68.2965 1549 56.4608" stroke="url(#paint53_linear_615_3134)" stroke-miterlimit="10"/>
<path d="M-7 40C73.5668 42.7559 139.416 69.813 222.458 65.8391C284.752 62.8517 344.183 50.4558 406.856 48.9731C468.026 47.5235 530.494 57.621 590.757 62.0249C648.416 66.2304 705.221 67.3603 761.972 59.8202C821.792 51.8999 881.471 55.0415 939.833 64.7147C971.644 69.9839 1001.24 78.6759 1033.12 83.5593C1061.94 87.9687 1092.55 87.6601 1122.04 85.3176C1154.63 82.727 1186.19 77.546 1217.27 72.0287C1250.7 66.0926 1285.69 57.2187 1321 55.0305C1396.64 50.3455 1474.91 68.176 1549 55.9289" stroke="url(#paint54_linear_615_3134)" stroke-miterlimit="10"/>
<path d="M-7 39C73.9018 41.7577 139.859 69.0203 223.257 65.1375C285.627 62.2309 345.361 50.1687 408.098 48.9277C469.204 47.7143 531.282 57.9675 591.481 62.286C649.161 66.4171 705.804 67.1285 762.21 58.9382C822.646 50.1632 882.476 54.1343 941.248 64.4536C972.952 70.0296 1002.74 78.9536 1034.75 83.7961C1063.47 88.1367 1093.97 87.5852 1123.18 84.9929C1155.73 82.1029 1187.12 76.5875 1218.06 70.8018C1251.3 64.5749 1286.32 55.3918 1321.67 53.1525C1397.16 48.3652 1475.23 68.0993 1549 55.3587" stroke="url(#paint55_linear_615_3134)" stroke-miterlimit="10"/>
<path d="M-7 38C74.2146 40.764 140.237 68.2601 223.958 64.4292C286.338 61.5768 346.342 49.8078 409.133 48.7574C470.173 47.7569 531.841 58.2158 592.038 62.4834C649.751 66.5741 706.286 66.9058 762.366 58.061C823.429 48.4258 883.291 53.1577 942.495 64.1418C974.058 70.0015 1004.02 79.1502 1036.15 83.9706C1064.78 88.2714 1095.13 87.5085 1124.14 84.6893C1156.64 81.5218 1187.89 75.6953 1218.7 69.6532C1251.79 63.1578 1286.77 53.716 1322.22 51.4109C1397.55 46.4633 1475.52 68.1054 1549 54.7719" stroke="url(#paint56_linear_615_3134)" stroke-miterlimit="10"/>
<path d="M-7 37C73.8153 39.7722 139.622 67.3496 222.857 63.7735C288.631 60.9514 352.212 48.2051 418.58 48.4656C475.32 48.6874 532.255 58.2514 588.304 62.3652C647.854 66.7342 704.853 66.6122 762.523 57.2589C826.471 46.9132 886.388 52.3522 948.023 64.655C975.653 70.1661 1001.98 77.6842 1029.81 82.8459C1059.27 88.3071 1091.61 87.7748 1121.92 84.7421C1156.31 81.3046 1189.24 74.7623 1221.68 68.1092C1254.37 61.3784 1289.14 51.9031 1324.39 49.6854C1398.95 45.0226 1476.49 68.0426 1549 54.1597" stroke="url(#paint57_linear_615_3134)" stroke-miterlimit="10"/>
<path d="M-7 37C74.0417 39.6986 139.848 67.1061 223.31 63.57C289.105 60.7783 352.976 48.4896 419.322 48.9001C476.019 49.2559 532.662 58.961 588.678 63.0281C648.271 67.3524 705.259 66.9254 762.647 57.089C827.243 46.0099 886.846 52.0092 948.989 64.7523C976.489 70.3904 1002.89 77.8786 1030.8 82.9802C1060.19 88.3774 1092.39 87.7424 1122.53 84.5785C1156.9 80.9713 1189.69 74.233 1222.03 67.4892C1254.69 60.6798 1289.44 51.221 1324.78 48.922C1399.2 44.116 1476.83 68.5457 1549 54.1769" stroke="url(#paint58_linear_615_3134)" stroke-miterlimit="10"/>
<path d="M-7 36C74.2038 38.6784 139.956 66.4948 223.655 62.8721C289.461 60.0225 353.473 47.8898 419.906 48.4365C476.581 48.9004 532.954 59.0064 588.948 63.1427C648.573 67.5606 705.648 66.8592 762.669 56.339C827.891 44.3112 887.019 50.8719 949.691 64.2692C977.127 70.1285 1003.59 77.7605 1031.52 82.9681C1060.89 88.4408 1092.81 87.7505 1122.93 84.4095C1192.5 76.6781 1254.84 52.4734 1325.09 47.5915C1399.38 42.4281 1477.21 68.7369 1549 53.5116" stroke="url(#paint59_linear_615_3134)" stroke-miterlimit="10"/>
<path d="M-7 36C74.3357 38.6058 140.068 66.4026 223.867 62.7161C289.686 59.8141 353.916 47.9976 420.318 48.6284C477.005 49.177 533.131 59.5672 589.105 63.7474C648.753 68.2019 706.024 67.3023 762.723 56.2867C828.52 43.4992 886.99 50.3949 950.258 64.2412C977.468 70.1823 1004 78.0545 1031.99 83.0247C1061.73 88.2966 1092.69 87.8687 1123.13 84.4016C1192.83 76.4581 1254.82 52.3917 1325.32 47.1911C1399.51 41.7053 1477.68 69.4363 1549 53.5108" stroke="url(#paint60_linear_615_3134)" stroke-miterlimit="10"/>
<path d="M-7 36C74.4176 38.5428 140.027 66.6575 223.908 62.8129C289.723 59.7957 354.036 48.113 420.564 48.7969C477.259 49.3816 533.166 60.27 589.126 64.5724C648.771 69.1562 706.341 68.1026 762.702 56.4696C829.003 42.7735 886.649 49.9553 950.518 64.407C1008.87 77.601 1056.94 92.6209 1123.01 84.8876C1192.89 76.7075 1254.59 52.7132 1325.33 47.0649C1399.43 41.1463 1478.01 70.5352 1549 53.684" stroke="url(#paint61_linear_615_3134)" stroke-miterlimit="10"/>
<g filter="url(#filter0_f_615_3134)">
<rect x="-17" y="215" width="1192" height="236" fill="#12131F"/>
</g>
<defs>
<filter id="filter0_f_615_3134" x="-86" y="146" width="1330" height="374" filterUnits="userSpaceOnUse" color-interpolation-filters="sRGB">
<feFlood flood-opacity="0" result="BackgroundImageFix"/>
<feBlend mode="normal" in="SourceGraphic" in2="BackgroundImageFix" result="shape"/>
<feGaussianBlur stdDeviation="34.5" result="effect1_foregroundBlur_615_3134"/>
</filter>
<linearGradient id="paint0_linear_615_3134" x1="770" y1="247" x2="770" y2="292" gradientUnits="userSpaceOnUse">
<stop stop-color="#055F7B"/>
<stop offset="0.265625" stop-color="#13314E"/>
<stop offset="1" stop-color="#12131F"/>
</linearGradient>
<linearGradient id="paint1_linear_615_3134" x1="770" y1="234" x2="770" y2="289" gradientUnits="userSpaceOnUse">
<stop stop-color="#055F7B"/>
<stop offset="0.265625" stop-color="#13314E"/>
<stop offset="1" stop-color="#12131F"/>
</linearGradient>
<linearGradient id="paint2_linear_615_3134" x1="770" y1="222" x2="770" y2="287" gradientUnits="userSpaceOnUse">
<stop stop-color="#055F7B"/>
<stop offset="0.265625" stop-color="#13314E"/>
<stop offset="1" stop-color="#12131F"/>
</linearGradient>
<linearGradient id="paint3_linear_615_3134" x1="770" y1="210" x2="770" y2="284" gradientUnits="userSpaceOnUse">
<stop stop-color="#055F7B"/>
<stop offset="0.265625" stop-color="#13314E"/>
<stop offset="1" stop-color="#12131F"/>
</linearGradient>
<linearGradient id="paint4_linear_615_3134" x1="770" y1="200" x2="770" y2="281" gradientUnits="userSpaceOnUse">
<stop stop-color="#055F7B"/>
<stop offset="0.265625" stop-color="#13314E"/>
<stop offset="1" stop-color="#12131F"/>
</linearGradient>
<linearGradient id="paint5_linear_615_3134" x1="770" y1="190" x2="770" y2="277" gradientUnits="userSpaceOnUse">
<stop stop-color="#055F7B"/>
<stop offset="0.265625" stop-color="#13314E"/>
<stop offset="1" stop-color="#12131F"/>
</linearGradient>
<linearGradient id="paint6_linear_615_3134" x1="770" y1="182" x2="770" y2="271" gradientUnits="userSpaceOnUse">
<stop stop-color="#055F7B"/>
<stop offset="0.265625" stop-color="#13314E"/>
<stop offset="1" stop-color="#12131F"/>
</linearGradient>
<linearGradient id="paint7_linear_615_3134" x1="770" y1="174" x2="770" y2="265" gradientUnits="userSpaceOnUse">
<stop stop-color="#055F7B"/>
<stop offset="0.265625" stop-color="#13314E"/>
<stop offset="1" stop-color="#12131F"/>
</linearGradient>
<linearGradient id="paint8_linear_615_3134" x1="770" y1="167" x2="770" y2="259" gradientUnits="userSpaceOnUse">
<stop stop-color="#055F7B"/>
<stop offset="0.265625" stop-color="#13314E"/>
<stop offset="1" stop-color="#12131F"/>
</linearGradient>
<linearGradient id="paint9_linear_615_3134" x1="770" y1="160" x2="770" y2="253" gradientUnits="userSpaceOnUse">
<stop stop-color="#055F7B"/>
<stop offset="0.265625" stop-color="#13314E"/>
<stop offset="1" stop-color="#12131F"/>
</linearGradient>
<linearGradient id="paint10_linear_615_3134" x1="770" y1="154" x2="770" y2="247" gradientUnits="userSpaceOnUse">
<stop stop-color="#055F7B"/>
<stop offset="0.265625" stop-color="#13314E"/>
<stop offset="1" stop-color="#12131F"/>
</linearGradient>
<linearGradient id="paint11_linear_615_3134" x1="770" y1="148" x2="770" y2="241" gradientUnits="userSpaceOnUse">
<stop stop-color="#055F7B"/>
<stop offset="0.265625" stop-color="#13314E"/>
<stop offset="1" stop-color="#12131F"/>
</linearGradient>
<linearGradient id="paint12_linear_615_3134" x1="770" y1="143" x2="770" y2="235" gradientUnits="userSpaceOnUse">
<stop stop-color="#055F7B"/>
<stop offset="0.265625" stop-color="#13314E"/>
<stop offset="1" stop-color="#12131F"/>
</linearGradient>
<linearGradient id="paint13_linear_615_3134" x1="770" y1="139" x2="770" y2="230" gradientUnits="userSpaceOnUse">
<stop stop-color="#055F7B"/>
<stop offset="0.265625" stop-color="#13314E"/>
<stop offset="1" stop-color="#12131F"/>
</linearGradient>
<linearGradient id="paint14_linear_615_3134" x1="770" y1="135" x2="770" y2="225" gradientUnits="userSpaceOnUse">
<stop stop-color="#055F7B"/>
<stop offset="0.265625" stop-color="#13314E"/>
<stop offset="1" stop-color="#12131F"/>
</linearGradient>
<linearGradient id="paint15_linear_615_3134" x1="770" y1="131" x2="770" y2="220" gradientUnits="userSpaceOnUse">
<stop stop-color="#055F7B"/>
<stop offset="0.265625" stop-color="#13314E"/>
<stop offset="1" stop-color="#12131F"/>
</linearGradient>
<linearGradient id="paint16_linear_615_3134" x1="770" y1="127" x2="770" y2="215" gradientUnits="userSpaceOnUse">
<stop stop-color="#055F7B"/>
<stop offset="0.265625" stop-color="#13314E"/>
<stop offset="1" stop-color="#12131F"/>
</linearGradient>
<linearGradient id="paint17_linear_615_3134" x1="770" y1="124" x2="770" y2="210" gradientUnits="userSpaceOnUse">
<stop stop-color="#055F7B"/>
<stop offset="0.265625" stop-color="#13314E"/>
<stop offset="1" stop-color="#12131F"/>
</linearGradient>
<linearGradient id="paint18_linear_615_3134" x1="770" y1="120" x2="770" y2="205" gradientUnits="userSpaceOnUse">
<stop stop-color="#055F7B"/>
<stop offset="0.265625" stop-color="#13314E"/>
<stop offset="1" stop-color="#12131F"/>
</linearGradient>
<linearGradient id="paint19_linear_615_3134" x1="770" y1="118" x2="770" y2="200" gradientUnits="userSpaceOnUse">
<stop stop-color="#055F7B"/>
<stop offset="0.265625" stop-color="#13314E"/>
<stop offset="1" stop-color="#12131F"/>
</linearGradient>
<linearGradient id="paint20_linear_615_3134" x1="770" y1="114" x2="770" y2="196" gradientUnits="userSpaceOnUse">
<stop stop-color="#055F7B"/>
<stop offset="0.265625" stop-color="#13314E"/>
<stop offset="1" stop-color="#12131F"/>
</linearGradient>
<linearGradient id="paint21_linear_615_3134" x1="770" y1="111" x2="770" y2="191" gradientUnits="userSpaceOnUse">
<stop stop-color="#055F7B"/>
<stop offset="0.265625" stop-color="#13314E"/>
<stop offset="1" stop-color="#12131F"/>
</linearGradient>
<linearGradient id="paint22_linear_615_3134" x1="770" y1="107" x2="770" y2="187" gradientUnits="userSpaceOnUse">
<stop stop-color="#055F7B"/>
<stop offset="0.265625" stop-color="#13314E"/>
<stop offset="1" stop-color="#12131F"/>
</linearGradient>
<linearGradient id="paint23_linear_615_3134" x1="770" y1="104" x2="770" y2="183" gradientUnits="userSpaceOnUse">
<stop stop-color="#055F7B"/>
<stop offset="0.265625" stop-color="#13314E"/>
<stop offset="1" stop-color="#12131F"/>
</linearGradient>
<linearGradient id="paint24_linear_615_3134" x1="770" y1="100" x2="770" y2="178" gradientUnits="userSpaceOnUse">
<stop stop-color="#055F7B"/>
<stop offset="0.265625" stop-color="#13314E"/>
<stop offset="1" stop-color="#12131F"/>
</linearGradient>
<linearGradient id="paint25_linear_615_3134" x1="770" y1="95" x2="770" y2="174" gradientUnits="userSpaceOnUse">
<stop stop-color="#055F7B"/>
<stop offset="0.265625" stop-color="#13314E"/>
<stop offset="1" stop-color="#12131F"/>
</linearGradient>
<linearGradient id="paint26_linear_615_3134" x1="770.5" y1="91" x2="770.5" y2="169" gradientUnits="userSpaceOnUse">
<stop stop-color="#055F7B"/>
<stop offset="0.265625" stop-color="#13314E"/>
<stop offset="1" stop-color="#12131F"/>
</linearGradient>
<linearGradient id="paint27_linear_615_3134" x1="770.5" y1="88" x2="770.5" y2="165" gradientUnits="userSpaceOnUse">
<stop stop-color="#055F7B"/>
<stop offset="0.265625" stop-color="#13314E"/>
<stop offset="1" stop-color="#12131F"/>
</linearGradient>
<linearGradient id="paint28_linear_615_3134" x1="771" y1="84" x2="771" y2="160" gradientUnits="userSpaceOnUse">
<stop stop-color="#055F7B"/>
<stop offset="0.265625" stop-color="#13314E"/>
<stop offset="1" stop-color="#12131F"/>
</linearGradient>
<linearGradient id="paint29_linear_615_3134" x1="771" y1="81" x2="771" y2="156" gradientUnits="userSpaceOnUse">
<stop stop-color="#055F7B"/>
<stop offset="0.265625" stop-color="#13314E"/>
<stop offset="1" stop-color="#12131F"/>
</linearGradient>
<linearGradient id="paint30_linear_615_3134" x1="771" y1="78" x2="771" y2="151" gradientUnits="userSpaceOnUse">
<stop stop-color="#055F7B"/>
<stop offset="0.265625" stop-color="#13314E"/>
<stop offset="1" stop-color="#12131F"/>
</linearGradient>
<linearGradient id="paint31_linear_615_3134" x1="771" y1="75" x2="771" y2="146" gradientUnits="userSpaceOnUse">
<stop stop-color="#055F7B"/>
<stop offset="0.265625" stop-color="#13314E"/>
<stop offset="1" stop-color="#12131F"/>
</linearGradient>
<linearGradient id="paint32_linear_615_3134" x1="771" y1="72" x2="771" y2="142" gradientUnits="userSpaceOnUse">
<stop stop-color="#055F7B"/>
<stop offset="0.265625" stop-color="#13314E"/>
<stop offset="1" stop-color="#12131F"/>
</linearGradient>
<linearGradient id="paint33_linear_615_3134" x1="771" y1="70" x2="771" y2="137" gradientUnits="userSpaceOnUse">
<stop stop-color="#055F7B"/>
<stop offset="0.265625" stop-color="#13314E"/>
<stop offset="1" stop-color="#12131F"/>
</linearGradient>
<linearGradient id="paint34_linear_615_3134" x1="771" y1="67" x2="771" y2="132" gradientUnits="userSpaceOnUse">
<stop stop-color="#055F7B"/>
<stop offset="0.265625" stop-color="#13314E"/>
<stop offset="1" stop-color="#12131F"/>
</linearGradient>
<linearGradient id="paint35_linear_615_3134" x1="771" y1="65" x2="771" y2="128" gradientUnits="userSpaceOnUse">
<stop stop-color="#055F7B"/>
<stop offset="0.265625" stop-color="#13314E"/>
<stop offset="1" stop-color="#12131F"/>
</linearGradient>
<linearGradient id="paint36_linear_615_3134" x1="771" y1="63" x2="771" y2="123" gradientUnits="userSpaceOnUse">
<stop stop-color="#055F7B"/>
<stop offset="0.265625" stop-color="#13314E"/>
<stop offset="1" stop-color="#12131F"/>
</linearGradient>
<linearGradient id="paint37_linear_615_3134" x1="771" y1="61" x2="771" y2="119" gradientUnits="userSpaceOnUse">
<stop stop-color="#055F7B"/>
<stop offset="0.265625" stop-color="#13314E"/>
<stop offset="1" stop-color="#12131F"/>
</linearGradient>
<linearGradient id="paint38_linear_615_3134" x1="771" y1="60" x2="771" y2="115" gradientUnits="userSpaceOnUse">
<stop stop-color="#055F7B"/>
<stop offset="0.265625" stop-color="#13314E"/>
<stop offset="1" stop-color="#12131F"/>
</linearGradient>
<linearGradient id="paint39_linear_615_3134" x1="771" y1="58" x2="771" y2="111" gradientUnits="userSpaceOnUse">
<stop stop-color="#055F7B"/>
<stop offset="0.265625" stop-color="#13314E"/>
<stop offset="1" stop-color="#12131F"/>
</linearGradient>
<linearGradient id="paint40_linear_615_3134" x1="771" y1="57" x2="771" y2="107" gradientUnits="userSpaceOnUse">
<stop stop-color="#055F7B"/>
<stop offset="0.265625" stop-color="#13314E"/>
<stop offset="1" stop-color="#12131F"/>
</linearGradient>
<linearGradient id="paint41_linear_615_3134" x1="771" y1="56" x2="771" y2="104" gradientUnits="userSpaceOnUse">
<stop stop-color="#055F7B"/>
<stop offset="0.265625" stop-color="#13314E"/>
<stop offset="1" stop-color="#12131F"/>
</linearGradient>
<linearGradient id="paint42_linear_615_3134" x1="771" y1="55" x2="771" y2="101" gradientUnits="userSpaceOnUse">
<stop stop-color="#055F7B"/>
<stop offset="0.265625" stop-color="#13314E"/>
<stop offset="1" stop-color="#12131F"/>
</linearGradient>
<linearGradient id="paint43_linear_615_3134" x1="771" y1="54" x2="771" y2="98" gradientUnits="userSpaceOnUse">
<stop stop-color="#055F7B"/>
<stop offset="0.265625" stop-color="#13314E"/>
<stop offset="1" stop-color="#12131F"/>
</linearGradient>
<linearGradient id="paint44_linear_615_3134" x1="771" y1="53" x2="771" y2="96" gradientUnits="userSpaceOnUse">
<stop stop-color="#055F7B"/>
<stop offset="0.265625" stop-color="#13314E"/>
<stop offset="1" stop-color="#12131F"/>
</linearGradient>
<linearGradient id="paint45_linear_615_3134" x1="771" y1="52" x2="771" y2="94" gradientUnits="userSpaceOnUse">
<stop stop-color="#055F7B"/>
<stop offset="0.265625" stop-color="#13314E"/>
<stop offset="1" stop-color="#12131F"/>
</linearGradient>
<linearGradient id="paint46_linear_615_3134" x1="771" y1="52" x2="771" y2="93" gradientUnits="userSpaceOnUse">
<stop stop-color="#055F7B"/>
<stop offset="0.265625" stop-color="#13314E"/>
<stop offset="1" stop-color="#12131F"/>
</linearGradient>
<linearGradient id="paint47_linear_615_3134" x1="771" y1="51" x2="771" y2="91" gradientUnits="userSpaceOnUse">
<stop stop-color="#055F7B"/>
<stop offset="0.265625" stop-color="#13314E"/>
<stop offset="1" stop-color="#12131F"/>
</linearGradient>
<linearGradient id="paint48_linear_615_3134" x1="771" y1="50" x2="771" y2="90" gradientUnits="userSpaceOnUse">
<stop stop-color="#055F7B"/>
<stop offset="0.265625" stop-color="#13314E"/>
<stop offset="1" stop-color="#12131F"/>
</linearGradient>
<linearGradient id="paint49_linear_615_3134" x1="771" y1="48" x2="771" y2="89" gradientUnits="userSpaceOnUse">
<stop stop-color="#055F7B"/>
<stop offset="0.265625" stop-color="#13314E"/>
<stop offset="1" stop-color="#12131F"/>
</linearGradient>
<linearGradient id="paint50_linear_615_3134" x1="771" y1="46" x2="771" y2="88" gradientUnits="userSpaceOnUse">
<stop stop-color="#055F7B"/>
<stop offset="0.265625" stop-color="#13314E"/>
<stop offset="1" stop-color="#12131F"/>
</linearGradient>
<linearGradient id="paint51_linear_615_3134" x1="771" y1="44" x2="771" y2="88" gradientUnits="userSpaceOnUse">
<stop stop-color="#055F7B"/>
<stop offset="0.265625" stop-color="#13314E"/>
<stop offset="1" stop-color="#12131F"/>
</linearGradient>
<linearGradient id="paint52_linear_615_3134" x1="771" y1="43" x2="771" y2="88" gradientUnits="userSpaceOnUse">
<stop stop-color="#055F7B"/>
<stop offset="0.265625" stop-color="#13314E"/>
<stop offset="1" stop-color="#12131F"/>
</linearGradient>
<linearGradient id="paint53_linear_615_3134" x1="771" y1="41" x2="771" y2="87" gradientUnits="userSpaceOnUse">
<stop stop-color="#055F7B"/>
<stop offset="0.265625" stop-color="#13314E"/>
<stop offset="1" stop-color="#12131F"/>
</linearGradient>
<linearGradient id="paint54_linear_615_3134" x1="771" y1="40" x2="771" y2="87" gradientUnits="userSpaceOnUse">
<stop stop-color="#055F7B"/>
<stop offset="0.265625" stop-color="#13314E"/>
<stop offset="1" stop-color="#12131F"/>
</linearGradient>
<linearGradient id="paint55_linear_615_3134" x1="771" y1="39" x2="771" y2="87" gradientUnits="userSpaceOnUse">
<stop stop-color="#055F7B"/>
<stop offset="0.265625" stop-color="#13314E"/>
<stop offset="1" stop-color="#12131F"/>
</linearGradient>
<linearGradient id="paint56_linear_615_3134" x1="771" y1="38" x2="771" y2="87" gradientUnits="userSpaceOnUse">
<stop stop-color="#055F7B"/>
<stop offset="0.265625" stop-color="#13314E"/>
<stop offset="1" stop-color="#12131F"/>
</linearGradient>
<linearGradient id="paint57_linear_615_3134" x1="771" y1="37" x2="771" y2="87" gradientUnits="userSpaceOnUse">
<stop stop-color="#055F7B"/>
<stop offset="0.265625" stop-color="#13314E"/>
<stop offset="1" stop-color="#12131F"/>
</linearGradient>
<linearGradient id="paint58_linear_615_3134" x1="771" y1="37" x2="771" y2="87" gradientUnits="userSpaceOnUse">
<stop stop-color="#055F7B"/>
<stop offset="0.265625" stop-color="#13314E"/>
<stop offset="1" stop-color="#12131F"/>
</linearGradient>
<linearGradient id="paint59_linear_615_3134" x1="771" y1="36" x2="771" y2="87" gradientUnits="userSpaceOnUse">
<stop stop-color="#055F7B"/>
<stop offset="0.265625" stop-color="#13314E"/>
<stop offset="1" stop-color="#12131F"/>
</linearGradient>
<linearGradient id="paint60_linear_615_3134" x1="771" y1="36" x2="771" y2="87" gradientUnits="userSpaceOnUse">
<stop stop-color="#055F7B"/>
<stop offset="0.265625" stop-color="#13314E"/>
<stop offset="1" stop-color="#12131F"/>
</linearGradient>
<linearGradient id="paint61_linear_615_3134" x1="771" y1="36" x2="771" y2="87" gradientUnits="userSpaceOnUse">
<stop stop-color="#055F7B"/>
<stop offset="0.265625" stop-color="#13314E"/>
<stop offset="1" stop-color="#12131F"/>
</linearGradient>
</defs>
</svg>
