<svg width="130" height="76" viewBox="0 0 130 76" fill="none" xmlns="http://www.w3.org/2000/svg">
<path opacity="0.1" d="M32.5057 75.9886C25.9006 75.965 20.1951 74.438 15.3892 71.4077C10.5833 68.3774 6.87831 64.0095 4.27415 58.304C1.66998 52.5985 0.379735 45.7566 0.403409 37.7784C0.427084 29.7765 1.72917 22.982 4.30966 17.3949C6.91383 11.8078 10.607 7.55824 15.3892 4.64631C20.1951 1.73437 25.9006 0.278406 32.5057 0.278406C39.1108 0.278406 44.8163 1.74621 49.6222 4.68182C54.428 7.59375 58.1331 11.8433 60.7372 17.4304C63.3414 23.0175 64.6316 29.8002 64.608 37.7784C64.608 45.804 63.3059 52.6695 60.7017 58.375C58.0975 64.0805 54.3925 68.4484 49.5866 71.4787C44.8045 74.4853 39.1108 75.9886 32.5057 75.9886ZM32.5057 59.9375C35.9148 59.9375 38.7083 58.1619 40.8864 54.6108C43.0881 51.036 44.1771 45.4252 44.1534 37.7784C44.1534 32.7831 43.6563 28.6993 42.6619 25.527C41.6676 22.3546 40.2945 20.0109 38.5426 18.4957C36.7907 16.9569 34.7784 16.1875 32.5057 16.1875C29.0966 16.1875 26.3149 17.9157 24.1605 21.3722C22.0062 24.8286 20.9053 30.2973 20.858 37.7784C20.8343 42.8684 21.3196 47.0587 22.3139 50.3494C23.3082 53.6165 24.6813 56.0312 26.4332 57.5938C28.2088 59.1562 30.233 59.9375 32.5057 59.9375ZM73.8764 74V59.7955L101.007 37.3523C102.806 35.8608 104.345 34.464 105.624 33.1619C106.926 31.8362 107.92 30.4749 108.607 29.0781C109.317 27.6813 109.672 26.1307 109.672 24.4261C109.672 22.5559 109.269 20.9579 108.464 19.6321C107.683 18.3063 106.594 17.2884 105.197 16.5781C103.801 15.8442 102.191 15.4773 100.368 15.4773C98.545 15.4773 96.9351 15.8442 95.5384 16.5781C94.1652 17.312 93.0999 18.3892 92.3423 19.8097C91.5848 21.2301 91.206 22.9583 91.206 24.9943H72.456C72.456 19.8807 73.6042 15.4773 75.9006 11.7841C78.197 8.09091 81.4403 5.25 85.6307 3.26136C89.821 1.27273 94.7334 0.278406 100.368 0.278406C106.192 0.278406 111.234 1.21354 115.496 3.08381C119.781 4.9304 123.083 7.53456 125.403 10.8963C127.747 14.258 128.919 18.1998 128.919 22.7216C128.919 25.5152 128.339 28.2969 127.179 31.0668C126.019 33.813 123.936 36.8551 120.929 40.1932C117.922 43.5312 113.649 47.5085 108.109 52.125L101.291 57.8068V58.233H129.7V74H73.8764Z" fill="#04CA73"/>
</svg>
