<svg width="43" height="44" viewBox="0 0 43 44" fill="none" xmlns="http://www.w3.org/2000/svg">
<circle cx="21.5" cy="22" r="21.5" fill="#EAEAEA"/>
<path d="M29 13.5H15C13.8954 13.5 13 14.3954 13 15.5V29.5C13 30.6046 13.8954 31.5 15 31.5H29C30.1046 31.5 31 30.6046 31 29.5V15.5C31 14.3954 30.1046 13.5 29 13.5Z" stroke="#ADADAD" stroke-width="1.5" stroke-linecap="round" stroke-linejoin="round"/>
<path d="M18.5 20.5C19.3284 20.5 20 19.8284 20 19C20 18.1716 19.3284 17.5 18.5 17.5C17.6716 17.5 17 18.1716 17 19C17 19.8284 17.6716 20.5 18.5 20.5Z" stroke="#ADADAD" stroke-width="1.5" stroke-linecap="round" stroke-linejoin="round"/>
<path d="M31 25.5L26 20.5L15 31.5" stroke="#ADADAD" stroke-width="1.5" stroke-linecap="round" stroke-linejoin="round"/>
</svg>
