<svg width="43" height="43" viewBox="0 0 43 43" fill="none" xmlns="http://www.w3.org/2000/svg">
<circle cx="21.5" cy="21.5" r="21.5" fill="#EAEAEA"/>
<path d="M27.9313 19.8462H15.0681C14.0532 19.8462 13.2305 20.6539 13.2305 21.6504V27.9651C13.2305 28.9615 14.0532 29.7693 15.0681 29.7693H27.9313C28.9462 29.7693 29.7689 28.9615 29.7689 27.9651V21.6504C29.7689 20.6539 28.9462 19.8462 27.9313 19.8462Z" stroke="#ADADAD" stroke-width="1.5" stroke-linecap="round" stroke-linejoin="round"/>
<path d="M16.5391 19.8462V16.173C16.5378 15.0344 16.9984 13.9359 17.8314 13.0909C18.6645 12.2459 19.8105 11.7146 21.0471 11.6002C22.2836 11.4858 23.5225 11.7964 24.5231 12.4717C25.5238 13.147 26.2148 14.1389 26.4621 15.2547" stroke="#ADADAD" stroke-width="1.5" stroke-linecap="round" stroke-linejoin="round"/>
</svg>
