<svg width="43" height="44" viewBox="0 0 43 44" fill="none" xmlns="http://www.w3.org/2000/svg">
<circle cx="21.5" cy="22" r="21.5" fill="#2D2E36"/>
<path d="M21 32C26.5228 32 31 27.5228 31 22C31 16.4772 26.5228 12 21 12C15.4772 12 11 16.4772 11 22C11 27.5228 15.4772 32 21 32Z" stroke="#686868" stroke-width="1.5" stroke-linecap="round" stroke-linejoin="round"/>
<path d="M21 26C23.2091 26 25 24.2091 25 22C25 19.7909 23.2091 18 21 18C18.7909 18 17 19.7909 17 22C17 24.2091 18.7909 26 21 26Z" stroke="#686868" stroke-width="1.5" stroke-linecap="round" stroke-linejoin="round"/>
<path d="M30.17 18H21" stroke="#686868" stroke-width="1.5" stroke-linecap="round" stroke-linejoin="round"/>
<path d="M12.9502 16.06L17.5402 24" stroke="#686868" stroke-width="1.5" stroke-linecap="round" stroke-linejoin="round"/>
<path d="M19.8799 31.94L24.4599 24" stroke="#686868" stroke-width="1.5" stroke-linecap="round" stroke-linejoin="round"/>
</svg>
