<svg width="43" height="43" viewBox="0 0 43 43" fill="none" xmlns="http://www.w3.org/2000/svg">
<circle cx="21.5" cy="21.5" r="21.5" fill="#EAEAEA"/>
<path d="M30.9999 22.29C30.8426 23.9922 30.2038 25.6144 29.1581 26.9668C28.1125 28.3192 26.7034 29.3458 25.0956 29.9265C23.4878 30.5073 21.7479 30.6181 20.0794 30.2461C18.4109 29.8741 16.8829 29.0345 15.6741 27.8258C14.4654 26.617 13.6258 25.089 13.2538 23.4205C12.8818 21.752 12.9926 20.0121 13.5734 18.4043C14.1541 16.7965 15.1807 15.3874 16.5331 14.3418C17.8855 13.2961 19.5077 12.6573 21.2099 12.5C20.2133 13.8483 19.7338 15.5094 19.8584 17.1814C19.9831 18.8534 20.7038 20.4251 21.8893 21.6106C23.0748 22.7961 24.6465 23.5168 26.3185 23.6415C27.9905 23.7662 29.6516 23.2866 30.9999 22.29V22.29Z" stroke="#ADADAD" stroke-width="1.5" stroke-linecap="round" stroke-linejoin="round"/>
</svg>
