<svg width="116" height="116" viewBox="0 0 116 116" fill="none" xmlns="http://www.w3.org/2000/svg">
<circle cx="58" cy="58" r="58" fill="#292A35"/>
<path d="M40.2498 30.7416C42.132 31.2549 44.0141 31.5971 45.8962 32.1104C47.7783 32.6237 49.6604 32.9659 51.5425 33.4792C52.0558 33.6503 52.2269 33.4792 52.398 32.9659C53.0824 30.0572 53.7668 27.3196 54.4512 24.4108C54.6223 23.8975 54.7934 23.7264 55.3067 23.8975C57.0177 24.4108 58.5576 24.753 60.2686 25.0952C60.7819 25.2663 60.7819 25.4374 60.6108 25.7796C59.9264 28.5173 59.242 31.426 58.5576 34.1636C58.5576 34.3347 58.5576 34.5058 58.3865 34.848C59.7553 35.1902 61.2952 35.5324 62.664 35.8746C62.8351 35.8746 63.0062 35.5324 63.1773 35.3613C63.6906 33.137 64.2039 31.0838 64.8883 28.8595C65.0594 28.1751 65.2305 27.4906 65.4016 26.8062C65.4016 26.464 65.5727 26.2929 65.9149 26.464C67.626 26.9773 69.337 27.3195 71.2191 27.8329C71.3902 27.8329 71.3902 28.004 71.5613 28.004C71.048 30.2283 70.5347 32.2815 70.0214 34.3347C69.8503 35.1902 69.6792 36.0457 69.337 36.9012C69.1659 37.4145 69.337 37.5856 69.8503 37.7567C71.7324 38.6122 73.6145 39.4677 75.4966 40.3232C77.2076 41.3498 78.7475 42.7186 79.9452 44.4296C81.4851 46.9961 81.6562 49.7337 80.9718 52.4713C80.4585 54.3535 79.7741 56.0645 78.4053 57.4333C77.3787 58.4599 76.0099 59.1443 74.6411 59.6576C74.47 59.6576 74.2989 59.8287 73.9567 59.8287C74.6411 60.342 75.3255 60.6842 76.0099 61.1975C78.0631 62.7374 79.4319 64.6195 80.1163 67.0149C80.4585 68.897 80.2874 70.9502 79.7741 72.8323C79.0897 75.2277 78.2342 77.2809 76.6943 79.1631C74.8122 81.3874 72.4168 82.5851 69.6792 82.9273C66.086 83.4406 62.664 83.0984 59.242 82.5851C58.7287 82.414 58.3865 82.5851 58.2154 83.0984C57.531 85.836 56.8466 88.7447 56.1622 91.4823C55.9911 92.1667 55.9911 92.3378 55.1356 91.9956C53.5957 91.6534 51.8847 91.1401 50.3448 90.7979C49.8315 90.6268 49.8315 90.4557 50.0026 90.1135C50.687 87.2048 51.3714 84.2961 52.2269 81.5585C52.2269 81.2163 52.398 81.0452 52.0558 80.8741C50.687 80.5319 49.3182 80.1897 47.7783 79.8475C47.4361 81.3874 46.9228 82.9273 46.5806 84.4672C46.2384 86.0071 45.7251 87.547 45.3829 89.0869C45.2118 89.4291 45.2118 89.6002 44.6985 89.4291C42.9875 88.9158 41.2764 88.5736 39.5654 88.2314C39.0521 88.0603 39.0521 87.8892 39.2232 87.547C39.9076 84.6383 40.592 81.7296 41.4475 78.9919C41.4475 78.8208 41.6186 78.6497 41.6186 78.3075C37.6833 77.2809 33.748 76.2543 29.6416 75.2277C29.9838 74.5433 30.1549 74.03 30.4971 73.3456C31.1815 71.8057 31.8659 70.2658 32.3792 68.897C32.5503 68.3837 32.7214 68.3837 33.2347 68.3837C34.4324 68.7259 35.8012 69.0681 36.9989 69.2392C38.3677 69.5814 39.3943 68.897 39.5654 67.6993C41.7898 58.9732 44.0141 50.247 46.0673 41.3498C46.4095 39.981 45.554 38.4411 44.0141 37.9278C42.4742 37.4145 40.9342 37.0723 39.5654 36.7301C39.2232 36.7301 39.0521 36.559 39.2232 36.2168C39.7365 34.3347 40.2498 32.2815 40.7631 30.3994C40.0787 30.9127 40.0787 30.9127 40.2498 30.7416ZM48.976 73.0034C49.1471 73.0034 49.3182 73.1745 49.3182 73.1745C52.0558 73.8589 54.9645 74.7144 57.8732 74.8855C59.9264 75.0566 61.8085 75.0566 63.6906 74.3722C66.9415 73.3456 68.3104 69.0681 66.4282 66.3305C65.5727 64.9617 64.2039 64.1062 62.8351 63.2507C59.7553 61.5397 56.1622 60.8553 52.7402 60.1709C52.2269 59.9998 52.2269 60.1709 52.0558 60.6842C51.7136 62.3952 51.2003 63.9351 50.8581 65.6461C50.1737 68.0415 49.6604 70.4369 48.976 73.0034ZM63.3484 55.5512C63.6906 55.5512 64.5461 55.3801 65.2305 55.209C68.4815 54.5246 70.1925 50.7603 68.4815 47.8516C67.626 46.3117 66.086 45.2851 64.5461 44.6007C62.1507 43.5741 59.7553 43.0608 57.1888 42.3764C56.6755 42.2053 56.5044 42.3764 56.3333 42.8897C55.4778 46.4828 54.6223 49.9048 53.5957 53.498C53.4246 53.8402 53.5957 54.0113 53.9379 54.1824C54.6223 54.3535 55.1356 54.5246 55.82 54.6957C58.3865 55.0379 60.6108 55.5512 63.3484 55.5512Z" fill="#F5B300"/>
</svg>
