<svg width="116" height="116" viewBox="0 0 116 116" fill="none" xmlns="http://www.w3.org/2000/svg">
<circle cx="58" cy="58" r="58" fill="#292A35"/>
<path d="M58.428 23.8334V48.9867C58.428 49.0934 58.3212 49.2002 58.2145 49.2002C57.467 49.5266 56.8264 49.85 56.079 50.1734C55.118 50.6035 54.0502 51.0368 53.0892 51.5767L49.5656 53.1936L46.6827 54.4902L43.1591 56.1101C42.1981 56.5433 41.2371 56.9735 40.1694 57.5135C39.422 57.8368 38.5678 58.27 37.8203 58.5934C37.7136 58.5934 37.7136 58.7002 37.6068 58.5934H37.5C37.8203 58.0534 38.1407 57.6202 38.461 57.0833C40.1694 54.1668 41.9846 51.2534 43.693 48.3369C45.5082 45.2099 47.4301 42.0768 49.2453 38.9467C50.9537 36.0333 52.6621 33.1198 54.3705 30.3131C55.6519 28.1502 56.9332 26.1031 58.1077 23.9401C58.3212 23.9401 58.3212 23.8334 58.428 23.8334C58.428 23.8334 58.3212 23.8334 58.428 23.8334Z" fill="#8C8C8C"/>
<path d="M79.1425 58.5935C77.5409 59.6734 75.8325 60.6436 74.2309 61.6137C68.9989 64.7468 63.8736 67.7701 58.6416 70.9001C58.5348 70.9001 58.5348 71.0069 58.4281 71.0069C58.3213 71.0069 58.3213 70.9001 58.3213 70.9001V49.2003C58.3213 49.0935 58.4281 49.0935 58.5348 49.0935C58.9619 49.3071 59.389 49.5267 59.9229 49.7403C61.2042 50.3901 62.5923 50.93 63.8736 51.5768C65.0482 52.1168 66.1159 52.6568 67.2904 53.0869C68.465 53.6269 69.5327 54.1669 70.7073 54.7069C71.6682 55.1401 72.736 55.5702 73.697 56.1102C74.658 56.5434 75.7257 56.9735 76.6867 57.5135C77.4341 57.8369 78.1816 58.2701 79.0358 58.5935C79.0358 58.4867 79.0358 58.5935 79.1425 58.5935Z" fill="#141414"/>
<path d="M58.4277 92.1667C58.4277 92.1667 58.3209 92.1667 58.4277 92.1667C58.3209 92.1667 58.3209 92.1667 58.2141 92.0569C56.0786 89.0367 54.0499 86.1202 51.9144 83.0969L45.5078 74.0301C43.4791 71.1167 41.3436 68.2032 39.3149 65.1769L37.7132 62.9102C37.7132 62.8034 37.6064 62.8034 37.6064 62.6967C37.7132 62.6967 37.7132 62.8034 37.82 62.8034C40.7029 64.5301 43.6927 66.2569 46.5756 67.9836C49.8856 70.0367 53.3025 71.98 56.6125 74.0301C57.1464 74.3535 57.787 74.6769 58.3209 75.0003C58.4277 75.0003 58.4277 75.1101 58.4277 75.2169V92.1667Z" fill="#8C8C8C"/>
<path d="M37.5 57.4635C37.5 57.3568 37.5 57.3568 37.5 57.4635C38.5678 56.9235 39.6355 56.4934 40.7033 55.9534L44.8675 54.0101C45.9353 53.4701 47.003 53.04 48.0708 52.5C49.5656 51.7434 51.1673 51.0967 52.6621 50.3401C53.7299 49.9069 54.7976 49.3669 55.8654 48.9367C56.6128 48.6134 57.3603 48.29 58.1077 47.8568C58.2145 47.8568 58.2145 47.75 58.3212 47.75V69.7702C58.2145 69.88 58.2145 69.7702 58.1077 69.7702C57.7874 69.5566 57.467 69.4468 57.2535 69.2302L37.7136 57.5734C37.6068 57.4635 37.5 57.4635 37.5 57.4635ZM78.8222 61.46C78.8222 61.5668 78.8222 61.5668 78.7154 61.6735C72.5224 70.5268 66.3294 79.2702 60.1364 88.1234C59.4958 89.0935 58.8551 89.9569 58.2145 90.93V73.7636C59.6026 72.9002 60.9906 72.0369 62.3787 71.2833L78.7154 61.5668C78.7154 61.46 78.8222 61.46 78.8222 61.46Z" fill="#3C3C3B"/>
<path d="M58.4277 49.0933V23.9462L78.9287 58.273C79.0354 58.3798 79.1422 58.4866 79.1422 58.5964C78.7151 58.3828 78.288 58.1632 77.7541 57.9496C77.2202 57.733 76.6864 57.4096 76.1525 57.193C75.8322 57.0863 75.5118 56.8697 75.0847 56.7598C74.5509 56.5463 73.9102 56.2199 73.3763 56.0063C73.056 55.8965 72.7357 55.6829 72.4153 55.5731L70.1731 54.603C69.746 54.3864 69.4256 54.2796 68.9985 54.063C68.4646 53.8464 67.9308 53.523 67.3969 53.3064C67.0766 53.1996 66.7562 52.983 66.4359 52.8763L64.1936 51.9031C63.7665 51.6895 63.4462 51.5797 63.0191 51.3631C62.4852 51.1495 61.9513 50.8231 61.4175 50.6065C61.0971 50.393 60.67 50.2831 60.3497 50.0696L58.4277 49.0964V49.0933Z" fill="#343434"/>
</svg>
