<svg width="1114" height="258" viewBox="0 0 1114 258" fill="none" xmlns="http://www.w3.org/2000/svg">
<path d="M-230 237.442C-168.028 237.393 -103.869 239.258 -42.2661 235.649C33.806 231.194 107.522 218.896 183.324 213.345C244.987 208.831 298.511 213.658 356.219 225.737C403.831 235.703 450.595 246.504 502.412 246.844C557.174 247.206 606.544 233.005 657.192 223.444C715.679 212.402 765.619 214.749 822.138 228.205C875.962 241.019 926.151 257.469 986.905 256.548C1062.03 255.407 1132.52 237.969 1207.94 237.442" stroke="#1F1F1F" stroke-miterlimit="10"/>
<path d="M-230 230.136C-169.616 230.07 -106.455 232.056 -46.5201 227.848C32.8074 222.281 109.189 208.052 188.147 201.261C251.058 195.847 301.546 202.045 358.036 217.306C402.713 229.373 447.589 243.312 498.687 244.047C556.126 244.864 609.46 226.417 661.276 215.078C688.418 209.171 717.027 203.636 746.616 204.909C775.574 206.159 802.996 212.857 828.32 220.268C879.367 235.171 929.097 255.687 989.841 254.118C1064.63 252.182 1132.77 231.496 1207.97 230.152" stroke="#242424" stroke-miterlimit="10"/>
<path d="M-229.951 222.955C-171.035 222.873 -108.903 224.908 -50.6054 220.213C31.7478 213.597 110.516 197.531 192.4 189.566C256.749 183.301 304.321 190.756 359.284 209.16C400.954 223.114 443.953 240.169 494.592 241.326C554.507 242.692 612.425 219.906 665.23 207.009C692.891 200.251 723.397 193.126 754.294 194.695C783.253 196.165 810.384 204.195 834.6 212.522C882.881 229.132 932.101 253.789 992.995 251.589C1067.47 248.89 1132.98 225.062 1207.98 222.955" stroke="#2D2D2D" stroke-miterlimit="10"/>
<path d="M-229.94 215.901C-172.432 215.802 -111.219 217.838 -54.4093 212.796C30.6302 205.243 111.516 187.481 195.936 178.452C228.08 175.019 258.547 173.033 290.032 179.056C315.686 183.965 338.254 192.583 360.023 201.294C398.968 216.867 440.08 236.839 490.598 238.402C552.71 240.328 615.281 213.411 668.945 199.198C697.085 191.744 729.47 183.11 761.544 184.936C790.633 186.582 817.405 195.836 840.582 204.974C886.297 222.988 934.928 251.501 996.151 248.742C1070.36 245.391 1133.15 218.611 1208.02 215.874" stroke="#5A5A5A" stroke-miterlimit="10"/>
<path d="M-229.93 208.962C-173.629 208.858 -113.245 210.882 -57.7438 205.611C29.4526 197.328 111.876 178.041 198.423 168.162C230.677 164.481 261.054 162.199 292.38 169.034C317.794 174.613 339.453 184.185 360.164 193.751C396.822 210.663 436.216 233.142 486.984 235.034C519.428 236.247 552.052 226.949 580.072 219.077C611.158 210.345 641.046 200.394 672.122 191.65C700.681 183.62 734.633 173.768 767.786 175.825C797.084 177.641 823.437 187.838 845.785 197.657C889.404 216.856 937.116 248.594 998.928 245.38C1073 241.54 1133.17 212.094 1208.03 208.94" stroke="#5A5A5A" stroke-miterlimit="10"/>
<path d="M-229.92 202.149C-174.628 202.045 -114.883 204.075 -60.4502 198.704C28.284 189.955 111.666 169.352 199.661 158.859C231.766 155.019 262.372 152.567 293.378 159.89C318.762 165.885 339.772 176.28 359.734 186.505C394.864 204.492 432.771 228.836 484.158 230.937C517.491 232.286 551.063 222.215 579.523 213.888C611.647 204.481 642.433 193.773 674.558 184.355C703.517 175.858 738.467 165.233 772.509 167.399C802.117 169.286 828.02 180.12 849.76 190.504C892.03 210.685 938.284 244.699 1001.08 241.271C1075.16 237.228 1133.03 205.419 1208.04 202.171" stroke="#5A5A5A" stroke-miterlimit="10"/>
<path d="M-229.9 195.457C-175.388 195.369 -116.012 197.437 -62.3779 192.111C27.1052 183.225 110.717 161.541 199.391 150.762C231.056 146.922 262.232 144.421 292.799 151.793C318.392 157.964 339.113 168.919 358.705 179.577C393.276 198.414 430.064 223.734 482.53 225.775C516.601 227.102 550.264 216.927 579.123 208.222C611.926 198.348 643.282 187.092 676.075 177.207C705.404 168.365 740.504 157.57 775.245 159.72C805.202 161.574 830.666 172.605 852.136 183.433C894.076 204.579 938.124 239.455 1002.39 236.06C1076.66 232.138 1132.78 198.37 1208.1 195.468" stroke="#5A5A5A" stroke-miterlimit="10"/>
<path d="M-229.891 188.875C-175.578 188.688 -116.392 191.014 -62.9872 185.583C25.8868 176.527 108.43 154.196 196.405 143.165C227.98 139.21 259.136 136.84 289.683 144.125C315.646 150.329 336.776 161.415 356.658 172.205C391.868 191.316 429.045 216.96 482.2 219.351C516.511 220.893 549.974 210.844 578.963 202.001C611.816 191.974 643.112 180.498 675.955 170.466C705.423 161.459 740.344 150.812 775.344 153.115C805.502 155.101 830.816 166.154 852.325 177.103C894.436 198.545 937.644 232.961 1002.42 229.763C1076.9 226.099 1132.44 191.409 1208.07 188.875" stroke="#5A5A5A" stroke-miterlimit="10"/>
<path d="M-229.88 182.44C-175.337 182.1 -116.331 185.035 -62.7368 179.226C24.5594 169.764 105.245 147.065 191.613 135.644C223.567 131.415 253.904 129.216 284.89 136.549C311.323 142.797 333.202 153.768 353.813 164.465C390.191 183.367 428.936 209.269 482.091 212.533C516.192 214.629 549.775 204.552 578.514 195.715C610.968 185.737 641.794 174.251 674.238 164.262C703.647 155.205 738.567 144.64 773.518 147.378C803.585 149.731 829.269 160.943 851.078 171.771C893.408 192.78 937.865 226.548 1001.86 223.444C1076.52 219.818 1132.24 184.931 1208.05 182.44" stroke="#3E3E3E" stroke-miterlimit="10"/>
<path d="M-229.86 176.116C-175.008 175.71 -116.162 179.462 -62.238 173.313C23.2808 163.56 101.859 140.565 186.41 128.881C218.634 124.416 248.262 122.425 279.597 129.665C306.439 135.869 329.197 146.555 350.577 157.169C388.174 175.819 428.706 201.628 481.811 205.682C515.603 208.265 548.926 198.397 577.405 189.599C609.31 179.725 639.487 168.31 671.372 158.442C700.69 149.369 735.281 139.106 770.072 142.232C800.169 144.942 826.312 156.204 848.611 166.917C891.5 187.487 937.415 220.41 1000.92 217.349C1075.91 213.74 1131.94 178.628 1208.08 176.148" stroke="#3E3E3E" stroke-miterlimit="10"/>
<path d="M-229.84 169.912C-174.608 169.522 -115.792 174.267 -61.4885 167.805C22.0731 157.871 98.3649 134.641 180.928 122.754C213.282 118.097 242.351 116.347 273.946 123.379C301.267 129.457 324.874 139.835 347.082 150.258C386.247 168.573 428.197 194.009 481.452 198.809C514.845 201.815 547.578 192.374 575.778 183.636C606.984 173.96 636.392 162.644 667.578 152.956C696.787 143.878 730.709 134.125 765.29 137.597C795.527 140.642 822.209 151.859 845.176 162.424C888.924 182.539 936.477 214.453 999.647 211.409C1075.09 207.772 1131.55 172.424 1208.15 169.928" stroke="#3E3E3E" stroke-miterlimit="10"/>
<path d="M-229.83 163.828C-174.149 163.521 -115.352 169.407 -60.56 162.665C20.9045 152.644 94.7697 129.205 175.206 117.252C207.54 112.436 236.209 110.938 267.964 117.663C295.775 123.555 320.21 133.571 343.327 143.675C384.269 161.574 427.498 186.401 480.952 191.892C545.461 198.523 610.648 164.009 662.924 147.74C692.023 138.678 725.026 129.6 759.308 133.401C789.785 136.785 817.026 147.893 840.782 158.299C885.639 177.942 934.969 208.715 997.979 205.654C1073.98 201.968 1130.98 166.363 1208.13 163.828" stroke="#3E3E3E" stroke-miterlimit="10"/>
<path d="M-229.811 157.871C-173.64 157.701 -114.834 164.849 -59.472 157.871C19.8056 147.844 91.1245 124.295 169.324 112.304C201.548 107.367 229.938 106.138 261.783 112.474C290.102 118.119 315.387 127.691 339.412 137.476C382.132 154.865 426.649 178.864 480.373 185.035C543.903 192.319 606.284 158.804 657.591 142.797C685.961 133.96 719.034 125.052 752.377 129.605C783.333 133.829 810.605 144.07 835.709 154.492C881.854 173.636 933.081 203.164 996.092 200.07C1072.74 196.313 1130.35 160.438 1208.15 157.833" stroke="#3E3E3E" stroke-miterlimit="10"/>
<path d="M-229.79 152.029C-173.09 152.029 -114.224 160.548 -58.2432 153.313C18.7776 143.357 87.4802 119.709 163.373 107.784C295.186 87.0548 363.948 163.582 479.734 178.228C542.146 186.132 601.372 153.823 651.75 138.14C679.99 129.364 711.785 121.371 744.709 126.182C776.054 130.762 803.964 140.779 830.077 151.004C877.66 169.654 930.875 197.838 994.015 194.695C1071.38 190.855 1129.66 154.701 1208.18 152.029" stroke="#3E3E3E" stroke-miterlimit="10"/>
<path d="M-229.771 146.313C-172.522 146.544 -113.555 156.461 -56.9056 149.012C17.8185 139.188 83.8948 115.486 157.421 103.665C286.508 82.9188 365.126 155.776 479.045 171.469C540.378 179.928 596.049 149.051 645.509 133.67C673.629 124.926 704.036 117.987 736.49 123.017C768.255 127.954 796.874 137.718 824.036 147.729C873.146 165.83 928.388 192.66 991.798 189.445C1069.92 185.49 1128.93 149.073 1208.21 146.313" stroke="#3E3E3E" stroke-miterlimit="10"/>
<path d="M-229.75 140.718C-171.932 141.185 -112.846 152.55 -55.487 144.915C16.9503 135.271 80.3204 111.542 151.569 99.8796C277.92 79.1942 366.265 148.069 478.336 164.81C538.571 173.806 590.457 144.448 639.048 129.369C667.069 120.675 695.968 114.849 727.922 120.044C760.127 125.304 789.485 134.854 817.725 144.618C868.413 162.172 925.692 187.602 989.422 184.316C1068.31 180.241 1128.11 143.549 1208.17 140.696" stroke="#343434" stroke-miterlimit="10"/>
<path d="M-229.73 135.244C-171.353 135.952 -112.097 148.771 -53.9796 140.976C16.2209 131.552 76.9747 107.812 145.927 96.3471C269.592 75.7824 367.383 140.521 477.617 158.266C536.763 167.789 584.755 139.994 632.517 125.206C660.418 116.566 687.909 111.887 719.334 117.268C751.988 122.863 782.115 132.172 811.414 141.695C863.689 158.7 922.985 182.726 987.114 179.358C1066.83 175.167 1127.37 138.217 1208.23 135.244" stroke="#343434" stroke-miterlimit="10"/>
<path d="M-229.711 129.896C-170.794 130.839 -111.339 145.079 -52.5521 137.153C15.4915 127.976 73.679 104.24 140.434 93.0009C261.652 72.5953 368.511 133.121 476.957 151.859C535.025 161.897 579.112 135.666 626.096 121.141C653.876 112.556 680.019 109.024 710.846 114.558C743.949 120.494 774.835 129.588 805.182 138.848C858.996 155.271 920.269 177.942 984.837 174.503C1065.35 170.197 1126.64 132.946 1208.29 129.907" stroke="#343434" stroke-miterlimit="10"/>
<path d="M-229.69 124.663C-170.185 125.831 -110.589 141.437 -51.0836 133.401C14.9128 124.487 70.6438 100.768 135.322 89.7701C254.214 69.5509 369.62 125.875 476.249 145.606C533.348 156.171 573.491 131.393 619.825 117.159C647.516 108.656 672.291 106.188 702.598 111.882C736.13 118.157 767.766 127.071 799.101 136.061C854.393 151.92 917.553 173.258 982.571 169.731C1063.85 165.315 1125.85 127.795 1208.25 124.663" stroke="#343434" stroke-miterlimit="10"/>
<path d="M-229.67 119.556C-169.605 120.916 -109.84 137.806 -49.6651 129.687C14.444 121.042 67.8683 97.3234 130.609 86.583C191.473 76.1608 256.221 87.9269 313.071 100.499C367.893 112.628 420.009 128.535 475.65 139.534C532.03 150.68 567.989 127.071 613.974 113.204C675.038 94.8001 737.579 118.14 793.47 133.275C850.099 148.59 915.037 168.655 980.485 165.052C1062.48 160.543 1125.16 122.759 1208.29 119.55" stroke="#343434" stroke-miterlimit="10"/>
<path d="M-229.65 114.564C-169.026 116.083 -109.251 134.141 -48.3075 125.963C14.094 117.581 65.3913 93.8786 126.445 83.3741C186.749 72.9847 253.205 84.2682 310.324 95.782C366.255 107.06 419.489 121.953 475.12 133.67C530.752 145.386 563.246 122.935 608.641 109.265C668.317 91.3005 733.464 116.396 788.386 130.466C846.204 145.277 912.79 164.125 978.597 160.471C1061.23 155.88 1124.53 117.844 1208.27 114.564" stroke="#343434" stroke-miterlimit="10"/>
<path d="M-229.631 109.699C-168.438 111.344 -108.712 130.411 -47.0597 122.183C13.854 114.059 63.2639 90.368 122.7 80.0665C182.545 69.7265 250.518 80.5492 307.897 91.1086C364.816 101.591 419.119 115.59 474.661 128.025C500.864 133.889 520.066 134.13 545.4 126.566C565.991 120.417 583.407 111.487 603.967 105.294C631.399 97.0218 653.248 97.2522 681.977 103.401C716.498 110.801 750.13 119.309 784.002 127.575C842.789 141.881 910.822 159.632 976.929 155.946C1060.13 151.305 1123.96 113.017 1208.3 109.699" stroke="#343434" stroke-miterlimit="10"/>
<path d="M-229.61 104.948C-167.848 106.594 -108.302 126.572 -45.9307 118.316C13.7746 110.412 61.497 86.6325 119.734 76.5942C179.27 66.3311 248.492 76.7039 306.1 86.4679C363.709 96.2319 419.02 109.507 474.382 122.672C499.965 128.755 518.669 129.616 543.783 122.09C563.695 116.122 580.311 107.312 600.173 101.3C627.455 93.0394 648.964 93.9171 677.194 100.269C711.885 108.075 746.037 116.566 780.548 124.602C840.073 138.458 909.435 155.222 975.641 151.525C1059.3 146.857 1123.56 108.338 1208.31 104.998" stroke="#343434" stroke-miterlimit="10"/>
<path d="M-229.591 100.329C-167.249 101.931 -108.043 122.6 -44.9725 114.323C13.8441 106.594 60.0785 82.6335 117.507 72.8915C176.963 62.7929 246.934 72.694 304.901 81.7614C363.339 90.8945 419.13 103.615 474.261 117.504C499.326 123.812 517.82 125.14 542.744 117.614C562.117 111.772 578.064 103.017 597.377 97.1205C624.528 88.832 646.018 90.176 673.818 96.7694C708.559 104.997 743.11 113.511 778.151 121.377C838.066 134.833 908.586 150.729 974.742 147.059C1058.73 142.397 1123.3 103.659 1208.41 100.329" stroke="#2C2B2B" stroke-miterlimit="10"/>
<path d="M-230 95.982C-167.088 97.4243 -108.389 118.428 -44.6178 110.193C13.5912 102.677 58.8283 78.7994 115.569 69.2475C174.837 59.2765 245.728 68.8883 303.848 77.3244C362.885 85.8967 418.927 98.1754 473.801 112.702C498.457 119.233 517.051 120.812 541.846 113.295C560.82 107.542 576.269 98.8503 595.212 93.043C622.265 84.7483 644.054 86.3158 671.526 93.1573C706.198 101.789 741.01 110.296 776.44 117.971C836.537 130.984 907.877 146.049 973.766 142.463C1057.96 137.885 1122.69 99.2422 1208 95.982" stroke="#252525" stroke-miterlimit="10"/>
<path d="M-230 91.2874C-166.768 92.6018 -108.479 114.145 -44.3183 105.712C13.6911 98.0911 58.6585 73.8862 115.22 64.2495C174.428 54.1655 245.638 64.1169 303.778 72.4945C363.025 81.0322 418.887 93.397 473.831 108.203C498.397 114.83 517.251 116.21 541.876 108.633C560.72 102.835 576.069 94.0928 594.913 88.2777C621.875 79.9609 644.064 81.5072 671.276 88.6477C705.798 97.7045 740.65 106.402 776.231 114.112C836.037 127.073 908.307 142.188 973.686 138.411C1057.76 133.562 1122.91 95.0151 1208 91.304" stroke="#252525" stroke-miterlimit="10"/>
<path d="M-230 86.7648C-166.585 88.0044 -108.427 109.545 -44.0731 101.07C13.8854 93.4347 59.1131 69.5962 115.753 60.0849C175 50.1348 246.099 60.4524 304.188 68.8283C363.285 77.3522 418.946 89.6116 474.306 103.621C526.708 116.878 552.68 96.49 595.839 83.7753C622.82 75.8273 645.164 77.2754 672.144 84.3952C706.54 93.4731 741.355 102.09 776.949 109.66C836.447 122.309 909.704 137.393 974.658 133.323C1058.43 128.068 1124.42 91.3394 1209 86.847" stroke="#252525" stroke-miterlimit="10"/>
<path d="M-230 83.1866C-166.394 84.3781 -108.375 106 -43.8194 97.4844C14.1403 89.8327 59.5488 66.331 116.219 56.9412C175.468 47.1033 246.359 57.7775 304.359 66.1506C363.228 74.6495 418.679 86.8103 474.36 100.064C526.324 112.438 553.226 92.4835 596.416 80.3883C623.397 72.8131 645.941 74.2123 672.683 81.3174C706.919 90.412 741.635 98.9327 777.22 106.344C836.479 118.691 910.467 133.562 974.883 129.234C1058.23 123.637 1125.04 88.6303 1209 83.4435" stroke="#252525" stroke-miterlimit="10"/>
<path d="M-229 78.5781C-165.22 79.7378 -107.332 101.555 -42.5832 92.9931C15.2652 85.3452 60.9107 62.0897 117.581 52.7898C176.787 43.1068 247.397 54.0589 305.246 62.4453C363.793 70.9247 419.085 83.0038 474.926 95.5369C526.483 107.096 554.284 87.5662 597.553 76.0233C624.585 68.8186 647.283 70.219 673.805 77.3253C707.827 86.4448 742.449 94.8749 777.948 102.118C837.015 114.181 911.4 128.7 975.33 124.143C1058.21 118.24 1125.74 84.8474 1209 79.0157" stroke="#252525" stroke-miterlimit="10"/>
<path d="M-229 74.8953C-164.949 76.0486 -107.169 98.1209 -42.0899 89.5205C15.7097 81.8866 61.6358 58.8037 118.357 49.6541C177.545 40.1035 247.797 51.3456 305.626 59.7374C363.855 68.1951 418.979 80.1951 475.051 92.0193C526.22 102.811 555 83.7209 598.469 72.7589C625.591 65.9159 648.47 67.3713 674.823 74.4834C708.58 83.685 743.219 91.8728 778.589 99.0106C837.607 110.785 912.203 124.823 975.764 120.039C1058.11 113.872 1126.46 82.0404 1209 75.6312" stroke="#252525" stroke-miterlimit="10"/>
<path d="M-229 70.8088C-164.661 71.9552 -106.902 94.0862 -41.5047 85.5483C16.2438 78.0202 62.4785 55.3815 119.268 46.4723C178.435 37.1919 248.386 48.5413 306.105 56.8445C364.023 65.1641 418.995 76.9284 475.196 87.9175C525.984 97.853 555.802 79.4396 599.53 69.2038C626.782 62.8222 649.829 64.3507 676.032 71.3875C709.585 80.4733 744.098 88.4595 779.386 95.3036C838.433 106.642 913.018 119.837 976.239 114.956C1058.05 108.64 1127.19 78.7299 1209 71.8624" stroke="#252525" stroke-miterlimit="10"/>
<path d="M-229 66.6544C-164.329 67.802 -106.579 90.0407 -40.8104 81.5999C16.8997 74.1924 63.4653 51.9646 120.277 43.3008C179.415 34.2834 248.998 45.7264 306.669 53.9279C364.159 62.0859 419.113 73.6214 475.375 83.7917C525.805 92.9123 556.723 75.1932 600.752 65.6864C628.154 59.7691 651.382 61.4061 677.476 68.4057C710.8 77.3711 745.158 85.1485 780.333 91.6886C839.481 102.566 913.839 114.836 976.791 109.859C1058.04 103.442 1127.92 75.3998 1209 68.1392" stroke="#252525" stroke-miterlimit="10"/>
<path d="M-229 62.8433C-163.97 64.0344 -106.171 86.798 -40.0228 78.2837C17.647 70.9054 64.5517 48.7263 121.423 40.179C180.52 31.3007 249.724 42.9858 307.264 51.2078C364.355 59.3692 419.248 70.8006 475.53 80.3185C525.61 88.7832 557.686 71.4954 602.044 62.5951C629.616 57.0807 653.023 58.8674 679.037 65.9038C712.14 74.8863 746.355 82.5614 781.425 88.8714C840.762 99.4757 914.699 110.863 977.422 105.729C1058.08 99.1117 1128.68 72.5266 1209 64.7844" stroke="#252525" stroke-miterlimit="10"/>
<path d="M-229 59.2651C-163.58 60.4751 -105.79 83.1922 -39.1514 74.8913C18.4792 67.7077 65.7541 46.1569 122.686 37.9705C181.734 29.4843 250.51 41.0717 307.971 49.0947C364.663 57.0141 419.507 68.0293 475.74 76.6409C525.481 84.2714 558.785 67.8821 603.494 59.8428C631.256 54.8557 654.843 56.8124 680.797 63.6581C713.67 72.4016 747.723 79.7558 782.657 85.6558C842.225 95.6572 915.564 105.751 978.108 100.617C1058.17 94.0766 1129.44 69.6044 1209 61.636" stroke="#252525" stroke-miterlimit="10"/>
<path d="M-229 54.9831C-163.172 56.2417 -105.322 79.2683 -38.2653 71.0492C19.3945 64.0066 67.0383 42.742 124.039 34.8075C183.027 26.5994 251.322 38.2276 308.782 46.1621C365.054 53.9434 419.857 64.6851 476.029 72.5267C525.431 79.427 560.033 63.7385 605.11 56.4661C633.071 51.9571 656.828 54.1131 682.762 60.9532C715.395 69.5775 749.277 76.7029 784.061 82.256C843.858 91.783 916.457 100.67 978.86 95.4547C1058.29 88.8499 1130.2 66.1954 1209 57.9216" stroke="#252525" stroke-miterlimit="10"/>
<path d="M-229 51.6956C-162.762 53.0019 -104.843 76.416 -37.1968 68.2751C20.3732 61.3413 68.4163 40.3413 125.477 32.6524C184.395 24.7099 252.221 36.3949 309.551 44.2272C365.413 51.8775 420.177 62.3389 476.229 69.4326C525.321 75.6498 561.291 60.6137 606.718 54.1318C634.878 50.1027 658.825 52.4783 684.769 59.3184C717.155 67.8315 750.856 74.7286 785.469 79.927C845.655 88.9663 917.356 96.5175 979.659 91.2758C1058.47 84.6616 1130.95 63.7609 1209 55.1901" stroke="#252525" stroke-miterlimit="10"/>
<path d="M-229 47.9553C-162.283 49.3272 -104.254 72.7689 -36.1283 64.8494C21.4317 58.165 69.8943 37.7566 126.995 30.4492C185.863 22.9232 253.179 34.4445 310.43 42.0799C365.873 49.4748 420.596 59.4549 476.499 65.691C525.301 71.1566 562.689 57.05 608.455 51.4806C636.826 48.01 660.952 50.6171 686.936 57.3069C719.076 65.5593 752.59 72.1025 787.017 76.8462C847.573 85.2194 918.274 91.2698 980.498 86.0666C1058.69 79.5353 1131.69 60.7884 1209 52.0928" stroke="#2C2B2B" stroke-miterlimit="10"/>
<path d="M-229 44.5383C-161.803 45.9964 -103.674 69.911 -34.9799 62.0849C22.5302 55.5291 71.3822 35.3425 128.583 28.2952C187.371 21.049 254.168 32.6086 311.328 40.1531C366.372 47.4158 421.026 57.0755 476.748 62.5709C525.301 67.3594 564.137 53.9661 610.253 49.1776C638.823 46.2118 663.119 49.1058 689.193 55.8052C721.083 63.937 754.402 70.2296 788.625 74.5834C849.54 82.404 919.163 86.9991 981.357 81.7633C1058.94 75.2407 1132.4 58.2961 1209 49.3323" stroke="#2C2B2B" stroke-miterlimit="10"/>
<path d="M-229 41.7423C-161.334 43.2672 -103.055 67.2427 -33.8314 59.6567C23.6886 53.3543 72.95 33.7505 130.22 27.097C188.929 20.279 255.197 31.6442 312.317 38.9614C366.971 45.9659 421.545 55.0986 477.088 59.761C525.431 63.8145 565.745 51.3797 612.19 47.5017C640.97 45.0937 665.436 48.2422 691.61 54.7969C723.251 62.664 756.376 68.5909 790.382 72.47C851.707 79.5623 920.142 82.5681 982.315 77.4066C1059.21 71.011 1133.11 56.2121 1209 47.1616" stroke="#2C2B2B" stroke-miterlimit="10"/>
<path d="M-229 38.1772C-160.841 39.8012 -102.41 64.227 -32.6136 56.7945C24.9092 50.6479 74.5825 31.2879 131.926 24.9306C190.557 18.4459 256.289 29.7858 313.342 36.9911C367.629 43.8472 422.106 52.5822 477.412 56.4952C525.587 59.9039 567.371 48.2313 614.118 45.1996C643.08 43.3207 667.736 46.7903 694.011 53.3304C725.409 61.0537 758.334 66.6997 792.109 70.152C853.827 76.5979 921.056 78.0334 983.233 72.8567C1059.57 66.505 1133.76 53.6187 1209 44.3405" stroke="#2C2B2B" stroke-miterlimit="10"/>
<path d="M-229 35.3287C-160.348 37.0277 -101.751 61.5855 -31.4017 54.3815C26.1063 48.4847 76.2149 29.6802 133.623 23.7448C192.15 17.677 257.327 28.8362 314.365 35.8086C368.288 42.428 422.641 50.5864 477.713 53.6919C525.794 56.4059 569.002 45.6935 616.105 43.5643C645.274 42.2459 670.028 46.0024 696.551 52.4232C727.703 59.8808 760.425 65.1512 793.952 68.1111C934.751 80.9582 1072.72 59.2853 1209 42.1853" stroke="#2C2B2B" stroke-miterlimit="10"/>
<path d="M-229 32.4948C-159.836 34.2761 -101.068 58.8901 -30.1366 51.957C27.3734 46.3337 77.9131 28.1157 135.393 22.5637C193.822 16.9186 258.452 27.8691 315.373 34.594C368.988 40.9461 423.183 48.526 478.007 50.8115C526.08 52.8339 570.648 43.1384 618.102 41.8779C647.441 41.1106 672.406 45.1663 699.079 51.4527C729.876 58.7586 762.581 63.4172 795.785 65.9931C933.004 76.6422 1076.12 56.8732 1209 39.998" stroke="#2C2B2B" stroke-miterlimit="10"/>
<path d="M-229 29.7275C-159.327 31.6049 -100.379 56.4724 -28.8683 49.7587C28.6517 44.3406 79.6108 26.582 137.161 21.3944C195.49 16.1409 259.56 26.9608 316.421 33.4713C369.747 39.5921 423.752 46.6462 478.326 48.1887C526.489 49.5501 572.315 40.7559 620.129 40.3881C649.638 40.1631 674.763 44.5437 701.646 50.7633C732.243 57.8393 764.728 62.1046 797.652 64.2236C860.375 68.2584 923.976 64.822 986.18 59.8869C1060.82 53.9637 1135.56 47.4641 1209 37.9288" stroke="#2C2B2B" stroke-miterlimit="10"/>
<path d="M-229 26.8363C-159.418 28.7588 -100.551 53.4738 -29.1122 47.3849C28.1769 42.4833 79.2349 25.551 136.334 20.4152C194.053 15.225 256.834 25.5238 313.195 31.7434C367.678 37.7342 422.87 44.4276 478.641 45.2663C528.151 46.0125 576.393 37.7669 625.793 38.7309C655.611 39.3136 680.466 44.6291 707.798 50.5328C736.187 56.6653 766.165 60.1781 796.482 61.8392C861.011 65.3738 925.011 60.1618 988.771 55.2438C1062.37 49.5689 1136.62 45.201 1209 35.7137" stroke="#2C2B2B" stroke-miterlimit="10"/>
<path d="M-229 24.1083C-158.937 26.1386 -99.8297 51.2495 -27.8598 45.3504C29.4405 40.6531 80.909 24.0424 138.099 19.2463C195.699 14.4393 257.983 24.668 314.264 30.7317C368.489 36.5814 423.473 42.8042 478.955 42.8042C528.756 42.8042 578.067 35.5991 627.878 37.4374C657.737 38.5349 682.802 44.198 710.343 50.0203C738.544 55.9797 768.323 59.146 798.381 60.3971C863.121 63.0915 926.014 56.1608 989.765 51.3427C1062.88 45.8168 1137.13 43.4627 1209 33.7827" stroke="#2C2B2B" stroke-miterlimit="10"/>
<path d="M-229 21.3834C-158.406 23.5126 -99.1761 48.8918 -26.5945 43.2086C30.7278 38.7192 82.5975 22.5333 139.87 18.0989C197.352 13.6371 259.148 23.8207 315.402 29.702C369.329 35.3522 424.104 41.0299 479.299 40.2267C529.461 39.4949 579.743 33.3551 629.975 36.0564C659.875 37.6684 685.14 43.6487 712.863 49.3594C740.825 55.1197 770.465 57.92 800.244 58.7508C865.156 60.5718 927.012 51.9727 990.746 47.2743C1063.41 41.9157 1137.55 41.6186 1209 31.7926" stroke="#222222" stroke-miterlimit="10"/>
<path d="M-229 19.6397C-157.917 21.8375 -98.4389 47.397 -25.349 41.9576C31.9825 37.6886 84.2509 21.9638 141.612 17.931C198.974 13.8982 260.27 23.9308 316.373 29.6009C370.169 35.0403 424.684 40.1775 479.579 38.5677C530.18 37.0842 581.32 32.0514 631.971 35.5952C661.93 37.6886 687.375 43.985 715.356 49.5563C743.338 55.1275 772.598 57.523 802.097 57.9406C867.009 58.8691 928.045 48.6717 991.708 44.1114C1063.95 38.9358 1138.03 40.694 1209 30.7383" stroke="#222222" stroke-miterlimit="10"/>
<path d="M-229 16.9537C-157.428 19.2479 -97.7389 44.8126 -24.1292 39.656C33.2326 35.6192 85.8808 20.4606 143.323 16.7898C200.525 13.1354 261.442 23.0444 317.445 28.4906C371.082 33.7018 425.298 38.274 479.924 35.8868C531.024 33.6527 582.923 29.736 634.024 34.0842C663.893 36.6297 689.638 43.2175 717.819 48.6309C745.482 53.9405 774.742 55.9835 803.922 55.9999C868.834 56.0436 929.091 44.3538 992.665 39.94C1064.57 34.9473 1138.47 38.7328 1209 28.6763" stroke="#1E1E1E" stroke-miterlimit="10"/>
<path d="M-229 15C-156.949 17.3687 -97.0816 43.1236 -22.9437 38.168C34.4473 34.3476 87.4742 19.6118 144.985 16.3371C202.126 13.0625 262.433 22.8864 318.446 28.1367C371.972 33.136 425.918 37.1911 480.223 34.0311C531.872 31.0293 584.44 28.2022 636.009 33.3543C665.868 36.3288 691.832 43.2437 720.223 48.5268C747.755 53.6461 776.765 55.3216 805.675 54.9505C870.486 54.1264 930.114 40.9515 993.597 36.6453C1065.09 31.7989 1138.8 37.6168 1209 27.3672" stroke="#1E1E1E" stroke-miterlimit="10"/>
<path d="M-229 13C-156.503 15.4466 -96.4281 41.3353 -21.8039 36.6055C35.6146 32.96 89.0388 18.7216 146.577 15.7627C203.596 12.8311 263.412 22.6231 319.392 27.669C372.816 32.4696 426.49 36.0115 480.484 32.0991C532.709 28.3174 585.924 26.5628 637.85 32.4969C667.678 35.9025 693.861 43.1335 722.5 48.2992C749.861 53.2034 778.72 54.5548 807.38 53.8083C872.018 52.1354 931.134 37.5536 994.504 33.3469C1065.65 28.6226 1139.14 36.4475 1209 26.0124" stroke="#1E1E1E" stroke-miterlimit="10"/>
<path d="M-229 11C-156.102 13.517 -95.8062 39.5292 -20.7011 35.0009C36.7486 31.5326 90.4735 17.7572 148.143 15.1315C205.063 12.5439 264.44 22.2964 320.332 27.1564C373.688 31.8044 427.093 34.8052 480.768 30.1626C533.604 25.5962 587.299 24.8895 639.676 31.576C669.444 35.3814 695.877 42.9214 724.707 47.9553C751.929 52.7066 780.629 53.6905 808.989 52.5924C873.399 50.0972 932.107 34.2072 995.359 30.0648C1066.26 25.4386 1139.45 35.2455 1209 24.5851" stroke="#1E1E1E" stroke-miterlimit="10"/>
<path d="M-229 9C-155.642 11.6297 -95.1861 38.3537 -19.6612 33.9154C37.8389 30.5423 91.8937 16.9001 149.623 14.5479C206.454 12.2344 265.372 22.1872 321.215 26.9917C374.521 31.5798 427.667 34.1318 481.042 28.656C534.418 23.1803 588.643 23.5021 641.429 31.0804C671.128 35.3467 697.821 43.2857 726.811 48.4008C753.773 53.1664 782.513 53.7656 810.524 52.2843C874.675 48.9556 933.054 31.43 996.176 27.258C1066.77 22.5922 1139.75 34.6255 1209 23.4521" stroke="#1E1E1E" stroke-miterlimit="10"/>
<path d="M-229 8C-155.24 10.6751 -94.6522 37.4763 -18.6752 33.2259C38.8069 30.0257 93.1831 16.8435 150.985 14.8039C207.688 12.8031 266.228 22.752 322.013 27.4003C375.291 31.822 428.189 33.8837 481.257 27.7098C535.324 21.4255 589.87 22.7354 643.037 31.0261C672.677 35.6358 699.601 43.8436 728.761 48.8678C755.615 53.494 784.206 53.7593 811.928 51.9851C842.177 50.0451 871.667 45.6012 900.708 40.671C932.046 35.3594 964.292 27.2566 996.938 25.1121C1067.29 20.4858 1140.02 34.464 1209 23.0007" stroke="#1E1E1E" stroke-miterlimit="10"/>
<path d="M-229 6C-154.881 8.71475 -94.1837 35.6415 -17.7679 31.5418C39.7637 28.4519 94.4292 15.6561 152.3 13.9235C208.913 12.2075 267.034 22.2002 322.768 26.7248C376.045 31.0397 428.734 32.6123 481.492 25.7537C536.147 18.6468 591.052 20.9035 644.609 29.8975C674.119 34.8635 701.272 43.3057 730.582 48.2497C757.326 52.7577 785.787 52.7246 813.239 50.6499C843.428 48.3766 872.748 43.554 901.619 38.3176C932.727 32.6785 965.023 24.1701 997.658 22.0126C1067.79 17.3832 1140.29 33.2965 1209 21.4608" stroke="#1E1E1E" stroke-miterlimit="10"/>
<path d="M-229 5C-154.543 7.75587 -93.6872 34.813 -16.9434 30.8391C40.6269 27.8517 95.5509 15.4558 153.471 13.9731C210.002 12.5235 267.733 22.621 323.426 27.0249C376.712 31.2304 429.209 32.3603 481.657 24.8202C536.94 16.8999 592.094 20.0415 646.029 29.7147C675.428 34.9839 702.781 43.6759 732.24 48.5593C758.873 52.9687 787.164 52.6601 814.416 50.3176C844.534 47.727 873.704 42.546 902.424 37.0287C933.322 31.0926 965.657 22.2187 998.292 20.0305C1068.19 15.3455 1140.52 33.176 1209 20.9289" stroke="#151515" stroke-miterlimit="10"/>
<path d="M-229.001 4.14868C-154.237 6.89138 -93.2834 34.0057 -16.2126 30.1439C41.4256 27.2531 96.6274 15.2566 154.605 14.0224C211.075 12.8156 268.444 23.0129 324.075 27.308C377.379 31.4166 429.725 32.1242 481.851 23.9784C537.702 15.2511 592.994 19.2006 647.307 29.4638C676.605 35.0095 704.136 43.8849 733.714 48.701C760.257 53.018 788.447 52.4695 815.438 49.8914C845.516 47.017 874.525 41.5316 903.114 35.7774C933.84 29.5844 966.195 20.4513 998.868 18.2242C1068.63 13.4629 1140.78 33.0896 1208.95 20.4184" stroke="#151515" stroke-miterlimit="10"/>
<path d="M-229.001 3.21606C-153.947 5.95876 -92.9339 33.2431 -15.5635 29.4417C42.0847 26.6113 97.5361 14.9329 155.564 13.8906C211.974 12.8978 268.963 23.2761 324.594 27.5109C377.929 31.57 430.175 31.8992 482.001 23.1225C538.431 13.5615 593.753 18.257 648.465 29.1565C677.634 34.971 705.325 44.0493 735.012 48.8326C761.475 53.1002 789.525 52.3432 816.327 49.5457C846.365 46.4025 875.244 40.6209 903.713 34.6254C934.3 28.1801 966.624 18.811 999.388 16.5236C1069 11.6142 1141.06 33.0895 1208.96 19.8587" stroke="#151515" stroke-miterlimit="10"/>
<path d="M-229.001 2.43713C-154.317 5.17983 -93.5031 32.4642 -16.5821 28.9261C44.2017 26.134 102.958 13.5231 164.291 13.7809C216.727 14.0003 269.343 23.4626 321.139 27.5328C376.171 31.8553 428.846 31.7346 482.141 22.4808C541.237 12.245 596.609 17.6262 653.568 29.7983C679.102 35.2507 703.427 42.6889 729.151 47.7958C756.372 53.1989 786.26 52.6724 814.27 49.6718C846.055 46.2709 876.482 39.7981 906.459 33.2157C936.676 26.5564 968.801 17.1819 1001.38 14.9877C1070.29 10.3745 1141.95 33.1498 1208.95 19.4144" stroke="#151515" stroke-miterlimit="10"/>
<path d="M-229.001 1.82275C-154.107 4.52705 -93.2934 31.9924 -16.1627 28.4488C44.6411 25.6513 103.667 13.3366 164.981 13.748C217.376 14.1045 269.722 23.8301 321.489 27.9058C376.561 32.2393 429.226 31.8114 482.261 21.9541C541.956 10.8517 597.038 16.8637 654.467 29.6337C679.881 35.2836 704.276 42.7877 730.069 47.9C757.231 53.3086 786.989 52.6723 814.839 49.5018C846.604 45.8869 876.911 39.1344 906.799 32.3764C936.976 25.5526 969.091 16.0738 1001.75 13.7699C1070.53 8.95376 1142.27 33.4351 1208.96 19.0359" stroke="#151515" stroke-miterlimit="10"/>
<path d="M-229.001 1.38403C-153.957 4.04445 -93.1935 31.6744 -15.8431 28.0759C44.9706 25.2455 104.127 13.1941 165.52 13.7371C217.895 14.1979 269.992 24.2362 321.738 28.3447C376.84 32.733 429.585 32.0364 482.281 21.5867C542.555 9.63955 597.198 16.1562 655.116 29.4637C680.47 35.2837 704.925 42.8646 730.738 48.0373C757.88 53.4733 787.378 52.7876 815.209 49.469C879.508 41.7894 937.116 17.747 1002.03 12.8979C1070.69 7.76903 1142.61 33.9014 1208.96 18.7782" stroke="#151515" stroke-miterlimit="10"/>
<path d="M-229.001 1.10498C-153.838 3.71054 -93.0937 31.505 -15.6534 27.8188C45.1703 24.9171 104.526 13.1015 165.889 13.7323C218.275 14.2809 270.141 24.6702 321.868 28.8501C376.99 33.3042 429.915 32.4046 482.311 21.39C543.114 8.60351 597.148 15.4986 655.615 29.3438C680.759 35.2845 705.275 43.156 731.148 48.1258C758.629 53.3972 787.238 52.9694 815.368 49.5026C879.777 41.5597 937.066 17.4953 1002.21 12.2952C1070.78 6.80979 1143.01 34.5384 1208.92 18.6143" stroke="#151515" stroke-miterlimit="10"/>
<path d="M-229.001 1C-153.758 3.52877 -93.1236 31.4878 -15.6035 27.6645C45.2202 24.664 104.656 13.0459 166.139 13.7261C218.535 14.3076 270.201 25.1357 321.918 29.4143C377.04 33.9727 430.244 32.925 482.331 21.3563C543.604 7.73606 596.878 14.878 655.904 29.2498C709.828 42.3708 754.255 57.3075 815.319 49.617C879.897 41.4822 936.916 17.6207 1002.29 12.0037C1070.78 6.11787 1143.39 35.344 1209 18.5862" stroke="#151515" stroke-miterlimit="10"/>
</svg>
