<svg width="14" height="14" viewBox="0 0 14 14" fill="none" xmlns="http://www.w3.org/2000/svg">
<path d="M11.6667 5.25H6.41667C5.77233 5.25 5.25 5.77233 5.25 6.41667V11.6667C5.25 12.311 5.77233 12.8333 6.41667 12.8333H11.6667C12.311 12.8333 12.8333 12.311 12.8333 11.6667V6.41667C12.8333 5.77233 12.311 5.25 11.6667 5.25Z" stroke="black" stroke-width="1.5" stroke-linecap="round" stroke-linejoin="round"/>
<path d="M2.9165 8.75001H2.33317C2.02375 8.75001 1.72701 8.62709 1.50821 8.4083C1.28942 8.1895 1.1665 7.89276 1.1665 7.58334V2.33334C1.1665 2.02392 1.28942 1.72717 1.50821 1.50838C1.72701 1.28959 2.02375 1.16667 2.33317 1.16667H7.58317C7.89259 1.16667 8.18934 1.28959 8.40813 1.50838C8.62692 1.72717 8.74984 2.02392 8.74984 2.33334V2.91667" stroke="black" stroke-width="1.5" stroke-linecap="round" stroke-linejoin="round"/>
</svg>
