<svg width="545" height="330" viewBox="0 0 545 330" fill="none" xmlns="http://www.w3.org/2000/svg">
<path d="M31.6641 221V222.5H32.8705L33.1292 221.322L31.6641 221ZM37.0641 196.4V194.9H35.8576L35.5989 196.078L37.0641 196.4ZM84.6641 196.4L86.1292 196.078L85.8705 194.9H84.6641V196.4ZM90.0641 221L88.599 221.322L88.8576 222.5H90.0641V221ZM117.664 221V222.5H119.539L119.127 220.671L117.664 221ZM87.0641 85L88.5275 84.6707L88.2641 83.5H87.0641V85ZM34.6641 85V83.5H33.4641L33.2006 84.6707L34.6641 85ZM4.06406 221L2.60065 220.671L2.18906 222.5H4.06406V221ZM65.6641 107.8L67.131 107.487L66.8775 106.3H65.6641V107.8ZM79.4641 172.4V173.9H81.3183L80.931 172.087L79.4641 172.4ZM42.2641 172.4L40.7972 172.087L40.4098 173.9H42.2641V172.4ZM56.0641 107.8V106.3H54.8507L54.5972 107.487L56.0641 107.8ZM33.1292 221.322L38.5292 196.722L35.5989 196.078L30.1989 220.678L33.1292 221.322ZM37.0641 197.9H84.6641V194.9H37.0641V197.9ZM83.1989 196.722L88.599 221.322L91.5292 220.678L86.1292 196.078L83.1989 196.722ZM90.0641 222.5H117.664V219.5H90.0641V222.5ZM119.127 220.671L88.5275 84.6707L85.6007 85.3293L116.201 221.329L119.127 220.671ZM87.0641 83.5H34.6641V86.5H87.0641V83.5ZM33.2006 84.6707L2.60065 220.671L5.52748 221.329L36.1275 85.3293L33.2006 84.6707ZM4.06406 222.5H31.6641V219.5H4.06406V222.5ZM64.1972 108.113L77.9972 172.713L80.931 172.087L67.131 107.487L64.1972 108.113ZM79.4641 170.9H42.2641V173.9H79.4641V170.9ZM43.731 172.713L57.531 108.113L54.5972 107.487L40.7972 172.087L43.731 172.713ZM56.0641 109.3H65.6641V106.3H56.0641V109.3ZM163.377 221V222.5H164.877V221H163.377ZM163.377 85H164.877V83.5H163.377V85ZM135.777 85V83.5H134.277V85H135.777ZM135.777 221H134.277V222.5H135.777V221ZM164.877 221V85H161.877V221H164.877ZM163.377 83.5H135.777V86.5H163.377V83.5ZM134.277 85V221H137.277V85H134.277ZM135.777 222.5H163.377V219.5H135.777V222.5ZM193.003 221H191.503V222.5H193.003V221ZM193.003 85V83.5H191.503V85H193.003ZM268.203 89L267.699 90.4126L267.706 90.4154L268.203 89ZM285.803 101.2L284.607 102.105L284.619 102.121L284.632 102.137L285.803 101.2ZM294.403 121.6L292.926 121.862L292.926 121.862L294.403 121.6ZM294.603 180.6L296.086 180.828L296.086 180.825L294.603 180.6ZM286.403 202.6L285.168 201.749L285.161 201.758L285.155 201.768L286.403 202.6ZM269.003 216.4L269.564 217.791L269.575 217.787L269.585 217.782L269.003 216.4ZM267.803 167L269.298 167.129L269.299 167.111L269.3 167.094L267.803 167ZM268.003 159.4L266.505 159.332L266.503 159.366V159.4H268.003ZM267.403 131.2L265.913 131.375L265.914 131.38L267.403 131.2ZM263.603 118.8L262.281 119.508L262.281 119.508L263.603 118.8ZM254.803 111.2L254.271 112.602L254.293 112.611L254.314 112.618L254.803 111.2ZM220.603 109V107.5H219.103V109H220.603ZM220.603 197H219.103V198.5H220.603V197ZM260.003 190.2L258.896 189.188L258.895 189.189L260.003 190.2ZM238.803 219.5H193.003V222.5H238.803V219.5ZM194.503 221V85H191.503V221H194.503ZM193.003 86.5H238.803V83.5H193.003V86.5ZM238.803 86.5C250.846 86.5 260.456 87.8259 267.699 90.4126L268.708 87.5874C261.017 84.8407 251.027 83.5 238.803 83.5V86.5ZM267.706 90.4154C275.078 93.0018 280.681 96.9122 284.607 102.105L287 100.295C282.659 94.5544 276.528 90.3315 268.7 87.5846L267.706 90.4154ZM284.632 102.137C288.71 107.234 291.493 113.786 292.926 121.862L295.88 121.338C294.38 112.88 291.43 105.832 286.974 100.263L284.632 102.137ZM292.926 121.862C294.373 130.019 295.103 139.661 295.103 150.8H298.103C298.103 139.539 297.366 129.714 295.88 121.338L292.926 121.862ZM295.103 150.8C295.103 161.809 294.44 171.665 293.12 180.375L296.086 180.825C297.433 171.935 298.103 161.925 298.103 150.8H295.103ZM293.121 180.372C291.815 188.86 289.149 195.969 285.168 201.749L287.638 203.451C291.924 197.231 294.725 189.673 296.086 180.828L293.121 180.372ZM285.155 201.768C281.341 207.489 275.79 211.915 268.421 215.018L269.585 217.782C277.416 214.485 283.465 209.711 287.651 203.432L285.155 201.768ZM268.442 215.009C261.089 217.976 251.235 219.5 238.803 219.5V222.5C251.437 222.5 261.717 220.957 269.564 217.791L268.442 215.009ZM269.3 167.094C269.436 164.92 269.503 162.354 269.503 159.4H266.503C266.503 162.313 266.437 164.813 266.306 166.906L269.3 167.094ZM269.502 159.468C269.636 156.506 269.703 153.083 269.703 149.2H266.703C266.703 153.051 266.637 156.427 266.505 159.332L269.502 159.468ZM269.703 149.2C269.703 141.576 269.436 135.507 268.892 131.019L265.914 131.38C266.437 135.693 266.703 141.624 266.703 149.2H269.703ZM268.893 131.025C268.339 126.319 267.021 122.003 264.925 118.092L262.281 119.508C264.185 123.064 265.4 127.014 265.913 131.375L268.893 131.025ZM264.925 118.092C262.754 114.038 259.53 111.243 255.292 109.782L254.314 112.618C257.81 113.823 260.452 116.095 262.281 119.508L264.925 118.092ZM255.335 109.797C251.224 108.238 245.683 107.5 238.803 107.5V110.5C245.523 110.5 250.649 111.229 254.271 112.602L255.335 109.797ZM238.803 107.5H220.603V110.5H238.803V107.5ZM219.103 109V197H222.103V109H219.103ZM220.603 198.5H238.803V195.5H220.603V198.5ZM238.803 198.5C248.968 198.5 256.558 196.205 261.112 191.211L258.895 189.189C255.182 193.261 248.639 195.5 238.803 195.5V198.5ZM261.11 191.212C265.71 186.181 268.354 178.046 269.298 167.129L266.309 166.871C265.385 177.554 262.83 184.885 258.896 189.188L261.11 191.212ZM344.542 219.2L343.99 220.595L343.999 220.598L344.542 219.2ZM327.142 206.6L325.952 207.513L325.964 207.529L325.976 207.544L327.142 206.6ZM317.542 184.8L319.005 184.468L319.005 184.468L317.542 184.8ZM317.542 122.4L319.005 122.732L319.006 122.728L317.542 122.4ZM327.142 100.2L325.945 99.2957L325.942 99.3L327.142 100.2ZM344.542 87L345.095 88.3945L345.101 88.3919L345.108 88.3891L344.542 87ZM397.142 87L396.567 88.3854L396.583 88.3919L396.599 88.398L397.142 87ZM414.542 100.2L413.333 101.087L413.344 101.102L413.355 101.117L414.542 100.2ZM424.342 122.4L422.878 122.728L422.879 122.732L424.342 122.4ZM424.942 182L423.467 181.728L423.465 181.737L423.464 181.746L424.942 182ZM416.342 204L415.111 203.143L415.104 203.153L415.098 203.162L416.342 204ZM399.142 218.4L399.772 219.761L399.783 219.756L399.142 218.4ZM348.942 188.8L350.258 188.08L350.253 188.071L350.248 188.061L348.942 188.8ZM384.342 197L384.971 198.362L384.982 198.357L384.993 198.352L384.342 197ZM392.942 189L391.66 188.222L391.656 188.228L391.652 188.235L392.942 189ZM397.542 174.8L396.061 174.564L396.059 174.578L396.057 174.593L397.542 174.8ZM392.942 117.8L394.256 117.075L394.256 117.075L392.942 117.8ZM384.342 109.4L383.652 110.732L383.671 110.742L383.691 110.751L384.342 109.4ZM357.542 109.4L358.193 110.751L358.213 110.742L358.233 110.732L357.542 109.4ZM348.942 117.8L347.629 117.075L347.629 117.075L348.942 117.8ZM370.942 221.9C360.668 221.9 352.064 220.516 345.086 217.802L343.999 220.598C351.42 223.484 360.417 224.9 370.942 224.9V221.9ZM345.095 217.805C338.254 215.095 332.67 211.045 328.308 205.656L325.976 207.544C330.681 213.355 336.697 217.705 343.99 220.595L345.095 217.805ZM328.332 205.687C324.092 200.162 320.969 193.108 319.005 184.468L316.079 185.132C318.116 194.092 321.392 201.571 325.952 207.513L328.332 205.687ZM319.005 184.468C317.036 175.806 316.042 165.522 316.042 153.6H313.042C313.042 165.678 314.048 176.194 316.079 185.132L319.005 184.468ZM316.042 153.6C316.042 141.678 317.036 131.394 319.005 122.732L316.079 122.068C314.048 131.006 313.042 141.522 313.042 153.6H316.042ZM319.006 122.728C320.971 113.952 324.097 106.76 328.342 101.1L325.942 99.3C321.387 105.373 318.114 112.982 316.078 122.072L319.006 122.728ZM328.339 101.104C332.705 95.3261 338.281 91.0944 345.095 88.3945L343.99 85.6055C336.67 88.5056 330.646 93.0739 325.945 99.2957L328.339 101.104ZM345.108 88.3891C352.079 85.5492 360.674 84.1 370.942 84.1V81.1C360.41 81.1 351.405 82.5841 343.976 85.6109L345.108 88.3891ZM370.942 84.1C381.211 84.1 389.736 85.5496 396.567 88.3854L397.717 85.6146C390.416 82.5837 381.473 81.1 370.942 81.1V84.1ZM396.599 88.398C403.543 91.0987 409.108 95.3264 413.333 101.087L415.752 99.3129C411.176 93.0736 405.141 88.5013 397.686 85.602L396.599 88.398ZM413.355 101.117C417.727 106.774 420.915 113.96 422.878 122.728L425.806 122.072C423.769 112.974 420.425 105.359 415.729 99.2828L413.355 101.117ZM422.879 122.732C424.848 131.394 425.842 141.678 425.842 153.6H428.842C428.842 141.522 427.836 131.006 425.805 122.068L422.879 122.732ZM425.842 153.6C425.842 163.79 425.048 173.164 423.467 181.728L426.417 182.272C428.036 173.503 428.842 163.943 428.842 153.6H425.842ZM423.464 181.746C422.029 190.097 419.234 197.217 415.111 203.143L417.574 204.857C421.984 198.516 424.923 190.97 426.421 182.254L423.464 181.746ZM415.098 203.162C411.13 209.05 405.615 213.681 398.501 217.044L399.783 219.756C407.336 216.186 413.288 211.217 417.586 204.838L415.098 203.162ZM398.512 217.039C391.579 220.248 382.417 221.9 370.942 221.9V224.9C382.667 224.9 392.305 223.218 399.772 219.761L398.512 217.039ZM347.626 189.52C351.845 197.23 359.808 200.9 370.942 200.9V197.9C360.476 197.9 353.773 194.503 350.258 188.08L347.626 189.52ZM370.942 200.9C376.539 200.9 381.241 200.083 384.971 198.362L383.714 195.638C380.51 197.117 376.279 197.9 370.942 197.9V200.9ZM384.993 198.352C388.872 196.484 391.956 193.606 394.233 189.765L391.652 188.235C389.662 191.594 387.012 194.05 383.691 195.648L384.993 198.352ZM394.224 189.778C396.625 185.824 398.208 180.88 399.028 175.007L396.057 174.593C395.276 180.186 393.792 184.71 391.66 188.222L394.224 189.778ZM399.024 175.036C399.973 169.068 400.442 161.917 400.442 153.6H397.442C397.442 161.816 396.978 168.799 396.061 174.564L399.024 175.036ZM400.442 153.6C400.442 145.282 399.973 138.132 399.024 132.164L396.061 132.636C396.978 138.401 397.442 145.384 397.442 153.6H400.442ZM399.024 132.164C398.072 126.182 396.496 121.136 394.256 117.075L391.629 118.525C393.655 122.197 395.146 126.885 396.061 132.636L399.024 132.164ZM394.256 117.075C391.988 112.966 388.903 109.931 384.993 108.048L383.691 110.751C386.981 112.336 389.629 114.901 391.629 118.525L394.256 117.075ZM385.033 108.068C381.163 106.062 376.443 105.1 370.942 105.1V108.1C376.108 108.1 380.322 109.005 383.652 110.732L385.033 108.068ZM370.942 105.1C365.441 105.1 360.722 106.062 356.852 108.068L358.233 110.732C361.563 109.005 365.776 108.1 370.942 108.1V105.1ZM356.891 108.048C352.981 109.931 349.896 112.966 347.629 117.075L350.256 118.525C352.255 114.901 354.903 112.336 358.193 110.751L356.891 108.048ZM347.629 117.075C345.388 121.136 343.813 126.182 342.861 132.164L345.824 132.636C346.738 126.885 348.229 122.197 350.256 118.525L347.629 117.075ZM342.861 132.164C341.911 138.132 341.442 145.282 341.442 153.6H344.442C344.442 145.384 344.906 138.401 345.824 132.636L342.861 132.164ZM341.442 153.6C341.442 170.045 343.434 182.114 347.637 189.539L350.248 188.061C346.45 181.352 344.442 169.955 344.442 153.6H341.442ZM476.411 130.8L475.612 132.069L475.639 132.086L475.667 132.102L476.411 130.8ZM485.411 135L484.831 136.383L484.85 136.391L484.869 136.399L485.411 135ZM501.811 140.6L502.268 139.171L502.26 139.169L501.811 140.6ZM518.611 147.2L519.282 145.858L519.282 145.858L518.611 147.2ZM529.611 155.2L528.503 156.211L528.514 156.224L528.526 156.236L529.611 155.2ZM535.611 165.6L534.174 166.031L534.181 166.053L534.188 166.074L535.611 165.6ZM534.211 199L535.591 199.587L535.597 199.575L534.211 199ZM524.611 212.4L525.596 213.531L525.596 213.531L524.611 212.4ZM509.811 220.6L510.275 222.026L510.275 222.026L509.811 220.6ZM452.411 218.6L452.723 217.133L452.71 217.13L452.697 217.128L452.411 218.6ZM445.211 217.2L443.724 217.005L443.541 218.403L444.925 218.672L445.211 217.2ZM448.011 195.8L448.211 194.313L446.719 194.113L446.524 195.605L448.011 195.8ZM505.411 171.8L506.311 170.6L506.288 170.583L506.265 170.567L505.411 171.8ZM485.811 164L485.389 165.439L485.391 165.44L485.811 164ZM466.011 157L465.367 158.355L465.388 158.364L465.408 158.373L466.011 157ZM453.011 148.4L451.95 149.461L451.961 149.471L451.972 149.482L453.011 148.4ZM445.811 137.2L447.225 136.698L447.225 136.698L445.811 137.2ZM455.811 92.6L456.75 93.7694L456.753 93.7676L455.811 92.6ZM527.611 86.6L527.897 85.1276L527.884 85.1249L527.87 85.1226L527.611 86.6ZM534.811 88L536.303 88.1506L536.441 86.7888L535.097 86.5276L534.811 88ZM532.611 109.8L532.443 111.291L533.951 111.46L534.103 109.951L532.611 109.8ZM508.411 107.4L508.289 108.895L508.291 108.895L508.411 107.4ZM492.811 105.1C485.427 105.1 479.627 106.311 475.634 108.948C471.532 111.658 469.511 115.757 469.511 121H472.511C472.511 116.643 474.123 113.542 477.288 111.452C480.561 109.289 485.662 108.1 492.811 108.1V105.1ZM469.511 121C469.511 125.78 471.574 129.527 475.612 132.069L477.21 129.531C474.048 127.54 472.511 124.753 472.511 121H469.511ZM475.667 132.102C477.617 133.217 480.688 134.646 484.831 136.383L485.991 133.617C481.867 131.887 478.938 130.516 477.155 129.498L475.667 132.102ZM484.869 136.399C489.046 138.016 494.547 139.893 501.362 142.031L502.26 139.169C495.475 137.04 490.043 135.184 485.952 133.601L484.869 136.399ZM501.354 142.029C507.973 144.147 513.496 146.32 517.94 148.542L519.282 145.858C514.659 143.547 508.983 141.32 502.268 139.171L501.354 142.029ZM517.94 148.542C522.344 150.744 525.851 153.307 528.503 156.211L530.719 154.189C527.77 150.96 523.945 148.19 519.282 145.858L517.94 148.542ZM528.526 156.236C531.158 158.993 533.04 162.25 534.174 166.031L537.048 165.169C535.782 160.95 533.664 157.274 530.696 154.164L528.526 156.236ZM534.188 166.074C535.457 169.881 536.111 174.512 536.111 180H539.111C539.111 174.288 538.432 169.319 537.034 165.126L534.188 166.074ZM536.111 180C536.111 187.044 535.002 193.176 532.825 198.425L535.597 199.575C537.953 193.891 539.111 187.356 539.111 180H536.111ZM532.83 198.413C530.647 203.55 527.578 207.827 523.626 211.269L525.596 213.531C529.911 209.773 533.241 205.117 535.591 199.587L532.83 198.413ZM523.626 211.269C519.659 214.724 514.908 217.363 509.347 219.174L510.275 222.026C516.181 220.104 521.296 217.276 525.596 213.531L523.626 211.269ZM509.347 219.174C503.786 220.984 497.546 221.9 490.611 221.9V224.9C497.809 224.9 504.369 223.949 510.275 222.026L509.347 219.174ZM490.611 221.9C480.353 221.9 467.731 220.32 452.723 217.133L452.099 220.067C467.224 223.28 480.069 224.9 490.611 224.9V221.9ZM452.697 217.128L445.497 215.728L444.925 218.672L452.125 220.072L452.697 217.128ZM446.698 217.395L449.498 195.995L446.524 195.605L443.724 217.005L446.698 217.395ZM447.811 197.287C465.696 199.689 479.442 200.9 489.011 200.9V197.9C479.646 197.9 466.059 196.711 448.211 194.313L447.811 197.287ZM489.011 200.9C496.248 200.9 501.955 199.404 505.869 196.154C509.837 192.86 511.711 187.979 511.711 181.8H508.711C508.711 187.354 507.052 191.273 503.953 193.846C500.8 196.463 495.907 197.9 489.011 197.9V200.9ZM511.711 181.8C511.711 177.098 509.917 173.305 506.311 170.6L504.511 173C507.305 175.095 508.711 177.969 508.711 181.8H511.711ZM506.265 170.567C502.578 168.014 495.832 165.36 486.231 162.56L485.391 165.44C494.99 168.24 501.31 170.786 504.557 173.033L506.265 170.567ZM486.233 162.561C478.541 160.306 472.005 157.994 466.614 155.627L465.408 158.373C470.95 160.806 477.614 163.16 485.389 165.439L486.233 162.561ZM466.655 155.645C461.428 153.163 457.24 150.38 454.05 147.318L451.972 149.482C455.449 152.82 459.927 155.771 465.367 158.355L466.655 155.645ZM454.072 147.339C450.884 144.152 448.611 140.606 447.225 136.698L444.397 137.702C445.944 142.061 448.471 145.982 451.95 149.461L454.072 147.339ZM447.225 136.698C445.826 132.757 445.111 128.198 445.111 123H442.111C442.111 128.469 442.863 133.377 444.397 137.702L447.225 136.698ZM445.111 123C445.111 109.566 449.077 99.9335 456.75 93.7694L454.872 91.4306C446.279 98.3332 442.111 108.967 442.111 123H445.111ZM456.753 93.7676C464.669 87.3834 475.695 84.1 490.011 84.1V81.1C475.26 81.1 463.486 84.4833 454.869 91.4324L456.753 93.7676ZM490.011 84.1C494.879 84.1 500.425 84.4291 506.652 85.0916L506.97 82.1084C500.664 81.4376 495.009 81.1 490.011 81.1V84.1ZM506.652 85.0916C512.879 85.754 519.778 86.7487 527.352 88.0774L527.87 85.1226C520.244 83.7846 513.276 82.7793 506.97 82.1084L506.652 85.0916ZM527.325 88.0724L534.525 89.4724L535.097 86.5276L527.897 85.1276L527.325 88.0724ZM533.319 87.8494L531.119 109.649L534.103 109.951L536.303 88.1506L533.319 87.8494ZM532.779 108.309C523.302 107.242 515.219 106.44 508.531 105.905L508.291 108.895C514.937 109.427 522.986 110.225 532.443 111.291L532.779 108.309ZM508.533 105.905C501.983 105.37 496.737 105.1 492.811 105.1V108.1C496.619 108.1 501.772 108.363 508.289 108.895L508.533 105.905Z" fill="#008471"/>
</svg>
