<svg width="720" height="139" viewBox="0 0 720 139" fill="none" xmlns="http://www.w3.org/2000/svg">
<path d="M28.1578 83.8L28.0498 82.8059L27.1578 82.9028V83.8H28.1578ZM46.5578 81.8L47.4796 81.4122L47.1906 80.7253L46.4498 80.8059L46.5578 81.8ZM69.3578 136L68.4361 136.388L68.6936 137H69.3578V136ZM101.158 136V137H102.702L102.07 135.591L101.158 136ZM70.7578 68.2L69.8405 67.8019L69.6648 68.2066L69.8453 68.6091L70.7578 68.2ZM100.358 -1.43051e-06L101.275 0.398134L101.882 -1H100.358V-1.43051e-06ZM68.9578 -1.43051e-06V-1H68.2729L68.0254 -0.361358L68.9578 -1.43051e-06ZM46.5578 57.8L46.6659 58.7941L47.2705 58.7284L47.4902 58.1613L46.5578 57.8ZM28.1578 59.8H27.1578V60.9146L28.2659 60.7941L28.1578 59.8ZM28.1578 -1.43051e-06H29.1578V-1H28.1578V-1.43051e-06ZM0.557813 -1.43051e-06V-1H-0.442187V-1.43051e-06H0.557813ZM0.557813 136H-0.442187V137H0.557813V136ZM28.1578 136V137H29.1578V136H28.1578ZM28.2659 84.7941L46.6659 82.7941L46.4498 80.8059L28.0498 82.8059L28.2659 84.7941ZM45.6361 82.1877L68.4361 136.388L70.2796 135.612L47.4796 81.4122L45.6361 82.1877ZM69.3578 137H101.158V135H69.3578V137ZM102.07 135.591L71.6703 67.7909L69.8453 68.6091L100.245 136.409L102.07 135.591ZM71.6751 68.5981L101.275 0.398134L99.4405 -0.398137L69.8405 67.8019L71.6751 68.5981ZM100.358 -1H68.9578V0.999999H100.358V-1ZM68.0254 -0.361358L45.6254 57.4386L47.4902 58.1613L69.8902 0.361355L68.0254 -0.361358ZM46.4498 56.8058L28.0498 58.8059L28.2659 60.7941L46.6659 58.7941L46.4498 56.8058ZM29.1578 59.8V-1.43051e-06H27.1578V59.8H29.1578ZM28.1578 -1H0.557813V0.999999H28.1578V-1ZM-0.442187 -1.43051e-06V136H1.55781V-1.43051e-06H-0.442187ZM0.557813 137H28.1578V135H0.557813V137ZM29.1578 136V83.8H27.1578V136H29.1578ZM145.513 -1.43051e-06H146.513V-1H145.513V-1.43051e-06ZM193.913 -1.43051e-06V-1H192.913V-1.43051e-06H193.913ZM221.513 -1.43051e-06H222.513V-1H221.513V-1.43051e-06ZM208.713 126.8L208.041 126.059L208.041 126.059L208.713 126.8ZM130.712 126.8L130.041 127.541L130.041 127.541L130.712 126.8ZM117.913 -1.43051e-06V-1H116.913V-1.43051e-06H117.913ZM144.513 -1.43051e-06V90.6H146.513V-1.43051e-06H144.513ZM144.513 90.6C144.513 98.6917 146.571 104.943 150.861 109.163C155.149 113.38 161.496 115.4 169.713 115.4V113.4C161.796 113.4 156.043 111.454 152.264 107.737C148.488 104.023 146.513 98.3749 146.513 90.6H144.513ZM169.713 115.4C177.929 115.4 184.276 113.38 188.564 109.163C192.854 104.943 194.913 98.6917 194.913 90.6H192.913C192.913 98.3749 190.937 104.023 187.161 107.737C183.382 111.454 177.629 113.4 169.713 113.4V115.4ZM194.913 90.6V-1.43051e-06H192.913V90.6H194.913ZM193.913 0.999999H221.513V-1H193.913V0.999999ZM220.513 -1.43051e-06V90H222.513V-1.43051e-06H220.513ZM220.513 90C220.513 106.649 216.284 118.588 208.041 126.059L209.384 127.541C218.207 119.545 222.513 106.951 222.513 90H220.513ZM208.041 126.059C199.767 133.558 187.055 137.4 169.713 137.4V139.4C187.303 139.4 200.592 135.509 209.384 127.541L208.041 126.059ZM169.713 137.4C152.37 137.4 139.658 133.558 131.384 126.059L130.041 127.541C138.833 135.509 152.122 139.4 169.713 139.4V137.4ZM131.384 126.059C123.141 118.588 118.913 106.649 118.913 90H116.913C116.913 106.951 121.218 119.545 130.041 127.541L131.384 126.059ZM118.913 90V-1.43051e-06H116.913V90H118.913ZM117.913 0.999999H145.513V-1H117.913V0.999999ZM277.572 136V137H278.572V136H277.572ZM277.572 24V23H276.572V24H277.572ZM279.572 24L280.529 23.7095L280.313 23H279.572V24ZM313.572 136L312.615 136.29L312.83 137H313.572V136ZM358.972 136V137H359.972V136H358.972ZM358.972 -1.43051e-06H359.972V-1H358.972V-1.43051e-06ZM331.372 -1.43051e-06V-1H330.372V-1.43051e-06H331.372ZM331.372 112V113H332.372V112H331.372ZM329.372 112L328.412 112.281L328.623 113H329.372V112ZM296.572 -1.43051e-06L297.532 -0.281054L297.321 -1H296.572V-1.43051e-06ZM249.972 -1.43051e-06V-1H248.972V-1.43051e-06H249.972ZM249.972 136H248.972V137H249.972V136ZM278.572 136V24H276.572V136H278.572ZM277.572 25H279.572V23H277.572V25ZM278.615 24.2905L312.615 136.29L314.529 135.71L280.529 23.7095L278.615 24.2905ZM313.572 137H358.972V135H313.572V137ZM359.972 136V-1.43051e-06H357.972V136H359.972ZM358.972 -1H331.372V0.999999H358.972V-1ZM330.372 -1.43051e-06V112H332.372V-1.43051e-06H330.372ZM331.372 111H329.372V113H331.372V111ZM330.332 111.719L297.532 -0.281054L295.612 0.281051L328.412 112.281L330.332 111.719ZM296.572 -1H249.972V0.999999H296.572V-1ZM248.972 -1.43051e-06V136H250.972V-1.43051e-06H248.972ZM249.972 137H277.572V135H249.972V137ZM476.644 136V137H477.644V136H476.644ZM476.644 112H477.644V111H476.644V112ZM416.244 112H415.244V113H416.244V112ZM416.244 79.4V78.4H415.244V79.4H416.244ZM464.644 79.4V80.4H465.644V79.4H464.644ZM464.644 55.8H465.644V54.8H464.644V55.8ZM416.244 55.8H415.244V56.8H416.244V55.8ZM416.244 24V23H415.244V24H416.244ZM476.644 24V25H477.644V24H476.644ZM476.644 -1.43051e-06H477.644V-1H476.644V-1.43051e-06ZM388.644 -1.43051e-06V-1H387.644V-1.43051e-06H388.644ZM388.644 136H387.644V137H388.644V136ZM477.644 136V112H475.644V136H477.644ZM476.644 111H416.244V113H476.644V111ZM417.244 112V79.4H415.244V112H417.244ZM416.244 80.4H464.644V78.4H416.244V80.4ZM465.644 79.4V55.8H463.644V79.4H465.644ZM464.644 54.8H416.244V56.8H464.644V54.8ZM417.244 55.8V24H415.244V55.8H417.244ZM416.244 25H476.644V23H416.244V25ZM477.644 24V-1.43051e-06H475.644V24H477.644ZM476.644 -1H388.644V0.999999H476.644V-1ZM387.644 -1.43051e-06V136H389.644V-1.43051e-06H387.644ZM388.644 137H476.644V135H388.644V137ZM587.386 136V137H588.386V136H587.386ZM587.386 112H588.386V111H587.386V112ZM526.986 112H525.986V113H526.986V112ZM526.986 79.4V78.4H525.986V79.4H526.986ZM575.386 79.4V80.4H576.386V79.4H575.386ZM575.386 55.8H576.386V54.8H575.386V55.8ZM526.986 55.8H525.986V56.8H526.986V55.8ZM526.986 24V23H525.986V24H526.986ZM587.386 24V25H588.386V24H587.386ZM587.386 -1.43051e-06H588.386V-1H587.386V-1.43051e-06ZM499.386 -1.43051e-06V-1H498.386V-1.43051e-06H499.386ZM499.386 136H498.386V137H499.386V136ZM588.386 136V112H586.386V136H588.386ZM587.386 111H526.986V113H587.386V111ZM527.986 112V79.4H525.986V112H527.986ZM526.986 80.4H575.386V78.4H526.986V80.4ZM576.386 79.4V55.8H574.386V79.4H576.386ZM575.386 54.8H526.986V56.8H575.386V54.8ZM527.986 55.8V24H525.986V55.8H527.986ZM526.986 25H587.386V23H526.986V25ZM588.386 24V-1.43051e-06H586.386V24H588.386ZM587.386 -1H499.386V0.999999H587.386V-1ZM498.386 -1.43051e-06V136H500.386V-1.43051e-06H498.386ZM499.386 137H587.386V135H499.386V137ZM637.728 136V137H638.728V136H637.728ZM637.728 24V23H636.728V24H637.728ZM639.728 24L640.685 23.7095L640.47 23H639.728V24ZM673.728 136L672.771 136.29L672.987 137H673.728V136ZM719.128 136V137H720.128V136H719.128ZM719.128 -1.43051e-06H720.128V-1H719.128V-1.43051e-06ZM691.528 -1.43051e-06V-1H690.528V-1.43051e-06H691.528ZM691.528 112V113H692.528V112H691.528ZM689.528 112L688.568 112.281L688.779 113H689.528V112ZM656.728 -1.43051e-06L657.688 -0.281054L657.477 -1H656.728V-1.43051e-06ZM610.128 -1.43051e-06V-1H609.128V-1.43051e-06H610.128ZM610.128 136H609.128V137H610.128V136ZM638.728 136V24H636.728V136H638.728ZM637.728 25H639.728V23H637.728V25ZM638.771 24.2905L672.771 136.29L674.685 135.71L640.685 23.7095L638.771 24.2905ZM673.728 137H719.128V135H673.728V137ZM720.128 136V-1.43051e-06H718.128V136H720.128ZM719.128 -1H691.528V0.999999H719.128V-1ZM690.528 -1.43051e-06V112H692.528V-1.43051e-06H690.528ZM691.528 111H689.528V113H691.528V111ZM690.488 111.719L657.688 -0.281054L655.768 0.281051L688.568 112.281L690.488 111.719ZM656.728 -1H610.128V0.999999H656.728V-1ZM609.128 -1.43051e-06V136H611.128V-1.43051e-06H609.128ZM610.128 137H637.728V135H610.128V137Z" fill="#787878"/>
</svg>
