<svg width="368" height="259" viewBox="0 0 368 259" fill="none" xmlns="http://www.w3.org/2000/svg">
<g clip-path="url(#clip0_214_4272)">
<g opacity="0.2">
<g opacity="0.3">
<path d="M329.027 221.229L329.664 220.873L302.745 170.008L302.108 170.364L329.027 221.229Z" fill="#008062"/>
</g>
<g opacity="0.2">
<path d="M66.5494 243.224L100.744 186.231L44.5748 224.203L66.5494 243.224Z" fill="#008062"/>
</g>
<g opacity="0.1">
<path d="M213.251 278.316L259.432 224.945L187.37 169.509L213.251 278.316Z" fill="#008062"/>
</g>
<g opacity="0.1">
<path d="M41.336 311.533L2.0828 329.184L-18.8965 267.107L41.336 311.533Z" fill="#008062"/>
</g>
<path d="M186.438 164.055C184.943 164.389 183.628 165.271 182.752 166.527C181.876 167.783 181.503 169.322 181.706 170.839C181.838 171.559 182.119 172.244 182.531 172.849C182.942 173.454 183.475 173.967 184.095 174.355C184.716 174.743 185.41 174.998 186.135 175.103C186.859 175.207 187.597 175.16 188.302 174.964C189.797 174.63 191.112 173.748 191.988 172.492C192.864 171.236 193.237 169.697 193.034 168.179C192.901 167.459 192.621 166.775 192.209 166.17C191.798 165.564 191.265 165.051 190.645 164.663C190.024 164.275 189.33 164.021 188.605 163.916C187.881 163.811 187.143 163.858 186.438 164.055Z" fill="#008062"/>
<path d="M301.848 166.773C300.912 166.981 300.089 167.531 299.539 168.317C298.99 169.102 298.755 170.064 298.881 171.014C298.964 171.465 299.139 171.893 299.397 172.271C299.654 172.65 299.987 172.971 300.375 173.214C300.763 173.457 301.197 173.617 301.65 173.683C302.103 173.749 302.564 173.72 303.006 173.598C303.941 173.391 304.765 172.84 305.314 172.055C305.863 171.269 306.098 170.307 305.972 169.357C305.888 168.907 305.712 168.48 305.454 168.102C305.197 167.724 304.864 167.404 304.476 167.161C304.089 166.918 303.655 166.758 303.203 166.692C302.75 166.625 302.289 166.652 301.848 166.773Z" fill="#008062"/>
<path d="M65.9646 239.81C65.0306 240.018 64.2084 240.568 63.6606 241.352C63.1129 242.137 62.8795 243.098 63.0066 244.047C63.0894 244.497 63.2649 244.925 63.5221 245.304C63.7792 245.682 64.1123 246.003 64.5002 246.246C64.8881 246.489 65.3223 246.649 65.7753 246.715C66.2282 246.781 66.6899 246.753 67.1311 246.631C68.0655 246.421 68.8877 245.87 69.4365 245.085C69.9854 244.3 70.2212 243.339 70.0978 242.389C70.0132 241.939 69.8361 241.512 69.5778 241.134C69.3194 240.755 68.9855 240.435 68.597 240.193C68.2086 239.95 67.7741 239.791 67.3209 239.725C66.8678 239.66 66.406 239.688 65.9646 239.81Z" fill="#008062"/>
<path d="M329.001 219.004C328.438 219.128 327.941 219.458 327.608 219.93C327.276 220.402 327.132 220.981 327.206 221.553C327.258 221.822 327.365 222.077 327.52 222.303C327.676 222.529 327.875 222.72 328.108 222.865C328.34 223.011 328.599 223.107 328.87 223.147C329.141 223.188 329.417 223.173 329.682 223.103C330.245 222.981 330.74 222.65 331.069 222.177C331.398 221.704 331.536 221.125 331.456 220.555C331.403 220.288 331.296 220.035 331.143 219.811C330.989 219.587 330.791 219.397 330.562 219.252C330.332 219.107 330.075 219.01 329.807 218.967C329.539 218.925 329.265 218.937 329.001 219.004Z" fill="#008062"/>
<path d="M0.351121 211.666C-0.0227355 211.749 -0.352125 211.969 -0.572737 212.282C-0.793349 212.595 -0.88935 212.979 -0.84201 213.359C-0.80714 213.539 -0.735523 213.71 -0.631648 213.86C-0.527773 214.011 -0.39388 214.139 -0.238349 214.236C-0.0828186 214.332 0.0910019 214.396 0.272211 214.422C0.453419 214.448 0.638125 214.437 0.814746 214.389C1.18908 214.307 1.51856 214.086 1.73726 213.772C1.95597 213.457 2.04776 213.071 1.99421 212.692C1.96146 212.512 1.89162 212.342 1.78919 212.191C1.68675 212.04 1.55396 211.912 1.3993 211.816C1.24464 211.719 1.07151 211.656 0.891023 211.63C0.710532 211.604 0.526653 211.616 0.351121 211.666Z" fill="#008062"/>
<path d="M184.409 238.041C184.034 238.125 183.705 238.347 183.485 238.662C183.265 238.976 183.171 239.362 183.221 239.743C183.255 239.922 183.327 240.092 183.43 240.242C183.534 240.392 183.668 240.52 183.823 240.615C183.978 240.711 184.152 240.774 184.332 240.8C184.513 240.825 184.697 240.813 184.873 240.764C185.246 240.683 185.576 240.464 185.795 240.151C186.015 239.838 186.108 239.454 186.057 239.075C186.024 238.895 185.954 238.724 185.851 238.573C185.749 238.421 185.616 238.293 185.461 238.196C185.306 238.098 185.132 238.034 184.951 238.008C184.77 237.981 184.585 237.992 184.409 238.041Z" fill="#008062"/>
<path d="M323.205 238.366C323.019 238.407 322.856 238.518 322.748 238.674C322.639 238.831 322.594 239.023 322.62 239.212C322.636 239.301 322.671 239.387 322.722 239.462C322.773 239.538 322.839 239.602 322.916 239.651C322.993 239.7 323.079 239.732 323.169 239.746C323.259 239.76 323.351 239.755 323.439 239.731C323.628 239.691 323.794 239.581 323.904 239.423C324.015 239.265 324.061 239.071 324.034 238.88C324.017 238.79 323.981 238.704 323.93 238.629C323.878 238.553 323.811 238.489 323.733 238.44C323.655 238.392 323.568 238.36 323.477 238.347C323.386 238.334 323.293 238.341 323.205 238.366Z" fill="#008062"/>
<path d="M336.783 184.443C336.597 184.487 336.433 184.598 336.324 184.755C336.214 184.912 336.166 185.104 336.189 185.294C336.206 185.384 336.241 185.47 336.293 185.545C336.345 185.621 336.412 185.685 336.49 185.734C336.568 185.782 336.655 185.814 336.746 185.827C336.836 185.84 336.929 185.833 337.017 185.808C337.205 185.766 337.369 185.656 337.479 185.498C337.589 185.341 337.636 185.148 337.611 184.957C337.593 184.868 337.557 184.783 337.505 184.708C337.453 184.633 337.386 184.569 337.308 184.521C337.231 184.473 337.144 184.441 337.054 184.428C336.963 184.414 336.871 184.419 336.783 184.443Z" fill="#008062"/>
<path d="M289.489 114.685C289.501 114.955 289.567 115.221 289.685 115.465C289.803 115.709 289.969 115.926 290.173 116.104C290.377 116.282 290.615 116.417 290.873 116.5C291.131 116.583 291.403 116.613 291.673 116.588C292.252 116.541 292.794 116.278 293.189 115.851C293.584 115.424 293.804 114.864 293.806 114.282C293.803 114.009 293.742 113.739 293.627 113.49C293.512 113.242 293.346 113.021 293.14 112.841C292.934 112.661 292.692 112.527 292.43 112.448C292.169 112.368 291.893 112.345 291.622 112.379C291.043 112.428 290.503 112.692 290.108 113.118C289.714 113.545 289.493 114.104 289.489 114.685Z" fill="#008062"/>
<path d="M228.832 127.985C227.897 128.192 227.073 128.743 226.524 129.529C225.975 130.314 225.74 131.276 225.866 132.226C225.95 132.676 226.126 133.103 226.384 133.481C226.641 133.859 226.974 134.179 227.362 134.422C227.749 134.665 228.183 134.825 228.635 134.891C229.088 134.958 229.549 134.931 229.99 134.81C230.924 134.6 231.747 134.049 232.295 133.264C232.844 132.48 233.08 131.518 232.957 130.569C232.873 130.119 232.696 129.692 232.439 129.314C232.181 128.936 231.848 128.616 231.461 128.373C231.073 128.13 230.639 127.97 230.187 127.904C229.735 127.837 229.273 127.864 228.832 127.985Z" fill="#008062"/>
<path d="M100.165 182.826C99.2174 183.026 98.381 183.577 97.8229 184.369C97.2647 185.16 97.0261 186.132 97.1547 187.092C97.2386 187.541 97.4147 187.968 97.672 188.345C97.9292 188.722 98.262 189.042 98.6492 189.284C99.0364 189.526 99.4696 189.685 99.9215 189.751C100.373 189.817 100.834 189.789 101.274 189.667C102.217 189.465 103.05 188.914 103.604 188.125C104.159 187.336 104.396 186.367 104.267 185.411C104.184 184.963 104.009 184.537 103.753 184.16C103.498 183.783 103.167 183.463 102.782 183.22C102.396 182.978 101.965 182.817 101.514 182.749C101.064 182.681 100.604 182.707 100.165 182.826Z" fill="#008062"/>
<path d="M258.851 221.539C257.916 221.744 257.093 222.294 256.544 223.079C255.996 223.864 255.764 224.827 255.893 225.776C255.974 226.226 256.149 226.654 256.405 227.033C256.662 227.412 256.995 227.733 257.383 227.976C257.771 228.218 258.205 228.377 258.658 228.442C259.111 228.506 259.573 228.475 260.013 228.351C260.947 228.144 261.769 227.593 262.317 226.809C262.865 226.024 263.098 225.063 262.971 224.114C262.89 223.664 262.715 223.236 262.459 222.857C262.202 222.478 261.869 222.157 261.481 221.914C261.093 221.672 260.659 221.513 260.206 221.449C259.753 221.384 259.292 221.415 258.851 221.539Z" fill="#008062"/>
<path d="M122.331 230.141C121.397 230.348 120.575 230.899 120.027 231.683C119.48 232.468 119.246 233.429 119.373 234.378C119.456 234.828 119.632 235.256 119.889 235.635C120.146 236.013 120.479 236.334 120.867 236.577C121.255 236.82 121.689 236.98 122.142 237.046C122.595 237.112 123.057 237.083 123.498 236.962C124.433 236.753 125.255 236.201 125.802 235.415C126.349 234.628 126.581 233.665 126.451 232.716C126.368 232.267 126.193 231.839 125.936 231.461C125.679 231.083 125.347 230.763 124.959 230.52C124.571 230.278 124.138 230.119 123.685 230.054C123.233 229.989 122.772 230.018 122.331 230.141Z" fill="#008062"/>
<g opacity="0.3">
<path d="M163.938 751.727L181.696 668.924L158.808 642.602L79.4682 649.761L128.922 608.218L100.707 575.768L100.384 575.389L170.833 549.23L136.931 507.05L73.1149 471.737L172.517 443.907L169.277 424.854L106.589 420.275L121.811 445.781L33.0901 414.131L105.306 419.434L41.0375 311.717L40.9775 311.613L66.2115 243.119L66.4002 242.606L135.881 302.951L162.242 286.23L122.365 233.4L223.385 197.732L187.252 169.888L100.867 186.565L-20.1811 268.403L125.222 55.1282L125.449 54.801L229.61 131.114L302.627 169.903L303.32 170.264L224.902 197.919L260.055 224.966L163.245 286.367L189.144 320.685L213.09 277.9L288.41 299.239L225.675 370.319L189.214 322.007L161.084 372.243L169.938 424.219L229.842 428.616L173.382 444.424L178.648 475.424L220.504 531.083L220.791 531.46L172.04 549.56L183.25 563.515L129.949 608.295L159.17 641.908L188.802 639.233L182.471 668.707L218.632 710.299L211.386 757.53L266.92 804.876L267.657 805.513L199.213 804.684L199.096 804.682L107.933 736.903L163.938 751.727ZM265.678 804.785L210.763 757.97L210.626 757.853L217.881 710.56L182.283 669.601L164.564 752.231L164.48 752.626L111.345 738.593L199.347 804.018L265.678 804.785ZM129.387 608.723L81.605 648.862L158.262 641.935L129.387 608.723ZM182.258 563.418L171.306 549.788L101.602 575.678L129.495 607.749L182.258 563.418ZM187.919 639.963L159.734 642.506L181.905 668.007L187.919 639.963ZM219.581 531.143L177.957 475.788L177.922 475.728L172.643 444.585L74.9677 471.926L137.366 506.463L137.391 506.507L171.522 548.982L219.581 531.143ZM105.703 420.221L38.2576 415.282L120.163 444.446L105.703 420.221ZM301.547 170.133L229.144 131.707L125.574 55.7791L-17.5904 265.81L100.577 185.982L100.646 185.942L187.35 169.197L187.479 169.122L224.248 197.407L301.547 170.133ZM160.351 372.273L160.291 372.169L188.717 321.405L162.585 286.783L136.34 303.425L156.674 321.025L87.5107 333.591L135.213 303.394L66.7185 243.877L41.756 311.521L106.219 419.554L169.196 424.174L160.351 372.273ZM135.688 303.836L90.8204 332.303L155.038 320.631L135.688 303.836ZM169.997 424.901L173.2 443.709L225.743 428.996L169.997 424.901ZM258.812 224.933L224.077 198.21L123.49 233.709L162.819 285.828L258.812 224.933ZM287.147 299.61L213.413 278.741L189.627 321.261L225.776 369.153L287.147 299.61Z" fill="#008062"/>
</g>
<path d="M229.483 131.731C250.247 125.956 289.938 115.003 291.644 114.837L291.634 114.139C289.447 114.351 231.794 130.374 229.34 131.063L229.483 131.731Z" fill="#008062"/>
<path d="M-18.8171 267.443C-18.002 267.215 63.1213 244.385 66.5918 243.536L66.4746 242.853C62.9868 243.712 -18.1651 266.513 -19.0036 266.8L-18.8171 267.443Z" fill="#008062"/>
<g opacity="0.8">
<path d="M16.3001 468.108L74.1067 472.192L74.2106 472.132L121.283 445.324L121.331 445.227L161.071 372.239L161.064 372.127L156.261 320.987L213.455 278.59L213.046 278.041L155.504 320.697L160.335 372.144L120.756 444.832L73.9869 471.465L17.2697 467.468L36.0334 414.707L43.4481 352.83L43.2715 352.724L2.3826 328.942L-18.1782 268.09L41.1359 311.845L89.7196 333.574L89.5314 332.829L66.997 243.498L123.067 233.873L123.156 233.787L187.621 169.745L187.126 169.268L122.75 233.225L66.099 242.942L88.6484 332.299L41.5338 311.234L-19.6183 266.116L1.77576 329.431L42.6883 353.234L35.3211 414.634L16.3001 468.108Z" fill="#008062"/>
</g>
<path d="M-35.0917 155.734L66.6241 243.771L100.688 186.992L122.629 233.815L122.726 233.863L213.788 278.987L213.607 278.214L187.77 169.601L229.228 132.029L259.284 225.688L302.811 170.259L291.958 114.24L291.815 114.173L213.42 77.8085L213.073 78.4476L291.32 114.736L302.05 170.121L259.58 224.201L229.595 130.766L186.965 169.408L187.022 169.606L212.718 277.653L123.197 233.279L100.794 185.476L100.436 186.075L66.4728 242.669L-34.5955 155.194L-35.0917 155.734Z" fill="#008062"/>
<path d="M122.898 232.481L156.376 321.106L89.9587 333.148L89.396 333.254L122.898 232.481ZM122.967 234.601L90.4785 332.328L155.405 320.604L122.967 234.601Z" fill="#008062"/>
<path d="M-1.66407 158.015L100.936 186.664L138.03 98.9327L187.063 169.72L187.674 169.298L137.901 97.4486L100.544 185.805L-1.42274 157.333L-1.66407 158.015Z" fill="#008062"/>
<g opacity="0.6">
<path d="M253.585 480.519L227.481 428.964L227.446 428.903L225.337 369.811L212.892 278.396L212.869 278.236L259.168 224.728L259.57 224.265L288.118 299.27L289.273 396.891L226.082 370.281L228.153 428.668L254.323 480.335L254.428 480.517L220.501 531.455L219.915 531.1L253.585 480.519ZM287.419 299.5L259.314 225.66L213.657 278.44L226.054 369.512L288.591 395.83L287.419 299.5Z" fill="#008062"/>
</g>
<path d="M287.458 299.269L288.098 299.557L329.939 220.668L259.437 224.595L259.425 225.295L328.753 221.433L287.458 299.269Z" fill="#008062"/>
<g opacity="0.5">
<path d="M-105.235 231.126L-50.3047 309.847L-18.5504 267.207L-18.5434 267.099L-12.0438 157.657L-12.7557 157.664L-19.2484 266.998L-50.2518 308.639L-104.629 230.695L-105.235 231.126Z" fill="#008062"/>
</g>
</g>
</g>
<defs>
<clipPath id="clip0_214_4272">
<rect width="276.67" height="437.62" fill="white" transform="translate(229.662 0.603516) rotate(60)"/>
</clipPath>
</defs>
</svg>
