<svg width="210" height="220" viewBox="0 0 210 220" fill="none" xmlns="http://www.w3.org/2000/svg">
<g filter="url(#filter0_i_413_3487)">
<path d="M14.9999 62L137.774 11.2769C141.219 10.0432 149.734 8.61209 156.231 12.7574C160.09 15.2199 162.783 17.5989 164.823 20.5299C166.388 20.4065 169.963 20.5299 171.735 22.0103C173.95 23.8609 177.641 25.3414 180.594 33.1138C182.956 39.3318 187.485 55.9377 189.453 63.4634L198.682 111.579C199.543 115.773 201.413 125.865 202.004 132.675C202.742 141.188 203.111 148.59 200.897 155.252C198.682 161.914 190.561 167.096 183.916 170.427C177.272 173.758 140.358 189.303 115.626 198.186C90.8934 207.069 67.6377 216.322 58.7784 218.172C49.9191 220.023 38.1067 221.133 33.677 218.172C33.1759 217.837 29.3751 216.107 28.5091 212.62C23.2502 191.449 15.2823 118.782 9.68302 80.1187L8.57561 73.8267V71.606L8.99992 70L9.68302 68L11.4999 65.5L12.9999 63.5L14.9999 62Z" fill="url(#paint0_linear_413_3487)"/>
</g>
<g filter="url(#filter1_ii_413_3487)">
<path d="M8.46258 75.5778C7.61234 69.2866 11.1102 63.2191 16.976 60.7914L134.365 12.2065C148.474 6.36702 164.377 15.0145 167.146 30.0313L184.269 122.919C186.891 137.143 179.018 151.202 165.511 156.375C124.627 172.031 43.7342 203.049 38.4927 205.378C31.4589 208.503 28.4998 212.5 28.4998 212.5C28.4998 212.5 26.7166 204.486 25.9291 199.292C19.7392 158.47 11.6941 99.4889 8.46258 75.5778Z" fill="url(#paint1_linear_413_3487)"/>
</g>
<g filter="url(#filter2_f_413_3487)">
<path d="M171.599 38.44C169.823 31.0349 167.9 25.7279 167.16 24C170.119 25.481 172.338 29.1836 173.448 30.6646C174.557 32.1457 176.777 40.2913 178.256 44.7344C179.735 49.1775 188.982 96.2002 190.091 101.384C191.201 106.567 194.529 128.783 195.269 134.337C196.009 139.891 195.269 147.296 194.529 150.628C193.79 153.96 187.133 161.365 183.064 164.328C179.809 166.697 150.394 178.15 136.093 183.581C117.847 190.492 79.7272 204.982 73.2178 207.648C65.0811 210.98 54.3554 213.572 49.5473 213.942C44.7392 214.312 43.2598 212.831 43.6297 211.72C43.9995 210.61 51.7664 207.648 56.9444 205.426C62.1223 203.205 103.916 188.024 115.751 183.581C127.586 179.138 160.873 166.549 173.078 161.365C185.283 156.182 184.913 152.85 187.133 148.036C189.352 143.223 188.982 138.78 188.982 132.115C188.982 125.451 186.023 108.419 185.653 106.197C185.357 104.42 179.119 72.1334 176.037 56.2124C175.297 53.3737 173.374 45.8452 171.599 38.44Z" fill="#118158"/>
</g>
<g filter="url(#filter3_ddii_413_3487)">
<path d="M200.53 97.907L193.897 67.5543C193.897 67.0608 193.824 65.8516 193.529 64.9633L193.529 64.963C193.16 63.8524 192.423 61.6318 190.95 60.5214C189.476 59.411 187.265 56.4497 178.791 54.5989C170.316 52.7482 162.21 55.7094 158.525 56.4497C154.841 57.19 144.524 60.8916 138.628 64.9633C132.733 69.035 128.68 74.5873 127.206 78.2888C125.732 81.9903 127.206 89.7636 127.943 92.3547C128.68 94.9457 130.891 99.3876 136.418 102.719C141.945 106.05 152.261 101.609 157.788 99.3876C163.315 97.1667 173.632 93.4651 182.475 94.2054C191.318 94.9457 193.897 97.907 196.477 100.498C199.056 103.089 197.951 105.31 199.424 103.089C200.603 101.312 200.653 98.894 200.53 97.907Z" fill="url(#paint2_linear_413_3487)"/>
</g>
<g filter="url(#filter4_ddi_413_3487)">
<path d="M157.576 81.8219C157.576 87.9954 152.651 93 146.576 93C140.5 93 135.576 87.9954 135.576 81.8219C135.576 75.6484 140.5 69 146.576 69C152.651 69 157.576 71.9589 157.576 81.8219Z" fill="url(#paint3_linear_413_3487)"/>
</g>
<g filter="url(#filter5_f_413_3487)">
<ellipse cx="148.509" cy="83.6645" rx="4.22031" ry="6.66359" transform="rotate(18.2279 148.509 83.6645)" fill="#FFF9F2"/>
</g>
<path d="M49.2555 67.1194C49.2555 67.1194 50.2569 67.3149 50.9829 67.2683C51.0406 67.2641 51.096 67.2441 51.1431 67.2104C51.1902 67.1768 51.2272 67.1307 51.25 67.0773C51.3496 66.8518 51.472 66.4795 51.2234 66.4302C51.1882 66.423 51.1507 66.4147 51.1112 66.4059C50.7463 66.3246 50.1989 66.2027 49.5453 66.6058C48.8208 67.0527 49.1224 67.1159 49.2555 67.1194Z" fill="#16895A"/>
<path d="M44.7036 69.0883C44.7036 69.0883 44.7098 68.856 44.8778 68.8076C44.9265 68.7935 44.9976 68.7646 45.0779 68.7318C45.2744 68.6518 45.5261 68.5493 45.6406 68.5874C45.8018 68.641 45.825 68.944 45.6665 68.9907C45.508 69.0373 44.6713 69.2306 44.7036 69.0883Z" fill="#16895A"/>
<path d="M27.5754 86.0209C27.6529 86.5997 28.1138 86.4375 28.1138 86.4375C28.2062 86.4242 28.2667 86.291 28.3401 86.1292C28.382 86.0371 28.428 85.9356 28.4867 85.8417C28.6116 85.6414 28.6127 85.4774 28.6147 85.1623C28.6153 85.0701 28.616 84.965 28.6199 84.8423C28.6371 84.2999 29.2313 83.9909 29.334 83.9612C29.4368 83.9315 29.4091 84.3968 29.1265 85.0075C29.047 85.1794 28.9522 85.3481 28.857 85.5177C28.6137 85.9508 28.3671 86.3897 28.3628 86.9021C28.3569 87.6151 28.7792 87.8302 29.0082 87.6767C29.1143 87.6056 29.1331 87.4561 29.1588 87.2519C29.1885 87.0153 29.2275 86.7052 29.4224 86.3585C29.614 86.0176 29.6844 85.7279 29.7473 85.4695C29.8035 85.2384 29.8536 85.0324 29.9788 84.8371C30.1791 84.4964 30.3483 84.1381 30.4844 83.7667C30.8489 81.4465 33.1668 77.9948 33.8439 76.9863C33.9306 76.8573 33.9904 76.7683 34.0158 76.7267C34.099 76.5905 34.2293 76.4451 34.3563 76.3034C34.5706 76.0642 34.7758 75.8353 34.7303 75.6779C34.658 75.4274 34.4809 75.3282 34.2667 75.4201C34.0525 75.512 32.6312 77.2166 31.619 78.6828C30.6068 80.1491 29.9028 82.5829 29.8196 83.0878C29.7364 83.5928 29.5749 83.3124 29.4535 82.892C29.3787 82.6328 29.4086 82.4598 29.4393 82.2815C29.4584 82.1706 29.4779 82.0578 29.4728 81.921C29.4594 81.5642 29.0346 81.9582 28.9528 82.1922C28.9278 82.2637 28.8672 82.3567 28.7982 82.4625C28.6413 82.7031 28.4412 83.0098 28.5193 83.2801C28.6316 83.6694 28.4949 83.9202 28.2078 84.2736C27.9206 84.627 27.4979 85.4421 27.5754 86.0209Z" fill="#16895A"/>
<path d="M34.8416 74.9162C34.8047 74.9504 34.7763 74.9927 34.7585 75.0399C34.7407 75.0871 34.734 75.1378 34.7391 75.1881C34.7419 75.2197 34.751 75.2503 34.7659 75.2783C34.7808 75.3062 34.8012 75.3309 34.8258 75.3507C34.9757 75.4686 35.2221 75.2718 35.3548 75.0541C35.4874 74.8364 36.4087 73.8263 36.4087 73.8263C36.4087 73.8263 35.2696 74.5112 34.8416 74.9162Z" fill="#16895A"/>
<path d="M29.5189 88.4292C29.8552 88.6254 29.9442 88.3064 29.9442 88.3064C30.2081 87.9608 30.4298 87.1583 30.5707 86.6484C30.616 86.4845 30.6529 86.3509 30.6802 86.2723C30.7925 85.9494 31.4448 84.1079 31.6677 83.5791C31.7183 83.4591 31.7383 83.3578 31.7625 83.2356C31.845 82.8191 31.9752 82.1613 33.525 79.7038C35.5292 76.5258 37.8426 73.1583 41.5313 71.9559C45.2201 70.7535 50.2951 72.215 50.2951 72.215C50.3485 72.1723 50.3929 72.1192 50.4254 72.0589C50.4579 71.9985 50.4779 71.9321 50.4843 71.8637C50.4907 71.7952 50.4832 71.7262 50.4624 71.6606C50.4416 71.5951 50.4079 71.5344 50.3632 71.4822C45.4074 70.0573 41.9008 70.7809 40.3248 71.592C38.7487 72.4031 37.42 73.7293 36.4625 74.7171C35.5385 75.6702 33.8967 78.0112 32.903 79.4281L32.7974 79.5787C31.8182 80.9744 30.9642 83.017 30.7934 83.6511C30.6225 84.2852 29.9665 86.5685 29.665 87.0727C29.3634 87.5769 29.1826 88.233 29.5189 88.4292Z" fill="#16895A"/>
<path d="M50.7989 68.9755C45.6861 68.515 42.8548 69.7968 42.0526 70.2379C42.028 70.2516 42.0086 70.2729 41.9971 70.2987C41.9856 70.3244 41.9827 70.3533 41.9888 70.3809C41.995 70.4085 42.0098 70.4334 42.0311 70.4519C42.0525 70.4704 42.0792 70.4815 42.1072 70.4835C42.3716 70.4891 42.6356 70.4645 42.8943 70.4102C43.2974 70.337 43.6905 70.2845 44.0596 70.2351C44.6252 70.1595 45.1343 70.0914 45.5363 69.9682C46.2007 69.7645 47.9122 69.479 49.021 69.567C50.1298 69.655 50.5969 69.6959 50.5969 69.6959C50.5969 69.6959 50.8149 69.6549 50.9066 69.3642C50.9983 69.0736 50.7989 68.9755 50.7989 68.9755Z" fill="#16895A"/>
<path d="M50.407 70.9166C50.971 70.7101 50.6198 70.1393 50.6198 70.1393C50.6198 70.1393 48.1867 69.8971 46.933 69.9156C45.6794 69.9341 45.2219 70.6728 46.1559 70.5252C46.6234 70.4514 47.5464 70.6012 48.4226 70.7434C49.2973 70.8854 50.1253 71.0198 50.407 70.9166Z" fill="#16895A"/>
<path d="M46.6255 68.12C46.6033 68.1364 46.5865 68.1592 46.5773 68.1853C46.5681 68.2115 46.567 68.2398 46.5739 68.2667C46.5809 68.2936 46.5957 68.3178 46.6165 68.3362C46.6372 68.3546 46.663 68.3663 46.6904 68.3699C46.9855 68.4077 47.4535 68.4457 47.8013 68.3744C48.349 68.2618 49.9337 68.3053 50.7301 68.468C51.2389 68.5689 51.231 67.6949 50.9156 67.6748C50.7463 67.6647 50.5002 67.6451 50.2261 67.6233C49.5741 67.5714 48.7639 67.507 48.4535 67.5267C48.082 67.5501 47.1177 67.7684 46.6255 68.12Z" fill="#16895A"/>
<path d="M49.4306 73.1861C47.9766 72.8159 44.4238 71.9113 39.7042 74.0071C39.2915 74.1931 39.0092 74.5963 38.7966 74.8999C38.7022 75.0346 38.6216 75.1497 38.5494 75.2176C38.0725 75.6553 37.6273 76.1266 37.2169 76.6278C36.3958 77.6669 35.6797 78.7859 35.0794 79.9682C34.4824 81.1734 33.9866 83.5035 33.8718 84.0749C33.7571 84.6463 33.1144 86.035 32.9141 86.4007C32.7137 86.7664 32.4807 88.4203 32.333 89.5924C32.1853 90.7644 31.5787 90.7829 31.4479 89.9754C31.3171 89.1679 32.2555 86.5116 32.5026 85.9566C32.7497 85.4016 33.8933 81.9419 33.9172 81.6736C33.9411 81.4053 33.641 81.4254 33.4702 81.8026C33.3934 81.9724 33.2128 82.5334 33.0143 83.1502C32.7717 83.904 32.5023 84.741 32.3627 85.0488C32.1088 85.6085 31.2199 88.9063 31.2199 88.9063C31.2199 88.9063 31.1675 89.6028 30.7492 89.5022C30.331 89.4016 30.3056 88.8997 30.5745 88.251C30.6897 87.9731 31.0931 86.7575 31.5309 85.4385C32.1147 83.679 32.7597 81.7354 32.8628 81.5891C32.9261 81.4992 33.0593 81.3908 33.223 81.2575C33.5259 81.0109 33.9331 80.6793 34.1947 80.2236C34.3374 79.975 34.4687 79.6794 34.6046 79.3733C34.8524 78.8154 35.1156 78.2228 35.4912 77.8173C35.6142 77.6846 35.7648 77.451 35.9579 77.1513C36.6783 76.0338 37.9908 73.9977 40.6731 72.8485C44.0746 71.3911 48.3181 71.8502 50.2561 72.7035C50.2561 72.7035 50.4916 73.1118 50.1243 73.3035C50.048 73.3433 49.8112 73.283 49.4306 73.1861Z" fill="#16895A"/>
<path d="M34.7284 82.2501C34.7284 82.2501 35.5594 79.551 36.845 77.9812C37.3374 77.38 37.7413 76.8596 38.0772 76.4268C38.6183 75.7298 38.9828 75.2602 39.2561 75.0464C39.2817 75.0264 39.3106 75.003 39.3432 74.9767L39.3437 74.9762C39.8765 74.5453 41.3895 73.3216 45.2799 73.1071C49.4102 72.8794 50.2459 74.0217 50.1358 74.3267C50.0399 74.5922 49.4893 74.4647 48.6694 74.2749C48.5471 74.2466 48.4189 74.2169 48.2852 74.1869C47.2555 73.9559 45.3754 73.698 44.0492 74.1173C42.723 74.5365 40.3354 76.2268 40.2177 76.4429C40.1 76.6591 39.9467 76.1941 40.3679 75.9633C40.5914 75.8407 40.7512 75.6545 40.8928 75.4895C41.0181 75.3435 41.1291 75.2141 41.2575 75.16C41.531 75.0446 41.9371 74.818 41.8694 74.5835C41.8017 74.3489 40.8596 74.6564 40.4332 74.9981C40.0998 75.2653 39.0671 76.2905 38.4913 76.8621C38.3309 77.0213 38.2059 77.1454 38.1414 77.208C38.0777 77.2699 38.0088 77.3315 37.9399 77.393C37.6886 77.6175 37.437 77.8422 37.436 78.0848C37.4347 78.3939 37.0627 79.2372 36.8222 79.467C36.5817 79.6967 35.4745 81.2541 35.4026 81.5663C35.3308 81.8786 35.1876 82.1476 34.7284 82.2501Z" fill="#16895A"/>
<path d="M38.0591 78.976C37.4327 79.8163 37.1626 79.5891 37.1626 79.5891C37.125 79.3977 37.7651 78.6765 38.17 78.2203C38.3267 78.0438 38.4482 77.9068 38.4815 77.8558C38.6007 77.673 38.8881 77.9288 38.8196 77.9486C38.7838 77.9589 38.7487 78.0097 38.6338 78.1759C38.529 78.3275 38.3578 78.5753 38.0591 78.976Z" fill="#16895A"/>
<path d="M39.2461 78.4449C39.2461 78.4449 39.0031 78.4431 39.351 78.0056C39.699 77.5682 42.0873 74.9742 44.208 74.4822C46.3287 73.9903 49.1113 74.5368 49.6351 74.7837C50.1589 75.0305 50.0748 75.849 49.9399 75.8397C49.9192 75.8382 49.8271 75.8081 49.6795 75.7597C48.8647 75.4929 46.3583 74.672 44.8198 75.0652C43.0025 75.5297 41.3885 76.7425 40.7639 77.4411L40.6792 77.536C40.1193 78.1637 39.9048 78.4041 39.2461 78.4449Z" fill="#16895A"/>
<path d="M41.4909 77.6386C41.511 77.6503 41.5341 77.6559 41.5572 77.6547C42.3559 77.6197 42.8 77.3414 43.3041 77.0254C43.7907 76.7204 44.3332 76.3804 45.3043 76.1904C46.8301 75.8913 48.2068 76.6511 48.9927 77.0849C49.2758 77.2412 49.4823 77.3551 49.5915 77.362C50.0035 77.3879 49.91 76.6908 49.7716 76.4183C49.6332 76.1458 48.2125 75.2061 45.4554 75.4C43.226 75.5562 41.8889 76.935 41.4589 77.4581C41.444 77.476 41.4347 77.4979 41.4321 77.5211C41.4295 77.5442 41.4336 77.5677 41.4441 77.5886C41.4545 77.6095 41.4708 77.6268 41.4909 77.6386Z" fill="#16895A"/>
<path d="M44.3552 77.3562L44.1072 77.3467C44.1003 77.3464 44.0936 77.3439 44.0882 77.3396C44.0827 77.3353 44.0788 77.3293 44.0769 77.3227C44.0749 77.316 44.0751 77.3089 44.0774 77.3023C44.0797 77.2958 44.084 77.2901 44.0897 77.2862C44.3996 77.1056 45.4291 76.5771 46.5268 76.6737C47.4961 76.7582 48.3854 77.1956 48.785 77.4199C48.7975 77.4273 48.8071 77.4387 48.8125 77.4522C48.8179 77.4656 48.8186 77.4805 48.8147 77.4945C48.8107 77.5084 48.8023 77.5206 48.7907 77.5292C48.7791 77.5378 48.765 77.5423 48.7506 77.5419L44.3552 77.3562Z" fill="#16895A"/>
<path d="M32.8344 91.425C33.2293 91.6107 33.2446 91.2155 33.2446 91.2155C33.4151 90.5406 33.4126 90.1357 33.4101 89.7364C33.4074 89.2987 33.4048 88.8677 33.6299 88.095C34.0605 86.6172 33.6344 85.8749 33.6842 86.0882C33.734 86.3016 33.2319 87.4593 33.0778 87.7406C32.9237 88.0219 32.5814 90.1 32.5471 90.4296L32.5418 90.4796C32.5067 90.806 32.4591 91.2485 32.8344 91.425Z" fill="#16895A"/>
<path d="M34.2801 92.2318C34.2801 92.2318 34.2334 92.5186 33.9542 92.3259C33.6751 92.1332 33.6998 91.4885 33.7765 90.8133C33.8122 90.4981 33.8223 90.0152 33.8318 89.5584C33.8427 89.0368 33.8528 88.5492 33.8997 88.3841C33.9878 88.0745 34.179 88.6587 34.23 88.8353C34.2348 88.8519 34.2421 88.8753 34.2513 88.9048C34.3394 89.188 34.6015 90.0305 34.5243 90.8361C34.487 91.3082 34.4053 91.7756 34.2801 92.2318Z" fill="#16895A"/>
<path d="M35.0771 93.1986C35.496 93.5868 35.6214 93.1244 35.6214 93.1244C35.7275 92.8806 35.6568 92.432 35.6182 92.2983C35.5987 92.2308 35.5227 92.1232 35.4346 91.9986C35.3482 91.8764 35.2502 91.7377 35.1826 91.6043C35.046 91.335 34.8851 91.1446 34.8452 91.2508C34.8239 91.3075 34.8159 91.5075 34.8078 91.7109C34.8007 91.889 34.7935 92.0697 34.7771 92.1594C34.7274 92.3433 34.729 92.5376 34.782 92.7209C34.8349 92.9043 34.937 93.0696 35.0771 93.1986Z" fill="#16895A"/>
<path d="M36.3 93.4377C36.3 93.4377 36.1383 93.1911 36.0567 93.1654C35.975 93.1398 35.8622 93.4575 35.9014 93.6593C35.9232 93.7711 36.0009 93.8234 36.0792 93.8762C36.1423 93.9187 36.2058 93.9615 36.2409 94.0358C36.3198 94.2025 36.3954 93.9439 36.3886 93.7445C36.3869 93.6362 36.3563 93.5302 36.3 93.4377Z" fill="#16895A"/>
<path d="M35.735 84.1218C34.9927 85.7551 35.2359 87.4628 35.2359 87.4628C35.2359 87.4628 35.5136 87.7069 35.4557 87.1489C35.3978 86.5909 35.8816 85.6078 35.992 85.5577L35.9947 85.5565C36.0258 85.5424 36.0464 85.5331 36.0559 85.5397C36.0746 85.5528 36.0509 85.6274 35.9806 85.8482C35.9628 85.9041 35.9421 85.9694 35.9183 86.0454C35.751 86.5791 35.4894 89.5638 35.6618 90.2864C35.8342 91.009 36.0538 90.9638 36.1524 90.9354C36.2509 90.9069 36.5916 88.312 36.5165 87.9922C36.4617 87.7592 36.5883 86.8457 36.6794 86.1876C36.7134 85.9419 36.7425 85.7318 36.7554 85.6061C36.7977 85.1935 36.6938 85.1243 36.622 85.0766C36.6133 85.0708 36.6051 85.0653 36.5976 85.0596C36.5677 85.0365 36.5 85.0585 36.4296 85.0813C36.3382 85.111 36.2423 85.1421 36.2191 85.0777C36.1983 85.0201 36.3178 84.7605 36.4435 84.4873C36.566 84.221 36.6946 83.9417 36.7051 83.8235C36.7138 83.727 36.7809 83.5229 36.8566 83.2928C36.9686 82.9523 37.0993 82.5551 37.0864 82.3663C37.0648 82.0501 36.9264 82.1256 36.9264 82.1256C36.9264 82.1256 36.4772 82.4885 35.735 84.1218Z" fill="#16895A"/>
<path d="M37.8617 86.5254C37.8617 86.5254 37.7784 87.2435 37.2051 87.358C36.8116 87.4366 36.8962 86.691 36.9741 86.0048C37.0097 85.6909 37.0439 85.3896 37.0303 85.1851C36.9871 84.5336 37.3673 81.9628 37.522 81.7023C37.6767 81.4418 38.1918 81.0535 38.3279 81.2146C38.4056 81.3065 38.3366 81.4751 38.2485 81.6905C38.1821 81.8527 38.1049 82.0416 38.0712 82.2442C38.0539 82.3482 38.0256 82.4973 37.9925 82.6713C37.8755 83.2859 37.6996 84.2102 37.7466 84.5466C37.8069 84.9782 37.8617 86.5254 37.8617 86.5254Z" fill="#16895A"/>
<path d="M37.7006 87.8808C37.7166 87.9311 37.7219 87.9842 37.7162 88.0366C37.8361 87.8048 37.9402 87.5651 38.0277 87.3191C38.2476 86.7547 38.1821 86.1324 38.0714 85.7271C37.9608 85.3219 38.1248 84.5167 38.1248 84.5167C38.5087 81.4774 38.9609 80.7332 39.1245 80.464C39.1424 80.4345 39.1568 80.4108 39.1674 80.3903C39.274 80.1828 40.0763 79.8173 40.317 79.7733C40.4793 79.7437 40.4622 79.9346 40.4357 80.231C40.4229 80.3743 40.4079 80.5424 40.4099 80.722C40.416 81.2731 40.372 82.0928 40.2957 82.2706C40.2194 82.4484 39.9326 83.2826 39.9919 83.607C40.0421 83.8822 40.1122 84.7854 40.1734 85.5744L40.1735 85.5758C40.1844 85.7165 40.195 85.8536 40.2052 85.9828C40.2725 86.8368 40.6417 87.9371 40.7046 87.9791C40.7674 88.0211 41.9734 89.6685 42.289 90.1977C42.6047 90.7268 44.3337 92.5621 44.7698 92.8343C45.2059 93.1064 45.2641 93.3082 44.9992 93.6288C44.7342 93.9494 44.5003 93.8885 44.5003 93.8885C43.0457 92.9706 41.917 91.0735 41.4266 90.2492C41.2435 89.9415 41.1494 89.7833 41.1605 89.8813C41.2012 90.2421 41.9856 91.6861 42.3574 92.2592C42.7062 92.797 43.8582 93.974 44.0712 94.1916L44.1005 94.2216C44.1881 94.312 44.0044 94.9297 43.5354 94.8729C43.0665 94.8161 41.7958 93.0634 41.4985 92.5199C41.2013 91.9763 39.965 89.1608 39.629 87.3697C39.4092 86.2491 39.3195 85.1071 39.3616 83.9666C39.3661 83.7767 39.4586 83.3668 39.5488 82.9672C39.6306 82.6046 39.7106 82.2504 39.7211 82.0767C39.7279 81.9656 39.7401 81.8126 39.7531 81.6505C39.7829 81.2794 39.8164 80.861 39.7962 80.7908C39.767 80.6899 39.6617 80.7076 39.5763 80.7787C39.5266 80.8201 39.4397 81.2345 39.3557 81.635C39.2956 81.9217 39.237 82.2012 39.1946 82.3316C39.1127 82.5836 38.9386 83.7797 38.8418 84.4451L38.8415 84.4469C38.8183 84.6061 38.7996 84.7348 38.7876 84.8127C38.7257 85.2158 39.3867 88.6592 40.1319 90.5763C40.8772 92.4934 42.4867 94.5854 42.7393 94.8331C42.8977 94.9763 43.0136 95.1607 43.0741 95.3659C43.0981 95.4491 42.5743 96.0238 42.4146 96.0444C42.2549 96.065 41.9118 95.1868 41.803 94.8976C41.6941 94.6084 40.0861 91.9129 40.0318 92.211C39.9776 92.509 40.9172 94.3062 41.1294 94.643C41.174 94.7138 41.2555 94.8184 41.3529 94.9433C41.7184 95.4125 42.3079 96.1691 42.0125 96.5075C41.6384 96.9361 41.4092 96.5341 41.4092 96.5341C40.4216 95.3518 39.7612 93.9294 39.4948 92.4106C39.4438 92.2341 39.2018 91.0005 39.1347 90.6364C39.0676 90.2724 38.7956 89.0666 38.6903 89.097C38.615 89.1188 38.6134 89.2273 38.6102 89.4441C38.6089 89.5304 38.6074 89.634 38.6008 89.7559C38.5779 90.1842 39.0205 92.0876 39.1833 92.5197C39.346 92.9518 39.8461 94.5525 39.8677 94.8906C39.8831 95.133 39.8227 95.6539 39.7755 96.0599C39.7569 96.2201 39.7404 96.3626 39.7314 96.4629C39.706 96.7469 39.829 97.1601 39.9101 97.4324C39.9301 97.4999 39.9476 97.5587 39.9597 97.6047C40.0024 97.7911 40.0067 97.9842 39.9724 98.172C39.938 98.3599 39.8658 98.5386 39.76 98.6971C39.4951 99.0805 38.9306 99.3199 38.9102 99.2493C38.9007 99.2161 38.9533 98.9319 39.0137 98.6056C39.0819 98.2375 39.16 97.8157 39.1699 97.6405C39.1781 97.4946 39.2382 97.2325 39.2984 96.97C39.3745 96.6381 39.4507 96.3055 39.4222 96.2069C39.3712 96.0304 39.0513 94.5898 39.0222 94.2913C38.993 93.9927 38.5978 92.5548 38.4983 92.5644C38.3988 92.574 38.42 93.986 38.4549 94.455C38.4898 94.924 38.1447 94.3524 38.0199 94.1206C37.876 93.8193 37.8007 93.4898 37.7993 93.156C37.8069 93.0301 37.7741 92.7963 37.74 92.553C37.6968 92.2445 37.6514 91.9207 37.6836 91.7831C37.7012 91.7076 37.75 91.605 37.8073 91.4847C37.9367 91.2128 38.1092 90.8503 38.0623 90.5052C37.9946 90.0074 37.6626 88.8572 37.6626 88.8572C37.6626 88.8572 37.1553 89.8088 37.361 90.2549C37.5667 90.7011 37.5833 91.1034 37.455 91.4365C37.3267 91.7695 37.229 92.2213 37.3159 92.5223C37.4028 92.8233 37.323 93.0767 37.1642 92.9877C37.0055 92.8988 36.6633 92.1742 36.5509 91.7849C36.4385 91.3956 36.7759 88.3472 36.8674 88.0184C36.8779 87.9808 36.8868 87.946 36.8951 87.914C36.959 87.665 36.9814 87.5777 37.3468 87.6159C37.3992 87.6167 37.451 87.6286 37.4987 87.6508C37.5464 87.6729 37.589 87.7048 37.6237 87.7444C37.6585 87.784 37.6847 87.8305 37.7006 87.8808Z" fill="#16895A"/>
<path d="M40.3106 95.8794C40.2639 95.8848 40.2187 95.8994 40.1777 95.9224C40.1367 95.9454 40.1006 95.9763 40.0716 96.0134C40.0425 96.0505 40.021 96.093 40.0083 96.1385C39.9957 96.184 39.992 96.2315 39.9977 96.2785C40.0182 96.5198 40.1166 96.8519 40.1902 97.1003C40.2251 97.2179 40.2544 97.3168 40.2672 97.3784C40.2853 97.4654 40.2759 97.6288 40.2671 97.7824C40.2564 97.9672 40.2466 98.1379 40.2865 98.1443C40.3596 98.156 40.7662 97.9248 40.9065 97.6083C41.0468 97.2918 41.1351 96.892 41.0302 96.557C40.9254 96.222 40.6757 95.774 40.3106 95.8794Z" fill="#16895A"/>
<path d="M41.7682 79.4C41.8734 79.4507 41.6881 79.8876 41.6881 79.8876C41.6881 79.8876 41.4434 81.473 41.3672 81.7983C41.2909 82.1236 40.9099 84.3841 41.3583 85.1381C41.7493 85.7955 41.8873 86.5537 41.9969 87.1558C42.013 87.2443 42.0285 87.3294 42.0441 87.4103C42.1658 88.0419 43.5211 89.6799 43.752 89.8966C43.9829 90.1132 45.7958 91.9224 45.7958 91.9224L46.4387 92.3435C46.4387 92.3435 46.0194 93.2424 45.1855 92.7052C44.3516 92.1681 41.9352 89.1996 41.2274 87.616C40.5195 86.0324 40.3825 84.7895 40.3541 84.4152C40.3408 84.2401 40.4141 83.7344 40.4942 83.182C40.5853 82.5531 40.6853 81.8638 40.6761 81.5333C40.6589 80.9125 40.9634 79.7034 41.0731 79.4595C41.1828 79.2156 41.6631 79.3493 41.7682 79.4Z" fill="#16895A"/>
<path d="M42.3866 84.2856C42.314 83.9713 42.2818 83.6491 42.2909 83.3268C42.3209 82.901 42.287 82.2158 41.9538 82.159C41.6206 82.1022 41.1531 82.3482 41.4642 83.4261C41.5614 83.7628 41.6389 84.1229 41.7212 84.5055C41.9024 85.3479 42.1071 86.2998 42.5977 87.3524C43.3111 88.8834 45.3539 91.3978 47.3754 92.4182C48.5767 93.0246 48.917 93.1166 49.2048 93.1943C49.4013 93.2474 49.5734 93.2939 49.9783 93.493C50.9761 93.9837 55.1825 93.5901 56.2519 93.1275C57.3212 92.6649 57.4622 92.0558 57.4575 91.8486C57.4529 91.6413 57.2073 91.3643 57.0952 91.5497L57.0947 91.5505C56.9813 91.7379 56.3725 92.7447 53.5121 92.9174C50.6476 93.0903 49.7277 92.6345 49.534 92.5374C49.4376 92.489 48.9012 92.1881 48.3592 91.884L48.3587 91.8838L48.3569 91.8828L48.3565 91.8825C47.8113 91.5767 47.2613 91.2682 47.148 91.2105C46.922 91.0954 44.4894 89.2118 44.393 88.878C44.3695 88.7968 44.5596 88.9528 44.9091 89.2398C45.9951 90.1314 48.6201 92.2865 51.1605 92.5123C54.5186 92.8108 55.5573 92.286 56.0882 91.9241L56.1688 91.8693C56.6714 91.5274 57.1474 91.2037 57.0912 91.0089C57.0319 90.8037 56.9007 90.3962 56.696 90.4553C56.6229 90.4764 56.4588 90.6162 56.2525 90.7919C55.8817 91.1079 55.3742 91.5402 55.0125 91.6089C54.7756 91.654 54.4828 91.6584 54.1687 91.6632C53.7367 91.6698 53.2643 91.677 52.8413 91.7912C52.1108 91.9885 50.3085 91.536 49.8353 91.2827C49.7652 91.2452 49.6541 91.2031 49.5054 91.1468C48.6494 90.8225 46.5463 90.0257 43.8355 86.9122C43.8355 86.9122 42.4837 84.9416 42.3866 84.2856Z" fill="#16895A"/>
<path d="M49.8237 93.7918C49.9725 93.7179 50.9307 94.0333 50.9307 94.0333C50.9307 94.0333 51.3546 94.37 54.3834 93.8663C56.8908 93.4494 57.2981 92.8185 57.4455 92.5901C57.4762 92.5426 57.4956 92.5125 57.5204 92.5054C57.6641 92.4639 57.8731 92.981 57.8535 93.1889C57.8338 93.3968 57.1719 93.8693 56.7415 94.04C56.4773 94.1448 56.2556 94.1961 55.7594 94.3109C55.4474 94.3832 55.0268 94.4805 54.4189 94.6321C53.3683 94.8778 52.2776 94.9008 51.2162 94.6996C51.1359 94.6807 50.964 94.7473 50.7891 94.8151C50.6382 94.8736 50.485 94.933 50.3866 94.9391C50.174 94.9521 49.9729 94.685 49.8755 94.4007L49.8614 94.36L49.8511 94.3302C49.7626 94.0758 49.6873 93.8595 49.8237 93.7918Z" fill="#16895A"/>
<path d="M51.6618 95.1165C51.6618 95.1165 50.9523 94.8532 50.8151 95.0804C50.678 95.3076 50.8005 95.8324 51.4419 95.803C51.7345 95.7896 52.1961 95.7794 52.6416 95.7695C53.1726 95.7577 53.6808 95.7464 53.853 95.7309C54.1697 95.7023 55.0701 95.5982 55.7276 95.4084C56.1277 95.2929 56.4901 95.0669 56.774 94.8899C56.9566 94.776 57.1068 94.6823 57.2134 94.6515C57.4858 94.5729 58.2853 94.3421 58.2803 94.1614C58.2764 94.0233 58.1422 93.8077 58.0609 93.6772C58.036 93.6371 58.0159 93.6049 58.0063 93.5856C57.9655 93.5036 57.7456 93.598 57.6127 93.7302C57.4798 93.8624 56.6245 94.4363 56.2043 94.5922C55.7841 94.7481 54.6202 95.1151 53.5178 95.1591C52.899 95.1855 52.2791 95.1713 51.6618 95.1165Z" fill="#16895A"/>
<path d="M53.384 96.7862C56.9405 96.3361 57.9252 95.1319 57.9252 95.1319C57.9252 95.1319 58.2312 94.9033 57.9518 94.6879C57.7328 94.5191 57.4107 94.7824 57.1089 95.029C57.0256 95.097 56.9439 95.1638 56.8663 95.2199C56.5076 95.4792 55.5891 95.7871 54.8767 95.9654C54.1643 96.1438 51.3539 96.0306 51.1327 96.017C50.9862 96.008 50.7602 95.864 50.5945 95.7585C50.5101 95.7047 50.4414 95.6609 50.4068 95.65C50.3042 95.6177 49.8275 97.2363 53.384 96.7862Z" fill="#16895A"/>
<path d="M51.2705 97.1003C51.2705 97.1003 50.8973 96.9739 50.9597 97.19C51.0221 97.4061 51.2887 97.7025 51.6685 97.7641C51.9736 97.8286 52.2894 97.8178 52.5889 97.7325C52.9621 97.6598 53.346 97.66 53.7196 97.7331C54.047 97.7952 55.1792 97.9047 56.8565 97.0617C58.5337 96.2186 58.8419 95.6779 58.8906 95.5236C58.9393 95.3692 58.8294 95.1514 58.7329 94.9771C58.6364 94.8027 58.4854 94.747 58.3625 94.9483C58.2396 95.1495 57.4755 96.3684 54.9134 96.9367C52.3513 97.5051 51.2705 97.1003 51.2705 97.1003Z" fill="#16895A"/>
<path d="M52.5705 98.0494C53.1005 97.7406 53.4026 97.9813 53.4026 97.9813C53.4026 97.9813 53.6446 98.4434 55.4522 98.0928C56.8443 97.8228 58.0253 96.8105 58.6194 96.3013C58.7967 96.1493 58.9218 96.0421 58.9845 96.0129C59.2574 95.8859 59.4558 96.0936 59.2463 96.5749C59.0368 97.0562 58.1197 97.6324 57.6667 97.888C57.3611 98.0604 56.6266 98.3355 56.0308 98.5586C55.7436 98.6662 55.4886 98.7617 55.3295 98.8277C54.8406 99.0308 54.692 99.0118 54.5485 98.9439C54.5193 98.9301 54.3981 98.8977 54.2281 98.8521C53.5626 98.6739 52.1484 98.2953 52.5705 98.0494Z" fill="#16895A"/>
<path d="M56.3024 98.8456C56.3024 98.8456 55.45 99.1035 55.5353 99.2766C55.6205 99.4496 56.1286 99.6891 56.4919 99.5023C56.554 99.4704 56.6652 99.4155 56.8087 99.3446L56.8103 99.3438L56.8124 99.3427L56.8154 99.3413L56.8169 99.3405C57.5174 98.9947 58.9684 98.2784 59.2767 97.987C59.3737 97.8954 59.4688 97.8161 59.5549 97.7442L59.5553 97.7439C59.8005 97.5393 59.9737 97.3948 59.9163 97.1958C59.8386 96.9268 59.6687 96.6297 59.5031 96.7522C59.4778 96.7709 59.4211 96.8264 59.3376 96.9081C58.8732 97.3624 57.5836 98.624 56.3024 98.8456Z" fill="#16895A"/>
<path d="M57.4288 99.8029C57.3978 99.6953 58.2483 99.1237 58.2483 99.1237C58.4692 99.0414 59.1938 98.3511 59.559 98.0031L59.5595 98.0026C59.6613 97.9056 59.7353 97.8351 59.7623 97.8122C59.8175 97.7641 59.8824 97.7287 59.9527 97.7084C60.023 97.6882 60.0968 97.6835 60.1691 97.6948C60.259 97.7271 60.476 98.1181 60.5095 98.3534C60.535 98.5319 60.0891 98.7862 59.7317 98.9901C59.6179 99.055 59.513 99.1148 59.4352 99.1654C59.2965 99.2556 59.1178 99.4223 58.9353 99.5926C58.6936 99.8181 58.445 100.05 58.2732 100.119C57.9716 100.241 57.4599 99.9105 57.4288 99.8029Z" fill="#16895A"/>
<path d="M59.5716 100.327C59.4846 100.411 59.3789 100.471 59.2635 100.505C59.148 100.538 59.0262 100.543 58.9082 100.519C58.4919 100.441 58.5617 100.203 58.8369 99.9584C59.0224 99.7937 59.3077 99.5688 59.5343 99.3902C59.6438 99.3038 59.7397 99.2282 59.8039 99.1756C60.0007 99.014 60.5075 98.6345 60.6117 98.6974C60.7158 98.7602 60.9092 98.9503 60.9099 99.0312C60.9106 99.112 59.5716 100.327 59.5716 100.327Z" fill="#16895A"/>
<path d="M59.6527 100.817C59.6777 100.903 60.3311 101.041 60.3311 101.041C60.5682 101.019 61.724 100.335 61.6386 100.039C61.5532 99.7435 61.1732 99.5499 61.1732 99.5499C61.1732 99.5499 60.1461 100.359 59.9731 100.409C59.8002 100.459 59.6277 100.73 59.6527 100.817Z" fill="#16895A"/>
<path d="M61.9939 101.26C61.9939 101.26 61.7026 101.415 61.5018 101.402C61.3931 101.396 61.2598 101.339 61.1486 101.291C61.0541 101.25 60.9755 101.216 60.9413 101.226C60.867 101.248 61.0677 101.015 61.2629 100.951C61.3967 100.908 61.572 100.792 61.7047 100.704C61.7657 100.664 61.8177 100.629 61.8525 100.611C61.963 100.552 62.1592 100.67 62.2169 100.87C62.2747 101.07 61.9939 101.26 61.9939 101.26Z" fill="#16895A"/>
<path d="M43.4337 79.1633C43.4524 79.228 43.2169 79.6475 43.2169 79.6475C42.9989 80.1276 42.881 81.3403 42.931 81.62C42.981 81.8998 43.3119 82.6231 43.5573 83.0468C43.6642 83.2313 43.9306 83.7772 44.2238 84.3781L44.224 84.3785C44.6043 85.1578 45.0297 86.0295 45.2105 86.3249C45.3971 86.6296 45.8198 87.104 46.161 87.4868C46.4056 87.7614 46.6084 87.9889 46.6519 88.0729C46.7562 88.2742 48.9911 89.5763 49.2606 89.6069C49.3661 89.6189 49.7155 89.7757 50.1471 89.9695C50.8188 90.2709 51.6896 90.6618 52.1506 90.7355C52.9078 90.8566 55.0384 90.6278 55.4226 90.5478C55.8068 90.4679 55.6068 90.7907 55.6068 90.7907C54.2084 91.4931 52.2689 91.9419 50.0231 91.0254C45.4092 89.1421 43.9293 86.5709 42.8435 83.9788C41.7576 81.3868 42.1853 79.1875 42.4483 79.0451C42.7113 78.9027 43.415 79.0985 43.4337 79.1633Z" fill="#16895A"/>
<path d="M44.6072 79.555C44.6072 79.555 44.934 79.3577 44.9147 79.2376C44.8954 79.1175 44.7595 78.8598 44.2785 78.9148C43.7975 78.9699 43.4506 79.4271 43.3776 80.3435C43.3045 81.2599 43.9558 82.9737 44.663 83.9436C44.944 84.329 45.1172 84.7092 45.2972 85.1042C45.57 85.7032 45.8585 86.3365 46.5623 87.0741C46.7261 87.2457 46.8663 87.3935 46.9874 87.521C47.7298 88.3031 47.752 88.3265 48.0642 88.4485C48.3316 88.5531 49.352 89.1024 49.9869 89.4442L49.9876 89.4445C50.2148 89.5668 50.3929 89.6627 50.4688 89.7017C50.7569 89.8499 52.1933 90.3015 52.4322 90.2325C52.6712 90.1635 52.6619 89.749 52.5941 89.5673C52.5262 89.3856 52.4692 89.2946 52.1384 89.3746C51.8076 89.4546 51.184 89.0472 51.184 89.0472C51.184 89.0472 48.9627 87.8959 48.796 87.8511C48.6292 87.8064 46.7611 86.5996 46.7075 86.4138C46.6539 86.228 46.6 85.9347 46.759 86.0592C46.7764 86.0728 46.806 86.0965 46.8456 86.1283C47.168 86.3868 48.16 87.1823 48.7682 87.4884C49.4512 87.8323 51.5721 88.7958 52.0327 88.8486C52.4933 88.9015 52.682 88.8625 52.6155 88.5255C52.5491 88.1886 52.7019 87.975 52.9012 88.0259C53.1006 88.0767 54.5943 88.448 54.9841 88.2899C55.1949 88.2044 55.4142 87.9352 55.6021 87.7045C55.7615 87.5087 55.8984 87.3407 55.9885 87.336C56.1847 87.3258 55.8336 88.0756 55.6921 88.2249C55.5505 88.3741 55.9246 88.4975 55.9897 88.5097C56.1126 88.5384 56.2414 88.5271 56.3572 88.4773C56.473 88.4274 56.5699 88.3418 56.6338 88.2327C56.8681 87.8717 56.7936 87.5071 56.4506 87.065C56.2448 86.7999 56.0583 86.4141 55.9168 86.1213C55.8224 85.9261 55.7479 85.7721 55.7012 85.723C55.6852 85.7062 55.669 85.6875 55.6529 85.6689C55.5512 85.5515 55.4515 85.4365 55.4129 85.8062L55.4087 85.8476C55.3637 86.2881 55.2796 87.1117 54.3201 87.4478C53.3296 87.7948 52.1837 87.9734 50.7288 87.5109C49.2738 87.0483 47.4794 86.3631 45.3617 83.3885C43.2441 80.4139 44.6072 79.555 44.6072 79.555Z" fill="#16895A"/>
<path fill-rule="evenodd" clip-rule="evenodd" d="M54.6331 84.2438C54.6838 84.2158 54.7426 84.2065 54.7995 84.2172C54.887 84.2539 55.0806 84.6424 55.1219 84.7854C55.1631 84.9283 55.5169 86.3136 54.2555 86.9983C53.2082 87.5668 52.1412 87.3347 51.488 87.1926C51.3545 87.1636 51.2383 87.1383 51.1431 87.1244C50.5818 87.0423 49.1416 86.3614 48.4219 85.9972C47.7022 85.633 46.8224 84.6045 46.5037 84.14C46.4338 84.0382 46.3419 83.9101 46.2366 83.7634C45.8614 83.2405 45.3159 82.4804 44.9912 81.8259C44.6786 81.1957 44.7386 80.8245 44.7854 80.5354C44.8008 80.44 44.8148 80.3535 44.8135 80.2696C44.8082 79.9314 45.4366 79.2864 45.7154 79.083C45.9943 78.8795 46.3704 79.2792 46.3882 79.3943C46.406 79.5093 46.4647 79.9478 46.4647 79.9478C46.5382 80.4836 47.2535 81.2416 47.8801 81.9057L47.9488 81.9786C48.5907 82.6595 50.5638 84.0673 51.8788 84.3681C52.9356 84.6098 53.5043 83.3979 53.7533 82.8673C53.8142 82.7376 53.8559 82.6486 53.881 82.6315C54.0089 82.5445 54.2943 83.1571 54.2859 83.6076C54.2775 84.0582 54.4904 84.4758 54.5215 84.3703C54.543 84.3164 54.5824 84.2717 54.6331 84.2438ZM48.4594 85.328L48.4597 85.3283C48.5912 85.4409 48.69 85.5256 48.7114 85.542C48.7851 85.6 49.8984 86.1266 49.8984 86.1266C49.8672 85.9653 49.3605 85.5395 48.8502 85.2078C48.4408 84.9641 48.011 84.7572 47.5657 84.5894C47.6277 84.6154 48.1398 85.0542 48.4594 85.328ZM51.4387 85.8947C51.7865 86.032 52.3071 86.2374 53.1983 86.0137C54.2875 85.7421 54.3916 85.1055 54.3163 85.0361C54.2411 84.9668 54.0443 85.0218 53.8627 85.1671C53.8511 85.1764 53.8376 85.1877 53.8221 85.2008C53.596 85.3913 52.9504 85.9351 51.6457 85.4983C50.2521 85.0317 48.5181 83.9757 48.2602 83.6939C48.2118 83.6411 48.1149 83.5504 47.9878 83.4316C47.4381 82.9176 46.324 81.8759 46.1311 81.0779C46.1311 81.0779 45.8892 80.6067 45.8706 80.4891C45.8521 80.3715 45.537 80.6628 45.6618 80.8818C45.7866 81.1008 46.9261 82.9351 47.2436 83.2761C47.561 83.6171 48.2349 84.0355 49.0471 84.507C49.3676 84.693 49.7219 84.9209 50.0546 85.1347C50.5647 85.4627 51.0237 85.7579 51.2315 85.8192C51.2936 85.8375 51.3619 85.8644 51.4387 85.8947Z" fill="#16895A"/>
<path fill-rule="evenodd" clip-rule="evenodd" d="M53.4661 81.7275C53.4022 81.746 53.3261 81.8426 53.2489 81.9406C53.1245 82.0988 52.9972 82.2604 52.9138 82.1029C52.8482 81.9792 52.8492 81.7566 52.8504 81.4982C52.8516 81.2235 52.853 80.9084 52.775 80.6282C52.6234 80.0845 52.2176 79.105 51.8145 78.6649C51.4114 78.2247 51.0464 77.8665 50.6846 78.2624C50.3533 78.6249 50.5681 78.7839 50.8036 78.9583C50.8253 78.9744 50.8472 78.9906 50.8688 79.0071C50.8922 79.0249 50.9188 79.0447 50.9481 79.0664L50.9484 79.0667C51.2401 79.2833 51.7906 79.6919 51.959 80.2754C52.1444 80.9177 52.2973 81.8172 52.0719 81.9424C51.8464 82.0676 51.1951 82.0406 50.5218 81.7869C49.8485 81.5331 48.7515 80.9845 48.5145 80.7906C48.2775 80.5967 47.7508 80.1139 47.8223 79.9886C47.8938 79.8632 48.0358 79.7721 48.256 80.0018C48.4762 80.2315 49.4581 80.8143 49.7097 80.9429C49.7398 80.9583 49.7772 80.9775 49.8201 80.9996L49.8212 81.0002C50.1378 81.1632 50.7555 81.4812 50.9943 81.5612C51.0244 81.5713 51.0557 81.5827 51.0876 81.5942C51.3434 81.6868 51.642 81.7949 51.7516 81.4191C51.8748 80.9965 51.6554 80.18 51.3944 79.9155C51.1335 79.6511 50.6897 79.2082 50.5629 79.0981C50.4361 78.9881 50.1994 78.8078 49.9138 79.0441C49.6281 79.2805 49.7316 79.5294 49.8591 79.601C49.8896 79.6181 49.9495 79.6426 50.0247 79.6733C50.2639 79.7711 50.6571 79.9318 50.7461 80.1182C50.7647 80.1572 50.7864 80.2005 50.8088 80.2449C50.9268 80.4791 51.0618 80.7471 50.8435 80.6156C50.7328 80.5489 50.5427 80.4115 50.3492 80.2717C50.089 80.0836 49.8226 79.8911 49.7347 79.86C49.5815 79.8059 48.4799 79.5045 48.4799 79.5045C48.4799 79.5045 47.2245 79.3569 47.1207 79.2639C47.0169 79.1709 46.777 79.2082 47.1359 79.8306C47.1876 79.9203 47.2392 80.0126 47.2916 80.1063C47.6026 80.6625 47.9402 81.2664 48.4852 81.6516C49.0077 82.0209 49.143 82.231 49.275 82.4361C49.3039 82.4809 49.3327 82.5256 49.3653 82.5716C49.547 82.8279 50.9132 83.9956 52.2328 83.9389C53.3872 83.8893 53.5419 82.6971 53.5909 82.3194C53.5979 82.2654 53.6028 82.228 53.6081 82.213C53.6505 82.0933 53.6366 81.6783 53.4661 81.7275ZM52.54 82.9339C52.568 83.1352 52.3086 83.1353 52.0653 83.1353C51.9349 83.1354 51.809 83.1354 51.7346 83.1664C51.5213 83.2553 50.9735 82.9881 50.613 82.7488C50.2525 82.5095 49.9465 82.249 50.0193 82.1815C50.0556 82.1479 50.189 82.2129 50.3624 82.2975C50.5369 82.3826 50.7519 82.4875 50.9494 82.5315C50.9907 82.5407 51.0337 82.5505 51.0779 82.5607C51.4557 82.6474 51.9246 82.7551 52.1925 82.6362C52.4917 82.5034 52.54 82.9339 52.54 82.9339Z" fill="#16895A"/>
<path d="M56.8018 88.7489C56.7664 88.6262 56.9348 88.2688 56.9348 88.2688C57.1311 88.1603 57.2116 88.3922 57.2687 88.5567C57.2768 88.5799 57.2843 88.6018 57.2917 88.6212L57.2966 88.6338C57.3539 88.784 57.3961 88.8944 57.2765 89.0263C57.1537 89.162 57.0452 89.1341 57.015 89.0107C56.9997 88.9483 56.9544 88.9135 56.9088 88.8784C56.8642 88.8441 56.8194 88.8096 56.8018 88.7489Z" fill="#16895A"/>
<path d="M57.4736 89.2317C57.4736 89.2317 57.2634 89.4691 57.335 89.6543C57.3683 89.7407 57.3863 89.8254 57.4029 89.904C57.4219 89.994 57.4393 90.076 57.4762 90.1436C57.5454 90.2703 57.765 90.2223 57.7895 90.0532C57.795 90.0149 57.8034 89.9789 57.8115 89.9441C57.8393 89.8249 57.8636 89.7202 57.7584 89.5912C57.7069 89.528 57.6707 89.4333 57.6391 89.3505C57.5874 89.2151 57.548 89.1119 57.4736 89.2317Z" fill="#16895A"/>
<path d="M57.9122 91.24C57.9278 91.3977 58.2076 91.0373 58.2076 91.0373L58.2101 91.0344C58.3613 90.8654 58.4592 90.7558 58.1873 90.4684C57.9952 90.2654 57.9686 90.3125 57.9305 90.38C57.9144 90.4086 57.8962 90.4409 57.8624 90.4593C57.7775 90.5056 57.839 90.8322 57.8817 91.0594C57.8961 91.1355 57.9083 91.2005 57.9122 91.24Z" fill="#16895A"/>
<path d="M58.6186 91.4042C58.6186 91.4042 58.6098 91.0132 58.4034 91.3142C58.3217 91.4333 58.2568 91.4981 58.2121 91.5427C58.1439 91.6107 58.1227 91.6318 58.1607 91.7276C58.2237 91.8861 58.3589 92.1258 58.4946 92.0438C58.5131 92.0327 58.5341 92.0225 58.5559 92.012C58.6943 91.9454 58.8645 91.8634 58.6186 91.4042Z" fill="#16895A"/>
<path d="M58.7334 92.6963C58.6229 92.4485 59.0001 92.1183 59.0001 92.1183C59.0797 92.0356 59.1233 92.1644 59.1756 92.3189C59.2038 92.4021 59.2345 92.4928 59.2747 92.5619C59.3896 92.7591 59.3186 93.0683 59.2249 93.1009C59.1311 93.1334 58.8438 92.944 58.7334 92.6963Z" fill="#16895A"/>
<path d="M97.3751 161.88L96.5089 162.199L98.487 154.021L99.3398 153.706L102.372 160.035L101.506 160.355L99.0235 155.001L98.9701 155.021L97.3751 161.88ZM97.489 158.928L100.98 157.639L101.037 158.418L97.5456 159.707L97.489 158.928ZM103.734 152.084L104.261 159.338L103.435 159.643L102.908 152.389L103.734 152.084ZM108.023 157.949L105.918 158.726L105.39 151.473L107.589 150.661C108.251 150.417 108.828 150.353 109.32 150.469C109.812 150.584 110.203 150.865 110.493 151.313C110.783 151.759 110.955 152.357 111.01 153.108C111.065 153.863 110.986 154.561 110.772 155.199C110.558 155.836 110.22 156.39 109.757 156.862C109.294 157.331 108.716 157.693 108.023 157.949ZM106.687 157.642L107.913 157.189C108.477 156.981 108.936 156.693 109.29 156.325C109.645 155.956 109.897 155.525 110.048 155.03C110.199 154.536 110.253 153.993 110.21 153.403C110.168 152.817 110.041 152.346 109.831 151.99C109.62 151.632 109.327 151.405 108.953 151.31C108.579 151.213 108.126 151.263 107.593 151.46L106.273 151.947L106.687 157.642ZM118.153 150.485C118.209 151.25 118.127 151.959 117.908 152.613C117.688 153.266 117.363 153.827 116.932 154.297C116.501 154.766 115.995 155.108 115.413 155.323C114.831 155.538 114.302 155.578 113.827 155.443C113.352 155.308 112.965 155.01 112.664 154.548C112.364 154.087 112.186 153.474 112.13 152.709C112.075 151.944 112.157 151.235 112.376 150.581C112.595 149.928 112.921 149.367 113.352 148.897C113.783 148.428 114.289 148.086 114.871 147.871C115.453 147.656 115.981 147.616 116.457 147.751C116.932 147.886 117.319 148.184 117.62 148.646C117.92 149.107 118.098 149.72 118.153 150.485ZM117.354 150.78C117.308 150.152 117.171 149.659 116.942 149.3C116.715 148.94 116.426 148.711 116.074 148.612C115.725 148.513 115.344 148.54 114.931 148.693C114.518 148.845 114.152 149.094 113.832 149.44C113.515 149.785 113.274 150.21 113.107 150.715C112.943 151.219 112.884 151.785 112.93 152.414C112.975 153.042 113.112 153.536 113.339 153.896C113.568 154.255 113.857 154.484 114.206 154.583C114.558 154.681 114.94 154.654 115.353 154.501C115.766 154.349 116.131 154.1 116.448 153.755C116.767 153.409 117.009 152.984 117.173 152.48C117.339 151.975 117.4 151.409 117.354 150.78ZM123.142 146.782C123.076 146.438 122.894 146.219 122.595 146.125C122.296 146.032 121.94 146.062 121.527 146.214C121.225 146.326 120.965 146.475 120.746 146.663C120.529 146.849 120.364 147.057 120.251 147.285C120.139 147.513 120.092 147.743 120.109 147.974C120.123 148.168 120.178 148.318 120.275 148.426C120.374 148.53 120.496 148.602 120.64 148.644C120.784 148.683 120.934 148.704 121.089 148.707C121.244 148.708 121.387 148.703 121.516 148.691L122.223 148.634C122.404 148.618 122.607 148.613 122.831 148.62C123.057 148.627 123.276 148.668 123.487 148.746C123.7 148.82 123.88 148.95 124.028 149.135C124.176 149.32 124.262 149.583 124.287 149.923C124.316 150.315 124.245 150.705 124.075 151.093C123.907 151.48 123.645 151.834 123.29 152.157C122.937 152.479 122.498 152.736 121.974 152.93C121.486 153.11 121.056 153.183 120.687 153.147C120.319 153.111 120.022 152.98 119.796 152.756C119.572 152.53 119.433 152.224 119.377 151.837L120.23 151.523C120.272 151.788 120.375 151.983 120.539 152.107C120.705 152.227 120.908 152.288 121.148 152.289C121.389 152.288 121.646 152.237 121.917 152.137C122.232 152.02 122.511 151.861 122.754 151.66C122.997 151.456 123.185 151.23 123.317 150.979C123.449 150.727 123.506 150.469 123.487 150.204C123.469 149.963 123.392 149.791 123.254 149.686C123.116 149.582 122.941 149.521 122.727 149.502C122.514 149.484 122.285 149.484 122.04 149.502L121.182 149.557C120.637 149.59 120.198 149.514 119.865 149.326C119.532 149.139 119.348 148.801 119.313 148.312C119.283 147.906 119.361 147.513 119.545 147.135C119.732 146.753 119.994 146.414 120.333 146.117C120.674 145.816 121.062 145.586 121.497 145.425C121.937 145.263 122.334 145.202 122.688 145.244C123.042 145.283 123.33 145.409 123.551 145.624C123.774 145.837 123.904 146.125 123.942 146.487L123.142 146.782ZM128.427 150.417L127.9 143.163L128.726 142.858L128.988 146.457L129.068 146.427L131.871 141.698L132.95 141.299L130.323 145.629L133.478 148.553L132.478 148.922L129.861 146.425L129.082 147.76L129.253 150.112L128.427 150.417ZM138.497 139.252L139.323 138.947L139.672 143.749C139.708 144.245 139.631 144.728 139.439 145.199C139.25 145.667 138.964 146.086 138.583 146.457C138.202 146.826 137.743 147.109 137.208 147.307C136.673 147.504 136.198 147.565 135.785 147.49C135.371 147.413 135.04 147.221 134.792 146.915C134.546 146.605 134.405 146.203 134.369 145.707L134.02 140.904L134.846 140.599L135.19 145.331C135.216 145.685 135.312 145.974 135.478 146.196C135.645 146.415 135.869 146.554 136.152 146.613C136.436 146.668 136.768 146.625 137.148 146.485C137.528 146.345 137.849 146.146 138.111 145.89C138.372 145.63 138.565 145.337 138.69 145.01C138.816 144.68 138.867 144.338 138.841 143.983L138.497 139.252ZM146.383 136.34L146.911 143.594L146.111 143.889L141.979 139.566L141.913 139.591L142.327 145.286L141.5 145.591L140.973 138.338L141.773 138.042L145.919 142.374L145.985 142.35L145.571 136.64L146.383 136.34ZM148.564 142.984L148.037 135.73L152.154 134.21L152.211 134.989L148.919 136.204L149.098 138.655L152.176 137.519L152.232 138.298L149.154 139.434L149.333 141.9L152.678 140.665L152.735 141.444L148.564 142.984ZM154.171 140.914L153.643 133.66L157.761 132.14L157.818 132.92L154.526 134.135L154.704 136.586L157.783 135.449L157.839 136.228L154.761 137.365L154.94 139.83L158.285 138.595L158.341 139.374L154.171 140.914ZM164.66 129.594L165.187 136.847L164.388 137.142L160.256 132.82L160.19 132.844L160.603 138.539L159.777 138.844L159.25 131.591L160.05 131.296L164.196 135.628L164.262 135.603L163.848 129.894L164.66 129.594Z" fill="#198656"/>
<defs>
<filter id="filter0_i_413_3487" x="8.57561" y="4.99998" width="194" height="215" filterUnits="userSpaceOnUse" color-interpolation-filters="sRGB">
<feFlood flood-opacity="0" result="BackgroundImageFix"/>
<feBlend mode="normal" in="SourceGraphic" in2="BackgroundImageFix" result="shape"/>
<feColorMatrix in="SourceAlpha" type="matrix" values="0 0 0 0 0 0 0 0 0 0 0 0 0 0 0 0 0 0 127 0" result="hardAlpha"/>
<feOffset dy="-5"/>
<feGaussianBlur stdDeviation="6.5"/>
<feComposite in2="hardAlpha" operator="arithmetic" k2="-1" k3="1"/>
<feColorMatrix type="matrix" values="0 0 0 0 1 0 0 0 0 1 0 0 0 0 1 0 0 0 0.25 0"/>
<feBlend mode="normal" in2="shape" result="effect1_innerShadow_413_3487"/>
</filter>
<filter id="filter1_ii_413_3487" x="3.33597" y="8.36833" width="185.434" height="204.132" filterUnits="userSpaceOnUse" color-interpolation-filters="sRGB">
<feFlood flood-opacity="0" result="BackgroundImageFix"/>
<feBlend mode="normal" in="SourceGraphic" in2="BackgroundImageFix" result="shape"/>
<feColorMatrix in="SourceAlpha" type="matrix" values="0 0 0 0 0 0 0 0 0 0 0 0 0 0 0 0 0 0 127 0" result="hardAlpha"/>
<feOffset dx="-5" dy="-2"/>
<feGaussianBlur stdDeviation="4.5"/>
<feComposite in2="hardAlpha" operator="arithmetic" k2="-1" k3="1"/>
<feColorMatrix type="matrix" values="0 0 0 0 1 0 0 0 0 1 0 0 0 0 1 0 0 0 0.35 0"/>
<feBlend mode="normal" in2="shape" result="effect1_innerShadow_413_3487"/>
<feColorMatrix in="SourceAlpha" type="matrix" values="0 0 0 0 0 0 0 0 0 0 0 0 0 0 0 0 0 0 127 0" result="hardAlpha"/>
<feOffset dx="4" dy="-1"/>
<feGaussianBlur stdDeviation="2"/>
<feComposite in2="hardAlpha" operator="arithmetic" k2="-1" k3="1"/>
<feColorMatrix type="matrix" values="0 0 0 0 0.0765625 0 0 0 0 0.525 0 0 0 0 0.36411 0 0 0 1 0"/>
<feBlend mode="normal" in2="effect1_innerShadow_413_3487" result="effect2_innerShadow_413_3487"/>
</filter>
<filter id="filter2_f_413_3487" x="41.5756" y="22" width="156" height="194" filterUnits="userSpaceOnUse" color-interpolation-filters="sRGB">
<feFlood flood-opacity="0" result="BackgroundImageFix"/>
<feBlend mode="normal" in="SourceGraphic" in2="BackgroundImageFix" result="shape"/>
<feGaussianBlur stdDeviation="1" result="effect1_foregroundBlur_413_3487"/>
</filter>
<filter id="filter3_ddii_413_3487" x="117.576" y="50" width="92" height="68" filterUnits="userSpaceOnUse" color-interpolation-filters="sRGB">
<feFlood flood-opacity="0" result="BackgroundImageFix"/>
<feColorMatrix in="SourceAlpha" type="matrix" values="0 0 0 0 0 0 0 0 0 0 0 0 0 0 0 0 0 0 127 0" result="hardAlpha"/>
<feOffset dy="5"/>
<feGaussianBlur stdDeviation="4.5"/>
<feComposite in2="hardAlpha" operator="out"/>
<feColorMatrix type="matrix" values="0 0 0 0 0 0 0 0 0 0 0 0 0 0 0 0 0 0 0.25 0"/>
<feBlend mode="normal" in2="BackgroundImageFix" result="effect1_dropShadow_413_3487"/>
<feColorMatrix in="SourceAlpha" type="matrix" values="0 0 0 0 0 0 0 0 0 0 0 0 0 0 0 0 0 0 127 0" result="hardAlpha"/>
<feOffset dy="1"/>
<feComposite in2="hardAlpha" operator="out"/>
<feColorMatrix type="matrix" values="0 0 0 0 0.0509804 0 0 0 0 0.615686 0 0 0 0 0.403922 0 0 0 1 0"/>
<feBlend mode="normal" in2="effect1_dropShadow_413_3487" result="effect2_dropShadow_413_3487"/>
<feBlend mode="normal" in="SourceGraphic" in2="effect2_dropShadow_413_3487" result="shape"/>
<feColorMatrix in="SourceAlpha" type="matrix" values="0 0 0 0 0 0 0 0 0 0 0 0 0 0 0 0 0 0 127 0" result="hardAlpha"/>
<feOffset dy="-1"/>
<feGaussianBlur stdDeviation="1.5"/>
<feComposite in2="hardAlpha" operator="arithmetic" k2="-1" k3="1"/>
<feColorMatrix type="matrix" values="0 0 0 0 0 0 0 0 0 0 0 0 0 0 0 0 0 0 0.25 0"/>
<feBlend mode="normal" in2="shape" result="effect3_innerShadow_413_3487"/>
<feColorMatrix in="SourceAlpha" type="matrix" values="0 0 0 0 0 0 0 0 0 0 0 0 0 0 0 0 0 0 127 0" result="hardAlpha"/>
<feOffset dy="4"/>
<feGaussianBlur stdDeviation="2"/>
<feComposite in2="hardAlpha" operator="arithmetic" k2="-1" k3="1"/>
<feColorMatrix type="matrix" values="0 0 0 0 0.403299 0 0 0 0 0.958333 0 0 0 0 0.734923 0 0 0 1 0"/>
<feBlend mode="normal" in2="effect3_innerShadow_413_3487" result="effect4_innerShadow_413_3487"/>
</filter>
<filter id="filter4_ddi_413_3487" x="131.576" y="67" width="32" height="34" filterUnits="userSpaceOnUse" color-interpolation-filters="sRGB">
<feFlood flood-opacity="0" result="BackgroundImageFix"/>
<feColorMatrix in="SourceAlpha" type="matrix" values="0 0 0 0 0 0 0 0 0 0 0 0 0 0 0 0 0 0 127 0" result="hardAlpha"/>
<feOffset dx="1" dy="3"/>
<feGaussianBlur stdDeviation="2.5"/>
<feComposite in2="hardAlpha" operator="out"/>
<feColorMatrix type="matrix" values="0 0 0 0 0 0 0 0 0 0 0 0 0 0 0 0 0 0 0.25 0"/>
<feBlend mode="normal" in2="BackgroundImageFix" result="effect1_dropShadow_413_3487"/>
<feColorMatrix in="SourceAlpha" type="matrix" values="0 0 0 0 0 0 0 0 0 0 0 0 0 0 0 0 0 0 127 0" result="hardAlpha"/>
<feOffset dy="2"/>
<feComposite in2="hardAlpha" operator="out"/>
<feColorMatrix type="matrix" values="0 0 0 0 0 0 0 0 0 0 0 0 0 0 0 0 0 0 0.15 0"/>
<feBlend mode="normal" in2="effect1_dropShadow_413_3487" result="effect2_dropShadow_413_3487"/>
<feBlend mode="normal" in="SourceGraphic" in2="effect2_dropShadow_413_3487" result="shape"/>
<feColorMatrix in="SourceAlpha" type="matrix" values="0 0 0 0 0 0 0 0 0 0 0 0 0 0 0 0 0 0 127 0" result="hardAlpha"/>
<feOffset dy="-2"/>
<feGaussianBlur stdDeviation="2.5"/>
<feComposite in2="hardAlpha" operator="arithmetic" k2="-1" k3="1"/>
<feColorMatrix type="matrix" values="0 0 0 0 1 0 0 0 0 1 0 0 0 0 1 0 0 0 0.4 0"/>
<feBlend mode="normal" in2="shape" result="effect3_innerShadow_413_3487"/>
</filter>
<filter id="filter5_f_413_3487" x="138.99" y="72.1978" width="19.038" height="22.9334" filterUnits="userSpaceOnUse" color-interpolation-filters="sRGB">
<feFlood flood-opacity="0" result="BackgroundImageFix"/>
<feBlend mode="normal" in="SourceGraphic" in2="BackgroundImageFix" result="shape"/>
<feGaussianBlur stdDeviation="2.5" result="effect1_foregroundBlur_413_3487"/>
</filter>
<linearGradient id="paint0_linear_413_3487" x1="80.4552" y1="131.565" x2="106.041" y2="193.697" gradientUnits="userSpaceOnUse">
<stop stop-color="#109867"/>
<stop offset="0.833333" stop-color="#18B079"/>
<stop offset="0.921875" stop-color="#2EC48D"/>
<stop offset="1" stop-color="#2BC18B"/>
</linearGradient>
<linearGradient id="paint1_linear_413_3487" x1="15.8077" y1="135.988" x2="189.061" y2="86.3808" gradientUnits="userSpaceOnUse">
<stop offset="0.0802786" stop-color="#109465"/>
<stop offset="0.859651" stop-color="#05C872"/>
<stop offset="1" stop-color="#02F58A"/>
</linearGradient>
<linearGradient id="paint2_linear_413_3487" x1="200.428" y1="66.814" x2="121.544" y2="84.0596" gradientUnits="userSpaceOnUse">
<stop stop-color="#15A26F"/>
<stop offset="0.182292" stop-color="#24CA89"/>
<stop offset="0.364583" stop-color="#32DD98"/>
<stop offset="0.557292" stop-color="#24E696"/>
<stop offset="0.828125" stop-color="#15DB86"/>
<stop offset="1" stop-color="#04CB73"/>
</linearGradient>
<linearGradient id="paint3_linear_413_3487" x1="126.076" y1="93" x2="172.091" y2="97.8517" gradientUnits="userSpaceOnUse">
<stop stop-color="#4C3F3F"/>
<stop offset="0.197917" stop-color="#B4A8A2"/>
<stop offset="0.28125" stop-color="#D8CDC5"/>
<stop offset="0.353211" stop-color="#E3DFDB"/>
<stop offset="0.442708" stop-color="#E0D4CA"/>
<stop offset="0.541667" stop-color="#8A7B72"/>
</linearGradient>
</defs>
</svg>
