<svg width="1114" height="260" viewBox="0 0 1114 260" fill="none" xmlns="http://www.w3.org/2000/svg">
<g opacity="0.5">
<path d="M-32 198.818C35.0602 198.768 104.487 200.637 171.147 197.02C253.465 192.557 333.233 180.233 415.259 174.67C481.984 170.147 539.903 174.984 602.349 187.088C653.871 197.075 704.474 207.898 760.545 208.239C819.803 208.602 873.226 194.371 928.033 184.79C991.322 173.725 1045.36 176.078 1106.52 189.561C1164.76 202.402 1219.07 218.886 1284.82 217.963C1366.11 216.82 1442.38 199.345 1524 198.818" stroke="url(#paint0_linear_413_3402)" stroke-miterlimit="10"/>
<path d="M-32 190.875C33.3407 190.809 101.685 192.8 166.54 188.583C252.379 183.002 335.03 168.739 420.469 161.931C488.543 156.504 543.176 162.718 604.302 178.014C652.646 190.111 701.206 204.083 756.497 204.82C818.651 205.639 876.363 187.147 932.432 175.782C961.802 169.86 992.759 164.312 1024.78 165.588C1056.11 166.842 1085.78 173.555 1113.19 180.984C1168.42 195.923 1222.24 216.487 1287.97 214.915C1368.9 212.974 1442.62 192.239 1524 190.892" stroke="url(#paint1_linear_413_3402)" stroke-miterlimit="10"/>
<path d="M-32 183.934C31.7541 183.851 98.9877 185.907 162.072 181.163C251.187 174.48 336.423 158.248 425.031 150.202C494.663 143.873 546.142 151.404 605.617 169.996C650.709 184.094 697.239 201.323 752.035 202.493C816.87 203.872 879.543 180.853 936.684 167.824C966.616 160.997 999.628 153.798 1033.06 155.383C1064.4 156.868 1093.76 164.981 1119.96 173.393C1172.21 190.174 1225.47 215.083 1291.36 212.861C1371.95 210.134 1442.84 186.062 1524 183.934" stroke="url(#paint2_linear_413_3402)" stroke-miterlimit="10"/>
<path d="M-32 176.856C30.2292 176.757 96.4672 178.799 157.94 173.74C249.96 166.16 337.485 148.336 428.835 139.275C463.618 135.829 496.586 133.836 530.656 139.88C558.416 144.807 582.836 153.455 606.392 162.197C648.534 177.825 693.02 197.868 747.686 199.436C814.896 201.369 882.604 174.357 940.673 160.094C971.123 152.613 1006.17 143.948 1040.87 145.781C1072.35 147.433 1101.32 156.719 1126.4 165.89C1175.87 183.968 1228.49 212.582 1294.74 209.813C1375.03 206.45 1442.98 179.575 1524 176.828" stroke="url(#paint3_linear_413_3402)" stroke-miterlimit="10"/>
<path d="M-32 170.342C28.9217 170.238 94.2629 172.263 154.32 166.989C248.674 158.703 337.863 139.409 431.515 129.526C466.417 125.844 499.288 123.561 533.185 130.399C560.685 135.979 584.122 145.555 606.533 155.125C646.2 172.043 688.828 194.531 743.763 196.424C778.87 197.637 814.172 188.335 844.493 180.461C878.13 171.725 910.471 161.77 944.098 153.023C975.002 144.99 1011.74 135.134 1047.62 137.192C1079.32 139.008 1107.83 149.21 1132.02 159.032C1179.22 178.238 1230.85 209.989 1297.73 206.773C1377.89 202.932 1442.99 173.475 1524 170.32" stroke="url(#paint4_linear_413_3402)" stroke-miterlimit="10"/>
<path d="M-32 163.337C27.8304 163.232 92.48 165.277 151.381 159.866C247.399 151.05 337.626 130.289 432.844 119.715C467.584 115.846 500.703 113.375 534.254 120.754C561.722 126.796 584.457 137.27 606.057 147.573C644.071 165.697 685.089 190.227 740.694 192.344C776.763 193.704 813.092 183.556 843.887 175.165C878.649 165.686 911.963 154.897 946.724 145.406C978.06 136.844 1015.88 126.138 1052.72 128.321C1084.75 130.223 1112.78 141.139 1136.31 151.602C1182.05 171.937 1232.1 206.212 1300.05 202.758C1380.21 198.684 1442.83 166.631 1524 163.359" stroke="url(#paint5_linear_413_3402)" stroke-miterlimit="10"/>
<path d="M-32 156.274C26.9859 156.187 91.2339 158.249 149.269 152.937C246.095 144.074 336.567 122.447 432.518 111.697C466.781 107.867 500.515 105.373 533.59 112.725C561.284 118.88 583.705 129.806 604.905 140.436C642.313 159.223 682.119 184.477 738.89 186.512C775.758 187.836 812.182 177.687 843.409 169.005C878.905 159.157 912.833 147.931 948.318 138.072C980.053 129.253 1018.03 118.486 1055.62 120.631C1088.04 122.48 1115.59 133.482 1138.83 144.282C1184.21 165.372 1231.87 200.156 1301.41 196.77C1381.77 192.858 1442.5 159.179 1524 156.285" stroke="url(#paint6_linear_413_3402)" stroke-miterlimit="10"/>
<path d="M-32 149.703C26.7714 149.515 90.8159 151.853 148.604 146.396C244.774 137.295 334.092 114.855 429.289 103.77C463.456 99.7952 497.17 97.414 530.224 104.734C558.318 110.969 581.183 122.109 602.697 132.951C640.797 152.156 681.026 177.925 738.544 180.329C775.672 181.878 811.881 171.779 843.25 162.894C878.8 152.817 912.665 141.286 948.204 131.204C980.092 122.153 1017.88 111.454 1055.75 113.769C1088.38 115.764 1115.78 126.871 1139.05 137.874C1184.62 159.421 1231.37 194.005 1301.47 190.791C1382.06 187.109 1442.16 152.25 1524 149.703" stroke="url(#paint7_linear_413_3402)" stroke-miterlimit="10"/>
<path d="M-32 143.75C27.0212 143.41 90.8725 146.348 148.867 140.532C243.331 131.059 330.642 108.335 424.101 96.9015C458.68 92.6675 491.508 90.4653 525.038 97.8076C553.641 104.063 577.316 115.046 599.62 125.754C638.985 144.678 680.911 170.61 738.431 173.877C775.332 175.975 811.672 165.887 842.771 157.04C877.89 147.051 911.247 135.551 946.355 125.551C978.178 116.484 1015.97 105.908 1053.79 108.648C1086.32 111.004 1114.12 122.229 1137.71 133.069C1183.52 154.102 1231.63 187.908 1300.88 184.8C1381.67 181.17 1441.96 146.243 1524 143.75" stroke="url(#paint8_linear_413_3402)" stroke-miterlimit="10"/>
<path d="M-32 137.423C27.3557 137.015 91.0338 140.78 149.385 134.61C241.925 124.823 326.955 101.748 418.447 90.023C453.317 85.5423 485.377 83.5442 519.285 90.8102C548.331 97.0358 572.957 107.759 596.092 118.41C636.776 137.125 680.636 163.024 738.101 167.092C774.668 169.685 810.726 159.782 841.544 150.953C876.068 141.045 908.723 129.59 943.226 119.687C974.951 110.582 1012.38 100.283 1050.03 103.421C1082.6 106.14 1110.89 117.441 1135.02 128.191C1181.43 148.833 1231.11 181.872 1299.84 178.8C1380.98 175.178 1441.61 139.944 1524 137.456" stroke="url(#paint9_linear_413_3402)" stroke-miterlimit="10"/>
<path d="M-32 131.273C27.7643 130.883 91.4077 135.631 150.167 129.165C240.586 119.224 323.139 95.9783 412.477 84.0836C447.487 79.4234 478.941 77.6724 513.129 84.7093C542.692 90.7912 568.236 101.176 592.267 111.605C634.646 129.933 680.039 155.386 737.664 160.189C773.797 163.197 809.217 153.75 839.731 145.006C873.498 135.324 905.319 124 939.064 114.306C970.67 105.222 1007.38 95.4623 1044.79 98.9369C1077.51 101.983 1106.38 113.208 1131.24 123.78C1178.58 143.908 1230.03 175.843 1298.38 172.797C1380.02 169.158 1441.11 133.787 1524 131.289" stroke="url(#paint10_linear_413_3402)" stroke-miterlimit="10"/>
<path d="M-32 124.847C28.2518 124.539 91.8749 130.441 151.165 123.681C239.317 113.632 319.245 90.1284 406.284 78.1431C441.273 73.3137 472.295 71.8121 506.657 78.5556C536.75 84.463 563.192 94.5068 588.207 104.638C632.509 122.586 679.287 147.481 737.129 152.987C806.933 159.637 877.471 125.028 934.038 108.714C965.526 99.6276 1001.24 90.5245 1038.33 94.3362C1071.31 97.73 1100.79 108.868 1126.5 119.303C1175.03 138.999 1228.41 169.857 1296.6 166.787C1378.84 163.091 1440.52 127.388 1524 124.847" stroke="url(#paint11_linear_413_3402)" stroke-miterlimit="10"/>
<path d="M-32 118.642C28.7813 118.472 92.4152 125.608 152.321 118.642C238.106 108.63 315.28 85.1175 399.898 73.145C434.768 68.2158 465.488 66.989 499.947 73.3148C530.591 78.9505 557.951 88.5077 583.949 98.2785C630.175 115.64 678.346 139.602 736.48 145.763C805.225 153.037 872.728 119.573 928.246 103.591C958.945 94.7678 994.733 85.8733 1030.81 90.4192C1064.31 94.6364 1093.82 104.862 1120.99 115.268C1170.92 134.382 1226.35 163.864 1294.53 160.775C1377.48 157.024 1439.81 121.205 1524 118.603" stroke="url(#paint12_linear_413_3402)" stroke-miterlimit="10"/>
<path d="M-32 112.946C29.3535 112.946 93.0518 121.494 153.627 114.234C236.97 104.244 311.312 80.5152 393.433 68.5492C536.066 47.7489 610.472 124.538 735.762 139.234C803.296 147.165 867.383 114.746 921.897 99.0092C952.455 90.2026 986.86 82.183 1022.49 87.0102C1056.4 91.6061 1086.6 101.657 1114.86 111.917C1166.35 130.631 1223.93 158.911 1292.25 155.757C1375.96 151.904 1439.04 115.626 1524 112.946" stroke="url(#paint13_linear_413_3402)" stroke-miterlimit="10"/>
<path d="M-32 107.475C29.9474 107.706 93.7533 117.653 155.052 110.181C235.909 100.328 307.409 76.5547 386.969 64.6984C526.65 43.8907 611.721 116.965 734.989 132.706C801.356 141.189 861.596 110.22 915.115 94.7931C945.543 86.0232 978.446 79.0635 1013.56 84.1086C1047.94 89.0602 1078.9 98.8533 1108.29 108.894C1161.44 127.05 1221.21 153.959 1289.83 150.735C1374.36 146.768 1438.22 110.242 1524 107.475" stroke="url(#paint14_linear_413_3402)" stroke-miterlimit="10"/>
<path d="M-32 101.897C30.5659 102.365 94.5042 113.787 156.573 106.114C234.959 96.4231 303.533 72.5766 380.632 60.8572C517.359 40.0701 612.958 109.284 734.232 126.107C799.413 135.148 855.561 105.645 908.142 90.4918C938.463 81.7547 969.735 75.9005 1004.31 81.1208C1039.16 86.4071 1070.93 96.0042 1101.49 105.816C1156.34 123.456 1218.32 149.011 1287.29 145.709C1372.65 141.614 1437.36 104.741 1524 101.875" stroke="url(#paint15_linear_413_3402)" stroke-miterlimit="10"/>
<path d="M-32 96.2213C31.1693 96.9344 95.2894 109.854 158.178 101.998C234.141 92.5009 299.882 68.5752 374.494 57.0214C508.31 36.2964 614.129 101.539 733.412 119.423C797.413 129.02 849.344 101.009 901.027 86.1048C931.218 77.398 960.966 72.6825 994.971 78.1056C1030.3 83.7443 1062.91 93.1255 1094.61 102.722C1151.18 119.86 1215.34 144.073 1284.73 140.678C1370.99 136.455 1436.5 99.2175 1524 96.2213" stroke="url(#paint16_linear_413_3402)" stroke-miterlimit="10"/>
<path d="M-32 91.0433C31.751 91.9867 96.0855 106.227 159.696 98.3004C233.323 89.1234 296.285 65.3881 368.518 54.1486C499.683 33.743 615.311 94.2687 732.656 113.007C795.488 123.045 843.193 96.8139 894.032 82.2886C924.092 73.704 952.38 70.1714 985.736 75.7061C1021.56 81.6413 1054.98 90.7361 1087.81 99.9954C1146.04 116.419 1212.34 139.09 1282.21 135.65C1369.33 131.344 1435.65 94.0931 1524 91.0542" stroke="url(#paint17_linear_413_3402)" stroke-miterlimit="10"/>
<path d="M-32 85.3635C32.3912 86.5366 96.8797 102.205 161.271 94.1367C232.686 85.1873 292.992 61.3737 362.981 50.3315C491.634 30.0316 616.515 86.5807 731.899 106.39C793.686 116.998 837.125 92.121 887.263 77.8295C917.227 69.2932 944.036 66.8149 976.831 72.5315C1013.12 78.8319 1047.35 87.7812 1081.26 96.8077C1141.09 112.729 1209.44 134.153 1279.79 130.612C1367.74 126.178 1434.83 88.5082 1524 85.3635" stroke="url(#paint18_linear_413_3402)" stroke-miterlimit="10"/>
<path d="M-32 80.5798C32.9954 81.9253 97.6667 98.6307 162.781 90.6008C232.153 82.0501 289.962 58.5899 357.854 47.9666C423.714 37.6579 493.777 49.2958 555.293 61.7313C614.615 73.7272 671.009 89.4615 731.218 100.34C792.226 111.365 831.137 88.0128 880.897 74.2969C946.972 56.0941 1014.65 79.18 1075.13 94.1492C1136.4 109.297 1206.67 129.144 1277.49 125.58C1366.22 121.12 1434.04 83.7483 1524 80.5743" stroke="url(#paint19_linear_413_3402)" stroke-miterlimit="10"/>
<path d="M-32 75.4383C33.6023 76.9641 98.2862 95.0977 164.234 86.8847C231.76 78.4679 287.27 54.6662 353.337 44.1177C418.593 33.6848 490.506 45.0156 552.316 56.5776C612.839 67.9028 670.445 82.8581 730.645 94.624C790.844 106.39 826.007 83.8441 875.13 70.1172C939.706 52.0773 1010.2 77.2781 1069.64 91.4071C1132.2 106.28 1204.25 125.206 1275.47 121.538C1364.88 116.927 1433.38 78.7323 1524 75.4383" stroke="url(#paint20_linear_413_3402)" stroke-miterlimit="10"/>
<path d="M-32 70.5803C34.2178 72.2147 98.8472 91.1513 165.562 82.9796C231.477 74.9113 284.944 51.3822 349.26 41.1512C414.019 30.8821 487.574 41.6306 549.664 52.1177C611.257 62.5285 670.019 76.4313 730.121 88.7815C758.475 94.6052 779.255 94.8449 806.669 87.3324C828.951 81.2254 847.796 72.3563 870.045 66.2057C899.728 57.9904 923.372 58.2192 954.46 64.3262C991.815 71.6753 1028.21 80.1249 1064.86 88.3348C1128.48 102.543 1202.1 120.172 1273.63 116.511C1363.66 111.902 1432.73 73.8763 1524 70.5803" stroke="url(#paint21_linear_413_3402)" stroke-miterlimit="10"/>
<path d="M-32 65.7213C34.8342 67.3733 99.2695 87.4285 166.763 79.141C231.371 71.2059 283.012 47.3346 346.032 37.2574C410.457 26.9545 485.363 37.3675 547.702 47.1694C610.041 56.9712 669.894 70.2973 729.802 83.5132C757.487 89.6201 777.726 90.4847 804.903 82.9295C826.45 76.9383 844.431 68.0946 865.923 62.0593C895.445 53.7663 918.721 54.6474 949.269 61.0241C986.808 68.8601 1023.76 77.3843 1061.11 85.4516C1125.52 99.3614 1200.58 116.19 1272.22 112.478C1362.76 107.792 1432.29 69.1244 1524 65.7708" stroke="url(#paint22_linear_413_3402)" stroke-miterlimit="10"/>
<path d="M-32 61.7072C35.4572 63.3099 99.5216 83.9905 167.768 75.7084C231.411 67.9751 281.439 44.0013 343.58 34.2538C407.914 24.1494 483.627 34.0562 546.351 43.1287C609.584 52.267 669.953 64.9948 729.609 78.8917C756.73 85.2035 776.741 86.5317 803.711 79.0015C824.673 73.1562 841.929 64.3966 862.827 58.4965C892.206 50.2033 915.459 51.548 945.541 58.1452C983.132 66.3779 1020.52 74.8961 1058.43 82.7666C1123.27 96.2299 1199.57 112.136 1271.16 108.464C1362.04 103.799 1431.91 65.0388 1524 61.7072" stroke="url(#paint23_linear_413_3402)" stroke-miterlimit="10"/>
<path d="M-32 56.982C36.075 58.4243 99.5901 79.4277 168.594 71.1929C231.58 63.6765 280.529 39.7994 341.926 30.2475C406.057 20.2765 482.766 29.8883 545.654 38.3244C609.537 46.8967 670.177 59.1754 729.554 73.702C756.233 80.2332 776.353 81.8116 803.183 74.2952C823.714 68.5423 840.43 59.8503 860.928 54.043C890.2 45.7483 913.778 47.3158 943.504 54.1573C981.021 62.7894 1018.69 71.2963 1057.03 78.9705C1122.05 91.984 1199.25 107.049 1270.54 103.463C1361.65 98.8853 1431.69 60.2422 1524 56.982" stroke="url(#paint24_linear_413_3402)" stroke-miterlimit="10"/>
<path d="M-32 52.2874C36.4208 53.6018 99.4928 75.1449 168.918 66.7121C231.688 59.0911 280.345 34.8862 341.548 25.2495C405.614 15.1655 482.669 25.1169 545.579 33.4945C609.688 42.0322 670.134 54.397 729.586 69.2027C756.168 75.8297 776.569 77.2103 803.215 69.6335C823.605 63.8349 840.214 55.0928 860.604 49.2777C889.779 40.9609 913.789 42.5072 943.234 49.6477C980.589 58.7045 1018.3 67.4024 1056.8 75.1117C1121.51 88.0729 1199.71 103.188 1270.46 99.4106C1361.43 94.5618 1431.93 56.0151 1524 52.304" stroke="url(#paint25_linear_413_3402)" stroke-miterlimit="10"/>
<path d="M-32 47.7648C36.6147 49.0044 99.5421 70.5447 169.173 62.0701C231.884 54.4347 280.821 30.5962 342.105 21.0849C406.211 11.1348 483.14 21.4524 545.992 29.8283C609.936 38.3522 670.16 50.6116 730.06 64.6207C786.759 77.8783 814.861 57.49 861.559 44.7753C890.752 36.8273 914.928 38.2754 944.121 45.3952C981.337 54.4731 1019.01 63.0903 1057.52 70.6598C1121.9 83.3086 1201.16 98.3928 1271.44 94.3229C1362.08 89.0681 1433.48 52.3394 1525 47.847" stroke="url(#paint26_linear_413_3402)" stroke-miterlimit="10"/>
<path d="M-32 44.1866C36.8216 45.3781 99.5989 66.9997 169.448 58.4844C232.16 50.8327 281.292 27.331 342.61 17.9412C406.717 8.10333 483.421 18.7775 546.177 27.1506C609.873 35.6495 669.872 47.8103 730.119 61.0641C786.344 73.438 815.451 53.4835 862.183 41.3883C891.377 33.8131 915.77 35.2123 944.704 42.3174C981.748 51.412 1019.31 59.9327 1057.81 67.344C1121.93 79.6906 1201.99 94.5622 1271.68 90.2335C1361.87 84.6369 1434.15 49.6303 1525 44.4435" stroke="url(#paint27_linear_413_3402)" stroke-miterlimit="10"/>
<path d="M-31 39.5781C38.0136 40.7378 100.652 62.5545 170.714 53.9931C233.309 46.3452 282.7 23.0897 344.021 13.7898C408.085 4.10683 484.49 15.0589 547.085 23.4453C610.437 31.9247 670.266 44.0038 730.689 56.5369C786.477 68.0962 816.559 48.5662 863.379 37.0233C892.629 29.8186 917.189 31.219 945.888 38.3253C982.702 47.4448 1020.16 55.8749 1058.58 63.118C1122.49 75.1806 1202.98 89.6995 1272.16 85.1425C1361.84 79.2398 1434.91 45.8474 1525 40.0157" stroke="url(#paint28_linear_413_3402)" stroke-miterlimit="10"/>
<path d="M-31 35.8953C38.3068 37.0486 100.828 59.1209 171.248 50.5205C233.79 42.8866 283.485 19.8037 344.86 10.6541C408.905 1.10351 484.922 12.3456 547.497 20.7374C610.504 29.1951 670.151 41.1951 730.824 53.0193C786.192 63.8111 817.333 44.7209 864.37 33.7589C893.718 26.9159 918.473 28.3713 946.989 35.4834C983.516 44.685 1021 52.8728 1059.27 60.0106C1123.13 71.7855 1203.85 85.823 1272.63 81.0395C1361.73 74.872 1435.69 43.0404 1525 36.6312" stroke="url(#paint29_linear_413_3402)" stroke-miterlimit="10"/>
<path d="M-31 31.8088C38.6187 32.9552 101.117 55.0862 171.881 46.5483C234.368 39.0202 284.397 16.3815 345.847 7.47234C409.868 -1.80805 485.56 9.54132 548.014 17.8445C610.685 26.1641 670.169 37.9284 730.981 48.9175C785.937 58.853 818.202 40.4396 865.518 30.2038C895.006 23.8222 919.945 25.3507 948.298 32.3875C984.604 41.4733 1021.95 49.4595 1060.13 56.3036C1124.02 67.642 1204.73 80.8366 1273.14 75.9562C1361.67 69.64 1436.47 39.7299 1525 32.8624" stroke="url(#paint30_linear_413_3402)" stroke-miterlimit="10"/>
<path d="M-31 27.6544C38.9773 28.802 101.466 51.0407 172.632 42.5999C235.078 35.1924 285.465 12.9646 346.938 4.30077C410.929 -4.71656 486.222 6.72641 548.625 14.9279C610.833 23.0859 670.296 34.6214 731.175 44.7917C785.744 53.9123 819.198 36.1932 866.84 26.6864C896.49 20.7691 921.624 22.4061 949.859 29.4057C985.918 38.3711 1023.1 46.1485 1061.16 52.6886C1125.16 63.566 1205.62 75.8356 1273.74 70.8593C1361.65 64.4416 1437.27 36.3998 1525 29.1392" stroke="url(#paint31_linear_413_3402)" stroke-miterlimit="10"/>
<path d="M-31 23.8433C39.3658 25.0344 101.908 47.798 173.484 39.2837C235.886 31.9054 286.64 9.72634 348.178 1.17897C412.125 -7.69927 487.008 3.98581 549.269 12.2078C611.045 20.3692 670.443 31.8006 731.343 41.3185C785.533 49.7832 820.24 32.4954 868.238 23.5951C898.072 18.0807 923.401 19.8674 951.549 26.9038C987.369 35.8863 1024.39 43.5614 1062.34 49.8714C1126.55 60.4757 1206.55 71.863 1274.42 66.729C1361.7 60.1117 1438.09 33.5266 1525 25.7844" stroke="url(#paint32_linear_413_3402)" stroke-miterlimit="10"/>
<path d="M-31 20.2651C39.7882 21.4751 102.321 44.1922 174.427 35.8913C236.787 28.7077 287.941 7.15693 349.545 -1.02952C413.439 -9.51574 487.858 2.07174 550.034 10.0947C611.378 18.0141 670.723 29.0293 731.569 37.6409C785.393 45.2714 821.43 28.8821 869.807 20.8428C899.847 15.8557 925.37 17.8124 953.454 24.6581C989.024 33.4016 1025.87 40.7558 1063.67 46.6558C1128.13 56.6572 1207.49 66.7513 1275.16 61.617C1361.79 55.0766 1438.91 30.6044 1525 22.636" stroke="url(#paint33_linear_413_3402)" stroke-miterlimit="10"/>
<path d="M-31 15.9831C40.2302 17.2417 102.827 40.2683 175.386 32.0492C237.777 25.0066 289.331 3.74205 351.009 -4.19249C414.837 -12.4006 488.736 -0.772429 550.912 7.16211C611.801 14.9434 671.102 25.6851 731.883 33.5267C785.338 40.427 822.779 24.7385 871.556 17.4661C901.811 12.9571 927.518 15.1131 955.58 21.9532C990.89 30.5775 1027.55 37.7029 1065.19 43.256C1129.89 52.783 1208.45 61.6696 1275.98 56.4547C1361.92 49.8499 1439.73 27.1954 1525 18.9216" stroke="url(#paint34_linear_413_3402)" stroke-miterlimit="10"/>
<path d="M-31 12.6956C40.6733 14.0019 103.345 37.416 176.542 29.2751C238.836 22.3413 290.822 1.34134 352.565 -6.3476C416.318 -14.2901 489.709 -2.6051 551.744 5.22715C612.19 12.8775 671.448 23.3389 732.099 30.4326C785.219 36.6498 824.141 21.6137 873.295 15.1318C903.767 11.1027 929.679 13.4783 957.752 20.3184C992.795 28.8315 1029.26 35.7286 1066.71 40.927C1131.84 49.9663 1209.42 57.5175 1276.84 52.2758C1362.12 45.6616 1440.54 24.7609 1525 16.1901" stroke="url(#paint35_linear_413_3402)" stroke-miterlimit="10"/>
<path d="M-31 8.95535C41.1919 10.3272 103.983 33.7689 177.698 25.8494C239.982 19.165 292.421 -1.24336 354.207 -8.55079C417.906 -16.0768 490.746 -4.55548 552.694 3.07989C612.687 10.4748 671.901 20.4549 732.391 26.691C785.198 32.1566 825.654 18.05 875.175 12.4806C905.874 9.01001 931.98 11.6171 960.096 18.3069C994.874 26.5593 1031.14 33.1025 1068.39 37.8462C1133.91 46.2194 1210.42 52.2698 1277.75 47.0666C1362.35 40.5353 1441.34 21.7884 1525 13.0928" stroke="url(#paint36_linear_413_3402)" stroke-miterlimit="10"/>
<path d="M-31 5.53833C41.7106 6.9964 104.61 30.911 178.941 23.0849C241.17 16.5291 294.031 -3.65747 355.925 -10.7048C419.538 -17.951 491.816 -6.39135 553.667 1.15307C613.227 8.41581 672.366 18.0755 732.661 23.5709C785.198 28.3594 827.22 14.9661 877.12 10.1776C908.035 7.21179 934.325 10.1058 962.538 16.8052C997.045 24.937 1033.1 31.2296 1070.13 35.5834C1136.04 43.404 1211.38 47.9991 1278.68 42.7633C1362.62 36.2407 1442.11 19.2961 1525 10.3323" stroke="url(#paint37_linear_413_3402)" stroke-miterlimit="10"/>
<path d="M-31 2.74233C42.2184 4.2672 105.28 28.2427 180.184 20.6567C242.424 14.3543 295.728 -5.2495 357.697 -11.903C421.223 -18.721 492.929 -7.35579 554.737 -0.0386298C613.876 6.96588 672.928 16.0986 733.028 20.761C785.338 24.8145 828.96 12.3797 879.217 8.50171C910.358 6.09374 936.832 9.2422 965.153 15.7969C999.391 23.664 1035.23 29.5909 1072.03 33.47C1138.39 40.5623 1212.44 43.5681 1279.71 38.4066C1362.92 32.011 1442.88 17.2121 1525 8.16163" stroke="url(#paint38_linear_413_3402)" stroke-miterlimit="10"/>
<path d="M-31 -0.822788C42.7515 0.801169 105.978 25.227 181.502 17.7945C243.745 11.6479 297.494 -7.71213 359.543 -14.0694C422.985 -20.5541 494.111 -9.21415 555.846 -2.00889C614.588 4.8472 673.535 13.5822 733.379 17.4952C785.507 20.9039 830.72 9.23133 881.303 6.19957C912.641 4.32066 939.321 7.79028 967.752 14.3304C1001.73 22.0537 1037.35 27.6997 1073.9 31.152C1140.68 37.5979 1213.43 39.0334 1280.71 33.8567C1363.31 27.505 1443.59 14.6187 1525 5.34049" stroke="url(#paint39_linear_413_3402)" stroke-miterlimit="10"/>
<path d="M-31 -3.6713C43.2856 -1.97233 106.69 22.5855 182.813 15.3815C245.04 9.4847 299.26 -9.31983 361.379 -15.2552C424.709 -21.323 495.234 -10.1638 556.953 -3.1914C615.301 3.42797 674.114 11.5864 733.704 14.6919C785.731 17.4059 832.485 6.69353 883.453 4.5643C915.015 3.24594 941.801 7.00243 970.5 13.4232C1004.21 20.8808 1039.62 26.1512 1075.89 29.1111C1228.25 41.9582 1377.54 20.2853 1525 3.18526" stroke="url(#paint40_linear_413_3402)" stroke-miterlimit="10"/>
<path d="M-31 -6.50516C43.8393 -4.72392 107.43 19.8901 184.182 12.957C246.411 7.33371 301.098 -10.8843 363.295 -16.4363C426.518 -22.0814 496.452 -11.1309 558.043 -4.40604C616.058 1.94614 674.7 9.52601 734.023 11.8115C786.041 13.8339 834.266 4.13844 885.614 2.87787C917.36 2.11056 944.374 6.16632 973.236 12.4527C1006.56 19.7586 1041.95 24.4172 1077.88 26.9931C1226.36 37.6422 1381.22 17.8732 1525 0.997974" stroke="url(#paint41_linear_413_3402)" stroke-miterlimit="10"/>
<path d="M-31 -9.27251C44.3904 -7.3951 108.176 17.4724 185.554 10.7587C247.794 5.34057 302.935 -12.418 365.207 -17.6056C428.323 -22.8591 497.651 -12.0392 559.178 -5.52867C616.879 0.592143 675.316 7.64617 734.368 9.18872C786.483 10.5501 836.07 1.75592 887.807 1.38812C919.738 1.16305 946.924 5.54368 976.013 11.7633C1009.12 18.8393 1044.27 23.1046 1079.9 25.2236C1147.77 29.2584 1216.59 25.822 1283.9 20.8869C1364.66 14.9637 1445.54 8.46411 1525 -1.07118" stroke="url(#paint42_linear_413_3402)" stroke-miterlimit="10"/>
<path d="M-31 -12.1637C44.2915 -10.2412 107.989 14.4738 185.29 8.38492C247.28 3.48332 302.528 -13.449 364.313 -18.5848C426.768 -23.775 494.701 -13.4762 555.686 -7.25664C614.64 -1.2658 674.361 5.42762 734.709 6.26634C788.282 7.01247 840.482 -1.23312 893.936 -0.269134C926.201 0.313613 953.095 5.62913 982.67 11.5328C1013.39 17.6653 1045.83 21.1781 1078.63 22.8392C1148.46 26.3738 1217.71 21.1618 1286.7 16.2438C1366.33 10.5689 1446.68 6.20098 1525 -3.28635" stroke="url(#paint43_linear_413_3402)" stroke-miterlimit="10"/>
<path d="M-31 -14.8917C44.8118 -12.8614 108.77 12.2495 186.645 6.35039C248.648 1.65309 304.34 -14.9576 366.223 -19.7537C428.549 -24.5607 495.944 -14.332 556.844 -8.26832C615.518 -2.41864 675.013 3.80419 735.049 3.80419C788.936 3.80419 842.294 -3.4009 896.192 -1.56259C928.501 -0.465087 955.623 5.19801 985.425 11.0203C1015.94 16.9797 1048.16 20.146 1080.69 21.3971C1150.74 24.0915 1218.79 17.1608 1287.77 12.3427C1366.89 6.81683 1447.23 4.46269 1525 -5.21727" stroke="url(#paint44_linear_413_3402)" stroke-miterlimit="10"/>
<path d="M-31 -17.6166C45.3871 -15.4874 109.477 9.89178 188.015 4.20856C250.041 -0.280806 306.167 -16.4667 368.139 -20.9011C430.338 -25.3629 497.205 -15.1793 558.074 -9.29804C616.426 -3.64783 675.697 2.0299 735.421 1.22665C789.7 0.49493 844.107 -5.64493 898.461 -2.94361C930.814 -1.33163 958.153 4.64869 988.15 10.3594C1018.41 16.1197 1050.48 18.92 1082.7 19.7508C1152.94 21.5718 1219.87 12.9727 1288.84 8.27429C1367.46 2.91566 1447.68 2.61858 1525 -7.20741" stroke="url(#paint45_linear_413_3402)" stroke-miterlimit="10"/>
<path d="M-31 -19.3603C45.9155 -17.1625 110.275 8.39701 189.362 2.95764C251.398 -1.31144 307.956 -17.0362 370.024 -21.069C432.093 -25.1018 498.418 -15.0692 559.125 -9.39907C617.336 -3.9597 676.325 1.17749 735.724 -0.432347C790.477 -1.91581 845.814 -6.9486 900.62 -3.40477C933.038 -1.31144 960.571 4.98505 990.849 10.5563C1021.13 16.1275 1052.79 18.523 1084.71 18.9406C1154.95 19.8691 1220.99 9.67169 1289.88 5.11141C1368.05 -0.0642304 1448.2 1.69395 1525 -8.26174" stroke="url(#paint46_linear_413_3402)" stroke-miterlimit="10"/>
<path d="M-31 -22.0463C46.4456 -19.7521 111.032 5.81261 190.682 0.655976C252.751 -3.38084 309.719 -18.5394 371.875 -22.2102C433.771 -25.8646 499.686 -15.9556 560.286 -10.5094C618.324 -5.29819 676.989 -0.726046 736.097 -3.11317C791.39 -5.34735 847.549 -9.26399 902.842 -4.91581C935.162 -2.37027 963.02 4.21755 993.514 9.63092C1023.45 14.9405 1055.11 16.9835 1086.68 16.9999C1156.92 17.0436 1222.12 5.35375 1290.91 0.940026C1368.71 -4.05273 1448.68 -0.267192 1525 -10.3237" stroke="url(#paint47_linear_413_3402)" stroke-miterlimit="10"/>
<path d="M-31 -24C46.9632 -21.6313 111.743 4.12364 191.965 -0.831972C254.065 -4.65238 311.444 -19.3882 373.674 -22.6629C435.504 -25.9375 500.76 -16.1136 561.369 -10.8633C619.287 -5.86399 677.66 -1.8089 736.421 -4.96892C792.308 -7.97067 849.19 -10.7978 904.99 -5.64568C937.299 -2.67122 965.394 4.24371 996.115 9.52679C1025.91 14.6461 1057.3 16.3216 1088.58 15.9505C1158.71 15.1264 1223.23 1.95147 1291.92 -2.35468C1369.28 -7.20113 1449.04 -1.3832 1525 -11.6328" stroke="url(#paint48_linear_413_3402)" stroke-miterlimit="10"/>
<path d="M-31 -26C47.4462 -23.5534 112.451 2.3353 193.198 -2.39452C255.328 -6.03996 313.137 -20.2784 375.396 -23.2373C437.094 -26.1689 501.818 -16.3769 562.392 -11.331C620.2 -6.53038 678.279 -2.98847 736.703 -6.90092C793.214 -10.6826 850.795 -12.4372 906.983 -6.50314C939.258 -3.09745 967.589 4.1335 998.579 9.29924C1028.19 14.2034 1059.41 15.5548 1090.42 14.8083C1160.37 13.1354 1224.33 -1.44637 1292.9 -5.65308C1369.89 -10.3774 1449.41 -2.55254 1525 -12.9876" stroke="url(#paint49_linear_413_3402)" stroke-miterlimit="10"/>
<path d="M-31 -28C47.88 -25.483 113.124 0.529225 194.392 -3.99914C256.555 -7.46744 314.689 -21.2428 377.091 -23.8685C438.682 -26.4561 502.931 -16.7036 563.41 -11.8436C621.143 -7.19563 678.931 -4.19484 737.01 -8.83736C794.182 -13.4038 852.283 -14.1105 908.958 -7.42395C941.169 -3.6186 969.771 3.92142 1000.97 8.95535C1030.42 13.7066 1061.48 14.6905 1092.16 13.5924C1161.86 11.0972 1225.39 -4.79282 1293.83 -8.93522C1370.55 -13.5614 1449.74 -3.75451 1525 -14.4149" stroke="url(#paint50_linear_413_3402)" stroke-miterlimit="10"/>
<path d="M-31 -30C48.3776 -27.3703 113.794 -0.646325 195.517 -5.08461C257.735 -8.4577 316.226 -22.0999 378.693 -24.4521C440.187 -26.7656 503.94 -16.8128 564.364 -12.0083C622.045 -7.42025 679.552 -4.86824 737.307 -10.344C795.063 -15.8197 853.737 -15.4979 910.855 -7.91956C942.991 -3.65326 971.874 4.28571 1003.24 9.40083C1032.42 14.1664 1063.52 14.7656 1093.83 13.2843C1163.24 9.95561 1226.41 -7.57004 1294.71 -11.742C1371.1 -16.4078 1450.06 -4.37448 1525 -15.5479" stroke="url(#paint51_linear_413_3402)" stroke-miterlimit="10"/>
<path d="M-31 -31C48.8126 -28.3249 114.372 -1.52367 196.584 -5.77406C258.783 -8.97428 317.621 -22.1565 380.166 -24.1961C441.522 -26.1969 504.866 -16.248 565.228 -11.5997C622.878 -7.17796 680.117 -5.11633 737.539 -11.2902C796.043 -17.5745 855.065 -16.2646 912.595 -7.97387C944.667 -3.36422 973.8 4.84361 1005.35 9.8678C1034.41 14.494 1065.35 14.7593 1095.35 12.9851C1128.08 11.0451 1159.99 6.60125 1191.41 1.67102C1225.32 -3.64057 1260.21 -11.7434 1295.54 -13.8879C1371.66 -18.5142 1450.36 -4.53597 1525 -15.9993" stroke="url(#paint52_linear_413_3402)" stroke-miterlimit="10"/>
<path d="M-31 -33C49.2011 -30.2853 114.879 -3.35848 197.565 -7.45819C259.818 -10.5481 318.969 -23.3439 381.589 -25.0765C442.848 -26.7925 505.738 -16.7998 566.045 -12.2752C623.694 -7.96031 680.706 -6.38774 737.793 -13.2463C796.934 -20.3532 856.344 -18.0965 914.296 -9.10249C946.228 -4.13648 975.609 4.30572 1007.32 9.24965C1036.26 13.7577 1067.06 13.7246 1096.76 11.6499C1129.43 9.37656 1161.16 4.55402 1192.4 -0.682355C1226.06 -6.32153 1261 -14.8299 1296.32 -16.9874C1372.21 -21.6168 1450.66 -5.70353 1525 -17.5392" stroke="url(#paint53_linear_413_3402)" stroke-miterlimit="10"/>
<path d="M-31 -34C49.5668 -31.2441 115.416 -4.18698 198.458 -8.16094C260.752 -11.1483 320.183 -23.5442 382.856 -25.0269C444.026 -26.4765 506.494 -16.379 566.757 -11.9751C624.416 -7.76961 681.221 -6.6397 737.972 -14.1798C797.792 -22.1001 857.471 -18.9585 915.833 -9.28534C947.644 -4.01611 977.241 4.67591 1009.12 9.55931C1037.94 13.9687 1068.55 13.6601 1098.04 11.3176C1130.63 8.72704 1162.19 3.546 1193.27 -1.97126C1226.7 -7.90741 1261.69 -16.7813 1297 -18.9695C1372.64 -23.6545 1450.91 -5.82396 1525 -18.0711" stroke="url(#paint54_linear_413_3402)" stroke-miterlimit="10"/>
<path d="M-31 -35C49.9018 -32.2423 115.859 -4.97967 199.257 -8.86251C261.627 -11.7691 321.361 -23.8313 384.098 -25.0723C445.204 -26.2857 507.282 -16.0325 567.481 -11.714C625.161 -7.58294 681.804 -6.87145 738.21 -15.0618C798.646 -23.8368 858.476 -19.8657 917.248 -9.54642C948.952 -3.97035 978.743 4.95357 1010.75 9.79609C1039.47 14.1367 1069.97 13.5852 1099.18 10.9929C1131.73 8.10286 1163.12 2.58746 1194.06 -3.19819C1227.3 -9.42508 1262.32 -18.6082 1297.67 -20.8475C1373.16 -25.6348 1451.23 -5.90074 1525 -18.6413" stroke="url(#paint55_linear_413_3402)" stroke-miterlimit="10"/>
<path d="M-31 -36C50.2146 -33.236 116.237 -5.73986 199.958 -9.57075C262.338 -12.4232 322.342 -24.1922 385.133 -25.2426C446.173 -26.2431 507.841 -15.7842 568.038 -11.5166C625.751 -7.42589 682.286 -7.09422 738.366 -15.939C799.429 -25.5742 859.291 -20.8423 918.495 -9.8582C950.058 -3.99855 980.022 5.15025 1012.15 9.97064C1040.78 14.2714 1071.13 13.5085 1100.14 10.6893C1132.64 7.52175 1163.89 1.69526 1194.7 -4.34681C1227.79 -10.8422 1262.77 -20.284 1298.22 -22.5891C1373.55 -27.5367 1451.52 -5.89464 1525 -19.2281" stroke="url(#paint56_linear_413_3402)" stroke-miterlimit="10"/>
<path d="M-31 -37C49.8153 -34.2278 115.622 -6.65041 198.857 -10.2265C264.631 -13.0486 328.212 -25.7949 394.58 -25.5344C451.32 -25.3126 508.255 -15.7486 564.304 -11.6348C623.854 -7.26583 680.853 -7.38781 738.523 -16.7411C802.471 -27.0868 862.388 -21.6478 924.023 -9.34495C951.653 -3.8339 977.976 3.68419 1005.81 8.84595C1035.27 14.3071 1067.61 13.7748 1097.92 10.7421C1132.31 7.30463 1165.24 0.762338 1197.68 -5.89084C1230.37 -12.6216 1265.14 -22.0969 1300.39 -24.3146C1374.95 -28.9774 1452.49 -5.95737 1525 -19.8403" stroke="url(#paint57_linear_413_3402)" stroke-miterlimit="10"/>
<path d="M-31 -37C50.0417 -34.3014 115.848 -6.89393 199.31 -10.43C265.105 -13.2217 328.976 -25.5104 395.322 -25.0999C452.019 -24.7441 508.662 -15.039 564.678 -10.9719C624.271 -6.64761 681.259 -7.07457 738.647 -16.911C803.243 -27.9901 862.846 -21.9908 924.989 -9.24768C952.489 -3.60963 978.887 3.87857 1006.8 8.98018C1036.19 14.3774 1068.39 13.7424 1098.53 10.5785C1132.9 6.97128 1165.69 0.232997 1198.03 -6.51076C1230.69 -13.3202 1265.44 -22.779 1300.78 -25.078C1375.2 -29.884 1452.83 -5.45431 1525 -19.8231" stroke="url(#paint58_linear_413_3402)" stroke-miterlimit="10"/>
<path d="M-31 -38C50.2038 -35.3216 115.956 -7.50523 199.655 -11.1279C265.461 -13.9775 329.473 -26.1102 395.906 -25.5635C452.581 -25.0996 508.954 -14.9936 564.948 -10.8573C624.573 -6.43941 681.648 -7.14076 738.669 -17.661C803.891 -29.6888 863.019 -23.1281 925.691 -9.73077C953.127 -3.87149 979.59 3.76049 1007.52 8.96813C1036.89 14.4408 1068.81 13.7505 1098.93 10.4095C1168.5 2.6781 1230.84 -21.5266 1301.09 -26.4085C1375.38 -31.5719 1453.21 -5.26313 1525 -20.4884" stroke="url(#paint59_linear_413_3402)" stroke-miterlimit="10"/>
<path d="M-31 -38C50.3357 -35.3942 116.068 -7.59742 199.867 -11.2839C265.686 -14.1859 329.916 -26.0024 396.318 -25.3716C453.005 -24.823 509.131 -14.4328 565.105 -10.2526C624.753 -5.79806 682.024 -6.69774 738.723 -17.7133C804.52 -30.5008 862.99 -23.6051 926.258 -9.75885C953.468 -3.81767 979.996 4.05452 1007.99 9.0247C1037.73 14.2966 1068.69 13.8687 1099.13 10.4016C1168.83 2.45814 1230.82 -21.6083 1301.32 -26.8089C1375.51 -32.2947 1453.68 -4.56375 1525 -20.4892" stroke="url(#paint60_linear_413_3402)" stroke-miterlimit="10"/>
<path d="M-31 -38C50.4176 -35.4572 116.027 -7.34254 199.908 -11.1871C265.723 -14.2043 330.036 -25.887 396.564 -25.2031C453.259 -24.6184 509.166 -13.73 565.126 -9.42755C624.771 -4.84383 682.341 -5.89737 738.702 -17.5304C805.003 -31.2265 862.649 -24.0447 926.518 -9.59303C984.867 3.60104 1032.94 18.6209 1099.01 10.8876C1168.89 2.70746 1230.59 -21.2868 1301.33 -26.9351C1375.43 -32.8537 1454.01 -3.46485 1525 -20.316" stroke="url(#paint61_linear_413_3402)" stroke-miterlimit="10"/>
</g>
<defs>
<linearGradient id="paint0_linear_413_3402" x1="746" y1="173" x2="746" y2="218" gradientUnits="userSpaceOnUse">
<stop stop-color="#05C971"/>
<stop offset="0.265625" stop-color="#05BDC9" stop-opacity="0.755208"/>
<stop offset="1" stop-color="#05C971" stop-opacity="0"/>
</linearGradient>
<linearGradient id="paint1_linear_413_3402" x1="746" y1="160" x2="746" y2="215" gradientUnits="userSpaceOnUse">
<stop stop-color="#05C971"/>
<stop offset="0.265625" stop-color="#05BDC9" stop-opacity="0.755208"/>
<stop offset="1" stop-color="#05C971" stop-opacity="0"/>
</linearGradient>
<linearGradient id="paint2_linear_413_3402" x1="746" y1="148" x2="746" y2="213" gradientUnits="userSpaceOnUse">
<stop stop-color="#05C971"/>
<stop offset="0.265625" stop-color="#05BDC9" stop-opacity="0.755208"/>
<stop offset="1" stop-color="#05C971" stop-opacity="0"/>
</linearGradient>
<linearGradient id="paint3_linear_413_3402" x1="746" y1="136" x2="746" y2="210" gradientUnits="userSpaceOnUse">
<stop stop-color="#05C971"/>
<stop offset="0.265625" stop-color="#05BDC9" stop-opacity="0.755208"/>
<stop offset="1" stop-color="#05C971" stop-opacity="0"/>
</linearGradient>
<linearGradient id="paint4_linear_413_3402" x1="746" y1="126" x2="746" y2="207" gradientUnits="userSpaceOnUse">
<stop stop-color="#05C971"/>
<stop offset="0.265625" stop-color="#05BDC9" stop-opacity="0.755208"/>
<stop offset="1" stop-color="#05C971" stop-opacity="0"/>
</linearGradient>
<linearGradient id="paint5_linear_413_3402" x1="746" y1="116" x2="746" y2="203" gradientUnits="userSpaceOnUse">
<stop stop-color="#05C971"/>
<stop offset="0.265625" stop-color="#05BDC9" stop-opacity="0.755208"/>
<stop offset="1" stop-color="#05C971" stop-opacity="0"/>
</linearGradient>
<linearGradient id="paint6_linear_413_3402" x1="746" y1="108" x2="746" y2="197" gradientUnits="userSpaceOnUse">
<stop stop-color="#05C971"/>
<stop offset="0.265625" stop-color="#05BDC9" stop-opacity="0.755208"/>
<stop offset="1" stop-color="#05C971" stop-opacity="0"/>
</linearGradient>
<linearGradient id="paint7_linear_413_3402" x1="746" y1="100" x2="746" y2="191" gradientUnits="userSpaceOnUse">
<stop stop-color="#05C971"/>
<stop offset="0.265625" stop-color="#05BDC9" stop-opacity="0.755208"/>
<stop offset="1" stop-color="#05C971" stop-opacity="0"/>
</linearGradient>
<linearGradient id="paint8_linear_413_3402" x1="746" y1="93" x2="746" y2="185" gradientUnits="userSpaceOnUse">
<stop stop-color="#05C971"/>
<stop offset="0.265625" stop-color="#05BDC9" stop-opacity="0.755208"/>
<stop offset="1" stop-color="#05C971" stop-opacity="0"/>
</linearGradient>
<linearGradient id="paint9_linear_413_3402" x1="746" y1="86" x2="746" y2="179" gradientUnits="userSpaceOnUse">
<stop stop-color="#05C971"/>
<stop offset="0.265625" stop-color="#05BDC9" stop-opacity="0.755208"/>
<stop offset="1" stop-color="#05C971" stop-opacity="0"/>
</linearGradient>
<linearGradient id="paint10_linear_413_3402" x1="746" y1="80" x2="746" y2="173" gradientUnits="userSpaceOnUse">
<stop stop-color="#05C971"/>
<stop offset="0.265625" stop-color="#05BDC9" stop-opacity="0.755208"/>
<stop offset="1" stop-color="#05C971" stop-opacity="0"/>
</linearGradient>
<linearGradient id="paint11_linear_413_3402" x1="746" y1="74" x2="746" y2="167" gradientUnits="userSpaceOnUse">
<stop stop-color="#05C971"/>
<stop offset="0.265625" stop-color="#05BDC9" stop-opacity="0.755208"/>
<stop offset="1" stop-color="#05C971" stop-opacity="0"/>
</linearGradient>
<linearGradient id="paint12_linear_413_3402" x1="746" y1="69" x2="746" y2="161" gradientUnits="userSpaceOnUse">
<stop stop-color="#05C971"/>
<stop offset="0.265625" stop-color="#05BDC9" stop-opacity="0.755208"/>
<stop offset="1" stop-color="#05C971" stop-opacity="0"/>
</linearGradient>
<linearGradient id="paint13_linear_413_3402" x1="746" y1="65" x2="746" y2="156" gradientUnits="userSpaceOnUse">
<stop stop-color="#05C971"/>
<stop offset="0.265625" stop-color="#05BDC9" stop-opacity="0.755208"/>
<stop offset="1" stop-color="#05C971" stop-opacity="0"/>
</linearGradient>
<linearGradient id="paint14_linear_413_3402" x1="746" y1="61" x2="746" y2="151" gradientUnits="userSpaceOnUse">
<stop stop-color="#05C971"/>
<stop offset="0.265625" stop-color="#05BDC9" stop-opacity="0.755208"/>
<stop offset="1" stop-color="#05C971" stop-opacity="0"/>
</linearGradient>
<linearGradient id="paint15_linear_413_3402" x1="746" y1="57" x2="746" y2="146" gradientUnits="userSpaceOnUse">
<stop stop-color="#05C971"/>
<stop offset="0.265625" stop-color="#05BDC9" stop-opacity="0.755208"/>
<stop offset="1" stop-color="#05C971" stop-opacity="0"/>
</linearGradient>
<linearGradient id="paint16_linear_413_3402" x1="746" y1="53" x2="746" y2="141" gradientUnits="userSpaceOnUse">
<stop stop-color="#05C971"/>
<stop offset="0.265625" stop-color="#05BDC9" stop-opacity="0.755208"/>
<stop offset="1" stop-color="#05C971" stop-opacity="0"/>
</linearGradient>
<linearGradient id="paint17_linear_413_3402" x1="746" y1="50" x2="746" y2="136" gradientUnits="userSpaceOnUse">
<stop stop-color="#05C971"/>
<stop offset="0.265625" stop-color="#05BDC9" stop-opacity="0.755208"/>
<stop offset="1" stop-color="#05C971" stop-opacity="0"/>
</linearGradient>
<linearGradient id="paint18_linear_413_3402" x1="746" y1="46" x2="746" y2="131" gradientUnits="userSpaceOnUse">
<stop stop-color="#05C971"/>
<stop offset="0.265625" stop-color="#05BDC9" stop-opacity="0.755208"/>
<stop offset="1" stop-color="#05C971" stop-opacity="0"/>
</linearGradient>
<linearGradient id="paint19_linear_413_3402" x1="746" y1="44" x2="746" y2="126" gradientUnits="userSpaceOnUse">
<stop stop-color="#05C971"/>
<stop offset="0.265625" stop-color="#05BDC9" stop-opacity="0.755208"/>
<stop offset="1" stop-color="#05C971" stop-opacity="0"/>
</linearGradient>
<linearGradient id="paint20_linear_413_3402" x1="746" y1="40" x2="746" y2="122" gradientUnits="userSpaceOnUse">
<stop stop-color="#05C971"/>
<stop offset="0.265625" stop-color="#05BDC9" stop-opacity="0.755208"/>
<stop offset="1" stop-color="#05C971" stop-opacity="0"/>
</linearGradient>
<linearGradient id="paint21_linear_413_3402" x1="746" y1="37" x2="746" y2="117" gradientUnits="userSpaceOnUse">
<stop stop-color="#05C971"/>
<stop offset="0.265625" stop-color="#05BDC9" stop-opacity="0.755208"/>
<stop offset="1" stop-color="#05C971" stop-opacity="0"/>
</linearGradient>
<linearGradient id="paint22_linear_413_3402" x1="746" y1="33" x2="746" y2="113" gradientUnits="userSpaceOnUse">
<stop stop-color="#05C971"/>
<stop offset="0.265625" stop-color="#05BDC9" stop-opacity="0.755208"/>
<stop offset="1" stop-color="#05C971" stop-opacity="0"/>
</linearGradient>
<linearGradient id="paint23_linear_413_3402" x1="746" y1="30" x2="746" y2="109" gradientUnits="userSpaceOnUse">
<stop stop-color="#05C971"/>
<stop offset="0.265625" stop-color="#05BDC9" stop-opacity="0.755208"/>
<stop offset="1" stop-color="#05C971" stop-opacity="0"/>
</linearGradient>
<linearGradient id="paint24_linear_413_3402" x1="746" y1="26" x2="746" y2="104" gradientUnits="userSpaceOnUse">
<stop stop-color="#05C971"/>
<stop offset="0.265625" stop-color="#05BDC9" stop-opacity="0.755208"/>
<stop offset="1" stop-color="#05C971" stop-opacity="0"/>
</linearGradient>
<linearGradient id="paint25_linear_413_3402" x1="746" y1="21" x2="746" y2="100" gradientUnits="userSpaceOnUse">
<stop stop-color="#05C971"/>
<stop offset="0.265625" stop-color="#05BDC9" stop-opacity="0.755208"/>
<stop offset="1" stop-color="#05C971" stop-opacity="0"/>
</linearGradient>
<linearGradient id="paint26_linear_413_3402" x1="746.5" y1="17" x2="746.5" y2="95" gradientUnits="userSpaceOnUse">
<stop stop-color="#05C971"/>
<stop offset="0.265625" stop-color="#05BDC9" stop-opacity="0.755208"/>
<stop offset="1" stop-color="#05C971" stop-opacity="0"/>
</linearGradient>
<linearGradient id="paint27_linear_413_3402" x1="746.5" y1="14" x2="746.5" y2="91" gradientUnits="userSpaceOnUse">
<stop stop-color="#05C971"/>
<stop offset="0.265625" stop-color="#05BDC9" stop-opacity="0.755208"/>
<stop offset="1" stop-color="#05C971" stop-opacity="0"/>
</linearGradient>
<linearGradient id="paint28_linear_413_3402" x1="747" y1="10" x2="747" y2="86" gradientUnits="userSpaceOnUse">
<stop stop-color="#05C971"/>
<stop offset="0.265625" stop-color="#05BDC9" stop-opacity="0.755208"/>
<stop offset="1" stop-color="#05C971" stop-opacity="0"/>
</linearGradient>
<linearGradient id="paint29_linear_413_3402" x1="747" y1="7" x2="747" y2="82" gradientUnits="userSpaceOnUse">
<stop stop-color="#05C971"/>
<stop offset="0.265625" stop-color="#05BDC9" stop-opacity="0.755208"/>
<stop offset="1" stop-color="#05C971" stop-opacity="0"/>
</linearGradient>
<linearGradient id="paint30_linear_413_3402" x1="747" y1="4" x2="747" y2="77" gradientUnits="userSpaceOnUse">
<stop stop-color="#05C971"/>
<stop offset="0.265625" stop-color="#05BDC9" stop-opacity="0.755208"/>
<stop offset="1" stop-color="#05C971" stop-opacity="0"/>
</linearGradient>
<linearGradient id="paint31_linear_413_3402" x1="747" y1="1" x2="747" y2="72" gradientUnits="userSpaceOnUse">
<stop stop-color="#05C971"/>
<stop offset="0.265625" stop-color="#05BDC9" stop-opacity="0.755208"/>
<stop offset="1" stop-color="#05C971" stop-opacity="0"/>
</linearGradient>
<linearGradient id="paint32_linear_413_3402" x1="747" y1="-2" x2="747" y2="68" gradientUnits="userSpaceOnUse">
<stop stop-color="#05C971"/>
<stop offset="0.265625" stop-color="#05BDC9" stop-opacity="0.755208"/>
<stop offset="1" stop-color="#05C971" stop-opacity="0"/>
</linearGradient>
<linearGradient id="paint33_linear_413_3402" x1="747" y1="-4" x2="747" y2="63" gradientUnits="userSpaceOnUse">
<stop stop-color="#05C971"/>
<stop offset="0.265625" stop-color="#05BDC9" stop-opacity="0.755208"/>
<stop offset="1" stop-color="#05C971" stop-opacity="0"/>
</linearGradient>
<linearGradient id="paint34_linear_413_3402" x1="747" y1="-7" x2="747" y2="58" gradientUnits="userSpaceOnUse">
<stop stop-color="#05C971"/>
<stop offset="0.265625" stop-color="#05BDC9" stop-opacity="0.755208"/>
<stop offset="1" stop-color="#05C971" stop-opacity="0"/>
</linearGradient>
<linearGradient id="paint35_linear_413_3402" x1="747" y1="-9" x2="747" y2="54" gradientUnits="userSpaceOnUse">
<stop stop-color="#05C971"/>
<stop offset="0.265625" stop-color="#05BDC9" stop-opacity="0.755208"/>
<stop offset="1" stop-color="#05C971" stop-opacity="0"/>
</linearGradient>
<linearGradient id="paint36_linear_413_3402" x1="747" y1="-11" x2="747" y2="49" gradientUnits="userSpaceOnUse">
<stop stop-color="#05C971"/>
<stop offset="0.265625" stop-color="#05BDC9" stop-opacity="0.755208"/>
<stop offset="1" stop-color="#05C971" stop-opacity="0"/>
</linearGradient>
<linearGradient id="paint37_linear_413_3402" x1="747" y1="-13" x2="747" y2="45" gradientUnits="userSpaceOnUse">
<stop stop-color="#05C971"/>
<stop offset="0.265625" stop-color="#05BDC9" stop-opacity="0.755208"/>
<stop offset="1" stop-color="#05C971" stop-opacity="0"/>
</linearGradient>
<linearGradient id="paint38_linear_413_3402" x1="747" y1="-14" x2="747" y2="41" gradientUnits="userSpaceOnUse">
<stop stop-color="#05C971"/>
<stop offset="0.265625" stop-color="#05BDC9" stop-opacity="0.755208"/>
<stop offset="1" stop-color="#05C971" stop-opacity="0"/>
</linearGradient>
<linearGradient id="paint39_linear_413_3402" x1="747" y1="-16" x2="747" y2="37" gradientUnits="userSpaceOnUse">
<stop stop-color="#05C971"/>
<stop offset="0.265625" stop-color="#05BDC9" stop-opacity="0.755208"/>
<stop offset="1" stop-color="#05C971" stop-opacity="0"/>
</linearGradient>
<linearGradient id="paint40_linear_413_3402" x1="747" y1="-17" x2="747" y2="33" gradientUnits="userSpaceOnUse">
<stop stop-color="#05C971"/>
<stop offset="0.265625" stop-color="#05BDC9" stop-opacity="0.755208"/>
<stop offset="1" stop-color="#05C971" stop-opacity="0"/>
</linearGradient>
<linearGradient id="paint41_linear_413_3402" x1="747" y1="-18" x2="747" y2="30" gradientUnits="userSpaceOnUse">
<stop stop-color="#05C971"/>
<stop offset="0.265625" stop-color="#05BDC9" stop-opacity="0.755208"/>
<stop offset="1" stop-color="#05C971" stop-opacity="0"/>
</linearGradient>
<linearGradient id="paint42_linear_413_3402" x1="747" y1="-19" x2="747" y2="27" gradientUnits="userSpaceOnUse">
<stop stop-color="#05C971"/>
<stop offset="0.265625" stop-color="#05BDC9" stop-opacity="0.755208"/>
<stop offset="1" stop-color="#05C971" stop-opacity="0"/>
</linearGradient>
<linearGradient id="paint43_linear_413_3402" x1="747" y1="-20" x2="747" y2="24" gradientUnits="userSpaceOnUse">
<stop stop-color="#05C971"/>
<stop offset="0.265625" stop-color="#05BDC9" stop-opacity="0.755208"/>
<stop offset="1" stop-color="#05C971" stop-opacity="0"/>
</linearGradient>
<linearGradient id="paint44_linear_413_3402" x1="747" y1="-21" x2="747" y2="22" gradientUnits="userSpaceOnUse">
<stop stop-color="#05C971"/>
<stop offset="0.265625" stop-color="#05BDC9" stop-opacity="0.755208"/>
<stop offset="1" stop-color="#05C971" stop-opacity="0"/>
</linearGradient>
<linearGradient id="paint45_linear_413_3402" x1="747" y1="-22" x2="747" y2="20" gradientUnits="userSpaceOnUse">
<stop stop-color="#05C971"/>
<stop offset="0.265625" stop-color="#05BDC9" stop-opacity="0.755208"/>
<stop offset="1" stop-color="#05C971" stop-opacity="0"/>
</linearGradient>
<linearGradient id="paint46_linear_413_3402" x1="747" y1="-22" x2="747" y2="19" gradientUnits="userSpaceOnUse">
<stop stop-color="#05C971"/>
<stop offset="0.265625" stop-color="#05BDC9" stop-opacity="0.755208"/>
<stop offset="1" stop-color="#05C971" stop-opacity="0"/>
</linearGradient>
<linearGradient id="paint47_linear_413_3402" x1="747" y1="-23" x2="747" y2="17" gradientUnits="userSpaceOnUse">
<stop stop-color="#05C971"/>
<stop offset="0.265625" stop-color="#05BDC9" stop-opacity="0.755208"/>
<stop offset="1" stop-color="#05C971" stop-opacity="0"/>
</linearGradient>
<linearGradient id="paint48_linear_413_3402" x1="747" y1="-24" x2="747" y2="16" gradientUnits="userSpaceOnUse">
<stop stop-color="#05C971"/>
<stop offset="0.265625" stop-color="#05BDC9" stop-opacity="0.755208"/>
<stop offset="1" stop-color="#05C971" stop-opacity="0"/>
</linearGradient>
<linearGradient id="paint49_linear_413_3402" x1="747" y1="-26" x2="747" y2="15" gradientUnits="userSpaceOnUse">
<stop stop-color="#05C971"/>
<stop offset="0.265625" stop-color="#05BDC9" stop-opacity="0.755208"/>
<stop offset="1" stop-color="#05C971" stop-opacity="0"/>
</linearGradient>
<linearGradient id="paint50_linear_413_3402" x1="747" y1="-28" x2="747" y2="14" gradientUnits="userSpaceOnUse">
<stop stop-color="#05C971"/>
<stop offset="0.265625" stop-color="#05BDC9" stop-opacity="0.755208"/>
<stop offset="1" stop-color="#05C971" stop-opacity="0"/>
</linearGradient>
<linearGradient id="paint51_linear_413_3402" x1="747" y1="-30" x2="747" y2="14" gradientUnits="userSpaceOnUse">
<stop stop-color="#05C971"/>
<stop offset="0.265625" stop-color="#05BDC9" stop-opacity="0.755208"/>
<stop offset="1" stop-color="#05C971" stop-opacity="0"/>
</linearGradient>
<linearGradient id="paint52_linear_413_3402" x1="747" y1="-31" x2="747" y2="14" gradientUnits="userSpaceOnUse">
<stop stop-color="#05C971"/>
<stop offset="0.265625" stop-color="#05BDC9" stop-opacity="0.755208"/>
<stop offset="1" stop-color="#05C971" stop-opacity="0"/>
</linearGradient>
<linearGradient id="paint53_linear_413_3402" x1="747" y1="-33" x2="747" y2="13" gradientUnits="userSpaceOnUse">
<stop stop-color="#05C971"/>
<stop offset="0.265625" stop-color="#05BDC9" stop-opacity="0.755208"/>
<stop offset="1" stop-color="#05C971" stop-opacity="0"/>
</linearGradient>
<linearGradient id="paint54_linear_413_3402" x1="747" y1="-34" x2="747" y2="13" gradientUnits="userSpaceOnUse">
<stop stop-color="#05C971"/>
<stop offset="0.265625" stop-color="#05BDC9" stop-opacity="0.755208"/>
<stop offset="1" stop-color="#05C971" stop-opacity="0"/>
</linearGradient>
<linearGradient id="paint55_linear_413_3402" x1="747" y1="-35" x2="747" y2="13" gradientUnits="userSpaceOnUse">
<stop stop-color="#05C971"/>
<stop offset="0.265625" stop-color="#05BDC9" stop-opacity="0.755208"/>
<stop offset="1" stop-color="#05C971" stop-opacity="0"/>
</linearGradient>
<linearGradient id="paint56_linear_413_3402" x1="747" y1="-36" x2="747" y2="13" gradientUnits="userSpaceOnUse">
<stop stop-color="#05C971"/>
<stop offset="0.265625" stop-color="#05BDC9" stop-opacity="0.755208"/>
<stop offset="1" stop-color="#05C971" stop-opacity="0"/>
</linearGradient>
<linearGradient id="paint57_linear_413_3402" x1="747" y1="-37" x2="747" y2="13" gradientUnits="userSpaceOnUse">
<stop stop-color="#05C971"/>
<stop offset="0.265625" stop-color="#05BDC9" stop-opacity="0.755208"/>
<stop offset="1" stop-color="#05C971" stop-opacity="0"/>
</linearGradient>
<linearGradient id="paint58_linear_413_3402" x1="747" y1="-37" x2="747" y2="13" gradientUnits="userSpaceOnUse">
<stop stop-color="#05C971"/>
<stop offset="0.265625" stop-color="#05BDC9" stop-opacity="0.755208"/>
<stop offset="1" stop-color="#05C971" stop-opacity="0"/>
</linearGradient>
<linearGradient id="paint59_linear_413_3402" x1="747" y1="-38" x2="747" y2="13" gradientUnits="userSpaceOnUse">
<stop stop-color="#05C971"/>
<stop offset="0.265625" stop-color="#05BDC9" stop-opacity="0.755208"/>
<stop offset="1" stop-color="#05C971" stop-opacity="0"/>
</linearGradient>
<linearGradient id="paint60_linear_413_3402" x1="747" y1="-38" x2="747" y2="13" gradientUnits="userSpaceOnUse">
<stop stop-color="#05C971"/>
<stop offset="0.265625" stop-color="#05BDC9" stop-opacity="0.755208"/>
<stop offset="1" stop-color="#05C971" stop-opacity="0"/>
</linearGradient>
<linearGradient id="paint61_linear_413_3402" x1="747" y1="-38" x2="747" y2="13" gradientUnits="userSpaceOnUse">
<stop stop-color="#05C971"/>
<stop offset="0.265625" stop-color="#05BDC9" stop-opacity="0.755208"/>
<stop offset="1" stop-color="#05C971" stop-opacity="0"/>
</linearGradient>
</defs>
</svg>
