<svg width="1693" height="520" viewBox="0 0 1693 520" fill="none" xmlns="http://www.w3.org/2000/svg">
<path d="M135 272.818C202.06 272.768 271.487 274.637 338.147 271.02C420.465 266.557 500.233 254.233 582.259 248.67C648.984 244.147 706.903 248.984 769.349 261.088C820.871 271.075 871.474 281.898 927.545 282.239C986.803 282.602 1040.23 268.371 1095.03 258.79C1158.32 247.725 1212.36 250.078 1273.52 263.561C1331.76 276.402 1386.07 292.886 1451.82 291.963C1533.11 290.82 1609.38 273.345 1691 272.818" stroke="url(#paint0_linear_1037_2875)" stroke-miterlimit="10"/>
<path d="M135 264.875C200.341 264.809 268.685 266.8 333.54 262.583C419.379 257.002 502.03 242.739 587.469 235.931C655.543 230.504 710.176 236.718 771.302 252.014C819.646 264.111 868.206 278.083 923.497 278.82C985.651 279.639 1043.36 261.147 1099.43 249.782C1128.8 243.86 1159.76 238.312 1191.78 239.588C1223.11 240.842 1252.78 247.555 1280.19 254.984C1335.42 269.923 1389.24 290.487 1454.97 288.915C1535.9 286.974 1609.62 266.239 1691 264.892" stroke="url(#paint1_linear_1037_2875)" stroke-miterlimit="10"/>
<path d="M135 257.934C198.754 257.851 265.988 259.907 329.072 255.163C418.187 248.48 503.423 232.248 592.031 224.202C661.663 217.873 713.142 225.404 772.617 243.996C817.709 258.094 864.239 275.323 919.035 276.493C983.87 277.872 1046.54 254.853 1103.68 241.824C1133.62 234.997 1166.63 227.798 1200.06 229.383C1231.4 230.868 1260.76 238.981 1286.96 247.393C1339.21 264.174 1392.47 289.083 1458.36 286.861C1538.95 284.134 1609.84 260.062 1691 257.934" stroke="url(#paint2_linear_1037_2875)" stroke-miterlimit="10"/>
<path d="M135 250.856C197.229 250.757 263.467 252.799 324.94 247.74C416.96 240.16 504.485 222.336 595.835 213.275C630.618 209.829 663.586 207.836 697.656 213.88C725.416 218.807 749.836 227.455 773.392 236.197C815.534 251.825 860.02 271.868 914.686 273.436C981.896 275.369 1049.6 248.357 1107.67 234.094C1138.12 226.613 1173.17 217.948 1207.87 219.781C1239.35 221.433 1268.32 230.719 1293.4 239.89C1342.87 257.968 1395.49 286.582 1461.74 283.813C1542.03 280.45 1609.98 253.575 1691 250.828" stroke="url(#paint3_linear_1037_2875)" stroke-miterlimit="10"/>
<path d="M135 244.342C195.922 244.238 261.263 246.263 321.32 240.989C415.674 232.703 504.863 213.409 598.515 203.526C633.417 199.844 666.288 197.561 700.185 204.399C727.685 209.979 751.122 219.555 773.533 229.125C813.2 246.043 855.828 268.531 910.763 270.424C945.87 271.637 981.172 262.335 1011.49 254.461C1045.13 245.725 1077.47 235.77 1111.1 227.023C1142 218.99 1178.74 209.134 1214.62 211.192C1246.32 213.008 1274.83 223.21 1299.02 233.032C1346.22 252.238 1397.85 283.989 1464.73 280.773C1544.89 276.932 1609.99 247.475 1691 244.32" stroke="url(#paint4_linear_1037_2875)" stroke-miterlimit="10"/>
<path d="M135 237.337C194.83 237.232 259.48 239.277 318.381 233.866C414.399 225.05 504.626 204.289 599.844 193.715C634.584 189.846 667.703 187.375 701.254 194.754C728.722 200.796 751.457 211.27 773.057 221.573C811.071 239.697 852.089 264.227 907.694 266.344C943.763 267.704 980.092 257.556 1010.89 249.165C1045.65 239.686 1078.96 228.897 1113.72 219.406C1145.06 210.844 1182.88 200.138 1219.72 202.321C1251.75 204.223 1279.78 215.139 1303.31 225.602C1349.05 245.937 1399.1 280.212 1467.05 276.758C1547.21 272.684 1609.83 240.631 1691 237.359" stroke="url(#paint5_linear_1037_2875)" stroke-miterlimit="10"/>
<path d="M135 230.274C193.986 230.187 258.234 232.249 316.269 226.937C413.095 218.074 503.567 196.447 599.518 185.697C633.781 181.867 667.515 179.373 700.59 186.725C728.284 192.88 750.705 203.806 771.905 214.436C809.313 233.223 849.119 258.477 905.89 260.512C942.758 261.836 979.182 251.687 1010.41 243.005C1045.9 233.157 1079.83 221.931 1115.32 212.072C1147.05 203.253 1185.03 192.486 1222.62 194.631C1255.04 196.48 1282.59 207.482 1305.83 218.282C1351.21 239.372 1398.87 274.156 1468.41 270.77C1548.77 266.858 1609.5 233.179 1691 230.285" stroke="url(#paint6_linear_1037_2875)" stroke-miterlimit="10"/>
<path d="M135 223.703C193.771 223.515 257.816 225.853 315.604 220.396C411.774 211.295 501.092 188.855 596.289 177.77C630.456 173.795 664.17 171.414 697.224 178.734C725.318 184.969 748.183 196.109 769.697 206.951C807.797 226.156 848.026 251.925 905.544 254.329C942.672 255.878 978.881 245.779 1010.25 236.894C1045.8 226.817 1079.66 215.286 1115.2 205.204C1147.09 196.153 1184.88 185.454 1222.75 187.769C1255.38 189.764 1282.78 200.871 1306.05 211.874C1351.62 233.421 1398.37 268.005 1468.47 264.791C1549.06 261.109 1609.16 226.25 1691 223.703" stroke="url(#paint7_linear_1037_2875)" stroke-miterlimit="10"/>
<path d="M135 217.75C194.021 217.41 257.873 220.348 315.867 214.532C410.331 205.059 497.642 182.335 591.101 170.901C625.68 166.667 658.508 164.465 692.038 171.808C720.641 178.063 744.316 189.046 766.62 199.754C805.985 218.678 847.911 244.61 905.431 247.877C942.332 249.975 978.672 239.887 1009.77 231.04C1044.89 221.051 1078.25 209.551 1113.36 199.551C1145.18 190.484 1182.97 179.908 1220.79 182.648C1253.32 185.004 1281.12 196.229 1304.71 207.069C1350.52 228.102 1398.63 261.908 1467.88 258.8C1548.67 255.17 1608.96 220.243 1691 217.75" stroke="url(#paint8_linear_1037_2875)" stroke-miterlimit="10"/>
<path d="M135 211.423C194.356 211.015 258.034 214.78 316.385 208.61C408.925 198.823 493.955 175.748 585.447 164.023C620.317 159.542 652.377 157.544 686.285 164.81C715.331 171.036 739.957 181.759 763.092 192.41C803.776 211.125 847.636 237.024 905.101 241.092C941.668 243.685 977.726 233.782 1008.54 224.953C1043.07 215.045 1075.72 203.59 1110.23 193.687C1141.95 184.582 1179.38 174.283 1217.03 177.421C1249.6 180.14 1277.89 191.441 1302.02 202.191C1348.43 222.833 1398.11 255.872 1466.84 252.8C1547.98 249.178 1608.61 213.944 1691 211.456" stroke="url(#paint9_linear_1037_2875)" stroke-miterlimit="10"/>
<path d="M135 205.273C194.764 204.883 258.408 209.631 317.167 203.165C407.586 193.224 490.139 169.978 579.477 158.084C614.487 153.423 645.941 151.672 680.129 158.709C709.692 164.791 735.236 175.176 759.267 185.605C801.646 203.933 847.039 229.386 904.664 234.189C940.797 237.197 976.217 227.75 1006.73 219.006C1040.5 209.324 1072.32 198 1106.06 188.306C1137.67 179.222 1174.38 169.462 1211.79 172.937C1244.51 175.983 1273.38 187.208 1298.24 197.78C1345.58 217.908 1397.03 249.843 1465.38 246.797C1547.02 243.158 1608.11 207.787 1691 205.289" stroke="url(#paint10_linear_1037_2875)" stroke-miterlimit="10"/>
<path d="M135 198.847C195.252 198.539 258.875 204.441 318.165 197.681C406.317 187.632 486.245 164.128 573.284 152.143C608.273 147.314 639.295 145.812 673.657 152.556C703.75 158.463 730.192 168.507 755.207 178.638C799.509 196.586 846.287 221.481 904.129 226.987C973.933 233.637 1044.47 199.028 1101.04 182.714C1132.53 173.628 1168.24 164.524 1205.33 168.336C1238.31 171.73 1267.79 182.868 1293.5 193.303C1342.03 212.999 1395.41 243.857 1463.6 240.787C1545.84 237.091 1607.52 201.388 1691 198.847" stroke="url(#paint11_linear_1037_2875)" stroke-miterlimit="10"/>
<path d="M135 192.642C195.781 192.472 259.415 199.608 319.321 192.642C405.106 182.63 482.28 159.118 566.898 147.145C601.768 142.216 632.488 140.989 666.947 147.315C697.591 152.951 724.951 162.508 750.949 172.279C797.175 189.64 845.346 213.602 903.48 219.763C972.225 227.037 1039.73 193.573 1095.25 177.591C1125.95 168.768 1161.73 159.873 1197.81 164.419C1231.31 168.636 1260.82 178.862 1287.99 189.268C1337.92 208.382 1393.35 237.864 1461.53 234.775C1544.48 231.024 1606.81 195.205 1691 192.603" stroke="url(#paint12_linear_1037_2875)" stroke-miterlimit="10"/>
<path d="M135 186.946C196.354 186.946 260.052 195.494 320.627 188.234C403.97 178.244 478.312 154.515 560.433 142.549C703.066 121.749 777.472 198.538 902.762 213.234C970.296 221.165 1034.38 188.746 1088.9 173.009C1119.45 164.203 1153.86 156.183 1189.49 161.01C1223.4 165.606 1253.6 175.657 1281.86 185.917C1333.35 204.631 1390.93 232.911 1459.25 229.757C1542.96 225.904 1606.04 189.626 1691 186.946" stroke="url(#paint13_linear_1037_2875)" stroke-miterlimit="10"/>
<path d="M135 181.475C196.947 181.706 260.753 191.653 322.052 184.181C402.909 174.328 474.409 150.555 553.969 138.698C693.65 117.891 778.721 190.965 901.989 206.706C968.356 215.189 1028.6 184.22 1082.12 168.793C1112.54 160.023 1145.45 153.064 1180.56 158.109C1214.94 163.06 1245.9 172.853 1275.29 182.894C1328.44 201.05 1388.21 227.959 1456.83 224.735C1541.36 220.768 1605.22 184.242 1691 181.475" stroke="url(#paint14_linear_1037_2875)" stroke-miterlimit="10"/>
<path d="M135 175.897C197.566 176.365 261.504 187.787 323.573 180.114C401.959 170.423 470.533 146.577 547.632 134.857C684.359 114.07 779.958 183.284 901.232 200.107C966.413 209.148 1022.56 179.645 1075.14 164.492C1105.46 155.755 1136.74 149.901 1171.31 155.121C1206.16 160.407 1237.93 170.004 1268.49 179.816C1323.34 197.456 1385.32 223.011 1454.29 219.709C1539.65 215.614 1604.36 178.741 1691 175.875" stroke="url(#paint15_linear_1037_2875)" stroke-miterlimit="10"/>
<path d="M135 170.221C198.169 170.934 262.289 183.854 325.178 175.998C401.141 166.501 466.882 142.575 541.494 131.021C675.31 110.296 781.129 175.539 900.412 193.423C964.413 203.02 1016.34 175.009 1068.03 160.105C1098.22 151.398 1127.97 146.683 1161.97 152.106C1197.3 157.744 1229.91 167.126 1261.61 176.722C1318.18 193.86 1382.34 218.073 1451.73 214.678C1537.99 210.455 1603.5 173.218 1691 170.221" stroke="url(#paint16_linear_1037_2875)" stroke-miterlimit="10"/>
<path d="M135 165.043C198.751 165.987 263.086 180.227 326.696 172.3C400.323 163.123 463.285 139.388 535.518 128.149C666.683 107.743 782.311 168.269 899.656 187.007C962.488 197.045 1010.19 170.814 1061.03 156.289C1091.09 147.704 1119.38 144.171 1152.74 149.706C1188.56 155.641 1221.98 164.736 1254.81 173.995C1313.04 190.419 1379.34 213.09 1449.21 209.65C1536.33 205.344 1602.65 168.093 1691 165.054" stroke="url(#paint17_linear_1037_2875)" stroke-miterlimit="10"/>
<path d="M135 159.364C199.391 160.537 263.88 176.205 328.271 168.137C399.686 159.187 459.992 135.374 529.981 124.332C658.634 104.032 783.515 160.581 898.899 180.39C960.686 190.998 1004.12 166.121 1054.26 151.83C1084.23 143.293 1111.04 140.815 1143.83 146.532C1180.12 152.832 1214.35 161.781 1248.26 170.808C1308.09 186.729 1376.44 208.153 1446.79 204.612C1534.74 200.178 1601.83 162.508 1691 159.364" stroke="url(#paint18_linear_1037_2875)" stroke-miterlimit="10"/>
<path d="M135 154.58C199.995 155.925 264.667 172.631 329.781 164.601C399.153 156.05 456.962 132.59 524.854 121.967C590.714 111.658 660.777 123.296 722.293 135.731C781.615 147.727 838.009 163.461 898.218 174.34C959.226 185.365 998.137 162.013 1047.9 148.297C1113.97 130.094 1181.65 153.18 1242.13 168.149C1303.4 183.297 1373.67 203.144 1444.49 199.58C1533.22 195.12 1601.04 157.748 1691 154.574" stroke="url(#paint19_linear_1037_2875)" stroke-miterlimit="10"/>
<path d="M135 149.438C200.602 150.964 265.286 169.098 331.234 160.885C398.76 152.468 454.27 128.666 520.337 118.118C585.593 107.685 657.506 119.016 719.316 130.578C779.839 141.903 837.445 156.858 897.645 168.624C957.844 180.39 993.007 157.844 1042.13 144.117C1106.71 126.077 1177.2 151.278 1236.64 165.407C1299.2 180.28 1371.25 199.206 1442.47 195.538C1531.88 190.927 1600.38 152.732 1691 149.438" stroke="url(#paint20_linear_1037_2875)" stroke-miterlimit="10"/>
<path d="M135 144.58C201.218 146.215 265.847 165.151 332.562 156.98C398.477 148.911 451.944 125.382 516.26 115.151C581.019 104.882 654.574 115.631 716.664 126.118C778.257 136.528 837.019 150.431 897.121 162.781C925.475 168.605 946.255 168.845 973.669 161.332C995.951 155.225 1014.8 146.356 1037.05 140.206C1066.73 131.99 1090.37 132.219 1121.46 138.326C1158.82 145.675 1195.21 154.125 1231.86 162.335C1295.48 176.543 1369.1 194.172 1440.63 190.511C1530.66 185.902 1599.73 147.876 1691 144.58" stroke="url(#paint21_linear_1037_2875)" stroke-miterlimit="10"/>
<path d="M135 139.721C201.834 141.373 266.27 161.428 333.763 153.141C398.371 145.206 450.012 121.335 513.032 111.257C577.457 100.954 652.363 111.368 714.702 121.169C777.041 130.971 836.894 144.297 896.802 157.513C924.487 163.62 944.726 164.485 971.903 156.93C993.45 150.938 1011.43 142.095 1032.92 136.059C1062.44 127.766 1085.72 128.647 1116.27 135.024C1153.81 142.86 1190.76 151.384 1228.11 159.452C1292.52 173.361 1367.58 190.19 1439.22 186.478C1529.76 181.792 1599.29 143.124 1691 139.771" stroke="url(#paint22_linear_1037_2875)" stroke-miterlimit="10"/>
<path d="M135 135.707C202.457 137.31 266.522 157.991 334.768 149.708C398.411 141.975 448.439 118.001 510.58 108.254C574.914 98.1494 650.627 108.056 713.351 117.129C776.584 126.267 836.953 138.995 896.609 152.892C923.73 159.203 943.741 160.532 970.711 153.001C991.673 147.156 1008.93 138.397 1029.83 132.496C1059.21 124.203 1082.46 125.548 1112.54 132.145C1150.13 140.378 1187.52 148.896 1225.43 156.767C1290.27 170.23 1366.57 186.136 1438.16 182.464C1529.04 177.799 1598.91 139.039 1691 135.707" stroke="url(#paint23_linear_1037_2875)" stroke-miterlimit="10"/>
<path d="M135 130.982C203.075 132.424 266.59 153.428 335.594 145.193C398.58 137.677 447.529 113.799 508.926 104.247C573.057 94.2765 649.766 103.888 712.654 112.324C776.537 120.897 837.177 133.175 896.554 147.702C923.233 154.233 943.353 155.812 970.183 148.295C990.714 142.542 1007.43 133.85 1027.93 128.043C1057.2 119.748 1080.78 121.316 1110.5 128.157C1148.02 136.789 1185.69 145.296 1224.03 152.971C1289.05 165.984 1366.25 181.049 1437.54 177.463C1528.65 172.885 1598.69 134.242 1691 130.982" stroke="url(#paint24_linear_1037_2875)" stroke-miterlimit="10"/>
<path d="M135 126.287C203.421 127.602 266.493 149.145 335.918 140.712C398.688 133.091 447.345 108.886 508.548 99.2495C572.614 89.1655 649.669 99.1169 712.579 107.495C776.688 116.032 837.134 128.397 896.586 143.203C923.168 149.83 943.569 151.21 970.215 143.633C990.605 137.835 1007.21 129.093 1027.6 123.278C1056.78 114.961 1080.79 116.507 1110.23 123.648C1147.59 132.705 1185.3 141.402 1223.8 149.112C1288.51 162.073 1366.71 177.188 1437.46 173.411C1528.43 168.562 1598.93 130.015 1691 126.304" stroke="url(#paint25_linear_1037_2875)" stroke-miterlimit="10"/>
<path d="M135 121.765C203.615 123.004 266.542 144.545 336.173 136.07C398.884 128.435 447.821 104.596 509.105 95.0849C573.211 85.1348 650.14 95.4524 712.992 103.828C776.936 112.352 837.16 124.612 897.06 138.621C953.759 151.878 981.861 131.49 1028.56 118.775C1057.75 110.827 1081.93 112.275 1111.12 119.395C1148.34 128.473 1186.01 137.09 1224.52 144.66C1288.9 157.309 1368.16 172.393 1438.44 168.323C1529.08 163.068 1600.48 126.339 1692 121.847" stroke="url(#paint26_linear_1037_2875)" stroke-miterlimit="10"/>
<path d="M135 118.187C203.822 119.378 266.599 141 336.448 132.484C399.16 124.833 448.292 101.331 509.61 91.9412C573.717 82.1033 650.421 92.7775 713.177 101.151C776.873 109.649 836.872 121.81 897.119 135.064C953.344 147.438 982.451 127.483 1029.18 115.388C1058.38 107.813 1082.77 109.212 1111.7 116.317C1148.75 125.412 1186.31 133.933 1224.81 141.344C1288.93 153.691 1368.99 168.562 1438.68 164.234C1528.87 158.637 1601.15 123.63 1692 118.443" stroke="url(#paint27_linear_1037_2875)" stroke-miterlimit="10"/>
<path d="M136 113.578C205.014 114.738 267.652 136.555 337.714 127.993C400.309 120.345 449.7 97.0897 511.021 87.7898C575.085 78.1068 651.49 89.0589 714.085 97.4453C777.437 105.925 837.266 118.004 897.689 130.537C953.477 142.096 983.559 122.566 1030.38 111.023C1059.63 103.819 1084.19 105.219 1112.89 112.325C1149.7 121.445 1187.16 129.875 1225.58 137.118C1289.49 149.181 1369.98 163.7 1439.16 159.143C1528.84 153.24 1601.91 119.847 1692 114.016" stroke="url(#paint28_linear_1037_2875)" stroke-miterlimit="10"/>
<path d="M136 109.895C205.307 111.049 267.828 133.121 338.248 124.52C400.79 116.887 450.485 93.8037 511.86 84.6541C575.905 75.1035 651.922 86.3456 714.497 94.7374C777.504 103.195 837.151 115.195 897.824 127.019C953.192 137.811 984.333 118.721 1031.37 107.759C1060.72 100.916 1085.47 102.371 1113.99 109.483C1150.52 118.685 1188 126.873 1226.27 134.011C1290.13 145.785 1370.85 159.823 1439.63 155.039C1528.73 148.872 1602.69 117.04 1692 110.631" stroke="url(#paint29_linear_1037_2875)" stroke-miterlimit="10"/>
<path d="M136 105.809C205.619 106.955 268.117 129.086 338.881 120.548C401.368 113.02 451.397 90.3815 512.847 81.4723C576.868 72.1919 652.56 83.5413 715.014 91.8445C777.685 100.164 837.169 111.928 897.981 122.917C952.937 132.853 985.202 114.44 1032.52 104.204C1062.01 97.8222 1086.94 99.3507 1115.3 106.387C1151.6 115.473 1188.95 123.459 1227.13 130.304C1291.02 141.642 1371.73 154.837 1440.14 149.956C1528.67 143.64 1603.47 113.73 1692 106.862" stroke="url(#paint30_linear_1037_2875)" stroke-miterlimit="10"/>
<path d="M136 101.654C205.977 102.802 268.466 125.041 339.632 116.6C402.078 109.192 452.465 86.9646 513.938 78.3008C577.929 69.2834 653.222 80.7264 715.625 88.9279C777.833 97.0859 837.296 108.621 898.175 118.792C952.744 127.912 986.198 110.193 1033.84 100.686C1063.49 94.7691 1088.62 96.4061 1116.86 103.406C1152.92 112.371 1190.1 120.148 1228.16 126.689C1292.16 137.566 1372.62 149.836 1440.74 144.859C1528.65 138.442 1604.27 110.4 1692 103.139" stroke="url(#paint31_linear_1037_2875)" stroke-miterlimit="10"/>
<path d="M136 97.8433C206.366 99.0344 268.908 121.798 340.484 113.284C402.886 105.905 453.64 83.7263 515.178 75.179C579.125 66.3007 654.008 77.9858 716.269 86.2078C778.045 94.3692 837.443 105.801 898.343 115.319C952.533 123.783 987.24 106.495 1035.24 97.5951C1065.07 92.0807 1090.4 93.8674 1118.55 100.904C1154.37 109.886 1191.39 117.561 1229.34 123.871C1293.55 134.476 1373.55 145.863 1441.42 140.729C1528.7 134.112 1605.09 107.527 1692 99.7844" stroke="url(#paint32_linear_1037_2875)" stroke-miterlimit="10"/>
<path d="M136 94.2651C206.788 95.4751 269.321 118.192 341.427 109.891C403.787 102.708 454.941 81.1569 516.545 72.9705C580.439 64.4843 654.858 76.0717 717.034 84.0947C778.378 92.0141 837.723 103.029 898.569 111.641C952.393 119.271 988.43 102.882 1036.81 94.8428C1066.85 89.8557 1092.37 91.8124 1120.45 98.6581C1156.02 107.402 1192.87 114.756 1230.67 120.656C1295.13 130.657 1374.49 140.751 1442.16 135.617C1528.79 129.077 1605.91 104.604 1692 96.636" stroke="url(#paint33_linear_1037_2875)" stroke-miterlimit="10"/>
<path d="M136 89.9831C207.23 91.2417 269.827 114.268 342.386 106.049C404.777 99.0066 456.331 77.742 518.009 69.8075C581.837 61.5994 655.736 73.2276 717.912 81.1621C778.801 88.9434 838.102 99.6851 898.883 107.527C952.338 114.427 989.779 98.7385 1038.56 91.4661C1068.81 86.9571 1094.52 89.1131 1122.58 95.9532C1157.89 104.577 1194.55 111.703 1232.19 117.256C1296.89 126.783 1375.45 135.67 1442.98 130.455C1528.92 123.85 1606.73 101.195 1692 92.9216" stroke="url(#paint34_linear_1037_2875)" stroke-miterlimit="10"/>
<path d="M136 86.6956C207.673 88.0019 270.345 111.416 343.542 103.275C405.836 96.3413 457.822 75.3413 519.565 67.6524C583.318 59.7099 656.709 71.3949 718.744 79.2272C779.19 86.8775 838.448 97.3389 899.099 104.433C952.219 110.65 991.141 95.6137 1040.3 89.1318C1070.77 85.1027 1096.68 87.4783 1124.75 94.3184C1159.8 102.832 1196.26 109.729 1233.71 114.927C1298.84 123.966 1376.42 131.517 1443.84 126.276C1529.12 119.662 1607.54 98.7609 1692 90.1901" stroke="url(#paint35_linear_1037_2875)" stroke-miterlimit="10"/>
<path d="M136 82.9553C208.192 84.3272 270.983 107.769 344.698 99.8494C406.982 93.165 459.421 72.7566 521.207 65.4492C584.906 57.9232 657.746 69.4445 719.694 77.0799C779.687 84.4748 838.901 94.4549 899.391 100.691C952.198 106.157 992.654 92.05 1042.18 86.4806C1072.87 83.01 1098.98 85.6171 1127.1 92.3069C1161.87 100.559 1198.14 107.102 1235.39 111.846C1300.91 120.219 1377.42 126.27 1444.75 121.067C1529.35 114.535 1608.34 95.7884 1692 87.0928" stroke="url(#paint36_linear_1037_2875)" stroke-miterlimit="10"/>
<path d="M136 79.5383C208.711 80.9964 271.61 104.911 345.941 97.0849C408.17 90.5291 461.031 70.3425 522.925 63.2952C586.538 56.049 658.816 67.6086 720.667 75.1531C780.227 82.4158 839.366 92.0755 899.661 97.5709C952.198 102.359 994.22 88.9661 1044.12 84.1776C1075.04 81.2118 1101.33 84.1058 1129.54 90.8052C1164.04 98.937 1200.1 105.23 1237.13 109.583C1303.04 117.404 1378.38 121.999 1445.68 116.763C1529.62 110.241 1609.11 93.2961 1692 84.3323" stroke="url(#paint37_linear_1037_2875)" stroke-miterlimit="10"/>
<path d="M136 76.7423C209.218 78.2672 272.28 102.243 347.184 94.6567C409.424 88.3543 462.728 68.7505 524.697 62.097C588.223 55.279 659.929 66.6442 721.737 73.9614C780.876 80.9659 839.928 90.0986 900.028 94.761C952.338 98.8145 995.96 86.3797 1046.22 82.5017C1077.36 80.0937 1103.83 83.2422 1132.15 89.7969C1166.39 97.664 1202.23 103.591 1239.03 107.47C1305.39 114.562 1379.44 117.568 1446.71 112.407C1529.92 106.011 1609.88 91.2121 1692 82.1616" stroke="url(#paint38_linear_1037_2875)" stroke-miterlimit="10"/>
<path d="M136 73.1772C209.751 74.8012 272.978 99.227 348.502 91.7945C410.745 85.6479 464.494 66.2879 526.543 59.9306C589.985 53.4459 661.111 64.7858 722.846 71.9911C781.588 78.8472 840.535 87.5822 900.379 91.4952C952.507 94.9039 997.72 83.2313 1048.3 80.1996C1079.64 78.3207 1106.32 81.7903 1134.75 88.3304C1168.73 96.0537 1204.35 101.7 1240.9 105.152C1307.68 111.598 1380.43 113.033 1447.71 107.857C1530.31 101.505 1610.59 88.6187 1692 79.3405" stroke="url(#paint39_linear_1037_2875)" stroke-miterlimit="10"/>
<path d="M136 70.3287C210.286 72.0277 273.69 96.5855 349.813 89.3815C412.04 83.4847 466.26 64.6802 528.379 58.7448C591.709 52.677 662.234 63.8362 723.953 70.8086C782.301 77.428 841.114 85.5864 900.704 88.6919C952.731 91.4059 999.485 80.6935 1050.45 78.5643C1082.02 77.2459 1108.8 81.0024 1137.5 87.4232C1171.21 94.8808 1206.62 100.151 1242.89 103.111C1395.25 115.958 1544.54 94.2853 1692 77.1853" stroke="url(#paint40_linear_1037_2875)" stroke-miterlimit="10"/>
<path d="M136 67.4948C210.839 69.2761 274.43 93.8901 351.182 86.957C413.411 81.3337 468.098 63.1157 530.295 57.5637C593.518 51.9186 663.452 62.8691 725.043 69.594C783.058 75.9461 841.7 83.526 901.023 85.8115C953.041 87.8339 1001.27 78.1384 1052.61 76.8779C1084.36 76.1106 1111.37 80.1663 1140.24 86.4527C1173.56 93.7586 1208.95 98.4172 1244.88 100.993C1393.36 111.642 1548.22 91.8732 1692 74.998" stroke="url(#paint41_linear_1037_2875)" stroke-miterlimit="10"/>
<path d="M136 64.7275C211.39 66.6049 275.176 91.4724 352.554 84.7587C414.794 79.3406 469.935 61.582 532.207 56.3944C595.323 51.1409 664.651 61.9608 726.178 68.4713C783.879 74.5921 842.316 81.6462 901.368 83.1887C953.483 84.5501 1003.07 75.7559 1054.81 75.3881C1086.74 75.1631 1113.92 79.5437 1143.01 85.7633C1176.12 92.8393 1211.27 97.1046 1246.9 99.2236C1314.77 103.258 1383.59 99.822 1450.9 94.8869C1531.66 88.9637 1612.54 82.4641 1692 72.9288" stroke="url(#paint42_linear_1037_2875)" stroke-miterlimit="10"/>
<path d="M136 61.8363C211.292 63.7588 274.989 88.4738 352.29 82.3849C414.28 77.4833 469.528 60.551 531.313 55.4152C593.768 50.225 661.701 60.5238 722.686 66.7434C781.64 72.7342 841.361 79.4276 901.709 80.2663C955.282 81.0125 1007.48 72.7669 1060.94 73.7309C1093.2 74.3136 1120.1 79.6291 1149.67 85.5328C1180.39 91.6653 1212.83 95.1781 1245.63 96.8392C1315.46 100.374 1384.71 95.1618 1453.7 90.2438C1533.33 84.5689 1613.68 80.201 1692 70.7137" stroke="url(#paint43_linear_1037_2875)" stroke-miterlimit="10"/>
<path d="M136 59.1083C211.812 61.1386 275.77 86.2495 353.645 80.3504C415.648 75.6531 471.34 59.0424 533.223 54.2463C595.549 49.4393 662.944 59.668 723.844 65.7317C782.518 71.5814 842.013 77.8042 902.049 77.8042C955.936 77.8042 1009.29 70.5991 1063.19 72.4374C1095.5 73.5349 1122.62 79.198 1152.42 85.0203C1182.94 90.9797 1215.16 94.146 1247.69 95.3971C1317.74 98.0915 1385.79 91.1608 1454.77 86.3427C1533.89 80.8168 1614.23 78.4627 1692 68.7827" stroke="url(#paint44_linear_1037_2875)" stroke-miterlimit="10"/>
<path d="M136 56.3834C212.387 58.5126 276.477 83.8918 355.015 78.2086C417.041 73.7192 473.167 57.5333 535.139 53.0989C597.338 48.6371 664.205 58.8207 725.074 64.702C783.426 70.3522 842.697 76.0299 902.421 75.2267C956.7 74.4949 1011.11 68.3551 1065.46 71.0564C1097.81 72.6684 1125.15 78.6487 1155.15 84.3594C1185.41 90.1197 1217.48 92.92 1249.7 93.7508C1319.94 95.5718 1386.87 86.9727 1455.84 82.2743C1534.46 76.9157 1614.68 76.6186 1692 66.7926" stroke="url(#paint45_linear_1037_2875)" stroke-miterlimit="10"/>
<path d="M136 54.6397C212.916 56.8375 277.275 82.397 356.362 76.9576C418.398 72.6886 474.956 56.9638 537.024 52.931C599.093 48.8982 665.418 58.9308 726.125 64.6009C784.336 70.0403 843.325 75.1775 902.724 73.5677C957.477 72.0842 1012.81 67.0514 1067.62 70.5952C1100.04 72.6886 1127.57 78.985 1157.85 84.5563C1188.13 90.1275 1219.79 92.523 1251.71 92.9406C1321.95 93.8691 1387.99 83.6717 1456.88 79.1114C1535.05 73.9358 1615.2 75.694 1692 65.7383" stroke="url(#paint46_linear_1037_2875)" stroke-miterlimit="10"/>
<path d="M136 51.9537C213.446 54.2479 278.032 79.8126 357.682 74.656C419.751 70.6192 476.719 55.4606 538.875 51.7898C600.771 48.1354 666.686 58.0444 727.286 63.4906C785.324 68.7018 843.989 73.274 903.097 70.8868C958.39 68.6527 1014.55 64.736 1069.84 69.0842C1102.16 71.6297 1130.02 78.2175 1160.51 83.6309C1190.45 88.9405 1222.11 90.9835 1253.68 90.9999C1323.92 91.0436 1389.12 79.3538 1457.91 74.94C1535.71 69.9473 1615.68 73.7328 1692 63.6763" stroke="url(#paint47_linear_1037_2875)" stroke-miterlimit="10"/>
<path d="M136 50C213.963 52.3687 278.743 78.1236 358.965 73.168C421.065 69.3476 478.444 54.6118 540.674 51.3371C602.504 48.0625 667.76 57.8864 728.369 63.1367C786.287 68.136 844.66 72.1911 903.421 69.0311C959.308 66.0293 1016.19 63.2022 1071.99 68.3543C1104.3 71.3288 1132.39 78.2437 1163.11 83.5268C1192.91 88.6461 1224.3 90.3216 1255.58 89.9505C1325.71 89.1264 1390.23 75.9515 1458.92 71.6453C1536.28 66.7989 1616.04 72.6168 1692 62.3672" stroke="url(#paint48_linear_1037_2875)" stroke-miterlimit="10"/>
<path d="M136 48C214.446 50.4466 279.451 76.3353 360.198 71.6055C422.328 67.96 480.137 53.7216 542.396 50.7627C604.094 47.8311 668.818 57.6231 729.392 62.669C787.2 67.4696 845.279 71.0115 903.703 67.0991C960.214 63.3174 1017.8 61.5628 1073.98 67.4969C1106.26 70.9025 1134.59 78.1335 1165.58 83.2992C1195.19 88.2034 1226.41 89.5548 1257.42 88.8083C1327.37 87.1354 1391.33 72.5536 1459.9 68.3469C1536.89 63.6226 1616.41 71.4475 1692 61.0124" stroke="url(#paint49_linear_1037_2875)" stroke-miterlimit="10"/>
<path d="M136 46C214.88 48.517 280.124 74.5292 361.392 70.0009C423.555 66.5326 481.689 52.7572 544.091 50.1315C605.682 47.5439 669.931 57.2964 730.41 62.1564C788.143 66.8044 845.931 69.8052 904.01 65.1626C961.182 60.5962 1019.28 59.8895 1075.96 66.576C1108.17 70.3814 1136.77 77.9214 1167.97 82.9553C1197.42 87.7066 1228.48 88.6905 1259.16 87.5924C1328.86 85.0972 1392.39 69.2072 1460.83 65.0648C1537.55 60.4386 1616.74 70.2455 1692 59.5851" stroke="url(#paint50_linear_1037_2875)" stroke-miterlimit="10"/>
<path d="M136 44C215.378 46.6297 280.794 73.3537 362.517 68.9154C424.735 65.5423 483.226 51.9001 545.693 49.5479C607.187 47.2344 670.94 57.1872 731.364 61.9917C789.045 66.5798 846.552 69.1318 904.307 63.656C962.063 58.1803 1020.74 58.5021 1077.86 66.0804C1109.99 70.3467 1138.87 78.2857 1170.24 83.4008C1199.42 88.1664 1230.52 88.7656 1260.83 87.2843C1330.24 83.9556 1393.41 66.43 1461.71 62.258C1538.1 57.5922 1617.06 69.6255 1692 58.4521" stroke="url(#paint51_linear_1037_2875)" stroke-miterlimit="10"/>
<path d="M136 43C215.813 45.6751 281.372 72.4763 363.584 68.2259C425.783 65.0257 484.621 51.8435 547.166 49.8039C608.522 47.8031 671.866 57.752 732.228 62.4003C789.878 66.822 847.117 68.8837 904.539 62.7098C963.043 56.4255 1022.06 57.7354 1079.6 66.0261C1111.67 70.6358 1140.8 78.8436 1172.35 83.8678C1201.41 88.494 1232.35 88.7593 1262.35 86.9851C1295.08 85.0451 1326.99 80.6012 1358.41 75.671C1392.32 70.3594 1427.21 62.2566 1462.54 60.1121C1538.66 55.4858 1617.36 69.464 1692 58.0007" stroke="url(#paint52_linear_1037_2875)" stroke-miterlimit="10"/>
<path d="M136 41C216.201 43.7147 281.879 70.6415 364.565 66.5418C426.818 63.4519 485.969 50.6561 548.589 48.9235C609.848 47.2075 672.738 57.2002 733.045 61.7248C790.694 66.0397 847.706 67.6123 904.793 60.7537C963.934 53.6468 1023.34 55.9035 1081.3 64.8975C1113.23 69.8635 1142.61 78.3057 1174.32 83.2497C1203.26 87.7577 1234.06 87.7246 1263.76 85.6499C1296.43 83.3766 1328.16 78.554 1359.4 73.3176C1393.06 67.6785 1428 59.1701 1463.32 57.0126C1539.21 52.3832 1617.66 68.2965 1692 56.4608" stroke="url(#paint53_linear_1037_2875)" stroke-miterlimit="10"/>
<path d="M136 40C216.567 42.7559 282.416 69.813 365.458 65.8391C427.752 62.8517 487.183 50.4558 549.856 48.9731C611.026 47.5235 673.494 57.621 733.757 62.0249C791.416 66.2304 848.221 67.3603 904.972 59.8202C964.792 51.8999 1024.47 55.0415 1082.83 64.7147C1114.64 69.9839 1144.24 78.6759 1176.12 83.5593C1204.94 87.9687 1235.55 87.6601 1265.04 85.3176C1297.63 82.727 1329.19 77.546 1360.27 72.0287C1393.7 66.0926 1428.69 57.2187 1464 55.0305C1539.64 50.3455 1617.91 68.176 1692 55.9289" stroke="url(#paint54_linear_1037_2875)" stroke-miterlimit="10"/>
<path d="M136 39C216.902 41.7577 282.859 69.0203 366.257 65.1375C428.627 62.2309 488.361 50.1687 551.098 48.9277C612.204 47.7143 674.282 57.9675 734.481 62.286C792.161 66.4171 848.804 67.1285 905.21 58.9382C965.646 50.1632 1025.48 54.1343 1084.25 64.4536C1115.95 70.0296 1145.74 78.9536 1177.75 83.7961C1206.47 88.1367 1236.97 87.5852 1266.18 84.9929C1298.73 82.1029 1330.12 76.5875 1361.06 70.8018C1394.3 64.5749 1429.32 55.3918 1464.67 53.1525C1540.16 48.3652 1618.23 68.0993 1692 55.3587" stroke="url(#paint55_linear_1037_2875)" stroke-miterlimit="10"/>
<path d="M136 38C217.215 40.764 283.237 68.2601 366.958 64.4292C429.338 61.5768 489.342 49.8078 552.133 48.7574C613.173 47.7569 674.841 58.2158 735.038 62.4834C792.751 66.5741 849.286 66.9058 905.366 58.061C966.429 48.4258 1026.29 53.1577 1085.49 64.1418C1117.06 70.0015 1147.02 79.1502 1179.15 83.9706C1207.78 88.2714 1238.13 87.5085 1267.14 84.6893C1299.64 81.5218 1330.89 75.6953 1361.7 69.6532C1394.79 63.1578 1429.77 53.716 1465.22 51.4109C1540.55 46.4633 1618.52 68.1054 1692 54.7719" stroke="url(#paint56_linear_1037_2875)" stroke-miterlimit="10"/>
<path d="M136 37C216.815 39.7722 282.622 67.3496 365.857 63.7735C431.631 60.9514 495.212 48.2051 561.58 48.4656C618.32 48.6874 675.255 58.2514 731.304 62.3652C790.854 66.7342 847.853 66.6122 905.523 57.2589C969.471 46.9132 1029.39 52.3522 1091.02 64.655C1118.65 70.1661 1144.98 77.6842 1172.81 82.8459C1202.27 88.3071 1234.61 87.7748 1264.92 84.7421C1299.31 81.3046 1332.24 74.7623 1364.68 68.1092C1397.37 61.3784 1432.14 51.9031 1467.39 49.6854C1541.95 45.0226 1619.49 68.0426 1692 54.1597" stroke="url(#paint57_linear_1037_2875)" stroke-miterlimit="10"/>
<path d="M136 37C217.042 39.6986 282.848 67.1061 366.31 63.57C432.105 60.7783 495.976 48.4896 562.322 48.9001C619.019 49.2559 675.662 58.961 731.678 63.0281C791.271 67.3524 848.259 66.9254 905.647 57.089C970.243 46.0099 1029.85 52.0092 1091.99 64.7523C1119.49 70.3904 1145.89 77.8786 1173.8 82.9802C1203.19 88.3774 1235.39 87.7424 1265.53 84.5785C1299.9 80.9713 1332.69 74.233 1365.03 67.4892C1397.69 60.6798 1432.44 51.221 1467.78 48.922C1542.2 44.116 1619.83 68.5457 1692 54.1769" stroke="url(#paint58_linear_1037_2875)" stroke-miterlimit="10"/>
<path d="M136 36C217.204 38.6784 282.956 66.4948 366.655 62.8721C432.461 60.0225 496.473 47.8898 562.906 48.4365C619.581 48.9004 675.954 59.0064 731.948 63.1427C791.573 67.5606 848.648 66.8592 905.669 56.339C970.891 44.3112 1030.02 50.8719 1092.69 64.2692C1120.13 70.1285 1146.59 77.7605 1174.52 82.9681C1203.89 88.4408 1235.81 87.7505 1265.93 84.4095C1335.5 76.6781 1397.84 52.4734 1468.09 47.5915C1542.38 42.4281 1620.21 68.7369 1692 53.5116" stroke="url(#paint59_linear_1037_2875)" stroke-miterlimit="10"/>
<path d="M136 36C217.336 38.6058 283.068 66.4026 366.867 62.7161C432.686 59.8141 496.916 47.9976 563.318 48.6284C620.005 49.177 676.131 59.5672 732.105 63.7474C791.753 68.2019 849.024 67.3023 905.723 56.2867C971.52 43.4992 1029.99 50.3949 1093.26 64.2412C1120.47 70.1823 1147 78.0545 1174.99 83.0247C1204.73 88.2966 1235.69 87.8687 1266.13 84.4016C1335.83 76.4581 1397.82 52.3917 1468.32 47.1911C1542.51 41.7053 1620.68 69.4363 1692 53.5108" stroke="url(#paint60_linear_1037_2875)" stroke-miterlimit="10"/>
<path d="M136 36C217.418 38.5428 283.027 66.6575 366.908 62.8129C432.723 59.7957 497.036 48.113 563.564 48.7969C620.259 49.3816 676.166 60.27 732.126 64.5724C791.771 69.1562 849.341 68.1026 905.702 56.4696C972.003 42.7735 1029.65 49.9553 1093.52 64.407C1151.87 77.601 1199.94 92.6209 1266.01 84.8876C1335.89 76.7075 1397.59 52.7132 1468.33 47.0649C1542.43 41.1463 1621.01 70.5352 1692 53.684" stroke="url(#paint61_linear_1037_2875)" stroke-miterlimit="10"/>
<g filter="url(#filter0_f_1037_2875)">
<rect x="126" y="215" width="1192" height="236" fill="#F6F6F6"/>
</g>
<defs>
<filter id="filter0_f_1037_2875" x="57" y="146" width="1330" height="374" filterUnits="userSpaceOnUse" color-interpolation-filters="sRGB">
<feFlood flood-opacity="0" result="BackgroundImageFix"/>
<feBlend mode="normal" in="SourceGraphic" in2="BackgroundImageFix" result="shape"/>
<feGaussianBlur stdDeviation="34.5" result="effect1_foregroundBlur_1037_2875"/>
</filter>
<linearGradient id="paint0_linear_1037_2875" x1="913" y1="247" x2="913" y2="292" gradientUnits="userSpaceOnUse">
<stop stop-color="#DBF6EA"/>
<stop offset="0.213542" stop-color="#D3F7E7"/>
<stop offset="1" stop-color="#D5F5E7"/>
</linearGradient>
<linearGradient id="paint1_linear_1037_2875" x1="913" y1="234" x2="913" y2="289" gradientUnits="userSpaceOnUse">
<stop stop-color="#DBF6EA"/>
<stop offset="0.213542" stop-color="#D3F7E7"/>
<stop offset="1" stop-color="#D5F5E7"/>
</linearGradient>
<linearGradient id="paint2_linear_1037_2875" x1="913" y1="222" x2="913" y2="287" gradientUnits="userSpaceOnUse">
<stop stop-color="#DBF6EA"/>
<stop offset="0.213542" stop-color="#D3F7E7"/>
<stop offset="1" stop-color="#D5F5E7"/>
</linearGradient>
<linearGradient id="paint3_linear_1037_2875" x1="913" y1="210" x2="913" y2="284" gradientUnits="userSpaceOnUse">
<stop stop-color="#DBF6EA"/>
<stop offset="0.213542" stop-color="#D3F7E7"/>
<stop offset="1" stop-color="#D5F5E7"/>
</linearGradient>
<linearGradient id="paint4_linear_1037_2875" x1="913" y1="200" x2="913" y2="281" gradientUnits="userSpaceOnUse">
<stop stop-color="#DBF6EA"/>
<stop offset="0.213542" stop-color="#D3F7E7"/>
<stop offset="1" stop-color="#D5F5E7"/>
</linearGradient>
<linearGradient id="paint5_linear_1037_2875" x1="913" y1="190" x2="913" y2="277" gradientUnits="userSpaceOnUse">
<stop stop-color="#DBF6EA"/>
<stop offset="0.213542" stop-color="#D3F7E7"/>
<stop offset="1" stop-color="#D5F5E7"/>
</linearGradient>
<linearGradient id="paint6_linear_1037_2875" x1="913" y1="182" x2="913" y2="271" gradientUnits="userSpaceOnUse">
<stop stop-color="#DBF6EA"/>
<stop offset="0.213542" stop-color="#D3F7E7"/>
<stop offset="1" stop-color="#D5F5E7"/>
</linearGradient>
<linearGradient id="paint7_linear_1037_2875" x1="913" y1="174" x2="913" y2="265" gradientUnits="userSpaceOnUse">
<stop stop-color="#DBF6EA"/>
<stop offset="0.213542" stop-color="#D3F7E7"/>
<stop offset="1" stop-color="#D5F5E7"/>
</linearGradient>
<linearGradient id="paint8_linear_1037_2875" x1="913" y1="167" x2="913" y2="259" gradientUnits="userSpaceOnUse">
<stop stop-color="#DBF6EA"/>
<stop offset="0.213542" stop-color="#D3F7E7"/>
<stop offset="1" stop-color="#D5F5E7"/>
</linearGradient>
<linearGradient id="paint9_linear_1037_2875" x1="913" y1="160" x2="913" y2="253" gradientUnits="userSpaceOnUse">
<stop stop-color="#DBF6EA"/>
<stop offset="0.213542" stop-color="#D3F7E7"/>
<stop offset="1" stop-color="#D5F5E7"/>
</linearGradient>
<linearGradient id="paint10_linear_1037_2875" x1="913" y1="154" x2="913" y2="247" gradientUnits="userSpaceOnUse">
<stop stop-color="#DBF6EA"/>
<stop offset="0.213542" stop-color="#D3F7E7"/>
<stop offset="1" stop-color="#D5F5E7"/>
</linearGradient>
<linearGradient id="paint11_linear_1037_2875" x1="913" y1="148" x2="913" y2="241" gradientUnits="userSpaceOnUse">
<stop stop-color="#DBF6EA"/>
<stop offset="0.213542" stop-color="#D3F7E7"/>
<stop offset="1" stop-color="#D5F5E7"/>
</linearGradient>
<linearGradient id="paint12_linear_1037_2875" x1="913" y1="143" x2="913" y2="235" gradientUnits="userSpaceOnUse">
<stop stop-color="#DBF6EA"/>
<stop offset="0.213542" stop-color="#D3F7E7"/>
<stop offset="1" stop-color="#D5F5E7"/>
</linearGradient>
<linearGradient id="paint13_linear_1037_2875" x1="913" y1="139" x2="913" y2="230" gradientUnits="userSpaceOnUse">
<stop stop-color="#DBF6EA"/>
<stop offset="0.213542" stop-color="#D3F7E7"/>
<stop offset="1" stop-color="#D5F5E7"/>
</linearGradient>
<linearGradient id="paint14_linear_1037_2875" x1="913" y1="135" x2="913" y2="225" gradientUnits="userSpaceOnUse">
<stop stop-color="#DBF6EA"/>
<stop offset="0.213542" stop-color="#D3F7E7"/>
<stop offset="1" stop-color="#D5F5E7"/>
</linearGradient>
<linearGradient id="paint15_linear_1037_2875" x1="913" y1="131" x2="913" y2="220" gradientUnits="userSpaceOnUse">
<stop stop-color="#DBF6EA"/>
<stop offset="0.213542" stop-color="#D3F7E7"/>
<stop offset="1" stop-color="#D5F5E7"/>
</linearGradient>
<linearGradient id="paint16_linear_1037_2875" x1="913" y1="127" x2="913" y2="215" gradientUnits="userSpaceOnUse">
<stop stop-color="#DBF6EA"/>
<stop offset="0.213542" stop-color="#D3F7E7"/>
<stop offset="1" stop-color="#D5F5E7"/>
</linearGradient>
<linearGradient id="paint17_linear_1037_2875" x1="913" y1="124" x2="913" y2="210" gradientUnits="userSpaceOnUse">
<stop stop-color="#DBF6EA"/>
<stop offset="0.213542" stop-color="#D3F7E7"/>
<stop offset="1" stop-color="#D5F5E7"/>
</linearGradient>
<linearGradient id="paint18_linear_1037_2875" x1="913" y1="120" x2="913" y2="205" gradientUnits="userSpaceOnUse">
<stop stop-color="#DBF6EA"/>
<stop offset="0.213542" stop-color="#D3F7E7"/>
<stop offset="1" stop-color="#D5F5E7"/>
</linearGradient>
<linearGradient id="paint19_linear_1037_2875" x1="913" y1="118" x2="913" y2="200" gradientUnits="userSpaceOnUse">
<stop stop-color="#DBF6EA"/>
<stop offset="0.213542" stop-color="#D3F7E7"/>
<stop offset="1" stop-color="#D5F5E7"/>
</linearGradient>
<linearGradient id="paint20_linear_1037_2875" x1="913" y1="114" x2="913" y2="196" gradientUnits="userSpaceOnUse">
<stop stop-color="#DBF6EA"/>
<stop offset="0.213542" stop-color="#D3F7E7"/>
<stop offset="1" stop-color="#D5F5E7"/>
</linearGradient>
<linearGradient id="paint21_linear_1037_2875" x1="913" y1="111" x2="913" y2="191" gradientUnits="userSpaceOnUse">
<stop stop-color="#DBF6EA"/>
<stop offset="0.213542" stop-color="#D3F7E7"/>
<stop offset="1" stop-color="#D5F5E7"/>
</linearGradient>
<linearGradient id="paint22_linear_1037_2875" x1="913" y1="107" x2="913" y2="187" gradientUnits="userSpaceOnUse">
<stop stop-color="#DBF6EA"/>
<stop offset="0.213542" stop-color="#D3F7E7"/>
<stop offset="1" stop-color="#D5F5E7"/>
</linearGradient>
<linearGradient id="paint23_linear_1037_2875" x1="913" y1="104" x2="913" y2="183" gradientUnits="userSpaceOnUse">
<stop stop-color="#DBF6EA"/>
<stop offset="0.213542" stop-color="#D3F7E7"/>
<stop offset="1" stop-color="#D5F5E7"/>
</linearGradient>
<linearGradient id="paint24_linear_1037_2875" x1="913" y1="100" x2="913" y2="178" gradientUnits="userSpaceOnUse">
<stop stop-color="#DBF6EA"/>
<stop offset="0.213542" stop-color="#D3F7E7"/>
<stop offset="1" stop-color="#D5F5E7"/>
</linearGradient>
<linearGradient id="paint25_linear_1037_2875" x1="913" y1="95" x2="913" y2="174" gradientUnits="userSpaceOnUse">
<stop stop-color="#DBF6EA"/>
<stop offset="0.213542" stop-color="#D3F7E7"/>
<stop offset="1" stop-color="#D5F5E7"/>
</linearGradient>
<linearGradient id="paint26_linear_1037_2875" x1="913.5" y1="91" x2="913.5" y2="169" gradientUnits="userSpaceOnUse">
<stop stop-color="#DBF6EA"/>
<stop offset="0.213542" stop-color="#D3F7E7"/>
<stop offset="1" stop-color="#D5F5E7"/>
</linearGradient>
<linearGradient id="paint27_linear_1037_2875" x1="913.5" y1="88" x2="913.5" y2="165" gradientUnits="userSpaceOnUse">
<stop stop-color="#DBF6EA"/>
<stop offset="0.213542" stop-color="#D3F7E7"/>
<stop offset="1" stop-color="#D5F5E7"/>
</linearGradient>
<linearGradient id="paint28_linear_1037_2875" x1="914" y1="84" x2="914" y2="160" gradientUnits="userSpaceOnUse">
<stop stop-color="#DBF6EA"/>
<stop offset="0.213542" stop-color="#D3F7E7"/>
<stop offset="1" stop-color="#D5F5E7"/>
</linearGradient>
<linearGradient id="paint29_linear_1037_2875" x1="914" y1="81" x2="914" y2="156" gradientUnits="userSpaceOnUse">
<stop stop-color="#DBF6EA"/>
<stop offset="0.213542" stop-color="#D3F7E7"/>
<stop offset="1" stop-color="#D5F5E7"/>
</linearGradient>
<linearGradient id="paint30_linear_1037_2875" x1="914" y1="78" x2="914" y2="151" gradientUnits="userSpaceOnUse">
<stop stop-color="#DBF6EA"/>
<stop offset="0.213542" stop-color="#D3F7E7"/>
<stop offset="1" stop-color="#D5F5E7"/>
</linearGradient>
<linearGradient id="paint31_linear_1037_2875" x1="914" y1="75" x2="914" y2="146" gradientUnits="userSpaceOnUse">
<stop stop-color="#DBF6EA"/>
<stop offset="0.213542" stop-color="#D3F7E7"/>
<stop offset="1" stop-color="#D5F5E7"/>
</linearGradient>
<linearGradient id="paint32_linear_1037_2875" x1="914" y1="72" x2="914" y2="142" gradientUnits="userSpaceOnUse">
<stop stop-color="#DBF6EA"/>
<stop offset="0.213542" stop-color="#D3F7E7"/>
<stop offset="1" stop-color="#D5F5E7"/>
</linearGradient>
<linearGradient id="paint33_linear_1037_2875" x1="914" y1="70" x2="914" y2="137" gradientUnits="userSpaceOnUse">
<stop stop-color="#DBF6EA"/>
<stop offset="0.213542" stop-color="#D3F7E7"/>
<stop offset="1" stop-color="#D5F5E7"/>
</linearGradient>
<linearGradient id="paint34_linear_1037_2875" x1="914" y1="67" x2="914" y2="132" gradientUnits="userSpaceOnUse">
<stop stop-color="#DBF6EA"/>
<stop offset="0.213542" stop-color="#D3F7E7"/>
<stop offset="1" stop-color="#D5F5E7"/>
</linearGradient>
<linearGradient id="paint35_linear_1037_2875" x1="914" y1="65" x2="914" y2="128" gradientUnits="userSpaceOnUse">
<stop stop-color="#DBF6EA"/>
<stop offset="0.213542" stop-color="#D3F7E7"/>
<stop offset="1" stop-color="#D5F5E7"/>
</linearGradient>
<linearGradient id="paint36_linear_1037_2875" x1="914" y1="63" x2="914" y2="123" gradientUnits="userSpaceOnUse">
<stop stop-color="#DBF6EA"/>
<stop offset="0.213542" stop-color="#D3F7E7"/>
<stop offset="1" stop-color="#D5F5E7"/>
</linearGradient>
<linearGradient id="paint37_linear_1037_2875" x1="914" y1="61" x2="914" y2="119" gradientUnits="userSpaceOnUse">
<stop stop-color="#DBF6EA"/>
<stop offset="0.213542" stop-color="#D3F7E7"/>
<stop offset="1" stop-color="#D5F5E7"/>
</linearGradient>
<linearGradient id="paint38_linear_1037_2875" x1="914" y1="60" x2="914" y2="115" gradientUnits="userSpaceOnUse">
<stop stop-color="#DBF6EA"/>
<stop offset="0.213542" stop-color="#D3F7E7"/>
<stop offset="1" stop-color="#D5F5E7"/>
</linearGradient>
<linearGradient id="paint39_linear_1037_2875" x1="914" y1="58" x2="914" y2="111" gradientUnits="userSpaceOnUse">
<stop stop-color="#DBF6EA"/>
<stop offset="0.213542" stop-color="#D3F7E7"/>
<stop offset="1" stop-color="#D5F5E7"/>
</linearGradient>
<linearGradient id="paint40_linear_1037_2875" x1="914" y1="57" x2="914" y2="107" gradientUnits="userSpaceOnUse">
<stop stop-color="#DBF6EA"/>
<stop offset="0.213542" stop-color="#D3F7E7"/>
<stop offset="1" stop-color="#D5F5E7"/>
</linearGradient>
<linearGradient id="paint41_linear_1037_2875" x1="914" y1="56" x2="914" y2="104" gradientUnits="userSpaceOnUse">
<stop stop-color="#DBF6EA"/>
<stop offset="0.213542" stop-color="#D3F7E7"/>
<stop offset="1" stop-color="#D5F5E7"/>
</linearGradient>
<linearGradient id="paint42_linear_1037_2875" x1="914" y1="55" x2="914" y2="101" gradientUnits="userSpaceOnUse">
<stop stop-color="#DBF6EA"/>
<stop offset="0.213542" stop-color="#D3F7E7"/>
<stop offset="1" stop-color="#D5F5E7"/>
</linearGradient>
<linearGradient id="paint43_linear_1037_2875" x1="914" y1="54" x2="914" y2="98" gradientUnits="userSpaceOnUse">
<stop stop-color="#DBF6EA"/>
<stop offset="0.213542" stop-color="#D3F7E7"/>
<stop offset="1" stop-color="#D5F5E7"/>
</linearGradient>
<linearGradient id="paint44_linear_1037_2875" x1="914" y1="53" x2="914" y2="96" gradientUnits="userSpaceOnUse">
<stop stop-color="#DBF6EA"/>
<stop offset="0.213542" stop-color="#D3F7E7"/>
<stop offset="1" stop-color="#D5F5E7"/>
</linearGradient>
<linearGradient id="paint45_linear_1037_2875" x1="914" y1="52" x2="914" y2="94" gradientUnits="userSpaceOnUse">
<stop stop-color="#DBF6EA"/>
<stop offset="0.213542" stop-color="#D3F7E7"/>
<stop offset="1" stop-color="#D5F5E7"/>
</linearGradient>
<linearGradient id="paint46_linear_1037_2875" x1="914" y1="52" x2="914" y2="93" gradientUnits="userSpaceOnUse">
<stop stop-color="#DBF6EA"/>
<stop offset="0.213542" stop-color="#D3F7E7"/>
<stop offset="1" stop-color="#D5F5E7"/>
</linearGradient>
<linearGradient id="paint47_linear_1037_2875" x1="914" y1="51" x2="914" y2="91" gradientUnits="userSpaceOnUse">
<stop stop-color="#DBF6EA"/>
<stop offset="0.213542" stop-color="#D3F7E7"/>
<stop offset="1" stop-color="#D5F5E7"/>
</linearGradient>
<linearGradient id="paint48_linear_1037_2875" x1="914" y1="50" x2="914" y2="90" gradientUnits="userSpaceOnUse">
<stop stop-color="#DBF6EA"/>
<stop offset="0.213542" stop-color="#D3F7E7"/>
<stop offset="1" stop-color="#D5F5E7"/>
</linearGradient>
<linearGradient id="paint49_linear_1037_2875" x1="914" y1="48" x2="914" y2="89" gradientUnits="userSpaceOnUse">
<stop stop-color="#DBF6EA"/>
<stop offset="0.213542" stop-color="#D3F7E7"/>
<stop offset="1" stop-color="#D5F5E7"/>
</linearGradient>
<linearGradient id="paint50_linear_1037_2875" x1="914" y1="46" x2="914" y2="88" gradientUnits="userSpaceOnUse">
<stop stop-color="#DBF6EA"/>
<stop offset="0.213542" stop-color="#D3F7E7"/>
<stop offset="1" stop-color="#D5F5E7"/>
</linearGradient>
<linearGradient id="paint51_linear_1037_2875" x1="914" y1="44" x2="914" y2="88" gradientUnits="userSpaceOnUse">
<stop stop-color="#DBF6EA"/>
<stop offset="0.213542" stop-color="#D3F7E7"/>
<stop offset="1" stop-color="#D5F5E7"/>
</linearGradient>
<linearGradient id="paint52_linear_1037_2875" x1="914" y1="43" x2="914" y2="88" gradientUnits="userSpaceOnUse">
<stop stop-color="#DBF6EA"/>
<stop offset="0.213542" stop-color="#D3F7E7"/>
<stop offset="1" stop-color="#D5F5E7"/>
</linearGradient>
<linearGradient id="paint53_linear_1037_2875" x1="914" y1="41" x2="914" y2="87" gradientUnits="userSpaceOnUse">
<stop stop-color="#DBF6EA"/>
<stop offset="0.213542" stop-color="#D3F7E7"/>
<stop offset="1" stop-color="#D5F5E7"/>
</linearGradient>
<linearGradient id="paint54_linear_1037_2875" x1="914" y1="40" x2="914" y2="87" gradientUnits="userSpaceOnUse">
<stop stop-color="#DBF6EA"/>
<stop offset="0.213542" stop-color="#D3F7E7"/>
<stop offset="1" stop-color="#D5F5E7"/>
</linearGradient>
<linearGradient id="paint55_linear_1037_2875" x1="914" y1="39" x2="914" y2="87" gradientUnits="userSpaceOnUse">
<stop stop-color="#DBF6EA"/>
<stop offset="0.213542" stop-color="#D3F7E7"/>
<stop offset="1" stop-color="#D5F5E7"/>
</linearGradient>
<linearGradient id="paint56_linear_1037_2875" x1="914" y1="38" x2="914" y2="87" gradientUnits="userSpaceOnUse">
<stop stop-color="#DBF6EA"/>
<stop offset="0.213542" stop-color="#D3F7E7"/>
<stop offset="1" stop-color="#D5F5E7"/>
</linearGradient>
<linearGradient id="paint57_linear_1037_2875" x1="914" y1="37" x2="914" y2="87" gradientUnits="userSpaceOnUse">
<stop stop-color="#DBF6EA"/>
<stop offset="0.213542" stop-color="#D3F7E7"/>
<stop offset="1" stop-color="#D5F5E7"/>
</linearGradient>
<linearGradient id="paint58_linear_1037_2875" x1="914" y1="37" x2="914" y2="87" gradientUnits="userSpaceOnUse">
<stop stop-color="#DBF6EA"/>
<stop offset="0.213542" stop-color="#D3F7E7"/>
<stop offset="1" stop-color="#D5F5E7"/>
</linearGradient>
<linearGradient id="paint59_linear_1037_2875" x1="914" y1="36" x2="914" y2="87" gradientUnits="userSpaceOnUse">
<stop stop-color="#DBF6EA"/>
<stop offset="0.213542" stop-color="#D3F7E7"/>
<stop offset="1" stop-color="#D5F5E7"/>
</linearGradient>
<linearGradient id="paint60_linear_1037_2875" x1="914" y1="36" x2="914" y2="87" gradientUnits="userSpaceOnUse">
<stop stop-color="#DBF6EA"/>
<stop offset="0.213542" stop-color="#D3F7E7"/>
<stop offset="1" stop-color="#D5F5E7"/>
</linearGradient>
<linearGradient id="paint61_linear_1037_2875" x1="914" y1="36" x2="914" y2="87" gradientUnits="userSpaceOnUse">
<stop stop-color="#DBF6EA"/>
<stop offset="0.213542" stop-color="#D3F7E7"/>
<stop offset="1" stop-color="#D5F5E7"/>
</linearGradient>
</defs>
</svg>
