<svg width="30" height="30" viewBox="0 0 30 30" fill="none" xmlns="http://www.w3.org/2000/svg">
<g opacity="0.4">
<path d="M14.94 29.88C23.1911 29.88 29.88 23.1911 29.88 14.94C29.88 6.68887 23.1911 0 14.94 0C6.68887 0 0 6.68887 0 14.94C0 23.1911 6.68887 29.88 14.94 29.88Z" fill="#F00500"/>
<path d="M20.6432 15.8945C20.6339 15.9468 20.4817 16.1018 20.3285 16.2157C19.8803 16.5434 19.0782 16.8488 18.2631 16.9954C17.799 17.0794 17.3349 17.0925 17.1949 17.0243C17.1043 16.9786 17.0912 16.9431 17.1239 16.8264C17.1921 16.5836 17.4134 16.3165 17.757 16.0663C17.9325 15.9402 18.644 15.5079 18.9746 15.3258C19.5199 15.027 19.9616 14.8496 20.2604 14.8067C20.3547 14.7936 20.4686 14.7899 20.5031 14.8067C20.5629 14.8291 20.6273 15.0018 20.6525 15.2091C20.6665 15.3193 20.66 15.8067 20.6432 15.8945ZM12.993 16.9692C12.9743 17.0084 12.8763 17.0505 12.7661 17.0663C12.655 17.0831 12.3179 17.0729 12.1265 17.0505C11.4374 16.959 10.7072 16.7479 10.1749 16.4883C9.87614 16.3427 9.66137 16.1961 9.50264 16.0373L9.41113 15.943L9.40179 15.8198C9.38498 15.605 9.38872 15.2679 9.41486 15.1475C9.43175 15.0471 9.46587 14.9505 9.51571 14.8617C9.54092 14.8291 9.54092 14.8291 9.65857 14.8291C9.80144 14.8291 9.92096 14.8515 10.1161 14.9131C10.5158 15.0373 11.1096 15.3361 11.8342 15.7712C12.4318 16.1279 12.6559 16.3035 12.8277 16.5434C12.9444 16.6928 13.0219 16.9039 12.993 16.9692ZM17.5917 21.4895C17.5917 21.4988 17.5525 21.6548 17.5039 21.8397C17.4726 21.953 17.4434 22.067 17.4162 22.1814C17.3798 22.1842 17.348 22.188 17.3116 22.1842H17.2089L17.0651 22.5222C16.9876 22.7071 16.9157 22.8789 16.9063 22.9051L16.8867 22.9508L16.8186 22.8397L16.7504 22.7295V21.8303L16.7243 21.8369C16.6682 21.8499 16.2761 21.9022 16.1042 21.9181C15.3938 21.989 14.6774 21.9736 13.9706 21.8723C13.8995 21.8601 13.8278 21.8513 13.7559 21.8462C13.7531 21.8499 13.7559 22.0572 13.7624 22.314L13.7717 22.7753L13.7176 22.8593C13.6877 22.9051 13.6588 22.9434 13.6588 22.9471C13.6494 22.9564 13.6167 22.9051 13.542 22.7557C13.4617 22.5989 13.4006 22.4331 13.36 22.2617L13.3375 22.1683L13.2367 22.1739L13.1359 22.1842L13.1097 22.0638C13.0955 21.9907 13.0836 21.9172 13.0742 21.8434L13.0649 21.7398L12.9809 21.6651L12.8735 21.5735C12.8567 21.5605 12.8501 21.5381 12.8501 21.5185V21.4792L13.2563 21.483L13.6625 21.4858L13.6746 21.5278L13.6877 21.5707L13.8278 21.5773L14.3731 21.5932L14.7793 21.6025L14.8829 21.441L14.9903 21.2785H15.1266L15.1238 20.9405L15.1201 20.6024L14.9417 20.5249C14.3665 20.2719 14.0295 19.9834 13.9025 19.6323C13.8763 19.5604 13.8763 19.5342 13.8698 19.2102C13.867 18.8881 13.867 18.8591 13.8894 18.7872C13.9113 18.7077 13.9537 18.6353 14.0124 18.5773C14.0711 18.5193 14.1439 18.4777 14.2237 18.4567C14.2797 18.4399 14.4254 18.4399 15.192 18.4399L16.094 18.4436L16.1948 18.4922C16.292 18.5321 16.3761 18.5984 16.4376 18.6836C16.516 18.7872 16.5394 18.8685 16.5394 19.0664C16.5394 19.3494 16.5198 19.5931 16.4908 19.6902C16.4478 19.8237 16.3842 19.9498 16.3022 20.0637C16.1397 20.2719 15.8447 20.4792 15.5739 20.5735L15.4964 20.6024L15.5001 20.9442L15.5029 21.285L15.5748 21.2916L15.6458 21.2981L15.7438 21.4438L15.8372 21.5904H16.2733C16.5132 21.5904 16.7243 21.5932 16.7439 21.596C16.7765 21.6034 16.7831 21.5997 16.8148 21.5446L16.854 21.4858H17.2275C17.5077 21.4727 17.5917 21.4792 17.5917 21.4895Z" fill="black"/>
<path d="M15.8761 22.4209C15.8145 22.4564 15.7725 22.4723 15.7632 22.4667C15.7538 22.4629 15.7071 22.4237 15.6586 22.3882L15.5708 22.3173L15.4802 22.4144C15.2823 22.6291 15.2748 22.6385 15.2169 22.6413C15.1263 22.6506 15.1067 22.6347 14.9965 22.4695C14.9377 22.3854 14.8929 22.3135 14.8929 22.3135C14.8929 22.3135 14.8499 22.307 14.8014 22.3042L14.7108 22.2949L14.6688 22.3817L14.6258 22.4695L14.5511 22.4471C14.4926 22.4277 14.4352 22.405 14.3793 22.3789L14.2822 22.3303V22.1445L15.1459 22.1483L16.0097 22.1511L16.0125 22.2388C16.0162 22.3425 16.019 22.3397 15.8761 22.4209Z" fill="black"/>
<path d="M23.9945 18.4604C23.9917 18.4464 23.9917 18.423 23.9889 18.3885C23.0821 18.3026 22.1672 18.397 21.2971 18.6662C20.4269 18.9355 19.6186 19.3742 18.9187 19.9572C18.9187 19.9572 18.2538 16.9038 15.137 16.9038C12.0183 16.9038 10.8632 19.9572 10.8632 19.9572C9.11616 18.0766 6.77805 18.2129 5.93301 18.3362L5.93021 18.3978C5.90406 18.8684 5.91713 19.0925 5.99557 19.3876C6.23834 20.3139 6.98908 21.3335 8.16467 22.3336C10.0901 23.9704 12.7008 25.1516 14.6785 25.2889C16.7402 25.4289 19.7833 24.2235 21.8096 22.4634C22.127 22.1814 22.4258 21.8826 22.706 21.5642C22.9067 21.3307 23.2055 20.9273 23.1831 20.9273C23.1766 20.9273 23.1831 20.9208 23.1962 20.9143C23.2055 20.9077 23.2149 20.8984 23.2092 20.8919C23.2055 20.8881 23.212 20.8788 23.2223 20.876C23.2317 20.8722 23.2382 20.8666 23.2354 20.8592C23.2317 20.8526 23.2354 20.8461 23.2485 20.8433C23.2578 20.8396 23.2615 20.8302 23.2578 20.8237C23.2541 20.8172 23.2578 20.8106 23.2643 20.8106C23.2709 20.8106 23.2774 20.8013 23.2774 20.7947C23.2774 20.7882 23.2839 20.7779 23.2905 20.7779C23.297 20.7779 23.3036 20.7714 23.3036 20.7649C23.3143 20.7383 23.3285 20.7132 23.3456 20.6902C23.3941 20.6155 23.5884 20.2681 23.6154 20.2102C23.8003 19.791 23.917 19.4175 23.9721 19.044C23.9917 18.8656 24.0076 18.5379 23.9945 18.4594V18.4604ZM15.8765 22.4213C15.8149 22.4568 15.7729 22.4727 15.7635 22.4671C15.7542 22.4634 15.7075 22.4241 15.6589 22.3887L15.5712 22.3177L15.4806 22.4148C15.2826 22.6296 15.2752 22.6389 15.2173 22.6417C15.1267 22.651 15.1071 22.6352 14.9969 22.4699C14.9381 22.3859 14.8933 22.314 14.8933 22.314C14.8933 22.314 14.8503 22.3074 14.8018 22.3046L14.7112 22.2953L14.6692 22.3821L14.6262 22.4699L14.5515 22.4475C14.493 22.4282 14.4356 22.4054 14.3797 22.3793L14.2826 22.3308V22.1449L15.1463 22.1487L16.01 22.1515L16.0128 22.2393C16.0166 22.3429 16.0194 22.3401 15.8765 22.4213ZM17.5012 21.8368C17.47 21.95 17.4404 22.0636 17.4125 22.1776C17.377 22.1804 17.3444 22.1842 17.3089 22.1804H17.2052L17.0652 22.5222C16.9877 22.7071 16.9158 22.8789 16.9064 22.905L16.8868 22.9508L16.8187 22.8397L16.7505 22.7295V21.8303L16.7244 21.8368C16.6683 21.8499 16.2762 21.9022 16.1043 21.918C15.3939 21.9889 14.6775 21.9735 13.9707 21.8723C13.8996 21.8601 13.8279 21.8513 13.756 21.8461C13.7532 21.8499 13.756 22.0572 13.7625 22.314L13.7718 22.7752L13.7177 22.8593C13.6878 22.905 13.6589 22.9433 13.6589 22.947C13.6495 22.9564 13.6168 22.905 13.5421 22.7556C13.4618 22.5989 13.4007 22.433 13.3601 22.2617L13.3376 22.1683L13.2368 22.1748L13.136 22.1842L13.1098 22.0637C13.0956 21.9907 13.0837 21.9172 13.0743 21.8433L13.065 21.7397L12.981 21.665C12.9459 21.6337 12.9101 21.6032 12.8736 21.5735C12.8568 21.5604 12.8502 21.538 12.8502 21.5184V21.4792L13.2564 21.4829L13.6626 21.4857L13.6747 21.5277L13.6878 21.5707L13.8279 21.5772L14.3732 21.5931L14.7794 21.6024L14.883 21.4409L14.9904 21.2784H15.1267L15.1239 20.9404L15.1202 20.6024L14.9418 20.5249C14.3666 20.2718 14.0296 19.9833 13.9026 19.6322C13.8764 19.5603 13.8764 19.5342 13.8699 19.2102C13.8671 18.888 13.8671 18.8591 13.8895 18.7872C13.9114 18.7077 13.9538 18.6353 14.0125 18.5773C14.0712 18.5193 14.144 18.4777 14.2238 18.4566C14.2798 18.4398 14.4255 18.4398 15.1921 18.4398L16.0941 18.4436L16.1949 18.4921C16.2921 18.5321 16.3761 18.5984 16.4377 18.6835C16.5161 18.7872 16.5395 18.8684 16.5395 19.0664C16.5395 19.3493 16.5199 19.593 16.4909 19.6901C16.4479 19.8237 16.3843 19.9497 16.3023 20.0636C16.1398 20.2718 15.8448 20.4791 15.574 20.5734L15.4965 20.6024L15.5002 20.9441L15.503 21.285L15.5749 21.2915L15.6459 21.298L15.7439 21.4437L15.8373 21.5903H16.2734C16.5133 21.5903 16.7244 21.5931 16.744 21.5959C16.7766 21.6034 16.7832 21.5996 16.8149 21.5445L16.8541 21.4857H17.2276C17.5171 21.4857 17.6011 21.4895 17.6011 21.4988C17.5918 21.496 17.5489 21.6547 17.5003 21.8368H17.5012Z" fill="white"/>
<path d="M23.9696 18.1286C23.963 17.9778 23.9531 17.8271 23.9397 17.6767C23.7997 16.2023 23.4234 14.9978 22.709 13.7213C22.6823 13.6776 22.6586 13.632 22.6381 13.585C22.6315 13.5757 22.6287 13.5663 22.625 13.5598C22.7259 13.2573 23.1386 11.9939 23.4654 10.5494C23.9108 8.58852 24.1937 6.29523 23.33 5.60705C23.33 5.60705 21.836 5.49687 19.8359 7.45775C19.2934 7.99932 18.7966 8.58758 18.355 9.21413L18.2149 9.16931C17.4112 8.90614 16.5777 8.74459 15.7339 8.68843C15.4809 8.66975 14.5359 8.66975 14.2278 8.68843C13.2959 8.75006 12.5807 8.89012 11.7692 9.17211C11.7394 9.18392 11.7092 9.19482 11.6787 9.20479C11.2209 8.57967 10.7091 7.99601 10.1492 7.46055C8.06691 5.49033 6.51782 5.60425 6.51782 5.60425C5.60275 6.31484 5.91462 8.71177 6.3871 10.738C6.62173 11.7322 6.90152 12.7152 7.2256 13.684C7.21507 13.7083 7.20322 13.732 7.19012 13.755C6.43378 15.2882 6.02387 16.7654 5.92676 18.3369C6.77367 18.2136 9.10898 18.0735 10.8588 19.9569C10.8588 19.9569 12.0148 16.9045 15.1326 16.9045C18.2495 16.9045 18.9152 19.9579 18.9152 19.9579C19.6155 19.3758 20.4237 18.9375 21.2936 18.6684C22.1635 18.3992 23.0779 18.3043 23.9846 18.3892L23.9687 18.1286H23.9696ZM7.84001 12.4589C7.84001 12.4589 6.62614 9.42236 6.93708 7.68745C6.98937 7.39612 7.08648 7.13934 7.23961 6.94512C7.23961 6.94512 8.61596 7.08144 10.8373 9.54935C10.8373 9.54935 10.4153 9.75384 9.85038 10.189C9.85038 10.189 9.84664 10.1918 9.84384 10.1918C9.03444 10.8096 8.35372 11.5798 7.84001 12.4589ZM12.9943 16.9689C12.9738 17.0081 12.8767 17.0502 12.7665 17.066C12.6554 17.0828 12.3183 17.0726 12.1269 17.0502C11.4378 16.9587 10.7076 16.7476 10.1753 16.488C9.87652 16.3424 9.66176 16.1958 9.50302 16.037L9.41151 15.9427L9.40218 15.8195C9.38537 15.6047 9.3891 15.2676 9.41525 15.1472C9.43212 15.0468 9.46624 14.9502 9.51609 14.8615C9.5413 14.8288 9.5413 14.8288 9.65896 14.8288C9.80182 14.8288 9.92134 14.8512 10.1165 14.9128C10.5161 15.037 11.11 15.3358 11.8346 15.7709C12.4322 16.1276 12.6563 16.3032 12.8281 16.5431C12.9448 16.6925 13.0223 16.9036 12.9934 16.9689H12.9943ZM20.6436 15.8942C20.6343 15.9465 20.4821 16.1015 20.3289 16.2154C19.8807 16.5431 19.0786 16.8485 18.2635 16.9951C17.7994 17.0791 17.3353 17.0922 17.1953 17.024C17.1047 16.9783 17.0916 16.9428 17.1243 16.8261C17.1925 16.5833 17.4138 16.3162 17.7574 16.066C17.9329 15.939 18.6444 15.5076 18.975 15.3255C19.5203 15.0267 19.962 14.8493 20.2608 14.8064C20.3551 14.7933 20.469 14.7896 20.5045 14.8064C20.5633 14.8288 20.6277 15.0015 20.6539 15.2088C20.6669 15.319 20.6604 15.8064 20.6445 15.8942H20.6436ZM20.1048 10.189L20.0983 10.1852C19.8012 9.94226 19.4816 9.72809 19.144 9.54561C21.2907 7.07771 22.6175 6.94138 22.6175 6.94138C22.7641 7.13934 22.8584 7.39238 22.9107 7.68465C23.2123 9.41862 22.0405 12.458 22.0405 12.458C21.5486 11.5832 20.8911 10.8126 20.1048 10.189Z" fill="#FFA409"/>
<path d="M22.914 7.68516C22.6601 7.65341 21.4621 7.64688 20.1044 10.1895L20.0978 10.1857C19.8007 9.94278 19.4812 9.7286 19.1436 9.54612C21.2902 7.07822 22.6171 6.94189 22.6171 6.94189C22.7665 7.13985 22.8617 7.3929 22.9131 7.68516H22.914Z" fill="#FF9300"/>
<path d="M22.043 12.4592C21.551 11.5834 20.8925 10.8123 20.1045 10.1893C21.4622 7.64668 22.6574 7.65321 22.9132 7.68496C23.2157 9.42267 22.043 12.4592 22.043 12.4592ZM22.9618 7.6943L22.9132 7.68496L22.9618 7.6943Z" fill="#FF8300"/>
<path d="M10.8376 9.54612C10.8376 9.54612 10.4156 9.75155 9.85067 10.1857C9.85067 10.1857 9.84694 10.1895 9.84414 10.1895C8.43791 7.64314 7.19976 7.65341 6.93457 7.68516C6.98593 7.3929 7.08397 7.13705 7.23617 6.94189C7.23991 6.94189 8.61625 7.07822 10.8376 9.54706V9.54612Z" fill="#FF9300"/>
<path d="M9.84723 10.1893C9.03623 10.8069 8.35444 11.5778 7.84061 12.4583C7.84061 12.4583 6.62673 9.42267 6.93767 7.68496C7.20099 7.65321 8.44101 7.64668 9.84723 10.1893Z" fill="#FF8300"/>
<path d="M6.93706 7.68457L6.88477 7.69391L6.93612 7.68457H6.93706Z" fill="#FF8300"/>
<path d="M18.7578 14.1444C18.7578 14.1444 17.7186 14.2089 17.8483 13.3974C17.9791 12.5851 18.7905 12.488 19.0174 12.5197C19.2452 12.5524 20.1538 12.8773 19.9922 13.5599C19.8298 14.2416 19.6019 14.1108 19.4721 14.1444C19.3423 14.1762 18.7578 14.1444 18.7578 14.1444ZM11.0936 14.1444C11.0936 14.1444 10.0553 14.2089 10.1851 13.3974C10.3158 12.5851 11.1263 12.488 11.3541 12.5197C11.581 12.5524 12.4905 12.8773 12.328 13.5599C12.1655 14.2416 11.9386 14.1108 11.8088 14.1444C11.6781 14.1762 11.0945 14.1444 11.0945 14.1444H11.0936Z" fill="white"/>
</g>
</svg>
