<svg width="33" height="33" viewBox="0 0 33 33" fill="none" xmlns="http://www.w3.org/2000/svg">
<g filter="url(#filter0_b_524_5327)">
<path d="M21.3041 6.2645C21.3041 6.2645 21.802 6.51715 22.1916 6.60217C22.2227 6.60866 22.2549 6.60657 22.2849 6.5961C22.3148 6.58563 22.3413 6.5672 22.3614 6.5428C22.4482 6.44022 22.5693 6.2645 22.4458 6.20133C22.4284 6.19231 22.4099 6.18233 22.3904 6.17178C22.2105 6.07449 21.9406 5.92852 21.5349 6.04033C21.0852 6.16429 21.2345 6.24265 21.3041 6.2645Z" fill="#04CA73"/>
<path d="M18.6062 6.60598C18.6062 6.60598 18.6448 6.48582 18.7406 6.48582C18.7685 6.48582 18.8103 6.48142 18.8576 6.47646C18.9733 6.4643 19.1216 6.44873 19.1761 6.48582C19.2528 6.53806 19.219 6.69954 19.1284 6.70001C19.0378 6.70049 18.5675 6.67531 18.6062 6.60598Z" fill="#04CA73"/>
<path d="M7.00559 12.8569C6.95837 13.1703 7.22592 13.1551 7.22592 13.1551C7.27666 13.1621 7.32876 13.1018 7.39207 13.0285C7.42814 12.9867 7.46785 12.9407 7.51301 12.9006C7.60932 12.815 7.63482 12.7296 7.68385 12.5656C7.69818 12.5176 7.71453 12.4629 7.73525 12.3995C7.82682 12.1193 8.18688 12.0476 8.24554 12.0476C8.3042 12.0476 8.21883 12.286 7.97704 12.562C7.909 12.6396 7.8334 12.7133 7.75741 12.7874C7.56335 12.9766 7.36667 13.1683 7.28648 13.4349C7.17489 13.8058 7.3647 13.9815 7.50872 13.9359C7.57543 13.9148 7.60807 13.8397 7.65265 13.7371C7.70432 13.6182 7.77204 13.4624 7.92744 13.3109C8.08026 13.162 8.16144 13.0215 8.23385 12.8963C8.29861 12.7842 8.35635 12.6843 8.45204 12.6014C8.60938 12.4539 8.75303 12.2925 8.88126 12.1193C9.42624 10.9644 11.1726 9.51349 11.6828 9.0896C11.7481 9.03535 11.7931 8.99792 11.8128 8.98009C11.8774 8.9216 11.9681 8.8654 12.0566 8.81061C12.2059 8.71814 12.3488 8.62965 12.3488 8.54079C12.3488 8.39926 12.2706 8.3209 12.1438 8.33657C12.0169 8.35224 11.0087 9.02711 10.2524 9.63928C9.49599 10.2515 8.75488 11.4145 8.63422 11.6653C8.51356 11.9161 8.47112 11.7456 8.47112 11.5081C8.47112 11.3617 8.51318 11.2759 8.5565 11.1876C8.58344 11.1327 8.61087 11.0768 8.62897 11.0047C8.67619 10.8166 8.39243 10.9581 8.31374 11.0679C8.2897 11.1014 8.24359 11.1407 8.19114 11.1855C8.07188 11.2873 7.91981 11.4171 7.91981 11.5698C7.91981 11.7897 7.80965 11.8999 7.60458 12.041C7.39951 12.182 7.0528 12.5434 7.00559 12.8569Z" fill="#04CA73"/>
<path d="M12.5233 8.16036C12.4987 8.17263 12.4772 8.19043 12.4607 8.21235C12.4441 8.23427 12.4329 8.25972 12.4279 8.28669C12.4246 8.30357 12.4248 8.32094 12.4284 8.33775C12.432 8.35456 12.439 8.37048 12.4489 8.38453C12.51 8.46859 12.6697 8.40305 12.7727 8.30949C12.8758 8.21593 13.5148 7.82792 13.5148 7.82792C13.5148 7.82792 12.8104 8.01361 12.5233 8.16036Z" fill="#04CA73"/>
<path d="M7.66335 14.4052C7.81072 14.5581 7.9061 14.4052 7.9061 14.4052C8.09773 14.2646 8.33662 13.8796 8.48841 13.6349C8.5372 13.5563 8.577 13.4922 8.60333 13.4553C8.71159 13.3038 9.33538 12.4418 9.5333 12.1996C9.57817 12.1447 9.60417 12.0949 9.63549 12.0348C9.74229 11.8301 9.91098 11.5066 11.1014 10.4586C12.6408 9.10312 14.372 7.69545 16.4985 7.62374C18.625 7.55202 21.0768 9.07795 21.0768 9.07795C21.1115 9.06375 21.1429 9.04273 21.1692 9.01615C21.1955 8.98957 21.2162 8.95797 21.2299 8.92325C21.2437 8.88853 21.2503 8.85139 21.2493 8.81408C21.2483 8.77676 21.2397 8.74003 21.2242 8.70609C18.8296 7.2172 16.8719 7.06665 15.9181 7.25235C14.9643 7.43804 14.0625 7.92959 13.4077 8.3005C12.7758 8.65842 11.5547 9.63191 10.8156 10.2212L10.737 10.2838C10.0088 10.8641 9.24811 11.8007 9.06164 12.1056C8.87517 12.4105 8.18222 13.5023 7.94663 13.7198C7.71104 13.9374 7.51599 14.2522 7.66335 14.4052Z" fill="#04CA73"/>
<path d="M21.835 7.46461C19.2111 6.45493 17.5243 6.69714 17.0345 6.80637C17.0195 6.80981 17.0059 6.818 16.996 6.8297C16.986 6.84141 16.9801 6.85601 16.9791 6.87133C16.9782 6.88665 16.9822 6.90187 16.9906 6.91473C16.999 6.92758 17.0114 6.93739 17.0259 6.94267C17.1643 6.98537 17.3072 7.0123 17.4518 7.02293C17.6753 7.04544 17.8904 7.0772 18.0924 7.10702C18.4019 7.15271 18.6805 7.19384 18.9111 7.19011C19.2921 7.18393 20.2374 7.29269 20.8082 7.50546C21.3791 7.71822 21.619 7.80988 21.619 7.80988C21.619 7.80988 21.7401 7.82128 21.8326 7.68355C21.9251 7.54582 21.835 7.46461 21.835 7.46461Z" fill="#04CA73"/>
<path d="M21.3333 8.41778C21.6619 8.39498 21.5636 8.04449 21.5636 8.04449C21.5636 8.04449 20.3184 7.552 19.655 7.37295C18.9917 7.1939 18.6383 7.5102 19.1529 7.57384C19.4104 7.60569 19.874 7.82274 20.314 8.02879C20.7533 8.23446 21.1691 8.42917 21.3333 8.41778Z" fill="#04CA73"/>
<path d="M19.7661 6.39036C19.7519 6.3956 19.7396 6.40495 19.7308 6.4172C19.722 6.42946 19.717 6.44406 19.7166 6.45913C19.7162 6.4742 19.7204 6.48905 19.7285 6.50176C19.7366 6.51447 19.7484 6.52447 19.7623 6.53047C19.912 6.59458 20.1529 6.68482 20.347 6.70001C20.6527 6.72376 21.4811 6.98497 21.8759 7.18966C22.1287 7.31884 22.2575 6.86196 22.0944 6.80402C22.0067 6.77324 21.88 6.72597 21.7389 6.67334C21.4032 6.54816 20.9861 6.39261 20.8196 6.35617C20.6202 6.31248 20.079 6.28113 19.7661 6.39036Z" fill="#04CA73"/>
<path d="M20.4736 9.45416C19.7637 9.04228 18.0293 8.03585 15.2238 8.41826C14.978 8.45313 14.7679 8.62084 14.6097 8.74715C14.5395 8.80319 14.4795 8.85109 14.4312 8.87561C14.1133 9.03206 13.807 9.21076 13.5146 9.41037C12.9238 9.82856 12.3763 10.3042 11.8802 10.8304C11.3823 11.369 10.7666 12.5092 10.6193 12.7899C10.4719 13.0706 9.92202 13.698 9.76083 13.8585C9.59964 14.019 9.22527 14.8463 8.96917 15.4352C8.71307 16.0241 8.39068 15.9425 8.44457 15.5017C8.49846 15.061 9.39695 13.8172 9.61156 13.565C9.82617 13.3128 10.955 11.681 11.0084 11.5447C11.0618 11.4084 10.9006 11.3737 10.7533 11.5447C10.687 11.6216 10.5065 11.887 10.3081 12.1787C10.0656 12.5352 9.79633 12.9311 9.67594 13.0706C9.45704 13.3242 8.48702 14.91 8.48702 14.91C8.48702 14.91 8.35348 15.2652 8.14841 15.1498C7.94334 15.0344 8.0063 14.7689 8.24666 14.4711C8.34964 14.3436 8.74711 13.7704 9.17836 13.1486C9.75364 12.319 10.3891 11.4027 10.4657 11.3419C10.5127 11.3046 10.5994 11.2681 10.7059 11.2232C10.903 11.1402 11.168 11.0286 11.3752 10.8304C11.4882 10.7222 11.6023 10.5878 11.7205 10.4487C11.9359 10.1951 12.1647 9.92572 12.4243 9.77084C12.5093 9.72013 12.6242 9.621 12.7716 9.49383C13.3211 9.01957 14.3224 8.15545 15.9105 7.95996C17.9245 7.71205 20.0906 8.59018 20.9819 9.32679C20.9819 9.32679 21.0439 9.57517 20.8212 9.61981C20.775 9.62908 20.6594 9.56199 20.4736 9.45416Z" fill="#04CA73"/>
<path d="M11.3482 11.9674C11.3482 11.9674 12.1966 10.6851 13.1127 10.0601C13.4636 9.82068 13.7556 9.61013 13.9984 9.43504C14.3895 9.15303 14.653 8.96304 14.8296 8.89272C14.8461 8.88614 14.8649 8.8783 14.886 8.86947L14.8864 8.86932C15.2327 8.72481 16.216 8.3145 18.2986 8.78823C20.5095 9.29118 20.7761 10.0126 20.6717 10.1551C20.5808 10.279 20.31 10.1297 19.9069 9.90733C19.8468 9.87416 19.7837 9.83937 19.7178 9.80362C19.2104 9.52816 18.259 9.11071 17.4964 9.1297C16.7338 9.1487 15.2187 9.67064 15.1238 9.76562C15.0289 9.86061 15.0189 9.59513 15.2759 9.53814C15.4124 9.50789 15.5249 9.43485 15.6246 9.37012C15.7128 9.31286 15.791 9.2621 15.8668 9.25318C16.0285 9.23419 16.277 9.1772 16.277 9.04469C16.277 8.91219 15.7338 8.93071 15.4572 9.04469C15.2408 9.13384 14.5407 9.51296 14.1504 9.72435C14.0417 9.78322 13.957 9.82909 13.9134 9.85206C13.8704 9.87474 13.8248 9.89646 13.7791 9.91818C13.6125 9.9974 13.4458 10.0767 13.4084 10.203C13.3607 10.364 13.0364 10.7478 12.8747 10.8314C12.7131 10.9149 11.8928 11.5604 11.8074 11.7123C11.7221 11.8643 11.6057 11.983 11.3482 11.9674Z" fill="#04CA73"/>
<path d="M13.6011 10.7615C13.1433 11.1054 13.0355 10.9463 13.0355 10.9463C13.0448 10.8408 13.4918 10.5611 13.7745 10.3842C13.8839 10.3157 13.9688 10.2626 13.9941 10.241C14.0847 10.1636 14.1973 10.3403 14.1581 10.3403C14.1377 10.3403 14.1115 10.3614 14.0257 10.4308C13.9474 10.4941 13.8195 10.5975 13.6011 10.7615Z" fill="#04CA73"/>
<path d="M14.3074 10.6632C14.3074 10.6632 14.1796 10.6257 14.4295 10.45C14.6794 10.2743 16.3323 9.28122 17.5246 9.34391C18.7169 9.4066 20.0999 10.1104 20.3383 10.318C20.5768 10.5255 20.408 10.9396 20.3383 10.9145C20.3277 10.9106 20.2837 10.881 20.2133 10.8336C19.8245 10.5718 18.6287 9.76653 17.7583 9.73999C16.7301 9.70865 15.6952 10.0981 15.2598 10.3683L15.2007 10.405C14.8102 10.6481 14.6607 10.7411 14.3074 10.6632Z" fill="#04CA73"/>
<path d="M15.6128 10.5807C15.6216 10.5899 15.6329 10.5963 15.6453 10.5991C16.0715 10.7011 16.3478 10.6228 16.6615 10.5339C16.9643 10.4481 17.3018 10.3525 17.8424 10.3996C18.6919 10.4733 19.3017 11.0767 19.6498 11.4212C19.7752 11.5453 19.8667 11.6358 19.9232 11.6558C20.1363 11.7313 20.1931 11.3537 20.1616 11.1908C20.1301 11.028 19.5245 10.3241 18.0423 10.0102C16.8438 9.75611 15.9296 10.2738 15.6234 10.4818C15.6129 10.4889 15.6046 10.4989 15.5997 10.5106C15.5948 10.5223 15.5934 10.5351 15.5958 10.5476C15.5981 10.5601 15.604 10.5716 15.6128 10.5807Z" fill="#04CA73"/>
<path d="M17.165 10.8646L17.0358 10.8223C17.0322 10.8211 17.0291 10.8188 17.0268 10.8158C17.0246 10.8127 17.0234 10.809 17.0234 10.8052C17.0234 10.8015 17.0246 10.7978 17.0268 10.7947C17.0291 10.7916 17.0322 10.7893 17.0358 10.7881C17.2265 10.7406 17.8494 10.62 18.4131 10.8356C18.911 11.0256 19.313 11.3875 19.4894 11.5646C19.4949 11.5704 19.4982 11.5777 19.499 11.5856C19.4998 11.5934 19.4979 11.6013 19.4937 11.608C19.4895 11.6146 19.4832 11.6197 19.4758 11.6225C19.4684 11.6252 19.4603 11.6254 19.4527 11.623L17.165 10.8646Z" fill="#04CA73"/>
<path d="M8.95464 16.4663C9.13444 16.6226 9.20263 16.4188 9.20263 16.4188C9.39513 16.0925 9.4554 15.881 9.51485 15.6724C9.58 15.4438 9.64417 15.2187 9.88032 14.8497C10.3319 14.1439 10.2204 13.6928 10.2142 13.8115C10.208 13.9302 9.76729 14.4583 9.64329 14.5818C9.5193 14.7053 9.02284 15.7373 8.95464 15.904L8.94424 15.9293C8.87612 16.0942 8.78375 16.3178 8.95464 16.4663Z" fill="#04CA73"/>
<path d="M9.59365 17.1046C9.59365 17.1046 9.52545 17.2471 9.40765 17.1046C9.28986 16.9621 9.40098 16.6297 9.54405 16.2891C9.61084 16.1302 9.68959 15.8799 9.76409 15.6431C9.84916 15.3728 9.92868 15.12 9.97851 15.041C10.072 14.8929 10.0839 15.2263 10.0839 15.326C10.0839 15.3354 10.0842 15.3487 10.0845 15.3654C10.0879 15.5264 10.0978 16.0051 9.93463 16.4136C9.84319 16.6541 9.72901 16.8855 9.59365 17.1046Z" fill="#04CA73"/>
<path d="M9.86657 17.7287C10.0282 17.9941 10.1646 17.7719 10.1646 17.7719C10.2576 17.6607 10.2886 17.4162 10.2886 17.3407C10.2886 17.3025 10.2649 17.235 10.2375 17.1568C10.2105 17.08 10.18 16.9929 10.1646 16.9132C10.1336 16.7522 10.0778 16.6287 10.0406 16.6781C10.0208 16.7045 9.98618 16.8075 9.95095 16.9124C9.92012 17.0042 9.88882 17.0973 9.86657 17.1417C9.81238 17.23 9.78371 17.3316 9.78371 17.4352C9.78371 17.5387 9.81238 17.6403 9.86657 17.7287Z" fill="#04CA73"/>
<path d="M10.4745 18.0374C10.4745 18.0374 10.4269 17.8844 10.3877 17.8588C10.3486 17.8332 10.2409 17.9818 10.2308 18.0929C10.2253 18.1545 10.2583 18.1935 10.2915 18.2328C10.3183 18.2645 10.3452 18.2963 10.3525 18.3404C10.3687 18.4392 10.4478 18.3157 10.4745 18.2107C10.4901 18.154 10.4901 18.0941 10.4745 18.0374Z" fill="#04CA73"/>
<path d="M11.5938 13.0948C10.9543 13.8348 10.8227 14.7618 10.8227 14.7618C10.8227 14.7618 10.9319 14.9309 10.9863 14.6312C11.0406 14.3315 11.445 13.8917 11.5109 13.8822L11.5124 13.882C11.531 13.8793 11.5433 13.8776 11.5473 13.8825C11.5551 13.8921 11.5313 13.9274 11.4607 14.032C11.4428 14.0585 11.4219 14.0894 11.3978 14.1254C11.2285 14.3785 10.6367 15.8954 10.6176 16.2982C10.5985 16.7009 10.7211 16.7104 10.7774 16.7104C10.8337 16.7104 11.4078 15.4086 11.4169 15.2305C11.4235 15.1009 11.6291 14.6435 11.7772 14.3141C11.8325 14.1912 11.8798 14.086 11.9057 14.0223C11.9908 13.8136 11.9465 13.7619 11.916 13.7262C11.9123 13.7219 11.9088 13.7178 11.9057 13.7136C11.8935 13.6971 11.8545 13.6984 11.8139 13.6997C11.7612 13.7014 11.706 13.7032 11.7035 13.6662C11.7014 13.633 11.8038 13.5156 11.9116 13.392C12.0166 13.2716 12.1268 13.1453 12.1504 13.0853C12.1696 13.0363 12.2361 12.94 12.3109 12.8314C12.4217 12.6707 12.551 12.4833 12.5729 12.3829C12.6096 12.2148 12.5252 12.2333 12.5252 12.2333C12.5252 12.2333 12.2334 12.3549 11.5938 13.0948Z" fill="#04CA73"/>
<path d="M12.3488 14.6682C12.3488 14.6682 12.1957 15.0301 11.8762 15.0035C11.6569 14.9853 11.8149 14.6092 11.9603 14.2632C12.0268 14.1049 12.0907 13.9529 12.1146 13.8442C12.1909 13.498 12.7823 12.2148 12.9034 12.1022C13.0246 11.9897 13.3551 11.8648 13.4023 11.9693C13.4292 12.0288 13.3672 12.1064 13.288 12.2054C13.2284 12.28 13.159 12.3669 13.1104 12.4674C13.0855 12.5191 13.0479 12.5926 13.004 12.6783C12.8488 12.9812 12.6156 13.4366 12.5892 13.6191C12.5553 13.8533 12.3488 14.6682 12.3488 14.6682Z" fill="#04CA73"/>
<path d="M12.0578 15.3507C12.0585 15.3793 12.0533 15.4078 12.0423 15.4343C12.1407 15.3315 12.232 15.2222 12.3156 15.1071C12.5173 14.8459 12.5774 14.5115 12.5807 14.2836C12.5841 14.0556 12.793 13.6605 12.793 13.6605C13.4575 12.1335 13.809 11.8135 13.9362 11.6978C13.9501 11.6851 13.9613 11.6749 13.97 11.6658C14.0577 11.5736 14.5361 11.5038 14.6696 11.5171C14.7596 11.5261 14.7216 11.6231 14.6625 11.7736C14.634 11.8464 14.6005 11.9318 14.5742 12.0258C14.4936 12.3141 14.3458 12.7348 14.2785 12.816C14.2113 12.8973 13.9332 13.2891 13.9151 13.4672C13.8998 13.6182 13.7993 14.0997 13.7115 14.5203L13.7114 14.5211C13.6957 14.5961 13.6805 14.6691 13.6662 14.7381C13.5718 15.1935 13.5989 15.8228 13.6256 15.8541C13.6524 15.8855 14.0372 16.926 14.1231 17.2494C14.2089 17.5729 14.8408 18.7901 15.0292 18.9976C15.2176 19.2052 15.2176 19.3192 15.0292 19.4464C14.8408 19.5737 14.7268 19.5068 14.7268 19.5068C14.1 18.8092 13.7938 17.6501 13.6608 17.1465C13.6111 16.9585 13.5856 16.8618 13.5765 16.9146C13.5431 17.1089 13.7368 17.9799 13.8455 18.3346C13.9475 18.6676 14.3755 19.4547 14.4546 19.6002L14.4655 19.6203C14.4979 19.6806 14.3071 19.975 14.0687 19.8748C13.8302 19.7746 13.4273 18.6695 13.3533 18.3413C13.2794 18.0131 13.0562 16.359 13.1516 15.3745C13.2062 14.7571 13.3327 14.1481 13.5284 13.5598C13.5596 13.4614 13.6707 13.2616 13.779 13.0669C13.8773 12.8901 13.9733 12.7175 14.0053 12.6285C14.0257 12.5716 14.0555 12.4936 14.087 12.411C14.1591 12.222 14.2404 12.0089 14.2404 11.9693C14.2404 11.9123 14.1822 11.9056 14.1264 11.9298C14.0939 11.944 13.9851 12.147 13.8799 12.3432C13.8046 12.4836 13.7313 12.6205 13.6891 12.6821C13.6076 12.8012 13.3339 13.3987 13.1817 13.7311L13.1813 13.7319C13.1448 13.8115 13.1154 13.8757 13.0972 13.9145C13.0033 14.1154 12.8278 16.0104 12.9289 17.1222C13.03 18.234 13.5598 19.5671 13.6552 19.7342C13.7169 19.8327 13.7499 19.9463 13.7506 20.0624C13.7506 20.1094 13.3872 20.3303 13.2999 20.317C13.2126 20.3037 13.1654 19.7941 13.1521 19.6269C13.1387 19.4597 12.7014 17.8122 12.6275 17.9595C12.5536 18.1067 12.7753 19.1852 12.8359 19.3928C12.8486 19.4364 12.8757 19.5032 12.9079 19.583C13.0292 19.8827 13.2247 20.3659 13.0176 20.4979C12.7553 20.6651 12.6957 20.421 12.6957 20.421C12.3551 19.6559 12.2235 18.8148 12.3142 17.9827C12.3142 17.883 12.3742 17.2034 12.3943 17.0034C12.4143 16.8035 12.4544 16.1339 12.3943 16.1339C12.3513 16.1339 12.3339 16.1902 12.2993 16.3028C12.2855 16.3476 12.2689 16.4014 12.2469 16.4639C12.1697 16.6838 12.1134 17.7429 12.1334 17.9927C12.1534 18.2425 12.1735 19.1525 12.1334 19.332C12.1047 19.4607 11.9936 19.7232 11.907 19.9278C11.8728 20.0086 11.8424 20.0804 11.8225 20.1313C11.7659 20.2756 11.7678 20.5095 11.7691 20.6637C11.7694 20.7019 11.7697 20.7352 11.7691 20.761C11.7632 20.8646 11.7361 20.966 11.6895 21.0588C11.6428 21.1515 11.5775 21.2338 11.4977 21.3005C11.2998 21.4606 10.9659 21.5005 10.9659 21.4606C10.9659 21.4418 11.0369 21.3016 11.1184 21.1405C11.2103 20.9588 11.3156 20.7507 11.3475 20.6608C11.374 20.586 11.4455 20.4583 11.5171 20.3306C11.6077 20.1689 11.6985 20.007 11.6985 19.9513C11.6985 19.8516 11.749 19.0523 11.7791 18.8922C11.8091 18.7322 11.8196 17.9229 11.7657 17.9129C11.7118 17.9029 11.5082 18.6424 11.4552 18.8922C11.4023 19.142 11.3074 18.792 11.2769 18.6524C11.2469 18.4736 11.2574 18.2904 11.3074 18.1162C11.3305 18.0517 11.3488 17.9248 11.3679 17.7929C11.392 17.6255 11.4174 17.4498 11.4552 17.3829C11.476 17.3462 11.5174 17.3 11.5658 17.2459C11.6754 17.1236 11.8214 16.9606 11.8492 16.7736C11.8892 16.5038 11.8892 15.8541 11.8892 15.8541C11.8892 15.8541 11.4772 16.274 11.5177 16.5375C11.5583 16.8011 11.5058 17.0134 11.3875 17.1678C11.2693 17.3221 11.1491 17.543 11.1491 17.713C11.1491 17.883 11.0685 18.0032 10.9984 17.9329C10.9283 17.8626 10.8582 17.4332 10.8582 17.2134C10.8582 16.9935 11.4996 15.4547 11.5978 15.297C11.6091 15.279 11.6191 15.2622 11.6283 15.2468C11.6998 15.1266 11.7249 15.0844 11.9116 15.1593C11.9392 15.1677 11.9646 15.1817 11.9864 15.2004C12.0081 15.2191 12.0257 15.2422 12.038 15.268C12.0503 15.2939 12.0571 15.3221 12.0578 15.3507Z" fill="#04CA73"/>
<path d="M12.2164 19.9142C12.191 19.91 12.1649 19.9108 12.1398 19.9167C12.1147 19.9225 12.091 19.9332 12.0701 19.9481C12.0491 19.9631 12.0313 19.982 12.0177 20.0038C12.0041 20.0256 11.995 20.0499 11.9908 20.0752C11.9649 20.2041 11.9663 20.3921 11.9673 20.5327C11.9677 20.5993 11.9681 20.6553 11.9655 20.6893C11.9618 20.7374 11.932 20.8212 11.904 20.9C11.8703 20.9947 11.8391 21.0822 11.8592 21.0916C11.8959 21.1087 12.1453 21.0493 12.2674 20.9054C12.3895 20.7615 12.4968 20.5663 12.4925 20.3759C12.4882 20.1854 12.4248 19.9142 12.2164 19.9142Z" fill="#04CA73"/>
<path d="M15.491 11.5409C15.5387 11.5832 15.3747 11.7831 15.3747 11.7831C15.3747 11.7831 15.0046 12.5729 14.9149 12.7311C14.8253 12.8892 14.2806 14.0105 14.4023 14.4712C14.5083 14.8728 14.4657 15.2889 14.4318 15.6194C14.4269 15.6679 14.4221 15.7146 14.418 15.7592C14.386 16.1068 14.851 17.1649 14.9397 17.3126C15.0284 17.4603 15.7085 18.6766 15.7085 18.6766L15.9832 18.9929C15.9832 18.9929 15.6255 19.3985 15.2678 18.9929C14.9102 18.5873 14.0884 16.6758 13.9563 15.7435C13.8242 14.8112 13.9411 14.1425 13.9831 13.9431C14.0027 13.8498 14.1182 13.5971 14.2444 13.3212C14.3881 13.007 14.5457 12.6626 14.5911 12.4889C14.6765 12.1626 15.0208 11.578 15.1157 11.4673C15.2106 11.3566 15.4433 11.4986 15.491 11.5409Z" fill="#04CA73"/>
<path d="M15.0738 14.1814C15.0833 14.0066 15.1153 13.8338 15.1691 13.6671C15.2497 13.4496 15.3361 13.0872 15.1691 13.0074C15.0022 12.9276 14.7185 12.9856 14.7185 13.5944C14.7185 13.7846 14.7045 13.984 14.6897 14.196C14.657 14.6624 14.6201 15.1896 14.7185 15.8123C14.8615 16.718 15.5554 18.3365 16.4654 19.1729C17.0061 19.6699 17.1714 19.7691 17.3113 19.8529C17.4067 19.9102 17.4903 19.9603 17.6734 20.1251C18.1245 20.5312 20.4008 20.9591 21.0346 20.8788C21.6684 20.7985 21.8353 20.5022 21.8644 20.3934C21.8935 20.2847 21.8062 20.1033 21.719 20.183L21.7186 20.1834C21.6303 20.2641 21.1564 20.6974 19.623 20.3569C18.0873 20.0159 17.6719 19.6397 17.5847 19.5599C17.5412 19.5202 17.3043 19.2826 17.065 19.0424L17.0648 19.0422L17.064 19.0414L17.0638 19.0412C16.8231 18.7997 16.5802 18.556 16.5293 18.5089C16.4277 18.4149 15.4324 17.0666 15.4324 16.8781C15.4324 16.8321 15.5088 16.9421 15.6493 17.1444C16.0859 17.7727 17.1412 19.2916 18.4455 19.7917C20.1695 20.4528 20.7966 20.3355 21.1314 20.2267L21.1822 20.2103C21.499 20.1076 21.7991 20.0105 21.7991 19.9005C21.7991 19.7846 21.7919 19.5523 21.6751 19.5523C21.6333 19.5523 21.5256 19.6005 21.3902 19.6611C21.1467 19.77 20.8136 19.9191 20.6125 19.9005C20.4808 19.8883 20.3259 19.8465 20.1597 19.8018C19.931 19.7402 19.681 19.6728 19.4408 19.6687C19.0259 19.6616 18.145 19.1544 17.9342 18.9511C17.903 18.921 17.8509 18.8823 17.7811 18.8305C17.3794 18.5326 16.3924 17.8006 15.4376 15.7691C15.4376 15.7691 15.0251 14.5381 15.0738 14.1814Z" fill="#04CA73"/>
<path d="M17.5465 20.2576C17.6361 20.2415 18.093 20.5502 18.093 20.5502C18.093 20.5502 18.2652 20.7895 19.9377 20.9828C21.3223 21.1428 21.6329 20.8752 21.7453 20.7783C21.7687 20.7581 21.7835 20.7454 21.7976 20.7454C21.8796 20.7454 21.9111 21.0465 21.8692 21.1519C21.8272 21.2573 21.4066 21.4041 21.1538 21.4283C20.9986 21.4432 20.874 21.4366 20.5951 21.4218C20.4197 21.4125 20.1833 21.3999 19.8399 21.3875C19.249 21.3575 18.6708 21.2053 18.1421 20.9406C18.1027 20.9186 18.002 20.9275 17.8995 20.9365C17.8111 20.9443 17.7214 20.9522 17.6686 20.9406C17.5546 20.9154 17.4893 20.7458 17.4811 20.5829L17.4799 20.5596L17.479 20.5425C17.4711 20.3965 17.4643 20.2724 17.5465 20.2576Z" fill="#04CA73"/>
<path d="M18.3135 21.225C18.3135 21.225 17.9797 20.9809 17.8729 21.0788C17.766 21.1766 17.7508 21.4687 18.0932 21.5499C18.2494 21.5869 18.4942 21.6511 18.7305 21.713C19.012 21.7868 19.2815 21.8574 19.3746 21.8752C19.5458 21.908 20.0361 21.9892 20.4114 21.9892C20.6398 21.9892 20.8651 21.9259 21.0416 21.8763C21.1552 21.8444 21.2486 21.8182 21.3094 21.8182C21.4649 21.8182 21.9213 21.8182 21.9461 21.7232C21.9651 21.6506 21.9272 21.518 21.9042 21.4377C21.8971 21.4131 21.8915 21.3933 21.8894 21.3818C21.8803 21.3328 21.7501 21.349 21.66 21.3979C21.5698 21.4468 21.0319 21.6173 20.7868 21.6354C20.5416 21.6534 19.8725 21.6696 19.285 21.5266C18.9549 21.4472 18.6304 21.3465 18.3135 21.225Z" fill="#04CA73"/>
<path d="M18.967 22.3549C20.9094 22.6555 21.6114 22.1758 21.6114 22.1758C21.6114 22.1758 21.8074 22.1027 21.693 21.9483C21.6033 21.8274 21.3935 21.9161 21.1969 21.9993C21.1427 22.0222 21.0895 22.0447 21.0401 22.0623C20.8116 22.1435 20.2808 22.1658 19.8783 22.1516C19.4758 22.1373 18.0122 21.6553 17.8977 21.6149C17.8219 21.5882 17.7247 21.4791 17.6535 21.3991C17.6172 21.3584 17.5876 21.3252 17.5711 21.3143C17.5219 21.282 17.0245 22.0542 18.967 22.3549Z" fill="#04CA73"/>
<path d="M17.8056 22.2005C17.8056 22.2005 17.6282 22.0785 17.6282 22.2005C17.6282 22.3226 17.7236 22.5173 17.9143 22.6066C18.0653 22.6861 18.2333 22.728 18.4041 22.7286C18.6118 22.7469 18.814 22.8047 18.9998 22.8991C19.1629 22.9808 19.7428 23.2083 20.7548 23.0212C21.7668 22.8341 22.0114 22.5985 22.0605 22.5254C22.1097 22.4522 22.0849 22.3221 22.0605 22.2167C22.0362 22.1112 21.9652 22.0595 21.8698 22.1459C21.7744 22.2323 21.1864 22.7528 19.7499 22.6636C18.3135 22.5743 17.8056 22.2005 17.8056 22.2005Z" fill="#04CA73"/>
<path d="M18.3462 22.8911C18.6724 22.8099 18.795 22.9808 18.795 22.9808C18.795 22.9808 18.8522 23.2582 19.858 23.3475C20.6326 23.4162 21.4088 23.0662 21.7993 22.8901C21.9159 22.8375 21.9981 22.8004 22.0356 22.7947C22.1987 22.7695 22.2716 22.9077 22.088 23.1271C21.9044 23.3465 21.3336 23.5089 21.056 23.574C20.8687 23.6179 20.4399 23.6508 20.092 23.6774C19.9243 23.6903 19.7754 23.7017 19.6816 23.7122C19.393 23.7445 19.3177 23.7122 19.2523 23.6552C19.2391 23.6436 19.1802 23.6085 19.0975 23.5592C18.774 23.3661 18.0864 22.9558 18.3462 22.8911Z" fill="#04CA73"/>
<path d="M20.1915 23.868C20.1915 23.868 19.7031 23.8742 19.7217 23.9772C19.7403 24.0803 19.9716 24.2816 20.1915 24.2389C20.229 24.2316 20.2959 24.2197 20.3824 24.2044L20.3833 24.2042L20.3846 24.204L20.3864 24.2036L20.3873 24.2035C20.809 24.1286 21.6825 23.9735 21.8892 23.868C21.9543 23.8348 22.0165 23.8077 22.0728 23.7832L22.073 23.7831C22.2333 23.7134 22.3466 23.6641 22.3466 23.5517C22.3466 23.3997 22.3022 23.2192 22.1964 23.2582C22.1802 23.2641 22.1419 23.2845 22.0855 23.3146C21.7716 23.4816 20.9003 23.9453 20.1915 23.868Z" fill="#04CA73"/>
<path d="M20.6394 24.5367C20.6394 24.4759 21.1745 24.3058 21.1745 24.3058C21.3034 24.2962 21.7902 24.0453 22.0356 23.9188L22.0359 23.9187C22.1043 23.8834 22.154 23.8578 22.1717 23.8499C22.2081 23.8332 22.2477 23.8245 22.2878 23.8245C22.3279 23.8245 22.3675 23.8332 22.4039 23.8499C22.4464 23.8803 22.5012 24.1168 22.4831 24.2446C22.4694 24.3415 22.1958 24.407 21.9764 24.4595C21.9066 24.4762 21.8422 24.4916 21.7935 24.5063C21.7067 24.5324 21.5872 24.5924 21.4652 24.6538C21.3035 24.735 21.1372 24.8185 21.0362 24.8287C20.8588 24.8468 20.6394 24.5975 20.6394 24.5367Z" fill="#04CA73"/>
<path d="M21.6887 25.1327C21.6302 25.163 21.5652 25.1788 21.4993 25.1788C21.4334 25.1788 21.3685 25.163 21.31 25.1327C21.1025 25.0292 21.1755 24.9157 21.3577 24.8297C21.4805 24.7718 21.665 24.6974 21.8116 24.6384C21.8824 24.6099 21.9444 24.5849 21.9862 24.5671C22.1145 24.5125 22.4393 24.3909 22.4846 24.4393C22.5299 24.4878 22.6029 24.616 22.591 24.6583C22.579 24.7005 21.6887 25.1327 21.6887 25.1327Z" fill="#04CA73"/>
<path d="M21.657 25.4001C21.657 25.449 21.9803 25.619 21.9803 25.619C22.1086 25.6432 22.8216 25.4608 22.8216 25.2937C22.8216 25.1265 22.6508 24.9684 22.6508 24.9684C22.6508 24.9684 21.9865 25.2357 21.8878 25.2357C21.7891 25.2357 21.657 25.3511 21.657 25.4001Z" fill="#04CA73"/>
<path d="M22.8231 25.9837C22.8231 25.9837 22.6461 26.0203 22.5422 25.9837C22.4859 25.964 22.4244 25.914 22.373 25.8724C22.3294 25.837 22.2932 25.8076 22.2737 25.8076C22.2312 25.8076 22.3724 25.7164 22.4849 25.7126C22.562 25.71 22.6721 25.6759 22.7553 25.6502C22.7936 25.6383 22.8262 25.6282 22.8474 25.6238C22.9146 25.6095 23 25.7007 23 25.8137C23 25.9268 22.8231 25.9837 22.8231 25.9837Z" fill="#04CA73"/>
<path d="M16.4046 11.6681C16.4046 11.7047 16.2167 11.888 16.2167 11.888C16.0288 12.1055 15.7822 12.7201 15.766 12.8735C15.7498 13.0269 15.8142 13.4539 15.879 13.7117C15.9073 13.824 15.9646 14.1488 16.0277 14.5062L16.0278 14.5065C16.1096 14.9701 16.2012 15.4886 16.2515 15.6698C16.3034 15.8568 16.454 16.1678 16.5756 16.4188C16.6627 16.5987 16.7349 16.7479 16.7451 16.7983C16.7694 16.9189 17.749 17.9343 17.8863 17.9908C17.9401 18.0129 18.1003 18.1473 18.2983 18.3133C18.6063 18.5715 19.0057 18.9064 19.2374 19.0142C19.618 19.1914 20.7754 19.3928 20.99 19.4089C21.2046 19.4251 21.0501 19.5633 21.0501 19.5633C20.2065 19.719 19.1163 19.6611 18.0723 18.8452C15.9277 17.1687 15.539 15.6053 15.3611 14.0902C15.1832 12.5752 15.7431 11.4929 15.9034 11.4582C16.0636 11.4236 16.4046 11.6316 16.4046 11.6681Z" fill="#04CA73"/>
<path d="M16.9633 12.049C16.9633 12.049 17.1655 11.9954 17.1736 11.9298C17.1818 11.8643 17.1493 11.7095 16.8875 11.6658C16.6257 11.6221 16.3734 11.8082 16.1955 12.2751C16.0176 12.7419 16.1001 13.7336 16.3252 14.3458C16.4147 14.589 16.4481 14.8133 16.4828 15.0464C16.5355 15.3998 16.5912 15.7734 16.8498 16.264C16.91 16.3781 16.9614 16.4763 17.0058 16.561C17.278 17.0805 17.2862 17.096 17.4321 17.2067C17.5571 17.3014 18.0112 17.7414 18.2938 18.0152L18.2941 18.0155C18.3952 18.1135 18.4744 18.1903 18.5085 18.2221C18.6377 18.3427 19.3259 18.7944 19.4623 18.7944C19.5987 18.7944 19.6569 18.5768 19.6488 18.4719C19.6407 18.3669 19.6245 18.3109 19.438 18.3028C19.2515 18.2947 18.9849 17.9884 18.9849 17.9884C18.9849 17.9884 17.9896 17.0538 17.9086 17.0053C17.8275 16.9569 17.0268 16.0465 17.0268 15.9415C17.0268 15.8365 17.043 15.6755 17.1078 15.7644C17.1149 15.7741 17.1269 15.7909 17.143 15.8134C17.2735 15.9968 17.6752 16.5608 17.9491 16.812C18.2567 17.0941 19.2277 17.9158 19.4623 18.0126C19.697 18.1095 19.8023 18.1176 19.8186 17.9319C19.8348 17.7462 19.9478 17.6579 20.0451 17.7144C20.1424 17.7709 20.873 18.1893 21.1024 18.1656C21.2265 18.1527 21.383 18.0454 21.5171 17.9533C21.6309 17.8753 21.7286 17.8082 21.7767 17.8193C21.8817 17.8436 21.5826 18.1817 21.4853 18.2382C21.3881 18.2947 21.5664 18.4154 21.5989 18.4315C21.6593 18.465 21.7288 18.4785 21.7974 18.4699C21.866 18.4614 21.9301 18.4313 21.9804 18.384C22.1587 18.2311 22.175 18.0297 22.0615 17.7476C21.9934 17.5784 21.9538 17.3492 21.9237 17.1752C21.9037 17.0592 21.8879 16.9677 21.8707 16.935C21.8648 16.9239 21.8591 16.9117 21.8535 16.8996C21.8177 16.8231 21.7827 16.7481 21.7062 16.935L21.6976 16.956C21.6069 17.1789 21.4373 17.5957 20.8806 17.6265C20.306 17.6583 19.675 17.579 18.9787 17.1188C18.2825 16.6586 17.4412 16.0313 16.7778 14.1615C16.1144 12.2917 16.9633 12.049 16.9633 12.049Z" fill="#04CA73"/>
<path fill-rule="evenodd" clip-rule="evenodd" d="M21.5329 16.003C21.5639 15.996 21.5963 16 21.6246 16.0142C21.6651 16.0465 21.7081 16.2782 21.7081 16.359C21.7081 16.4397 21.6837 17.2152 20.915 17.3824C20.2766 17.5212 19.7498 17.2396 19.4272 17.0672C19.3613 17.032 19.3039 17.0013 19.2558 16.9797C18.9725 16.8524 18.3173 16.2806 17.9935 15.9823C17.6696 15.6841 17.3625 15.0154 17.2652 14.7252C17.2439 14.6616 17.215 14.581 17.1818 14.4887C17.0636 14.1595 16.8918 13.6811 16.8203 13.291C16.7514 12.9153 16.8395 12.7308 16.9081 12.5871C16.9308 12.5396 16.9513 12.4967 16.9633 12.4527C17.012 12.2756 17.4412 12.0338 17.6191 11.9697C17.797 11.9056 17.9343 12.1706 17.9262 12.2333C17.9181 12.296 17.8823 12.5335 17.8823 12.5335C17.8396 12.8239 18.1011 13.3268 18.3303 13.7674L18.3554 13.8157C18.5901 14.2674 19.4156 15.2985 20.0627 15.6532C20.5828 15.9383 21.0668 15.392 21.2787 15.1528C21.3305 15.0944 21.366 15.0543 21.3819 15.0491C21.4625 15.023 21.5197 15.3854 21.4467 15.619C21.3738 15.8527 21.4224 16.1025 21.4548 16.0522C21.4744 16.0273 21.502 16.0099 21.5329 16.003ZM18.115 15.639L18.1151 15.6393C18.1673 15.7178 18.2065 15.7768 18.2152 15.7886C18.2453 15.8299 18.7517 16.2721 18.7517 16.2721C18.7598 16.1832 18.5576 15.885 18.3392 15.6352C18.1606 15.4465 17.9656 15.2739 17.7564 15.1194C17.7851 15.1423 17.9882 15.4482 18.115 15.639ZM19.5986 16.383C19.761 16.5069 20.0041 16.6924 20.5077 16.7099C21.1229 16.7323 21.2746 16.416 21.2455 16.3685C21.2164 16.321 21.1043 16.32 20.9865 16.3685C20.979 16.3716 20.9702 16.3754 20.96 16.3799C20.8119 16.4452 20.389 16.6316 19.768 16.2075C19.1046 15.7544 18.3516 14.9427 18.2586 14.757C18.2412 14.7222 18.2039 14.6603 18.155 14.5793C17.9435 14.2285 17.5149 13.5176 17.5347 13.0725C17.5347 13.0725 17.4789 12.7904 17.487 12.7263C17.4951 12.6622 17.2848 12.7666 17.3172 12.8996C17.3496 13.0326 17.6711 14.1605 17.7865 14.3861C17.9019 14.6117 18.1933 14.9313 18.5495 15.2994C18.6901 15.4447 18.8422 15.6168 18.9849 15.7784C19.2038 16.0262 19.4008 16.2492 19.501 16.3124C19.5309 16.3313 19.5628 16.3557 19.5986 16.383Z" fill="#04CA73"/>
<path fill-rule="evenodd" clip-rule="evenodd" d="M21.3008 14.5153C21.2643 14.5153 21.2095 14.5543 21.1539 14.5937C21.0643 14.6574 20.9726 14.7226 20.9526 14.6279C20.9369 14.5535 20.9713 14.4376 21.0112 14.303C21.0536 14.16 21.1023 13.9959 21.1038 13.8381C21.1067 13.5317 21.0418 12.9599 20.8963 12.6698C20.7509 12.3796 20.6131 12.1378 20.3622 12.2898C20.1325 12.429 20.2215 12.5442 20.319 12.6706C20.328 12.6823 20.3371 12.694 20.346 12.7059C20.3556 12.7187 20.3666 12.733 20.3787 12.7487L20.3789 12.7489C20.4996 12.9057 20.7275 13.2017 20.7275 13.5313C20.7275 13.8941 20.6712 14.3861 20.5334 14.4175C20.3956 14.4488 20.0565 14.3367 19.7403 14.1031C19.4241 13.8694 18.9296 13.4182 18.8342 13.2815C18.7388 13.1447 18.5347 12.8137 18.5915 12.759C18.6482 12.7044 18.7369 12.6783 18.818 12.8312C18.8991 12.9842 19.3278 13.4358 19.4408 13.5408C19.4543 13.5533 19.4711 13.569 19.4904 13.587L19.4909 13.5874C19.6329 13.7201 19.9099 13.9789 20.0236 14.0565C20.0379 14.0663 20.0527 14.077 20.0678 14.0878C20.1884 14.1746 20.3293 14.2759 20.4442 14.0964C20.5735 13.8946 20.5821 13.4358 20.4848 13.2587C20.3875 13.0815 20.221 12.7837 20.171 12.7073C20.1209 12.6308 20.0236 12.5012 19.8371 12.5814C19.6507 12.6617 19.6673 12.807 19.7236 12.8635C19.7371 12.877 19.7649 12.8989 19.7999 12.9262C19.911 13.0132 20.0938 13.1562 20.1123 13.2667C20.1162 13.2899 20.1211 13.3157 20.1261 13.3422C20.1526 13.4821 20.183 13.6422 20.088 13.5408C20.0398 13.4893 19.9605 13.3891 19.8799 13.287C19.7714 13.1498 19.6603 13.0093 19.6187 12.9799C19.5462 12.9286 19.0116 12.6056 19.0116 12.6056C19.0116 12.6056 18.3726 12.3397 18.332 12.2756C18.2915 12.2115 18.1594 12.1948 18.2538 12.5734C18.2674 12.6279 18.2806 12.6838 18.2939 12.7405C18.3732 13.0774 18.4592 13.4431 18.6878 13.726C18.9069 13.9972 18.9462 14.1271 18.9847 14.2539C18.993 14.2816 19.0014 14.3093 19.0116 14.3382C19.0684 14.4992 19.6106 15.3137 20.3145 15.4827C20.9303 15.6306 21.1932 15.0323 21.2765 14.8427C21.2884 14.8156 21.2966 14.7968 21.3017 14.7898C21.3422 14.7338 21.398 14.5153 21.3008 14.5153ZM20.6293 15.005C20.6134 15.1141 20.4767 15.0751 20.3485 15.0385C20.2798 15.0189 20.2135 15 20.1695 15.005C20.0436 15.0192 19.7956 14.7974 19.6421 14.6184C19.4885 14.4393 19.3669 14.2574 19.4155 14.2332C19.4398 14.2211 19.5002 14.2751 19.5786 14.3453C19.6577 14.416 19.755 14.503 19.8524 14.5557C19.8727 14.5667 19.8939 14.5783 19.9157 14.5903C20.1015 14.6924 20.3322 14.8191 20.4914 14.7974C20.6693 14.7732 20.6293 15.005 20.6293 15.005Z" fill="#04CA73"/>
<path d="M21.9904 18.6785C21.9904 18.6092 22.1335 18.4482 22.1335 18.4482C22.2534 18.4211 22.2605 18.5542 22.2656 18.6486C22.2663 18.6619 22.267 18.6744 22.2679 18.6856L22.2686 18.693C22.2759 18.7799 22.2814 18.8438 22.1983 18.8946C22.113 18.9469 22.06 18.916 22.0629 18.8471C22.0643 18.8123 22.0458 18.7873 22.027 18.7621C22.0088 18.7375 21.9904 18.7128 21.9904 18.6785Z" fill="#04CA73"/>
<path d="M22.2709 19.0314C22.2709 19.0314 22.124 19.1235 22.1336 19.2308C22.138 19.2809 22.1346 19.3278 22.1314 19.3713C22.1278 19.421 22.1244 19.4664 22.1336 19.5072C22.1507 19.5837 22.2738 19.5918 22.3124 19.5072C22.3212 19.4881 22.3311 19.4706 22.3406 19.4537C22.3734 19.3957 22.4021 19.3448 22.3663 19.2617C22.3488 19.221 22.3441 19.1661 22.3401 19.1182C22.3334 19.0398 22.3284 18.9801 22.2709 19.0314Z" fill="#04CA73"/>
<path d="M22.1965 20.1446C22.1808 20.2291 22.383 20.0833 22.383 20.0833L22.3848 20.0822C22.4901 20.0168 22.5584 19.9744 22.4588 19.7836C22.3885 19.6489 22.3673 19.6694 22.337 19.6989C22.3241 19.7114 22.3096 19.7254 22.2891 19.73C22.2373 19.7413 22.22 19.9209 22.208 20.0458C22.2039 20.0876 22.2005 20.1234 22.1965 20.1446Z" fill="#04CA73"/>
<path d="M22.5438 20.3365C22.5438 20.3365 22.5986 20.1313 22.4441 20.2572C22.3829 20.307 22.3389 20.331 22.3085 20.3475C22.2622 20.3727 22.2478 20.3805 22.2533 20.4362C22.2624 20.5283 22.2972 20.6737 22.3811 20.6513C22.3926 20.6483 22.4052 20.6462 22.4183 20.644C22.5013 20.6301 22.6035 20.613 22.5438 20.3365Z" fill="#04CA73"/>
<path d="M22.4077 21.0275C22.3872 20.8817 22.6361 20.7663 22.6361 20.7663C22.6907 20.7351 22.6941 20.8088 22.6981 20.8973C22.7003 20.9449 22.7027 20.9968 22.7134 21.0389C22.7439 21.159 22.6595 21.3096 22.6051 21.3124C22.5508 21.3153 22.4282 21.1733 22.4077 21.0275Z" fill="#04CA73"/>
</g>
<circle cx="16.5" cy="16.5" r="14.25" stroke="#04CA73" stroke-width="0.5"/>
<circle cx="16.5" cy="16.5" r="16" stroke="#04CA73"/>
<defs>
<filter id="filter0_b_524_5327" x="-12" y="-13" width="54" height="58" filterUnits="userSpaceOnUse" color-interpolation-filters="sRGB">
<feFlood flood-opacity="0" result="BackgroundImageFix"/>
<feGaussianBlur in="BackgroundImage" stdDeviation="9.5"/>
<feComposite in2="SourceAlpha" operator="in" result="effect1_backgroundBlur_524_5327"/>
<feBlend mode="normal" in="SourceGraphic" in2="effect1_backgroundBlur_524_5327" result="shape"/>
</filter>
</defs>
</svg>
