<svg width="34" height="42" viewBox="0 0 34 42" fill="none" xmlns="http://www.w3.org/2000/svg">
<g filter="url(#filter0_b_467_3090)">
<path d="M30.3962 0.555441C30.3962 0.555441 31.4543 1.08602 32.2822 1.26455C32.3482 1.27819 32.4167 1.27379 32.4803 1.25181C32.5439 1.22983 32.6002 1.19112 32.643 1.13988C32.8274 0.924456 33.0849 0.555441 32.8224 0.422795C32.7853 0.403859 32.7461 0.382898 32.7046 0.360734C32.3223 0.156426 31.7488 -0.150111 30.8867 0.0846977C29.9311 0.345003 30.2483 0.509564 30.3962 0.555441Z" fill="#04CA73"/>
<path d="M24.6631 1.27255C24.6631 1.27255 24.7452 1.02022 24.9489 1.02022C25.008 1.02022 25.0969 1.01099 25.1974 1.00056C25.4433 0.975038 25.7583 0.942339 25.8741 1.02022C26.0373 1.12993 25.9653 1.46902 25.7728 1.47002C25.5802 1.47102 24.581 1.41816 24.6631 1.27255Z" fill="#04CA73"/>
<path d="M0.0118724 14.3995C-0.0884566 15.0577 0.480074 15.0258 0.480074 15.0258C0.5879 15.0404 0.698605 14.9137 0.833155 14.7598C0.909792 14.6721 0.994173 14.5755 1.09016 14.4912C1.2948 14.3114 1.349 14.1322 1.45317 13.7878C1.48364 13.687 1.51838 13.5722 1.56241 13.439C1.75699 12.8506 2.52212 12.7 2.64677 12.7C2.77143 12.7 2.59002 13.2007 2.07622 13.7801C1.93163 13.9432 1.77098 14.0979 1.60949 14.2535C1.19712 14.6508 0.779184 15.0535 0.608779 15.6132C0.371638 16.3921 0.77498 16.7612 1.08103 16.6654C1.22278 16.6211 1.29214 16.4633 1.38687 16.2479C1.49668 15.9982 1.64058 15.671 1.97082 15.3529C2.29555 15.0402 2.46806 14.7452 2.62193 14.4822C2.75955 14.2469 2.88225 14.0371 3.08559 13.8629C3.41993 13.5531 3.72519 13.2143 3.99767 12.8506C5.15577 10.4253 8.8667 7.37834 9.95086 6.48816C10.0896 6.37424 10.1853 6.29564 10.2272 6.25819C10.3644 6.13535 10.5573 6.01735 10.7453 5.90228C11.0626 5.7081 11.3663 5.52227 11.3663 5.33565C11.3663 5.03844 11.2001 4.87388 10.9305 4.9068C10.6609 4.93971 8.51855 6.35693 6.91126 7.64249C5.30397 8.92806 3.72911 11.3705 3.47271 11.8971C3.21632 12.4237 3.12612 12.0657 3.12612 11.567C3.12612 11.2595 3.21551 11.0795 3.30757 10.894C3.36482 10.7787 3.4231 10.6613 3.46157 10.5098C3.5619 10.1149 2.95891 10.4121 2.79169 10.6425C2.74062 10.7129 2.64264 10.7955 2.53118 10.8895C2.27774 11.1034 1.95461 11.376 1.95461 11.6967C1.95461 12.1584 1.7205 12.3898 1.28473 12.686C0.84896 12.9822 0.112201 13.7412 0.0118724 14.3995Z" fill="#04CA73"/>
<path d="M11.7371 4.53677C11.6847 4.56253 11.6391 4.5999 11.604 4.64593C11.5688 4.69197 11.545 4.74541 11.5344 4.80206C11.5273 4.83749 11.5276 4.87396 11.5353 4.90928C11.543 4.94459 11.5578 4.978 11.579 5.00751C11.7087 5.18404 12.0482 5.04641 12.2671 4.84993C12.486 4.65345 13.844 3.83863 13.844 3.83863C13.844 3.83863 12.3471 4.22859 11.7371 4.53677Z" fill="#04CA73"/>
<path d="M1.40962 17.6508C1.72277 17.972 1.92546 17.6508 1.92546 17.6508C2.33268 17.3557 2.84031 16.5472 3.16287 16.0334C3.26656 15.8682 3.35112 15.7335 3.40708 15.6562C3.63713 15.338 4.96269 13.5278 5.38326 13.0192C5.47862 12.9039 5.53386 12.7992 5.60041 12.6731C5.82737 12.2431 6.18582 11.564 8.71539 9.36296C11.9867 6.51655 15.6655 3.56044 20.1843 3.40985C24.7032 3.25925 29.9132 6.4637 29.9132 6.4637C29.9869 6.43388 30.0536 6.38974 30.1096 6.33392C30.1655 6.2781 30.2094 6.21174 30.2386 6.13882C30.2679 6.0659 30.2818 5.98793 30.2797 5.90957C30.2776 5.8312 30.2595 5.75407 30.2263 5.68278C25.1379 2.55612 20.9778 2.23997 18.951 2.62993C16.9241 3.01989 15.0077 4.05213 13.6163 4.83105C12.2736 5.58268 9.67874 7.62702 8.10808 8.86443L7.94114 8.99594C6.39364 10.2147 4.77723 12.1814 4.38098 12.8217C3.98473 13.462 2.51223 15.7549 2.0116 16.2117C1.51096 16.6685 1.09647 17.3297 1.40962 17.6508Z" fill="#04CA73"/>
<path d="M31.5244 3.07569C25.9485 0.955345 22.364 1.46399 21.3233 1.69338C21.2913 1.70061 21.2626 1.7178 21.2414 1.74238C21.2203 1.76696 21.2077 1.79762 21.2057 1.8298C21.2036 1.86197 21.2122 1.89394 21.2301 1.92093C21.248 1.94793 21.2743 1.96851 21.305 1.97961C21.5992 2.06928 21.9028 2.12583 22.21 2.14816C22.685 2.19542 23.1422 2.26212 23.5713 2.32473C24.2291 2.42069 24.8211 2.50707 25.3111 2.49922C26.1208 2.48626 28.1294 2.71465 29.3425 3.16146C30.5556 3.60826 31.0653 3.80075 31.0653 3.80075C31.0653 3.80075 31.3227 3.82469 31.5193 3.53546C31.7159 3.24623 31.5244 3.07569 31.5244 3.07569Z" fill="#04CA73"/>
<path d="M30.4582 5.07734C31.1564 5.02947 30.9477 4.29343 30.9477 4.29343C30.9477 4.29343 28.3016 3.25919 26.892 2.88319C25.4823 2.5072 24.7313 3.17143 25.8248 3.30507C26.3721 3.37195 27.3572 3.82776 28.2923 4.26046C29.2257 4.69237 30.1094 5.10125 30.4582 5.07734Z" fill="#04CA73"/>
<path d="M27.128 0.819763C27.0978 0.830756 27.0717 0.850385 27.0529 0.876122C27.0342 0.901859 27.0237 0.932525 27.0229 0.964173C27.022 0.99582 27.0308 1.027 27.048 1.0537C27.0653 1.0804 27.0903 1.10139 27.1199 1.11398C27.4381 1.24862 27.9499 1.43811 28.3623 1.47003C29.0119 1.51989 30.7722 2.06843 31.6114 2.49828C32.1485 2.76956 32.4221 1.81012 32.0755 1.68844C31.8892 1.6238 31.6199 1.52455 31.3201 1.41402C30.6068 1.15114 29.7205 0.824487 29.3666 0.747954C28.943 0.656199 27.7928 0.590375 27.128 0.819763Z" fill="#04CA73"/>
<path d="M28.6313 7.25373C27.123 6.38878 23.4373 4.27529 17.4755 5.07834C16.9533 5.15157 16.5069 5.50377 16.1707 5.76902C16.0215 5.88671 15.894 5.98728 15.7912 6.03878C15.1158 6.36732 14.4649 6.7426 13.8434 7.16178C12.5881 8.03999 11.4247 9.03892 10.3704 10.1438C9.31241 11.2748 8.00408 13.6694 7.69093 14.2588C7.37778 14.8483 6.2093 16.1657 5.86677 16.5028C5.52423 16.8399 4.72869 18.5773 4.18448 19.814C3.64027 21.0507 2.9552 20.8792 3.06972 19.9536C3.18423 19.0281 5.09352 16.4161 5.54956 15.8865C6.0056 15.3569 8.40438 11.9301 8.51788 11.6438C8.63139 11.3576 8.28885 11.2848 7.9757 11.6438C7.83478 11.8054 7.45126 12.3626 7.02964 12.9753C6.51439 13.7239 5.9422 14.5554 5.68638 14.8483C5.22121 15.3808 3.15991 18.711 3.15991 18.711C3.15991 18.711 2.87615 19.457 2.44038 19.2146C2.00461 18.9723 2.13838 18.4147 2.64914 17.7894C2.86798 17.5215 3.7126 16.3179 4.62902 15.012C5.85149 13.2699 7.20185 11.3456 7.3646 11.218C7.46451 11.1396 7.64875 11.0629 7.87511 10.9687C8.29397 10.7944 8.85709 10.5601 9.2972 10.1438C9.53735 9.91667 9.77991 9.63447 10.031 9.34232C10.4888 8.80969 10.975 8.24401 11.5267 7.91876C11.7074 7.81227 11.9515 7.60409 12.2646 7.33705C13.4323 6.34109 15.56 4.52645 18.9349 4.11591C23.2146 3.5953 27.8175 5.43938 29.7116 6.98625C29.7116 6.98625 29.8434 7.50786 29.3701 7.60161C29.2719 7.62106 29.0262 7.48019 28.6313 7.25373Z" fill="#04CA73"/>
<path d="M9.23983 12.5315C9.23983 12.5315 11.0427 9.83866 12.9895 8.52616C13.7352 8.02342 14.3557 7.58126 14.8717 7.21359C15.7028 6.62137 16.2627 6.22238 16.6378 6.07471C16.6729 6.0609 16.7128 6.04444 16.7578 6.02588L16.7586 6.02556C17.4945 5.7221 19.5841 4.86044 24.0095 5.85529C28.7077 6.91147 29.2742 8.42643 29.0523 8.72563C28.8591 8.986 28.2838 8.67238 27.4272 8.20539C27.2994 8.13574 27.1654 8.06268 27.0254 7.9876C25.9471 7.40914 23.9254 6.53248 22.3049 6.57238C20.6844 6.61227 17.4648 7.70834 17.2631 7.90781C17.0614 8.10728 17.0402 7.54977 17.5864 7.43009C17.8763 7.36658 18.1153 7.2132 18.3272 7.07725C18.5146 6.95701 18.6808 6.85041 18.842 6.83168C19.1856 6.79179 19.7136 6.67211 19.7136 6.39385C19.7136 6.1156 18.5593 6.15449 17.9715 6.39385C17.5118 6.58107 16.0241 7.37721 15.1946 7.82114C14.9635 7.94477 14.7835 8.0411 14.691 8.08933C14.5997 8.13696 14.5027 8.18256 14.4056 8.22817C14.0516 8.39453 13.6974 8.56103 13.6178 8.82636C13.5165 9.16446 12.8274 9.97031 12.4838 10.1458C12.1403 10.3214 10.3972 11.6768 10.2158 11.9959C10.0344 12.315 9.78708 12.5644 9.23983 12.5315Z" fill="#04CA73"/>
<path d="M14.0274 9.99921C13.0545 10.7213 12.8255 10.3872 12.8255 10.3872C12.8452 10.1657 13.7951 9.5783 14.3959 9.20678C14.6283 9.06304 14.8087 8.95148 14.8624 8.90613C15.055 8.74356 15.2942 9.11457 15.2111 9.11457C15.1676 9.11457 15.1119 9.15904 14.9295 9.30478C14.7632 9.43768 14.4914 9.6548 14.0274 9.99921Z" fill="#04CA73"/>
<path d="M15.5282 9.79281C15.5282 9.79281 15.2566 9.71402 15.7876 9.345C16.3187 8.97599 19.8312 6.89055 22.3648 7.0222C24.8983 7.15385 27.8373 8.6319 28.344 9.06774C28.8507 9.50358 28.4919 10.3733 28.344 10.3204C28.3213 10.3123 28.2279 10.2501 28.0782 10.1505C27.2521 9.60079 24.711 7.90971 22.8613 7.85398C20.6764 7.78816 18.4773 8.60597 17.552 9.17346L17.4265 9.25055C16.5967 9.76091 16.2789 9.95635 15.5282 9.79281Z" fill="#04CA73"/>
<path d="M18.3023 9.61951C18.321 9.63872 18.345 9.65213 18.3713 9.6581C19.2769 9.87226 19.8641 9.70785 20.5307 9.52123C21.1741 9.3411 21.8914 9.14027 23.0402 9.23922C24.8453 9.39392 26.1411 10.6611 26.8809 11.3845C27.1474 11.6451 27.3418 11.8352 27.4617 11.8772C27.9147 12.0358 28.0353 11.2429 27.9685 10.9008C27.9016 10.5587 26.6145 9.08064 23.4648 8.4214C20.9181 7.88783 18.9753 8.97493 18.3247 9.41176C18.3023 9.42666 18.2848 9.44768 18.2744 9.47224C18.264 9.49679 18.261 9.5238 18.266 9.54997C18.2709 9.57613 18.2835 9.6003 18.3023 9.61951Z" fill="#04CA73"/>
<path d="M21.6006 10.2156L21.326 10.1269C21.3184 10.1243 21.3117 10.1195 21.307 10.1131C21.3023 10.1066 21.2998 10.0989 21.2998 10.091C21.2998 10.0831 21.3023 10.0753 21.307 10.0689C21.3117 10.0624 21.3184 10.0576 21.326 10.0551C21.7314 9.95534 23.0549 9.70202 24.2528 10.1548C25.3108 10.5537 26.1651 11.3137 26.5401 11.6857C26.5516 11.6978 26.5587 11.7132 26.5604 11.7297C26.562 11.7461 26.5581 11.7627 26.5492 11.7767C26.5402 11.7907 26.5269 11.8014 26.5111 11.8072C26.4953 11.8129 26.4781 11.8133 26.462 11.8084L21.6006 10.2156Z" fill="#04CA73"/>
<path d="M4.15362 21.9792C4.53568 22.3074 4.6806 21.8795 4.6806 21.8795C5.08965 21.1943 5.21773 20.7502 5.34405 20.3121C5.4825 19.8321 5.61885 19.3592 6.12067 18.5843C7.08039 17.1023 6.84324 16.1548 6.83007 16.4041C6.8169 16.6535 5.88049 17.7625 5.617 18.0218C5.35351 18.2811 4.29854 20.4483 4.15362 20.7984L4.13151 20.8514C3.98674 21.1978 3.79046 21.6674 4.15362 21.9792Z" fill="#04CA73"/>
<path d="M5.5115 23.3196C5.5115 23.3196 5.36658 23.6188 5.11626 23.3196C4.86595 23.0204 5.10208 22.3223 5.4061 21.6072C5.54804 21.2734 5.71539 20.7478 5.87369 20.2506C6.05446 19.6828 6.22344 19.1521 6.32933 18.9862C6.52796 18.675 6.5533 19.3752 6.5533 19.5846C6.5533 19.6044 6.55388 19.6323 6.55462 19.6674C6.56174 20.0054 6.5829 21.0108 6.2361 21.8685C6.04177 22.3737 5.79915 22.8596 5.5115 23.3196Z" fill="#04CA73"/>
<path d="M6.09145 24.6302C6.435 25.1877 6.72484 24.721 6.72484 24.721C6.92246 24.4876 6.98833 23.9739 6.98833 23.8154C6.98833 23.7353 6.93798 23.5935 6.87963 23.4292C6.82239 23.268 6.75746 23.0852 6.72484 22.9178C6.65897 22.5797 6.5404 22.3204 6.46135 22.4241C6.4192 22.4794 6.34563 22.6958 6.27077 22.916C6.20525 23.1088 6.13875 23.3044 6.09145 23.3975C5.97631 23.5831 5.91538 23.7964 5.91538 24.0138C5.91538 24.2313 5.97631 24.4446 6.09145 24.6302Z" fill="#04CA73"/>
<path d="M7.3834 25.2785C7.3834 25.2785 7.28206 24.9573 7.19896 24.9035C7.11586 24.8496 6.88682 25.1618 6.86554 25.3952C6.85375 25.5245 6.9238 25.6063 6.99447 25.6889C7.05133 25.7554 7.1086 25.8223 7.12396 25.9148C7.15842 26.1222 7.32665 25.8629 7.3834 25.6425C7.41655 25.5234 7.41655 25.3976 7.3834 25.2785Z" fill="#04CA73"/>
<path d="M9.76191 14.8991C8.40291 16.453 8.1232 18.3998 8.1232 18.3998C8.1232 18.3998 8.35528 18.7548 8.47081 18.1255C8.58634 17.4962 9.44572 16.5727 9.58557 16.5527L9.58891 16.5522C9.62832 16.5466 9.65441 16.5429 9.66294 16.5532C9.67966 16.5734 9.62897 16.6476 9.47891 16.8672C9.44094 16.9228 9.39661 16.9877 9.34539 17.0633C8.98563 17.5949 7.72797 20.7804 7.68743 21.6262C7.64689 22.4719 7.90734 22.4919 8.02693 22.4919C8.14651 22.4919 9.36667 19.7582 9.38593 19.3842C9.39995 19.1118 9.83688 18.1514 10.1516 17.4596C10.2691 17.2014 10.3696 16.9806 10.4247 16.8469C10.6054 16.4085 10.5114 16.3 10.4465 16.225C10.4386 16.2159 10.4312 16.2073 10.4247 16.1987C10.3987 16.164 10.3157 16.1666 10.2296 16.1694C10.1176 16.1729 10.0002 16.1767 9.995 16.0989C9.99038 16.0292 10.208 15.7828 10.4371 15.5233C10.6604 15.2704 10.8946 15.0052 10.9446 14.8792C10.9854 14.7762 11.1266 14.5739 11.2857 14.346C11.5212 14.0085 11.7959 13.6148 11.8425 13.4041C11.9205 13.0511 11.7411 13.09 11.7411 13.09C11.7411 13.09 11.1209 13.3453 9.76191 14.8991Z" fill="#04CA73"/>
<path d="M11.3662 18.2033C11.3662 18.2033 11.0409 18.9633 10.3619 18.9074C9.89598 18.8691 10.2317 18.0794 10.5407 17.3526C10.682 17.0203 10.8177 16.7011 10.8686 16.4729C11.0308 15.7459 12.2874 13.051 12.5448 12.8147C12.8022 12.5783 13.5045 12.316 13.6049 12.5354C13.6621 12.6606 13.5304 12.8234 13.3621 13.0314C13.2353 13.1881 13.0878 13.3704 12.9846 13.5816C12.9317 13.6901 12.8517 13.8444 12.7584 14.0244C12.4287 14.6605 11.9331 15.6169 11.877 16.0002C11.805 16.4919 11.3662 18.2033 11.3662 18.2033Z" fill="#04CA73"/>
<path d="M10.7478 19.6365C10.7494 19.6966 10.7382 19.7564 10.7149 19.812C10.9241 19.5962 11.1181 19.3666 11.2956 19.1249C11.7243 18.5763 11.852 17.8742 11.8591 17.3955C11.8662 16.9167 12.3101 16.087 12.3101 16.087C13.7223 12.8804 14.4692 12.2083 14.7394 11.9653C14.7689 11.9387 14.7928 11.9172 14.8112 11.8981C14.9977 11.7047 16.0141 11.558 16.2979 11.586C16.4891 11.6048 16.4083 11.8085 16.2828 12.1246C16.2222 12.2775 16.151 12.4568 16.0952 12.6541C15.9239 13.2595 15.6098 14.1432 15.4669 14.3137C15.324 14.4842 14.7332 15.307 14.6946 15.681C14.662 15.9983 14.4485 17.0094 14.262 17.8927L14.2617 17.8942C14.2284 18.0518 14.196 18.2052 14.1656 18.3499C13.965 19.3064 14.0227 20.6278 14.0795 20.6937C14.1362 20.7595 14.9541 22.9447 15.1365 23.6238C15.3189 24.303 16.6617 26.8592 17.062 27.295C17.4623 27.7309 17.4623 27.9702 17.062 28.2375C16.6617 28.5048 16.4195 28.3642 16.4195 28.3642C15.0875 26.8994 14.4369 24.4652 14.1542 23.4076C14.0486 23.0128 13.9944 22.8098 13.9751 22.9207C13.9042 23.3286 14.3156 25.1577 14.5467 25.9028C14.7635 26.6019 15.6729 28.2548 15.841 28.5604L15.8641 28.6026C15.933 28.7292 15.5277 29.3476 15.021 29.1371C14.5143 28.9267 13.6579 26.6059 13.5008 25.9167C13.3438 25.2276 12.8695 21.7538 13.0722 19.6864C13.1883 18.3899 13.4569 17.111 13.8728 15.8755C13.9392 15.669 14.1752 15.2495 14.4054 14.8404C14.6142 14.4692 14.8182 14.1067 14.8862 13.9197C14.9296 13.8003 14.9928 13.6366 15.0598 13.4632C15.213 13.0663 15.3858 12.6187 15.3858 12.5354C15.3858 12.4158 15.2622 12.4018 15.1436 12.4527C15.0745 12.4823 14.8432 12.9087 14.6198 13.3206C14.4599 13.6155 14.3039 13.903 14.2143 14.0324C14.0411 14.2825 13.4596 15.5372 13.136 16.2352L13.1352 16.237C13.0578 16.4041 12.9952 16.5391 12.9566 16.6205C12.757 17.0424 12.384 21.0218 12.5989 23.3566C12.8137 25.6913 13.9396 28.4909 14.1423 28.8419C14.2735 29.0487 14.3436 29.2873 14.345 29.5311C14.345 29.6298 13.5728 30.0936 13.3873 30.0657C13.2019 30.0377 13.1015 28.9676 13.0732 28.6165C13.0448 28.2655 12.1155 24.8057 11.9584 25.1149C11.8013 25.424 12.2726 27.689 12.4013 28.1248C12.4283 28.2165 12.4858 28.3568 12.5544 28.5244C12.812 29.1536 13.2275 30.1684 12.7874 30.4456C12.23 30.7967 12.1033 30.2841 12.1033 30.2841C11.3797 28.6773 11.1 26.911 11.2926 25.1637C11.2926 24.9543 11.4203 23.5271 11.4628 23.1072C11.5054 22.6873 11.5905 21.2811 11.4628 21.2811C11.3715 21.2811 11.3346 21.3995 11.2609 21.6358C11.2316 21.7299 11.1964 21.8429 11.1497 21.9742C10.9855 22.436 10.8659 24.6601 10.9085 25.1847C10.9511 25.7093 10.9936 27.6202 10.9085 27.9972C10.8475 28.2675 10.6114 28.8187 10.4273 29.2484C10.3548 29.418 10.2902 29.5688 10.2477 29.6757C10.1275 29.9787 10.1317 30.47 10.1344 30.7938C10.1351 30.874 10.1356 30.9439 10.1342 30.9982C10.1218 31.2157 10.0643 31.4285 9.96509 31.6234C9.86592 31.8182 9.72723 31.991 9.5576 32.1311C9.13703 32.4672 8.42763 32.551 8.42763 32.4672C8.42763 32.4279 8.57844 32.1333 8.75159 31.7951C8.94692 31.4135 9.17068 30.9765 9.23837 30.7877C9.29475 30.6305 9.44673 30.3625 9.59892 30.0942C9.79142 29.7547 9.98425 29.4147 9.98425 29.2977C9.98425 29.0883 10.0917 27.4097 10.1555 27.0736C10.2194 26.7375 10.2417 25.0381 10.1271 25.0171C10.0126 24.9962 9.57989 26.549 9.4674 27.0736C9.35491 27.5982 9.15324 26.8632 9.08838 26.57C9.02472 26.1946 9.04688 25.8099 9.15324 25.444C9.20238 25.3086 9.24128 25.0422 9.28175 24.765C9.33308 24.4135 9.38693 24.0446 9.4674 23.9041C9.51155 23.827 9.59938 23.7301 9.7024 23.6164C9.93517 23.3596 10.2455 23.0172 10.3045 22.6245C10.3896 22.058 10.3896 20.6937 10.3896 20.6937C10.3896 20.6937 9.51402 21.5753 9.60016 22.1288C9.6863 22.6824 9.57483 23.1282 9.3235 23.4523C9.07217 23.7764 8.81679 24.2402 8.81679 24.5972C8.81679 24.9543 8.64552 25.2066 8.49654 25.059C8.34757 24.9114 8.1986 24.0098 8.1986 23.548C8.1986 23.0863 9.56165 19.8549 9.77042 19.5238C9.79426 19.486 9.8155 19.4507 9.83511 19.4182C9.98717 19.1658 10.0405 19.0773 10.4373 19.2346C10.4957 19.2521 10.5498 19.2815 10.596 19.3208C10.6423 19.3601 10.6797 19.4085 10.7058 19.4629C10.7319 19.5172 10.7463 19.5764 10.7478 19.6365Z" fill="#04CA73"/>
<path d="M11.0848 29.2199C11.0308 29.211 10.9755 29.2128 10.9221 29.225C10.8688 29.2372 10.8184 29.2597 10.7739 29.2911C10.7293 29.3225 10.6915 29.3622 10.6626 29.408C10.6337 29.4538 10.6143 29.5048 10.6055 29.558C10.5504 29.8287 10.5533 30.2234 10.5554 30.5187C10.5564 30.6585 10.5573 30.7761 10.5517 30.8475C10.5439 30.9485 10.4806 31.1245 10.421 31.2899C10.3493 31.4889 10.2831 31.6727 10.3258 31.6923C10.4038 31.7282 10.9338 31.6035 11.1932 31.3013C11.4527 30.9991 11.6807 30.5892 11.6716 30.1893C11.6625 29.7894 11.5277 29.2199 11.0848 29.2199Z" fill="#04CA73"/>
<path d="M18.0434 11.6359C18.1448 11.7247 17.7962 12.1446 17.7962 12.1446C17.7962 12.1446 17.0097 13.8031 16.8192 14.1352C16.6287 14.4674 15.4714 16.8221 15.7298 17.7895C15.9551 18.633 15.8646 19.5067 15.7927 20.2007C15.7821 20.3026 15.7719 20.4007 15.7632 20.4943C15.6953 21.2243 16.6834 23.4464 16.8719 23.7566C17.0604 24.0667 18.5056 26.6209 18.5056 26.6209L19.0893 27.2851C19.0893 27.2851 18.3292 28.1369 17.5691 27.2851C16.8091 26.4334 15.0629 22.4191 14.7822 20.4614C14.5015 18.5036 14.7498 17.0993 14.839 16.6804C14.8807 16.4846 15.1262 15.954 15.3944 15.3744C15.6998 14.7146 16.0345 13.9914 16.1311 13.6266C16.3125 12.9414 17.0442 11.7137 17.2459 11.4813C17.4475 11.2489 17.9421 11.5471 18.0434 11.6359Z" fill="#04CA73"/>
<path d="M17.1567 17.181C17.177 16.8139 17.2451 16.4509 17.3594 16.1009C17.5307 15.6441 17.7141 14.8832 17.3594 14.7156C17.0047 14.5481 16.4017 14.6697 16.4017 15.9483C16.4017 16.3477 16.3721 16.7665 16.3405 17.2115C16.2711 18.1911 16.1927 19.2982 16.4017 20.6059C16.7058 22.5078 18.1803 25.9067 20.1139 27.663C21.263 28.7067 21.6143 28.915 21.9114 29.0912C22.1143 29.2114 22.2919 29.3167 22.6809 29.6627C23.6396 30.5154 28.4767 31.414 29.8235 31.2455C31.1704 31.0769 31.5251 30.4546 31.5869 30.2262C31.6487 29.9978 31.4632 29.6168 31.2778 29.7844L31.277 29.7851C31.0894 29.9545 30.0823 30.8645 26.8238 30.1494C23.5606 29.4333 22.6779 28.6434 22.4924 28.4759C22.4 28.3924 21.8967 27.8934 21.3881 27.3891L21.3876 27.3886L21.386 27.387L21.3855 27.3866C20.874 26.8794 20.3578 26.3677 20.2497 26.2688C20.0338 26.0713 17.9188 23.2399 17.9188 22.8439C17.9188 22.7475 18.0812 22.9785 18.3798 23.4032C19.3076 24.7227 21.5501 27.9123 24.3216 28.9626C27.9852 30.3509 29.3178 30.1045 30.0292 29.8761L30.1371 29.8416C30.8105 29.6261 31.448 29.422 31.448 29.191C31.448 28.9476 31.4328 28.4599 31.1845 28.4599C31.0958 28.4599 30.867 28.5611 30.5792 28.6883C30.0618 28.9171 29.3538 29.2301 28.9266 29.191C28.6468 29.1654 28.3176 29.0777 27.9643 28.9837C27.4785 28.8544 26.9472 28.7129 26.4367 28.7043C25.555 28.6893 23.6832 27.6241 23.2352 27.1973C23.1689 27.1341 23.0581 27.0529 22.9098 26.9441C22.0562 26.3185 19.9589 24.7813 17.93 20.5151C17.93 20.5151 17.0534 17.93 17.1567 17.181Z" fill="#04CA73"/>
<path d="M22.4113 29.941C22.6018 29.9071 23.5727 30.5554 23.5727 30.5554C23.5727 30.5554 23.9385 31.058 27.4926 31.4639C30.4348 31.8 31.0948 31.2379 31.3338 31.0344C31.3834 30.9921 31.4149 30.9653 31.4449 30.9653C31.6192 30.9653 31.6861 31.5976 31.5969 31.819C31.5078 32.0404 30.6139 32.3486 30.0768 32.3994C29.7471 32.4307 29.4823 32.4168 28.8896 32.3857C28.5169 32.3662 28.0145 32.3398 27.2848 32.3137C26.0291 32.2506 24.8004 31.931 23.677 31.3752C23.5933 31.3291 23.3792 31.3477 23.1614 31.3667C22.9736 31.3831 22.7829 31.3996 22.6707 31.3752C22.4285 31.3223 22.2897 30.9663 22.2724 30.6242L22.2699 30.5752L22.2679 30.5393C22.251 30.2326 22.2367 29.9721 22.4113 29.941Z" fill="#04CA73"/>
<path d="M24.0412 31.9726C24.0412 31.9726 23.3318 31.46 23.1048 31.6654C22.8778 31.8709 22.8454 32.4842 23.573 32.6548C23.905 32.7326 24.4252 32.8673 24.9272 32.9973C25.5256 33.1522 26.0983 33.3005 26.2961 33.3379C26.6599 33.4068 27.7017 33.5773 28.4993 33.5773C28.9845 33.5773 29.4634 33.4444 29.8385 33.3403C30.0798 33.2733 30.2782 33.2183 30.4076 33.2183C30.7379 33.2183 31.7078 33.2183 31.7605 33.0188C31.8008 32.8663 31.7202 32.5878 31.6714 32.4193C31.6564 32.3674 31.6444 32.3259 31.6399 32.3017C31.6206 32.199 31.344 32.2329 31.1524 32.3356C30.9609 32.4383 29.8178 32.7964 29.2969 32.8343C28.776 32.8722 27.3541 32.9061 26.1056 32.6059C25.4042 32.4392 24.7146 32.2276 24.0412 31.9726Z" fill="#04CA73"/>
<path d="M25.4298 34.3452C29.5575 34.9765 31.0492 33.9692 31.0492 33.9692C31.0492 33.9692 31.4658 33.8156 31.2225 33.4915C31.0319 33.2375 30.5861 33.4239 30.1685 33.5985C30.0532 33.6467 29.9402 33.694 29.8352 33.7308C29.3497 33.9014 28.2218 33.9483 27.3665 33.9183C26.5111 33.8884 23.4009 32.8761 23.1577 32.7914C22.9966 32.7352 22.79 32.5061 22.6386 32.3381C22.5616 32.2526 22.4987 32.1829 22.4635 32.16C22.3591 32.0922 21.3021 33.7139 25.4298 34.3452Z" fill="#04CA73"/>
<path d="M22.9619 34.0211C22.9619 34.0211 22.5849 33.7648 22.5849 34.0211C22.5849 34.2774 22.7876 34.6863 23.1929 34.8738C23.5137 35.0408 23.8708 35.1288 24.2337 35.1301C24.6751 35.1684 25.1048 35.29 25.4995 35.4882C25.8461 35.6597 27.0784 36.1374 29.2289 35.7445C31.3794 35.3515 31.8992 34.8568 32.0036 34.7033C32.108 34.5497 32.0553 34.2764 32.0036 34.055C31.9519 33.8336 31.8009 33.7249 31.5983 33.9064C31.3956 34.0879 30.146 35.181 27.0936 34.9935C24.0412 34.806 22.9619 34.0211 22.9619 34.0211Z" fill="#04CA73"/>
<path d="M24.1107 35.4713C24.8039 35.3007 25.0644 35.6598 25.0644 35.6598C25.0644 35.6598 25.186 36.2422 27.3233 36.4297C28.9692 36.5741 30.6188 35.839 31.4485 35.4692C31.6962 35.3588 31.8709 35.2809 31.9506 35.2688C32.2972 35.2159 32.4522 35.5062 32.0621 35.9669C31.6719 36.4277 30.4588 36.7688 29.869 36.9054C29.4711 36.9976 28.5597 37.0666 27.8206 37.1226C27.4642 37.1496 27.1478 37.1736 26.9483 37.1957C26.3352 37.2635 26.1751 37.1956 26.0362 37.076C26.008 37.0516 25.8828 36.9778 25.7072 36.8742C25.0196 36.4687 23.5586 35.6071 24.1107 35.4713Z" fill="#04CA73"/>
<path d="M28.0318 37.5228C28.0318 37.5228 26.9941 37.5357 27.0336 37.7522C27.0731 37.9686 27.5647 38.3915 28.0318 38.3017C28.1116 38.2864 28.2538 38.2614 28.4375 38.2292L28.4395 38.2288L28.4423 38.2283L28.446 38.2277L28.448 38.2273C29.3442 38.0701 31.2002 37.7443 31.6396 37.5228C31.7779 37.453 31.91 37.3963 32.0297 37.3448L32.0302 37.3446C32.3708 37.1981 32.6115 37.0946 32.6115 36.8585C32.6115 36.5394 32.5173 36.1604 32.2923 36.2422C32.258 36.2547 32.1764 36.2975 32.0566 36.3606C31.3897 36.7113 29.5381 37.685 28.0318 37.5228Z" fill="#04CA73"/>
<path d="M28.9837 38.927C28.9837 38.7993 30.1208 38.4423 30.1208 38.4423C30.3948 38.422 31.4291 37.8952 31.9506 37.6296L31.9512 37.6292C32.0967 37.5552 32.2022 37.5014 32.2398 37.4848C32.3172 37.4496 32.4014 37.4314 32.4866 37.4314C32.5718 37.4314 32.656 37.4496 32.7334 37.4848C32.8236 37.5487 32.9401 38.0453 32.9016 38.3136C32.8724 38.5171 32.291 38.6546 31.8249 38.7649C31.6765 38.8 31.5397 38.8323 31.4362 38.8632C31.2517 38.9181 30.9979 39.0441 30.7384 39.1729C30.3949 39.3434 30.0417 39.5188 29.8269 39.5404C29.4499 39.5783 28.9837 39.0546 28.9837 38.927Z" fill="#04CA73"/>
<path d="M31.2134 40.1787C31.0891 40.2422 30.9511 40.2754 30.8111 40.2754C30.671 40.2754 30.533 40.2422 30.4087 40.1787C29.9679 39.9613 30.123 39.7229 30.5101 39.5424C30.771 39.4207 31.1631 39.2646 31.4746 39.1406C31.6251 39.0807 31.7569 39.0282 31.8458 38.9909C32.1184 38.8762 32.8085 38.6208 32.9048 38.7226C33.0011 38.8243 33.1561 39.0936 33.1308 39.1823C33.1055 39.2711 31.2134 40.1787 31.2134 40.1787Z" fill="#04CA73"/>
<path d="M31.1461 40.7401C31.1461 40.8429 31.8332 41.1999 31.8332 41.1999C32.1058 41.2508 33.6208 40.8678 33.6208 40.5167C33.6208 40.1657 33.258 39.8335 33.258 39.8335C33.258 39.8335 31.8463 40.395 31.6366 40.395C31.4268 40.395 31.1461 40.6374 31.1461 40.7401Z" fill="#04CA73"/>
<path d="M33.624 41.9659C33.624 41.9659 33.248 42.0427 33.0271 41.9659C32.9076 41.9243 32.7769 41.8195 32.6677 41.732C32.5751 41.6577 32.498 41.5959 32.4566 41.5959C32.3664 41.5959 32.6663 41.4044 32.9055 41.3964C33.0694 41.3909 33.3031 41.3195 33.4801 41.2654C33.5614 41.2405 33.6307 41.2193 33.6757 41.2099C33.8186 41.18 34 41.3715 34 41.6088C34 41.8462 33.624 41.9659 33.624 41.9659Z" fill="#04CA73"/>
<path d="M19.9847 11.9031C19.9847 11.9799 19.5855 12.3649 19.5855 12.3649C19.1862 12.8216 18.6622 14.1122 18.6278 14.4343C18.5933 14.7565 18.7301 15.6531 18.868 16.1946C18.928 16.4304 19.0498 17.1124 19.1839 17.8631L19.184 17.8636C19.3579 18.8371 19.5524 19.926 19.6594 20.3067C19.7698 20.6993 20.0898 21.3523 20.3481 21.8794C20.5333 22.2574 20.6867 22.5705 20.7083 22.6763C20.76 22.9297 22.8416 25.062 23.1335 25.1807C23.2476 25.2271 23.5882 25.5092 24.0089 25.8578C24.6635 26.4002 25.5122 27.1035 26.0045 27.3299C26.8132 27.7019 29.2728 28.1248 29.7288 28.1587C30.1849 28.1926 29.8565 28.4828 29.8565 28.4828C28.0638 28.81 25.7471 28.6883 23.5287 26.9749C18.9713 23.4543 18.1454 20.171 17.7674 16.9895C17.3894 13.808 18.5791 11.5351 18.9196 11.4623C19.2601 11.3895 19.9847 11.8263 19.9847 11.9031Z" fill="#04CA73"/>
<path d="M21.1721 12.703C21.1721 12.703 21.6018 12.5903 21.619 12.4526C21.6362 12.315 21.5673 11.9899 21.0109 11.8981C20.4546 11.8064 19.9185 12.1973 19.5405 13.1777C19.1625 14.1581 19.3378 16.2405 19.8161 17.5261C20.0062 18.0369 20.0772 18.5079 20.151 18.9974C20.2629 19.7396 20.3812 20.5242 20.9309 21.5543C21.0588 21.794 21.168 22.0001 21.2624 22.1781C21.8408 23.2691 21.8581 23.3017 22.1683 23.5341C22.4338 23.733 23.3988 24.657 23.9993 25.232L23.9999 25.2326C24.2148 25.4384 24.3832 25.5996 24.4556 25.6664C24.7302 25.9197 26.1926 26.8682 26.4824 26.8682C26.7723 26.8682 26.8959 26.4114 26.8787 26.191C26.8614 25.9706 26.827 25.8529 26.4307 25.8359C26.0345 25.819 25.468 25.1757 25.468 25.1757C25.468 25.1757 23.353 23.2129 23.1807 23.1112C23.0084 23.0095 21.3069 21.0976 21.3069 20.8772C21.3069 20.6567 21.3413 20.3186 21.4791 20.5051C21.4942 20.5256 21.5197 20.5608 21.5538 20.6082C21.8312 20.9932 22.6848 22.1778 23.2668 22.7053C23.9205 23.2977 25.9838 25.0231 26.4824 25.2265C26.981 25.43 27.205 25.447 27.2394 25.057C27.2739 24.667 27.5141 24.4815 27.7208 24.6002C27.9276 24.7189 29.4801 25.5976 29.9676 25.5477C30.2313 25.5207 30.5638 25.2952 30.8488 25.102C31.0906 24.938 31.2982 24.7973 31.4006 24.8206C31.6235 24.8715 30.9881 25.5816 30.7814 25.7003C30.5746 25.819 30.9536 26.0723 31.0226 26.1062C31.1509 26.1765 31.2987 26.2048 31.4445 26.1868C31.5903 26.1689 31.7265 26.1057 31.8333 26.0065C32.2123 25.6853 32.2468 25.2624 32.0056 24.67C31.8609 24.3146 31.7767 23.8333 31.7129 23.4679C31.6703 23.2243 31.6367 23.0322 31.6002 22.9636C31.5877 22.9401 31.5757 22.9146 31.5636 22.8891C31.4877 22.7284 31.4133 22.571 31.2506 22.9636L31.2324 23.0076C31.0397 23.4758 30.6793 24.351 29.4963 24.4157C28.2752 24.4825 26.9344 24.316 25.4548 23.3496C23.9752 22.3831 22.1875 21.0657 20.7779 17.1391C19.3682 13.2126 21.1721 12.703 21.1721 12.703Z" fill="#04CA73"/>
<path fill-rule="evenodd" clip-rule="evenodd" d="M30.8824 21.0062C30.9482 20.9917 31.017 21 31.0773 21.0298C31.1634 21.0976 31.2546 21.5843 31.2546 21.7538C31.2546 21.9234 31.203 23.552 29.5693 23.9031C28.2129 24.1946 27.0933 23.6032 26.4078 23.2411C26.2677 23.1671 26.1458 23.1027 26.0436 23.0573C25.4416 22.7901 24.0492 21.5893 23.3611 20.9629C22.673 20.3366 22.0203 18.9324 21.8136 18.323C21.7683 18.1894 21.7068 18.0202 21.6363 17.8262C21.3851 17.135 21.02 16.1303 20.8681 15.311C20.7218 14.5221 20.9089 14.1347 21.0547 13.8328C21.1028 13.7333 21.1465 13.643 21.1721 13.5507C21.2755 13.1787 22.1875 12.6711 22.5655 12.5364C22.9436 12.4018 23.2354 12.9583 23.2182 13.0899C23.201 13.2216 23.125 13.7203 23.125 13.7203C23.0341 14.3301 23.5899 15.3863 24.0769 16.3115L24.1303 16.4131C24.6289 17.3615 26.3831 19.5268 27.7583 20.2718C28.8634 20.8704 29.8919 19.7232 30.3422 19.221C30.4523 19.0982 30.5278 19.0139 30.5615 19.0032C30.7327 18.9483 30.8543 19.7093 30.6993 20.2C30.5442 20.6907 30.6476 21.2153 30.7165 21.1095C30.758 21.0573 30.8167 21.0208 30.8824 21.0062ZM23.6193 20.242L23.6196 20.2424C23.7304 20.4074 23.8137 20.5313 23.8323 20.556C23.8962 20.6428 24.9724 21.5713 24.9724 21.5713C24.9897 21.3848 24.56 20.7585 24.0958 20.2339C23.7162 19.8377 23.3018 19.4752 22.8574 19.1508C22.9184 19.1988 23.35 19.8411 23.6193 20.242ZM26.772 21.8043C27.1172 22.0646 27.6337 22.4541 28.7039 22.4909C30.0112 22.5377 30.3334 21.8735 30.2716 21.7738C30.2098 21.674 29.9717 21.672 29.7213 21.7738C29.7053 21.7803 29.6866 21.7884 29.6651 21.7978C29.3503 21.9349 28.4516 22.3263 27.132 21.4357C25.7224 20.4842 24.1222 18.7798 23.9246 18.3898C23.8874 18.3166 23.8082 18.1867 23.7043 18.0165C23.2549 17.2799 22.3442 15.787 22.3862 14.8522C22.3862 14.8522 22.2676 14.2598 22.2848 14.1252C22.3021 13.9905 21.8551 14.21 21.9241 14.4892C21.993 14.7685 22.676 17.1371 22.9213 17.6109C23.1665 18.0846 23.7857 18.7558 24.5427 19.5288C24.8415 19.8338 25.1646 20.1953 25.4679 20.5346C25.9331 21.055 26.3517 21.5233 26.5645 21.6561C26.6281 21.6957 26.6959 21.7469 26.772 21.8043Z" fill="#04CA73"/>
<path fill-rule="evenodd" clip-rule="evenodd" d="M30.3891 17.8822C30.3115 17.8822 30.1951 17.9639 30.077 18.0469C29.8866 18.1806 29.6918 18.3174 29.6493 18.1185C29.6159 17.9623 29.6889 17.719 29.7738 17.4364C29.864 17.136 29.9674 16.7914 29.9705 16.4599C29.9766 15.8167 29.8388 14.6159 29.5297 14.0065C29.2206 13.3971 28.9277 12.8895 28.3947 13.2086C27.9066 13.5009 28.0957 13.7429 28.303 14.0083C28.3221 14.0327 28.3413 14.0574 28.3602 14.0823C28.3806 14.1092 28.4041 14.1393 28.4298 14.1723L28.4301 14.1727C28.6867 14.5021 29.171 15.1236 29.171 15.8157C29.171 16.5776 29.0514 17.6109 28.7585 17.6767C28.4656 17.7425 27.7451 17.5072 27.0732 17.0165C26.4013 16.5258 25.3504 15.5783 25.1477 15.2911C24.945 15.0038 24.5112 14.3087 24.6318 14.194C24.7524 14.0793 24.9409 14.0245 25.1132 14.3456C25.2855 14.6667 26.1966 15.6152 26.4367 15.8356C26.4655 15.862 26.5011 15.8948 26.542 15.9326L26.5431 15.9336C26.8449 16.2122 27.4336 16.7556 27.6751 16.9187C27.7056 16.9393 27.737 16.9616 27.769 16.9843C28.0254 17.1666 28.3248 17.3793 28.569 17.0025C28.8436 16.5786 28.8619 15.6152 28.6551 15.2432C28.4484 14.8712 28.0947 14.2459 27.9883 14.0853C27.8819 13.9247 27.6751 13.6524 27.2789 13.821C26.8827 13.9895 26.9181 14.2947 27.0377 14.4134C27.0663 14.4418 27.1255 14.4876 27.1998 14.545C27.436 14.7277 27.8243 15.028 27.8636 15.2602C27.8719 15.3088 27.8823 15.363 27.893 15.4187C27.9494 15.7125 28.0139 16.0486 27.812 15.8356C27.7095 15.7276 27.5411 15.5171 27.3697 15.3028C27.1391 15.0146 26.9031 14.7195 26.8148 14.6578C26.6607 14.5501 25.5247 13.8719 25.5247 13.8719C25.5247 13.8719 24.1667 13.3134 24.0805 13.1787C23.9944 13.0441 23.7137 13.0092 23.9143 13.804C23.9433 13.9186 23.9712 14.036 23.9996 14.1551C24.168 14.8625 24.3508 15.6305 24.8365 16.2246C25.3022 16.7941 25.3858 17.0669 25.4674 17.3332C25.4852 17.3914 25.503 17.4495 25.5247 17.5101C25.6453 17.8482 26.7975 19.5587 28.2933 19.9137C29.602 20.2244 30.1605 18.9678 30.3375 18.5697C30.3628 18.5127 30.3803 18.4733 30.3911 18.4586C30.4773 18.3409 30.5958 17.8822 30.3891 17.8822ZM28.9622 18.9104C28.9285 19.1396 28.6381 19.0577 28.3656 18.9809C28.2195 18.9397 28.0786 18.9 27.9853 18.9104C27.7177 18.9403 27.1907 18.4746 26.8644 18.0986C26.5381 17.7226 26.2797 17.3406 26.383 17.2897C26.4345 17.2644 26.5628 17.3778 26.7296 17.5252C26.8975 17.6735 27.1044 17.8564 27.3113 17.9669C27.3546 17.99 27.3995 18.0144 27.4458 18.0396C27.8407 18.254 28.3309 18.5201 28.6693 18.4746C29.0473 18.4237 28.9622 18.9104 28.9622 18.9104Z" fill="#04CA73"/>
<path d="M31.8546 26.6249C31.8546 26.4793 32.1586 26.1412 32.1586 26.1412C32.4135 26.0844 32.4287 26.3638 32.4394 26.562C32.4409 26.5899 32.4424 26.6163 32.4444 26.6399L32.4457 26.6552C32.4614 26.8378 32.4729 26.972 32.2964 27.0787C32.115 27.1884 32.0025 27.1236 32.0086 26.9789C32.0117 26.9058 31.9722 26.8533 31.9325 26.8004C31.8937 26.7488 31.8546 26.6968 31.8546 26.6249Z" fill="#04CA73"/>
<path d="M32.4507 27.3659C32.4507 27.3659 32.1386 27.5593 32.1589 27.7847C32.1683 27.8899 32.161 27.9883 32.1542 28.0797C32.1465 28.1842 32.1394 28.2795 32.1589 28.3652C32.1953 28.5258 32.4568 28.5427 32.5389 28.3652C32.5574 28.3251 32.5785 28.2883 32.5988 28.2527C32.6684 28.131 32.7295 28.024 32.6534 27.8496C32.6161 27.7641 32.6062 27.6489 32.5976 27.5483C32.5835 27.3837 32.5728 27.2581 32.4507 27.3659Z" fill="#04CA73"/>
<path d="M32.2926 29.7036C32.2592 29.8811 32.6889 29.5749 32.6889 29.5749L32.6927 29.5726C32.9165 29.4353 33.0617 29.3463 32.85 28.9456C32.7006 28.6626 32.6556 28.7058 32.5911 28.7677C32.5638 28.7939 32.533 28.8234 32.4893 28.8329C32.3792 28.8568 32.3425 29.2338 32.3169 29.4961C32.3084 29.584 32.301 29.6591 32.2926 29.7036Z" fill="#04CA73"/>
<path d="M33.0305 30.1066C33.0305 30.1066 33.147 29.6757 32.8187 29.94C32.6887 30.0447 32.5951 30.0951 32.5306 30.1298C32.4322 30.1827 32.4017 30.1991 32.4133 30.316C32.4326 30.5095 32.5065 30.8147 32.6849 30.7678C32.7092 30.7614 32.736 30.757 32.7639 30.7524C32.9403 30.7232 33.1574 30.6872 33.0305 30.1066Z" fill="#04CA73"/>
<path d="M32.7414 31.5577C32.6978 31.2515 33.2268 31.0092 33.2268 31.0092C33.3427 30.9437 33.3499 31.0986 33.3586 31.2843C33.3632 31.3843 33.3683 31.4933 33.391 31.5816C33.4558 31.834 33.2765 32.1501 33.1609 32.1561C33.0454 32.1621 32.785 31.8639 32.7414 31.5577Z" fill="#04CA73"/>
</g>
<defs>
<filter id="filter0_b_467_3090" x="-19" y="-19" width="72" height="80" filterUnits="userSpaceOnUse" color-interpolation-filters="sRGB">
<feFlood flood-opacity="0" result="BackgroundImageFix"/>
<feGaussianBlur in="BackgroundImage" stdDeviation="9.5"/>
<feComposite in2="SourceAlpha" operator="in" result="effect1_backgroundBlur_467_3090"/>
<feBlend mode="normal" in="SourceGraphic" in2="effect1_backgroundBlur_467_3090" result="shape"/>
</filter>
</defs>
</svg>
