<svg width="485" height="571" viewBox="0 0 485 571" fill="none" xmlns="http://www.w3.org/2000/svg">
<path fill-rule="evenodd" clip-rule="evenodd" d="M152.5 639C321.775 639 459 501.775 459 332.5C459 163.225 321.775 26 152.5 26C-16.7753 26 -154 163.225 -154 332.5C-154 501.775 -16.7753 639 152.5 639ZM152.5 665C336.135 665 485 516.135 485 332.5C485 148.865 336.135 0 152.5 0C-31.1347 0 -180 148.865 -180 332.5C-180 516.135 -31.1347 665 152.5 665Z" fill="#EEF3F2" fill-opacity="0.5"/>
<path fill-rule="evenodd" clip-rule="evenodd" d="M152.5 626C314.596 626 446 494.596 446 332.5C446 170.404 314.596 39 152.5 39C-9.59558 39 -141 170.404 -141 332.5C-141 494.596 -9.59558 626 152.5 626ZM152.5 629C316.252 629 449 496.252 449 332.5C449 168.748 316.252 36 152.5 36C-11.2524 36 -144 168.748 -144 332.5C-144 496.252 -11.2524 629 152.5 629Z" fill="#EEF3F2" fill-opacity="0.5"/>
</svg>
