<svg width="271" height="206" viewBox="0 0 271 206" fill="none" xmlns="http://www.w3.org/2000/svg">
<g opacity="0.2">
<path d="M64.1992 168.632L120.013 205.213L149.238 130.12L64.1992 168.632Z" fill="#DEDEDE"/>
</g>
<g opacity="0.2">
<path d="M220.088 261.733L297.358 290.185L274.815 183.884L220.088 261.733Z" fill="#DEDEDE"/>
</g>
<path d="M195.492 161.57C196.812 163.013 197.543 164.897 197.543 166.852C197.543 168.807 196.812 170.691 195.492 172.134C194.825 172.788 194.029 173.296 193.155 173.626C192.281 173.957 191.348 174.102 190.415 174.053C189.482 174.003 188.57 173.761 187.736 173.341C186.901 172.92 186.163 172.331 185.569 171.611C184.249 170.168 183.518 168.284 183.518 166.329C183.518 164.374 184.249 162.49 185.569 161.047C186.236 160.393 187.032 159.885 187.906 159.554C188.779 159.224 189.713 159.079 190.645 159.128C191.578 159.177 192.491 159.42 193.325 159.84C194.16 160.26 194.897 160.85 195.492 161.57V161.57Z" fill="#DEDEDE"/>
<path d="M278.377 180.303C279.319 181.334 279.841 182.679 279.841 184.076C279.841 185.472 279.319 186.818 278.377 187.848C277.9 188.315 277.332 188.678 276.707 188.914C276.083 189.149 275.416 189.252 274.75 189.216C274.084 189.18 273.432 189.006 272.837 188.705C272.241 188.403 271.715 187.982 271.292 187.466C270.345 186.437 269.82 185.091 269.82 183.693C269.82 182.296 270.345 180.949 271.292 179.921C271.768 179.454 272.337 179.091 272.961 178.855C273.586 178.62 274.252 178.517 274.918 178.553C275.585 178.589 276.236 178.763 276.832 179.064C277.427 179.366 277.953 179.787 278.377 180.303V180.303Z" fill="#DEDEDE"/>
<path d="M204.971 56.8786C205.54 57.4953 205.855 58.3034 205.855 59.1422C205.855 59.981 205.54 60.7891 204.971 61.4058C204.686 61.687 204.346 61.9056 203.972 62.0479C203.598 62.1901 203.198 62.2529 202.799 62.232C202.399 62.2112 202.008 62.1073 201.651 61.9269C201.294 61.7466 200.978 61.4937 200.724 61.1845C200.156 60.5677 199.84 59.7597 199.84 58.9209C199.84 58.0821 200.156 57.274 200.724 56.6572C201.009 56.3761 201.349 56.1574 201.723 56.0152C202.097 55.8729 202.497 55.8102 202.896 55.8311C203.296 55.8519 203.687 55.9558 204.044 56.1362C204.401 56.3165 204.717 56.5694 204.971 56.8786V56.8786Z" fill="#DEDEDE"/>
<path d="M6.87638 196.4C7.62318 197.228 8.03651 198.303 8.03651 199.418C8.03651 200.533 7.62318 201.608 6.87638 202.436C6.49062 202.81 6.03182 203.1 5.5287 203.289C5.02558 203.477 4.48895 203.56 3.9524 203.531C3.41585 203.503 2.89093 203.364 2.41047 203.124C1.93001 202.884 1.50435 202.547 1.16013 202.134C0.41333 201.306 0 200.231 0 199.116C0 198.001 0.41333 196.926 1.16013 196.098C1.54443 195.721 2.00283 195.428 2.50626 195.238C3.00969 195.048 3.54717 194.964 4.08461 194.993C4.62205 195.021 5.14773 195.161 5.62832 195.403C6.1089 195.645 6.53391 195.985 6.87638 196.4V196.4Z" fill="#DEDEDE"/>
<path d="M149.238 130.12C149.612 130.534 149.818 131.072 149.818 131.629C149.818 132.187 149.612 132.724 149.238 133.138C148.843 133.495 148.322 133.68 147.79 133.654C147.258 133.627 146.759 133.391 146.4 132.997C146.027 132.583 145.82 132.046 145.82 131.488C145.82 130.931 146.027 130.393 146.4 129.979C146.796 129.622 147.317 129.437 147.848 129.463C148.38 129.49 148.88 129.726 149.238 130.12Z" fill="#DEDEDE"/>
<path d="M91.3934 163.26C91.5801 163.467 91.6835 163.736 91.6835 164.015C91.6835 164.294 91.5801 164.562 91.3934 164.769C91.3031 164.866 91.194 164.942 91.0728 164.995C90.9516 165.047 90.821 165.074 90.689 165.074C90.5569 165.074 90.4263 165.047 90.3052 164.995C90.184 164.942 90.0749 164.866 89.9845 164.769C89.789 164.567 89.6797 164.296 89.6797 164.015C89.6797 163.733 89.789 163.463 89.9845 163.26C90.0732 163.161 90.1818 163.082 90.3032 163.028C90.4246 162.974 90.556 162.946 90.689 162.946C90.8219 162.946 90.9534 162.974 91.0747 163.028C91.1961 163.082 91.3047 163.161 91.3934 163.26V163.26Z" fill="#DEDEDE"/>
<path d="M109.748 112.937C109.943 113.139 110.053 113.41 110.053 113.691C110.053 113.973 109.943 114.243 109.748 114.446C109.657 114.542 109.548 114.619 109.427 114.671C109.306 114.724 109.175 114.751 109.043 114.751C108.911 114.751 108.781 114.724 108.66 114.671C108.538 114.619 108.429 114.542 108.339 114.446C108.152 114.239 108.049 113.97 108.049 113.691C108.049 113.413 108.152 113.144 108.339 112.937C108.429 112.84 108.538 112.764 108.66 112.711C108.781 112.659 108.911 112.632 109.043 112.632C109.175 112.632 109.306 112.659 109.427 112.711C109.548 112.764 109.657 112.84 109.748 112.937V112.937Z" fill="#DEDEDE"/>
<path d="M185.85 47.925C186.046 48.1275 186.155 48.398 186.155 48.6795C186.155 48.961 186.046 49.2315 185.85 49.4341C185.76 49.5303 185.651 49.607 185.53 49.6595C185.409 49.7119 185.278 49.739 185.146 49.739C185.014 49.739 184.883 49.7119 184.762 49.6595C184.641 49.607 184.532 49.5303 184.442 49.4341C184.246 49.2315 184.137 48.961 184.137 48.6795C184.137 48.398 184.246 48.1275 184.442 47.925C184.532 47.8287 184.641 47.752 184.762 47.6996C184.883 47.6472 185.014 47.6201 185.146 47.6201C185.278 47.6201 185.409 47.6472 185.53 47.6996C185.651 47.752 185.76 47.8287 185.85 47.925V47.925Z" fill="#DEDEDE"/>
<path d="M66.3936 167.525C66.9622 168.142 67.2779 168.95 67.2779 169.789C67.2779 170.628 66.9622 171.436 66.3936 172.053C66.1089 172.334 65.7686 172.552 65.3946 172.695C65.0205 172.837 64.6209 172.9 64.2213 172.879C63.8216 172.858 63.4307 172.754 63.0735 172.574C62.7163 172.393 62.4006 172.14 62.1467 171.831C61.5823 171.212 61.2695 170.405 61.2695 169.568C61.2695 168.73 61.5823 167.923 62.1467 167.304C62.4329 167.026 62.7735 166.809 63.1473 166.669C63.521 166.528 63.9197 166.467 64.3185 166.487C64.7172 166.508 65.1074 166.611 65.4645 166.79C65.8216 166.968 66.1379 167.219 66.3936 167.525V167.525Z" fill="#DEDEDE"/>
<path d="M220.491 262.055L219.686 261.391L274.413 183.542L275.218 184.206L220.491 262.055Z" fill="#DEDEDE"/>
<g opacity="0.3">
<path d="M159.324 229.559L63.0938 169.598L147.489 131.126L202.699 58.3477L203.061 58.569L284.86 105.633L284.417 106.578L202.981 59.7159L148.133 132.012L148.032 132.052L65.3078 169.759L159.807 228.654L159.324 229.559Z" fill="#DEDEDE"/>
</g>
<path d="M190.923 167.586L147.508 131.971L148.091 131.146L190.118 165.614L202.376 58.7097L202.537 58.589L278.357 2.65186L278.559 2.6921L356.211 20.3384L356.05 21.3847L278.619 3.79877L203.322 59.3536L190.923 167.586Z" fill="#DEDEDE"/>
<g opacity="0.3">
<path d="M129.796 292.619L9.09026 270.969L9.07013 270.526L3.01172 195.655L4.0181 195.595L10.0363 270.064L129.916 291.573L129.796 292.619Z" fill="#DEDEDE"/>
</g>
</svg>
