<svg width="368" height="256" viewBox="0 0 368 256" fill="none" xmlns="http://www.w3.org/2000/svg">
<g filter="url(#filter0_d_467_3139)">
<g filter="url(#filter1_d_467_3139)">
<rect width="202.36" height="118.509" rx="13" transform="matrix(0.923576 -0.383415 0.793881 0.608073 50.6768 139.938)" fill="url(#paint0_linear_467_3139)"/>
</g>
</g>
<g filter="url(#filter2_bd_467_3139)">
<g filter="url(#filter3_d_467_3139)">
<rect width="202.36" height="118.509" rx="13" transform="matrix(0.866044 -0.499967 0.866044 0.499967 45 134.173)" fill="#E7FFFF" fill-opacity="0.1"/>
</g>
</g>
<g filter="url(#filter4_d_467_3139)">
<path d="M100.682 81.1914C100.682 81.1914 102.042 80.9385 102.901 80.6218C102.969 80.5963 103.024 80.5605 103.058 80.5182C103.093 80.476 103.108 80.429 103.099 80.3822C103.069 80.1837 102.967 79.8722 102.629 79.9345C102.581 79.9432 102.529 79.9519 102.475 79.9611C101.972 80.0462 101.218 80.1738 100.69 80.7146C100.104 81.3141 100.516 81.241 100.682 81.1914Z" fill="#49BF79"/>
<path d="M96.4326 84.3642C96.4326 84.3642 96.283 84.1973 96.4562 84.0974C96.5064 84.0684 96.574 84.0201 96.6503 83.9656C96.8371 83.8321 97.0764 83.6611 97.2426 83.6434C97.4766 83.6184 97.7101 83.8238 97.5473 83.9188C97.3846 84.0137 96.4894 84.4775 96.4326 84.3642Z" fill="#49BF79"/>
<path d="M86.8896 103.045C87.3764 103.425 87.8319 103.13 87.8319 103.13C87.9362 103.084 87.9202 102.966 87.9008 102.823C87.8897 102.742 87.8775 102.652 87.8858 102.562C87.9035 102.372 87.7938 102.255 87.583 102.031C87.5213 101.966 87.451 101.891 87.3727 101.803C87.0267 101.412 87.5461 100.961 87.6521 100.9C87.758 100.839 88.0389 101.179 88.1059 101.722C88.1247 101.875 88.1227 102.031 88.1206 102.188C88.1154 102.59 88.1102 102.997 88.4518 103.361C88.9272 103.869 89.5907 103.856 89.7676 103.658C89.8495 103.566 89.7714 103.453 89.6647 103.298C89.541 103.119 89.3789 102.884 89.3832 102.563C89.3874 102.246 89.2777 102.014 89.1798 101.806C89.0923 101.621 89.0143 101.455 89.0357 101.268C89.0506 100.949 89.0156 100.629 88.9311 100.313C87.8076 98.5276 88.3135 95.1781 88.4613 94.1995C88.4802 94.0743 88.4933 93.9879 88.4963 93.9486C88.5062 93.8196 88.5675 93.6658 88.6273 93.5158C88.7282 93.2627 88.8248 93.0205 88.6626 92.9268C88.4043 92.7777 88.1201 92.7767 87.9196 92.9255C87.7191 93.0743 87.1299 94.8365 86.8811 96.2701C86.6323 97.7037 87.4166 99.7019 87.6563 100.092C87.896 100.482 87.5082 100.346 87.0748 100.096C86.8076 99.942 86.7271 99.8078 86.6441 99.6696C86.5926 99.5836 86.5401 99.4961 86.4411 99.4013C86.1832 99.1539 85.929 99.5989 85.9871 99.7965C86.0048 99.8569 85.9934 99.9464 85.9804 100.048C85.9508 100.28 85.9131 100.575 86.1918 100.736C86.5931 100.968 86.5953 101.199 86.4823 101.561C86.3694 101.924 86.4028 102.666 86.8896 103.045Z" fill="#49BF79"/>
<path d="M88.2835 92.3441C88.2614 92.3827 88.2551 92.4238 88.2652 92.4642C88.2754 92.5045 88.3016 92.543 88.3418 92.5766C88.3666 92.5979 88.3985 92.616 88.4357 92.63C88.4729 92.6439 88.5146 92.6534 88.5582 92.6578C88.8219 92.6828 88.9908 92.4471 89.0061 92.2412C89.0214 92.0352 89.4674 90.9601 89.4674 90.9601C89.4674 90.9601 88.5342 91.8901 88.2835 92.3441Z" fill="#49BF79"/>
<path d="M90.9033 103.991C91.4485 103.998 91.3417 103.738 91.3417 103.738C91.4313 103.39 91.1601 102.735 90.9877 102.319C90.9323 102.185 90.8871 102.076 90.8674 102.01C90.7864 101.738 90.3398 100.179 90.2552 99.7174C90.2361 99.6127 90.192 99.5331 90.139 99.4372C89.9582 99.1101 89.6726 98.5935 89.9097 96.2481C90.2163 93.2149 90.7738 89.9268 94.4835 87.634C98.1932 85.3413 105.406 84.3927 105.406 84.3927C105.443 84.3416 105.461 84.2867 105.46 84.2312C105.459 84.1758 105.439 84.121 105.4 84.07C105.362 84.0191 105.306 83.9731 105.236 83.9348C105.166 83.8966 105.084 83.8668 104.994 83.8473C97.9517 84.7752 94.1412 86.6577 92.7575 87.8479C91.3737 89.038 90.6421 90.4962 90.1364 91.5697C89.6485 92.6056 89.2198 94.9044 88.9603 96.2959L88.9327 96.4438C88.6766 97.8146 89.0121 99.5944 89.2318 100.11C89.4515 100.626 90.1927 102.499 90.1642 102.973C90.1356 103.448 90.358 103.983 90.9033 103.991Z" fill="#49BF79"/>
<path d="M103.831 81.9023C97.2494 83.5743 94.645 85.5883 93.9597 86.214C93.9389 86.2333 93.9295 86.256 93.9328 86.2787C93.9362 86.3015 93.9521 86.323 93.9784 86.3402C94.0046 86.3573 94.0396 86.3691 94.0783 86.3739C94.117 86.3787 94.1572 86.3761 94.193 86.3666C94.521 86.2672 94.8282 86.1466 95.1086 86.0071C95.5534 85.7977 95.9999 85.6069 96.4191 85.4277C97.0615 85.1532 97.6398 84.906 98.0494 84.6617C98.7263 84.2579 100.632 83.3869 102.051 83.0159C103.471 82.6449 104.071 82.4914 104.071 82.4914C104.071 82.4914 104.311 82.3771 104.226 82.1355C104.142 81.8939 103.831 81.9023 103.831 81.9023Z" fill="#49BF79"/>
<path d="M104.665 83.4297C105.216 83.0631 104.399 82.7963 104.399 82.7963C104.399 82.7963 101.252 83.5757 99.7267 84.0787C98.2018 84.5817 98.1409 85.2834 99.1864 84.8139C99.7096 84.579 100.943 84.3243 102.114 84.0826C103.282 83.8413 104.389 83.6129 104.665 83.4297Z" fill="#49BF79"/>
<path d="M98.134 82.9276C98.1179 82.9479 98.1128 82.9706 98.1192 82.9927C98.1256 83.0148 98.1434 83.0353 98.1702 83.0516C98.1969 83.0679 98.2315 83.0793 98.2694 83.0842C98.3073 83.0891 98.3468 83.0874 98.3828 83.0792C98.7703 82.9906 99.3699 82.8346 99.7482 82.6482C100.344 82.3545 102.316 81.766 103.403 81.57C104.095 81.4425 103.494 80.8269 103.094 80.9359C102.879 80.9949 102.564 81.0772 102.213 81.1689C101.379 81.387 100.342 81.6579 99.9742 81.7932C99.5345 81.955 98.4997 82.4863 98.134 82.9276Z" fill="#49BF79"/>
<path d="M105.003 85.418C102.97 85.7241 98.0004 86.4721 93.6313 89.8002C93.2511 90.0932 93.1778 90.4889 93.1226 90.787C93.0981 90.9192 93.0771 91.0322 93.0345 91.1085C92.746 91.6047 92.5189 92.1124 92.3551 92.6276C92.0514 93.6841 91.9308 94.7562 91.9949 95.8278C92.0786 96.9144 93.0478 98.7577 93.2939 99.2071C93.54 99.6565 93.6919 100.891 93.6937 101.228C93.6956 101.565 94.5294 102.827 95.1416 103.715C95.7539 104.602 95.0225 104.852 94.3155 104.332C93.6085 103.811 92.9612 101.564 92.8885 101.074C92.8158 100.585 91.8764 97.6886 91.7241 97.4893C91.5718 97.29 91.2174 97.4216 91.2633 97.7554C91.2839 97.9056 91.4423 98.3733 91.6163 98.8876C91.8291 99.516 92.0653 100.214 92.1025 100.486C92.17 100.982 93.3122 103.664 93.3122 103.664C93.3122 103.664 93.7194 104.177 93.1384 104.27C92.5574 104.362 92.1865 104.017 92.0772 103.452C92.0303 103.21 91.7022 102.192 91.3461 101.087C90.8711 99.6135 90.3464 97.9854 90.3738 97.8415C90.3906 97.7532 90.4805 97.6243 90.5911 97.466C90.7956 97.173 91.0705 96.7792 91.0828 96.3544C91.0895 96.1226 91.0504 95.862 91.0099 95.5922C90.9361 95.1004 90.8577 94.578 91.044 94.1441C91.1049 94.002 91.1315 93.7778 91.1655 93.4902C91.2924 92.4176 91.5237 90.4632 94.0352 88.6013C97.2201 86.2403 102.735 84.907 105.689 84.7538C105.689 84.7538 106.254 84.9508 105.934 85.2301C105.867 85.288 105.536 85.3379 105.003 85.418Z" fill="#49BF79"/>
<path d="M93.1091 97.5805C93.1091 97.5805 92.3011 95.3448 92.815 93.7311C93.0119 93.113 93.155 92.5867 93.274 92.1491C93.4657 91.4442 93.5948 90.9693 93.7853 90.7111C93.8031 90.687 93.8227 90.6591 93.8448 90.6278L93.8452 90.6272C94.2069 90.1139 95.234 88.6563 99.8598 86.9841C104.771 85.2088 106.569 85.691 106.64 85.95C106.702 86.1754 105.941 86.3003 104.807 86.4863C104.638 86.5141 104.46 86.5432 104.276 86.5742C102.857 86.813 100.377 87.3652 99.0343 88.1803C97.6917 88.9954 95.9079 91.125 95.9098 91.324C95.9118 91.5231 95.4092 91.2538 95.7694 90.9257C95.9606 90.7516 96.0305 90.5574 96.0924 90.3852C96.1472 90.2329 96.1958 90.0979 96.3165 90.0094C96.5738 89.8208 96.9186 89.5017 96.6767 89.3621C96.4349 89.2225 95.4877 89.8084 95.1961 90.2169C94.9681 90.5364 94.3956 91.6658 94.0764 92.2955C93.9875 92.4709 93.9183 92.6075 93.8816 92.6771C93.8453 92.7458 93.8025 92.8163 93.7596 92.8868C93.6034 93.144 93.447 93.4013 93.61 93.5735C93.8177 93.7928 93.9323 94.5352 93.7929 94.7919C93.6534 95.0485 93.3499 96.5838 93.4731 96.8329C93.5963 97.082 93.6028 97.3285 93.1091 97.5805Z" fill="#49BF79"/>
<path d="M94.9773 93.961C94.778 94.8006 94.293 94.7453 94.293 94.7453C94.1173 94.6245 94.4141 93.8637 94.6019 93.3826C94.6745 93.1964 94.7309 93.0519 94.7371 93.0028C94.7595 92.8268 95.2852 92.8956 95.2145 92.9363C95.1776 92.9577 95.1689 93.0073 95.1406 93.1699C95.1147 93.3182 95.0724 93.5605 94.9773 93.961Z" fill="#49BF79"/>
<path d="M96.0735 93.121C96.0735 93.121 95.7742 93.2147 95.9049 92.769C96.0355 92.3233 97.2084 89.5536 99.4761 88.3766C101.744 87.1995 105.526 86.4991 106.336 86.4691C107.145 86.4392 107.596 87.0516 107.424 87.0976C107.398 87.1047 107.265 87.1193 107.051 87.1428C105.871 87.2723 102.242 87.6706 100.621 88.5502C98.7068 89.5893 97.5485 91.0786 97.2553 91.8173L97.2157 91.9175C96.954 92.5807 96.8537 92.8347 96.0735 93.121Z" fill="#49BF79"/>
<path d="M98.2806 91.673C98.3132 91.6734 98.3453 91.6684 98.3729 91.6584C99.3286 91.3216 99.6848 90.951 100.089 90.5303C100.479 90.1242 100.915 89.6715 101.977 89.1575C103.646 88.3494 105.848 88.3494 107.106 88.3494C107.559 88.3494 107.889 88.3494 108.027 88.3116C108.55 88.1689 107.964 87.7119 107.61 87.5731C107.255 87.4343 104.877 87.3242 101.627 88.5388C98.9988 89.5207 98.2925 91.0193 98.1191 91.5577C98.1131 91.5762 98.1165 91.5953 98.1289 91.6128C98.1414 91.6302 98.1624 91.6452 98.1893 91.6559C98.2163 91.6666 98.248 91.6725 98.2806 91.673Z" fill="#49BF79"/>
<path d="M101.602 90.3537L101.291 90.4439C101.283 90.4464 101.273 90.4472 101.263 90.4463C101.254 90.4454 101.245 90.4427 101.238 90.4388C101.231 90.4348 101.227 90.4297 101.225 90.4241C101.223 90.4186 101.225 90.4129 101.229 90.4079C101.487 90.159 102.392 89.3825 103.803 89.0219C105.049 88.7029 106.436 88.6651 107.078 88.6677C107.098 88.6681 107.117 88.6724 107.133 88.6798C107.149 88.6873 107.16 88.6975 107.165 88.7089C107.169 88.7203 107.167 88.7323 107.159 88.7429C107.15 88.7535 107.136 88.7622 107.118 88.7676L101.602 90.3537Z" fill="#49BF79"/>
<path d="M96.9972 104.816C97.607 104.793 97.3584 104.508 97.3584 104.508C97.1105 103.963 96.8334 103.677 96.5601 103.396C96.2605 103.087 95.9655 102.783 95.7185 102.148C95.2462 100.933 94.2212 100.574 94.4267 100.706C94.6322 100.837 94.8002 101.853 94.8016 102.113C94.803 102.372 95.7898 103.977 95.9709 104.224L95.9982 104.261C96.1762 104.506 96.4174 104.838 96.9972 104.816Z" fill="#49BF79"/>
<path d="M99.3161 104.822C99.3161 104.822 99.453 105.044 98.9802 105.016C98.5075 104.989 98.1014 104.523 97.7383 104.015C97.5688 103.778 97.2543 103.432 96.9567 103.105C96.6169 102.731 96.2993 102.382 96.2451 102.247C96.1435 101.993 96.7735 102.332 96.9555 102.437C96.9727 102.447 96.9975 102.461 97.0286 102.478C97.3284 102.644 98.2201 103.138 98.6708 103.739C98.9447 104.088 99.1608 104.45 99.3161 104.822Z" fill="#49BF79"/>
<path d="M100.948 105.195C101.725 105.307 101.565 104.93 101.565 104.93C101.53 104.716 101.14 104.426 101.002 104.347C100.933 104.306 100.767 104.26 100.574 104.206C100.385 104.153 100.171 104.093 99.9981 104.025C99.6483 103.888 99.3222 103.816 99.3451 103.907C99.3574 103.955 99.4829 104.1 99.6107 104.247C99.7225 104.376 99.836 104.507 99.8767 104.577C99.9402 104.727 100.074 104.863 100.263 104.973C100.452 105.082 100.689 105.159 100.948 105.195Z" fill="#49BF79"/>
<path d="M102.609 104.887C102.609 104.887 102.244 104.775 102.127 104.789C102.009 104.803 102.086 105.072 102.271 105.199C102.373 105.27 102.504 105.277 102.636 105.284C102.742 105.289 102.849 105.294 102.942 105.333C103.152 105.42 103.069 105.208 102.926 105.069C102.85 104.993 102.741 104.93 102.609 104.887Z" fill="#49BF79"/>
<path d="M95.6105 98.5122C95.8059 99.9586 97.2601 101.073 97.2601 101.073C97.2601 101.073 97.7659 101.137 97.3172 100.764C96.8684 100.392 96.7962 99.507 96.8977 99.4284L96.9002 99.4265C96.9288 99.4043 96.9477 99.3897 96.9639 99.3906C96.9957 99.3926 97.0171 99.4547 97.0804 99.6385C97.0964 99.685 97.1151 99.7393 97.1374 99.8024C97.2936 100.246 98.9932 102.461 99.6937 102.905C100.394 103.349 100.633 103.232 100.735 103.173C100.836 103.114 99.4975 101.144 99.1888 100.947C98.964 100.803 98.5008 100.107 98.167 99.6056C98.0425 99.4185 97.9359 99.2583 97.8666 99.1643C97.6392 98.8556 97.4649 98.8473 97.3447 98.8415C97.3301 98.8408 97.3162 98.8402 97.3032 98.839C97.2509 98.8344 97.1828 98.8764 97.1119 98.92C97.0199 98.9768 96.9233 99.0363 96.8513 98.9998C96.7868 98.9671 96.7576 98.7367 96.7268 98.4941C96.6968 98.2577 96.6653 98.0097 96.5983 97.9219C96.5436 97.8502 96.4878 97.6794 96.4248 97.487C96.3317 97.2022 96.223 96.8699 96.0795 96.7413C95.839 96.5259 95.7203 96.6334 95.7203 96.6334C95.7203 96.6334 95.4151 97.0658 95.6105 98.5122Z" fill="#49BF79"/>
<path d="M99.8456 99.3828C99.8456 99.3828 100.23 99.9237 99.604 100.229C99.1747 100.438 98.7737 99.8773 98.4047 99.361C98.236 99.125 98.0739 98.8982 97.9189 98.7588C97.4248 98.3145 96.1508 96.3458 96.1642 96.101C96.1775 95.8561 96.5465 95.3799 96.8224 95.4407C96.9798 95.4754 97.0094 95.6217 97.0471 95.8087C97.0756 95.9495 97.1087 96.1133 97.2045 96.2699C97.2538 96.3503 97.3199 96.467 97.397 96.6031C97.6697 97.084 98.0796 97.8071 98.365 98.0269C98.7312 98.3089 99.8456 99.3828 99.8456 99.3828Z" fill="#49BF79"/>
<path d="M100.566 100.405C100.619 100.435 100.662 100.47 100.69 100.509C100.68 100.299 100.646 100.088 100.587 99.8798C100.474 99.3943 99.9725 98.9793 99.5624 98.7357C99.1524 98.492 98.8085 97.8579 98.8085 97.8579C97.222 95.5562 97.2728 94.8525 97.2912 94.598C97.2932 94.5702 97.2948 94.5477 97.2938 94.5291C97.2842 94.3405 98.0207 93.7683 98.2861 93.643C98.465 93.5586 98.5733 93.7005 98.7414 93.9207C98.8228 94.0272 98.9181 94.152 99.0421 94.2784C99.4227 94.6662 99.9236 95.2636 99.9504 95.4193C99.9772 95.575 100.19 96.2777 100.482 96.4842C100.73 96.6594 101.428 97.2715 102.037 97.8062L102.038 97.8071C102.146 97.9024 102.252 97.9953 102.352 98.0828C103.013 98.6612 104.211 99.2958 104.316 99.301C104.421 99.3062 107.016 100.001 107.761 100.253C108.506 100.504 111.869 101.127 112.588 101.15C113.307 101.172 113.515 101.292 113.407 101.623C113.299 101.953 112.971 102.001 112.971 102.001C110.566 101.92 107.897 101.018 106.738 100.626C106.305 100.48 106.083 100.404 106.163 100.47C106.457 100.709 108.396 101.425 109.24 101.685C110.032 101.93 112.241 102.313 112.65 102.384L112.706 102.393C112.875 102.423 113.068 102.932 112.454 103.075C111.841 103.218 109.096 102.474 108.363 102.205C107.631 101.937 104.209 100.427 102.584 99.2899C101.556 98.5824 100.673 97.809 99.9529 96.9851C99.8299 96.8489 99.6659 96.5226 99.506 96.2044C99.3609 95.9157 99.2192 95.6337 99.1145 95.5066C99.0476 95.4253 98.959 95.3122 98.8653 95.1923C98.6506 94.918 98.4085 94.6087 98.3361 94.5669C98.2321 94.5069 98.1148 94.5605 98.0583 94.6442C98.0253 94.693 98.1993 95.0204 98.3674 95.3367C98.4878 95.5631 98.6051 95.7839 98.6414 95.8928C98.7115 96.1032 99.3077 97.0181 99.6394 97.527L99.6402 97.5284C99.7196 97.6501 99.7837 97.7486 99.8218 97.8084C100.019 98.118 103.16 100.298 105.372 101.363C107.584 102.429 110.973 103.282 111.451 103.358C111.742 103.398 112.009 103.483 112.222 103.605C112.308 103.654 112.055 104.266 111.873 104.343C111.691 104.42 110.676 103.932 110.346 103.77C110.017 103.608 106.22 102.328 106.356 102.56C106.491 102.792 108.86 103.697 109.348 103.853C109.451 103.886 109.621 103.928 109.825 103.978C110.591 104.167 111.826 104.473 111.693 104.828C111.524 105.277 110.971 105.082 110.971 105.082C108.96 104.631 107.187 103.882 105.832 102.911C105.65 102.806 104.518 102.027 104.19 101.796C103.861 101.564 102.711 100.817 102.603 100.88C102.525 100.924 102.596 101.002 102.739 101.157C102.796 101.218 102.864 101.292 102.939 101.381C103.201 101.693 105.032 102.868 105.524 103.11C106.016 103.352 107.713 104.29 107.968 104.521C108.151 104.687 108.43 105.079 108.647 105.385C108.732 105.506 108.809 105.613 108.865 105.688C109.027 105.899 109.457 106.143 109.741 106.304C109.811 106.344 109.872 106.379 109.918 106.407C110.097 106.522 110.233 106.657 110.318 106.803C110.403 106.95 110.435 107.105 110.413 107.258C110.348 107.633 109.817 108.023 109.745 107.981C109.71 107.961 109.583 107.74 109.436 107.485C109.27 107.198 109.081 106.869 108.974 106.741C108.885 106.634 108.782 106.425 108.678 106.216C108.546 105.951 108.415 105.686 108.313 105.627C108.131 105.522 106.764 104.627 106.526 104.427C106.288 104.227 104.83 103.364 104.714 103.409C104.599 103.455 105.581 104.447 105.941 104.765C106.301 105.083 105.491 104.813 105.181 104.698C104.801 104.541 104.485 104.337 104.258 104.101C104.182 104.009 103.983 103.857 103.777 103.698C103.515 103.496 103.24 103.285 103.186 103.175C103.157 103.114 103.147 103.023 103.136 102.915C103.111 102.672 103.077 102.348 102.786 102.122C102.366 101.796 101.18 101.111 101.18 101.111C101.18 101.111 101.202 101.983 101.756 102.219C102.31 102.454 102.603 102.733 102.671 103.019C102.739 103.305 102.925 103.663 103.236 103.842C103.546 104.021 103.62 104.231 103.365 104.23C103.11 104.23 102.2 103.85 101.798 103.619C101.397 103.387 99.7473 101.097 99.6369 100.828C99.6243 100.798 99.6118 100.77 99.6001 100.744C99.5101 100.542 99.4785 100.472 99.9523 100.356C100.017 100.336 100.089 100.324 100.162 100.321C100.236 100.318 100.31 100.324 100.379 100.339C100.448 100.353 100.512 100.376 100.566 100.405Z" fill="#49BF79"/>
<path d="M109.181 105.048C109.127 105.07 109.082 105.098 109.047 105.131C109.012 105.163 108.989 105.199 108.978 105.236C108.968 105.274 108.97 105.312 108.985 105.35C109.001 105.387 109.028 105.422 109.067 105.453C109.256 105.616 109.601 105.812 109.86 105.959C109.982 106.029 110.085 106.088 110.142 106.126C110.223 106.181 110.322 106.3 110.416 106.412C110.528 106.547 110.631 106.672 110.684 106.661C110.782 106.641 111.124 106.318 111.082 106.039C111.04 105.76 110.877 105.443 110.522 105.247C110.167 105.05 109.557 104.831 109.181 105.048Z" fill="#49BF79"/>
<path d="M99.813 92.8116C99.9763 92.8064 100.045 93.1882 100.045 93.1882C100.045 93.1882 100.818 94.4062 100.945 94.6663C101.071 94.9264 102.134 96.6756 103.195 97.0342C104.119 97.3468 104.802 97.8297 105.344 98.2131C105.423 98.2694 105.5 98.3236 105.574 98.3748C106.15 98.7744 108.921 99.4045 109.351 99.4676C109.781 99.5307 113.229 100.103 113.229 100.103L114.302 100.15C114.302 100.15 114.397 100.95 113.01 100.896C111.624 100.841 106.651 99.6842 104.711 98.8396C102.771 97.9951 101.762 97.1688 101.474 96.9148C101.339 96.7961 101.086 96.4094 100.811 95.9871C100.497 95.5062 100.153 94.9791 99.9178 94.7487C99.4765 94.3159 99.0314 93.3409 99.0008 93.1254C98.9703 92.9099 99.6498 92.8168 99.813 92.8116Z" fill="#49BF79"/>
<path d="M103.879 96.0288C103.577 95.8347 103.319 95.6191 103.112 95.3874C102.861 95.0742 102.355 94.6024 101.908 94.6924C101.461 94.7824 101.054 95.1393 102.166 95.7808C102.513 95.9811 102.851 96.2058 103.211 96.4446C104.004 96.9701 104.899 97.564 106.213 98.1176C108.125 98.9226 112.332 99.9044 115.502 99.8369C117.385 99.7967 117.865 99.7288 118.271 99.6714C118.547 99.6322 118.79 99.5979 119.421 99.5806C120.977 99.5381 125.869 97.6156 126.867 96.8702C127.866 96.1248 127.626 95.6385 127.48 95.4936C127.334 95.3487 126.846 95.2486 126.834 95.4236L126.833 95.4244C126.821 95.6014 126.756 96.5521 123.365 97.7921C119.969 99.034 118.533 99.0707 118.23 99.0777C118.078 99.0811 117.217 99.0777 116.346 99.0743L116.346 99.0743L116.343 99.0743L116.342 99.0742C115.467 99.0708 114.583 99.0673 114.405 99.0707C114.05 99.0776 109.792 98.6947 109.448 98.496C109.364 98.4477 109.703 98.4839 110.326 98.5505C112.261 98.7573 116.939 99.2573 120.207 98.4243C124.527 97.3234 125.446 96.5459 125.852 96.0822L125.914 96.012C126.299 95.5735 126.663 95.1583 126.462 95.0424C126.251 94.9203 125.814 94.683 125.603 94.8049C125.528 94.8484 125.421 95.0114 125.287 95.2165C125.046 95.5851 124.717 96.0895 124.32 96.2795C124.059 96.4039 123.703 96.5215 123.322 96.6476C122.796 96.8211 122.222 97.0109 121.78 97.257C121.018 97.6821 118.501 98.0661 117.75 98.0717C117.638 98.0725 117.474 98.0862 117.253 98.1044C115.984 98.2093 112.865 98.4671 107.433 97.3222C107.433 97.3222 104.442 96.4553 103.879 96.0288Z" fill="#49BF79"/>
<path d="M119.434 99.8526C119.566 99.7421 120.955 99.591 120.955 99.591C120.955 99.591 121.703 99.6637 125.076 98.1235C127.869 96.8485 127.941 96.2426 127.967 96.0233C127.973 95.9777 127.976 95.9488 128.002 95.9341C128.15 95.8485 128.756 96.133 128.873 96.2878C128.99 96.4427 128.498 97.0358 128.085 97.3249C127.832 97.5024 127.595 97.6253 127.065 97.9005C126.731 98.0736 126.281 98.3069 125.638 98.6518C124.516 99.2363 123.194 99.6788 121.756 99.9511C121.645 99.9691 121.479 100.083 121.311 100.2C121.165 100.3 121.017 100.402 120.901 100.445C120.649 100.537 120.222 100.427 119.91 100.263L119.865 100.24L119.832 100.223C119.551 100.078 119.313 99.9538 119.434 99.8526Z" fill="#49BF79"/>
<path d="M122.585 100.072C122.585 100.072 121.536 100.163 121.522 100.377C121.508 100.592 122.013 100.916 122.78 100.644C123.13 100.52 123.689 100.333 124.228 100.152C124.872 99.9357 125.487 99.7291 125.688 99.6508C126.057 99.5068 127.091 99.0812 127.768 98.6899C128.181 98.4518 128.472 98.1501 128.701 97.9139C128.848 97.7619 128.968 97.6369 129.078 97.5734C129.359 97.4113 130.183 96.9355 130.055 96.8095C129.956 96.7133 129.646 96.6131 129.458 96.5524C129.4 96.5338 129.354 96.5188 129.329 96.5089C129.223 96.4668 129.018 96.6196 128.944 96.7651C128.871 96.9106 128.21 97.6512 127.801 97.9258C127.391 98.2004 126.212 98.915 124.89 99.377C124.149 99.6375 123.379 99.8697 122.585 100.072Z" fill="#49BF79"/>
<path d="M125.827 100.581C129.884 98.8727 130.276 97.6354 130.276 97.6354C130.276 97.6354 130.497 97.3539 130.008 97.3106C129.626 97.2767 129.409 97.589 129.205 97.8815C129.149 97.9622 129.094 98.0414 129.037 98.1115C128.773 98.4352 127.855 99.0121 127.102 99.4168C126.349 99.8215 122.826 100.84 122.546 100.916C122.36 100.967 121.985 100.954 121.71 100.944C121.571 100.939 121.457 100.934 121.407 100.94C121.259 100.957 121.77 102.29 125.827 100.581Z" fill="#49BF79"/>
<path d="M123.448 101.629C123.448 101.629 122.905 101.686 123.127 101.814C123.35 101.943 123.878 102.049 124.385 101.944C124.803 101.87 125.183 101.739 125.493 101.562C125.901 101.365 126.372 101.215 126.88 101.12C127.323 101.036 128.786 100.672 130.272 99.4192C131.758 98.1669 131.77 97.6636 131.725 97.5354C131.681 97.4071 131.398 97.2958 131.162 97.2101C130.926 97.1244 130.703 97.1439 130.688 97.3345C130.674 97.525 130.562 98.6865 127.804 100.09C125.047 101.494 123.448 101.629 123.448 101.629Z" fill="#49BF79"/>
<path d="M125.685 101.793C126.125 101.368 126.659 101.42 126.659 101.42C126.659 101.42 127.268 101.653 129.248 100.698C130.772 99.9628 131.535 98.7847 131.919 98.192C132.034 98.0151 132.115 97.8903 132.172 97.8451C132.42 97.6486 132.804 97.7181 132.873 98.1407C132.942 98.5633 132.207 99.3297 131.825 99.6876C131.567 99.9291 130.852 100.411 130.273 100.802C129.993 100.99 129.745 101.157 129.595 101.266C129.133 101.601 128.938 101.646 128.716 101.654C128.67 101.655 128.5 101.68 128.261 101.714C127.324 101.848 125.333 102.132 125.685 101.793Z" fill="#49BF79"/>
<path d="M130.8 100.899C130.8 100.899 129.929 101.414 130.151 101.504C130.373 101.593 131.158 101.564 131.477 101.29C131.531 101.243 131.631 101.16 131.759 101.054L131.76 101.053L131.762 101.051L131.765 101.049L131.766 101.048C132.391 100.529 133.685 99.4553 133.866 99.1286C133.923 99.0257 133.986 98.9325 134.043 98.8479L134.043 98.8475C134.206 98.6069 134.32 98.4369 134.115 98.3185C133.838 98.1583 133.428 98.0144 133.308 98.1659C133.29 98.1889 133.258 98.2505 133.211 98.3409C132.949 98.844 132.221 100.241 130.8 100.899Z" fill="#49BF79"/>
<path d="M132.829 101.136C132.718 101.072 133.375 100.335 133.375 100.335C133.59 100.191 134.011 99.4187 134.223 99.0296L134.224 99.0291C134.283 98.9206 134.326 98.8418 134.343 98.8151C134.379 98.7594 134.434 98.709 134.507 98.6672C134.579 98.6253 134.667 98.5932 134.763 98.5729C134.895 98.5607 135.426 98.7527 135.626 98.9062C135.778 99.0226 135.404 99.3768 135.103 99.6609C135.008 99.7513 134.92 99.8346 134.858 99.9009C134.749 100.019 134.643 100.207 134.535 100.399C134.391 100.653 134.243 100.914 134.079 101.03C133.792 101.234 132.94 101.2 132.829 101.136Z" fill="#49BF79"/>
<path d="M135.812 100.67C135.762 100.763 135.673 100.847 135.554 100.916C135.435 100.985 135.289 101.036 135.128 101.065C134.565 101.172 134.489 100.977 134.662 100.696C134.778 100.507 134.975 100.236 135.132 100.021C135.208 99.9174 135.274 99.8263 135.317 99.764C135.449 99.5727 135.814 99.106 135.984 99.1098C136.155 99.1136 136.52 99.1726 136.576 99.2296C136.632 99.2865 135.812 100.67 135.812 100.67Z" fill="#49BF79"/>
<path d="M136.243 100.985C136.332 101.036 137.227 100.879 137.227 100.879C137.502 100.77 138.457 99.8347 138.152 99.6586C137.847 99.4825 137.25 99.4939 137.25 99.4939C137.25 99.4939 136.538 100.468 136.36 100.571C136.182 100.674 136.154 100.933 136.243 100.985Z" fill="#49BF79"/>
<path d="M139.414 100.384C139.414 100.384 139.161 100.607 138.907 100.677C138.769 100.715 138.567 100.726 138.398 100.736C138.255 100.744 138.136 100.751 138.1 100.771C138.024 100.816 138.112 100.572 138.309 100.451C138.443 100.368 138.58 100.217 138.683 100.103C138.731 100.051 138.771 100.006 138.801 99.9795C138.897 99.8944 139.217 99.9014 139.424 100.021C139.63 100.14 139.414 100.384 139.414 100.384Z" fill="#49BF79"/>
<path d="M101.695 91.9932C101.762 92.0317 101.757 92.4208 101.757 92.4208C101.815 92.8459 102.491 93.7504 102.742 93.929C102.992 94.1075 103.888 94.4902 104.476 94.6943C104.732 94.7831 105.428 95.0655 106.194 95.3763L106.195 95.3766C107.189 95.7797 108.3 96.2306 108.722 96.369C109.157 96.5119 109.997 96.6825 110.674 96.8202C111.16 96.919 111.563 97.0008 111.673 97.0433C111.937 97.145 115.559 97.1935 115.911 97.1099C116.048 97.0771 116.583 97.0516 117.243 97.0201C118.271 96.971 119.603 96.9074 120.219 96.7795C121.229 96.5694 123.687 95.5747 124.104 95.368C124.521 95.1612 124.494 95.468 124.494 95.468C123.255 96.5117 121.18 97.5873 117.806 97.8161C110.873 98.2859 107.317 97.0439 104.231 95.6331C101.145 94.2223 100.181 92.4982 100.407 92.2946C100.633 92.091 101.628 91.9546 101.695 91.9932Z" fill="#49BF79"/>
<path d="M103.399 91.8119C103.399 91.8119 103.667 91.5445 103.562 91.467C103.457 91.3895 103.116 91.2602 102.563 91.4872C102.01 91.7141 101.895 92.1733 102.425 92.8507C102.956 93.528 104.915 94.4868 106.439 94.8971C107.044 95.0601 107.514 95.2616 108.002 95.4709C108.742 95.7884 109.525 96.124 110.887 96.3712C111.204 96.4287 111.476 96.4785 111.711 96.5215C113.151 96.785 113.194 96.7929 113.659 96.7573C114.058 96.7268 115.681 96.717 116.691 96.7108L116.692 96.7108C117.054 96.7086 117.337 96.7069 117.456 96.7049C117.91 96.6972 119.977 96.4556 120.223 96.3133C120.47 96.1711 120.178 95.8813 119.972 95.7792C119.766 95.677 119.634 95.6349 119.282 95.8208C118.931 96.0067 117.89 95.9619 117.89 95.9619C117.89 95.9619 114.387 96.0149 114.152 96.0484C113.917 96.0819 110.81 95.9575 110.618 95.8469C110.427 95.7364 110.162 95.5498 110.441 95.5758C110.472 95.5786 110.524 95.5838 110.594 95.5908C111.165 95.6479 112.92 95.8234 113.873 95.8025C114.943 95.779 118.196 95.6323 118.797 95.4897C119.397 95.3471 119.602 95.2458 119.293 95.0332C118.983 94.8207 119.026 94.6097 119.305 94.5678C119.584 94.526 121.667 94.205 122.038 93.9408C122.239 93.7979 122.325 93.5216 122.4 93.2848C122.463 93.0839 122.517 92.9115 122.624 92.873C122.858 92.7891 122.935 93.4571 122.862 93.6181C122.79 93.7791 123.332 93.7202 123.42 93.7034C123.59 93.6757 123.74 93.6174 123.849 93.5369C123.957 93.4563 124.018 93.3578 124.022 93.2556C124.065 92.9085 123.727 92.6794 123.007 92.5005C122.575 92.3932 122.086 92.193 121.714 92.041C121.466 91.9397 121.27 91.8598 121.18 91.8433C121.149 91.8376 121.116 91.8307 121.084 91.8239C120.88 91.7805 120.68 91.738 120.883 92.0148L120.905 92.0459C121.148 92.3753 121.603 92.9912 120.654 93.6041C119.674 94.2368 118.39 94.8111 116.292 95.0522C114.195 95.2933 111.53 95.5094 106.92 94.2311C102.309 92.9527 103.399 91.8119 103.399 91.8119Z" fill="#49BF79"/>
<path fill-rule="evenodd" clip-rule="evenodd" d="M118.869 91.2134C118.912 91.1739 118.978 91.1442 119.055 91.1296C119.187 91.1214 119.687 91.3208 119.835 91.4059C119.982 91.4909 121.354 92.3334 120.27 93.3111C119.371 94.1229 117.905 94.3755 117.008 94.5302C116.824 94.5618 116.665 94.5893 116.539 94.6167C115.795 94.7779 113.568 94.8587 112.439 94.8821C111.309 94.9054 109.534 94.5211 108.829 94.3168C108.674 94.2721 108.475 94.2173 108.247 94.1546C107.432 93.931 106.249 93.6061 105.408 93.2696C104.598 92.9456 104.42 92.6593 104.282 92.4364C104.236 92.3628 104.195 92.2961 104.136 92.2372C103.901 91.9999 104.235 91.2977 104.439 91.0446C104.643 90.7916 105.375 90.9276 105.475 91.0021C105.575 91.0766 105.943 91.3641 105.943 91.3641C106.396 91.7147 107.786 91.9719 109.004 92.1972L109.138 92.2219C110.386 92.4531 113.759 92.6787 115.575 92.3778C117.035 92.1359 116.912 91.0557 116.858 90.5828C116.845 90.4672 116.836 90.3878 116.855 90.3659C116.953 90.2544 117.718 90.5765 118.012 90.8988C118.307 91.221 118.851 91.4335 118.817 91.3467C118.807 91.3001 118.825 91.253 118.869 91.2134ZM112.031 94.3936L112.032 94.3937C112.27 94.4221 112.448 94.4434 112.485 94.4467C112.615 94.4589 114.337 94.3967 114.337 94.3967C114.189 94.2947 113.28 94.1912 112.429 94.1558C111.762 94.1432 111.095 94.1647 110.436 94.22C110.529 94.2142 111.454 94.3247 112.031 94.3936ZM116.069 93.6306C116.588 93.5918 117.366 93.5338 118.307 93.0272C119.459 92.4093 119.156 91.9179 119.017 91.8982C118.877 91.8785 118.673 91.9943 118.549 92.1682C118.541 92.1793 118.532 92.1926 118.522 92.2079C118.374 92.4311 117.95 93.0684 116.054 93.269C114.029 93.4833 111.188 93.4133 110.681 93.3146C110.586 93.2961 110.406 93.2698 110.17 93.2353C109.147 93.0863 107.076 92.7842 106.299 92.2946C106.299 92.2946 105.684 92.0555 105.581 91.9795C105.479 91.9035 105.29 92.2329 105.591 92.3392C105.892 92.4454 108.531 93.2987 109.151 93.4161C109.772 93.5334 110.881 93.5664 112.196 93.5827C112.715 93.5892 113.304 93.612 113.857 93.6334C114.704 93.6663 115.467 93.6959 115.764 93.6581C115.852 93.6468 115.954 93.6392 116.069 93.6306Z" fill="#49BF79"/>
<path fill-rule="evenodd" clip-rule="evenodd" d="M115.734 89.8881C115.668 89.9261 115.64 90.0243 115.612 90.1238C115.567 90.2844 115.52 90.4485 115.311 90.3696C115.147 90.3077 114.997 90.1497 114.824 89.9663C114.639 89.7714 114.428 89.5477 114.142 89.3799C113.589 89.0541 112.428 88.5193 111.636 88.3652C110.843 88.2112 110.153 88.1002 109.977 88.5218C109.817 88.9079 110.188 88.9366 110.595 88.968C110.632 88.9709 110.67 88.9738 110.707 88.9771C110.748 88.9806 110.794 88.9842 110.845 88.9881L110.845 88.9881C111.35 89.0275 112.301 89.1017 112.903 89.449C113.565 89.8312 114.362 90.4083 114.17 90.585C113.978 90.7618 113.161 90.9972 112.164 91.0807C111.166 91.1642 109.45 91.2045 109.028 91.1598C108.606 91.1151 107.633 90.9792 107.636 90.8625C107.639 90.7457 107.751 90.6257 108.177 90.7023C108.602 90.7789 110.201 90.8078 110.596 90.8005C110.644 90.7996 110.703 90.7987 110.77 90.7975L110.772 90.7975C111.271 90.7892 112.243 90.773 112.59 90.7363C112.634 90.7317 112.68 90.7275 112.727 90.7232C113.103 90.6888 113.543 90.6486 113.423 90.3398C113.288 89.9924 112.466 89.5 111.967 89.4148C111.468 89.3296 110.624 89.1894 110.394 89.1611C110.164 89.1327 109.752 89.0975 109.561 89.3765C109.371 89.6555 109.666 89.7912 109.871 89.7921C109.92 89.7923 110.01 89.7862 110.123 89.7786C110.483 89.7544 111.074 89.7145 111.309 89.8117C111.358 89.832 111.414 89.8541 111.472 89.8768C111.775 89.9966 112.122 90.1335 111.765 90.1258C111.584 90.1218 111.258 90.0988 110.926 90.0754C110.48 90.044 110.023 90.0117 109.894 90.0241C109.67 90.0456 108.115 90.2628 108.115 90.2628C108.115 90.2628 106.475 90.6489 106.285 90.6236C106.095 90.5983 105.826 90.7185 106.687 91.0189C106.811 91.0621 106.937 91.1073 107.065 91.1532C107.823 91.4255 108.645 91.721 109.575 91.7808C110.465 91.8381 110.773 91.9339 111.074 92.0275C111.14 92.0479 111.206 92.0684 111.277 92.0882C111.673 92.1986 114.139 92.4914 115.719 91.9356C117.101 91.4494 116.484 90.5449 116.288 90.2583C116.26 90.2173 116.241 90.189 116.237 90.1763C116.208 90.075 115.91 89.7866 115.734 89.8881ZM115.415 91.1041C115.586 91.2356 115.268 91.337 114.969 91.4322C114.809 91.4832 114.655 91.5324 114.585 91.5834C114.383 91.7297 113.531 91.7546 112.927 91.726C112.323 91.6975 111.771 91.6327 111.815 91.5564C111.836 91.5184 112.044 91.5124 112.314 91.5045C112.585 91.4965 112.92 91.4868 113.192 91.4407C113.249 91.4311 113.308 91.4213 113.369 91.4112C113.891 91.325 114.539 91.218 114.787 91.0291C115.065 90.8181 115.415 91.1041 115.415 91.1041Z" fill="#49BF79"/>
<path d="M124.578 93.5554C124.451 93.4824 124.416 93.1636 124.416 93.1636C124.583 93.01 124.839 93.1428 125.02 93.2369C125.046 93.2502 125.07 93.2627 125.092 93.2735L125.107 93.2806C125.279 93.3645 125.405 93.4262 125.348 93.5663C125.289 93.7104 125.137 93.733 125.017 93.6575C124.956 93.6193 124.876 93.6123 124.797 93.6053C124.719 93.5984 124.64 93.5915 124.578 93.5554Z" fill="#49BF79"/>
<path d="M125.729 93.6347C125.729 93.6347 125.631 93.8849 125.845 93.9881C125.944 94.0362 126.023 94.0891 126.097 94.1383C126.181 94.1945 126.258 94.2458 126.349 94.2793C126.52 94.3419 126.756 94.2222 126.672 94.0928C126.653 94.0636 126.639 94.0348 126.625 94.007C126.578 93.9118 126.537 93.8281 126.321 93.7779C126.215 93.7533 126.107 93.7004 126.012 93.6541C125.857 93.5785 125.739 93.5208 125.729 93.6347Z" fill="#49BF79"/>
<path d="M127.626 94.8851C127.752 94.9906 127.851 94.6262 127.851 94.6262L127.852 94.6232C127.923 94.4444 127.969 94.3286 127.441 94.2314C127.068 94.1627 127.067 94.2065 127.066 94.2691C127.066 94.2957 127.065 94.3256 127.036 94.3518C126.964 94.4178 127.26 94.625 127.466 94.7691C127.535 94.8174 127.594 94.8587 127.626 94.8851Z" fill="#49BF79"/>
<path d="M128.603 94.7253C128.603 94.7253 128.328 94.452 128.278 94.7457C128.259 94.8619 128.223 94.9332 128.198 94.9822C128.161 95.057 128.149 95.0803 128.261 95.1332C128.445 95.2208 128.773 95.3376 128.884 95.2266C128.899 95.2115 128.918 95.1961 128.938 95.1801C129.062 95.0789 129.216 94.9543 128.603 94.7253Z" fill="#49BF79"/>
<path d="M129.619 95.5952C129.315 95.463 129.554 95.0818 129.554 95.0818C129.596 94.9921 129.737 95.0663 129.906 95.1552C129.996 95.2031 130.095 95.2553 130.192 95.2885C130.466 95.3833 130.588 95.6299 130.495 95.6896C130.402 95.7493 129.922 95.7275 129.619 95.5952Z" fill="#49BF79"/>
</g>
<path d="M208.441 142.148L207.322 142.794L201.741 135.834L202.844 135.198L214.899 138.419L213.78 139.065L203.722 136.301L203.653 136.341L208.441 142.148ZM205.41 139.92L209.922 137.316L210.869 137.862L206.357 140.467L205.41 139.92ZM208.523 131.919L217.341 137.01L216.273 137.626L207.455 132.536L208.523 131.919ZM222.203 134.203L219.482 135.774L210.664 130.683L213.505 129.043C214.361 128.549 215.269 128.228 216.231 128.081C217.19 127.932 218.16 127.953 219.142 128.145C220.12 128.336 221.066 128.695 221.979 129.222C222.897 129.752 223.525 130.303 223.86 130.875C224.193 131.445 224.225 132.013 223.955 132.58C223.683 133.145 223.098 133.686 222.203 134.203ZM219.602 134.611L221.187 133.696C221.916 133.275 222.379 132.845 222.577 132.406C222.775 131.967 222.732 131.529 222.448 131.093C222.164 130.658 221.663 130.233 220.946 129.818C220.234 129.407 219.505 129.121 218.758 128.958C218.009 128.794 217.266 128.766 216.528 128.874C215.787 128.98 215.073 129.232 214.384 129.629L212.679 130.614L219.602 134.611ZM231.227 123.902C232.157 124.439 232.793 125 233.135 125.585C233.476 126.17 233.538 126.738 233.32 127.288C233.102 127.838 232.617 128.33 231.865 128.764C231.113 129.199 230.26 129.479 229.307 129.604C228.354 129.73 227.371 129.695 226.358 129.498C225.344 129.3 224.373 128.933 223.443 128.396C222.513 127.86 221.877 127.299 221.535 126.714C221.194 126.129 221.132 125.561 221.35 125.011C221.568 124.461 222.054 123.969 222.806 123.535C223.558 123.1 224.41 122.82 225.363 122.694C226.316 122.568 227.299 122.604 228.312 122.801C229.326 122.999 230.297 123.366 231.227 123.902ZM230.194 124.499C229.431 124.058 228.658 123.76 227.878 123.604C227.1 123.447 226.359 123.415 225.656 123.51C224.956 123.603 224.338 123.803 223.805 124.111C223.271 124.419 222.922 124.777 222.758 125.183C222.598 125.587 222.652 126.014 222.922 126.465C223.195 126.914 223.713 127.359 224.476 127.8C225.24 128.241 226.01 128.54 226.788 128.697C227.569 128.853 228.31 128.884 229.01 128.792C229.713 128.697 230.332 128.496 230.866 128.188C231.4 127.879 231.747 127.523 231.908 127.119C232.071 126.713 232.017 126.285 231.744 125.836C231.474 125.386 230.958 124.94 230.194 124.499ZM235.641 118.809C235.153 118.587 234.604 118.513 233.996 118.586C233.387 118.659 232.816 118.849 232.282 119.157C231.892 119.383 231.613 119.616 231.447 119.858C231.283 120.099 231.23 120.33 231.288 120.552C231.348 120.772 231.519 120.964 231.8 121.126C232.035 121.262 232.294 121.346 232.575 121.38C232.856 121.409 233.142 121.405 233.432 121.367C233.719 121.327 233.996 121.272 234.263 121.201C234.527 121.128 234.762 121.056 234.969 120.987L236.106 120.609C236.396 120.511 236.734 120.412 237.122 120.311C237.512 120.208 237.928 120.135 238.37 120.092C238.812 120.046 239.26 120.056 239.714 120.122C240.167 120.188 240.601 120.341 241.014 120.579C241.491 120.854 241.796 121.175 241.931 121.541C242.069 121.906 242.013 122.291 241.763 122.697C241.516 123.101 241.054 123.499 240.377 123.89C239.745 124.255 239.097 124.511 238.431 124.661C237.768 124.808 237.122 124.853 236.493 124.795C235.867 124.735 235.296 124.576 234.78 124.318L235.882 123.681C236.243 123.857 236.631 123.951 237.044 123.965C237.458 123.975 237.868 123.923 238.276 123.81C238.683 123.694 239.062 123.535 239.412 123.333C239.82 123.098 240.12 122.849 240.312 122.585C240.502 122.32 240.572 122.064 240.523 121.817C240.472 121.568 240.285 121.351 239.964 121.166C239.671 120.997 239.351 120.906 239.003 120.895C238.656 120.883 238.291 120.921 237.91 121.009C237.528 121.097 237.139 121.206 236.743 121.335L235.348 121.782C234.461 122.066 233.633 122.217 232.864 122.237C232.094 122.257 231.413 122.095 230.818 121.752C230.325 121.467 230.028 121.142 229.927 120.776C229.827 120.406 229.901 120.031 230.151 119.652C230.401 119.269 230.807 118.915 231.369 118.591C231.938 118.263 232.545 118.03 233.191 117.892C233.834 117.753 234.459 117.71 235.068 117.763C235.679 117.814 236.215 117.964 236.674 118.213L235.641 118.809ZM248.574 118.979L239.756 113.888L240.824 113.272L245.198 115.797L245.301 115.738L244.888 110.926L246.283 110.12L246.559 114.555L255.101 115.211L253.809 115.957L246.645 115.36L246.783 116.712L249.641 118.363L248.574 118.979ZM253.452 105.982L254.52 105.365L260.358 108.736C260.961 109.084 261.357 109.476 261.546 109.914C261.736 110.348 261.71 110.792 261.469 111.246C261.225 111.699 260.757 112.124 260.065 112.524C259.374 112.923 258.636 113.193 257.852 113.334C257.066 113.473 256.295 113.489 255.54 113.381C254.785 113.27 254.106 113.041 253.504 112.693L247.665 109.322L248.733 108.706L254.485 112.027C254.916 112.275 255.394 112.442 255.919 112.526C256.441 112.609 256.974 112.605 257.516 112.514C258.059 112.419 258.576 112.231 259.066 111.947C259.557 111.664 259.885 111.366 260.048 111.052C260.209 110.738 260.216 110.43 260.07 110.13C259.923 109.827 259.635 109.551 259.204 109.302L253.452 105.982ZM263.644 100.098L272.462 105.188L271.429 105.785L259.7 104.562L259.614 104.611L266.538 108.608L265.47 109.225L256.652 104.134L257.685 103.538L269.448 104.761L269.534 104.711L262.594 100.704L263.644 100.098ZM274.599 103.955L265.781 98.864L271.103 95.7918L272.05 96.3386L267.796 98.7945L270.776 100.515L274.754 98.2178L275.701 98.7646L271.723 101.061L274.72 102.791L279.042 100.296L279.99 100.843L274.599 103.955ZM281.845 99.7713L273.027 94.6807L278.349 91.6085L279.296 92.1553L275.042 94.6111L278.022 96.3312L282 94.0345L282.948 94.5813L278.969 96.878L281.966 98.608L286.289 96.1125L287.236 96.6593L281.845 99.7713ZM287.266 86.4607L296.084 91.5513L295.051 92.1479L283.322 90.9249L283.236 90.9746L290.159 94.9715L289.092 95.588L280.274 90.4974L281.307 89.9009L293.07 91.1238L293.156 91.0741L286.216 87.0672L287.266 86.4607Z" fill="#4AA580"/>
<defs>
<filter id="filter0_d_467_3139" x="57.1709" y="65.8928" width="267.989" height="144.564" filterUnits="userSpaceOnUse" color-interpolation-filters="sRGB">
<feFlood flood-opacity="0" result="BackgroundImageFix"/>
<feColorMatrix in="SourceAlpha" type="matrix" values="0 0 0 0 0 0 0 0 0 0 0 0 0 0 0 0 0 0 127 0" result="hardAlpha"/>
<feOffset dy="2"/>
<feComposite in2="hardAlpha" operator="out"/>
<feColorMatrix type="matrix" values="0 0 0 0 0.150781 0 0 0 0 0.804167 0 0 0 0 0.412135 0 0 0 1 0"/>
<feBlend mode="normal" in2="BackgroundImageFix" result="effect1_dropShadow_467_3139"/>
<feBlend mode="normal" in="SourceGraphic" in2="effect1_dropShadow_467_3139" result="shape"/>
</filter>
<filter id="filter1_d_467_3139" x="57.1709" y="65.8928" width="267.989" height="144.564" filterUnits="userSpaceOnUse" color-interpolation-filters="sRGB">
<feFlood flood-opacity="0" result="BackgroundImageFix"/>
<feColorMatrix in="SourceAlpha" type="matrix" values="0 0 0 0 0 0 0 0 0 0 0 0 0 0 0 0 0 0 127 0" result="hardAlpha"/>
<feOffset dy="2"/>
<feComposite in2="hardAlpha" operator="out"/>
<feColorMatrix type="matrix" values="0 0 0 0 0.8 0 0 0 0 0.8 0 0 0 0 0.8 0 0 0 0.25 0"/>
<feBlend mode="normal" in2="BackgroundImageFix" result="effect1_dropShadow_467_3139"/>
<feBlend mode="normal" in="SourceGraphic" in2="effect1_dropShadow_467_3139" result="shape"/>
</filter>
<filter id="filter2_bd_467_3139" x="0.595093" y="0.807411" width="366.697" height="254.809" filterUnits="userSpaceOnUse" color-interpolation-filters="sRGB">
<feFlood flood-opacity="0" result="BackgroundImageFix"/>
<feGaussianBlur in="BackgroundImage" stdDeviation="11"/>
<feComposite in2="SourceAlpha" operator="in" result="effect1_backgroundBlur_467_3139"/>
<feColorMatrix in="SourceAlpha" type="matrix" values="0 0 0 0 0 0 0 0 0 0 0 0 0 0 0 0 0 0 127 0" result="hardAlpha"/>
<feOffset dy="15"/>
<feGaussianBlur stdDeviation="25.5"/>
<feComposite in2="hardAlpha" operator="out"/>
<feColorMatrix type="matrix" values="0 0 0 0 0 0 0 0 0 0 0 0 0 0 0 0 0 0 0.25 0"/>
<feBlend mode="normal" in2="effect1_backgroundBlur_467_3139" result="effect2_dropShadow_467_3139"/>
<feBlend mode="normal" in="SourceGraphic" in2="effect2_dropShadow_467_3139" result="shape"/>
</filter>
<filter id="filter3_d_467_3139" x="51.5951" y="36.8074" width="264.697" height="154.809" filterUnits="userSpaceOnUse" color-interpolation-filters="sRGB">
<feFlood flood-opacity="0" result="BackgroundImageFix"/>
<feColorMatrix in="SourceAlpha" type="matrix" values="0 0 0 0 0 0 0 0 0 0 0 0 0 0 0 0 0 0 127 0" result="hardAlpha"/>
<feOffset dy="2"/>
<feComposite in2="hardAlpha" operator="out"/>
<feColorMatrix type="matrix" values="0 0 0 0 1 0 0 0 0 1 0 0 0 0 1 0 0 0 0.25 0"/>
<feBlend mode="normal" in2="BackgroundImageFix" result="effect1_dropShadow_467_3139"/>
<feBlend mode="normal" in="SourceGraphic" in2="effect1_dropShadow_467_3139" result="shape"/>
</filter>
<filter id="filter4_d_467_3139" x="81.9601" y="79.9264" width="61.5529" height="61.0579" filterUnits="userSpaceOnUse" color-interpolation-filters="sRGB">
<feFlood flood-opacity="0" result="BackgroundImageFix"/>
<feColorMatrix in="SourceAlpha" type="matrix" values="0 0 0 0 0 0 0 0 0 0 0 0 0 0 0 0 0 0 127 0" result="hardAlpha"/>
<feOffset dy="29"/>
<feGaussianBlur stdDeviation="2"/>
<feComposite in2="hardAlpha" operator="out"/>
<feColorMatrix type="matrix" values="0 0 0 0 0 0 0 0 0 0 0 0 0 0 0 0 0 0 0.2 0"/>
<feBlend mode="normal" in2="BackgroundImageFix" result="effect1_dropShadow_467_3139"/>
<feBlend mode="normal" in="SourceGraphic" in2="effect1_dropShadow_467_3139" result="shape"/>
</filter>
<linearGradient id="paint0_linear_467_3139" x1="0" y1="0" x2="103.358" y2="176.488" gradientUnits="userSpaceOnUse">
<stop stop-color="#05C872"/>
<stop offset="1" stop-color="#0C5C41"/>
</linearGradient>
</defs>
</svg>
