<svg width="38" height="35" viewBox="0 0 38 35" fill="none" xmlns="http://www.w3.org/2000/svg">
<path d="M33.3622 12.6085L33.3622 12.6083L33.3517 12.6084C32.792 12.614 32.2391 12.7311 31.7255 12.9527C31.2771 13.1462 30.8665 13.416 30.5119 13.7495C27.7689 11.9066 23.9495 10.7232 19.9405 10.5176L22.1729 3.17524L28.0266 4.69555V4.6957V4.69652V4.69733V4.69815V4.69896V4.69977V4.70059V4.7014V4.70221V4.70302V4.70383V4.70463V4.70544V4.70624V4.70705V4.70785V4.70865V4.70945V4.71025V4.71105V4.71185V4.71265V4.71344V4.71423V4.71503V4.71582V4.71661V4.71739V4.71818V4.71897V4.71975V4.72053V4.72131V4.72209V4.72287V4.72365V4.72443V4.7252V4.72597V4.72674V4.72751V4.72828V4.72904V4.72981V4.73057V4.73133V4.73209V4.73285V4.7336V4.73436V4.73511V4.73586V4.73661V4.73736V4.7381V4.73884V4.73958V4.74032V4.74106V4.7418V4.74253V4.74326V4.74399V4.74472V4.74544V4.74617V4.74689V4.74761V4.74832V4.74904V4.74975V4.75046V4.75117V4.75187V4.75258V4.75328V4.75398V4.75467V4.75537V4.75606V4.75675V4.75744V4.75812V4.7588V4.75948V4.76016V4.76083V4.76151V4.76218V4.76284V4.76351V4.76417V4.76483V4.76549V4.76614V4.76679V4.76744V4.76809V4.76873V4.76937V4.77001V4.77064V4.77128V4.77191V4.77253V4.77316V4.77378V4.77439V4.77501V4.77562V4.77623V4.77684V4.77744V4.77804V4.77864V4.77923V4.77982V4.78041V4.781V4.78158V4.78216V4.78273V4.7833V4.78387V4.78444V4.785V4.78556V4.78611V4.78667V4.78722V4.78776V4.7883V4.78884V4.78938V4.78991V4.79044V4.79097V4.79149V4.79201V4.79252V4.79303V4.79354V4.79404V4.79454V4.79504V4.79553V4.79602V4.79651V4.79699V4.79747V4.79794V4.79841V4.79888V4.79934V4.7998V4.80026V4.80071V4.80116V4.8016V4.80204V4.80248V4.80291V4.80334V4.80376V4.80418V4.8046V4.80501V4.80542V4.80582V4.80622V4.80662V4.80701V4.8074V4.80778V4.80816V4.80853V4.8089V4.80927V4.80963V4.80999V4.81034V4.81069V4.81103V4.81137V4.81171V4.81204V4.81237V4.81269V4.81301V4.81308C28.0018 5.29619 28.0756 5.7793 28.2436 6.23322C28.4123 6.68924 28.6725 7.1062 29.0083 7.45871C29.344 7.81121 29.7483 8.09188 30.1964 8.28366C30.6445 8.47544 31.1271 8.57432 31.6148 8.57432C32.1025 8.57432 32.5851 8.47544 33.0332 8.28366C33.4813 8.09188 33.8856 7.81121 34.2214 7.45871L34.0404 7.28628L34.2214 7.45871C34.5571 7.1062 34.8173 6.68924 34.9861 6.23321C35.1537 5.78015 35.2275 5.298 35.2031 4.8158C35.2222 3.84952 34.8575 2.91481 34.1884 2.21491C33.5172 1.51278 32.5943 1.10408 31.6216 1.07785L31.6216 1.07766L31.6118 1.07778C30.8719 1.08664 30.1526 1.32256 29.552 1.75351C29.0136 2.13989 28.5941 2.6662 28.3382 3.27307L21.9039 1.68723L21.9039 1.6872L21.9002 1.68635C21.6944 1.63892 21.4781 1.67231 21.2962 1.77971C21.1151 1.88667 20.9818 2.05893 20.9243 2.26116L18.4366 10.4874C14.1876 10.574 10.323 11.7668 7.42923 13.6837C6.66459 13.0019 5.67517 12.6182 4.64446 12.6084L4.64446 12.6082L4.63383 12.6085C3.46176 12.6473 2.35175 13.1433 1.54335 13.9898L1.72415 14.1625L1.54335 13.9898C0.735595 14.8357 0.293705 15.9638 0.313113 17.1312C0.308613 17.9064 0.50229 18.67 0.875867 19.3501C1.22303 19.9821 1.7149 20.5226 2.31051 20.9282C2.24577 21.3419 2.21126 21.7598 2.20727 22.1785V22.1809C2.20727 25.444 4.11612 28.3753 7.14366 30.4804C10.1722 32.5862 14.3399 33.8822 18.9231 33.8822C23.5064 33.8822 27.6752 32.5862 30.7049 30.4804C33.7336 28.3754 35.6437 25.444 35.6437 22.1809L35.6437 22.1785C35.6399 21.7894 35.6099 21.4012 35.5541 21.0162C36.1895 20.6213 36.7178 20.0751 37.0905 19.4258C37.4913 18.7273 37.6976 17.9348 37.6879 17.1303C37.7071 15.9624 37.2645 14.8339 36.4559 13.9881C35.6464 13.1414 34.5352 12.646 33.3622 12.6085ZM33.8029 4.82748L33.8027 4.83603L33.8031 4.84458C33.8161 5.14125 33.7686 5.43749 33.6636 5.71546C33.5585 5.99343 33.398 6.24742 33.1916 6.46208L33.3718 6.63534L33.1916 6.46208C32.9852 6.67674 32.7372 6.84764 32.4626 6.96442C32.188 7.08119 31.8924 7.14141 31.5937 7.14141C31.295 7.14141 30.9995 7.08119 30.7248 6.96442C30.4502 6.84764 30.2023 6.67674 29.9959 6.46208C29.7895 6.24742 29.629 5.99343 29.5239 5.71546L29.29 5.80385L29.5239 5.71546C29.4188 5.43749 29.3714 5.14125 29.3844 4.84459L29.3847 4.83627L29.3846 4.82796C29.371 4.22865 29.5965 3.64822 30.0121 3.2139C30.4263 2.78109 30.9956 2.52857 31.5961 2.5115C32.1961 2.52856 32.7648 2.78116 33.1782 3.21401C33.5931 3.64837 33.8176 4.22869 33.8029 4.82748ZM1.65717 17.1734L1.65697 17.1656C1.63598 16.334 1.94743 15.528 2.52321 14.9247C3.09803 14.3224 3.88935 13.9713 4.72386 13.9487C5.30831 13.9549 5.8755 14.1322 6.35621 14.4549C4.69875 15.7972 3.41759 17.5431 2.63695 19.5231C2.36657 19.258 2.14376 18.9477 1.97914 18.6055C1.76413 18.1586 1.65401 17.6689 1.65705 17.1734L1.65717 17.1734ZM36.2737 17.3056L36.2737 17.3056L36.2736 17.3111C36.2721 17.8062 36.1577 18.2945 35.9389 18.7391C35.771 19.0804 35.545 19.3892 35.2717 19.6522C34.4926 17.6722 33.2132 15.9259 31.5574 14.5826C32.0439 14.2613 32.6169 14.0882 33.2055 14.0887C34.0405 14.111 34.8324 14.4621 35.4075 15.0647C35.9833 15.668 36.2947 16.4741 36.2737 17.3056ZM18.9231 32.5792C14.6631 32.5792 10.8034 31.3936 8.01563 29.4926C5.22642 27.5906 3.53244 24.9912 3.53244 22.1576C3.53244 19.3241 5.22628 16.7294 8.0154 14.832C10.8031 12.9357 14.6629 11.7546 18.9231 11.7546C23.1835 11.7546 27.0445 12.9345 29.8333 14.8303C32.6236 16.7271 34.3186 19.3218 34.3186 22.1576C34.3186 24.9938 32.6279 27.5931 29.84 29.4944C27.0536 31.3947 23.1928 32.5792 18.9231 32.5792Z" fill="#5C5C5C" stroke="#5C5C5C" stroke-width="0.5"/>
<path d="M15.8333 20.0615C15.8094 19.588 15.6466 19.1318 15.3649 18.7496C15.0833 18.3674 14.6952 18.0758 14.2487 17.911C13.8022 17.7463 13.317 17.7155 12.8532 17.8227C12.3894 17.9298 11.9673 18.1701 11.6393 18.5137C11.3113 18.8573 11.0917 19.2892 11.0078 19.7559C10.9239 20.2226 10.9794 20.7035 11.1673 21.1391C11.3552 21.5747 11.6674 21.9458 12.0651 22.2065C12.4628 22.4672 12.9285 22.606 13.4047 22.6057C14.0654 22.5886 14.6924 22.311 15.1477 21.834C15.6031 21.3569 15.8497 20.7194 15.8333 20.0615Z" fill="#5C5C5C"/>
<path d="M24.6056 17.5219C24.0954 17.4967 23.5893 17.6244 23.1527 17.8884C22.7161 18.1524 22.369 18.5407 22.1561 19.0031C21.9433 19.4654 21.8746 19.9807 21.9588 20.4824C22.043 20.9841 22.2763 21.4491 22.6286 21.8175C22.9808 22.1858 23.4359 22.4406 23.935 22.5489C24.4341 22.6572 24.9544 22.614 25.4286 22.425C25.9029 22.236 26.3093 21.9098 26.5956 21.4885C26.8818 21.0671 27.0346 20.5701 27.0343 20.0615C27.0494 19.4043 26.8022 18.768 26.347 18.292C25.8918 17.816 25.2656 17.539 24.6056 17.5219Z" fill="#5C5C5C"/>
<path d="M24.0853 26.7558C23.0866 27.8015 21.4316 28.3103 19.0217 28.3103H18.9795C16.5696 28.3103 14.9099 27.8062 13.9113 26.7605C13.8599 26.705 13.7976 26.6608 13.7282 26.6305C13.6588 26.6002 13.5838 26.5846 13.5081 26.5846C13.4323 26.5846 13.3574 26.6002 13.288 26.6305C13.2186 26.6608 13.1562 26.705 13.1049 26.7605C12.9967 26.8748 12.9365 27.0259 12.9365 27.1829C12.9365 27.34 12.9967 27.4911 13.1049 27.6054C14.3286 28.8845 16.2508 29.5101 18.9795 29.5101H19.0217C21.7504 29.5101 23.6727 28.8845 24.8964 27.6054C25.0024 27.4901 25.0613 27.3394 25.0613 27.1829C25.0613 27.0265 25.0024 26.8758 24.8964 26.7605C24.8445 26.7052 24.7819 26.6611 24.7124 26.6307C24.6428 26.6004 24.5678 26.5846 24.4918 26.5841C24.4159 26.5837 24.3407 26.5987 24.2708 26.6282C24.2008 26.6577 24.1377 26.7011 24.0853 26.7558Z" fill="#5C5C5C"/>
</svg>
