<svg width="37" height="35" viewBox="0 0 37 35" fill="none" xmlns="http://www.w3.org/2000/svg">
<path d="M20.3747 14.5156C20.3747 13.7474 20.3747 12.9791 20.3747 12.2109C20.3747 11.8596 20.2663 11.7425 19.88 11.7425C17.8827 11.7425 15.8807 11.7425 13.8834 11.7425C13.516 11.7425 13.3794 11.8315 13.3794 12.2109C13.3794 19.1716 13.3794 26.1292 13.3794 33.0836C13.3794 33.4443 13.5018 33.552 13.874 33.552C15.9718 33.5271 18.0696 33.5146 20.1674 33.5146C20.5489 33.5146 20.6384 33.4068 20.6384 33.0461C20.6384 29.7391 20.6384 26.4337 20.6384 23.1298C20.6424 22.3122 20.6959 21.4957 20.7986 20.6846C20.8777 19.7894 21.2539 18.9457 21.8679 18.2863C22.7111 17.4244 23.8087 17.2277 24.9958 17.2464C26.6492 17.2792 27.6808 18.0053 28.1519 19.4995C28.4139 20.4589 28.5252 21.4527 28.4817 22.4459V33.018C28.4817 33.4865 28.4816 33.5286 29.0092 33.5286H35.1331C35.769 33.5286 35.7737 33.5286 35.7737 32.9337C35.7737 28.6758 35.7407 24.4132 35.7078 20.1553C35.7027 18.8496 35.5091 17.5513 35.1331 16.3002C34.5489 14.375 33.4608 12.8058 31.4729 11.9674C29.4022 11.1244 27.115 10.9603 24.944 11.499C23.0959 11.9029 21.4663 12.9787 20.3747 14.5156V14.5156ZM9.06913 12.2156C9.06913 11.8409 8.96079 11.7472 8.5651 11.7472C6.48928 11.7659 4.41032 11.7659 2.32822 11.7472C1.94195 11.7472 1.81005 11.8456 1.81005 12.2156V33.0461C1.81005 33.4256 1.93253 33.5146 2.32822 33.5146C4.40718 33.5146 6.48457 33.5146 8.56039 33.5146C8.95608 33.5146 9.06913 33.4162 9.06913 33.0461V12.2156ZM1.23535 4.96453C1.26374 6.0409 1.71986 7.06225 2.50385 7.80496C3.28784 8.54768 4.33583 8.95125 5.41839 8.92734C7.77371 8.90392 9.6297 7.21762 9.62499 4.95984C9.62028 2.70207 7.75016 0.987665 5.41368 1.00172C4.8769 0.986143 4.34234 1.0766 3.84095 1.26785C3.33957 1.4591 2.88131 1.74735 2.49271 2.1159C2.10411 2.48446 1.79289 2.926 1.57706 3.41497C1.36124 3.90394 1.24509 4.43062 1.23535 4.96453V4.96453Z" stroke="#5C5C5C" stroke-width="2" stroke-miterlimit="10" stroke-linejoin="round"/>
</svg>
