<svg width="33" height="35" viewBox="0 0 33 35" fill="none" xmlns="http://www.w3.org/2000/svg">
<path d="M8.44768 20.785C5.53569 18.9738 4.39539 16.4155 4.56502 13.3438C4.5678 11.9556 4.74186 10.5728 5.08334 9.22641C5.33647 8.28319 5.86806 7.4363 6.61001 6.79424C6.74952 6.69634 6.84487 6.54828 6.87568 6.38168C6.9065 6.21508 6.87034 6.04315 6.77493 5.9026C6.22868 4.45693 6.25901 2.85936 6.85975 1.43507C7.00582 1.06161 7.18487 1.01959 7.58539 1.12229C9.14939 1.56307 10.5216 2.5055 11.4869 3.80188C11.7837 4.16134 11.9581 4.22669 12.401 3.97461C13.4471 3.40508 14.6722 3.32572 15.8737 3.25569C17.9167 3.09485 19.9715 3.16218 21.9993 3.45643C22.7843 3.55132 23.5378 3.81931 24.2045 4.2407C24.7395 3.56976 25.3427 2.95499 26.0045 2.40607C26.6723 1.87136 27.4299 1.45734 28.2426 1.18298C28.7704 1.01026 29.185 0.996251 29.317 1.57978C29.7882 3.12498 29.9201 4.66084 29.1944 6.1827C29.0625 6.45813 29.2887 6.58884 29.463 6.74756C30.2314 7.42925 30.779 8.32099 31.0368 9.31044C31.5181 11.1545 31.6665 13.0684 31.475 14.9637C31.2442 17.3539 29.9955 19.2679 27.7432 20.659C25.9361 21.7269 23.904 22.366 21.8061 22.5263C22.4112 23.3363 22.7796 24.2956 22.871 25.2993C23.0689 27.8015 22.904 30.3036 22.9699 32.8105C22.9699 33.212 22.8097 33.2773 22.3951 33.2773C19.5051 33.2773 16.6151 33.2773 13.7251 33.2773C13.2539 33.2773 13.1172 33.184 13.1314 32.7638C13.1644 31.6668 13.1314 30.5697 13.1314 29.4727C13.1314 29.1319 13.1314 28.9545 12.5942 29.0432C10.6733 29.4241 8.67913 29.1665 6.921 28.3103C5.84817 27.5984 4.968 26.6367 4.3577 25.5093C3.62263 24.2209 2.84044 22.9091 1.35146 22.1015C1.18655 22.0128 0.983931 21.8821 1.0499 21.6767C1.11587 21.4713 1.41272 21.476 1.63418 21.4619C2.34353 21.4081 3.05531 21.5287 3.70633 21.8129C4.35735 22.0971 4.92747 22.5362 5.36606 23.0912C5.66291 23.4506 5.90793 23.8521 6.2095 24.2069C7.68434 25.9295 10.3278 26.6064 12.6649 25.9248C13.2256 25.7661 13.1691 25.458 13.1738 25.0939C13.3294 24.1635 13.7128 23.2852 14.2905 22.5356C12.2451 22.3414 10.259 21.7463 8.44768 20.785V20.785Z" stroke="#B9B9B9" stroke-width="2" stroke-miterlimit="10"/>
</svg>
