<svg width="49" height="35" viewBox="0 0 49 35" fill="none" xmlns="http://www.w3.org/2000/svg">
<path d="M46.2494 5.22109C47.9038 9.6046 47.838 25.5747 45.8452 29.7995C45.3071 30.8977 44.4225 31.7911 43.326 32.3437C41.7656 33.1514 32.7134 33.5341 23.8492 33.5341C15.6853 33.5341 7.68118 33.212 5.80588 32.6005C4.98038 32.3468 4.22839 31.8996 3.61328 31.2968C2.99817 30.694 2.53798 29.9531 2.27148 29.1366C0.795684 24.8885 0.443183 7.13508 3.43708 3.63388C4.40596 2.46451 5.80196 1.72422 7.31928 1.57517C10.8772 1.18771 17.7392 1.00098 24.5072 1.00098C32.9343 1.00098 41.2157 1.29508 42.7855 1.86461C43.5827 2.12401 44.3094 2.56143 44.9099 3.14328C45.5104 3.72513 45.9686 4.43593 46.2494 5.22109V5.22109ZM18.5429 24.277C23.3557 21.7748 28.1262 19.2959 32.9625 16.7891L18.6557 9.26381C18.6181 14.2775 18.5805 19.2399 18.5429 24.277Z" stroke="#B9B9B9" stroke-width="2" stroke-miterlimit="10" stroke-linejoin="round"/>
</svg>
