<svg width="1114" height="132" viewBox="0 0 1114 132" fill="none" xmlns="http://www.w3.org/2000/svg">
<g opacity="0.3">
<path d="M-22 186.946C39.3535 186.946 103.052 195.494 163.627 188.234C246.97 178.244 321.312 154.515 403.433 142.549C546.066 121.749 620.472 198.538 745.762 213.234C813.296 221.165 877.383 188.746 931.897 173.009C962.455 164.203 996.86 156.183 1032.49 161.01C1066.4 165.606 1096.6 175.657 1124.86 185.917C1176.35 204.631 1233.93 232.911 1302.25 229.757C1385.96 225.904 1449.04 189.626 1534 186.946" stroke="url(#paint0_linear_425_4472)" stroke-miterlimit="10"/>
<path d="M-22 181.475C39.9474 181.706 103.753 191.653 165.052 184.181C245.909 174.328 317.409 150.555 396.969 138.698C536.65 117.891 621.721 190.965 744.989 206.706C811.356 215.189 871.596 184.22 925.115 168.793C955.543 160.023 988.446 153.064 1023.56 158.109C1057.94 163.06 1088.9 172.853 1118.29 182.894C1171.44 201.05 1231.21 227.959 1299.83 224.735C1384.36 220.768 1448.22 184.242 1534 181.475" stroke="url(#paint1_linear_425_4472)" stroke-miterlimit="10"/>
<path d="M-22 175.897C40.5659 176.365 104.504 187.787 166.573 180.114C244.959 170.423 313.533 146.577 390.632 134.857C527.359 114.07 622.958 183.284 744.232 200.107C809.413 209.148 865.561 179.645 918.142 164.492C948.463 155.755 979.735 149.901 1014.31 155.121C1049.16 160.407 1080.93 170.004 1111.49 179.816C1166.34 197.456 1228.32 223.011 1297.29 219.709C1382.65 215.614 1447.36 178.741 1534 175.875" stroke="url(#paint2_linear_425_4472)" stroke-miterlimit="10"/>
<path d="M-22 170.221C41.1693 170.934 105.289 183.854 168.178 175.998C244.141 166.501 309.882 142.575 384.494 131.021C518.31 110.296 624.129 175.539 743.412 193.423C807.413 203.02 859.344 175.009 911.027 160.105C941.218 151.398 970.966 146.683 1004.97 152.106C1040.3 157.744 1072.91 167.126 1104.61 176.722C1161.18 193.86 1225.34 218.073 1294.73 214.678C1380.99 210.455 1446.5 173.218 1534 170.221" stroke="url(#paint3_linear_425_4472)" stroke-miterlimit="10"/>
<path d="M-22 165.043C41.751 165.987 106.086 180.227 169.696 172.3C243.323 163.123 306.285 139.388 378.518 128.149C509.683 107.743 625.311 168.269 742.656 187.007C805.488 197.045 853.193 170.814 904.032 156.289C934.092 147.704 962.38 144.171 995.736 149.706C1031.56 155.641 1064.98 164.736 1097.81 173.995C1156.04 190.419 1222.34 213.09 1292.21 209.65C1379.33 205.344 1445.65 168.093 1534 165.054" stroke="url(#paint4_linear_425_4472)" stroke-miterlimit="10"/>
<path d="M-22 159.364C42.3912 160.537 106.88 176.205 171.271 168.137C242.686 159.187 302.992 135.374 372.981 124.332C501.634 104.032 626.515 160.581 741.899 180.39C803.686 190.998 847.125 166.121 897.263 151.83C927.227 143.293 954.036 140.815 986.831 146.532C1023.12 152.832 1057.35 161.781 1091.26 170.808C1151.09 186.729 1219.44 208.153 1289.79 204.612C1377.74 200.178 1444.83 162.508 1534 159.364" stroke="url(#paint5_linear_425_4472)" stroke-miterlimit="10"/>
<path d="M-22 154.58C42.9954 155.925 107.667 172.631 172.781 164.601C242.153 156.05 299.962 132.59 367.854 121.967C433.714 111.658 503.777 123.296 565.293 135.731C624.615 147.727 681.009 163.461 741.218 174.34C802.226 185.365 841.137 162.013 890.897 148.297C956.972 130.094 1024.65 153.18 1085.13 168.149C1146.4 183.297 1216.67 203.144 1287.49 199.58C1376.22 195.12 1444.04 157.748 1534 154.574" stroke="url(#paint6_linear_425_4472)" stroke-miterlimit="10"/>
<path d="M-22 149.438C43.6023 150.964 108.286 169.098 174.234 160.885C241.76 152.468 297.27 128.666 363.337 118.118C428.593 107.685 500.506 119.016 562.316 130.578C622.839 141.903 680.445 156.858 740.645 168.624C800.844 180.39 836.007 157.844 885.13 144.117C949.706 126.077 1020.2 151.278 1079.64 165.407C1142.2 180.28 1214.25 199.206 1285.47 195.538C1374.88 190.927 1443.38 152.732 1534 149.438" stroke="url(#paint7_linear_425_4472)" stroke-miterlimit="10"/>
<path d="M-22 144.58C44.2178 146.215 108.847 165.151 175.562 156.98C241.477 148.911 294.944 125.382 359.26 115.151C424.019 104.882 497.574 115.631 559.664 126.118C621.257 136.528 680.019 150.431 740.121 162.781C768.475 168.605 789.255 168.845 816.669 161.332C838.951 155.225 857.796 146.356 880.045 140.206C909.728 131.99 933.372 132.219 964.46 138.326C1001.82 145.675 1038.21 154.125 1074.86 162.335C1138.48 176.543 1212.1 194.172 1283.63 190.511C1373.66 185.902 1442.73 147.876 1534 144.58" stroke="url(#paint8_linear_425_4472)" stroke-miterlimit="10"/>
<path d="M-22 139.721C44.8342 141.373 109.27 161.428 176.763 153.141C241.371 145.206 293.012 121.335 356.032 111.257C420.457 100.954 495.363 111.368 557.702 121.169C620.041 130.971 679.894 144.297 739.802 157.513C767.487 163.62 787.726 164.485 814.903 156.93C836.45 150.938 854.431 142.095 875.923 136.059C905.445 127.766 928.721 128.647 959.269 135.024C996.808 142.86 1033.76 151.384 1071.11 159.452C1135.52 173.361 1210.58 190.19 1282.22 186.478C1372.76 181.792 1442.29 143.124 1534 139.771" stroke="url(#paint9_linear_425_4472)" stroke-miterlimit="10"/>
<path d="M-22 135.707C45.4572 137.31 109.522 157.991 177.768 149.708C241.411 141.975 291.439 118.001 353.58 108.254C417.914 98.1494 493.627 108.056 556.351 117.129C619.584 126.267 679.953 138.995 739.609 152.892C766.73 159.203 786.741 160.532 813.711 153.001C834.673 147.156 851.929 138.397 872.827 132.496C902.206 124.203 925.459 125.548 955.541 132.145C993.132 140.378 1030.52 148.896 1068.43 156.767C1133.27 170.23 1209.57 186.136 1281.16 182.464C1372.04 177.799 1441.91 139.039 1534 135.707" stroke="url(#paint10_linear_425_4472)" stroke-miterlimit="10"/>
<path d="M-22 130.982C46.075 132.424 109.59 153.428 178.594 145.193C241.58 137.677 290.529 113.799 351.926 104.247C416.057 94.2765 492.766 103.888 555.654 112.324C619.537 120.897 680.177 133.175 739.554 147.702C766.233 154.233 786.353 155.812 813.183 148.295C833.714 142.542 850.43 133.85 870.928 128.043C900.2 119.748 923.778 121.316 953.504 128.157C991.021 136.789 1028.69 145.296 1067.03 152.971C1132.05 165.984 1209.25 181.049 1280.54 177.463C1371.65 172.885 1441.69 134.242 1534 130.982" stroke="url(#paint11_linear_425_4472)" stroke-miterlimit="10"/>
<path d="M-22 126.287C46.4208 127.602 109.493 149.145 178.918 140.712C241.688 133.091 290.345 108.886 351.548 99.2495C415.614 89.1655 492.669 99.1169 555.579 107.495C619.688 116.032 680.134 128.397 739.586 143.203C766.168 149.83 786.569 151.21 813.215 143.633C833.605 137.835 850.214 129.093 870.604 123.278C899.779 114.961 923.789 116.507 953.234 123.648C990.589 132.705 1028.3 141.402 1066.8 149.112C1131.51 162.073 1209.71 177.188 1280.46 173.411C1371.43 168.562 1441.93 130.015 1534 126.304" stroke="url(#paint12_linear_425_4472)" stroke-miterlimit="10"/>
<path d="M-22 121.765C46.6147 123.004 109.542 144.545 179.173 136.07C241.884 128.435 290.821 104.596 352.105 95.0849C416.211 85.1348 493.14 95.4524 555.992 103.828C619.936 112.352 680.16 124.612 740.06 138.621C796.759 151.878 824.861 131.49 871.559 118.775C900.752 110.827 924.928 112.275 954.121 119.395C991.337 128.473 1029.01 137.09 1067.52 144.66C1131.9 157.309 1211.16 172.393 1281.44 168.323C1372.08 163.068 1443.48 126.339 1535 121.847" stroke="url(#paint13_linear_425_4472)" stroke-miterlimit="10"/>
<path d="M-22 118.187C46.8216 119.378 109.599 141 179.448 132.484C242.16 124.833 291.292 101.331 352.61 91.9412C416.717 82.1033 493.421 92.7775 556.177 101.151C619.873 109.649 679.872 121.81 740.119 135.064C796.344 147.438 825.451 127.483 872.183 115.388C901.377 107.813 925.77 109.212 954.704 116.317C991.748 125.412 1029.31 133.933 1067.81 141.344C1131.93 153.691 1211.99 168.562 1281.68 164.234C1371.87 158.637 1444.15 123.63 1535 118.443" stroke="url(#paint14_linear_425_4472)" stroke-miterlimit="10"/>
<path d="M-21 113.578C48.0136 114.738 110.652 136.555 180.714 127.993C243.309 120.345 292.7 97.0897 354.021 87.7898C418.085 78.1068 494.49 89.0589 557.085 97.4453C620.437 105.925 680.266 118.004 740.689 130.537C796.477 142.096 826.559 122.566 873.379 111.023C902.629 103.819 927.189 105.219 955.888 112.325C992.702 121.445 1030.16 129.875 1068.58 137.118C1132.49 149.181 1212.98 163.7 1282.16 159.143C1371.84 153.24 1444.91 119.847 1535 114.016" stroke="url(#paint15_linear_425_4472)" stroke-miterlimit="10"/>
<path d="M-21 109.895C48.3068 111.049 110.828 133.121 181.248 124.52C243.79 116.887 293.485 93.8037 354.86 84.6541C418.905 75.1035 494.922 86.3456 557.497 94.7374C620.504 103.195 680.151 115.195 740.824 127.019C796.192 137.811 827.333 118.721 874.37 107.759C903.718 100.916 928.473 102.371 956.989 109.483C993.516 118.685 1031 126.873 1069.27 134.011C1133.13 145.785 1213.85 159.823 1282.63 155.039C1371.73 148.872 1445.69 117.04 1535 110.631" stroke="url(#paint16_linear_425_4472)" stroke-miterlimit="10"/>
<path d="M-21 105.809C48.6187 106.955 111.117 129.086 181.881 120.548C244.368 113.02 294.397 90.3815 355.847 81.4723C419.868 72.1919 495.56 83.5413 558.014 91.8445C620.685 100.164 680.169 111.928 740.981 122.917C795.937 132.853 828.202 114.44 875.518 104.204C905.006 97.8222 929.945 99.3507 958.298 106.387C994.604 115.473 1031.95 123.459 1070.13 130.304C1134.02 141.642 1214.73 154.837 1283.14 149.956C1371.67 143.64 1446.47 113.73 1535 106.862" stroke="url(#paint17_linear_425_4472)" stroke-miterlimit="10"/>
<path d="M-21 101.654C48.9773 102.802 111.466 125.041 182.632 116.6C245.078 109.192 295.465 86.9646 356.938 78.3008C420.929 69.2834 496.222 80.7264 558.625 88.9279C620.833 97.0859 680.296 108.621 741.175 118.792C795.744 127.912 829.198 110.193 876.84 100.686C906.49 94.7691 931.624 96.4061 959.859 103.406C995.918 112.371 1033.1 120.148 1071.16 126.689C1135.16 137.566 1215.62 149.836 1283.74 144.859C1371.65 138.442 1447.27 110.4 1535 103.139" stroke="url(#paint18_linear_425_4472)" stroke-miterlimit="10"/>
<path d="M-21 97.8433C49.3658 99.0344 111.908 121.798 183.484 113.284C245.886 105.905 296.64 83.7263 358.178 75.179C422.125 66.3007 497.008 77.9858 559.269 86.2078C621.045 94.3692 680.443 105.801 741.343 115.319C795.533 123.783 830.24 106.495 878.238 97.5951C908.072 92.0807 933.401 93.8674 961.549 100.904C997.369 109.886 1034.39 117.561 1072.34 123.871C1136.55 134.476 1216.55 145.863 1284.42 140.729C1371.7 134.112 1448.09 107.527 1535 99.7844" stroke="url(#paint19_linear_425_4472)" stroke-miterlimit="10"/>
<path d="M-21 94.2651C49.7882 95.4751 112.321 118.192 184.427 109.891C246.787 102.708 297.941 81.1569 359.545 72.9705C423.439 64.4843 497.858 76.0717 560.034 84.0947C621.378 92.0141 680.723 103.029 741.569 111.641C795.393 119.271 831.43 102.882 879.807 94.8428C909.847 89.8557 935.37 91.8124 963.454 98.6581C999.024 107.402 1035.87 114.756 1073.67 120.656C1138.13 130.657 1217.49 140.751 1285.16 135.617C1371.79 129.077 1448.91 104.604 1535 96.636" stroke="url(#paint20_linear_425_4472)" stroke-miterlimit="10"/>
<path d="M-21 89.9831C50.2302 91.2417 112.827 114.268 185.386 106.049C247.777 99.0066 299.331 77.742 361.009 69.8075C424.837 61.5994 498.736 73.2276 560.912 81.1621C621.801 88.9434 681.102 99.6851 741.883 107.527C795.338 114.427 832.779 98.7385 881.556 91.4661C911.811 86.9571 937.518 89.1131 965.58 95.9532C1000.89 104.577 1037.55 111.703 1075.19 117.256C1139.89 126.783 1218.45 135.67 1285.98 130.455C1371.92 123.85 1449.73 101.195 1535 92.9216" stroke="url(#paint21_linear_425_4472)" stroke-miterlimit="10"/>
<path d="M-21 86.6956C50.6733 88.0019 113.345 111.416 186.542 103.275C248.836 96.3413 300.822 75.3413 362.565 67.6524C426.318 59.7099 499.709 71.3949 561.744 79.2272C622.19 86.8775 681.448 97.3389 742.099 104.433C795.219 110.65 834.141 95.6137 883.295 89.1318C913.767 85.1027 939.679 87.4783 967.752 94.3184C1002.8 102.832 1039.26 109.729 1076.71 114.927C1141.84 123.966 1219.42 131.517 1286.84 126.276C1372.12 119.662 1450.54 98.7609 1535 90.1901" stroke="url(#paint22_linear_425_4472)" stroke-miterlimit="10"/>
<path d="M-21 82.9553C51.1919 84.3272 113.983 107.769 187.698 99.8494C249.982 93.165 302.421 72.7566 364.207 65.4492C427.906 57.9232 500.746 69.4445 562.694 77.0799C622.687 84.4748 681.901 94.4549 742.391 100.691C795.198 106.157 835.654 92.05 885.175 86.4806C915.874 83.01 941.98 85.6171 970.096 92.3069C1004.87 100.559 1041.14 107.102 1078.39 111.846C1143.91 120.219 1220.42 126.27 1287.75 121.067C1372.35 114.535 1451.34 95.7884 1535 87.0928" stroke="url(#paint23_linear_425_4472)" stroke-miterlimit="10"/>
<path d="M-21 79.5383C51.7106 80.9964 114.61 104.911 188.941 97.0849C251.17 90.5291 304.031 70.3425 365.925 63.2952C429.538 56.049 501.816 67.6086 563.667 75.1531C623.227 82.4158 682.366 92.0755 742.661 97.5709C795.198 102.359 837.22 88.9661 887.12 84.1776C918.035 81.2118 944.325 84.1058 972.538 90.8052C1007.04 98.937 1043.1 105.23 1080.13 109.583C1146.04 117.404 1221.38 121.999 1288.68 116.763C1372.62 110.241 1452.11 93.2961 1535 84.3323" stroke="url(#paint24_linear_425_4472)" stroke-miterlimit="10"/>
<path d="M-21 76.7423C52.2184 78.2672 115.28 102.243 190.184 94.6567C252.424 88.3543 305.728 68.7505 367.697 62.097C431.223 55.279 502.929 66.6442 564.737 73.9614C623.876 80.9659 682.928 90.0986 743.028 94.761C795.338 98.8145 838.96 86.3797 889.217 82.5017C920.358 80.0937 946.832 83.2422 975.153 89.7969C1009.39 97.664 1045.23 103.591 1082.03 107.47C1148.39 114.562 1222.44 117.568 1289.71 112.407C1372.92 106.011 1452.88 91.2121 1535 82.1616" stroke="url(#paint25_linear_425_4472)" stroke-miterlimit="10"/>
<path d="M-21 73.1772C52.7515 74.8012 115.978 99.227 191.502 91.7945C253.745 85.6479 307.494 66.2879 369.543 59.9306C432.985 53.4459 504.111 64.7858 565.846 71.9911C624.588 78.8472 683.535 87.5822 743.379 91.4952C795.507 94.9039 840.72 83.2313 891.303 80.1996C922.641 78.3207 949.321 81.7903 977.752 88.3304C1011.73 96.0537 1047.35 101.7 1083.9 105.152C1150.68 111.598 1223.43 113.033 1290.71 107.857C1373.31 101.505 1453.59 88.6187 1535 79.3405" stroke="url(#paint26_linear_425_4472)" stroke-miterlimit="10"/>
<path d="M-21 70.3287C53.2856 72.0277 116.69 96.5855 192.813 89.3815C255.04 83.4847 309.26 64.6802 371.379 58.7448C434.709 52.677 505.234 63.8362 566.953 70.8086C625.301 77.428 684.114 85.5864 743.704 88.6919C795.731 91.4059 842.485 80.6935 893.453 78.5643C925.015 77.2459 951.801 81.0024 980.5 87.4232C1014.21 94.8808 1049.62 100.151 1085.89 103.111C1238.25 115.958 1387.54 94.2853 1535 77.1853" stroke="url(#paint27_linear_425_4472)" stroke-miterlimit="10"/>
<path d="M-21 67.4948C53.8393 69.2761 117.43 93.8901 194.182 86.957C256.411 81.3337 311.098 63.1157 373.295 57.5637C436.518 51.9186 506.452 62.8691 568.043 69.594C626.058 75.9461 684.7 83.526 744.023 85.8115C796.041 87.8339 844.266 78.1384 895.614 76.8779C927.36 76.1106 954.374 80.1663 983.236 86.4527C1016.56 93.7586 1051.95 98.4172 1087.88 100.993C1236.36 111.642 1391.22 91.8732 1535 74.998" stroke="url(#paint28_linear_425_4472)" stroke-miterlimit="10"/>
<path d="M-21 64.7275C54.3904 66.6049 118.176 91.4724 195.554 84.7587C257.794 79.3406 312.935 61.582 375.207 56.3944C438.323 51.1409 507.651 61.9608 569.178 68.4713C626.879 74.5921 685.316 81.6462 744.368 83.1887C796.483 84.5501 846.07 75.7559 897.807 75.3881C929.738 75.1631 956.924 79.5437 986.013 85.7633C1019.12 92.8393 1054.27 97.1046 1089.9 99.2236C1157.77 103.258 1226.59 99.822 1293.9 94.8869C1374.66 88.9637 1455.54 82.4641 1535 72.9288" stroke="url(#paint29_linear_425_4472)" stroke-miterlimit="10"/>
<path d="M-21 61.8363C54.2915 63.7588 117.989 88.4738 195.29 82.3849C257.28 77.4833 312.528 60.551 374.313 55.4152C436.768 50.225 504.701 60.5238 565.686 66.7434C624.64 72.7342 684.361 79.4276 744.709 80.2663C798.282 81.0125 850.482 72.7669 903.936 73.7309C936.201 74.3136 963.095 79.6291 992.67 85.5328C1023.39 91.6653 1055.83 95.1781 1088.63 96.8392C1158.46 100.374 1227.71 95.1618 1296.7 90.2438C1376.33 84.5689 1456.68 80.201 1535 70.7137" stroke="url(#paint30_linear_425_4472)" stroke-miterlimit="10"/>
<path d="M-21 59.1083C54.8118 61.1386 118.77 86.2495 196.645 80.3504C258.648 75.6531 314.34 59.0424 376.223 54.2463C438.549 49.4393 505.944 59.668 566.844 65.7317C625.518 71.5814 685.013 77.8042 745.049 77.8042C798.936 77.8042 852.294 70.5991 906.192 72.4374C938.501 73.5349 965.623 79.198 995.425 85.0203C1025.94 90.9797 1058.16 94.146 1090.69 95.3971C1160.74 98.0915 1228.79 91.1608 1297.77 86.3427C1376.89 80.8168 1457.23 78.4627 1535 68.7827" stroke="url(#paint31_linear_425_4472)" stroke-miterlimit="10"/>
<path d="M-21 56.3834C55.3871 58.5126 119.477 83.8918 198.015 78.2086C260.041 73.7192 316.167 57.5333 378.139 53.0989C440.338 48.6371 507.205 58.8207 568.074 64.702C626.426 70.3522 685.697 76.0299 745.421 75.2267C799.7 74.4949 854.107 68.3551 908.461 71.0564C940.814 72.6684 968.153 78.6487 998.15 84.3594C1028.41 90.1197 1060.48 92.92 1092.7 93.7508C1162.94 95.5718 1229.87 86.9727 1298.84 82.2743C1377.46 76.9157 1457.68 76.6186 1535 66.7926" stroke="url(#paint32_linear_425_4472)" stroke-miterlimit="10"/>
<path d="M-21 54.6397C55.9155 56.8375 120.275 82.397 199.362 76.9576C261.398 72.6886 317.956 56.9638 380.024 52.931C442.093 48.8982 508.418 58.9308 569.125 64.6009C627.336 70.0403 686.325 75.1775 745.724 73.5677C800.477 72.0842 855.814 67.0514 910.62 70.5952C943.038 72.6886 970.571 78.985 1000.85 84.5563C1031.13 90.1275 1062.79 92.523 1094.71 92.9406C1164.95 93.8691 1230.99 83.6717 1299.88 79.1114C1378.05 73.9358 1458.2 75.694 1535 65.7383" stroke="url(#paint33_linear_425_4472)" stroke-miterlimit="10"/>
<path d="M-21 51.9537C56.4456 54.2479 121.032 79.8126 200.682 74.656C262.751 70.6192 319.719 55.4606 381.875 51.7898C443.771 48.1354 509.686 58.0444 570.286 63.4906C628.324 68.7018 686.989 73.274 746.097 70.8868C801.39 68.6527 857.549 64.736 912.842 69.0842C945.162 71.6297 973.02 78.2175 1003.51 83.6309C1033.45 88.9405 1065.11 90.9835 1096.68 90.9999C1166.92 91.0436 1232.12 79.3538 1300.91 74.94C1378.71 69.9473 1458.68 73.7328 1535 63.6763" stroke="url(#paint34_linear_425_4472)" stroke-miterlimit="10"/>
<path d="M-21 50C56.9632 52.3687 121.743 78.1236 201.965 73.168C264.065 69.3476 321.444 54.6118 383.674 51.3371C445.504 48.0625 510.76 57.8864 571.369 63.1367C629.287 68.136 687.66 72.1911 746.421 69.0311C802.308 66.0293 859.19 63.2022 914.99 68.3543C947.299 71.3288 975.394 78.2437 1006.11 83.5268C1035.91 88.6461 1067.3 90.3216 1098.58 89.9505C1168.71 89.1264 1233.23 75.9515 1301.92 71.6453C1379.28 66.7989 1459.04 72.6168 1535 62.3672" stroke="url(#paint35_linear_425_4472)" stroke-miterlimit="10"/>
<path d="M-21 48C57.4462 50.4466 122.451 76.3353 203.198 71.6055C265.328 67.96 323.137 53.7216 385.396 50.7627C447.094 47.8311 511.818 57.6231 572.392 62.669C630.2 67.4696 688.279 71.0115 746.703 67.0991C803.214 63.3174 860.795 61.5628 916.983 67.4969C949.258 70.9025 977.589 78.1335 1008.58 83.2992C1038.19 88.2034 1069.41 89.5548 1100.42 88.8083C1170.37 87.1354 1234.33 72.5536 1302.9 68.3469C1379.89 63.6226 1459.41 71.4475 1535 61.0124" stroke="url(#paint36_linear_425_4472)" stroke-miterlimit="10"/>
<path d="M-21 46C57.88 48.517 123.124 74.5292 204.392 70.0009C266.555 66.5326 324.689 52.7572 387.091 50.1315C448.682 47.5439 512.931 57.2964 573.41 62.1564C631.143 66.8044 688.931 69.8052 747.01 65.1626C804.182 60.5962 862.283 59.8895 918.958 66.576C951.169 70.3814 979.771 77.9214 1010.97 82.9553C1040.42 87.7066 1071.48 88.6905 1102.16 87.5924C1171.86 85.0972 1235.39 69.2072 1303.83 65.0648C1380.55 60.4386 1459.74 70.2455 1535 59.5851" stroke="url(#paint37_linear_425_4472)" stroke-miterlimit="10"/>
<path d="M-21 44C58.3776 46.6297 123.794 73.3537 205.517 68.9154C267.735 65.5423 326.226 51.9001 388.693 49.5479C450.187 47.2344 513.94 57.1872 574.364 61.9917C632.045 66.5798 689.552 69.1318 747.307 63.656C805.063 58.1803 863.737 58.5021 920.855 66.0804C952.991 70.3467 981.874 78.2857 1013.24 83.4008C1042.42 88.1664 1073.52 88.7656 1103.83 87.2843C1173.24 83.9556 1236.41 66.43 1304.71 62.258C1381.1 57.5922 1460.06 69.6255 1535 58.4521" stroke="url(#paint38_linear_425_4472)" stroke-miterlimit="10"/>
<path d="M-21 43C58.8126 45.6751 124.372 72.4763 206.584 68.2259C268.783 65.0257 327.621 51.8435 390.166 49.8039C451.522 47.8031 514.866 57.752 575.228 62.4003C632.878 66.822 690.117 68.8837 747.539 62.7098C806.043 56.4255 865.065 57.7354 922.595 66.0261C954.667 70.6358 983.8 78.8436 1015.35 83.8678C1044.41 88.494 1075.35 88.7593 1105.35 86.9851C1138.08 85.0451 1169.99 80.6012 1201.41 75.671C1235.32 70.3594 1270.21 62.2566 1305.54 60.1121C1381.66 55.4858 1460.36 69.464 1535 58.0007" stroke="url(#paint39_linear_425_4472)" stroke-miterlimit="10"/>
<path d="M-21 41C59.2011 43.7147 124.879 70.6415 207.565 66.5418C269.818 63.4519 328.969 50.6561 391.589 48.9235C452.848 47.2075 515.738 57.2002 576.045 61.7248C633.694 66.0397 690.706 67.6123 747.793 60.7537C806.934 53.6468 866.344 55.9035 924.296 64.8975C956.228 69.8635 985.609 78.3057 1017.32 83.2497C1046.26 87.7577 1077.06 87.7246 1106.76 85.6499C1139.43 83.3766 1171.16 78.554 1202.4 73.3176C1236.06 67.6785 1271 59.1701 1306.32 57.0126C1382.21 52.3832 1460.66 68.2965 1535 56.4608" stroke="url(#paint40_linear_425_4472)" stroke-miterlimit="10"/>
<path d="M-21 40C59.5668 42.7559 125.416 69.813 208.458 65.8391C270.752 62.8517 330.183 50.4558 392.856 48.9731C454.026 47.5235 516.494 57.621 576.757 62.0249C634.416 66.2304 691.221 67.3603 747.972 59.8202C807.792 51.8999 867.471 55.0415 925.833 64.7147C957.644 69.9839 987.241 78.6759 1019.12 83.5593C1047.94 87.9687 1078.55 87.6601 1108.04 85.3176C1140.63 82.727 1172.19 77.546 1203.27 72.0287C1236.7 66.0926 1271.69 57.2187 1307 55.0305C1382.64 50.3455 1460.91 68.176 1535 55.9289" stroke="url(#paint41_linear_425_4472)" stroke-miterlimit="10"/>
<path d="M-21 39C59.9018 41.7577 125.859 69.0203 209.257 65.1375C271.627 62.2309 331.361 50.1687 394.098 48.9277C455.204 47.7143 517.282 57.9675 577.481 62.286C635.161 66.4171 691.804 67.1285 748.21 58.9382C808.646 50.1632 868.476 54.1343 927.248 64.4536C958.952 70.0296 988.743 78.9536 1020.75 83.7961C1049.47 88.1367 1079.97 87.5852 1109.18 84.9929C1141.73 82.1029 1173.12 76.5875 1204.06 70.8018C1237.3 64.5749 1272.32 55.3918 1307.67 53.1525C1383.16 48.3652 1461.23 68.0993 1535 55.3587" stroke="url(#paint42_linear_425_4472)" stroke-miterlimit="10"/>
<path d="M-21 38C60.2146 40.764 126.237 68.2601 209.958 64.4292C272.338 61.5768 332.342 49.8078 395.133 48.7574C456.173 47.7569 517.841 58.2158 578.038 62.4834C635.751 66.5741 692.286 66.9058 748.366 58.061C809.429 48.4258 869.291 53.1577 928.495 64.1418C960.058 70.0015 990.022 79.1502 1022.15 83.9706C1050.78 88.2714 1081.13 87.5085 1110.14 84.6893C1142.64 81.5218 1173.89 75.6953 1204.7 69.6532C1237.79 63.1578 1272.77 53.716 1308.22 51.4109C1383.55 46.4633 1461.52 68.1054 1535 54.7719" stroke="url(#paint43_linear_425_4472)" stroke-miterlimit="10"/>
<path d="M-21 37C59.8153 39.7722 125.622 67.3496 208.857 63.7735C274.631 60.9514 338.212 48.2051 404.58 48.4656C461.32 48.6874 518.255 58.2514 574.304 62.3652C633.854 66.7342 690.853 66.6122 748.523 57.2589C812.471 46.9132 872.388 52.3522 934.023 64.655C961.653 70.1661 987.976 77.6842 1015.81 82.8459C1045.27 88.3071 1077.61 87.7748 1107.92 84.7421C1142.31 81.3046 1175.24 74.7623 1207.68 68.1092C1240.37 61.3784 1275.14 51.9031 1310.39 49.6854C1384.95 45.0226 1462.49 68.0426 1535 54.1597" stroke="url(#paint44_linear_425_4472)" stroke-miterlimit="10"/>
<path d="M-21 37C60.0417 39.6986 125.848 67.1061 209.31 63.57C275.105 60.7783 338.976 48.4896 405.322 48.9001C462.019 49.2559 518.662 58.961 574.678 63.0281C634.271 67.3524 691.259 66.9254 748.647 57.089C813.243 46.0099 872.846 52.0092 934.989 64.7523C962.489 70.3904 988.887 77.8786 1016.8 82.9802C1046.19 88.3774 1078.39 87.7424 1108.53 84.5785C1142.9 80.9713 1175.69 74.233 1208.03 67.4892C1240.69 60.6798 1275.44 51.221 1310.78 48.922C1385.2 44.116 1462.83 68.5457 1535 54.1769" stroke="url(#paint45_linear_425_4472)" stroke-miterlimit="10"/>
<path d="M-21 36C60.2038 38.6784 125.956 66.4948 209.655 62.8721C275.461 60.0225 339.473 47.8898 405.906 48.4365C462.581 48.9004 518.954 59.0064 574.948 63.1427C634.573 67.5606 691.648 66.8592 748.669 56.339C813.891 44.3112 873.019 50.8719 935.691 64.2692C963.127 70.1285 989.59 77.7605 1017.52 82.9681C1046.89 88.4408 1078.81 87.7505 1108.93 84.4095C1178.5 76.6781 1240.84 52.4734 1311.09 47.5915C1385.38 42.4281 1463.21 68.7369 1535 53.5116" stroke="url(#paint46_linear_425_4472)" stroke-miterlimit="10"/>
<path d="M-21 36C60.3357 38.6058 126.068 66.4026 209.867 62.7161C275.686 59.8141 339.916 47.9976 406.318 48.6284C463.005 49.177 519.131 59.5672 575.105 63.7474C634.753 68.2019 692.024 67.3023 748.723 56.2867C814.52 43.4992 872.99 50.3949 936.258 64.2412C963.468 70.1823 989.996 78.0545 1017.99 83.0247C1047.73 88.2966 1078.69 87.8687 1109.13 84.4016C1178.83 76.4581 1240.82 52.3917 1311.32 47.1911C1385.51 41.7053 1463.68 69.4363 1535 53.5108" stroke="url(#paint47_linear_425_4472)" stroke-miterlimit="10"/>
<path d="M-21 36C60.4176 38.5428 126.027 66.6575 209.908 62.8129C275.723 59.7957 340.036 48.113 406.564 48.7969C463.259 49.3816 519.166 60.27 575.126 64.5724C634.771 69.1562 692.341 68.1026 748.702 56.4696C815.003 42.7735 872.649 49.9553 936.518 64.407C994.867 77.601 1042.94 92.6209 1109.01 84.8876C1178.89 76.7075 1240.59 52.7132 1311.33 47.0649C1385.43 41.1463 1464.01 70.5352 1535 53.684" stroke="url(#paint48_linear_425_4472)" stroke-miterlimit="10"/>
</g>
<defs>
<linearGradient id="paint0_linear_425_4472" x1="756" y1="139" x2="756" y2="230" gradientUnits="userSpaceOnUse">
<stop stop-color="#05C971"/>
<stop offset="0.307292" stop-color="#05BDC9" stop-opacity="0.755208"/>
<stop offset="1" stop-color="#05C971" stop-opacity="0.31"/>
</linearGradient>
<linearGradient id="paint1_linear_425_4472" x1="756" y1="135" x2="756" y2="225" gradientUnits="userSpaceOnUse">
<stop stop-color="#05C971"/>
<stop offset="0.307292" stop-color="#05BDC9" stop-opacity="0.755208"/>
<stop offset="1" stop-color="#05C971" stop-opacity="0.31"/>
</linearGradient>
<linearGradient id="paint2_linear_425_4472" x1="756" y1="131" x2="756" y2="220" gradientUnits="userSpaceOnUse">
<stop stop-color="#05C971"/>
<stop offset="0.307292" stop-color="#05BDC9" stop-opacity="0.755208"/>
<stop offset="1" stop-color="#05C971" stop-opacity="0.31"/>
</linearGradient>
<linearGradient id="paint3_linear_425_4472" x1="756" y1="127" x2="756" y2="215" gradientUnits="userSpaceOnUse">
<stop stop-color="#05C971"/>
<stop offset="0.307292" stop-color="#05BDC9" stop-opacity="0.755208"/>
<stop offset="1" stop-color="#05C971" stop-opacity="0.31"/>
</linearGradient>
<linearGradient id="paint4_linear_425_4472" x1="756" y1="124" x2="756" y2="210" gradientUnits="userSpaceOnUse">
<stop stop-color="#05C971"/>
<stop offset="0.307292" stop-color="#05BDC9" stop-opacity="0.755208"/>
<stop offset="1" stop-color="#05C971" stop-opacity="0.31"/>
</linearGradient>
<linearGradient id="paint5_linear_425_4472" x1="756" y1="120" x2="756" y2="205" gradientUnits="userSpaceOnUse">
<stop stop-color="#05C971"/>
<stop offset="0.307292" stop-color="#05BDC9" stop-opacity="0.755208"/>
<stop offset="1" stop-color="#05C971" stop-opacity="0.31"/>
</linearGradient>
<linearGradient id="paint6_linear_425_4472" x1="756" y1="118" x2="756" y2="200" gradientUnits="userSpaceOnUse">
<stop stop-color="#05C971"/>
<stop offset="0.307292" stop-color="#05BDC9" stop-opacity="0.755208"/>
<stop offset="1" stop-color="#05C971" stop-opacity="0.31"/>
</linearGradient>
<linearGradient id="paint7_linear_425_4472" x1="756" y1="114" x2="756" y2="196" gradientUnits="userSpaceOnUse">
<stop stop-color="#05C971"/>
<stop offset="0.307292" stop-color="#05BDC9" stop-opacity="0.755208"/>
<stop offset="1" stop-color="#05C971" stop-opacity="0.31"/>
</linearGradient>
<linearGradient id="paint8_linear_425_4472" x1="756" y1="111" x2="756" y2="191" gradientUnits="userSpaceOnUse">
<stop stop-color="#05C971"/>
<stop offset="0.307292" stop-color="#05BDC9" stop-opacity="0.755208"/>
<stop offset="1" stop-color="#05C971" stop-opacity="0.31"/>
</linearGradient>
<linearGradient id="paint9_linear_425_4472" x1="756" y1="107" x2="756" y2="187" gradientUnits="userSpaceOnUse">
<stop stop-color="#05C971"/>
<stop offset="0.307292" stop-color="#05BDC9" stop-opacity="0.755208"/>
<stop offset="1" stop-color="#05C971" stop-opacity="0.31"/>
</linearGradient>
<linearGradient id="paint10_linear_425_4472" x1="756" y1="104" x2="756" y2="183" gradientUnits="userSpaceOnUse">
<stop stop-color="#05C971"/>
<stop offset="0.307292" stop-color="#05BDC9" stop-opacity="0.755208"/>
<stop offset="1" stop-color="#05C971" stop-opacity="0.31"/>
</linearGradient>
<linearGradient id="paint11_linear_425_4472" x1="756" y1="100" x2="756" y2="178" gradientUnits="userSpaceOnUse">
<stop stop-color="#05C971"/>
<stop offset="0.307292" stop-color="#05BDC9" stop-opacity="0.755208"/>
<stop offset="1" stop-color="#05C971" stop-opacity="0.31"/>
</linearGradient>
<linearGradient id="paint12_linear_425_4472" x1="756" y1="95" x2="756" y2="174" gradientUnits="userSpaceOnUse">
<stop stop-color="#05C971"/>
<stop offset="0.307292" stop-color="#05BDC9" stop-opacity="0.755208"/>
<stop offset="1" stop-color="#05C971" stop-opacity="0.31"/>
</linearGradient>
<linearGradient id="paint13_linear_425_4472" x1="756.5" y1="91" x2="756.5" y2="169" gradientUnits="userSpaceOnUse">
<stop stop-color="#05C971"/>
<stop offset="0.307292" stop-color="#05BDC9" stop-opacity="0.755208"/>
<stop offset="1" stop-color="#05C971" stop-opacity="0.31"/>
</linearGradient>
<linearGradient id="paint14_linear_425_4472" x1="756.5" y1="88" x2="756.5" y2="165" gradientUnits="userSpaceOnUse">
<stop stop-color="#05C971"/>
<stop offset="0.307292" stop-color="#05BDC9" stop-opacity="0.755208"/>
<stop offset="1" stop-color="#05C971" stop-opacity="0.31"/>
</linearGradient>
<linearGradient id="paint15_linear_425_4472" x1="757" y1="84" x2="757" y2="160" gradientUnits="userSpaceOnUse">
<stop stop-color="#05C971"/>
<stop offset="0.307292" stop-color="#05BDC9" stop-opacity="0.755208"/>
<stop offset="1" stop-color="#05C971" stop-opacity="0.31"/>
</linearGradient>
<linearGradient id="paint16_linear_425_4472" x1="757" y1="81" x2="757" y2="156" gradientUnits="userSpaceOnUse">
<stop stop-color="#05C971"/>
<stop offset="0.307292" stop-color="#05BDC9" stop-opacity="0.755208"/>
<stop offset="1" stop-color="#05C971" stop-opacity="0.31"/>
</linearGradient>
<linearGradient id="paint17_linear_425_4472" x1="757" y1="78" x2="757" y2="151" gradientUnits="userSpaceOnUse">
<stop stop-color="#05C971"/>
<stop offset="0.307292" stop-color="#05BDC9" stop-opacity="0.755208"/>
<stop offset="1" stop-color="#05C971" stop-opacity="0.31"/>
</linearGradient>
<linearGradient id="paint18_linear_425_4472" x1="757" y1="75" x2="757" y2="146" gradientUnits="userSpaceOnUse">
<stop stop-color="#05C971"/>
<stop offset="0.307292" stop-color="#05BDC9" stop-opacity="0.755208"/>
<stop offset="1" stop-color="#05C971" stop-opacity="0.31"/>
</linearGradient>
<linearGradient id="paint19_linear_425_4472" x1="757" y1="72" x2="757" y2="142" gradientUnits="userSpaceOnUse">
<stop stop-color="#05C971"/>
<stop offset="0.307292" stop-color="#05BDC9" stop-opacity="0.755208"/>
<stop offset="1" stop-color="#05C971" stop-opacity="0.31"/>
</linearGradient>
<linearGradient id="paint20_linear_425_4472" x1="757" y1="70" x2="757" y2="137" gradientUnits="userSpaceOnUse">
<stop stop-color="#05C971"/>
<stop offset="0.307292" stop-color="#05BDC9" stop-opacity="0.755208"/>
<stop offset="1" stop-color="#05C971" stop-opacity="0.31"/>
</linearGradient>
<linearGradient id="paint21_linear_425_4472" x1="757" y1="67" x2="757" y2="132" gradientUnits="userSpaceOnUse">
<stop stop-color="#05C971"/>
<stop offset="0.307292" stop-color="#05BDC9" stop-opacity="0.755208"/>
<stop offset="1" stop-color="#05C971" stop-opacity="0.31"/>
</linearGradient>
<linearGradient id="paint22_linear_425_4472" x1="757" y1="65" x2="757" y2="128" gradientUnits="userSpaceOnUse">
<stop stop-color="#05C971"/>
<stop offset="0.307292" stop-color="#05BDC9" stop-opacity="0.755208"/>
<stop offset="1" stop-color="#05C971" stop-opacity="0.31"/>
</linearGradient>
<linearGradient id="paint23_linear_425_4472" x1="757" y1="63" x2="757" y2="123" gradientUnits="userSpaceOnUse">
<stop stop-color="#05C971"/>
<stop offset="0.307292" stop-color="#05BDC9" stop-opacity="0.755208"/>
<stop offset="1" stop-color="#05C971" stop-opacity="0.31"/>
</linearGradient>
<linearGradient id="paint24_linear_425_4472" x1="757" y1="61" x2="757" y2="119" gradientUnits="userSpaceOnUse">
<stop stop-color="#05C971"/>
<stop offset="0.307292" stop-color="#05BDC9" stop-opacity="0.755208"/>
<stop offset="1" stop-color="#05C971" stop-opacity="0.31"/>
</linearGradient>
<linearGradient id="paint25_linear_425_4472" x1="757" y1="60" x2="757" y2="115" gradientUnits="userSpaceOnUse">
<stop stop-color="#05C971"/>
<stop offset="0.307292" stop-color="#05BDC9" stop-opacity="0.755208"/>
<stop offset="1" stop-color="#05C971" stop-opacity="0.31"/>
</linearGradient>
<linearGradient id="paint26_linear_425_4472" x1="757" y1="58" x2="757" y2="111" gradientUnits="userSpaceOnUse">
<stop stop-color="#05C971"/>
<stop offset="0.307292" stop-color="#05BDC9" stop-opacity="0.755208"/>
<stop offset="1" stop-color="#05C971" stop-opacity="0.31"/>
</linearGradient>
<linearGradient id="paint27_linear_425_4472" x1="757" y1="57" x2="757" y2="107" gradientUnits="userSpaceOnUse">
<stop stop-color="#05C971"/>
<stop offset="0.307292" stop-color="#05BDC9" stop-opacity="0.755208"/>
<stop offset="1" stop-color="#05C971" stop-opacity="0.31"/>
</linearGradient>
<linearGradient id="paint28_linear_425_4472" x1="757" y1="56" x2="757" y2="104" gradientUnits="userSpaceOnUse">
<stop stop-color="#05C971"/>
<stop offset="0.307292" stop-color="#05BDC9" stop-opacity="0.755208"/>
<stop offset="1" stop-color="#05C971" stop-opacity="0.31"/>
</linearGradient>
<linearGradient id="paint29_linear_425_4472" x1="757" y1="55" x2="757" y2="101" gradientUnits="userSpaceOnUse">
<stop stop-color="#05C971"/>
<stop offset="0.307292" stop-color="#05BDC9" stop-opacity="0.755208"/>
<stop offset="1" stop-color="#05C971" stop-opacity="0.31"/>
</linearGradient>
<linearGradient id="paint30_linear_425_4472" x1="757" y1="54" x2="757" y2="98" gradientUnits="userSpaceOnUse">
<stop stop-color="#05C971"/>
<stop offset="0.307292" stop-color="#05BDC9" stop-opacity="0.755208"/>
<stop offset="1" stop-color="#05C971" stop-opacity="0.31"/>
</linearGradient>
<linearGradient id="paint31_linear_425_4472" x1="757" y1="53" x2="757" y2="96" gradientUnits="userSpaceOnUse">
<stop stop-color="#05C971"/>
<stop offset="0.307292" stop-color="#05BDC9" stop-opacity="0.755208"/>
<stop offset="1" stop-color="#05C971" stop-opacity="0.31"/>
</linearGradient>
<linearGradient id="paint32_linear_425_4472" x1="757" y1="52" x2="757" y2="94" gradientUnits="userSpaceOnUse">
<stop stop-color="#05C971"/>
<stop offset="0.307292" stop-color="#05BDC9" stop-opacity="0.755208"/>
<stop offset="1" stop-color="#05C971" stop-opacity="0.31"/>
</linearGradient>
<linearGradient id="paint33_linear_425_4472" x1="757" y1="52" x2="757" y2="93" gradientUnits="userSpaceOnUse">
<stop stop-color="#05C971"/>
<stop offset="0.307292" stop-color="#05BDC9" stop-opacity="0.755208"/>
<stop offset="1" stop-color="#05C971" stop-opacity="0.31"/>
</linearGradient>
<linearGradient id="paint34_linear_425_4472" x1="757" y1="51" x2="757" y2="91" gradientUnits="userSpaceOnUse">
<stop stop-color="#05C971"/>
<stop offset="0.307292" stop-color="#05BDC9" stop-opacity="0.755208"/>
<stop offset="1" stop-color="#05C971" stop-opacity="0.31"/>
</linearGradient>
<linearGradient id="paint35_linear_425_4472" x1="757" y1="50" x2="757" y2="90" gradientUnits="userSpaceOnUse">
<stop stop-color="#05C971"/>
<stop offset="0.307292" stop-color="#05BDC9" stop-opacity="0.755208"/>
<stop offset="1" stop-color="#05C971" stop-opacity="0.31"/>
</linearGradient>
<linearGradient id="paint36_linear_425_4472" x1="757" y1="48" x2="757" y2="89" gradientUnits="userSpaceOnUse">
<stop stop-color="#05C971"/>
<stop offset="0.307292" stop-color="#05BDC9" stop-opacity="0.755208"/>
<stop offset="1" stop-color="#05C971" stop-opacity="0.31"/>
</linearGradient>
<linearGradient id="paint37_linear_425_4472" x1="757" y1="46" x2="757" y2="88" gradientUnits="userSpaceOnUse">
<stop stop-color="#05C971"/>
<stop offset="0.307292" stop-color="#05BDC9" stop-opacity="0.755208"/>
<stop offset="1" stop-color="#05C971" stop-opacity="0.31"/>
</linearGradient>
<linearGradient id="paint38_linear_425_4472" x1="757" y1="44" x2="757" y2="88" gradientUnits="userSpaceOnUse">
<stop stop-color="#05C971"/>
<stop offset="0.307292" stop-color="#05BDC9" stop-opacity="0.755208"/>
<stop offset="1" stop-color="#05C971" stop-opacity="0.31"/>
</linearGradient>
<linearGradient id="paint39_linear_425_4472" x1="757" y1="43" x2="757" y2="88" gradientUnits="userSpaceOnUse">
<stop stop-color="#05C971"/>
<stop offset="0.307292" stop-color="#05BDC9" stop-opacity="0.755208"/>
<stop offset="1" stop-color="#05C971" stop-opacity="0.31"/>
</linearGradient>
<linearGradient id="paint40_linear_425_4472" x1="757" y1="41" x2="757" y2="87" gradientUnits="userSpaceOnUse">
<stop stop-color="#05C971"/>
<stop offset="0.307292" stop-color="#05BDC9" stop-opacity="0.755208"/>
<stop offset="1" stop-color="#05C971" stop-opacity="0.31"/>
</linearGradient>
<linearGradient id="paint41_linear_425_4472" x1="757" y1="40" x2="757" y2="87" gradientUnits="userSpaceOnUse">
<stop stop-color="#05C971"/>
<stop offset="0.307292" stop-color="#05BDC9" stop-opacity="0.755208"/>
<stop offset="1" stop-color="#05C971" stop-opacity="0.31"/>
</linearGradient>
<linearGradient id="paint42_linear_425_4472" x1="757" y1="39" x2="757" y2="87" gradientUnits="userSpaceOnUse">
<stop stop-color="#05C971"/>
<stop offset="0.307292" stop-color="#05BDC9" stop-opacity="0.755208"/>
<stop offset="1" stop-color="#05C971" stop-opacity="0.31"/>
</linearGradient>
<linearGradient id="paint43_linear_425_4472" x1="757" y1="38" x2="757" y2="87" gradientUnits="userSpaceOnUse">
<stop stop-color="#05C971"/>
<stop offset="0.307292" stop-color="#05BDC9" stop-opacity="0.755208"/>
<stop offset="1" stop-color="#05C971" stop-opacity="0.31"/>
</linearGradient>
<linearGradient id="paint44_linear_425_4472" x1="757" y1="37" x2="757" y2="87" gradientUnits="userSpaceOnUse">
<stop stop-color="#05C971"/>
<stop offset="0.307292" stop-color="#05BDC9" stop-opacity="0.755208"/>
<stop offset="1" stop-color="#05C971" stop-opacity="0.31"/>
</linearGradient>
<linearGradient id="paint45_linear_425_4472" x1="757" y1="37" x2="757" y2="87" gradientUnits="userSpaceOnUse">
<stop stop-color="#05C971"/>
<stop offset="0.307292" stop-color="#05BDC9" stop-opacity="0.755208"/>
<stop offset="1" stop-color="#05C971" stop-opacity="0.31"/>
</linearGradient>
<linearGradient id="paint46_linear_425_4472" x1="757" y1="36" x2="757" y2="87" gradientUnits="userSpaceOnUse">
<stop stop-color="#05C971"/>
<stop offset="0.307292" stop-color="#05BDC9" stop-opacity="0.755208"/>
<stop offset="1" stop-color="#05C971" stop-opacity="0.31"/>
</linearGradient>
<linearGradient id="paint47_linear_425_4472" x1="757" y1="36" x2="757" y2="87" gradientUnits="userSpaceOnUse">
<stop stop-color="#05C971"/>
<stop offset="0.307292" stop-color="#05BDC9" stop-opacity="0.755208"/>
<stop offset="1" stop-color="#05C971" stop-opacity="0.31"/>
</linearGradient>
<linearGradient id="paint48_linear_425_4472" x1="757" y1="36" x2="757" y2="87" gradientUnits="userSpaceOnUse">
<stop stop-color="#05C971"/>
<stop offset="0.307292" stop-color="#05BDC9" stop-opacity="0.755208"/>
<stop offset="1" stop-color="#05C971" stop-opacity="0.31"/>
</linearGradient>
</defs>
</svg>
