<svg width="50" height="30" viewBox="0 0 50 30" fill="none" xmlns="http://www.w3.org/2000/svg">
<path d="M1.97869 11H0.348011L4.01207 0.818182H5.78693L9.45099 11H7.82031L4.94176 2.66761H4.86222L1.97869 11ZM2.25213 7.01278H7.5419V8.3054H2.25213V7.01278ZM10.8704 11V3.36364H12.3569V11H10.8704ZM11.6211 2.18537C11.3626 2.18537 11.1405 2.09919 10.9549 1.92685C10.7726 1.75118 10.6815 1.54238 10.6815 1.30043C10.6815 1.05516 10.7726 0.846354 10.9549 0.674005C11.1405 0.498342 11.3626 0.410511 11.6211 0.410511C11.8796 0.410511 12.1 0.498342 12.2823 0.674005C12.4679 0.846354 12.5607 1.05516 12.5607 1.30043C12.5607 1.54238 12.4679 1.75118 12.2823 1.92685C12.1 2.09919 11.8796 2.18537 11.6211 2.18537ZM17.2154 11.1491C16.5989 11.1491 16.0487 10.9917 15.5648 10.6768C15.0842 10.3587 14.7064 9.90625 14.4313 9.3196C14.1595 8.72964 14.0236 8.02202 14.0236 7.19673C14.0236 6.37145 14.1612 5.66548 14.4363 5.07884C14.7147 4.49219 15.0958 4.04309 15.5797 3.73153C16.0636 3.41998 16.6122 3.2642 17.2253 3.2642C17.6993 3.2642 18.0804 3.34375 18.3688 3.50284C18.6605 3.65862 18.8858 3.84091 19.0449 4.04972C19.2073 4.25852 19.3333 4.44247 19.4228 4.60156H19.5123V0.818182H20.9988V11H19.5471V9.81179H19.4228C19.3333 9.9742 19.204 10.1598 19.035 10.3686C18.8693 10.5774 18.6406 10.7597 18.3489 10.9155C18.0572 11.0713 17.6794 11.1491 17.2154 11.1491ZM17.5435 9.88139C17.9711 9.88139 18.3323 9.7687 18.6273 9.54332C18.9256 9.31463 19.151 8.99811 19.3034 8.59375C19.4592 8.18939 19.5371 7.71875 19.5371 7.18182C19.5371 6.65151 19.4609 6.1875 19.3084 5.78977C19.156 5.39205 18.9322 5.08215 18.6373 4.86009C18.3423 4.63802 17.9777 4.52699 17.5435 4.52699C17.0961 4.52699 16.7232 4.64299 16.4249 4.875C16.1266 5.10701 15.9012 5.42353 15.7488 5.82457C15.5996 6.22562 15.525 6.67803 15.525 7.18182C15.525 7.69223 15.6013 8.15128 15.7537 8.55895C15.9062 8.96662 16.1316 9.28977 16.4299 9.52841C16.7315 9.76373 17.1027 9.88139 17.5435 9.88139ZM26.337 11.1541C25.6211 11.1541 24.9963 10.9901 24.4627 10.6619C23.9291 10.3338 23.5148 9.87476 23.2198 9.2848C22.9248 8.69484 22.7773 8.00544 22.7773 7.21662C22.7773 6.42448 22.9248 5.73177 23.2198 5.13849C23.5148 4.54522 23.9291 4.08452 24.4627 3.75639C24.9963 3.42827 25.6211 3.2642 26.337 3.2642C27.0529 3.2642 27.6777 3.42827 28.2113 3.75639C28.7449 4.08452 29.1592 4.54522 29.4542 5.13849C29.7492 5.73177 29.8967 6.42448 29.8967 7.21662C29.8967 8.00544 29.7492 8.69484 29.4542 9.2848C29.1592 9.87476 28.7449 10.3338 28.2113 10.6619C27.6777 10.9901 27.0529 11.1541 26.337 11.1541ZM26.342 9.90625C26.806 9.90625 27.1905 9.78362 27.4954 9.53835C27.8003 9.29309 28.0257 8.96662 28.1715 8.55895C28.3207 8.15128 28.3952 7.70218 28.3952 7.21165C28.3952 6.72443 28.3207 6.27699 28.1715 5.86932C28.0257 5.45833 27.8003 5.12855 27.4954 4.87997C27.1905 4.63139 26.806 4.5071 26.342 4.5071C25.8746 4.5071 25.4869 4.63139 25.1786 4.87997C24.8737 5.12855 24.6467 5.45833 24.4975 5.86932C24.3517 6.27699 24.2788 6.72443 24.2788 7.21165C24.2788 7.70218 24.3517 8.15128 24.4975 8.55895C24.6467 8.96662 24.8737 9.29309 25.1786 9.53835C25.4869 9.78362 25.8746 9.90625 26.342 9.90625ZM37.2782 5.22798L35.9309 5.46662C35.8746 5.29427 35.7851 5.13021 35.6625 4.97443C35.5431 4.81865 35.3807 4.69105 35.1752 4.59162C34.9698 4.49219 34.7129 4.44247 34.4047 4.44247C33.9837 4.44247 33.6324 4.53693 33.3507 4.72585C33.069 4.91146 32.9281 5.15175 32.9281 5.44673C32.9281 5.70194 33.0225 5.90743 33.2115 6.06321C33.4004 6.21899 33.7053 6.34659 34.1262 6.44602L35.3393 6.72443C36.042 6.88684 36.5656 7.13707 36.9103 7.47514C37.255 7.81321 37.4274 8.25237 37.4274 8.79261C37.4274 9.25 37.2948 9.65767 37.0297 10.0156C36.7678 10.3703 36.4016 10.6487 35.9309 10.8509C35.4636 11.053 34.9217 11.1541 34.3052 11.1541C33.4501 11.1541 32.7524 10.9718 32.2122 10.6072C31.6719 10.2393 31.3405 9.71733 31.2179 9.04119L32.6547 8.82244C32.7441 9.19697 32.9281 9.48035 33.2065 9.67259C33.4849 9.86151 33.8478 9.95597 34.2953 9.95597C34.7825 9.95597 35.1719 9.85488 35.4636 9.6527C35.7553 9.44721 35.9011 9.19697 35.9011 8.90199C35.9011 8.66335 35.8116 8.46283 35.6326 8.30043C35.457 8.13802 35.1868 8.01539 34.8223 7.93253L33.5297 7.64915C32.8171 7.48674 32.2901 7.22822 31.9487 6.87358C31.6106 6.51894 31.4416 6.06984 31.4416 5.52628C31.4416 5.07552 31.5675 4.68111 31.8194 4.34304C32.0713 4.00497 32.4193 3.74148 32.8635 3.55256C33.3076 3.36032 33.8163 3.2642 34.3897 3.2642C35.215 3.2642 35.8646 3.44318 36.3386 3.80114C36.8126 4.15578 37.1258 4.63139 37.2782 5.22798ZM1.11861 29V18.8182H2.65483V23.6804H2.77912L7.04972 18.8182H8.98367L4.87713 23.402L8.99858 29H7.14915L3.85795 24.451L2.65483 25.8331V29H1.11861ZM14.655 25.8331V21.3636H16.1465V29H14.6848V27.6776H14.6053C14.4296 28.0852 14.1479 28.425 13.7601 28.6967C13.3757 28.9652 12.8967 29.0994 12.3233 29.0994C11.8328 29.0994 11.3986 28.9917 11.0208 28.7763C10.6462 28.5575 10.3513 28.2344 10.1358 27.8068C9.92371 27.3793 9.81765 26.8506 9.81765 26.2209V21.3636H11.3042V26.0419C11.3042 26.5623 11.4483 26.9766 11.7367 27.2848C12.025 27.593 12.3996 27.7472 12.8603 27.7472C13.1387 27.7472 13.4154 27.6776 13.6905 27.5384C13.9689 27.3991 14.1993 27.1887 14.3816 26.907C14.5672 26.6252 14.6583 26.2673 14.655 25.8331ZM19.6303 24.4659V29H18.1438V21.3636H19.5707V22.6065H19.6651C19.8408 22.2022 20.1159 21.8774 20.4904 21.6321C20.8683 21.3868 21.3439 21.2642 21.9173 21.2642C22.4376 21.2642 22.8933 21.3736 23.2844 21.5923C23.6755 21.8078 23.9788 22.1293 24.1942 22.5568C24.4097 22.9844 24.5174 23.513 24.5174 24.1428V29H23.0309V24.3217C23.0309 23.7682 22.8867 23.3357 22.5984 23.0241C22.31 22.7093 21.9139 22.5518 21.4102 22.5518C21.0655 22.5518 20.7589 22.6264 20.4904 22.7756C20.2253 22.9247 20.0148 23.1435 19.859 23.4318C19.7066 23.7169 19.6303 24.0616 19.6303 24.4659ZM29.8022 29.1541C29.0498 29.1541 28.4019 28.9934 27.8583 28.6719C27.3181 28.3471 26.9004 27.8913 26.6055 27.3047C26.3138 26.7147 26.168 26.0237 26.168 25.2315C26.168 24.4493 26.3138 23.7599 26.6055 23.1634C26.9004 22.5668 27.3114 22.1011 27.8384 21.7663C28.3687 21.4316 28.9885 21.2642 29.6978 21.2642C30.1287 21.2642 30.5463 21.3355 30.9506 21.478C31.355 21.6205 31.7179 21.8442 32.0394 22.1491C32.3609 22.4541 32.6145 22.8501 32.8001 23.3374C32.9857 23.8213 33.0785 24.4096 33.0785 25.1023V25.6293H27.0082V24.5156H31.6218C31.6218 24.1245 31.5423 23.7782 31.3832 23.4766C31.2241 23.1716 31.0004 22.9313 30.712 22.7557C30.427 22.58 30.0922 22.4922 29.7077 22.4922C29.2901 22.4922 28.9255 22.5949 28.614 22.8004C28.3058 23.0026 28.0671 23.2678 27.8981 23.5959C27.7324 23.9207 27.6495 24.2737 27.6495 24.6548V25.5249C27.6495 26.0353 27.739 26.4695 27.918 26.8274C28.1003 27.1854 28.3538 27.4588 28.6786 27.6477C29.0034 27.8333 29.3829 27.9261 29.8171 27.9261C30.0988 27.9261 30.3557 27.8864 30.5877 27.8068C30.8197 27.724 31.0202 27.6013 31.1893 27.4389C31.3583 27.2765 31.4876 27.076 31.5771 26.8374L32.984 27.0909C32.8713 27.5052 32.6692 27.8681 32.3775 28.1797C32.0891 28.4879 31.7262 28.7282 31.2887 28.9006C30.8545 29.0696 30.359 29.1541 29.8022 29.1541ZM38.019 29.1541C37.2666 29.1541 36.6187 28.9934 36.0751 28.6719C35.5349 28.3471 35.1172 27.8913 34.8223 27.3047C34.5306 26.7147 34.3848 26.0237 34.3848 25.2315C34.3848 24.4493 34.5306 23.7599 34.8223 23.1634C35.1172 22.5668 35.5282 22.1011 36.0552 21.7663C36.5855 21.4316 37.2053 21.2642 37.9146 21.2642C38.3455 21.2642 38.7631 21.3355 39.1674 21.478C39.5718 21.6205 39.9347 21.8442 40.2562 22.1491C40.5777 22.4541 40.8313 22.8501 41.0169 23.3374C41.2025 23.8213 41.2953 24.4096 41.2953 25.1023V25.6293H35.225V24.5156H39.8386C39.8386 24.1245 39.7591 23.7782 39.6 23.4766C39.4409 23.1716 39.2172 22.9313 38.9288 22.7557C38.6438 22.58 38.309 22.4922 37.9245 22.4922C37.5069 22.4922 37.1423 22.5949 36.8308 22.8004C36.5225 23.0026 36.2839 23.2678 36.1149 23.5959C35.9492 23.9207 35.8663 24.2737 35.8663 24.6548V25.5249C35.8663 26.0353 35.9558 26.4695 36.1348 26.8274C36.3171 27.1854 36.5706 27.4588 36.8954 27.6477C37.2202 27.8333 37.5997 27.9261 38.0339 27.9261C38.3156 27.9261 38.5725 27.8864 38.8045 27.8068C39.0365 27.724 39.237 27.6013 39.4061 27.4389C39.5751 27.2765 39.7044 27.076 39.7939 26.8374L41.2008 27.0909C41.0881 27.5052 40.8859 27.8681 40.5943 28.1797C40.3059 28.4879 39.943 28.7282 39.5055 28.9006C39.0713 29.0696 38.5758 29.1541 38.019 29.1541ZM44.4311 24.4659V29H42.9446V21.3636H44.3714V22.6065H44.4659C44.6416 22.2022 44.9167 21.8774 45.2912 21.6321C45.669 21.3868 46.1446 21.2642 46.718 21.2642C47.2384 21.2642 47.6941 21.3736 48.0852 21.5923C48.4763 21.8078 48.7796 22.1293 48.995 22.5568C49.2105 22.9844 49.3182 23.513 49.3182 24.1428V29H47.8317V24.3217C47.8317 23.7682 47.6875 23.3357 47.3991 23.0241C47.1108 22.7093 46.7147 22.5518 46.2109 22.5518C45.8662 22.5518 45.5597 22.6264 45.2912 22.7756C45.026 22.9247 44.8156 23.1435 44.6598 23.4318C44.5073 23.7169 44.4311 24.0616 44.4311 24.4659Z" fill="white"/>
</svg>
