<svg width="110" height="76" viewBox="0 0 110 76" fill="none" xmlns="http://www.w3.org/2000/svg">
<path opacity="0.1" d="M32.5057 75.9886C25.9006 75.965 20.1951 74.438 15.3892 71.4077C10.5833 68.3774 6.87831 64.0095 4.27415 58.304C1.66998 52.5985 0.379735 45.7566 0.403409 37.7784C0.427084 29.7765 1.72917 22.982 4.30966 17.3949C6.91383 11.8078 10.607 7.55824 15.3892 4.64631C20.1951 1.73437 25.9006 0.278406 32.5057 0.278406C39.1108 0.278406 44.8163 1.74621 49.6222 4.68182C54.428 7.59375 58.1331 11.8433 60.7372 17.4304C63.3414 23.0175 64.6316 29.8002 64.608 37.7784C64.608 45.804 63.3059 52.6695 60.7017 58.375C58.0975 64.0805 54.3925 68.4484 49.5866 71.4787C44.8045 74.4853 39.1108 75.9886 32.5057 75.9886ZM32.5057 59.9375C35.9148 59.9375 38.7083 58.1619 40.8864 54.6108C43.0881 51.036 44.1771 45.4252 44.1534 37.7784C44.1534 32.7831 43.6563 28.6993 42.6619 25.527C41.6676 22.3546 40.2945 20.0109 38.5426 18.4957C36.7907 16.9569 34.7784 16.1875 32.5057 16.1875C29.0966 16.1875 26.3149 17.9157 24.1605 21.3722C22.0062 24.8286 20.9053 30.2973 20.858 37.7784C20.8343 42.8684 21.3196 47.0587 22.3139 50.3494C23.3082 53.6165 24.6813 56.0312 26.4332 57.5938C28.2088 59.1562 30.233 59.9375 32.5057 59.9375ZM109.53 1.27273V74H89.7855V19.4545H89.3594L73.4503 28.9716V12.2102L91.348 1.27273H109.53Z" fill="#04CA73"/>
</svg>
