<svg width="133" height="76" viewBox="0 0 133 76" fill="none" xmlns="http://www.w3.org/2000/svg">
<path opacity="0.1" d="M32.5057 75.9886C25.9006 75.965 20.1951 74.438 15.3892 71.4077C10.5833 68.3774 6.87831 64.0095 4.27415 58.304C1.66998 52.5985 0.379735 45.7566 0.403409 37.7784C0.427084 29.7765 1.72917 22.982 4.30966 17.3949C6.91383 11.8078 10.607 7.55824 15.3892 4.64631C20.1951 1.73437 25.9006 0.278406 32.5057 0.278406C39.1108 0.278406 44.8163 1.74621 49.6222 4.68182C54.428 7.59375 58.1331 11.8433 60.7372 17.4304C63.3414 23.0175 64.6316 29.8002 64.608 37.7784C64.608 45.804 63.3059 52.6695 60.7017 58.375C58.0975 64.0805 54.3925 68.4484 49.5866 71.4787C44.8045 74.4853 39.1108 75.9886 32.5057 75.9886ZM32.5057 59.9375C35.9148 59.9375 38.7083 58.1619 40.8864 54.6108C43.0881 51.036 44.1771 45.4252 44.1534 37.7784C44.1534 32.7831 43.6563 28.6993 42.6619 25.527C41.6676 22.3546 40.2945 20.0109 38.5426 18.4957C36.7907 16.9569 34.7784 16.1875 32.5057 16.1875C29.0966 16.1875 26.3149 17.9157 24.1605 21.3722C22.0062 24.8286 20.9053 30.2973 20.858 37.7784C20.8343 42.8684 21.3196 47.0587 22.3139 50.3494C23.3082 53.6165 24.6813 56.0312 26.4332 57.5938C28.2088 59.1562 30.233 59.9375 32.5057 59.9375ZM102.286 74.9943C96.5563 74.9943 91.4664 74.0118 87.0156 72.0469C82.5885 70.0582 79.1084 67.3239 76.5753 63.8438C74.0421 60.3636 72.7637 56.3627 72.7401 51.8409H92.6264C92.6501 53.2377 93.0762 54.4924 93.9048 55.6051C94.7571 56.6941 95.9171 57.5464 97.3849 58.1619C98.8527 58.7775 100.534 59.0852 102.428 59.0852C104.25 59.0852 105.86 58.7656 107.257 58.1264C108.654 57.4635 109.743 56.5521 110.524 55.392C111.305 54.232 111.684 52.9062 111.661 51.4148C111.684 49.947 111.234 48.6449 110.311 47.5085C109.411 46.3722 108.145 45.4844 106.511 44.8452C104.878 44.206 102.996 43.8864 100.865 43.8864H93.4787V30.25H100.865C102.83 30.25 104.558 29.9304 106.05 29.2912C107.565 28.652 108.737 27.7642 109.565 26.6278C110.418 25.4915 110.832 24.1894 110.808 22.7216C110.832 21.3011 110.489 20.0464 109.778 18.9574C109.068 17.8684 108.074 17.0161 106.795 16.4006C105.541 15.785 104.085 15.4773 102.428 15.4773C100.628 15.4773 99.0185 15.7969 97.598 16.4361C96.2012 17.0753 95.1004 17.9631 94.2955 19.0994C93.4905 20.2358 93.0762 21.5379 93.0526 23.0057H74.1605C74.1842 18.5549 75.4034 14.625 77.8182 11.2159C80.2566 7.80681 83.5947 5.13163 87.8324 3.19034C92.0701 1.24905 96.9351 0.278406 102.428 0.278406C107.802 0.278406 112.548 1.18986 116.668 3.01278C120.811 4.8357 124.042 7.34517 126.362 10.5412C128.706 13.7135 129.866 17.3475 129.842 21.4432C129.89 25.5152 128.493 28.8532 125.652 31.4574C122.835 34.0616 119.26 35.6004 114.928 36.0739V36.642C120.799 37.2812 125.214 39.0805 128.173 42.0398C131.133 44.9754 132.589 48.6686 132.541 53.1193C132.565 57.3807 131.286 61.1567 128.706 64.4474C126.149 67.7382 122.586 70.3187 118.017 72.1889C113.472 74.0592 108.228 74.9943 102.286 74.9943Z" fill="#04CA73"/>
</svg>
