<svg width="820" height="177" viewBox="0 0 820 177" fill="none" xmlns="http://www.w3.org/2000/svg">
<path d="M240.831 165.939L268.309 160.423L278.4 139.507L261.018 124.106L233.54 129.622L223.449 150.538L240.831 165.939Z" stroke="url(#paint0_linear_987_4761)" stroke-miterlimit="10"/>
<path d="M365.315 216.511L392.793 210.994L402.884 190.078L385.502 174.677L358.024 180.194L347.933 201.11L365.315 216.511Z" stroke="url(#paint1_linear_987_4761)" stroke-miterlimit="10"/>
<path d="M358.024 180.193L385.502 174.677L395.593 153.761L378.211 138.36L350.733 143.876L340.642 164.792L358.024 180.193Z" stroke="url(#paint2_linear_987_4761)" stroke-miterlimit="10"/>
<path d="M412.975 169.162L440.453 163.646L450.544 142.73L433.162 127.329L405.684 132.845L395.593 153.761L412.975 169.162Z" stroke="url(#paint3_linear_987_4761)" stroke-miterlimit="10"/>
<path d="M475.217 194.447L502.694 188.931L512.786 168.015L495.404 152.614L467.926 158.13L457.835 179.046L475.217 194.447Z" stroke="url(#paint4_linear_987_4761)" stroke-miterlimit="10"/>
<path d="M467.926 158.131L495.404 152.615L505.495 131.698L488.113 116.297L460.635 121.814L450.544 142.73L467.926 158.131Z" stroke="url(#paint5_linear_987_4761)" stroke-miterlimit="10"/>
<path d="M687.73 114.004L715.208 108.488L725.299 87.5713L707.917 72.1704L680.439 77.6867L670.348 98.6029L687.73 114.004Z" stroke="url(#paint6_linear_987_4761)" stroke-miterlimit="10"/>
<path d="M702.311 186.638L729.789 181.121L739.88 160.205L722.498 144.804L695.02 150.32L684.929 171.237L702.311 186.638Z" stroke="url(#paint7_linear_987_4761)" stroke-miterlimit="10"/>
<path d="M570.537 99.75L598.015 94.2337L608.106 73.3174L590.724 57.9165L563.246 63.4328L553.155 84.349L570.537 99.75Z" stroke="url(#paint8_linear_987_4761)" stroke-miterlimit="10"/>
<path d="M592.409 208.701L619.887 203.185L629.978 182.269L612.596 166.868L585.119 172.384L575.027 193.3L592.409 208.701Z" stroke="url(#paint9_linear_987_4761)" stroke-miterlimit="10"/>
<path d="M790.341 55.623L817.819 50.1067L827.91 29.1905L810.528 13.7896L783.05 19.3058L772.959 40.2221L790.341 55.623Z" stroke="url(#paint10_linear_987_4761)" stroke-miterlimit="10"/>
<path d="M819.504 200.892L846.982 195.375L857.073 174.459L839.691 159.058L812.214 164.574L802.122 185.491L819.504 200.892Z" stroke="url(#paint11_linear_987_4761)" stroke-miterlimit="10"/>
<path d="M804.923 128.258L832.401 122.741L842.492 101.825L825.11 86.4243L797.632 91.9406L787.541 112.857L804.923 128.258Z" stroke="url(#paint12_linear_987_4761)" stroke-miterlimit="10"/>
<path d="M797.632 91.9404L825.11 86.4241L835.201 65.5079L817.819 50.1069L790.341 55.6232L780.25 76.5394L797.632 91.9404Z" stroke="url(#paint13_linear_987_4761)" stroke-miterlimit="10"/>
<path d="M812.213 164.575L839.691 159.059L849.782 138.143L832.4 122.742L804.922 128.258L794.831 149.174L812.213 164.575Z" stroke="url(#paint14_linear_987_4761)" stroke-miterlimit="10"/>
<path d="M530.168 183.416L557.645 177.9L567.737 156.983L550.355 141.583L522.877 147.099L512.786 168.015L530.168 183.416Z" stroke="url(#paint15_linear_987_4761)" stroke-miterlimit="10"/>
<path d="M537.458 219.732L564.936 214.216L575.027 193.3L557.645 177.899L530.168 183.415L520.076 204.331L537.458 219.732Z" stroke="url(#paint16_linear_987_4761)" stroke-miterlimit="10"/>
<path d="M735.39 66.6552L762.868 61.139L772.959 40.2227L755.577 24.8218L728.099 30.338L718.008 51.2543L735.39 66.6552Z" stroke="url(#paint17_linear_987_4761)" stroke-miterlimit="10"/>
<path d="M764.553 211.924L792.031 206.408L802.122 185.491L784.74 170.09L757.262 175.607L747.171 196.523L764.553 211.924Z" stroke="url(#paint18_linear_987_4761)" stroke-miterlimit="10"/>
<path d="M749.972 139.29L777.449 133.774L787.541 112.857L770.159 97.4565L742.681 102.973L732.59 123.889L749.972 139.29Z" stroke="url(#paint19_linear_987_4761)" stroke-miterlimit="10"/>
<path d="M757.262 175.606L784.74 170.09L794.831 149.174L777.449 133.773L749.972 139.289L739.88 160.205L757.262 175.606Z" stroke="url(#paint20_linear_987_4761)" stroke-miterlimit="10"/>
<path d="M640.069 161.352L667.547 155.836L677.638 134.92L660.257 119.519L632.779 125.035L622.688 145.952L640.069 161.352Z" stroke="url(#paint21_linear_987_4761)" stroke-miterlimit="10"/>
<path d="M632.779 125.035L660.257 119.519L670.348 98.6026L652.966 83.2017L625.488 88.7179L615.397 109.634L632.779 125.035Z" stroke="url(#paint22_linear_987_4761)" stroke-miterlimit="10"/>
<path d="M647.36 197.67L674.838 192.154L684.929 171.237L667.547 155.836L640.07 161.353L629.978 182.269L647.36 197.67Z" stroke="url(#paint23_linear_987_4761)" stroke-miterlimit="10"/>
<defs>
<linearGradient id="paint0_linear_987_4761" x1="247.279" y1="126.864" x2="254.57" y2="163.181" gradientUnits="userSpaceOnUse">
<stop stop-color="#05C971" stop-opacity="0.53"/>
<stop offset="0.432292" stop-color="#05BDC9" stop-opacity="0.63"/>
<stop offset="0.692708" stop-color="#05C971" stop-opacity="0.31"/>
</linearGradient>
<linearGradient id="paint1_linear_987_4761" x1="371.763" y1="177.435" x2="379.054" y2="213.753" gradientUnits="userSpaceOnUse">
<stop stop-color="#05C971" stop-opacity="0.53"/>
<stop offset="0.432292" stop-color="#05BDC9" stop-opacity="0.63"/>
<stop offset="0.692708" stop-color="#05C971" stop-opacity="0.31"/>
</linearGradient>
<linearGradient id="paint2_linear_987_4761" x1="364.472" y1="141.118" x2="371.763" y2="177.435" gradientUnits="userSpaceOnUse">
<stop stop-color="#05C971" stop-opacity="0.53"/>
<stop offset="0.432292" stop-color="#05BDC9" stop-opacity="0.63"/>
<stop offset="0.692708" stop-color="#05C971" stop-opacity="0.31"/>
</linearGradient>
<linearGradient id="paint3_linear_987_4761" x1="419.423" y1="130.087" x2="426.714" y2="166.404" gradientUnits="userSpaceOnUse">
<stop stop-color="#05C971" stop-opacity="0.53"/>
<stop offset="0.432292" stop-color="#05BDC9" stop-opacity="0.63"/>
<stop offset="0.692708" stop-color="#05C971" stop-opacity="0.31"/>
</linearGradient>
<linearGradient id="paint4_linear_987_4761" x1="481.665" y1="155.372" x2="488.955" y2="191.689" gradientUnits="userSpaceOnUse">
<stop stop-color="#05C971" stop-opacity="0.53"/>
<stop offset="0.432292" stop-color="#05BDC9" stop-opacity="0.63"/>
<stop offset="0.692708" stop-color="#05C971" stop-opacity="0.31"/>
</linearGradient>
<linearGradient id="paint5_linear_987_4761" x1="474.374" y1="119.055" x2="481.665" y2="155.373" gradientUnits="userSpaceOnUse">
<stop stop-color="#05C971" stop-opacity="0.53"/>
<stop offset="0.432292" stop-color="#05BDC9" stop-opacity="0.63"/>
<stop offset="0.692708" stop-color="#05C971" stop-opacity="0.31"/>
</linearGradient>
<linearGradient id="paint6_linear_987_4761" x1="694.178" y1="74.9285" x2="701.469" y2="111.246" gradientUnits="userSpaceOnUse">
<stop stop-color="#05C971" stop-opacity="0.53"/>
<stop offset="0.432292" stop-color="#05BDC9" stop-opacity="0.63"/>
<stop offset="0.692708" stop-color="#05C971" stop-opacity="0.31"/>
</linearGradient>
<linearGradient id="paint7_linear_987_4761" x1="708.759" y1="147.562" x2="716.05" y2="183.88" gradientUnits="userSpaceOnUse">
<stop stop-color="#05C971" stop-opacity="0.53"/>
<stop offset="0.432292" stop-color="#05BDC9" stop-opacity="0.63"/>
<stop offset="0.692708" stop-color="#05C971" stop-opacity="0.31"/>
</linearGradient>
<linearGradient id="paint8_linear_987_4761" x1="576.985" y1="60.6746" x2="584.276" y2="96.9918" gradientUnits="userSpaceOnUse">
<stop stop-color="#05C971" stop-opacity="0.53"/>
<stop offset="0.432292" stop-color="#05BDC9" stop-opacity="0.63"/>
<stop offset="0.692708" stop-color="#05C971" stop-opacity="0.31"/>
</linearGradient>
<linearGradient id="paint9_linear_987_4761" x1="598.858" y1="169.626" x2="606.148" y2="205.943" gradientUnits="userSpaceOnUse">
<stop stop-color="#05C971" stop-opacity="0.53"/>
<stop offset="0.432292" stop-color="#05BDC9" stop-opacity="0.63"/>
<stop offset="0.692708" stop-color="#05C971" stop-opacity="0.31"/>
</linearGradient>
<linearGradient id="paint10_linear_987_4761" x1="796.789" y1="16.5477" x2="804.08" y2="52.8649" gradientUnits="userSpaceOnUse">
<stop stop-color="#05C971" stop-opacity="0.53"/>
<stop offset="0.432292" stop-color="#05BDC9" stop-opacity="0.63"/>
<stop offset="0.692708" stop-color="#05C971" stop-opacity="0.31"/>
</linearGradient>
<linearGradient id="paint11_linear_987_4761" x1="825.952" y1="161.816" x2="833.243" y2="198.133" gradientUnits="userSpaceOnUse">
<stop stop-color="#05C971" stop-opacity="0.53"/>
<stop offset="0.432292" stop-color="#05BDC9" stop-opacity="0.63"/>
<stop offset="0.692708" stop-color="#05C971" stop-opacity="0.31"/>
</linearGradient>
<linearGradient id="paint12_linear_987_4761" x1="811.371" y1="89.1824" x2="818.662" y2="125.5" gradientUnits="userSpaceOnUse">
<stop stop-color="#05C971" stop-opacity="0.53"/>
<stop offset="0.432292" stop-color="#05BDC9" stop-opacity="0.63"/>
<stop offset="0.692708" stop-color="#05C971" stop-opacity="0.31"/>
</linearGradient>
<linearGradient id="paint13_linear_987_4761" x1="804.08" y1="52.8651" x2="811.371" y2="89.1822" gradientUnits="userSpaceOnUse">
<stop stop-color="#05C971" stop-opacity="0.53"/>
<stop offset="0.432292" stop-color="#05BDC9" stop-opacity="0.63"/>
<stop offset="0.692708" stop-color="#05C971" stop-opacity="0.31"/>
</linearGradient>
<linearGradient id="paint14_linear_987_4761" x1="818.661" y1="125.5" x2="825.952" y2="161.817" gradientUnits="userSpaceOnUse">
<stop stop-color="#05C971" stop-opacity="0.53"/>
<stop offset="0.432292" stop-color="#05BDC9" stop-opacity="0.63"/>
<stop offset="0.692708" stop-color="#05C971" stop-opacity="0.31"/>
</linearGradient>
<linearGradient id="paint15_linear_987_4761" x1="536.616" y1="144.341" x2="543.907" y2="180.658" gradientUnits="userSpaceOnUse">
<stop stop-color="#05C971" stop-opacity="0.53"/>
<stop offset="0.432292" stop-color="#05BDC9" stop-opacity="0.63"/>
<stop offset="0.692708" stop-color="#05C971" stop-opacity="0.31"/>
</linearGradient>
<linearGradient id="paint16_linear_987_4761" x1="543.907" y1="180.657" x2="551.197" y2="216.974" gradientUnits="userSpaceOnUse">
<stop stop-color="#05C971" stop-opacity="0.53"/>
<stop offset="0.432292" stop-color="#05BDC9" stop-opacity="0.63"/>
<stop offset="0.692708" stop-color="#05C971" stop-opacity="0.31"/>
</linearGradient>
<linearGradient id="paint17_linear_987_4761" x1="741.838" y1="27.5799" x2="749.129" y2="63.8971" gradientUnits="userSpaceOnUse">
<stop stop-color="#05C971" stop-opacity="0.53"/>
<stop offset="0.432292" stop-color="#05BDC9" stop-opacity="0.63"/>
<stop offset="0.692708" stop-color="#05C971" stop-opacity="0.31"/>
</linearGradient>
<linearGradient id="paint18_linear_987_4761" x1="771.001" y1="172.848" x2="778.292" y2="209.166" gradientUnits="userSpaceOnUse">
<stop stop-color="#05C971" stop-opacity="0.53"/>
<stop offset="0.432292" stop-color="#05BDC9" stop-opacity="0.63"/>
<stop offset="0.692708" stop-color="#05C971" stop-opacity="0.31"/>
</linearGradient>
<linearGradient id="paint19_linear_987_4761" x1="756.42" y1="100.215" x2="763.711" y2="136.532" gradientUnits="userSpaceOnUse">
<stop stop-color="#05C971" stop-opacity="0.53"/>
<stop offset="0.432292" stop-color="#05BDC9" stop-opacity="0.63"/>
<stop offset="0.692708" stop-color="#05C971" stop-opacity="0.31"/>
</linearGradient>
<linearGradient id="paint20_linear_987_4761" x1="763.711" y1="136.531" x2="771.001" y2="172.848" gradientUnits="userSpaceOnUse">
<stop stop-color="#05C971" stop-opacity="0.53"/>
<stop offset="0.432292" stop-color="#05BDC9" stop-opacity="0.63"/>
<stop offset="0.692708" stop-color="#05C971" stop-opacity="0.31"/>
</linearGradient>
<linearGradient id="paint21_linear_987_4761" x1="646.518" y1="122.277" x2="653.808" y2="158.594" gradientUnits="userSpaceOnUse">
<stop stop-color="#05C971" stop-opacity="0.53"/>
<stop offset="0.432292" stop-color="#05BDC9" stop-opacity="0.63"/>
<stop offset="0.692708" stop-color="#05C971" stop-opacity="0.31"/>
</linearGradient>
<linearGradient id="paint22_linear_987_4761" x1="639.227" y1="85.9598" x2="646.518" y2="122.277" gradientUnits="userSpaceOnUse">
<stop stop-color="#05C971" stop-opacity="0.53"/>
<stop offset="0.432292" stop-color="#05BDC9" stop-opacity="0.63"/>
<stop offset="0.692708" stop-color="#05C971" stop-opacity="0.31"/>
</linearGradient>
<linearGradient id="paint23_linear_987_4761" x1="653.808" y1="158.595" x2="661.099" y2="194.912" gradientUnits="userSpaceOnUse">
<stop stop-color="#05C971" stop-opacity="0.53"/>
<stop offset="0.432292" stop-color="#05BDC9" stop-opacity="0.63"/>
<stop offset="0.692708" stop-color="#05C971" stop-opacity="0.31"/>
</linearGradient>
</defs>
</svg>
