<svg width="923" height="113" viewBox="0 0 923 113" fill="none" xmlns="http://www.w3.org/2000/svg">
<g opacity="0.7">
<path d="M235.231 -1.5937L207.753 3.92257L197.662 24.8388L215.044 40.2397L242.522 34.7235L252.613 13.8072L235.231 -1.5937Z" stroke="url(#paint0_linear_987_4762)" stroke-miterlimit="10"/>
<path d="M352.423 12.6602L324.946 18.1765L314.854 39.0927L332.236 54.4937L359.714 48.9774L369.805 28.0611L352.423 12.6602Z" stroke="url(#paint1_linear_987_4762)" stroke-miterlimit="10"/>
<path d="M132.619 56.7872L105.141 62.3034L95.0503 83.2197L112.432 98.6206L139.91 93.1043L150.001 72.1881L132.619 56.7872Z" stroke="url(#paint2_linear_987_4762)" stroke-miterlimit="10"/>
<path d="M118.038 -15.8476L90.5599 -10.3313L80.4687 10.5849L97.8507 25.9858L125.329 20.4696L135.42 -0.446671L118.038 -15.8476Z" stroke="url(#paint3_linear_987_4762)" stroke-miterlimit="10"/>
<path d="M125.329 20.4698L97.8509 25.986L87.7597 46.9023L105.142 62.3032L132.62 56.787L142.711 35.8707L125.329 20.4698Z" stroke="url(#paint4_linear_987_4762)" stroke-miterlimit="10"/>
<path d="M187.57 45.7549L160.093 51.2712L150.001 72.1875L167.383 87.5884L194.861 82.0721L204.952 61.1559L187.57 45.7549Z" stroke="url(#paint5_linear_987_4762)" stroke-miterlimit="10"/>
<path d="M172.989 -26.8798L145.511 -21.3636L135.42 -0.447311L152.802 14.9536L180.28 9.43735L190.371 -11.4789L172.989 -26.8798Z" stroke="url(#paint6_linear_987_4762)" stroke-miterlimit="10"/>
<path d="M290.182 -12.625L262.704 -7.10868L252.613 13.8076L269.995 29.2085L297.473 23.6922L307.564 2.77599L290.182 -12.625Z" stroke="url(#paint7_linear_987_4762)" stroke-miterlimit="10"/>
<path d="M77.6686 67.8184L50.1908 73.3347L40.0996 94.2509L57.4815 109.652L84.9594 104.136L95.0506 83.2193L77.6686 67.8184Z" stroke="url(#paint8_linear_987_4762)" stroke-miterlimit="10"/>
<path d="M63.087 -4.81636L35.6091 0.699909L25.5179 21.6162L42.8999 37.0171L70.3778 31.5008L80.4689 10.5846L63.087 -4.81636Z" stroke="url(#paint9_linear_987_4762)" stroke-miterlimit="10"/>
<path d="M70.3778 31.501L42.8999 37.0173L32.8088 57.9335L50.1907 73.3345L77.6686 67.8182L87.7597 46.902L70.3778 31.501Z" stroke="url(#paint10_linear_987_4762)" stroke-miterlimit="10"/>
<path d="M55.7962 -41.1337L28.3183 -35.6175L18.2272 -14.7012L35.6091 0.699707L63.087 -4.81656L73.1782 -25.7328L55.7962 -41.1337Z" stroke="url(#paint11_linear_987_4762)" stroke-miterlimit="10"/>
</g>
<defs>
<linearGradient id="paint0_linear_987_4762" x1="228.783" y1="37.4816" x2="221.492" y2="1.16443" gradientUnits="userSpaceOnUse">
<stop stop-color="#05C971" stop-opacity="0.53"/>
<stop offset="0.432292" stop-color="#05BDC9" stop-opacity="0.63"/>
<stop offset="0.692708" stop-color="#05C971" stop-opacity="0.31"/>
</linearGradient>
<linearGradient id="paint1_linear_987_4762" x1="345.975" y1="51.7355" x2="338.684" y2="15.4183" gradientUnits="userSpaceOnUse">
<stop stop-color="#05C971" stop-opacity="0.53"/>
<stop offset="0.432292" stop-color="#05BDC9" stop-opacity="0.63"/>
<stop offset="0.692708" stop-color="#05C971" stop-opacity="0.31"/>
</linearGradient>
<linearGradient id="paint2_linear_987_4762" x1="126.171" y1="95.8625" x2="118.88" y2="59.5453" gradientUnits="userSpaceOnUse">
<stop stop-color="#05C971" stop-opacity="0.53"/>
<stop offset="0.432292" stop-color="#05BDC9" stop-opacity="0.63"/>
<stop offset="0.692708" stop-color="#05C971" stop-opacity="0.31"/>
</linearGradient>
<linearGradient id="paint3_linear_987_4762" x1="111.59" y1="23.2277" x2="104.299" y2="-13.0895" gradientUnits="userSpaceOnUse">
<stop stop-color="#05C971" stop-opacity="0.53"/>
<stop offset="0.432292" stop-color="#05BDC9" stop-opacity="0.63"/>
<stop offset="0.692708" stop-color="#05C971" stop-opacity="0.31"/>
</linearGradient>
<linearGradient id="paint4_linear_987_4762" x1="118.881" y1="59.5451" x2="111.59" y2="23.2279" gradientUnits="userSpaceOnUse">
<stop stop-color="#05C971" stop-opacity="0.53"/>
<stop offset="0.432292" stop-color="#05BDC9" stop-opacity="0.63"/>
<stop offset="0.692708" stop-color="#05C971" stop-opacity="0.31"/>
</linearGradient>
<linearGradient id="paint5_linear_987_4762" x1="181.122" y1="84.8302" x2="173.832" y2="48.5131" gradientUnits="userSpaceOnUse">
<stop stop-color="#05C971" stop-opacity="0.53"/>
<stop offset="0.432292" stop-color="#05BDC9" stop-opacity="0.63"/>
<stop offset="0.692708" stop-color="#05C971" stop-opacity="0.31"/>
</linearGradient>
<linearGradient id="paint6_linear_987_4762" x1="166.541" y1="12.1955" x2="159.25" y2="-24.1217" gradientUnits="userSpaceOnUse">
<stop stop-color="#05C971" stop-opacity="0.53"/>
<stop offset="0.432292" stop-color="#05BDC9" stop-opacity="0.63"/>
<stop offset="0.692708" stop-color="#05C971" stop-opacity="0.31"/>
</linearGradient>
<linearGradient id="paint7_linear_987_4762" x1="283.734" y1="26.4504" x2="276.443" y2="-9.86682" gradientUnits="userSpaceOnUse">
<stop stop-color="#05C971" stop-opacity="0.53"/>
<stop offset="0.432292" stop-color="#05BDC9" stop-opacity="0.63"/>
<stop offset="0.692708" stop-color="#05C971" stop-opacity="0.31"/>
</linearGradient>
<linearGradient id="paint8_linear_987_4762" x1="71.2205" y1="106.894" x2="63.9297" y2="70.5765" gradientUnits="userSpaceOnUse">
<stop stop-color="#05C971" stop-opacity="0.53"/>
<stop offset="0.432292" stop-color="#05BDC9" stop-opacity="0.63"/>
<stop offset="0.692708" stop-color="#05C971" stop-opacity="0.31"/>
</linearGradient>
<linearGradient id="paint9_linear_987_4762" x1="56.6388" y1="34.259" x2="49.348" y2="-2.05823" gradientUnits="userSpaceOnUse">
<stop stop-color="#05C971" stop-opacity="0.53"/>
<stop offset="0.432292" stop-color="#05BDC9" stop-opacity="0.63"/>
<stop offset="0.692708" stop-color="#05C971" stop-opacity="0.31"/>
</linearGradient>
<linearGradient id="paint10_linear_987_4762" x1="63.9296" y1="70.5763" x2="56.6388" y2="34.2592" gradientUnits="userSpaceOnUse">
<stop stop-color="#05C971" stop-opacity="0.53"/>
<stop offset="0.432292" stop-color="#05BDC9" stop-opacity="0.63"/>
<stop offset="0.692708" stop-color="#05C971" stop-opacity="0.31"/>
</linearGradient>
<linearGradient id="paint11_linear_987_4762" x1="49.3481" y1="-2.05843" x2="42.0573" y2="-38.3756" gradientUnits="userSpaceOnUse">
<stop stop-color="#05C971" stop-opacity="0.53"/>
<stop offset="0.432292" stop-color="#05BDC9" stop-opacity="0.63"/>
<stop offset="0.692708" stop-color="#05C971" stop-opacity="0.31"/>
</linearGradient>
</defs>
</svg>
