<svg width="923" height="395" viewBox="0 0 923 395" fill="none" xmlns="http://www.w3.org/2000/svg">
<g opacity="0.3">
<path d="M872.77 39.0743L845.292 44.5905L835.201 65.5068L852.583 80.9077L880.061 75.3914L890.152 54.4752L872.77 39.0743Z" stroke="url(#paint0_linear_987_4839)" stroke-miterlimit="10"/>
<path d="M887.352 111.709L859.874 117.225L849.783 138.142L867.164 153.542L894.642 148.026L904.734 127.11L887.352 111.709Z" stroke="url(#paint1_linear_987_4839)" stroke-miterlimit="10"/>
<path d="M880.061 75.3917L852.583 80.9079L842.492 101.824L859.873 117.225L887.351 111.709L897.442 90.7926L880.061 75.3917Z" stroke="url(#paint2_linear_987_4839)" stroke-miterlimit="10"/>
<path d="M682.129 228.47L654.652 233.986L644.56 254.902L661.942 270.303L689.42 264.787L699.511 243.871L682.129 228.47Z" stroke="url(#paint3_linear_987_4839)" stroke-miterlimit="10"/>
<path d="M652.966 83.2012L625.488 88.7175L615.397 109.634L632.779 125.035L660.257 119.518L670.348 98.6022L652.966 83.2012Z" stroke="url(#paint4_linear_987_4839)" stroke-miterlimit="10"/>
<path d="M667.548 155.836L640.07 161.352L629.979 182.269L647.361 197.669L674.839 192.153L684.93 171.237L667.548 155.836Z" stroke="url(#paint5_linear_987_4839)" stroke-miterlimit="10"/>
<path d="M660.257 119.519L632.779 125.035L622.688 145.951L640.07 161.352L667.548 155.836L677.639 134.92L660.257 119.519Z" stroke="url(#paint6_linear_987_4839)" stroke-miterlimit="10"/>
<path d="M762.868 61.1377L735.39 66.654L725.299 87.5703L742.681 102.971L770.159 97.4549L780.25 76.5387L762.868 61.1377Z" stroke="url(#paint7_linear_987_4839)" stroke-miterlimit="10"/>
<path d="M777.449 133.773L749.971 139.289L739.88 160.205L757.262 175.606L784.74 170.09L794.831 149.173L777.449 133.773Z" stroke="url(#paint8_linear_987_4839)" stroke-miterlimit="10"/>
<path d="M784.74 170.09L757.263 175.606L747.171 196.522L764.553 211.923L792.031 206.407L802.122 185.491L784.74 170.09Z" stroke="url(#paint9_linear_987_4839)" stroke-miterlimit="10"/>
<path d="M755.577 24.8204L728.099 30.3366L718.008 51.2529L735.39 66.6538L762.868 61.1375L772.959 40.2213L755.577 24.8204Z" stroke="url(#paint10_linear_987_4839)" stroke-miterlimit="10"/>
<path d="M770.159 97.4551L742.681 102.971L732.59 123.888L749.972 139.289L777.449 133.772L787.541 112.856L770.159 97.4551Z" stroke="url(#paint11_linear_987_4839)" stroke-miterlimit="10"/>
<path d="M543.064 105.264L515.586 110.78L505.495 131.696L522.877 147.097L550.355 141.581L560.446 120.665L543.064 105.264Z" stroke="url(#paint12_linear_987_4839)" stroke-miterlimit="10"/>
<path d="M557.646 177.898L530.168 183.415L520.077 204.331L537.459 219.732L564.936 214.216L575.028 193.299L557.646 177.898Z" stroke="url(#paint13_linear_987_4839)" stroke-miterlimit="10"/>
<path d="M564.937 214.216L537.459 219.732L527.367 240.648L544.749 256.049L572.227 250.533L582.318 229.617L564.937 214.216Z" stroke="url(#paint14_linear_987_4839)" stroke-miterlimit="10"/>
<path d="M535.773 68.9473L508.296 74.4636L498.204 95.3798L515.586 110.781L543.064 105.264L553.155 84.3483L535.773 68.9473Z" stroke="url(#paint15_linear_987_4839)" stroke-miterlimit="10"/>
<path d="M550.355 141.581L522.877 147.097L512.786 168.014L530.168 183.415L557.646 177.898L567.737 156.982L550.355 141.581Z" stroke="url(#paint16_linear_987_4839)" stroke-miterlimit="10"/>
<path d="M817.819 50.1065L790.341 55.6228L780.25 76.539L797.632 91.9399L825.11 86.4237L835.201 65.5074L817.819 50.1065Z" stroke="url(#paint17_linear_987_4839)" stroke-miterlimit="10"/>
<path d="M832.401 122.74L804.923 128.257L794.832 149.173L812.214 164.574L839.691 159.057L849.783 138.141L832.401 122.74Z" stroke="url(#paint18_linear_987_4839)" stroke-miterlimit="10"/>
<path d="M839.692 159.058L812.214 164.574L802.123 185.49L819.505 200.891L846.982 195.375L857.074 174.459L839.692 159.058Z" stroke="url(#paint19_linear_987_4839)" stroke-miterlimit="10"/>
<path d="M810.528 13.7891L783.051 19.3054L772.959 40.2216L790.341 55.6226L817.819 50.1063L827.91 29.19L810.528 13.7891Z" stroke="url(#paint20_linear_987_4839)" stroke-miterlimit="10"/>
<path d="M825.11 86.4239L797.632 91.9401L787.541 112.856L804.923 128.257L832.401 122.741L842.492 101.825L825.11 86.4239Z" stroke="url(#paint21_linear_987_4839)" stroke-miterlimit="10"/>
<path d="M598.015 94.2325L570.537 99.7487L560.446 120.665L577.828 136.066L605.306 130.55L615.397 109.633L598.015 94.2325Z" stroke="url(#paint22_linear_987_4839)" stroke-miterlimit="10"/>
<path d="M612.597 166.867L585.119 172.384L575.028 193.3L592.409 208.701L619.887 203.184L629.979 182.268L612.597 166.867Z" stroke="url(#paint23_linear_987_4839)" stroke-miterlimit="10"/>
<path d="M590.724 57.9151L563.247 63.4314L553.155 84.3476L570.537 99.7485L598.015 94.2323L608.106 73.316L590.724 57.9151Z" stroke="url(#paint24_linear_987_4839)" stroke-miterlimit="10"/>
<path d="M605.306 130.55L577.828 136.066L567.737 156.982L585.119 172.383L612.597 166.867L622.688 145.951L605.306 130.55Z" stroke="url(#paint25_linear_987_4839)" stroke-miterlimit="10"/>
<path d="M707.917 72.17L680.439 77.6862L670.348 98.6025L687.73 114.003L715.208 108.487L725.299 87.5709L707.917 72.17Z" stroke="url(#paint26_linear_987_4839)" stroke-miterlimit="10"/>
<path d="M722.499 144.804L695.021 150.32L684.93 171.236L702.312 186.637L729.79 181.121L739.881 160.205L722.499 144.804Z" stroke="url(#paint27_linear_987_4839)" stroke-miterlimit="10"/>
<path d="M488.113 116.296L460.635 121.812L450.544 142.728L467.926 158.129L495.404 152.613L505.495 131.697L488.113 116.296Z" stroke="url(#paint28_linear_987_4839)" stroke-miterlimit="10"/>
<path d="M509.985 225.247L482.508 230.763L472.416 251.68L489.798 267.081L517.276 261.564L527.367 240.648L509.985 225.247Z" stroke="url(#paint29_linear_987_4839)" stroke-miterlimit="10"/>
<path d="M480.822 79.9786L453.344 85.4948L443.253 106.411L460.635 121.812L488.113 116.296L498.204 95.3795L480.822 79.9786Z" stroke="url(#paint30_linear_987_4839)" stroke-miterlimit="10"/>
<path d="M495.404 152.613L467.926 158.13L457.835 179.046L475.217 194.447L502.695 188.931L512.786 168.014L495.404 152.613Z" stroke="url(#paint31_linear_987_4839)" stroke-miterlimit="10"/>
<path d="M433.162 127.327L405.684 132.843L395.593 153.76L412.975 169.161L440.453 163.644L450.544 142.728L433.162 127.327Z" stroke="url(#paint32_linear_987_4839)" stroke-miterlimit="10"/>
<path d="M447.744 199.962L420.266 205.478L410.175 226.394L427.557 241.795L455.035 236.279L465.126 215.363L447.744 199.962Z" stroke="url(#paint33_linear_987_4839)" stroke-miterlimit="10"/>
<path d="M455.035 236.278L427.557 241.795L417.466 262.711L434.847 278.112L462.325 272.596L472.416 251.679L455.035 236.278Z" stroke="url(#paint34_linear_987_4839)" stroke-miterlimit="10"/>
<path d="M425.871 91.0108L398.393 96.5271L388.302 117.443L405.684 132.844L433.162 127.328L443.253 106.412L425.871 91.0108Z" stroke="url(#paint35_linear_987_4839)" stroke-miterlimit="10"/>
<path d="M440.453 163.645L412.975 169.161L402.884 190.077L420.266 205.478L447.744 199.962L457.835 179.046L440.453 163.645Z" stroke="url(#paint36_linear_987_4839)" stroke-miterlimit="10"/>
<path d="M213.358 171.454L185.881 176.97L175.789 197.887L193.171 213.288L220.649 207.771L230.74 186.855L213.358 171.454Z" stroke="url(#paint37_linear_987_4839)" stroke-miterlimit="10"/>
<path d="M235.231 280.405L207.753 285.922L197.662 306.838L215.044 322.239L242.522 316.723L252.613 295.806L235.231 280.405Z" stroke="url(#paint38_linear_987_4839)" stroke-miterlimit="10"/>
<path d="M206.068 135.137L178.59 140.653L168.499 161.569L185.881 176.97L213.358 171.454L223.45 150.538L206.068 135.137Z" stroke="url(#paint39_linear_987_4839)" stroke-miterlimit="10"/>
<path d="M220.649 207.772L193.171 213.288L183.08 234.204L200.462 249.605L227.94 244.089L238.031 223.172L220.649 207.772Z" stroke="url(#paint40_linear_987_4839)" stroke-miterlimit="10"/>
<path d="M352.423 294.659L324.946 300.175L314.854 321.092L332.236 336.493L359.714 330.976L369.805 310.06L352.423 294.659Z" stroke="url(#paint41_linear_987_4839)" stroke-miterlimit="10"/>
<path d="M323.26 149.391L295.783 154.907L285.691 175.823L303.073 191.224L330.551 185.708L340.642 164.792L323.26 149.391Z" stroke="url(#paint42_linear_987_4839)" stroke-miterlimit="10"/>
<path d="M315.969 113.073L288.492 118.59L278.4 139.506L295.782 154.907L323.26 149.39L333.351 128.474L315.969 113.073Z" stroke="url(#paint43_linear_987_4839)" stroke-miterlimit="10"/>
<path d="M330.551 185.708L303.073 191.224L292.982 212.141L310.364 227.542L337.842 222.025L347.933 201.109L330.551 185.708Z" stroke="url(#paint44_linear_987_4839)" stroke-miterlimit="10"/>
<path d="M132.619 338.786L105.142 344.302L95.0504 365.219L112.432 380.62L139.91 375.103L150.001 354.187L132.619 338.786Z" stroke="url(#paint45_linear_987_4839)" stroke-miterlimit="10"/>
<path d="M103.456 193.518L75.9783 199.034L65.8872 219.95L83.2691 235.351L110.747 229.835L120.838 208.919L103.456 193.518Z" stroke="url(#paint46_linear_987_4839)" stroke-miterlimit="10"/>
<path d="M118.038 266.151L90.5599 271.668L80.4687 292.584L97.8507 307.985L125.328 302.469L135.42 281.552L118.038 266.151Z" stroke="url(#paint47_linear_987_4839)" stroke-miterlimit="10"/>
<path d="M125.329 302.469L97.8509 307.985L87.7597 328.901L105.142 344.302L132.62 338.786L142.711 317.87L125.329 302.469Z" stroke="url(#paint48_linear_987_4839)" stroke-miterlimit="10"/>
<path d="M96.1654 157.2L68.6875 162.717L58.5964 183.633L75.9783 199.034L103.456 193.517L113.547 172.601L96.1654 157.2Z" stroke="url(#paint49_linear_987_4839)" stroke-miterlimit="10"/>
<path d="M110.747 229.834L83.2693 235.35L73.1782 256.267L90.5601 271.667L118.038 266.151L128.129 245.235L110.747 229.834Z" stroke="url(#paint50_linear_987_4839)" stroke-miterlimit="10"/>
<path d="M378.211 138.359L350.733 143.876L340.642 164.792L358.024 180.193L385.502 174.677L395.593 153.76L378.211 138.359Z" stroke="url(#paint51_linear_987_4839)" stroke-miterlimit="10"/>
<path d="M392.793 210.993L365.315 216.509L355.224 237.426L372.606 252.827L400.084 247.31L410.175 226.394L392.793 210.993Z" stroke="url(#paint52_linear_987_4839)" stroke-miterlimit="10"/>
<path d="M370.92 102.042L343.443 107.558L333.351 128.475L350.733 143.875L378.211 138.359L388.302 117.443L370.92 102.042Z" stroke="url(#paint53_linear_987_4839)" stroke-miterlimit="10"/>
<path d="M385.502 174.677L358.024 180.193L347.933 201.109L365.315 216.51L392.793 210.994L402.884 190.078L385.502 174.677Z" stroke="url(#paint54_linear_987_4839)" stroke-miterlimit="10"/>
<path d="M187.57 327.754L160.093 333.27L150.001 354.186L167.383 369.587L194.861 364.071L204.952 343.155L187.57 327.754Z" stroke="url(#paint55_linear_987_4839)" stroke-miterlimit="10"/>
<path d="M158.407 182.485L130.929 188.002L120.838 208.918L138.22 224.319L165.698 218.803L175.789 197.886L158.407 182.485Z" stroke="url(#paint56_linear_987_4839)" stroke-miterlimit="10"/>
<path d="M172.989 255.119L145.511 260.635L135.42 281.552L152.802 296.953L180.28 291.436L190.371 270.52L172.989 255.119Z" stroke="url(#paint57_linear_987_4839)" stroke-miterlimit="10"/>
<path d="M151.116 146.168L123.639 151.684L113.547 172.601L130.929 188.001L158.407 182.485L168.498 161.569L151.116 146.168Z" stroke="url(#paint58_linear_987_4839)" stroke-miterlimit="10"/>
<path d="M165.698 218.803L138.22 224.319L128.129 245.235L145.511 260.636L172.989 255.12L183.08 234.204L165.698 218.803Z" stroke="url(#paint59_linear_987_4839)" stroke-miterlimit="10"/>
<path d="M268.309 160.422L240.831 165.938L230.74 186.854L248.122 202.255L275.6 196.739L285.691 175.823L268.309 160.422Z" stroke="url(#paint60_linear_987_4839)" stroke-miterlimit="10"/>
<path d="M282.891 233.057L255.413 238.573L245.322 259.489L262.704 274.89L290.182 269.374L300.273 248.458L282.891 233.057Z" stroke="url(#paint61_linear_987_4839)" stroke-miterlimit="10"/>
<path d="M290.182 269.374L262.704 274.89L252.613 295.807L269.995 311.208L297.473 305.691L307.564 284.775L290.182 269.374Z" stroke="url(#paint62_linear_987_4839)" stroke-miterlimit="10"/>
<path d="M261.019 124.105L233.541 129.621L223.45 150.537L240.831 165.938L268.309 160.422L278.401 139.505L261.019 124.105Z" stroke="url(#paint63_linear_987_4839)" stroke-miterlimit="10"/>
<path d="M275.6 196.739L248.122 202.256L238.031 223.172L255.413 238.573L282.891 233.056L292.982 212.14L275.6 196.739Z" stroke="url(#paint64_linear_987_4839)" stroke-miterlimit="10"/>
<path d="M63.087 277.183L35.6092 282.699L25.518 303.615L42.9 319.016L70.3778 313.5L80.469 292.584L63.087 277.183Z" stroke="url(#paint65_linear_987_4839)" stroke-miterlimit="10"/>
<path d="M70.3778 313.5L42.9 319.016L32.8088 339.933L50.1907 355.333L77.6686 349.817L87.7598 328.901L70.3778 313.5Z" stroke="url(#paint66_linear_987_4839)" stroke-miterlimit="10"/>
<path d="M41.2146 168.231L13.7367 173.748L3.64557 194.664L21.0275 210.065L48.5054 204.549L58.5965 183.632L41.2146 168.231Z" stroke="url(#paint67_linear_987_4839)" stroke-miterlimit="10"/>
</g>
<defs>
<linearGradient id="paint0_linear_987_4839" x1="866.322" y1="78.1496" x2="859.031" y2="41.8324" gradientUnits="userSpaceOnUse">
<stop stop-color="#05C971" stop-opacity="0.53"/>
<stop offset="0.432292" stop-color="#05BDC9" stop-opacity="0.63"/>
<stop offset="0.692708" stop-color="#05C971" stop-opacity="0.31"/>
</linearGradient>
<linearGradient id="paint1_linear_987_4839" x1="880.903" y1="150.784" x2="873.613" y2="114.467" gradientUnits="userSpaceOnUse">
<stop stop-color="#05C971" stop-opacity="0.53"/>
<stop offset="0.432292" stop-color="#05BDC9" stop-opacity="0.63"/>
<stop offset="0.692708" stop-color="#05C971" stop-opacity="0.31"/>
</linearGradient>
<linearGradient id="paint2_linear_987_4839" x1="873.612" y1="114.467" x2="866.322" y2="78.1498" gradientUnits="userSpaceOnUse">
<stop stop-color="#05C971" stop-opacity="0.53"/>
<stop offset="0.432292" stop-color="#05BDC9" stop-opacity="0.63"/>
<stop offset="0.692708" stop-color="#05C971" stop-opacity="0.31"/>
</linearGradient>
<linearGradient id="paint3_linear_987_4839" x1="675.681" y1="267.545" x2="668.39" y2="231.228" gradientUnits="userSpaceOnUse">
<stop stop-color="#05C971" stop-opacity="0.53"/>
<stop offset="0.432292" stop-color="#05BDC9" stop-opacity="0.63"/>
<stop offset="0.692708" stop-color="#05C971" stop-opacity="0.31"/>
</linearGradient>
<linearGradient id="paint4_linear_987_4839" x1="646.518" y1="122.277" x2="639.227" y2="85.9594" gradientUnits="userSpaceOnUse">
<stop stop-color="#05C971" stop-opacity="0.53"/>
<stop offset="0.432292" stop-color="#05BDC9" stop-opacity="0.63"/>
<stop offset="0.692708" stop-color="#05C971" stop-opacity="0.31"/>
</linearGradient>
<linearGradient id="paint5_linear_987_4839" x1="661.1" y1="194.911" x2="653.809" y2="158.594" gradientUnits="userSpaceOnUse">
<stop stop-color="#05C971" stop-opacity="0.53"/>
<stop offset="0.432292" stop-color="#05BDC9" stop-opacity="0.63"/>
<stop offset="0.692708" stop-color="#05C971" stop-opacity="0.31"/>
</linearGradient>
<linearGradient id="paint6_linear_987_4839" x1="653.809" y1="158.594" x2="646.518" y2="122.277" gradientUnits="userSpaceOnUse">
<stop stop-color="#05C971" stop-opacity="0.53"/>
<stop offset="0.432292" stop-color="#05BDC9" stop-opacity="0.63"/>
<stop offset="0.692708" stop-color="#05C971" stop-opacity="0.31"/>
</linearGradient>
<linearGradient id="paint7_linear_987_4839" x1="756.42" y1="100.213" x2="749.129" y2="63.8959" gradientUnits="userSpaceOnUse">
<stop stop-color="#05C971" stop-opacity="0.53"/>
<stop offset="0.432292" stop-color="#05BDC9" stop-opacity="0.63"/>
<stop offset="0.692708" stop-color="#05C971" stop-opacity="0.31"/>
</linearGradient>
<linearGradient id="paint8_linear_987_4839" x1="771.001" y1="172.848" x2="763.71" y2="136.531" gradientUnits="userSpaceOnUse">
<stop stop-color="#05C971" stop-opacity="0.53"/>
<stop offset="0.432292" stop-color="#05BDC9" stop-opacity="0.63"/>
<stop offset="0.692708" stop-color="#05C971" stop-opacity="0.31"/>
</linearGradient>
<linearGradient id="paint9_linear_987_4839" x1="778.292" y1="209.165" x2="771.001" y2="172.848" gradientUnits="userSpaceOnUse">
<stop stop-color="#05C971" stop-opacity="0.53"/>
<stop offset="0.432292" stop-color="#05BDC9" stop-opacity="0.63"/>
<stop offset="0.692708" stop-color="#05C971" stop-opacity="0.31"/>
</linearGradient>
<linearGradient id="paint10_linear_987_4839" x1="749.129" y1="63.8957" x2="741.838" y2="27.5785" gradientUnits="userSpaceOnUse">
<stop stop-color="#05C971" stop-opacity="0.53"/>
<stop offset="0.432292" stop-color="#05BDC9" stop-opacity="0.63"/>
<stop offset="0.692708" stop-color="#05C971" stop-opacity="0.31"/>
</linearGradient>
<linearGradient id="paint11_linear_987_4839" x1="763.711" y1="136.53" x2="756.42" y2="100.213" gradientUnits="userSpaceOnUse">
<stop stop-color="#05C971" stop-opacity="0.53"/>
<stop offset="0.432292" stop-color="#05BDC9" stop-opacity="0.63"/>
<stop offset="0.692708" stop-color="#05C971" stop-opacity="0.31"/>
</linearGradient>
<linearGradient id="paint12_linear_987_4839" x1="536.616" y1="144.339" x2="529.325" y2="108.022" gradientUnits="userSpaceOnUse">
<stop stop-color="#05C971" stop-opacity="0.53"/>
<stop offset="0.432292" stop-color="#05BDC9" stop-opacity="0.63"/>
<stop offset="0.692708" stop-color="#05C971" stop-opacity="0.31"/>
</linearGradient>
<linearGradient id="paint13_linear_987_4839" x1="551.197" y1="216.974" x2="543.907" y2="180.657" gradientUnits="userSpaceOnUse">
<stop stop-color="#05C971" stop-opacity="0.53"/>
<stop offset="0.432292" stop-color="#05BDC9" stop-opacity="0.63"/>
<stop offset="0.692708" stop-color="#05C971" stop-opacity="0.31"/>
</linearGradient>
<linearGradient id="paint14_linear_987_4839" x1="558.488" y1="253.291" x2="551.198" y2="216.974" gradientUnits="userSpaceOnUse">
<stop stop-color="#05C971" stop-opacity="0.53"/>
<stop offset="0.432292" stop-color="#05BDC9" stop-opacity="0.63"/>
<stop offset="0.692708" stop-color="#05C971" stop-opacity="0.31"/>
</linearGradient>
<linearGradient id="paint15_linear_987_4839" x1="529.325" y1="108.023" x2="522.035" y2="71.7054" gradientUnits="userSpaceOnUse">
<stop stop-color="#05C971" stop-opacity="0.53"/>
<stop offset="0.432292" stop-color="#05BDC9" stop-opacity="0.63"/>
<stop offset="0.692708" stop-color="#05C971" stop-opacity="0.31"/>
</linearGradient>
<linearGradient id="paint16_linear_987_4839" x1="543.907" y1="180.656" x2="536.616" y2="144.339" gradientUnits="userSpaceOnUse">
<stop stop-color="#05C971" stop-opacity="0.53"/>
<stop offset="0.432292" stop-color="#05BDC9" stop-opacity="0.63"/>
<stop offset="0.692708" stop-color="#05C971" stop-opacity="0.31"/>
</linearGradient>
<linearGradient id="paint17_linear_987_4839" x1="811.371" y1="89.1818" x2="804.08" y2="52.8646" gradientUnits="userSpaceOnUse">
<stop stop-color="#05C971" stop-opacity="0.53"/>
<stop offset="0.432292" stop-color="#05BDC9" stop-opacity="0.63"/>
<stop offset="0.692708" stop-color="#05C971" stop-opacity="0.31"/>
</linearGradient>
<linearGradient id="paint18_linear_987_4839" x1="825.952" y1="161.816" x2="818.662" y2="125.498" gradientUnits="userSpaceOnUse">
<stop stop-color="#05C971" stop-opacity="0.53"/>
<stop offset="0.432292" stop-color="#05BDC9" stop-opacity="0.63"/>
<stop offset="0.692708" stop-color="#05C971" stop-opacity="0.31"/>
</linearGradient>
<linearGradient id="paint19_linear_987_4839" x1="833.244" y1="198.133" x2="825.953" y2="161.816" gradientUnits="userSpaceOnUse">
<stop stop-color="#05C971" stop-opacity="0.53"/>
<stop offset="0.432292" stop-color="#05BDC9" stop-opacity="0.63"/>
<stop offset="0.692708" stop-color="#05C971" stop-opacity="0.31"/>
</linearGradient>
<linearGradient id="paint20_linear_987_4839" x1="804.08" y1="52.8644" x2="796.79" y2="16.5472" gradientUnits="userSpaceOnUse">
<stop stop-color="#05C971" stop-opacity="0.53"/>
<stop offset="0.432292" stop-color="#05BDC9" stop-opacity="0.63"/>
<stop offset="0.692708" stop-color="#05C971" stop-opacity="0.31"/>
</linearGradient>
<linearGradient id="paint21_linear_987_4839" x1="818.662" y1="125.499" x2="811.371" y2="89.182" gradientUnits="userSpaceOnUse">
<stop stop-color="#05C971" stop-opacity="0.53"/>
<stop offset="0.432292" stop-color="#05BDC9" stop-opacity="0.63"/>
<stop offset="0.692708" stop-color="#05C971" stop-opacity="0.31"/>
</linearGradient>
<linearGradient id="paint22_linear_987_4839" x1="591.567" y1="133.308" x2="584.276" y2="96.9906" gradientUnits="userSpaceOnUse">
<stop stop-color="#05C971" stop-opacity="0.53"/>
<stop offset="0.432292" stop-color="#05BDC9" stop-opacity="0.63"/>
<stop offset="0.692708" stop-color="#05C971" stop-opacity="0.31"/>
</linearGradient>
<linearGradient id="paint23_linear_987_4839" x1="606.148" y1="205.943" x2="598.858" y2="169.625" gradientUnits="userSpaceOnUse">
<stop stop-color="#05C971" stop-opacity="0.53"/>
<stop offset="0.432292" stop-color="#05BDC9" stop-opacity="0.63"/>
<stop offset="0.692708" stop-color="#05C971" stop-opacity="0.31"/>
</linearGradient>
<linearGradient id="paint24_linear_987_4839" x1="584.276" y1="96.9904" x2="576.985" y2="60.6732" gradientUnits="userSpaceOnUse">
<stop stop-color="#05C971" stop-opacity="0.53"/>
<stop offset="0.432292" stop-color="#05BDC9" stop-opacity="0.63"/>
<stop offset="0.692708" stop-color="#05C971" stop-opacity="0.31"/>
</linearGradient>
<linearGradient id="paint25_linear_987_4839" x1="598.858" y1="169.625" x2="591.567" y2="133.308" gradientUnits="userSpaceOnUse">
<stop stop-color="#05C971" stop-opacity="0.53"/>
<stop offset="0.432292" stop-color="#05BDC9" stop-opacity="0.63"/>
<stop offset="0.692708" stop-color="#05C971" stop-opacity="0.31"/>
</linearGradient>
<linearGradient id="paint26_linear_987_4839" x1="701.469" y1="111.245" x2="694.178" y2="74.9281" gradientUnits="userSpaceOnUse">
<stop stop-color="#05C971" stop-opacity="0.53"/>
<stop offset="0.432292" stop-color="#05BDC9" stop-opacity="0.63"/>
<stop offset="0.692708" stop-color="#05C971" stop-opacity="0.31"/>
</linearGradient>
<linearGradient id="paint27_linear_987_4839" x1="716.051" y1="183.879" x2="708.76" y2="147.562" gradientUnits="userSpaceOnUse">
<stop stop-color="#05C971" stop-opacity="0.53"/>
<stop offset="0.432292" stop-color="#05BDC9" stop-opacity="0.63"/>
<stop offset="0.692708" stop-color="#05C971" stop-opacity="0.31"/>
</linearGradient>
<linearGradient id="paint28_linear_987_4839" x1="481.665" y1="155.371" x2="474.374" y2="119.054" gradientUnits="userSpaceOnUse">
<stop stop-color="#05C971" stop-opacity="0.53"/>
<stop offset="0.432292" stop-color="#05BDC9" stop-opacity="0.63"/>
<stop offset="0.692708" stop-color="#05C971" stop-opacity="0.31"/>
</linearGradient>
<linearGradient id="paint29_linear_987_4839" x1="503.537" y1="264.322" x2="496.247" y2="228.005" gradientUnits="userSpaceOnUse">
<stop stop-color="#05C971" stop-opacity="0.53"/>
<stop offset="0.432292" stop-color="#05BDC9" stop-opacity="0.63"/>
<stop offset="0.692708" stop-color="#05C971" stop-opacity="0.31"/>
</linearGradient>
<linearGradient id="paint30_linear_987_4839" x1="474.374" y1="119.054" x2="467.083" y2="82.7367" gradientUnits="userSpaceOnUse">
<stop stop-color="#05C971" stop-opacity="0.53"/>
<stop offset="0.432292" stop-color="#05BDC9" stop-opacity="0.63"/>
<stop offset="0.692708" stop-color="#05C971" stop-opacity="0.31"/>
</linearGradient>
<linearGradient id="paint31_linear_987_4839" x1="488.956" y1="191.689" x2="481.665" y2="155.371" gradientUnits="userSpaceOnUse">
<stop stop-color="#05C971" stop-opacity="0.53"/>
<stop offset="0.432292" stop-color="#05BDC9" stop-opacity="0.63"/>
<stop offset="0.692708" stop-color="#05C971" stop-opacity="0.31"/>
</linearGradient>
<linearGradient id="paint32_linear_987_4839" x1="426.714" y1="166.403" x2="419.423" y2="130.085" gradientUnits="userSpaceOnUse">
<stop stop-color="#05C971" stop-opacity="0.53"/>
<stop offset="0.432292" stop-color="#05BDC9" stop-opacity="0.63"/>
<stop offset="0.692708" stop-color="#05C971" stop-opacity="0.31"/>
</linearGradient>
<linearGradient id="paint33_linear_987_4839" x1="441.296" y1="239.037" x2="434.005" y2="202.72" gradientUnits="userSpaceOnUse">
<stop stop-color="#05C971" stop-opacity="0.53"/>
<stop offset="0.432292" stop-color="#05BDC9" stop-opacity="0.63"/>
<stop offset="0.692708" stop-color="#05C971" stop-opacity="0.31"/>
</linearGradient>
<linearGradient id="paint34_linear_987_4839" x1="448.586" y1="275.354" x2="441.296" y2="239.037" gradientUnits="userSpaceOnUse">
<stop stop-color="#05C971" stop-opacity="0.53"/>
<stop offset="0.432292" stop-color="#05BDC9" stop-opacity="0.63"/>
<stop offset="0.692708" stop-color="#05C971" stop-opacity="0.31"/>
</linearGradient>
<linearGradient id="paint35_linear_987_4839" x1="419.423" y1="130.086" x2="412.132" y2="93.7689" gradientUnits="userSpaceOnUse">
<stop stop-color="#05C971" stop-opacity="0.53"/>
<stop offset="0.432292" stop-color="#05BDC9" stop-opacity="0.63"/>
<stop offset="0.692708" stop-color="#05C971" stop-opacity="0.31"/>
</linearGradient>
<linearGradient id="paint36_linear_987_4839" x1="434.005" y1="202.72" x2="426.714" y2="166.403" gradientUnits="userSpaceOnUse">
<stop stop-color="#05C971" stop-opacity="0.53"/>
<stop offset="0.432292" stop-color="#05BDC9" stop-opacity="0.63"/>
<stop offset="0.692708" stop-color="#05C971" stop-opacity="0.31"/>
</linearGradient>
<linearGradient id="paint37_linear_987_4839" x1="206.91" y1="210.529" x2="199.619" y2="174.212" gradientUnits="userSpaceOnUse">
<stop stop-color="#05C971" stop-opacity="0.53"/>
<stop offset="0.432292" stop-color="#05BDC9" stop-opacity="0.63"/>
<stop offset="0.692708" stop-color="#05C971" stop-opacity="0.31"/>
</linearGradient>
<linearGradient id="paint38_linear_987_4839" x1="228.783" y1="319.481" x2="221.492" y2="283.163" gradientUnits="userSpaceOnUse">
<stop stop-color="#05C971" stop-opacity="0.53"/>
<stop offset="0.432292" stop-color="#05BDC9" stop-opacity="0.63"/>
<stop offset="0.692708" stop-color="#05C971" stop-opacity="0.31"/>
</linearGradient>
<linearGradient id="paint39_linear_987_4839" x1="199.619" y1="174.212" x2="192.329" y2="137.895" gradientUnits="userSpaceOnUse">
<stop stop-color="#05C971" stop-opacity="0.53"/>
<stop offset="0.432292" stop-color="#05BDC9" stop-opacity="0.63"/>
<stop offset="0.692708" stop-color="#05C971" stop-opacity="0.31"/>
</linearGradient>
<linearGradient id="paint40_linear_987_4839" x1="214.201" y1="246.847" x2="206.91" y2="210.53" gradientUnits="userSpaceOnUse">
<stop stop-color="#05C971" stop-opacity="0.53"/>
<stop offset="0.432292" stop-color="#05BDC9" stop-opacity="0.63"/>
<stop offset="0.692708" stop-color="#05C971" stop-opacity="0.31"/>
</linearGradient>
<linearGradient id="paint41_linear_987_4839" x1="345.975" y1="333.735" x2="338.685" y2="297.417" gradientUnits="userSpaceOnUse">
<stop stop-color="#05C971" stop-opacity="0.53"/>
<stop offset="0.432292" stop-color="#05BDC9" stop-opacity="0.63"/>
<stop offset="0.692708" stop-color="#05C971" stop-opacity="0.31"/>
</linearGradient>
<linearGradient id="paint42_linear_987_4839" x1="316.812" y1="188.466" x2="309.522" y2="152.149" gradientUnits="userSpaceOnUse">
<stop stop-color="#05C971" stop-opacity="0.53"/>
<stop offset="0.432292" stop-color="#05BDC9" stop-opacity="0.63"/>
<stop offset="0.692708" stop-color="#05C971" stop-opacity="0.31"/>
</linearGradient>
<linearGradient id="paint43_linear_987_4839" x1="309.521" y1="152.149" x2="302.231" y2="115.831" gradientUnits="userSpaceOnUse">
<stop stop-color="#05C971" stop-opacity="0.53"/>
<stop offset="0.432292" stop-color="#05BDC9" stop-opacity="0.63"/>
<stop offset="0.692708" stop-color="#05C971" stop-opacity="0.31"/>
</linearGradient>
<linearGradient id="paint44_linear_987_4839" x1="324.103" y1="224.783" x2="316.812" y2="188.466" gradientUnits="userSpaceOnUse">
<stop stop-color="#05C971" stop-opacity="0.53"/>
<stop offset="0.432292" stop-color="#05BDC9" stop-opacity="0.63"/>
<stop offset="0.692708" stop-color="#05C971" stop-opacity="0.31"/>
</linearGradient>
<linearGradient id="paint45_linear_987_4839" x1="126.171" y1="377.861" x2="118.88" y2="341.544" gradientUnits="userSpaceOnUse">
<stop stop-color="#05C971" stop-opacity="0.53"/>
<stop offset="0.432292" stop-color="#05BDC9" stop-opacity="0.63"/>
<stop offset="0.692708" stop-color="#05C971" stop-opacity="0.31"/>
</linearGradient>
<linearGradient id="paint46_linear_987_4839" x1="97.008" y1="232.593" x2="89.7172" y2="196.276" gradientUnits="userSpaceOnUse">
<stop stop-color="#05C971" stop-opacity="0.53"/>
<stop offset="0.432292" stop-color="#05BDC9" stop-opacity="0.63"/>
<stop offset="0.692708" stop-color="#05C971" stop-opacity="0.31"/>
</linearGradient>
<linearGradient id="paint47_linear_987_4839" x1="111.59" y1="305.227" x2="104.299" y2="268.91" gradientUnits="userSpaceOnUse">
<stop stop-color="#05C971" stop-opacity="0.53"/>
<stop offset="0.432292" stop-color="#05BDC9" stop-opacity="0.63"/>
<stop offset="0.692708" stop-color="#05C971" stop-opacity="0.31"/>
</linearGradient>
<linearGradient id="paint48_linear_987_4839" x1="118.881" y1="341.544" x2="111.59" y2="305.227" gradientUnits="userSpaceOnUse">
<stop stop-color="#05C971" stop-opacity="0.53"/>
<stop offset="0.432292" stop-color="#05BDC9" stop-opacity="0.63"/>
<stop offset="0.692708" stop-color="#05C971" stop-opacity="0.31"/>
</linearGradient>
<linearGradient id="paint49_linear_987_4839" x1="89.7173" y1="196.276" x2="82.4265" y2="159.958" gradientUnits="userSpaceOnUse">
<stop stop-color="#05C971" stop-opacity="0.53"/>
<stop offset="0.432292" stop-color="#05BDC9" stop-opacity="0.63"/>
<stop offset="0.692708" stop-color="#05C971" stop-opacity="0.31"/>
</linearGradient>
<linearGradient id="paint50_linear_987_4839" x1="104.299" y1="268.909" x2="97.0083" y2="232.592" gradientUnits="userSpaceOnUse">
<stop stop-color="#05C971" stop-opacity="0.53"/>
<stop offset="0.432292" stop-color="#05BDC9" stop-opacity="0.63"/>
<stop offset="0.692708" stop-color="#05C971" stop-opacity="0.31"/>
</linearGradient>
<linearGradient id="paint51_linear_987_4839" x1="371.763" y1="177.435" x2="364.472" y2="141.118" gradientUnits="userSpaceOnUse">
<stop stop-color="#05C971" stop-opacity="0.53"/>
<stop offset="0.432292" stop-color="#05BDC9" stop-opacity="0.63"/>
<stop offset="0.692708" stop-color="#05C971" stop-opacity="0.31"/>
</linearGradient>
<linearGradient id="paint52_linear_987_4839" x1="386.345" y1="250.069" x2="379.054" y2="213.751" gradientUnits="userSpaceOnUse">
<stop stop-color="#05C971" stop-opacity="0.53"/>
<stop offset="0.432292" stop-color="#05BDC9" stop-opacity="0.63"/>
<stop offset="0.692708" stop-color="#05C971" stop-opacity="0.31"/>
</linearGradient>
<linearGradient id="paint53_linear_987_4839" x1="364.472" y1="141.117" x2="357.181" y2="104.8" gradientUnits="userSpaceOnUse">
<stop stop-color="#05C971" stop-opacity="0.53"/>
<stop offset="0.432292" stop-color="#05BDC9" stop-opacity="0.63"/>
<stop offset="0.692708" stop-color="#05C971" stop-opacity="0.31"/>
</linearGradient>
<linearGradient id="paint54_linear_987_4839" x1="379.054" y1="213.752" x2="371.763" y2="177.435" gradientUnits="userSpaceOnUse">
<stop stop-color="#05C971" stop-opacity="0.53"/>
<stop offset="0.432292" stop-color="#05BDC9" stop-opacity="0.63"/>
<stop offset="0.692708" stop-color="#05C971" stop-opacity="0.31"/>
</linearGradient>
<linearGradient id="paint55_linear_987_4839" x1="181.122" y1="366.829" x2="173.831" y2="330.512" gradientUnits="userSpaceOnUse">
<stop stop-color="#05C971" stop-opacity="0.53"/>
<stop offset="0.432292" stop-color="#05BDC9" stop-opacity="0.63"/>
<stop offset="0.692708" stop-color="#05C971" stop-opacity="0.31"/>
</linearGradient>
<linearGradient id="paint56_linear_987_4839" x1="151.959" y1="221.561" x2="144.668" y2="185.244" gradientUnits="userSpaceOnUse">
<stop stop-color="#05C971" stop-opacity="0.53"/>
<stop offset="0.432292" stop-color="#05BDC9" stop-opacity="0.63"/>
<stop offset="0.692708" stop-color="#05C971" stop-opacity="0.31"/>
</linearGradient>
<linearGradient id="paint57_linear_987_4839" x1="166.541" y1="294.195" x2="159.25" y2="257.877" gradientUnits="userSpaceOnUse">
<stop stop-color="#05C971" stop-opacity="0.53"/>
<stop offset="0.432292" stop-color="#05BDC9" stop-opacity="0.63"/>
<stop offset="0.692708" stop-color="#05C971" stop-opacity="0.31"/>
</linearGradient>
<linearGradient id="paint58_linear_987_4839" x1="144.668" y1="185.243" x2="137.378" y2="148.926" gradientUnits="userSpaceOnUse">
<stop stop-color="#05C971" stop-opacity="0.53"/>
<stop offset="0.432292" stop-color="#05BDC9" stop-opacity="0.63"/>
<stop offset="0.692708" stop-color="#05C971" stop-opacity="0.31"/>
</linearGradient>
<linearGradient id="paint59_linear_987_4839" x1="159.25" y1="257.878" x2="151.959" y2="221.561" gradientUnits="userSpaceOnUse">
<stop stop-color="#05C971" stop-opacity="0.53"/>
<stop offset="0.432292" stop-color="#05BDC9" stop-opacity="0.63"/>
<stop offset="0.692708" stop-color="#05C971" stop-opacity="0.31"/>
</linearGradient>
<linearGradient id="paint60_linear_987_4839" x1="261.861" y1="199.497" x2="254.57" y2="163.18" gradientUnits="userSpaceOnUse">
<stop stop-color="#05C971" stop-opacity="0.53"/>
<stop offset="0.432292" stop-color="#05BDC9" stop-opacity="0.63"/>
<stop offset="0.692708" stop-color="#05C971" stop-opacity="0.31"/>
</linearGradient>
<linearGradient id="paint61_linear_987_4839" x1="276.443" y1="272.132" x2="269.152" y2="235.815" gradientUnits="userSpaceOnUse">
<stop stop-color="#05C971" stop-opacity="0.53"/>
<stop offset="0.432292" stop-color="#05BDC9" stop-opacity="0.63"/>
<stop offset="0.692708" stop-color="#05C971" stop-opacity="0.31"/>
</linearGradient>
<linearGradient id="paint62_linear_987_4839" x1="283.734" y1="308.449" x2="276.443" y2="272.132" gradientUnits="userSpaceOnUse">
<stop stop-color="#05C971" stop-opacity="0.53"/>
<stop offset="0.432292" stop-color="#05BDC9" stop-opacity="0.63"/>
<stop offset="0.692708" stop-color="#05C971" stop-opacity="0.31"/>
</linearGradient>
<linearGradient id="paint63_linear_987_4839" x1="254.57" y1="163.18" x2="247.28" y2="126.863" gradientUnits="userSpaceOnUse">
<stop stop-color="#05C971" stop-opacity="0.53"/>
<stop offset="0.432292" stop-color="#05BDC9" stop-opacity="0.63"/>
<stop offset="0.692708" stop-color="#05C971" stop-opacity="0.31"/>
</linearGradient>
<linearGradient id="paint64_linear_987_4839" x1="269.152" y1="235.815" x2="261.861" y2="199.497" gradientUnits="userSpaceOnUse">
<stop stop-color="#05C971" stop-opacity="0.53"/>
<stop offset="0.432292" stop-color="#05BDC9" stop-opacity="0.63"/>
<stop offset="0.692708" stop-color="#05C971" stop-opacity="0.31"/>
</linearGradient>
<linearGradient id="paint65_linear_987_4839" x1="56.6389" y1="316.258" x2="49.3481" y2="279.941" gradientUnits="userSpaceOnUse">
<stop stop-color="#05C971" stop-opacity="0.53"/>
<stop offset="0.432292" stop-color="#05BDC9" stop-opacity="0.63"/>
<stop offset="0.692708" stop-color="#05C971" stop-opacity="0.31"/>
</linearGradient>
<linearGradient id="paint66_linear_987_4839" x1="63.9297" y1="352.575" x2="56.6389" y2="316.258" gradientUnits="userSpaceOnUse">
<stop stop-color="#05C971" stop-opacity="0.53"/>
<stop offset="0.432292" stop-color="#05BDC9" stop-opacity="0.63"/>
<stop offset="0.692708" stop-color="#05C971" stop-opacity="0.31"/>
</linearGradient>
<linearGradient id="paint67_linear_987_4839" x1="34.7665" y1="207.307" x2="27.4757" y2="170.99" gradientUnits="userSpaceOnUse">
<stop stop-color="#05C971" stop-opacity="0.53"/>
<stop offset="0.432292" stop-color="#05BDC9" stop-opacity="0.63"/>
<stop offset="0.692708" stop-color="#05C971" stop-opacity="0.31"/>
</linearGradient>
</defs>
</svg>
