<svg width="509" height="142" viewBox="0 0 509 142" fill="none" xmlns="http://www.w3.org/2000/svg">
<path d="M2.66406 139V141H4.27266L4.61755 139.429L2.66406 139ZM8.06406 114.4V112.4H6.45547L6.11058 113.971L8.06406 114.4ZM55.6641 114.4L57.6176 113.971L57.2727 112.4H55.6641V114.4ZM61.0641 139L59.1106 139.429L59.4555 141H61.0641V139ZM88.6641 139V141H91.1641L90.6153 138.561L88.6641 139ZM58.0641 3L60.0153 2.56097L59.6641 1H58.0641V3ZM5.66406 3V1H4.06406L3.71284 2.56097L5.66406 3ZM-24.9359 139L-26.8872 138.561L-27.4359 141H-24.9359V139ZM36.6641 25.8L38.6199 25.3822L38.2819 23.8H36.6641V25.8ZM50.4641 90.4V92.4H52.9364L52.4199 89.9822L50.4641 90.4ZM13.2641 90.4L11.3082 89.9822L10.7917 92.4H13.2641V90.4ZM27.0641 25.8V23.8H25.4462L25.1082 25.3822L27.0641 25.8ZM4.61755 139.429L10.0176 114.829L6.11058 113.971L0.710573 138.571L4.61755 139.429ZM8.06406 116.4H55.6641V112.4H8.06406V116.4ZM53.7106 114.829L59.1106 139.429L63.0176 138.571L57.6176 113.971L53.7106 114.829ZM61.0641 141H88.6641V137H61.0641V141ZM90.6153 138.561L60.0153 2.56097L56.1128 3.43903L86.7129 139.439L90.6153 138.561ZM58.0641 1H5.66406V5H58.0641V1ZM3.71284 2.56097L-26.8872 138.561L-22.9847 139.439L7.61528 3.43903L3.71284 2.56097ZM-24.9359 141H2.66406V137H-24.9359V141ZM34.7082 26.2178L48.5082 90.8178L52.4199 89.9822L38.6199 25.3822L34.7082 26.2178ZM50.4641 88.4H13.2641V92.4H50.4641V88.4ZM15.2199 90.8178L29.0199 26.2178L25.1082 25.3822L11.3082 89.9822L15.2199 90.8178ZM27.0641 27.8H36.6641V23.8H27.0641V27.8ZM134.377 139V141H136.377V139H134.377ZM134.377 3H136.377V1H134.377V3ZM106.777 3V1H104.777V3H106.777ZM106.777 139H104.777V141H106.777V139ZM136.377 139V3H132.377V139H136.377ZM134.377 1H106.777V5H134.377V1ZM104.777 3V139H108.777V3H104.777ZM106.777 141H134.377V137H106.777V141ZM164.003 139H162.003V141H164.003V139ZM164.003 3V1H162.003V3H164.003ZM239.203 6.99999L238.53 8.88351L238.541 8.88719L239.203 6.99999ZM256.803 19.2L255.208 20.4062L255.224 20.428L255.241 20.4494L256.803 19.2ZM265.403 39.6L263.434 39.9494L265.403 39.6ZM265.603 98.6L267.58 98.9041L267.581 98.8996L265.603 98.6ZM257.403 120.6L255.756 119.465L255.747 119.478L255.739 119.491L257.403 120.6ZM240.003 134.4L240.752 136.255L240.765 136.249L240.779 136.243L240.003 134.4ZM238.803 85L240.796 85.1722L240.798 85.1485L240.799 85.1248L238.803 85ZM239.003 77.4L237.005 77.3092L237.003 77.3546V77.4H239.003ZM238.403 49.2L236.417 49.4337L236.418 49.4407L238.403 49.2ZM234.603 36.8L232.84 37.7444L234.603 36.8ZM225.803 29.2L225.094 31.07L225.122 31.0808L225.151 31.0907L225.803 29.2ZM191.603 27V25H189.603V27H191.603ZM191.603 115H189.603V117H191.603V115ZM231.003 108.2L229.527 106.85L229.525 106.852L231.003 108.2ZM209.803 137H164.003V141H209.803V137ZM166.003 139V3H162.003V139H166.003ZM164.003 5H209.803V1H164.003V5ZM209.803 5C221.816 5 231.362 6.32348 238.53 8.88348L239.876 5.11651C232.11 2.34318 222.057 1 209.803 1V5ZM238.541 8.88719C245.836 11.4469 251.351 15.3052 255.208 20.4062L258.398 17.9938C253.989 12.1615 247.77 7.88642 239.865 5.11279L238.541 8.88719ZM255.241 20.4494C259.256 25.4681 262.012 31.9374 263.434 39.9494L267.372 39.2506C265.861 30.7292 262.883 23.5986 258.365 17.9506L255.241 20.4494ZM263.434 39.9494C264.875 48.0699 265.603 57.681 265.603 68.8H269.603C269.603 57.519 268.865 47.6634 267.372 39.2506L263.434 39.9494ZM265.603 68.8C265.603 79.7894 264.941 89.62 263.626 98.3004L267.581 98.8996C268.932 89.98 269.603 79.9439 269.603 68.8H265.603ZM263.626 98.2959C262.33 106.724 259.687 113.759 255.756 119.465L259.05 121.735C263.386 115.441 266.21 107.809 267.58 98.9041L263.626 98.2959ZM255.739 119.491C251.987 125.119 246.519 129.486 239.227 132.557L240.779 136.243C248.687 132.914 254.82 128.081 259.067 121.709L255.739 119.491ZM239.255 132.545C231.984 135.479 222.202 137 209.803 137V141C222.471 141 232.822 139.454 240.752 136.255L239.255 132.545ZM240.799 85.1248C240.936 82.9379 241.003 80.3609 241.003 77.4H237.003C237.003 80.3058 236.937 82.7955 236.807 84.8752L240.799 85.1248ZM241.001 77.4908C241.136 74.5195 241.203 71.0881 241.203 67.2H237.203C237.203 71.0452 237.137 74.4138 237.005 77.3092L241.001 77.4908ZM241.203 67.2C241.203 59.5676 240.936 53.4758 240.389 48.9593L236.418 49.4407C236.937 53.7242 237.203 59.6324 237.203 67.2H241.203ZM240.389 48.9663C239.829 44.2036 238.493 39.8264 236.366 35.8556L232.84 37.7444C234.713 41.2403 235.91 45.1297 236.417 49.4337L240.389 48.9663ZM236.366 35.8556C234.138 31.6955 230.816 28.8131 226.455 27.3092L225.151 31.0907C228.523 32.2535 231.069 34.4378 232.84 37.7444L236.366 35.8556ZM226.512 27.33C222.32 25.7397 216.71 25 209.803 25V29C216.496 29 221.553 29.727 225.094 31.07L226.512 27.33ZM209.803 25H191.603V29H209.803V25ZM189.603 27V115H193.603V27H189.603ZM191.603 117H209.803V113H191.603V117ZM209.803 117C220.022 117 227.787 114.696 232.481 109.548L229.525 106.852C225.953 110.771 219.584 113 209.803 113V117ZM232.479 109.55C237.19 104.397 239.849 96.1284 240.796 85.1722L236.811 84.8278C235.891 95.4716 233.35 102.669 229.527 106.85L232.479 109.55ZM315.542 137.2L314.805 139.059L314.817 139.064L315.542 137.2ZM298.142 124.6L296.556 125.818L296.571 125.838L296.588 125.858L298.142 124.6ZM288.542 102.8L290.492 102.357L288.542 102.8ZM288.542 40.4L290.492 40.8432L290.494 40.8369L288.542 40.4ZM298.142 18.2L296.546 16.9943L296.542 17L298.142 18.2ZM315.542 5L316.279 6.85936L316.288 6.85581L316.297 6.85218L315.542 5ZM368.142 5L367.375 6.84718L367.396 6.85583L367.417 6.86401L368.142 5ZM385.542 18.2L383.929 19.3827L383.944 19.403L383.96 19.4229L385.542 18.2ZM395.342 40.4L393.391 40.8369L393.392 40.8432L395.342 40.4ZM395.942 100L393.975 99.6369L393.973 99.649L393.971 99.6612L395.942 100ZM387.342 122L385.7 120.858L385.692 120.87L385.684 120.882L387.342 122ZM370.142 136.4L370.982 138.215L370.99 138.212L370.997 138.208L370.142 136.4ZM319.942 106.8L321.697 105.84L321.69 105.827L321.683 105.815L319.942 106.8ZM355.342 115L356.18 116.816L356.195 116.809L356.21 116.802L355.342 115ZM363.942 107L362.233 105.962L362.227 105.971L362.222 105.98L363.942 107ZM368.542 92.8L366.567 92.4858L366.564 92.5047L366.561 92.5236L368.542 92.8ZM363.942 35.8L365.693 34.8338L363.942 35.8ZM355.342 27.4L354.422 29.1755L354.448 29.1891L354.475 29.202L355.342 27.4ZM328.542 27.4L329.41 29.202L329.437 29.1891L329.463 29.1755L328.542 27.4ZM319.942 35.8L318.191 34.8338L319.942 35.8ZM341.942 139.4C331.71 139.4 323.171 138.021 316.267 135.336L314.817 139.064C322.313 141.979 331.375 143.4 341.942 143.4V139.4ZM316.279 135.341C309.514 132.66 304.002 128.659 299.697 123.342L296.588 125.858C301.349 131.741 307.437 136.14 314.805 139.059L316.279 135.341ZM299.729 123.382C295.542 117.927 292.444 110.943 290.492 102.357L286.592 103.243C288.64 112.257 291.942 119.806 296.556 125.818L299.729 123.382ZM290.492 102.357C288.534 93.7408 287.542 83.4965 287.542 71.6H283.542C283.542 83.7035 284.55 94.2592 286.592 103.243L290.492 102.357ZM287.542 71.6C287.542 59.7035 288.534 49.4592 290.492 40.8432L286.592 39.9567C284.55 48.9408 283.542 59.4965 283.542 71.6H287.542ZM290.494 40.8369C292.447 32.1134 295.549 24.9912 299.742 19.4L296.542 17C291.936 23.1422 288.637 30.82 286.591 39.9631L290.494 40.8369ZM299.738 19.4057C304.048 13.7015 309.549 9.52585 316.279 6.85936L314.805 3.14063C307.402 6.07414 301.303 10.6985 296.546 16.9943L299.738 19.4057ZM316.297 6.85218C323.191 4.04337 331.719 2.59999 341.942 2.59999V-1.40001C331.366 -1.40001 322.293 0.0899582 314.788 3.14781L316.297 6.85218ZM341.942 2.59999C352.168 2.59999 360.622 4.04395 367.375 6.84718L368.909 3.15282C361.529 0.0893784 352.517 -1.40001 341.942 -1.40001V2.59999ZM367.417 6.86401C374.277 9.53159 379.763 13.7018 383.929 19.3827L387.155 17.0173C382.521 10.6982 376.408 6.06839 368.867 3.13599L367.417 6.86401ZM383.96 19.4229C388.277 25.0099 391.44 32.1239 393.391 40.8369L397.294 39.9631C395.245 30.8094 391.874 23.1234 387.125 16.9771L383.96 19.4229ZM393.392 40.8432C395.35 49.4592 396.342 59.7035 396.342 71.6H400.342C400.342 59.4965 399.334 48.9408 397.292 39.9567L393.392 40.8432ZM396.342 71.6C396.342 81.7643 395.55 91.1077 393.975 99.6369L397.909 100.363C399.534 91.559 400.342 81.9691 400.342 71.6H396.342ZM393.971 99.6612C392.546 107.952 389.775 115 385.7 120.858L388.984 123.142C393.443 116.733 396.405 109.115 397.913 100.339L393.971 99.6612ZM385.684 120.882C381.77 126.689 376.328 131.264 369.287 134.592L370.997 138.208C378.623 134.603 384.647 129.578 389.001 123.118L385.684 120.882ZM369.302 134.585C362.458 137.754 353.375 139.4 341.942 139.4V143.4C353.709 143.4 363.426 141.713 370.982 138.215L369.302 134.585ZM318.188 107.76C322.524 115.685 330.697 119.4 341.942 119.4V115.4C331.587 115.4 325.094 112.049 321.697 105.84L318.188 107.76ZM341.942 119.4C347.582 119.4 352.363 118.578 356.18 116.816L354.504 113.184C351.388 114.622 347.235 115.4 341.942 115.4V119.4ZM356.21 116.802C360.182 114.889 363.339 111.942 365.663 108.02L362.222 105.98C360.279 109.258 357.702 111.644 354.475 113.198L356.21 116.802ZM365.652 108.038C368.098 104.009 369.697 98.9961 370.523 93.0764L366.561 92.5236C365.787 98.0706 364.32 102.524 362.233 105.962L365.652 108.038ZM370.517 93.1142C371.472 87.1122 371.942 79.9344 371.942 71.6H367.942C367.942 79.7989 367.479 86.7544 366.567 92.4858L370.517 93.1142ZM371.942 71.6C371.942 63.2655 371.472 56.0878 370.517 50.0858L366.567 50.7142C367.479 56.4456 367.942 63.4011 367.942 71.6H371.942ZM370.517 50.0858C369.559 44.0643 367.97 38.9597 365.693 34.8338L362.191 36.7662C364.181 40.3736 365.658 45.0023 366.567 50.7142L370.517 50.0858ZM365.693 34.8338C363.382 30.6437 360.223 27.5304 356.21 25.598L354.475 29.202C357.661 30.7363 360.236 33.223 362.191 36.7662L365.693 34.8338ZM356.263 25.6245C352.303 23.5713 347.499 22.6 341.942 22.6V26.6C347.052 26.6 351.181 27.4954 354.422 29.1755L356.263 25.6245ZM341.942 22.6C336.386 22.6 331.581 23.5713 327.622 25.6245L329.463 29.1755C332.703 27.4954 336.832 26.6 341.942 26.6V22.6ZM327.675 25.598C323.661 27.5304 320.503 30.6437 318.191 34.8338L321.693 36.7662C323.648 33.223 326.223 30.7363 329.41 29.202L327.675 25.598ZM318.191 34.8338C315.915 38.9597 314.325 44.0643 313.367 50.0858L317.317 50.7142C318.226 45.0023 319.703 40.3736 321.693 36.7662L318.191 34.8338ZM313.367 50.0858C312.412 56.0878 311.942 63.2655 311.942 71.6H315.942C315.942 63.4011 316.406 56.4456 317.317 50.7142L313.367 50.0858ZM311.942 71.6C311.942 88.0598 313.932 100.241 318.202 107.785L321.683 105.815C317.953 99.2254 315.942 87.9402 315.942 71.6H311.942ZM447.411 48.8L446.345 50.4925L446.382 50.5153L446.419 50.5365L447.411 48.8ZM456.411 53L455.637 54.8444L455.663 54.8551L455.689 54.8651L456.411 53ZM472.811 58.6L473.421 56.6951L473.41 56.6917L472.811 58.6ZM489.611 65.2L490.505 63.4111L489.611 65.2ZM500.611 73.2L499.134 74.5485L499.149 74.5649L499.164 74.5809L500.611 73.2ZM506.611 83.6L504.695 84.1747L504.704 84.2037L504.714 84.2325L506.611 83.6ZM505.211 117L507.052 117.782L507.055 117.774L507.058 117.766L505.211 117ZM495.611 130.4L496.924 131.908L495.611 130.4ZM480.811 138.6L481.43 140.502L480.811 138.6ZM423.411 136.6L423.826 134.644L423.81 134.64L423.793 134.637L423.411 136.6ZM416.211 135.2L414.228 134.941L413.984 136.804L415.829 137.163L416.211 135.2ZM419.011 113.8L419.277 111.818L417.288 111.551L417.028 113.541L419.011 113.8ZM476.411 89.8L477.611 88.2L477.581 88.1772L477.549 88.1556L476.411 89.8ZM456.811 82L456.248 83.9193L456.251 83.92L456.811 82ZM437.011 75L436.153 76.8065L436.18 76.8193L436.207 76.8313L437.011 75ZM424.011 66.4L422.597 67.8142L422.611 67.8286L422.626 67.8428L424.011 66.4ZM416.811 55.2L418.696 54.5312L416.811 55.2ZM426.811 10.6L428.063 12.1592L428.066 12.1568L426.811 10.6ZM498.611 4.59999L498.993 2.63676L498.975 2.63326L498.957 2.63007L498.611 4.59999ZM505.811 5.99999L507.801 6.20081L507.984 4.38509L506.193 4.03677L505.811 5.99999ZM503.611 27.8L503.387 29.7874L505.398 30.014L505.601 28.0008L503.611 27.8ZM479.411 25.4L479.248 27.3934L479.251 27.3936L479.411 25.4ZM463.811 22.6C456.388 22.6 450.472 23.8144 446.359 26.5312C442.1 29.344 440.011 33.6095 440.011 39H444.011C444.011 34.7905 445.555 31.8559 448.563 29.8688C451.717 27.7856 456.701 26.6 463.811 26.6V22.6ZM440.011 39C440.011 43.9514 442.162 47.8583 446.345 50.4925L448.477 47.1075C445.46 45.2083 444.011 42.5819 444.011 39H440.011ZM446.419 50.5365C448.397 51.667 451.491 53.1057 455.637 54.8444L457.184 51.1556C453.064 49.4277 450.158 48.0663 448.403 47.0635L446.419 50.5365ZM455.689 54.8651C459.88 56.4873 465.392 58.3687 472.212 60.5083L473.41 56.6917C466.63 54.5646 461.209 52.7127 457.133 51.1349L455.689 54.8651ZM472.201 60.5049C478.804 62.6178 484.302 64.7817 488.716 66.9888L490.505 63.4111C485.853 61.085 480.151 58.8489 473.421 56.6951L472.201 60.5049ZM488.716 66.9888C493.077 69.1692 496.532 71.6982 499.134 74.5485L502.088 71.8515C499.09 68.5684 495.211 65.7641 490.505 63.4111L488.716 66.9888ZM499.164 74.5809C501.74 77.2793 503.583 80.4673 504.695 84.1747L508.527 83.0253C507.239 78.7327 505.082 74.9874 502.058 71.819L499.164 74.5809ZM504.714 84.2325C505.961 87.974 506.611 92.5488 506.611 98H510.611C510.611 92.2512 509.928 87.226 508.508 82.9675L504.714 84.2325ZM506.611 98C506.611 104.993 505.51 111.057 503.363 116.234L507.058 117.766C509.445 112.01 510.611 105.407 510.611 98H506.611ZM503.37 116.218C501.215 121.289 498.189 125.502 494.297 128.892L496.924 131.908C501.299 128.098 504.673 123.378 507.052 117.782L503.37 116.218ZM494.297 128.892C490.386 132.298 485.695 134.906 480.192 136.698L481.43 140.502C487.393 138.56 492.569 135.702 496.924 131.908L494.297 128.892ZM480.192 136.698C474.689 138.49 468.503 139.4 461.611 139.4V143.4C468.853 143.4 475.466 142.444 481.43 140.502L480.192 136.698ZM461.611 139.4C451.4 139.4 438.815 137.827 423.826 134.644L422.995 138.556C438.14 141.773 451.022 143.4 461.611 143.4V139.4ZM423.793 134.637L416.593 133.237L415.829 137.163L423.029 138.563L423.793 134.637ZM418.194 135.459L420.994 114.059L417.028 113.541L414.228 134.941L418.194 135.459ZM418.745 115.782C436.636 118.185 450.408 119.4 460.011 119.4V115.4C450.68 115.4 437.119 114.215 419.277 111.818L418.745 115.782ZM460.011 119.4C467.305 119.4 473.147 117.894 477.188 114.539C481.301 111.125 483.211 106.083 483.211 99.8H479.211C479.211 105.25 477.587 109.009 474.633 111.461C471.608 113.973 466.851 115.4 460.011 115.4V119.4ZM483.211 99.8C483.211 94.9527 481.352 91.0061 477.611 88.2L475.211 91.4C477.869 93.3939 479.211 96.114 479.211 99.8H483.211ZM477.549 88.1556C473.789 85.5525 466.972 82.8802 457.371 80.08L456.251 83.92C465.85 86.7198 472.099 89.2475 475.273 91.4444L477.549 88.1556ZM457.373 80.0807C449.696 77.8304 443.181 75.5247 437.815 73.1687L436.207 76.8313C441.774 79.2753 448.459 81.6362 456.248 83.9193L457.373 80.0807ZM437.869 73.1934C432.679 70.728 428.538 67.9737 425.396 64.9572L422.626 67.8428C426.15 71.2263 430.677 74.2054 436.153 76.8065L437.869 73.1934ZM425.425 64.9858C422.286 61.8468 420.056 58.3635 418.696 54.5312L414.926 55.8688C416.5 60.3031 419.069 64.2865 422.597 67.8142L425.425 64.9858ZM418.696 54.5312C417.32 50.6533 416.611 46.1531 416.611 41H412.611C412.611 46.5136 413.369 51.48 414.926 55.8688L418.696 54.5312ZM416.611 41C416.611 27.6664 420.543 18.2002 428.063 12.1592L425.558 9.04076C416.812 16.0665 412.611 26.8669 412.611 41H416.611ZM428.066 12.1568C435.866 5.86671 446.767 2.59999 461.011 2.59999V-1.40001C446.188 -1.40001 434.289 1.99995 425.555 9.04317L428.066 12.1568ZM461.011 2.59999C465.857 2.59999 471.385 2.92764 477.599 3.58877L478.023 -0.388786C471.704 -1.06099 466.031 -1.40001 461.011 -1.40001V2.59999ZM477.599 3.58877C483.813 4.24975 490.7 5.24271 498.265 6.5699L498.957 2.63007C491.322 1.2906 484.343 0.283569 478.023 -0.388786L477.599 3.58877ZM498.229 6.56322L505.429 7.96323L506.193 4.03677L498.993 2.63676L498.229 6.56322ZM503.821 5.79918L501.621 27.5992L505.601 28.0008L507.801 6.20081L503.821 5.79918ZM503.835 25.8126C494.355 24.7444 486.266 23.942 479.57 23.4064L479.251 27.3936C485.89 27.9247 493.934 28.7223 503.387 29.7874L503.835 25.8126ZM479.574 23.4066C473.018 22.8715 467.756 22.6 463.811 22.6V26.6C467.599 26.6 472.737 26.8619 479.248 27.3934L479.574 23.4066Z" fill="#008471"/>
</svg>
