<svg width="687" height="139" viewBox="0 0 687 139" fill="none" xmlns="http://www.w3.org/2000/svg">
<path d="M719 128.813V134.132L716.318 136.596H710.529L719 128.813Z" fill="#EDEDED"/>
<path d="M719 123.626V119.183L700.046 136.596H704.883L719 123.626Z" fill="#EDEDED"/>
<path d="M719 109.553V113.996L694.4 136.596H689.564L719 109.553Z" fill="#EDEDED"/>
<path d="M719 104.366V99.9225L679.081 136.596H683.918L719 104.366Z" fill="#EDEDED"/>
<path d="M719 90.2924V94.7357L673.543 136.497L672.491 133.019L719 90.2924Z" fill="#EDEDED"/>
<path d="M719 85.1056V80.6623L691.383 106.033V110.477L719 85.1056Z" fill="#EDEDED"/>
<path d="M689.342 112.352L688.32 108.848L670.212 125.483L671.264 128.96L689.342 112.352Z" fill="#EDEDED"/>
<path d="M719 71.0322V75.4755L691.383 100.846V96.4032L719 71.0322Z" fill="#EDEDED"/>
<path d="M686.104 101.254L687.126 104.758L668.985 121.424L667.933 117.947L686.104 101.254Z" fill="#EDEDED"/>
<path d="M719 65.8454V61.4021L691.383 86.773V91.2163L719 65.8454Z" fill="#EDEDED"/>
<path d="M684.91 97.1631L683.888 93.659L665.654 110.411L666.705 113.888L684.91 97.1631Z" fill="#EDEDED"/>
<path d="M719 51.7719V56.2152L691.383 81.5862V77.1429L719 51.7719Z" fill="#EDEDED"/>
<path d="M681.672 86.0645L682.695 89.5686L664.426 106.352L663.375 102.874L681.672 86.0645Z" fill="#EDEDED"/>
<path d="M637.551 126.598V131.041L631.505 136.596H626.669L637.551 126.598Z" fill="#EDEDED"/>
<path d="M637.551 136.596H637.151L637.551 136.228V136.596Z" fill="#EDEDED"/>
<path d="M719 46.5851V42.1418L691.383 67.5128V71.9561L719 46.5851Z" fill="#EDEDED"/>
<path d="M680.479 81.974L679.457 78.4699L661.096 95.3381L662.147 98.8153L680.479 81.974Z" fill="#EDEDED"/>
<path d="M637.551 121.411V116.968L616.186 136.596H621.023L637.551 121.411Z" fill="#EDEDED"/>
<path d="M719 32.5117V36.955L691.383 62.326V57.8827L719 32.5117Z" fill="#EDEDED"/>
<path d="M677.241 70.8754L678.263 74.3795L659.868 91.279L658.816 87.8018L677.241 70.8754Z" fill="#EDEDED"/>
<path d="M637.551 107.338V111.781L610.541 136.596H609.935V132.709L637.551 107.338Z" fill="#EDEDED"/>
<path d="M719 27.3249V22.8816L691.383 48.2525V52.6958L719 27.3249Z" fill="#EDEDED"/>
<path d="M676.047 66.7849L675.025 63.2808L656.537 80.2656L657.589 83.7428L676.047 66.7849Z" fill="#EDEDED"/>
<path d="M637.551 102.151V97.7076L609.935 123.079V127.522L637.551 102.151Z" fill="#EDEDED"/>
<path d="M719 13.2514V17.6947L691.383 43.0657V38.6224L719 13.2514Z" fill="#EDEDED"/>
<path d="M672.809 55.6863L673.832 59.1904L655.31 76.2065L654.258 72.7293L672.809 55.6863Z" fill="#EDEDED"/>
<path d="M637.551 88.0775V92.5208L609.935 117.892V113.449L637.551 88.0775Z" fill="#EDEDED"/>
<path d="M719 8.06461V3.62131L691.383 28.9923V33.4356L719 8.06461Z" fill="#EDEDED"/>
<path d="M671.616 51.5958L670.594 48.0917L651.979 65.1931L653.03 68.6703L671.616 51.5958Z" fill="#EDEDED"/>
<path d="M637.551 82.8907V78.4474L609.935 103.818V108.262L637.551 82.8907Z" fill="#EDEDED"/>
<path d="M587.179 129.167V124.724L574.257 136.596H579.093L587.179 129.167Z" fill="#EDEDED"/>
<path d="M584.739 136.596L587.179 134.354V136.596H584.739Z" fill="#EDEDED"/>
<path d="M712.459 0H717.296L691.383 23.8055V19.3622L712.459 0Z" fill="#EDEDED"/>
<path d="M668.378 40.4972L669.4 44.0013L650.751 61.134L649.7 57.6568L668.378 40.4972Z" fill="#EDEDED"/>
<path d="M637.551 68.8173V73.2606L609.935 98.6316V94.1883L637.551 68.8173Z" fill="#EDEDED"/>
<path d="M587.179 115.094V119.537L568.611 136.596H563.774L587.179 115.094Z" fill="#EDEDED"/>
<path d="M706.813 0H701.977L691.383 9.73205V14.1753L706.813 0Z" fill="#EDEDED"/>
<path d="M667.184 36.4067L666.162 32.9026L647.42 50.1205L648.472 53.5977L667.184 36.4067Z" fill="#EDEDED"/>
<path d="M637.551 63.6305V59.1872L609.935 84.5581V89.0014L637.551 63.6305Z" fill="#EDEDED"/>
<path d="M584.367 112.49H579.53L553.292 136.596H558.128L584.367 112.49Z" fill="#EDEDED"/>
<path d="M691.383 0H696.331L691.383 4.54522V0Z" fill="#EDEDED"/>
<path d="M663.745 24.6177L664.969 28.8122L646.193 46.0615L644.934 41.8992L663.745 24.6177Z" fill="#EDEDED"/>
<path d="M637.551 48.6816V54.0003L609.935 79.3713V74.0525L637.551 48.6816Z" fill="#EDEDED"/>
<path d="M568.095 112.49H573.884L547.646 136.596H541.856L568.095 112.49Z" fill="#EDEDED"/>
<path d="M662.552 20.5272L661.529 17.0231L642.655 34.3629L643.706 37.8401L662.552 20.5272Z" fill="#EDEDED"/>
<path d="M637.551 43.4947V39.0514L609.935 64.4224V68.8657L637.551 43.4947Z" fill="#EDEDED"/>
<path d="M562.449 112.49H557.612L531.374 136.596H536.21L562.449 112.49Z" fill="#EDEDED"/>
<path d="M659.313 9.42859L660.336 12.9327L641.427 30.3039L640.376 26.8267L659.313 9.42859Z" fill="#EDEDED"/>
<path d="M637.551 29.4213V33.8646L609.935 59.2356V54.7923L637.551 29.4213Z" fill="#EDEDED"/>
<path d="M547.13 112.49H551.966L525.728 136.596H520.891L547.13 112.49Z" fill="#EDEDED"/>
<path d="M658.12 5.33814L657.098 1.83405L609.935 45.1622V49.6055L637.551 24.2345V24.1051H637.692L658.12 5.33814Z" fill="#EDEDED"/>
<path d="M541.484 112.49H536.647L510.409 136.596H515.245L541.484 112.49Z" fill="#EDEDED"/>
<path d="M648.612 0H653.448L609.935 39.9753V35.5321L648.612 0Z" fill="#EDEDED"/>
<path d="M575.172 67.4684V71.9117L566.642 79.7477H561.806L575.172 67.4684Z" fill="#EDEDED"/>
<path d="M575.172 77.0986L572.288 79.7477H575.172V77.0986Z" fill="#EDEDED"/>
<path d="M526.743 112.49H531.002L504.763 136.596H499.926L526.743 111.96V112.49Z" fill="#EDEDED"/>
<path d="M642.966 0H638.129L609.935 25.9019V30.3452L642.966 0Z" fill="#EDEDED"/>
<path d="M575.172 62.2816V57.8383L551.323 79.7477H556.16L575.172 62.2816Z" fill="#EDEDED"/>
<path d="M526.743 106.773V102.329L499.126 127.7V132.144L526.743 106.773Z" fill="#EDEDED"/>
<path d="M627.647 0H632.483L609.935 20.7151V16.2718L627.647 0Z" fill="#EDEDED"/>
<path d="M566.642 56.0444H571.479L545.677 79.7477H540.841L566.642 56.0444Z" fill="#EDEDED"/>
<path d="M526.743 92.6994V97.1427L499.126 122.514V118.07L526.743 92.6994Z" fill="#EDEDED"/>
<path d="M622.001 0H617.164L609.935 6.64168V11.085L622.001 0Z" fill="#EDEDED"/>
<path d="M560.996 56.0444H556.16L530.358 79.7477H535.195L560.996 56.0444Z" fill="#EDEDED"/>
<path d="M526.743 87.5126V83.0692L499.126 108.44V112.884L526.743 87.5126Z" fill="#EDEDED"/>
<path d="M476.371 133.789L473.316 136.596H468.479L476.371 129.346V133.789Z" fill="#EDEDED"/>
<path d="M609.935 0H611.518L609.935 1.45485V0Z" fill="#EDEDED"/>
<path d="M585.28 24.1051L587.179 22.3603V17.917L580.443 24.1051H585.28Z" fill="#EDEDED"/>
<path d="M499.126 103.253L550.514 56.0444H545.677L499.126 98.8101V103.253Z" fill="#EDEDED"/>
<path d="M476.371 119.716V124.159L462.833 136.596H457.997L476.371 119.716Z" fill="#EDEDED"/>
<path d="M262.739 0H257.902L249.563 7.66077V12.1041L262.739 0Z" fill="#EDEDED"/>
<path d="M221.087 38.2651V33.8217L193.47 59.1927V63.6361L221.087 38.2651Z" fill="#EDEDED"/>
<path d="M193.47 68.8229L221.087 43.4519V48.7707L193.47 74.1416V68.8229Z" fill="#EDEDED"/>
<path d="M148.23 105.198C147.673 104.233 147.19 103.196 146.779 102.088L125.355 121.769C125.984 122.678 126.651 123.547 127.355 124.376L148.23 105.198Z" fill="#EDEDED"/>
<path d="M129.995 127.137L150.496 108.303C151.381 109.27 152.374 110.131 153.474 110.885L133.044 129.655C132.058 128.93 131.121 128.164 130.232 127.355C130.153 127.283 130.074 127.21 129.995 127.137Z" fill="#EDEDED"/>
<path d="M249.563 17.2909L268.384 0H274.174L249.563 22.6097V17.2909Z" fill="#EDEDED"/>
<path d="M249.563 0H252.256L249.563 2.47397V0Z" fill="#EDEDED"/>
<path d="M221.087 24.1916V28.6349L193.47 54.0059V49.5626L221.087 24.1916Z" fill="#EDEDED"/>
<path d="M145.141 93.9624C145.238 95.3594 145.405 96.6864 145.644 97.9436L123.321 118.452C122.787 117.466 122.29 116.442 121.828 115.379L145.141 93.9624Z" fill="#EDEDED"/>
<path d="M221.087 19.0048V14.5615L193.47 39.9325V44.3758L221.087 19.0048Z" fill="#EDEDED"/>
<path d="M145.041 88.867V84.4237L119.362 108.015C119.663 109.225 120 110.397 120.371 111.531L145.041 88.867Z" fill="#EDEDED"/>
<path d="M98.457 131.664L97.0498 128.513L88.2519 136.596H93.0885L98.457 131.664Z" fill="#EDEDED"/>
<path d="M98.7343 136.596L100.1 135.341L100.66 136.596H98.7343Z" fill="#EDEDED"/>
<path d="M221.087 4.93137V9.37469L193.47 34.7457V30.3024L221.087 4.93137Z" fill="#EDEDED"/>
<path d="M145.041 74.7935V79.2369L118.456 103.66C118.24 102.383 118.057 101.07 117.909 99.7198L145.041 74.7935Z" fill="#EDEDED"/>
<path d="M93.9997 121.685L95.407 124.835L82.606 136.596H77.7694L93.9997 121.685Z" fill="#EDEDED"/>
<path d="M220.809 0H215.972L193.47 20.6722V25.1156L220.809 0Z" fill="#EDEDED"/>
<path d="M145.041 69.6067V65.1634L117.425 90.5343C117.427 92.0184 117.462 93.4672 117.531 94.8806L145.041 69.6067Z" fill="#EDEDED"/>
<path d="M92.357 118.007L90.9497 114.857L68.4091 135.565L68.8411 136.596H72.1236L92.357 118.007Z" fill="#EDEDED"/>
<path d="M205.49 0H210.326L193.47 15.4854V11.0421L205.49 0Z" fill="#EDEDED"/>
<path d="M145.041 55.5333V59.9766L117.425 85.3476V80.9043L145.041 55.5333Z" fill="#EDEDED"/>
<path d="M87.8997 108.029L89.3069 111.179L66.8397 131.82L65.4952 128.612L87.8997 108.029Z" fill="#EDEDED"/>
<path d="M199.844 0H195.007L193.47 1.41198V5.85532L199.844 0Z" fill="#EDEDED"/>
<path d="M145.041 50.3465V45.9032L117.425 71.2742V75.7175L145.041 50.3465Z" fill="#EDEDED"/>
<path d="M86.2569 104.351L84.8496 101.201L62.5813 121.658L63.9257 124.867L86.2569 104.351Z" fill="#EDEDED"/>
<path d="M145.041 35.3976V40.7164L117.425 66.0874V60.7686L145.041 35.3976Z" fill="#EDEDED"/>
<path d="M81.5223 93.7519L83.2069 97.5231L61.0118 117.913L59.4024 114.073L81.5223 93.7519Z" fill="#EDEDED"/>
<path d="M145.041 30.2108V25.7674L117.425 51.1385V55.5818L145.041 30.2108Z" fill="#EDEDED"/>
<path d="M79.8796 90.0742L78.4723 86.9238L56.4885 107.12L57.833 110.328L79.8796 90.0742Z" fill="#EDEDED"/>
<path d="M145.041 16.1373V20.5806L117.425 45.9516V41.5083L145.041 16.1373Z" fill="#EDEDED"/>
<path d="M75.4222 80.0957L76.8295 83.2462L54.9191 103.375L53.5746 100.167L75.4222 80.0957Z" fill="#EDEDED"/>
<path d="M27.6165 124.014V128.458L18.7583 136.596H13.9217L27.6165 124.014Z" fill="#EDEDED"/>
<path d="M27.6165 133.644L24.4042 136.596H27.6165V133.644Z" fill="#EDEDED"/>
<path d="M145.041 10.9505V6.5072L117.425 31.8782V36.3215L145.041 10.9505Z" fill="#EDEDED"/>
<path d="M73.7795 76.4181L72.3722 73.2676L50.6607 93.2138L52.0051 96.4219L73.7795 76.4181Z" fill="#EDEDED"/>
<path d="M27.6165 118.828V114.384L3.43929 136.596H8.27588L27.6165 118.828Z" fill="#EDEDED"/>
<path d="M145.041 0V1.3204L117.425 26.6914V22.2481L141.642 0H145.041Z" fill="#EDEDED"/>
<path d="M70.242 68.4987L70.7295 69.59L49.0912 89.4688L47.7467 86.2606L72.3252 63.6807L70.242 68.4987Z" fill="#EDEDED"/>
<path d="M27.6165 104.754V109.197L0 134.568V130.125L27.6165 104.754Z" fill="#EDEDED"/>
<path d="M135.996 0H131.16L117.425 12.618V17.0613L135.996 0Z" fill="#EDEDED"/>
<path d="M76.0458 55.0758L79.2331 47.7043L41.1506 82.6903L46.0275 82.1582L46.1773 82.5157L76.0458 55.0758Z" fill="#EDEDED"/>
<path d="M27.6165 99.5673V95.124L0 120.495V124.938L27.6165 99.5673Z" fill="#EDEDED"/>
<path d="M120.677 0H125.514L117.425 7.43115V2.98783L120.677 0Z" fill="#EDEDED"/>
<path d="M86.141 31.728L82.9537 39.0994L34.7439 83.3893L29.2555 83.9882L86.141 31.728Z" fill="#EDEDED"/>
<path d="M27.6165 85.4938V89.9372L0 115.308V110.865L27.6165 85.4938Z" fill="#EDEDED"/>
<path d="M89.8616 23.1231L93.0489 15.7516L0 101.235V105.678L89.8616 23.1231Z" fill="#EDEDED"/>
<path d="M99.8597 0L96.7695 7.14673L48.5943 51.4048L51.2527 44.5192L99.7122 0H99.8597Z" fill="#EDEDED"/>
<path d="M35.2398 59.2301L40.7282 58.6313L0 96.0479V91.6046L35.2398 59.2301Z" fill="#EDEDED"/>
<path d="M94.0664 0H89.2298L57.0144 29.596L54.356 36.4815L94.0664 0Z" fill="#EDEDED"/>
<path d="M28.8331 59.9291L27.6165 60.0619V56.6035L0 81.9745V86.4178L28.8331 59.9291Z" fill="#EDEDED"/>
<path d="M78.7473 0H83.5839L60.1176 21.5582L62.776 14.6727L78.7473 0Z" fill="#EDEDED"/>
<path d="M27.6165 46.9733V51.4167L0 76.7877V72.3443L27.6165 46.9733Z" fill="#EDEDED"/>
<path d="M73.1014 0H68.4409L65.8792 6.63496L73.1014 0Z" fill="#EDEDED"/>
<path d="M27.6165 41.7865V37.3432L0 62.7142V67.1575L27.6165 41.7865Z" fill="#EDEDED"/>
<path d="M27.6165 27.7131V32.1564L0 57.5274V53.0841L27.6165 27.7131Z" fill="#EDEDED"/>
<path d="M27.6165 22.5263V18.083L0 43.454V47.8973L27.6165 22.5263Z" fill="#EDEDED"/>
<path d="M27.6165 8.45286V12.8962L0 38.2672V33.8239L27.6165 8.45286Z" fill="#EDEDED"/>
<path d="M27.6165 3.26605V0H26.335L0 24.1937V28.6371L27.6165 3.26605Z" fill="#EDEDED"/>
<path d="M14.8996 0H20.6892L0 19.0069V13.6881L14.8996 0Z" fill="#EDEDED"/>
<path d="M9.25377 0H4.41718L0 4.05802V8.50134L9.25377 0Z" fill="#EDEDED"/>
<path d="M587.179 12.7302V8.28692L569.961 24.1051H574.797L587.179 12.7302Z" fill="#EDEDED"/>
<path d="M540.031 56.0444H535.195L499.126 89.18V93.6233L540.031 56.0444Z" fill="#EDEDED"/>
<path d="M476.371 114.529V112.49H473.753L447.514 136.596H452.351L476.371 114.529Z" fill="#EDEDED"/>
<path d="M587.179 0V3.10009L564.315 24.1051H559.478L585.717 0H587.179Z" fill="#EDEDED"/>
<path d="M526.743 56.0444H529.549L499.126 83.9932V79.5499L526.743 54.1789V56.0444Z" fill="#EDEDED"/>
<path d="M463.27 112.49H468.107L441.868 136.596H437.032L463.27 112.49Z" fill="#EDEDED"/>
<path d="M580.071 0H575.234L548.996 24.1051H553.832L580.071 0Z" fill="#EDEDED"/>
<path d="M526.743 48.9921V44.5488L499.126 69.9197V74.363L526.743 48.9921Z" fill="#EDEDED"/>
<path d="M457.624 112.49H452.788L426.549 136.596H431.386L457.624 112.49Z" fill="#EDEDED"/>
<path d="M564.752 0H569.589L543.35 24.1051H538.513L564.752 0Z" fill="#EDEDED"/>
<path d="M526.743 34.9186V39.3619L499.126 64.7329V60.2896L526.743 34.9186Z" fill="#EDEDED"/>
<path d="M442.305 112.49H447.142L420.903 136.596H416.067L442.305 112.49Z" fill="#EDEDED"/>
<path d="M559.106 0H554.27L528.031 24.1051H532.868L559.106 0Z" fill="#EDEDED"/>
<path d="M526.743 29.7318V25.2885L499.126 50.6595V55.1028L526.743 29.7318Z" fill="#EDEDED"/>
<path d="M436.66 112.49H431.823L405.584 136.596H410.421L436.66 112.49Z" fill="#EDEDED"/>
<path d="M543.787 0H548.624L499.126 45.4727V41.0294L543.787 0Z" fill="#EDEDED"/>
<path d="M461.818 79.7477L464.363 77.409V72.9657L456.981 79.7477H461.818Z" fill="#EDEDED"/>
<path d="M399.939 136.596L426.177 112.49H421.341L395.102 136.596H399.939Z" fill="#EDEDED"/>
<path d="M538.141 0H533.305L499.126 31.3992V35.8425L538.141 0Z" fill="#EDEDED"/>
<path d="M464.363 67.7789V63.3356L446.499 79.7477H451.335L464.363 67.7789Z" fill="#EDEDED"/>
<path d="M415.935 112.27V107.827L388.318 133.198V136.596H389.456L415.935 112.27Z" fill="#EDEDED"/>
<path d="M521.869 0H527.659L499.126 26.2124V20.8936L521.869 0Z" fill="#EDEDED"/>
<path d="M464.363 56.0444V58.1488L440.853 79.7477H435.063L460.865 56.0444H464.363Z" fill="#EDEDED"/>
<path d="M415.935 97.3212V102.64L388.318 128.011V122.692L415.935 97.3212Z" fill="#EDEDED"/>
<path d="M516.223 0H511.387L499.126 11.2635V15.7068L516.223 0Z" fill="#EDEDED"/>
<path d="M455.219 56.0444H450.382L424.581 79.7477H429.417L455.219 56.0444Z" fill="#EDEDED"/>
<path d="M415.935 92.1344V87.6911L388.318 113.062V117.505L415.935 92.1344Z" fill="#EDEDED"/>
<path d="M500.904 0H505.741L499.126 6.0767V1.6334L500.904 0Z" fill="#EDEDED"/>
<path d="M439.9 56.0444H444.736L418.935 79.7477H415.935V82.5042L388.318 107.875V103.432L439.9 56.0444Z" fill="#EDEDED"/>
<path d="M357.056 136.596L358.628 135.151V130.707L352.219 136.596H357.056Z" fill="#EDEDED"/>
<path d="M476.371 17.3521V12.9088L464.183 24.1051H469.02L476.371 17.3521Z" fill="#EDEDED"/>
<path d="M434.254 56.0444H429.417L388.318 93.8018V98.2451L434.254 56.0444Z" fill="#EDEDED"/>
<path d="M358.628 125.521V121.077L341.737 136.596H346.573L358.628 125.521Z" fill="#EDEDED"/>
<path d="M474.666 24.1051L476.371 22.5389V24.1051H474.666Z" fill="#EDEDED"/>
<path d="M476.371 3.27866V7.72196L458.537 24.1051H453.701L476.371 3.27866Z" fill="#EDEDED"/>
<path d="M418.935 56.0444H423.771L388.318 88.615V84.1717L418.935 56.0444Z" fill="#EDEDED"/>
<path d="M358.628 111.447V115.891L336.091 136.596H331.254L358.628 111.447Z" fill="#EDEDED"/>
<path d="M474.294 0H469.457L443.218 24.1051H448.055L474.294 0Z" fill="#EDEDED"/>
<path d="M415.935 53.6139V49.1706L388.318 74.5416V78.9849L415.935 53.6139Z" fill="#EDEDED"/>
<path d="M358.628 106.26V101.817L320.772 136.596H325.608L358.628 106.26Z" fill="#EDEDED"/>
<path d="M458.975 0H463.811L437.573 24.1051H432.736L458.975 0Z" fill="#EDEDED"/>
<path d="M415.935 39.5404V43.9837L388.318 69.3548V64.9115L415.935 39.5404Z" fill="#EDEDED"/>
<path d="M358.628 92.187V96.6303L315.126 136.596H313.201L312.568 134.502L358.628 92.187Z" fill="#EDEDED"/>
<path d="M453.329 0H448.492L422.254 24.1051H427.09L453.329 0Z" fill="#EDEDED"/>
<path d="M415.935 34.3536V29.9103L388.318 55.2813V59.7246L415.935 34.3536Z" fill="#EDEDED"/>
<path d="M358.628 87.0002V82.5569L331.012 107.928V112.371L358.628 87.0002Z" fill="#EDEDED"/>
<path d="M330.882 112.49H329.011L328.384 110.342L310.289 126.966L311.341 130.443L330.882 112.49Z" fill="#EDEDED"/>
<path d="M438.01 0H442.846L416.608 24.1051H415.935V24.7235L388.318 50.0945V45.6512L438.01 0Z" fill="#EDEDED"/>
<path d="M358.628 72.9267V77.37L331.012 102.741V98.2978L358.628 72.9267Z" fill="#EDEDED"/>
<path d="M326.168 102.748L327.19 106.252L309.061 122.907L308.01 119.43L326.168 102.748Z" fill="#EDEDED"/>
<path d="M432.364 0H427.527L388.318 36.0211V40.4644L432.364 0Z" fill="#EDEDED"/>
<path d="M358.628 67.7399V63.2966L331.012 88.6676V93.1109L358.628 67.7399Z" fill="#EDEDED"/>
<path d="M324.975 98.6572L323.952 95.1531L305.731 111.893L306.782 115.371L324.975 98.6572Z" fill="#EDEDED"/>
<path d="M417.045 0H421.881L388.318 30.8343V26.391L417.045 0Z" fill="#EDEDED"/>
<path d="M358.628 53.6665V58.1098L331.012 83.4808V79.0375L358.628 53.6665Z" fill="#EDEDED"/>
<path d="M321.737 87.5586L322.759 91.0627L304.503 107.834L303.451 104.357L321.737 87.5586Z" fill="#EDEDED"/>
<path d="M277.18 128.493V132.936L273.196 136.596H268.359L277.18 128.493Z" fill="#EDEDED"/>
<path d="M411.399 0H406.562L388.318 16.7608V21.2042L411.399 0Z" fill="#EDEDED"/>
<path d="M358.628 48.4797V44.0364L331.012 69.4074V73.8507L358.628 48.4797Z" fill="#EDEDED"/>
<path d="M320.543 83.4681L319.521 79.964L301.172 96.8208L302.224 100.298L320.543 83.4681Z" fill="#EDEDED"/>
<path d="M277.18 123.306V118.862L257.877 136.596H262.714L277.18 123.306Z" fill="#EDEDED"/>
<path d="M396.08 0H400.916L388.318 11.574V7.1307L396.08 0Z" fill="#EDEDED"/>
<path d="M358.628 34.4062V38.8496L331.012 64.2206V59.7772L358.628 34.4062Z" fill="#EDEDED"/>
<path d="M317.305 72.3695L318.327 75.8736L299.945 92.7617L298.893 89.2845L317.305 72.3695Z" fill="#EDEDED"/>
<path d="M277.18 109.232V113.676L252.231 136.596H249.563V134.603L277.18 109.232Z" fill="#EDEDED"/>
<path d="M390.434 0H388.318V1.94391L390.434 0Z" fill="#EDEDED"/>
<path d="M358.628 29.2194V24.7761L331.012 50.1471V54.5904L358.628 29.2194Z" fill="#EDEDED"/>
<path d="M316.112 68.279L315.089 64.7749L296.614 81.7483L297.665 85.2255L316.112 68.279Z" fill="#EDEDED"/>
<path d="M277.18 104.046V99.6022L249.563 124.973V129.417L277.18 104.046Z" fill="#EDEDED"/>
<path d="M358.628 15.146V19.5893L331.012 44.9603V40.517L358.628 15.146Z" fill="#EDEDED"/>
<path d="M312.874 57.1804L313.896 60.6845L295.386 77.6892L294.335 74.212L312.874 57.1804Z" fill="#EDEDED"/>
<path d="M277.18 89.9721V94.4154L249.563 119.786V115.343L277.18 89.9721Z" fill="#EDEDED"/>
<path d="M358.628 9.9592V5.51587L331.012 30.8869V35.3302L358.628 9.9592Z" fill="#EDEDED"/>
<path d="M311.68 53.0899L310.658 49.5858L292.055 66.6757L293.107 70.153L311.68 53.0899Z" fill="#EDEDED"/>
<path d="M277.18 84.7853V80.3419L249.563 105.713V110.156L277.18 84.7853Z" fill="#EDEDED"/>
<path d="M358.628 0V0.329072L331.012 25.7001V20.3813L353.197 0H358.628Z" fill="#EDEDED"/>
<path d="M308.241 41.3009L309.465 45.4954L290.828 62.6167L289.569 58.4543L308.241 41.3009Z" fill="#EDEDED"/>
<path d="M277.18 69.8363V75.1551L249.563 100.526V95.2073L277.18 69.8363Z" fill="#EDEDED"/>
<path d="M347.551 0H342.715L331.012 10.7512V15.1945L347.551 0Z" fill="#EDEDED"/>
<path d="M307.047 37.2104L306.025 33.7063L287.29 50.9181L288.342 54.3953L307.047 37.2104Z" fill="#EDEDED"/>
<path d="M277.18 64.6495V60.2062L249.563 85.5772V90.0205L277.18 64.6495Z" fill="#EDEDED"/>
<path d="M332.232 0H337.069L331.012 5.56437V1.12104L332.232 0Z" fill="#EDEDED"/>
<path d="M303.809 26.1118L304.832 29.6159L286.062 46.859L285.011 43.3818L303.809 26.1118Z" fill="#EDEDED"/>
<path d="M277.18 50.5761V55.0194L249.563 80.3904V75.9471L277.18 50.5761Z" fill="#EDEDED"/>
<path d="M220.172 102.949C219.871 104.854 219.495 106.68 219.045 108.427L187.696 137.227C185.795 137.64 183.812 137.98 181.747 138.249L220.172 102.949Z" fill="#EDEDED"/>
<path d="M216.379 116.063L196.032 134.756C200.815 132.898 204.898 130.431 208.279 127.355C211.641 124.297 214.341 120.533 216.379 116.063Z" fill="#EDEDED"/>
<path d="M302.616 22.0213L301.594 18.5172L282.732 35.8456L283.783 39.3228L302.616 22.0213Z" fill="#EDEDED"/>
<path d="M277.18 45.3893V40.946L249.563 66.317V70.7603L277.18 45.3893Z" fill="#EDEDED"/>
<path d="M220.841 97.1473C220.955 95.6402 221.029 94.0907 221.064 92.4987L170.447 139C172.165 138.982 173.838 138.926 175.467 138.832L220.841 97.1473Z" fill="#EDEDED"/>
<path d="M299.378 10.9227L300.4 14.4268L281.504 31.7865L280.452 28.3093L299.378 10.9227Z" fill="#EDEDED"/>
<path d="M277.18 31.3158V35.7592L249.563 61.1302V56.6869L277.18 31.3158Z" fill="#EDEDED"/>
<path d="M221.087 82.8478V87.2911L164.887 138.922C163.339 138.86 161.83 138.766 160.359 138.638L221.087 82.8478Z" fill="#EDEDED"/>
<path d="M298.184 6.83225L297.162 3.32815L249.563 47.0567V51.5001L277.18 26.129V24.1051H279.181L279.225 24.2502L298.184 6.83225Z" fill="#EDEDED"/>
<path d="M221.087 77.661V73.2177L192.542 99.4416C191.797 102.46 190.605 105.036 188.965 107.171L221.087 77.661Z" fill="#EDEDED"/>
<path d="M184.619 111.164C182.32 112.648 179.573 113.69 176.379 114.29L151.3 137.33C152.611 137.605 153.962 137.845 155.351 138.052L184.619 111.164Z" fill="#EDEDED"/>
<path d="M290.302 0H295.139L249.563 41.8699V37.4266L290.302 0Z" fill="#EDEDED"/>
<path d="M221.087 63.5876V68.0309L193.402 93.4644C193.448 92.6643 193.47 91.8417 193.47 90.9967V88.9586L221.087 63.5876Z" fill="#EDEDED"/>
<path d="M169.256 114.901C169.532 114.901 169.805 114.899 170.076 114.894L146.853 136.229C145.625 135.874 144.437 135.485 143.287 135.061L165.41 114.737C166.637 114.846 167.919 114.901 169.256 114.901Z" fill="#EDEDED"/>
<path d="M284.656 0H279.82L249.563 27.7965V32.2398L284.656 0Z" fill="#EDEDED"/>
<path d="M221.087 58.4008V53.9574L193.47 79.3284V83.7718L221.087 58.4008Z" fill="#EDEDED"/>
<path d="M160.608 113.962C159.339 113.652 158.147 113.266 157.033 112.803L136.339 131.814C137.323 132.389 138.348 132.929 139.411 133.435L160.608 113.962Z" fill="#EDEDED"/>
</svg>
