<svg width="42" height="35" viewBox="0 0 42 35" fill="none" xmlns="http://www.w3.org/2000/svg">
<path d="M40.3572 4.92236C40.0874 5.35941 39.7901 5.77884 39.4672 6.17813C38.6405 7.24927 37.6736 8.20395 36.5925 9.01644L36.462 9.27319C36.4981 10.4866 36.4389 11.701 36.2849 12.9051C35.9698 15.4295 35.2739 17.8913 34.2209 20.2063C33.1461 22.5766 31.6954 24.7569 29.925 26.6625C27.0325 29.8183 23.2461 32.0124 19.0735 32.9507C17.6338 33.2674 16.1673 33.4472 14.6938 33.4875H13.9856C9.77884 33.5025 5.66151 32.2714 2.15099 29.949L1.95996 29.8276C2.57878 29.8969 3.20101 29.9312 3.82368 29.9303C5.89445 29.9366 7.94517 29.5238 9.8528 28.7165C11.1976 28.1417 12.453 27.376 13.5802 26.4431C11.9248 26.38 10.3314 25.795 9.02713 24.7716C7.72287 23.7481 6.77424 22.3383 6.3164 20.7431C6.79761 20.8434 7.2879 20.8935 7.77941 20.8925C8.42182 20.8893 9.06154 20.8094 9.68506 20.6544L9.80154 20.5891C8.73933 20.3577 7.73805 19.9036 6.86353 19.2567C5.98901 18.6098 5.26107 17.7847 4.72758 16.8358C3.95314 15.5177 3.56104 14.0094 3.59537 12.4803C4.66264 13.0885 5.86252 13.4251 7.08984 13.4606C5.44242 12.2632 4.30214 10.4912 3.89357 8.49359C3.44966 6.47247 3.77009 4.35821 4.79281 2.56022C8.98617 7.78868 14.3583 10.655 20.9233 11.1312C20.886 10.795 20.8441 10.5196 20.8021 10.2255C20.5754 8.35734 20.9983 6.46796 21.9996 4.87568C22.5569 3.89308 23.3265 3.04776 24.252 2.40159C25.1774 1.75541 26.2354 1.32473 27.3484 1.14106C27.8215 1.06627 28.3 1.03191 28.7788 1.03836C29.8008 1.04532 30.8105 1.26274 31.745 1.67713C32.6796 2.09151 33.5192 2.69401 34.2116 3.44719C34.2473 3.48944 34.2915 3.52372 34.3412 3.54784C34.391 3.57196 34.4452 3.58538 34.5004 3.58724H34.6216C36.2393 3.2274 37.7878 2.60618 39.2063 1.74794L39.3088 1.70126C38.7624 3.53938 37.5774 5.12084 35.9681 6.15946C37.4862 5.97719 38.9669 5.55985 40.3572 4.92236V4.92236Z" stroke="#5C5C5C" stroke-width="2" stroke-miterlimit="10" stroke-linejoin="round"/>
</svg>
