<svg width="33" height="35" viewBox="0 0 33 35" fill="none" xmlns="http://www.w3.org/2000/svg">
<path d="M8.65178 20.785C5.73979 18.9738 4.59949 16.4155 4.76912 13.3438C4.7719 11.9556 4.94596 10.5728 5.28744 9.22641C5.54058 8.28319 6.07217 7.4363 6.81412 6.79424C6.95362 6.69634 7.04897 6.54828 7.07978 6.38168C7.1106 6.21508 7.07444 6.04315 6.97903 5.9026C6.43278 4.45693 6.46311 2.85936 7.06385 1.43507C7.20992 1.06161 7.38897 1.01959 7.78949 1.12229C9.35349 1.56307 10.7257 2.5055 11.691 3.80188C11.9878 4.16134 12.1622 4.22669 12.6051 3.97461C13.6512 3.40508 14.8763 3.32572 16.0778 3.25569C18.1208 3.09485 20.1756 3.16218 22.2034 3.45643C22.9884 3.55132 23.7419 3.81931 24.4086 4.2407C24.9436 3.56976 25.5468 2.95499 26.2086 2.40607C26.8764 1.87136 27.634 1.45734 28.4467 1.18298C28.9745 1.01026 29.3891 0.996251 29.5211 1.57978C29.9923 3.12498 30.1242 4.66084 29.3986 6.1827C29.2666 6.45813 29.4928 6.58884 29.6671 6.74756C30.4355 7.42925 30.9831 8.32099 31.2409 9.31044C31.7222 11.1545 31.8706 13.0684 31.6791 14.9637C31.4483 17.3539 30.1996 19.2679 27.9473 20.659C26.1402 21.7269 24.1081 22.366 22.0102 22.5263C22.6153 23.3363 22.9837 24.2956 23.0751 25.2993C23.273 27.8015 23.1081 30.3036 23.174 32.8105C23.174 33.212 23.0138 33.2773 22.5992 33.2773C19.7092 33.2773 16.8192 33.2773 13.9292 33.2773C13.458 33.2773 13.3213 33.184 13.3355 32.7638C13.3685 31.6668 13.3355 30.5697 13.3355 29.4727C13.3355 29.1319 13.3355 28.9545 12.7983 29.0432C10.8774 29.4241 8.88323 29.1665 7.1251 28.3103C6.05227 27.5984 5.17211 26.6367 4.5618 25.5093C3.82673 24.2209 3.04455 22.9091 1.55557 22.1015C1.39065 22.0128 1.18803 21.8821 1.254 21.6767C1.31997 21.4713 1.61682 21.476 1.83828 21.4619C2.54763 21.4081 3.25941 21.5287 3.91043 21.8129C4.56145 22.0971 5.13157 22.5362 5.57016 23.0912C5.86701 23.4506 6.11203 23.8521 6.4136 24.2069C7.88844 25.9295 10.5319 26.6064 12.869 25.9248C13.4297 25.7661 13.3732 25.458 13.3779 25.0939C13.5335 24.1635 13.917 23.2852 14.4946 22.5356C12.4492 22.3414 10.4631 21.7463 8.65178 20.785V20.785Z" stroke="#5C5C5C" stroke-width="2" stroke-miterlimit="10"/>
</svg>
