<svg width="19" height="34" viewBox="0 0 19 34" fill="none" xmlns="http://www.w3.org/2000/svg">
<path d="M17.2682 7.67188H12.4356C12.3717 7.67337 12.3086 7.68759 12.2503 7.71369C12.1919 7.73979 12.1394 7.77724 12.0959 7.82383C12.0466 7.86919 12.0075 7.92435 11.9811 7.98571C11.9548 8.04707 11.9417 8.11326 11.9428 8.17997V10.5922H17.2682C17.2935 10.5876 17.3194 10.5876 17.3447 10.5922C17.461 10.612 17.5648 10.6764 17.6337 10.7714C17.7027 10.8664 17.7312 10.9846 17.7132 11.1003L16.7562 16.7985C16.7465 16.908 16.6951 17.0098 16.6124 17.083C16.5297 17.1562 16.422 17.1954 16.3112 17.1926H11.9428V32.0126C11.9435 32.0708 11.9324 32.1285 11.9103 32.1823C11.8881 32.2362 11.8554 32.2851 11.8139 32.3263C11.7725 32.3674 11.7232 32.3999 11.6689 32.4219C11.6146 32.4438 11.5565 32.4548 11.4978 32.4542H5.75622C5.69738 32.4548 5.63901 32.4439 5.58446 32.422C5.52992 32.4 5.4803 32.3676 5.43848 32.3265C5.39665 32.2855 5.36344 32.2366 5.34078 32.1827C5.31812 32.1288 5.30646 32.071 5.30646 32.0126V17.1973H1.89019C1.83135 17.198 1.77298 17.187 1.71844 17.1651C1.6639 17.1432 1.61428 17.1107 1.57245 17.0697C1.53062 17.0286 1.49741 16.9797 1.47475 16.9258C1.45209 16.8719 1.44043 16.8141 1.44043 16.7557V11.0575C1.44169 10.94 1.48963 10.8277 1.57384 10.745C1.65805 10.6623 1.77173 10.6159 1.89019 10.6159H5.30646V8.17997C5.30646 6.29091 6.06261 4.47922 7.40856 3.14345C8.75452 1.80768 10.58 1.05725 12.4835 1.05725H17.2682C17.3862 1.05725 17.4994 1.10378 17.5828 1.1866C17.6663 1.26941 17.7132 1.38174 17.7132 1.49886V7.22078C17.7132 7.3379 17.6663 7.45022 17.5828 7.53304C17.4994 7.61586 17.3862 7.66239 17.2682 7.66239V7.67188Z" stroke="#5C5C5C" stroke-width="2" stroke-miterlimit="10"/>
</svg>
