<svg width="19" height="34" viewBox="0 0 19 34" fill="none" xmlns="http://www.w3.org/2000/svg">
<path d="M17.0641 7.67188H12.2315C12.1676 7.67337 12.1045 7.68759 12.0462 7.71369C11.9878 7.73979 11.9353 7.77724 11.8918 7.82383C11.8425 7.86919 11.8034 7.92435 11.777 7.98571C11.7507 8.04707 11.7376 8.11326 11.7387 8.17997V10.5922H17.0641C17.0894 10.5876 17.1153 10.5876 17.1406 10.5922C17.2569 10.612 17.3607 10.6764 17.4296 10.7714C17.4985 10.8664 17.5271 10.9846 17.5091 11.1003L16.5521 16.7985C16.5424 16.908 16.491 17.0098 16.4083 17.083C16.3256 17.1562 16.2179 17.1954 16.1071 17.1926H11.7387V32.0126C11.7394 32.0708 11.7283 32.1285 11.7062 32.1823C11.684 32.2362 11.6513 32.2851 11.6098 32.3263C11.5684 32.3674 11.5191 32.3999 11.4648 32.4219C11.4105 32.4438 11.3524 32.4548 11.2937 32.4542H5.55212C5.49328 32.4548 5.4349 32.4439 5.38036 32.422C5.32582 32.4 5.2762 32.3676 5.23437 32.3265C5.19255 32.2855 5.15934 32.2366 5.13668 32.1827C5.11402 32.1288 5.10235 32.071 5.10236 32.0126V17.1973H1.68609C1.62725 17.198 1.56887 17.187 1.51433 17.1651C1.45979 17.1432 1.41017 17.1107 1.36835 17.0697C1.32652 17.0286 1.29331 16.9797 1.27065 16.9258C1.24799 16.8719 1.23632 16.8141 1.23633 16.7557V11.0575C1.23759 10.94 1.28553 10.8277 1.36974 10.745C1.45395 10.6623 1.56763 10.6159 1.68609 10.6159H5.10236V8.17997C5.10236 6.29091 5.85851 4.47922 7.20446 3.14345C8.55042 1.80768 10.3759 1.05725 12.2794 1.05725H17.0641C17.1821 1.05725 17.2953 1.10378 17.3787 1.1866C17.4622 1.26941 17.5091 1.38174 17.5091 1.49886V7.22078C17.5091 7.3379 17.4622 7.45022 17.3787 7.53304C17.2953 7.61586 17.1821 7.66239 17.0641 7.66239V7.67188Z" stroke="#B9B9B9" stroke-width="2" stroke-miterlimit="10"/>
</svg>
