<svg width="37" height="35" viewBox="0 0 37 35" fill="none" xmlns="http://www.w3.org/2000/svg">
<path d="M20.1705 14.5156C20.1705 13.7474 20.1705 12.9791 20.1705 12.2109C20.1705 11.8596 20.0622 11.7425 19.6759 11.7425C17.6786 11.7425 15.6766 11.7425 13.6793 11.7425C13.3119 11.7425 13.1753 11.8315 13.1753 12.2109C13.1753 19.1716 13.1753 26.1292 13.1753 33.0836C13.1753 33.4443 13.2977 33.552 13.6699 33.552C15.7677 33.5271 17.8655 33.5146 19.9633 33.5146C20.3448 33.5146 20.4343 33.4068 20.4343 33.0461C20.4343 29.7391 20.4343 26.4337 20.4343 23.1298C20.4383 22.3122 20.4918 21.4957 20.5945 20.6846C20.6736 19.7894 21.0498 18.9457 21.6638 18.2863C22.507 17.4244 23.6046 17.2277 24.7917 17.2464C26.4451 17.2792 27.4767 18.0053 27.9478 19.4995C28.2098 20.4589 28.3211 21.4527 28.2775 22.4459V33.018C28.2775 33.4865 28.2775 33.5286 28.8051 33.5286H34.929C35.5649 33.5286 35.5696 33.5286 35.5696 32.9337C35.5696 28.6758 35.5366 24.4132 35.5037 20.1553C35.4986 18.8496 35.305 17.5513 34.929 16.3002C34.3448 14.375 33.2567 12.8058 31.2688 11.9674C29.1981 11.1244 26.9109 10.9603 24.7399 11.499C22.8918 11.9029 21.2622 12.9787 20.1705 14.5156V14.5156ZM8.86503 12.2156C8.86503 11.8409 8.75669 11.7472 8.36099 11.7472C6.28518 11.7659 4.20622 11.7659 2.12412 11.7472C1.73784 11.7472 1.60595 11.8456 1.60595 12.2156V33.0461C1.60595 33.4256 1.72842 33.5146 2.12412 33.5146C4.20308 33.5146 6.28046 33.5146 8.35628 33.5146C8.75198 33.5146 8.86503 33.4162 8.86503 33.0461V12.2156ZM1.03125 4.96453C1.05964 6.0409 1.51576 7.06225 2.29975 7.80496C3.08374 8.54768 4.13173 8.95125 5.21429 8.92734C7.56961 8.90392 9.4256 7.21762 9.42089 4.95984C9.41618 2.70207 7.54605 0.987665 5.20958 1.00172C4.6728 0.986143 4.13824 1.0766 3.63685 1.26785C3.13546 1.4591 2.67721 1.74735 2.28861 2.1159C1.90001 2.48446 1.58879 2.926 1.37296 3.41497C1.15713 3.90394 1.04099 4.43062 1.03125 4.96453V4.96453Z" stroke="#B9B9B9" stroke-width="2" stroke-miterlimit="10" stroke-linejoin="round"/>
</svg>
