<svg width="39" height="35" viewBox="0 0 39 35" fill="none" xmlns="http://www.w3.org/2000/svg">
<path d="M34.1581 12.6085L34.1581 12.6083L34.1476 12.6084C33.5879 12.614 33.035 12.7311 32.5214 12.9527C32.073 13.1462 31.6624 13.416 31.3078 13.7495C28.5648 11.9066 24.7454 10.7232 20.7364 10.5176L22.9688 3.17524L28.8225 4.69555V4.6957V4.69652V4.69733V4.69815V4.69896V4.69977V4.70059V4.7014V4.70221V4.70302V4.70383V4.70463V4.70544V4.70624V4.70705V4.70785V4.70865V4.70945V4.71025V4.71105V4.71185V4.71265V4.71344V4.71423V4.71503V4.71582V4.71661V4.71739V4.71818V4.71897V4.71975V4.72053V4.72131V4.72209V4.72287V4.72365V4.72443V4.7252V4.72597V4.72674V4.72751V4.72828V4.72904V4.72981V4.73057V4.73133V4.73209V4.73285V4.7336V4.73436V4.73511V4.73586V4.73661V4.73736V4.7381V4.73884V4.73958V4.74032V4.74106V4.7418V4.74253V4.74326V4.74399V4.74472V4.74544V4.74617V4.74689V4.74761V4.74832V4.74904V4.74975V4.75046V4.75117V4.75187V4.75258V4.75328V4.75398V4.75467V4.75537V4.75606V4.75675V4.75744V4.75812V4.7588V4.75948V4.76016V4.76083V4.76151V4.76218V4.76284V4.76351V4.76417V4.76483V4.76549V4.76614V4.76679V4.76744V4.76809V4.76873V4.76937V4.77001V4.77064V4.77128V4.77191V4.77253V4.77316V4.77378V4.77439V4.77501V4.77562V4.77623V4.77684V4.77744V4.77804V4.77864V4.77923V4.77982V4.78041V4.781V4.78158V4.78216V4.78273V4.7833V4.78387V4.78444V4.785V4.78556V4.78611V4.78667V4.78722V4.78776V4.7883V4.78884V4.78938V4.78991V4.79044V4.79097V4.79149V4.79201V4.79252V4.79303V4.79354V4.79404V4.79454V4.79504V4.79553V4.79602V4.79651V4.79699V4.79747V4.79794V4.79841V4.79888V4.79934V4.7998V4.80026V4.80071V4.80116V4.8016V4.80204V4.80248V4.80291V4.80334V4.80376V4.80418V4.8046V4.80501V4.80542V4.80582V4.80622V4.80662V4.80701V4.8074V4.80778V4.80816V4.80853V4.8089V4.80927V4.80963V4.80999V4.81034V4.81069V4.81103V4.81137V4.81171V4.81204V4.81237V4.81269V4.81301V4.81308C28.7977 5.29619 28.8715 5.7793 29.0395 6.23322C29.2082 6.68924 29.4684 7.1062 29.8042 7.45871C30.1399 7.81121 30.5442 8.09188 30.9923 8.28366C31.4404 8.47544 31.923 8.57432 32.4107 8.57432C32.8984 8.57432 33.381 8.47544 33.8291 8.28366C34.2772 8.09188 34.6815 7.81121 35.0173 7.45871L34.8363 7.28628L35.0173 7.45871C35.353 7.1062 35.6132 6.68924 35.782 6.23321C35.9496 5.78015 36.0234 5.298 35.999 4.8158C36.0181 3.84952 35.6534 2.91481 34.9843 2.21491C34.3131 1.51278 33.3902 1.10408 32.4175 1.07785L32.4175 1.07766L32.4077 1.07778C31.6678 1.08664 30.9485 1.32256 30.3479 1.75351C29.8095 2.13989 29.39 2.6662 29.1341 3.27307L22.6998 1.68723L22.6998 1.6872L22.6961 1.68635C22.4903 1.63892 22.2739 1.67231 22.0921 1.77971C21.911 1.88667 21.7777 2.05893 21.7202 2.26116L19.2325 10.4874C14.9834 10.574 11.1189 11.7668 8.22513 13.6837C7.46049 13.0019 6.47107 12.6182 5.44036 12.6084L5.44036 12.6082L5.42973 12.6085C4.25766 12.6473 3.14765 13.1433 2.33924 13.9898L2.52005 14.1625L2.33924 13.9898C1.53149 14.8357 1.0896 15.9638 1.10901 17.1312C1.10451 17.9064 1.29819 18.67 1.67177 19.3501C2.01893 19.9821 2.51079 20.5226 3.1064 20.9282C3.04167 21.3419 3.00716 21.7598 3.00316 22.1785V22.1809C3.00316 25.444 4.91202 28.3753 7.93956 30.4804C10.9681 32.5862 15.1358 33.8822 19.719 33.8822C24.3023 33.8822 28.4711 32.5862 31.5008 30.4804C34.5295 28.3754 36.4396 25.444 36.4396 22.1809L36.4396 22.1785C36.4358 21.7894 36.4058 21.4012 36.35 21.0162C36.9854 20.6213 37.5137 20.0751 37.8864 19.4258C38.2872 18.7273 38.4935 17.9348 38.4838 17.1303C38.503 15.9624 38.0604 14.8339 37.2518 13.9881C36.4423 13.1414 35.3311 12.646 34.1581 12.6085ZM34.5988 4.82748L34.5986 4.83603L34.599 4.84458C34.612 5.14125 34.5645 5.43749 34.4595 5.71546C34.3544 5.99343 34.1939 6.24742 33.9875 6.46208L34.1677 6.63534L33.9875 6.46208C33.7811 6.67674 33.5331 6.84764 33.2585 6.96442C32.9839 7.08119 32.6883 7.14141 32.3896 7.14141C32.0909 7.14141 31.7954 7.08119 31.5207 6.96442C31.2461 6.84764 30.9982 6.67674 30.7918 6.46208C30.5854 6.24742 30.4249 5.99343 30.3198 5.71546L30.0859 5.80385L30.3198 5.71546C30.2147 5.43749 30.1673 5.14125 30.1803 4.84459L30.1806 4.83627L30.1805 4.82796C30.1669 4.22865 30.3924 3.64822 30.808 3.2139C31.2222 2.78109 31.7915 2.52857 32.392 2.5115C32.9919 2.52856 33.5607 2.78116 33.9741 3.21401C34.389 3.64837 34.6135 4.22869 34.5988 4.82748ZM2.45307 17.1734L2.45287 17.1656C2.43188 16.334 2.74333 15.528 3.31911 14.9247C3.89393 14.3224 4.68525 13.9713 5.51976 13.9487C6.10421 13.9549 6.6714 14.1322 7.15211 14.4549C5.49465 15.7972 4.21349 17.5431 3.43285 19.5231C3.16247 19.258 2.93966 18.9477 2.77504 18.6055C2.56003 18.1586 2.44991 17.6689 2.45294 17.1734L2.45307 17.1734ZM37.0696 17.3056L37.0696 17.3056L37.0695 17.3111C37.068 17.8062 36.9536 18.2945 36.7348 18.7391C36.5669 19.0804 36.3409 19.3892 36.0676 19.6522C35.2885 17.6722 34.0091 15.9259 32.3533 14.5826C32.8398 14.2613 33.4128 14.0882 34.0014 14.0887C34.8364 14.111 35.6283 14.4621 36.2034 15.0647C36.7792 15.668 37.0906 16.4741 37.0696 17.3056ZM19.719 32.5792C15.459 32.5792 11.5993 31.3936 8.81153 29.4926C6.02231 27.5906 4.32833 24.9912 4.32833 22.1576C4.32833 19.3241 6.02217 16.7294 8.8113 14.832C11.599 12.9357 15.4588 11.7546 19.719 11.7546C23.9794 11.7546 27.8404 12.9345 30.6292 14.8303C33.4195 16.7271 35.1145 19.3218 35.1145 22.1576C35.1145 24.9938 33.4238 27.5931 30.6359 29.4944C27.8495 31.3947 23.9887 32.5792 19.719 32.5792Z" fill="#B9B9B9" stroke="#B9B9B9" stroke-width="0.5"/>
<path d="M16.6292 20.0615C16.6053 19.588 16.4425 19.1318 16.1608 18.7496C15.8792 18.3674 15.4911 18.0758 15.0446 17.911C14.5981 17.7463 14.1129 17.7155 13.6491 17.8227C13.1853 17.9298 12.7632 18.1701 12.4352 18.5137C12.1072 18.8573 11.8876 19.2892 11.8037 19.7559C11.7198 20.2226 11.7752 20.7035 11.9632 21.1391C12.1511 21.5747 12.4633 21.9458 12.861 22.2065C13.2587 22.4672 13.7244 22.606 14.2006 22.6057C14.8613 22.5886 15.4883 22.311 15.9436 21.834C16.399 21.3569 16.6456 20.7194 16.6292 20.0615Z" fill="#B9B9B9"/>
<path d="M25.4015 17.5219C24.8913 17.4967 24.3852 17.6244 23.9486 17.8884C23.512 18.1524 23.1649 18.5407 22.952 19.0031C22.7392 19.4654 22.6705 19.9807 22.7547 20.4824C22.8389 20.9841 23.0722 21.4491 23.4245 21.8175C23.7767 22.1858 24.2318 22.4406 24.7309 22.5489C25.23 22.6572 25.7503 22.614 26.2245 22.425C26.6988 22.236 27.1052 21.9098 27.3914 21.4885C27.6777 21.0671 27.8305 20.5701 27.8302 20.0615C27.8453 19.4043 27.5981 18.768 27.1429 18.292C26.6877 17.816 26.0615 17.539 25.4015 17.5219Z" fill="#B9B9B9"/>
<path d="M24.8812 26.7558C23.8825 27.8015 22.2275 28.3103 19.8176 28.3103H19.7754C17.3655 28.3103 15.7058 27.8062 14.7072 26.7605C14.6558 26.705 14.5935 26.6608 14.5241 26.6305C14.4547 26.6002 14.3797 26.5846 14.304 26.5846C14.2282 26.5846 14.1533 26.6002 14.0839 26.6305C14.0145 26.6608 13.9521 26.705 13.9008 26.7605C13.7926 26.8748 13.7324 27.0259 13.7324 27.1829C13.7324 27.34 13.7926 27.4911 13.9008 27.6054C15.1245 28.8845 17.0467 29.5101 19.7754 29.5101H19.8176C22.5463 29.5101 24.4686 28.8845 25.6923 27.6054C25.7983 27.4901 25.8572 27.3394 25.8572 27.1829C25.8572 27.0265 25.7983 26.8758 25.6923 26.7605C25.6404 26.7052 25.5778 26.6611 25.5083 26.6307C25.4387 26.6004 25.3637 26.5846 25.2877 26.5841C25.2118 26.5837 25.1366 26.5987 25.0667 26.6282C24.9967 26.6577 24.9336 26.7011 24.8812 26.7558Z" fill="#B9B9B9"/>
</svg>
