<svg width="42" height="35" viewBox="0 0 42 35" fill="none" xmlns="http://www.w3.org/2000/svg">
<path d="M40.1531 4.92236C39.8833 5.35941 39.586 5.77884 39.2631 6.17813C38.4364 7.24927 37.4695 8.20395 36.3884 9.01644L36.2579 9.27319C36.294 10.4866 36.2348 11.701 36.0808 12.9051C35.7657 15.4295 35.0698 17.8913 34.0168 20.2063C32.942 22.5766 31.4913 24.7569 29.7209 26.6625C26.8284 29.8183 23.042 32.0124 18.8694 32.9507C17.4297 33.2674 15.9632 33.4472 14.4897 33.4875H13.7815C9.57474 33.5025 5.45741 32.2714 1.94689 29.949L1.75586 29.8276C2.37468 29.8969 2.9969 29.9312 3.61958 29.9303C5.69035 29.9366 7.74107 29.5238 9.6487 28.7165C10.9935 28.1417 12.2489 27.376 13.3761 26.4431C11.7207 26.38 10.1273 25.795 8.82303 24.7716C7.51877 23.7481 6.57014 22.3383 6.1123 20.7431C6.59351 20.8434 7.0838 20.8935 7.57531 20.8925C8.21771 20.8893 8.85744 20.8094 9.48096 20.6544L9.59744 20.5891C8.53523 20.3577 7.53394 19.9036 6.65943 19.2567C5.78491 18.6098 5.05697 17.7847 4.52348 16.8358C3.74903 15.5177 3.35694 14.0094 3.39127 12.4803C4.45853 13.0885 5.65842 13.4251 6.88574 13.4606C5.23831 12.2632 4.09804 10.4912 3.68946 8.49359C3.24556 6.47247 3.56599 4.35821 4.58871 2.56022C8.78207 7.78868 14.1542 10.655 20.7192 11.1312C20.6819 10.795 20.64 10.5196 20.598 10.2255C20.3713 8.35734 20.7942 6.46796 21.7955 4.87568C22.3528 3.89308 23.1224 3.04776 24.0479 2.40159C24.9733 1.75541 26.0313 1.32473 27.1443 1.14106C27.6174 1.06627 28.0959 1.03191 28.5747 1.03836C29.5967 1.04532 30.6064 1.26274 31.5409 1.67713C32.4755 2.09151 33.3151 2.69401 34.0075 3.44719C34.0432 3.48944 34.0874 3.52372 34.1371 3.54784C34.1869 3.57196 34.2411 3.58538 34.2963 3.58724H34.4175C36.0352 3.2274 37.5837 2.60618 39.0022 1.74794L39.1047 1.70126C38.5583 3.53938 37.3733 5.12084 35.764 6.15946C37.2821 5.97719 38.7628 5.55985 40.1531 4.92236V4.92236Z" stroke="#B9B9B9" stroke-width="2" stroke-miterlimit="10" stroke-linejoin="round"/>
</svg>
