<svg width="43" height="44" viewBox="0 0 43 44" fill="none" xmlns="http://www.w3.org/2000/svg">
<circle cx="21.5" cy="22" r="21.5" fill="#2D2E36"/>
<path d="M30.9999 22.79C30.8426 24.4922 30.2038 26.1144 29.1581 27.4668C28.1125 28.8192 26.7034 29.8458 25.0956 30.4265C23.4878 31.0073 21.7479 31.1181 20.0794 30.7461C18.4109 30.3741 16.8829 29.5345 15.6741 28.3258C14.4654 27.117 13.6258 25.589 13.2538 23.9205C12.8818 22.252 12.9926 20.5121 13.5734 18.9043C14.1541 17.2965 15.1807 15.8874 16.5331 14.8418C17.8855 13.7961 19.5077 13.1573 21.2099 13C20.2133 14.3483 19.7338 16.0094 19.8584 17.6814C19.9831 19.3534 20.7038 20.9251 21.8893 22.1106C23.0748 23.2961 24.6465 24.0168 26.3185 24.1415C27.9905 24.2662 29.6516 23.7866 30.9999 22.79V22.79Z" stroke="#686868" stroke-width="1.5" stroke-linecap="round" stroke-linejoin="round"/>
</svg>
