<svg width="43" height="44" viewBox="0 0 43 44" fill="none" xmlns="http://www.w3.org/2000/svg">
<circle cx="21.5" cy="22" r="21.5" fill="#2D2E36"/>
<path d="M27.9313 20.3462H15.0681C14.0532 20.3462 13.2305 21.1539 13.2305 22.1504V28.4651C13.2305 29.4615 14.0532 30.2693 15.0681 30.2693H27.9313C28.9462 30.2693 29.7689 29.4615 29.7689 28.4651V22.1504C29.7689 21.1539 28.9462 20.3462 27.9313 20.3462Z" stroke="#686868" stroke-width="1.5" stroke-linecap="round" stroke-linejoin="round"/>
<path d="M16.5391 20.3462V16.673C16.5378 15.5344 16.9984 14.4359 17.8314 13.5909C18.6645 12.7459 19.8105 12.2146 21.0471 12.1002C22.2836 11.9858 23.5225 12.2964 24.5231 12.9717C25.5238 13.647 26.2148 14.6389 26.4621 15.7547" stroke="#686868" stroke-width="1.5" stroke-linecap="round" stroke-linejoin="round"/>
</svg>
