<svg width="267" height="420" viewBox="0 0 267 420" fill="none" xmlns="http://www.w3.org/2000/svg">
<g opacity="0.1">
<g filter="url(#filter0_b_214_4015)">
<path d="M231.81 5.55441C231.81 5.55441 242.142 10.8602 250.226 12.6455C250.871 12.7819 251.54 12.7379 252.161 12.5181C252.782 12.2983 253.331 11.9112 253.749 11.3988C255.55 9.24456 258.064 5.55441 255.501 4.22795C255.139 4.03859 254.756 3.82898 254.351 3.60734C250.618 1.56426 245.018 -1.50111 236.6 0.846977C227.268 3.45003 230.366 5.09564 231.81 5.55441Z" fill="#006051" fill-opacity="0.5"/>
<path d="M175.828 12.7255C175.828 12.7255 176.629 10.2022 178.618 10.2022C179.195 10.2022 180.064 10.1099 181.045 10.0056C183.446 9.75038 186.522 9.42339 187.653 10.2022C189.247 11.2993 188.544 14.6902 186.664 14.7002C184.784 14.7102 175.026 14.1816 175.828 12.7255Z" fill="#006051" fill-opacity="0.5"/>
<path d="M-64.8841 143.995C-65.8638 150.577 -60.3122 150.258 -60.3122 150.258C-59.2593 150.404 -58.1783 149.137 -56.8645 147.598C-56.1162 146.721 -55.2922 145.755 -54.355 144.912C-52.3566 143.114 -51.8274 141.322 -50.8102 137.878C-50.5127 136.87 -50.1735 135.722 -49.7435 134.39C-47.8435 128.506 -40.3722 127 -39.155 127C-37.9378 127 -39.7092 132.007 -44.7264 137.801C-46.1382 139.432 -47.7069 140.979 -49.2838 142.535C-53.3105 146.508 -57.3915 150.535 -59.0555 156.132C-61.3711 163.921 -57.4325 167.612 -54.444 166.654C-53.0599 166.211 -52.3826 164.633 -51.4576 162.479C-50.3854 159.982 -48.9802 156.71 -45.7555 153.529C-42.5846 150.402 -40.9001 147.452 -39.3976 144.822C-38.0538 142.469 -36.8557 140.371 -34.8702 138.629C-31.6054 135.531 -28.6246 132.143 -25.9639 128.506C-14.6555 104.253 21.5807 73.7834 32.1673 64.8816C33.522 63.7424 34.4568 62.9564 34.8654 62.5819C36.2058 61.3535 38.0887 60.1735 39.9248 59.0228C43.0232 57.081 45.9883 55.2227 45.9883 53.3565C45.9883 50.3844 44.3654 48.7388 41.7331 49.068C39.1008 49.3971 18.1811 63.5692 2.48644 76.4249C-13.2083 89.2806 -28.5863 113.705 -31.09 118.971C-33.5936 124.237 -34.4743 120.657 -34.4743 115.67C-34.4743 112.595 -33.6015 110.795 -32.7026 108.94C-32.1436 107.787 -31.5744 106.613 -31.1988 105.098C-30.2191 101.149 -36.1071 104.121 -37.7399 106.425C-38.2387 107.129 -39.1954 107.955 -40.2838 108.895C-42.7585 111.033 -45.9138 113.76 -45.9138 116.967C-45.9138 121.584 -48.1998 123.898 -52.455 126.86C-56.7102 129.822 -63.9044 137.412 -64.8841 143.995Z" fill="#006051" fill-opacity="0.5"/>
<path d="M49.6089 45.3677C49.0977 45.6253 48.6529 45.999 48.3094 46.4593C47.966 46.9197 47.7333 47.4541 47.6297 48.0206C47.5608 48.3749 47.5639 48.7396 47.6387 49.0928C47.7136 49.4459 47.8586 49.78 48.0651 50.0751C49.3318 51.8404 52.6469 50.4641 54.7844 48.4993C56.9218 46.5345 70.1822 38.3863 70.1822 38.3863C70.1822 38.3863 55.5661 42.2859 49.6089 45.3677Z" fill="#006051" fill-opacity="0.5"/>
<path d="M-51.2355 176.508C-48.1777 179.72 -46.1985 176.508 -46.1985 176.508C-42.222 173.557 -37.2652 165.472 -34.1155 160.334C-33.103 158.682 -32.2773 157.335 -31.7309 156.562C-29.4845 153.38 -16.5408 135.278 -12.4341 130.192C-11.5029 129.039 -10.9635 127.992 -10.3136 126.731C-8.09749 122.431 -4.59725 115.639 20.1033 93.6296C52.0469 65.1655 87.9686 35.6044 132.094 34.0985C176.219 32.5925 227.093 64.6369 227.093 64.6369C227.813 64.3388 228.465 63.8974 229.011 63.3392C229.557 62.781 229.986 62.1174 230.271 61.3882C230.557 60.659 230.693 59.8793 230.673 59.0957C230.652 58.312 230.475 57.5407 230.151 56.8278C180.465 25.5612 139.842 22.3997 120.051 26.2993C100.259 30.1989 81.5462 40.5213 67.9593 48.3105C54.8485 55.8268 29.5101 76.2702 14.173 88.6443L12.5429 89.9594C-2.56797 102.147 -18.3518 121.814 -22.221 128.217C-26.0903 134.62 -40.4688 157.549 -45.3574 162.117C-50.2459 166.685 -54.2932 173.297 -51.2355 176.508Z" fill="#006051" fill-opacity="0.5"/>
<path d="M242.826 30.7569C188.38 9.55345 153.378 14.6399 143.215 16.9338C142.904 17.0061 142.623 17.178 142.417 17.4238C142.21 17.6696 142.087 17.9762 142.067 18.298C142.047 18.6197 142.131 18.9394 142.305 19.2093C142.48 19.4793 142.737 19.6851 143.037 19.7961C145.91 20.6928 148.875 21.2583 151.874 21.4816C156.512 21.9542 160.976 22.6212 165.167 23.2473C171.59 24.2069 177.371 25.0707 182.155 24.9922C190.062 24.8626 209.675 27.1465 221.521 31.6146C233.366 36.0826 238.344 38.0075 238.344 38.0075C238.344 38.0075 240.857 38.2469 242.777 35.3546C244.697 32.4623 242.826 30.7569 242.826 30.7569Z" fill="#006051" fill-opacity="0.5"/>
<path d="M232.415 50.7734C239.234 50.2947 237.195 42.9343 237.195 42.9343C237.195 42.9343 211.357 32.5919 197.592 28.8319C183.827 25.072 176.494 31.7143 187.172 33.0507C192.515 33.7195 202.135 38.2776 211.266 42.6046C220.381 46.9237 229.009 51.0125 232.415 50.7734Z" fill="#006051" fill-opacity="0.5"/>
<path d="M199.897 8.19763C199.602 8.30756 199.347 8.50385 199.164 8.76122C198.981 9.01859 198.879 9.32525 198.87 9.64173C198.862 9.9582 198.947 10.27 199.116 10.537C199.285 10.804 199.529 11.0139 199.818 11.1398C202.925 12.4862 207.922 14.3811 211.95 14.7003C218.293 15.1989 235.482 20.6843 243.676 24.9828C248.92 27.6956 251.592 18.1012 248.208 16.8844C246.389 16.2379 243.759 15.2455 240.831 14.1402C233.867 11.5114 225.212 8.24487 221.757 7.47954C217.62 6.56199 206.388 5.90375 199.897 8.19763Z" fill="#006051" fill-opacity="0.5"/>
<path d="M214.576 72.5373C199.848 63.8878 163.859 42.7529 105.643 50.7834C100.544 51.5157 96.1847 55.0377 92.9017 57.6902C91.4451 58.8671 90.2003 59.8728 89.1967 60.3878C82.6013 63.6732 76.2454 67.426 70.177 71.6178C57.9194 80.3999 46.5592 90.3892 36.2641 101.438C25.9329 112.748 13.1574 136.694 10.0997 142.588C7.04185 148.483 -4.36799 161.657 -7.71276 165.028C-11.0575 168.399 -18.8257 185.773 -24.1398 198.14C-29.4538 210.507 -36.1434 208.792 -35.0251 199.536C-33.9069 190.281 -15.2632 164.161 -10.8101 158.865C-6.35704 153.569 17.0663 119.301 18.1746 116.438C19.2829 113.576 15.9382 112.848 12.8804 116.438C11.5043 118.054 7.75939 123.626 3.64241 129.753C-1.38886 137.239 -6.97621 145.554 -9.47421 148.483C-14.0164 153.808 -34.1444 187.11 -34.1444 187.11C-34.1444 187.11 -36.9152 194.57 -41.1704 192.146C-45.4256 189.723 -44.1194 184.147 -39.1319 177.894C-36.995 175.215 -28.7475 163.179 -19.799 150.12C-7.8619 132.699 5.32395 113.456 6.9132 112.18C7.88878 111.396 9.68775 110.629 11.8982 109.687C15.9882 107.944 21.4868 105.601 25.7845 101.438C28.1294 99.1667 30.498 96.3447 32.9499 93.4232C37.4203 88.0969 42.168 82.4401 47.5552 79.1876C49.319 78.1227 51.7025 76.0409 54.7599 73.3705C66.1629 63.4109 86.9391 45.2645 119.893 41.1591C161.683 35.953 206.63 54.3938 225.125 69.8625C225.125 69.8625 226.412 75.0786 221.79 76.0161C220.831 76.2106 218.433 74.8019 214.576 72.5373Z" fill="#006051" fill-opacity="0.5"/>
<path d="M25.2243 125.315C25.2243 125.315 42.8289 98.3866 61.8387 85.2616C69.1202 80.2342 75.1792 75.8126 80.2176 72.1359C88.3328 66.2137 93.8003 62.2238 97.4635 60.747C97.806 60.609 98.1958 60.4444 98.6353 60.2588L98.6428 60.2556C105.829 57.221 126.233 48.6044 169.445 58.5529C215.322 69.1147 220.854 84.2643 218.687 87.2563C216.801 89.86 211.183 86.7238 202.818 82.0539C201.571 81.3574 200.262 80.6268 198.895 79.876C188.366 74.0914 168.624 65.3248 152.801 65.7238C136.977 66.1227 105.538 77.0834 103.569 79.0781C101.6 81.0728 101.392 75.4977 106.726 74.3009C109.556 73.6658 111.891 72.132 113.96 70.7725C115.79 69.5701 117.412 68.5041 118.987 68.3168C122.341 67.9179 127.497 66.7211 127.497 63.9385C127.497 61.156 116.226 61.5449 110.486 63.9385C105.997 65.8107 91.4705 73.7721 83.3704 78.2113C81.1146 79.4477 79.3569 80.411 78.4537 80.8933C77.5617 81.3696 76.6142 81.8256 75.6666 82.2817C72.21 83.9453 68.7506 85.6103 67.974 88.2636C66.9845 91.6446 60.2553 99.7031 56.9007 101.458C53.546 103.214 36.5252 116.768 34.7539 119.959C32.9826 123.15 30.568 125.644 25.2243 125.315Z" fill="#006051" fill-opacity="0.5"/>
<path d="M71.9733 99.9921C62.4733 107.213 60.2369 103.872 60.2369 103.872C60.4295 101.657 69.705 95.783 75.5716 92.0678C77.8412 90.6304 79.6029 89.5147 80.1274 89.0612C82.0076 87.4356 84.343 91.1457 83.5315 91.1457C83.1071 91.1457 82.5636 91.5904 80.7824 93.0478C79.1581 94.3768 76.5045 96.548 71.9733 99.9921Z" fill="#006051" fill-opacity="0.5"/>
<path d="M86.6284 97.9281C86.6284 97.9281 83.9763 97.1402 89.1617 93.45C94.3471 89.7599 128.646 68.9055 153.385 70.222C178.125 71.5385 206.823 86.319 211.771 90.6774C216.718 95.0358 213.215 103.733 211.771 103.204C211.549 103.123 210.637 102.501 209.175 101.505C201.109 96.0079 176.296 79.097 158.234 78.5398C136.899 77.8816 115.425 86.0597 106.39 91.7346L105.165 92.5055C97.0622 97.6091 93.9591 99.5635 86.6284 97.9281Z" fill="#006051" fill-opacity="0.5"/>
<path d="M113.716 96.1951C113.899 96.3872 114.133 96.5213 114.391 96.581C123.233 98.7226 128.967 97.0785 135.476 95.2123C141.758 93.411 148.763 91.4027 159.981 92.3922C177.607 93.9392 190.26 106.611 197.484 113.845C200.086 116.451 201.984 118.352 203.156 118.772C207.579 120.358 208.757 112.429 208.104 109.008C207.451 105.587 194.883 90.8064 164.127 84.214C139.259 78.8783 120.289 89.7492 113.935 94.1176C113.717 94.2666 113.546 94.4768 113.444 94.7223C113.342 94.9679 113.314 95.238 113.362 95.4997C113.41 95.7613 113.533 96.003 113.716 96.1951Z" fill="#006051" fill-opacity="0.5"/>
<path d="M145.924 102.156L143.242 101.269C143.168 101.243 143.103 101.195 143.057 101.131C143.011 101.066 142.986 100.989 142.986 100.91C142.986 100.831 143.011 100.753 143.057 100.689C143.103 100.624 143.168 100.576 143.242 100.551C147.2 99.5534 160.124 97.0202 171.821 101.548C182.152 105.537 190.495 113.137 194.156 116.857C194.269 116.978 194.338 117.132 194.354 117.297C194.37 117.461 194.332 117.627 194.245 117.767C194.158 117.907 194.027 118.014 193.873 118.072C193.719 118.129 193.551 118.133 193.394 118.084L145.924 102.156Z" fill="#006051" fill-opacity="0.5"/>
<path d="M-24.4411 219.792C-20.7104 223.074 -19.2953 218.795 -19.2953 218.795C-15.301 211.943 -14.0504 207.502 -12.8169 203.121C-11.465 198.321 -10.1336 193.592 -5.23343 185.843C4.13789 171.023 1.82227 161.548 1.69363 164.041C1.56498 166.535 -7.57873 177.625 -10.1516 180.218C-12.7245 182.811 -23.026 204.483 -24.4411 207.984L-24.657 208.514C-26.0706 211.978 -27.9872 216.674 -24.4411 219.792Z" fill="#006051" fill-opacity="0.5"/>
<path d="M-11.1818 233.196C-11.1818 233.196 -12.5969 236.188 -15.0412 233.196C-17.4854 230.204 -15.1797 223.223 -12.211 216.072C-10.825 212.734 -9.19092 207.478 -7.64516 202.506C-5.88002 196.828 -4.22997 191.521 -3.19593 189.862C-1.25636 186.75 -1.00897 193.752 -1.00897 195.846C-1.00897 196.044 -1.00324 196.323 -0.996025 196.674C-0.926553 200.054 -0.719915 210.108 -4.10634 218.685C-6.00385 223.737 -8.37298 228.596 -11.1818 233.196Z" fill="#006051" fill-opacity="0.5"/>
<path d="M-5.51874 246.302C-2.16407 251.877 0.666125 247.209 0.666125 247.209C2.5958 244.876 3.23903 239.739 3.23903 238.154C3.23903 237.353 2.7473 235.935 2.17755 234.292C1.61864 232.68 0.984648 230.852 0.666125 229.178C0.0228983 225.797 -1.13491 223.204 -1.90678 224.241C-2.31841 224.794 -3.03681 226.958 -3.7678 229.16C-4.40752 231.088 -5.0569 233.044 -5.51874 233.975C-6.64313 235.831 -7.23803 237.964 -7.23803 240.138C-7.23803 242.313 -6.64313 244.446 -5.51874 246.302Z" fill="#006051" fill-opacity="0.5"/>
<path d="M7.09673 252.785C7.09673 252.785 6.10715 249.573 5.29569 249.035C4.48424 248.496 2.24779 251.618 2.03998 253.952C1.92482 255.245 2.60884 256.063 3.29894 256.889C3.8542 257.554 4.41339 258.223 4.56341 259.148C4.89986 261.222 6.54257 258.629 7.09673 256.425C7.42046 255.234 7.42046 253.976 7.09673 252.785Z" fill="#006051" fill-opacity="0.5"/>
<path d="M30.3222 148.991C17.0519 164.53 14.3207 183.998 14.3207 183.998C14.3207 183.998 16.5868 187.548 17.7149 181.255C18.8431 174.962 27.2347 165.727 28.6003 165.527L28.6329 165.522C29.0177 165.466 29.2725 165.429 29.3558 165.532C29.5191 165.734 29.024 166.476 27.5588 168.672C27.188 169.228 26.7551 169.877 26.255 170.633C22.742 175.949 10.4613 207.804 10.0655 216.262C9.66967 224.719 12.2129 224.919 13.3806 224.919C14.5483 224.919 26.4628 197.582 26.6508 193.841C26.7878 191.118 31.0543 181.514 34.1277 174.596C35.2748 172.014 36.2561 169.806 36.794 168.469C38.5586 164.085 37.6407 163 37.0072 162.25C36.9301 162.159 36.8573 162.073 36.794 161.987C36.5401 161.64 35.7302 161.666 34.8887 161.694C33.7954 161.729 32.6485 161.767 32.5982 160.989C32.5531 160.292 34.678 157.828 36.915 155.233C39.0953 152.704 41.3821 150.052 41.8706 148.792C42.2695 147.762 43.6481 145.739 45.2015 143.46C47.5009 140.085 50.1834 136.148 50.6382 134.041C51.4002 130.511 49.6486 130.9 49.6486 130.9C49.6486 130.9 43.5924 133.453 30.3222 148.991Z" fill="#006051" fill-opacity="0.5"/>
<path d="M45.9877 182.033C45.9877 182.033 42.8111 189.633 36.181 189.074C31.6314 188.691 34.9098 180.794 37.927 173.526C39.3068 170.203 40.632 167.011 41.1289 164.729C42.7122 157.459 54.983 130.51 57.4965 128.147C60.01 125.783 66.8678 123.16 67.8475 125.354C68.4063 126.606 67.1202 128.234 65.4769 130.314C64.2392 131.881 62.7988 133.704 61.7913 135.816C61.274 136.901 60.493 138.444 59.5821 140.244C56.3631 146.605 51.5228 156.169 50.9752 160.002C50.2726 164.919 45.9877 182.033 45.9877 182.033Z" fill="#006051" fill-opacity="0.5"/>
<path d="M39.9494 196.365C39.9648 196.966 39.8553 197.564 39.6281 198.12C41.6705 195.962 43.565 193.666 45.2984 191.248C49.4843 185.763 50.7312 178.742 50.8005 173.955C50.8697 169.167 55.2041 160.87 55.2041 160.87C68.994 128.804 76.2876 122.083 78.9257 119.653C79.2143 119.387 79.4473 119.172 79.6269 118.981C81.4477 117.047 91.3732 115.58 94.144 115.86C96.0115 116.048 95.2223 118.085 93.9972 121.246C93.4046 122.775 92.7101 124.568 92.1649 126.541C90.4925 132.595 87.4248 141.431 86.0295 143.137C84.6342 144.842 78.8649 153.07 78.4889 156.81C78.1699 159.983 76.0853 170.094 74.2641 178.927L74.2609 178.942C73.9361 180.517 73.6197 182.052 73.3233 183.499C71.3639 193.064 71.928 206.278 72.4821 206.937C73.0363 207.595 81.0222 229.447 82.8034 236.238C84.5847 243.03 97.6966 268.592 101.605 272.95C105.514 277.309 105.514 279.702 101.605 282.375C97.6966 285.048 95.3315 283.642 95.3315 283.642C82.3249 268.994 75.9716 244.652 73.2113 234.076C72.1809 230.128 71.6512 228.098 71.4629 229.207C70.7702 233.286 74.7879 251.577 77.0441 259.028C79.1614 266.019 88.041 282.548 89.6828 285.604L89.9086 286.026C90.5815 287.292 86.6232 293.476 81.6753 291.371C76.7274 289.267 68.3655 266.059 66.8316 259.167C65.2978 252.276 60.6666 217.538 62.6457 196.864C63.7796 183.899 66.403 171.11 70.4634 158.755C71.1119 156.69 73.4169 152.495 75.6643 148.404C77.7036 144.692 79.6954 141.067 80.3592 139.197C80.7834 138.003 81.4006 136.366 82.0543 134.632C83.5505 130.663 85.2378 126.187 85.2378 125.354C85.2378 124.158 84.0305 124.018 82.8727 124.527C82.1979 124.823 79.9399 129.087 77.758 133.206C76.1962 136.155 74.6735 139.03 73.7983 140.324C72.107 142.825 66.4286 155.372 63.2693 162.352L63.261 162.37C62.5051 164.041 61.8941 165.391 61.5176 166.205C59.5681 170.424 55.9265 210.218 58.0244 233.566C60.1223 256.913 71.1165 284.909 73.0957 288.419C74.3762 290.487 75.0614 292.873 75.0748 295.311C75.0748 296.298 67.5342 300.936 65.7233 300.656C63.9124 300.377 62.9327 289.676 62.6556 286.165C62.3785 282.655 53.3041 248.057 51.7703 251.149C50.2364 254.24 54.838 276.89 56.0947 281.248C56.3591 282.165 56.9198 283.567 57.5899 285.244C60.1057 291.536 64.1629 301.684 59.865 304.456C54.4223 307.967 53.1854 302.841 53.1854 302.841C46.1192 286.773 43.3883 269.11 45.2687 251.637C45.2687 249.543 46.5156 235.271 46.9312 231.072C47.3468 226.873 48.1781 212.811 46.9312 212.811C46.0394 212.811 45.6792 213.995 44.9597 216.358C44.6734 217.299 44.3296 218.429 43.8734 219.742C42.2703 224.36 41.1026 246.601 41.5182 251.847C41.9338 257.093 42.3495 276.202 41.5182 279.972C40.9222 282.675 38.6169 288.187 36.82 292.484C36.1111 294.18 35.4805 295.688 35.0662 296.757C33.8923 299.787 33.9327 304.7 33.9593 307.938C33.9659 308.74 33.9716 309.439 33.9578 309.982C33.8367 312.157 33.2746 314.285 32.3062 316.234C31.3378 318.182 29.9836 319.91 28.3271 321.311C24.2204 324.672 17.2934 325.51 17.2934 324.672C17.2934 324.279 18.766 321.333 20.4567 317.951C22.364 314.135 24.549 309.765 25.21 307.877C25.7605 306.305 27.2446 303.625 28.7306 300.942C30.6104 297.547 32.4933 294.147 32.4933 292.977C32.4933 290.883 33.5422 274.097 34.1657 270.736C34.7891 267.375 35.0068 250.381 33.8886 250.171C32.7704 249.962 28.5448 265.49 27.4464 270.736C26.348 275.982 24.3787 268.632 23.7454 265.7C23.1237 261.946 23.3401 258.099 24.3787 254.44C24.8586 253.086 25.2384 250.422 25.6336 247.65C26.1348 244.134 26.6607 240.446 27.4464 239.041C27.8775 238.27 28.7351 237.301 29.741 236.164C32.014 233.596 35.0441 230.172 35.6203 226.245C36.4516 220.58 36.4516 206.937 36.4516 206.937C36.4516 206.937 27.9016 215.753 28.7428 221.288C29.5839 226.824 28.4954 231.282 26.0412 234.523C23.5871 237.764 21.0933 242.402 21.0933 245.972C21.0933 249.543 19.4209 252.066 17.9663 250.59C16.5116 249.114 15.0569 240.098 15.0569 235.48C15.0569 230.863 28.3667 198.549 30.4053 195.238C30.638 194.86 30.8455 194.507 31.0369 194.182C32.5217 191.658 33.0426 190.773 36.9167 192.346C37.4874 192.521 38.0155 192.815 38.4671 193.208C38.9187 193.601 39.2838 194.085 39.5391 194.629C39.7943 195.172 39.9341 195.764 39.9494 196.365Z" fill="#006051" fill-opacity="0.5"/>
<path d="M43.2399 292.199C42.7122 292.11 42.1724 292.128 41.6514 292.25C41.1304 292.372 40.6384 292.597 40.2036 292.911C39.7688 293.225 39.3998 293.622 39.1176 294.08C38.8354 294.538 38.6457 295.048 38.5592 295.58C38.022 298.287 38.0498 302.234 38.0706 305.187C38.0805 306.585 38.0888 307.761 38.0347 308.475C37.9584 309.485 37.3396 311.245 36.7578 312.899C36.0581 314.889 35.4119 316.727 35.828 316.923C36.5899 317.282 41.7654 316.035 44.2987 313.013C46.8321 309.991 49.0586 305.892 48.9696 301.893C48.8805 297.894 47.5644 292.199 43.2399 292.199Z" fill="#006051" fill-opacity="0.5"/>
<path d="M111.189 116.359C112.178 117.247 108.774 121.446 108.774 121.446C108.774 121.446 101.095 138.031 99.2347 141.352C97.3743 144.674 86.0733 168.221 88.5967 177.895C90.7968 186.33 89.9127 195.067 89.2106 202.007C89.1075 203.026 89.0082 204.007 88.9233 204.943C88.2603 212.243 97.9086 234.464 99.7493 237.566C101.59 240.667 115.701 266.209 115.701 266.209L121.401 272.851C121.401 272.851 113.979 281.369 106.558 272.851C99.1357 264.334 82.0853 224.191 79.3441 204.613C76.603 185.036 79.0275 170.993 79.8983 166.804C80.3055 164.846 82.7033 159.54 85.3222 153.744C88.304 147.146 91.5724 139.914 92.5154 136.266C94.2868 129.414 101.432 117.137 103.401 114.813C105.37 112.489 110.199 115.471 111.189 116.359Z" fill="#006051" fill-opacity="0.5"/>
<path d="M102.53 171.81C102.728 168.139 103.393 164.509 104.51 161.009C106.182 156.441 107.973 148.832 104.51 147.156C101.046 145.481 95.1581 146.697 95.1581 159.483C95.1581 163.477 94.8684 167.665 94.5605 172.115C93.8828 181.911 93.1168 192.982 95.1581 206.059C98.1268 225.078 112.525 259.067 131.406 276.63C142.627 287.067 146.057 289.15 148.959 290.912C150.94 292.114 152.674 293.167 156.472 296.627C165.834 305.154 213.066 314.14 226.218 312.455C239.369 310.769 242.833 304.546 243.437 302.262C244.04 299.978 242.229 296.168 240.418 297.844L240.41 297.851C238.579 299.545 228.745 308.645 196.926 301.494C165.062 294.333 156.443 286.434 154.632 284.759C153.73 283.924 148.815 278.934 143.848 273.891L143.844 273.886L143.828 273.87L143.824 273.866C138.829 268.794 133.788 263.677 132.732 262.688C130.625 260.713 109.972 232.399 109.972 228.439C109.972 227.475 111.558 229.785 114.473 234.032C123.533 247.227 145.431 279.123 172.494 289.626C208.267 303.509 221.28 301.045 228.227 298.761L229.28 298.416C235.855 296.261 242.081 294.22 242.081 291.91C242.081 289.476 241.932 284.599 239.508 284.599C238.641 284.599 236.407 285.611 233.597 286.883C228.545 289.171 221.631 292.301 217.46 291.91C214.727 291.654 211.513 290.777 208.064 289.837C203.319 288.544 198.131 287.129 193.146 287.043C184.537 286.893 166.259 276.241 161.885 271.973C161.238 271.341 160.156 270.529 158.707 269.441C150.372 263.185 129.893 247.813 110.081 205.151C110.081 205.151 101.521 179.3 102.53 171.81Z" fill="#006051" fill-opacity="0.5"/>
<path d="M153.84 299.41C155.7 299.071 165.18 305.554 165.18 305.554C165.18 305.554 168.752 310.58 203.457 314.639C232.187 318 238.632 312.379 240.965 310.344C241.45 309.921 241.758 309.653 242.051 309.653C243.753 309.653 244.406 315.976 243.535 318.19C242.664 320.404 233.936 323.486 228.691 323.994C225.471 324.307 222.886 324.168 217.099 323.857C213.459 323.662 208.554 323.398 201.428 323.137C189.166 322.506 177.169 319.31 166.199 313.752C165.381 313.291 163.291 313.477 161.164 313.667C159.33 313.831 157.468 313.996 156.373 313.752C154.008 313.223 152.652 309.663 152.484 306.242L152.459 305.752L152.439 305.393C152.275 302.326 152.135 299.721 153.84 299.41Z" fill="#006051" fill-opacity="0.5"/>
<path d="M169.756 319.726C169.756 319.726 162.829 314.6 160.612 316.654C158.395 318.709 158.079 324.842 165.184 326.548C168.425 327.326 173.505 328.673 178.407 329.973C184.25 331.522 189.842 333.005 191.774 333.379C195.326 334.068 205.499 335.773 213.287 335.773C218.025 335.773 222.702 334.444 226.364 333.403C228.72 332.733 230.658 332.183 231.921 332.183C235.147 332.183 244.617 332.183 245.132 330.188C245.525 328.663 244.739 325.878 244.262 324.193C244.116 323.674 243.998 323.259 243.954 323.017C243.766 321.99 241.065 322.329 239.194 323.356C237.324 324.383 226.162 327.964 221.075 328.343C215.989 328.722 202.105 329.061 189.913 326.059C183.065 324.392 176.331 322.276 169.756 319.726Z" fill="#006051" fill-opacity="0.5"/>
<path d="M183.315 343.452C223.62 349.765 238.187 339.692 238.187 339.692C238.187 339.692 242.254 338.156 239.879 334.915C238.018 332.375 233.664 334.239 229.586 335.985C228.461 336.467 227.357 336.94 226.332 337.308C221.592 339.014 210.578 339.483 202.225 339.183C193.873 338.884 163.503 328.761 161.128 327.914C159.555 327.352 157.538 325.061 156.06 323.381C155.307 322.526 154.694 321.829 154.35 321.6C153.33 320.922 143.009 337.139 183.315 343.452Z" fill="#006051" fill-opacity="0.5"/>
<path d="M159.216 340.211C159.216 340.211 155.535 337.648 155.535 340.211C155.535 342.774 157.514 346.863 161.472 348.738C164.604 350.408 168.092 351.288 171.635 351.301C175.945 351.684 180.141 352.9 183.995 354.882C187.379 356.597 199.413 361.374 220.411 357.445C241.41 353.515 246.487 348.568 247.506 347.033C248.525 345.497 248.011 342.764 247.506 340.55C247.001 338.336 245.527 337.249 243.548 339.064C241.569 340.879 229.367 351.81 199.561 349.935C169.755 348.06 159.216 340.211 159.216 340.211Z" fill="#006051" fill-opacity="0.5"/>
<path d="M170.434 354.713C177.203 353.007 179.746 356.597 179.746 356.597C179.746 356.597 180.934 362.422 201.804 364.297C217.876 365.741 233.983 358.39 242.086 354.692C244.505 353.588 246.21 352.809 246.988 352.688C250.372 352.159 251.886 355.062 248.077 359.669C244.267 364.277 232.421 367.688 226.662 369.054C222.776 369.976 213.877 370.666 206.66 371.226C203.18 371.496 200.09 371.736 198.142 371.956C192.155 372.635 190.592 371.956 189.236 370.76C188.96 370.516 187.738 369.778 186.023 368.742C179.309 364.687 165.043 356.071 170.434 354.713Z" fill="#006051" fill-opacity="0.5"/>
<path d="M208.723 375.228C208.723 375.228 198.589 375.357 198.975 377.522C199.361 379.686 204.161 383.915 208.723 383.017C209.502 382.864 210.89 382.614 212.684 382.292L212.704 382.288L212.73 382.283L212.767 382.277L212.787 382.273C221.537 380.701 239.661 377.443 243.952 375.228C245.302 374.53 246.591 373.963 247.76 373.448L247.765 373.445C251.091 371.981 253.442 370.946 253.442 368.585C253.442 365.394 252.521 361.604 250.325 362.422C249.99 362.547 249.194 362.975 248.023 363.606C241.511 367.113 223.431 376.85 208.723 375.228Z" fill="#006051" fill-opacity="0.5"/>
<path d="M218.017 389.27C218.017 387.993 229.12 384.423 229.12 384.423C231.796 384.22 241.896 378.951 246.988 376.296L246.994 376.292C248.414 375.552 249.445 375.014 249.813 374.848C250.568 374.496 251.39 374.314 252.222 374.314C253.054 374.314 253.877 374.496 254.632 374.848C255.513 375.487 256.651 380.453 256.275 383.136C255.989 385.171 250.312 386.546 245.76 387.649C244.311 388 242.976 388.323 241.965 388.632C240.164 389.181 237.685 390.441 235.152 391.729C231.798 393.434 228.348 395.188 226.251 395.404C222.569 395.783 218.017 390.546 218.017 389.27Z" fill="#006051" fill-opacity="0.5"/>
<path d="M239.79 401.787C238.576 402.422 237.229 402.754 235.861 402.754C234.493 402.754 233.146 402.422 231.932 401.787C227.628 399.613 229.142 397.229 232.922 395.424C235.47 394.207 239.299 392.646 242.34 391.406C243.81 390.807 245.097 390.282 245.965 389.908C248.627 388.762 255.366 386.208 256.306 387.226C257.246 388.243 258.76 390.936 258.512 391.823C258.265 392.711 239.79 401.787 239.79 401.787Z" fill="#006051" fill-opacity="0.5"/>
<path d="M239.132 407.401C239.132 408.429 245.841 411.999 245.841 411.999C248.503 412.508 263.298 408.678 263.298 405.167C263.298 401.657 259.755 398.335 259.755 398.335C259.755 398.335 245.97 403.95 243.922 403.95C241.873 403.95 239.132 406.374 239.132 407.401Z" fill="#006051" fill-opacity="0.5"/>
<path d="M263.329 419.659C263.329 419.659 259.657 420.427 257.5 419.659C256.333 419.243 255.056 418.195 253.991 417.32C253.086 416.577 252.333 415.959 251.929 415.959C251.048 415.959 253.977 414.044 256.313 413.964C257.912 413.909 260.195 413.195 261.923 412.654C262.717 412.405 263.394 412.193 263.833 412.099C265.229 411.8 267 413.715 267 416.088C267 418.462 263.329 419.659 263.329 419.659Z" fill="#006051" fill-opacity="0.5"/>
<path d="M130.145 119.031C130.145 119.799 126.246 123.649 126.246 123.649C122.347 128.216 117.231 141.122 116.895 144.343C116.558 147.565 117.894 156.531 119.24 161.946C119.826 164.304 121.016 171.124 122.325 178.631L122.326 178.636C124.024 188.371 125.924 199.26 126.969 203.067C128.046 206.993 131.171 213.523 133.693 218.794C135.502 222.574 137 225.705 137.211 226.763C137.715 229.297 158.041 250.62 160.891 251.807C162.006 252.271 165.332 255.092 169.44 258.578C175.832 264.002 184.119 271.035 188.926 273.299C196.823 277.019 220.84 281.248 225.293 281.587C229.746 281.926 226.54 284.828 226.54 284.828C209.034 288.1 186.413 286.883 164.751 269.749C120.249 234.543 112.184 201.71 108.493 169.895C104.802 138.08 116.42 115.351 119.745 114.623C123.07 113.895 130.145 118.263 130.145 119.031Z" fill="#006051" fill-opacity="0.5"/>
<path d="M141.739 127.03C141.739 127.03 145.935 125.903 146.103 124.526C146.271 123.15 145.598 119.899 140.166 118.981C134.733 118.064 129.498 121.973 125.807 131.777C122.116 141.581 123.828 162.405 128.499 175.261C130.355 180.369 131.048 185.079 131.769 189.974C132.862 197.396 134.017 205.242 139.384 215.543C140.633 217.94 141.7 220.001 142.621 221.781C148.269 232.691 148.438 233.017 151.467 235.341C154.06 237.33 163.483 246.57 169.346 252.32L169.352 252.326C171.45 254.384 173.095 255.996 173.801 256.664C176.483 259.197 190.763 268.682 193.593 268.682C196.423 268.682 197.631 264.114 197.462 261.91C197.294 259.706 196.958 258.529 193.088 258.359C189.219 258.19 183.687 251.757 183.687 251.757C183.687 251.757 163.035 232.129 161.353 231.112C159.67 230.095 143.055 210.976 143.055 208.772C143.055 206.567 143.392 203.186 144.738 205.051C144.885 205.256 145.133 205.608 145.466 206.082C148.175 209.932 156.51 221.778 162.194 227.053C168.576 232.977 188.724 250.231 193.593 252.265C198.462 254.3 200.649 254.47 200.985 250.57C201.322 246.67 203.667 244.815 205.686 246.002C207.704 247.189 222.865 255.976 227.625 255.477C230.2 255.207 233.447 252.952 236.23 251.02C238.591 249.38 240.618 247.973 241.617 248.206C243.794 248.715 237.59 255.816 235.571 257.003C233.552 258.19 237.253 260.723 237.926 261.062C239.18 261.765 240.623 262.048 242.046 261.868C243.47 261.689 244.8 261.057 245.843 260.065C249.544 256.853 249.88 252.624 247.525 246.7C246.112 243.146 245.29 238.333 244.667 234.679C244.251 232.243 243.923 230.322 243.567 229.636C243.445 229.401 243.327 229.146 243.21 228.891C242.468 227.284 241.741 225.71 240.153 229.636L239.975 230.076C238.093 234.758 234.574 243.51 223.023 244.157C211.099 244.825 198.007 243.16 183.559 233.496C169.111 223.831 151.655 210.656 137.89 171.391C124.125 132.126 141.739 127.03 141.739 127.03Z" fill="#006051" fill-opacity="0.5"/>
<path fill-rule="evenodd" clip-rule="evenodd" d="M236.558 210.062C237.2 209.917 237.872 210 238.461 210.298C239.302 210.976 240.192 215.843 240.192 217.538C240.192 219.234 239.688 235.52 223.736 239.031C210.49 241.946 199.558 236.032 192.864 232.411C191.496 231.671 190.306 231.027 189.308 230.573C183.43 227.901 169.833 215.893 163.114 209.629C156.395 203.366 150.022 189.324 148.003 183.23C147.561 181.894 146.96 180.202 146.272 178.262C143.819 171.35 140.254 161.303 138.771 153.11C137.342 145.221 139.17 141.347 140.593 138.328C141.063 137.333 141.489 136.43 141.739 135.507C142.749 131.787 151.655 126.711 155.346 125.364C159.037 124.018 161.887 129.583 161.719 130.899C161.551 132.216 160.808 137.203 160.808 137.203C159.921 143.301 165.349 153.863 170.103 163.115L170.625 164.131C175.494 173.615 192.623 195.268 206.052 202.718C216.843 208.704 226.886 197.232 231.283 192.21C232.358 190.982 233.095 190.139 233.424 190.032C235.096 189.483 236.284 197.093 234.77 202C233.256 206.907 234.265 212.153 234.938 211.095C235.343 210.573 235.916 210.208 236.558 210.062ZM165.636 202.42L165.639 202.424C166.721 204.074 167.534 205.313 167.716 205.56C168.339 206.428 178.848 215.713 178.848 215.713C179.017 213.848 174.821 207.585 170.289 202.339C166.582 198.377 162.535 194.752 158.196 191.508C158.792 191.988 163.006 198.411 165.636 202.42ZM196.421 218.043C199.791 220.646 204.835 224.541 215.285 224.909C228.05 225.377 231.197 218.735 230.594 217.738C229.99 216.74 227.664 216.72 225.22 217.738C225.064 217.803 224.881 217.884 224.671 217.978C221.597 219.349 212.822 223.263 199.936 214.357C186.171 204.842 170.546 187.798 168.616 183.898C168.254 183.166 167.48 181.867 166.466 180.165C162.078 172.798 153.185 157.87 153.594 148.522C153.594 148.522 152.437 142.598 152.605 141.252C152.773 139.905 148.409 142.1 149.082 144.892C149.755 147.685 156.425 171.371 158.819 176.109C161.214 180.846 167.26 187.558 174.653 195.288C177.57 198.338 180.725 201.953 183.687 205.346C188.229 210.55 192.316 215.233 194.395 216.561C195.015 216.957 195.678 217.469 196.421 218.043Z" fill="#006051" fill-opacity="0.5"/>
<path fill-rule="evenodd" clip-rule="evenodd" d="M231.741 178.822C230.983 178.822 229.846 179.639 228.693 180.469C226.833 181.806 224.932 183.174 224.517 181.185C224.19 179.623 224.904 177.19 225.732 174.364C226.613 171.36 227.623 167.914 227.654 164.599C227.713 158.167 226.367 146.159 223.349 140.065C220.331 133.971 217.471 128.895 212.266 132.086C207.5 135.009 209.346 137.429 211.37 140.083C211.557 140.327 211.745 140.574 211.929 140.823C212.129 141.092 212.357 141.393 212.609 141.723L212.612 141.727C215.118 145.021 219.846 151.236 219.846 158.157C219.846 165.776 218.678 176.109 215.818 176.767C212.958 177.425 205.922 175.072 199.362 170.165C192.801 165.258 182.539 155.783 180.56 152.911C178.58 150.038 174.345 143.087 175.523 141.94C176.7 140.793 178.541 140.245 180.223 143.456C181.905 146.667 190.802 156.152 193.147 158.356C193.427 158.62 193.775 158.948 194.175 159.326L194.185 159.336C197.132 162.122 202.881 167.556 205.24 169.187C205.537 169.393 205.843 169.616 206.156 169.843C208.66 171.666 211.584 173.793 213.968 170.025C216.649 165.786 216.828 156.152 214.809 152.432C212.79 148.712 209.337 142.459 208.297 140.853C207.258 139.247 205.24 136.524 201.37 138.21C197.501 139.895 197.848 142.947 199.015 144.134C199.294 144.418 199.873 144.876 200.598 145.45C202.904 147.277 206.696 150.28 207.08 152.602C207.161 153.088 207.262 153.63 207.367 154.187C207.917 157.125 208.547 160.486 206.576 158.356C205.575 157.276 203.931 155.171 202.257 153.028C200.006 150.146 197.701 147.195 196.838 146.578C195.334 145.501 184.241 138.719 184.241 138.719C184.241 138.719 170.98 133.134 170.139 131.787C169.298 130.441 166.557 130.092 168.516 138.04C168.799 139.186 169.072 140.36 169.349 141.551C170.993 148.625 172.779 156.305 177.522 162.246C182.068 167.941 182.885 170.669 183.682 173.332C183.856 173.914 184.03 174.495 184.241 175.101C185.418 178.482 196.67 195.587 211.276 199.137C224.055 202.244 229.509 189.678 231.237 185.697C231.484 185.127 231.655 184.733 231.76 184.586C232.602 183.409 233.759 178.822 231.741 178.822ZM217.807 189.104C217.479 191.396 214.642 190.577 211.981 189.809C210.555 189.397 209.18 189 208.268 189.104C205.655 189.403 200.509 184.746 197.323 180.986C194.137 177.226 191.613 173.406 192.623 172.897C193.126 172.644 194.378 173.778 196.007 175.251C197.646 176.735 199.667 178.564 201.687 179.669C202.109 179.9 202.548 180.144 203 180.396C206.856 182.54 211.643 185.201 214.947 184.746C218.639 184.237 217.807 189.104 217.807 189.104Z" fill="#006051" fill-opacity="0.5"/>
<path d="M246.051 266.249C246.051 264.793 249.019 261.412 249.019 261.412C251.508 260.844 251.656 263.638 251.761 265.62C251.776 265.899 251.79 266.163 251.81 266.399L251.823 266.552C251.976 268.378 252.088 269.72 250.365 270.787C248.594 271.884 247.495 271.236 247.555 269.789C247.585 269.058 247.199 268.533 246.811 268.004C246.432 267.488 246.051 266.968 246.051 266.249Z" fill="#006051" fill-opacity="0.5"/>
<path d="M251.872 273.659C251.872 273.659 248.824 275.593 249.022 277.847C249.114 278.899 249.043 279.883 248.977 280.797C248.901 281.842 248.832 282.795 249.022 283.652C249.378 285.258 251.931 285.427 252.733 283.652C252.914 283.251 253.119 282.883 253.318 282.527C253.997 281.31 254.594 280.24 253.851 278.496C253.487 277.641 253.39 276.489 253.306 275.483C253.168 273.837 253.063 272.581 251.872 273.659Z" fill="#006051" fill-opacity="0.5"/>
<path d="M250.328 297.036C250.002 298.811 254.197 295.749 254.197 295.749L254.234 295.726C256.42 294.353 257.837 293.463 255.771 289.456C254.311 286.626 253.872 287.058 253.243 287.677C252.976 287.939 252.675 288.234 252.248 288.329C251.173 288.568 250.815 292.338 250.565 294.961C250.482 295.84 250.41 296.591 250.328 297.036Z" fill="#006051" fill-opacity="0.5"/>
<path d="M257.533 301.066C257.533 301.066 258.671 296.757 255.465 299.4C254.195 300.447 253.281 300.951 252.652 301.298C251.691 301.827 251.393 301.991 251.506 303.16C251.694 305.095 252.417 308.147 254.158 307.678C254.396 307.614 254.658 307.57 254.929 307.524C256.652 307.232 258.772 306.872 257.533 301.066Z" fill="#006051" fill-opacity="0.5"/>
<path d="M254.71 315.577C254.284 312.515 259.45 310.092 259.45 310.092C260.582 309.437 260.652 310.985 260.736 312.843C260.782 313.843 260.831 314.933 261.053 315.816C261.686 318.34 259.935 321.501 258.807 321.561C257.679 321.621 255.135 318.639 254.71 315.577Z" fill="#006051" fill-opacity="0.5"/>
</g>
</g>
<defs>
<filter id="filter0_b_214_4015" x="-84" y="-19" width="370" height="458" filterUnits="userSpaceOnUse" color-interpolation-filters="sRGB">
<feFlood flood-opacity="0" result="BackgroundImageFix"/>
<feGaussianBlur in="BackgroundImage" stdDeviation="9.5"/>
<feComposite in2="SourceAlpha" operator="in" result="effect1_backgroundBlur_214_4015"/>
<feBlend mode="normal" in="SourceGraphic" in2="effect1_backgroundBlur_214_4015" result="shape"/>
</filter>
</defs>
</svg>
